G04 Layer_Color=16711935*
%FSAX25Y25*%
%MOIN*%
G70*
G01*
G75*
%ADD113C,0.06706*%
%ADD131R,0.06706X0.06706*%
%ADD145C,0.00800*%
%ADD146C,0.10249*%
%ADD147O,0.08674X0.07099*%
%ADD148C,0.06824*%
%ADD149C,0.06343*%
%ADD150C,0.05721*%
%ADD151O,0.06312X0.10642*%
%ADD152R,0.06312X0.10642*%
%ADD153R,0.06706X0.06706*%
%ADD154C,0.06312*%
%ADD155C,0.08280*%
%ADD156R,0.08674X0.08674*%
%ADD157C,0.06902*%
%ADD158C,0.00197*%
%ADD159C,0.02769*%
D113*
X1147890Y0321673D02*
D03*
X1137890Y0311673D02*
D03*
X1147890D02*
D03*
X1137890Y0301673D02*
D03*
X1147890D02*
D03*
X1137890Y0291673D02*
D03*
X1147890D02*
D03*
X1137890Y0281673D02*
D03*
X1147890D02*
D03*
X1137890Y0271673D02*
D03*
X1147890D02*
D03*
X1137890Y0261673D02*
D03*
X1147890D02*
D03*
X1137890Y0251673D02*
D03*
X1147890D02*
D03*
X1137890Y0241673D02*
D03*
X1147890D02*
D03*
X1151498Y0171295D02*
D03*
Y0181295D02*
D03*
Y0191295D02*
D03*
Y0201295D02*
D03*
X1141498Y0161295D02*
D03*
Y0171295D02*
D03*
Y0181295D02*
D03*
Y0191295D02*
D03*
Y0201295D02*
D03*
X0603248Y0195295D02*
D03*
X0593248D02*
D03*
X0603248Y0325295D02*
D03*
X0593248Y0315295D02*
D03*
X0603248D02*
D03*
X0593248Y0305295D02*
D03*
X0603248D02*
D03*
X0593248Y0295295D02*
D03*
X0603248D02*
D03*
X0593248Y0285295D02*
D03*
X0603248D02*
D03*
X0593248Y0275295D02*
D03*
X0603248D02*
D03*
X0593248Y0265295D02*
D03*
X0603248D02*
D03*
X0593248Y0255295D02*
D03*
X0603248D02*
D03*
X0593248Y0245295D02*
D03*
X0603248D02*
D03*
X0593248Y0235295D02*
D03*
X0603248D02*
D03*
X0593248Y0225295D02*
D03*
X0603248D02*
D03*
X0593248Y0215295D02*
D03*
X0603248D02*
D03*
X0593248Y0205295D02*
D03*
X0603248D02*
D03*
X0593248Y0185295D02*
D03*
X0603248D02*
D03*
X0871748Y0131545D02*
D03*
Y0121545D02*
D03*
X0861748Y0131545D02*
D03*
Y0121545D02*
D03*
X0851748Y0131545D02*
D03*
D131*
Y0121545D02*
D03*
D145*
X0659998Y0332187D02*
D03*
X0922990D02*
D03*
X0711228Y0199795D02*
D03*
Y0119795D02*
D03*
X0766228Y0199795D02*
D03*
Y0119795D02*
D03*
X0984748Y0148295D02*
D03*
X1034748D02*
D03*
D146*
X0778748Y0199795D02*
D03*
X0698748Y0119795D02*
D03*
Y0199795D02*
D03*
X0738748D02*
D03*
X0728748Y0119795D02*
D03*
X0748748D02*
D03*
X0977996Y0135775D02*
D03*
X1041500D02*
D03*
D147*
X0669998Y0116545D02*
D03*
Y0126545D02*
D03*
Y0136545D02*
D03*
Y0146545D02*
D03*
Y0166545D02*
D03*
Y0176545D02*
D03*
Y0186545D02*
D03*
D148*
X0985752Y0228295D02*
D03*
X0995752D02*
D03*
X1023744D02*
D03*
X1033744D02*
D03*
D149*
X1017740Y0218295D02*
D03*
X1025732D02*
D03*
X1033724D02*
D03*
X0989768Y0208295D02*
D03*
X0997760D02*
D03*
X1021736D02*
D03*
X1029728D02*
D03*
D150*
X1031756Y0180264D02*
D03*
X0987740D02*
D03*
D151*
X0810248Y0127045D02*
D03*
X0820248D02*
D03*
D152*
X0830248D02*
D03*
D153*
X1137890Y0321673D02*
D03*
X1151498Y0161295D02*
D03*
X0593248Y0325295D02*
D03*
D154*
X0951039Y0165667D02*
D03*
Y0157793D02*
D03*
X0945685Y0153856D02*
D03*
X0951039Y0173541D02*
D03*
Y0149919D02*
D03*
X1067604Y0318004D02*
D03*
X1114311Y0171795D02*
D03*
X1105404Y0318004D02*
D03*
X1086502D02*
D03*
D155*
X0940331Y0174604D02*
D03*
X0961748D02*
D03*
X0940331Y0147045D02*
D03*
X0961748D02*
D03*
D156*
X1114604Y0260461D02*
D03*
X1058504Y0290004D02*
D03*
Y0250604D02*
D03*
Y0211204D02*
D03*
Y0280204D02*
D03*
Y0261704D02*
D03*
Y0171804D02*
D03*
X1080904Y0250604D02*
D03*
X1102104D02*
D03*
X1114604Y0230904D02*
D03*
Y0191504D02*
D03*
X1092304Y0171804D02*
D03*
X1114604Y0270304D02*
D03*
Y0280204D02*
D03*
Y0299804D02*
D03*
Y0309704D02*
D03*
X1058504Y0299804D02*
D03*
D157*
X1067756Y0293252D02*
D03*
X1105649Y0293449D02*
D03*
D158*
X0600248Y0345705D02*
D03*
X0997886Y0345705D02*
D03*
X1198673Y0345705D02*
D03*
Y0121295D02*
D03*
X0600248D02*
D03*
D159*
X1012490Y0293553D02*
D03*
X1008159D02*
D03*
X1003829D02*
D03*
X0999498D02*
D03*
X0995167D02*
D03*
X0990837D02*
D03*
X0986506D02*
D03*
X1012490Y0297884D02*
D03*
X1008159D02*
D03*
X1003829D02*
D03*
X0999498D02*
D03*
X0995167D02*
D03*
X0990837D02*
D03*
X0986506D02*
D03*
X1012490Y0302215D02*
D03*
X1008159D02*
D03*
X1003829D02*
D03*
X0999498D02*
D03*
X0995167D02*
D03*
X0990837D02*
D03*
X0986506D02*
D03*
X1012490Y0306545D02*
D03*
X1008159D02*
D03*
X1003829D02*
D03*
X0999498D02*
D03*
X0995167D02*
D03*
X0990837D02*
D03*
X0986506D02*
D03*
X1012490Y0310876D02*
D03*
X1008159D02*
D03*
X1003829D02*
D03*
X0999498D02*
D03*
X0995167D02*
D03*
X0990837D02*
D03*
X0986506D02*
D03*
X1012490Y0315207D02*
D03*
X1008159D02*
D03*
X1003829D02*
D03*
X0999498D02*
D03*
X0995167D02*
D03*
X0990837D02*
D03*
X0986506D02*
D03*
X1012490Y0319537D02*
D03*
X1008159D02*
D03*
X1003829D02*
D03*
X0999498D02*
D03*
X0995167D02*
D03*
X0990837D02*
D03*
X0986506D02*
D03*
M02*
