G04 Layer_Color=32896*
%FSAX25Y25*%
%MOIN*%
G70*
G01*
G75*
%ADD48C,0.03937*%
%ADD54C,0.01181*%
%ADD55C,0.01969*%
%ADD104C,0.05118*%
%ADD107C,0.00100*%
%ADD108C,0.00787*%
D48*
X0905248Y0116545D02*
X0909998Y0111795D01*
X0914748Y0116545D01*
X0905248D02*
X0914748D01*
X0945248D02*
X0954748D01*
X0949998Y0111795D02*
X0954748Y0116545D01*
X0945248D02*
X0949998Y0111795D01*
X1007748Y0116295D02*
X1012498Y0111545D01*
X1017248Y0116295D01*
X1007748D02*
X1017248D01*
D54*
X1194163Y0200864D02*
Y0198896D01*
Y0199880D01*
X1200067D01*
Y0200864D01*
Y0198896D01*
Y0195944D02*
X1194163D01*
Y0192993D01*
X1195147Y0192009D01*
X1197115D01*
X1198099Y0192993D01*
Y0195944D01*
Y0193977D02*
X1200067Y0192009D01*
X1194163Y0184137D02*
X1200067D01*
Y0180201D01*
X1194163Y0178234D02*
Y0176266D01*
Y0177250D01*
X1200067D01*
Y0178234D01*
Y0176266D01*
Y0173314D02*
X1194163D01*
X1200067Y0169378D01*
X1194163D01*
Y0167410D02*
X1200067D01*
X1198099D01*
X1194163Y0163475D01*
X1197115Y0166427D01*
X1200067Y0163475D01*
X1205147Y0323178D02*
X1204163Y0324162D01*
Y0326130D01*
X1205147Y0327114D01*
X1206131D01*
X1207115Y0326130D01*
Y0324162D01*
X1208099Y0323178D01*
X1209083D01*
X1210067Y0324162D01*
Y0326130D01*
X1209083Y0327114D01*
X1204163Y0317275D02*
Y0321211D01*
X1207115D01*
Y0319243D01*
Y0321211D01*
X1210067D01*
Y0315307D02*
X1204163D01*
Y0312355D01*
X1205147Y0311371D01*
X1207115D01*
X1208099Y0312355D01*
Y0315307D01*
X1204163Y0303500D02*
Y0301532D01*
Y0302516D01*
X1210067D01*
Y0303500D01*
Y0301532D01*
X1204163Y0295628D02*
Y0297596D01*
X1205147Y0298580D01*
X1209083D01*
X1210067Y0297596D01*
Y0295628D01*
X1209083Y0294644D01*
X1205147D01*
X1204163Y0295628D01*
X1205147Y0282837D02*
X1204163Y0283821D01*
Y0285789D01*
X1205147Y0286773D01*
X1209083D01*
X1210067Y0285789D01*
Y0283821D01*
X1209083Y0282837D01*
X1204163Y0277918D02*
Y0279885D01*
X1205147Y0280869D01*
X1209083D01*
X1210067Y0279885D01*
Y0277918D01*
X1209083Y0276934D01*
X1205147D01*
X1204163Y0277918D01*
X1210067Y0274966D02*
X1204163D01*
X1210067Y0271030D01*
X1204163D01*
X1210067Y0269062D02*
X1204163D01*
X1210067Y0265126D01*
X1204163D01*
Y0259223D02*
Y0263158D01*
X1210067D01*
Y0259223D01*
X1207115Y0263158D02*
Y0261191D01*
X1205147Y0253319D02*
X1204163Y0254303D01*
Y0256271D01*
X1205147Y0257255D01*
X1209083D01*
X1210067Y0256271D01*
Y0254303D01*
X1209083Y0253319D01*
X1204163Y0251351D02*
Y0247415D01*
Y0249383D01*
X1210067D01*
X1204163Y0242496D02*
Y0244464D01*
X1205147Y0245448D01*
X1209083D01*
X1210067Y0244464D01*
Y0242496D01*
X1209083Y0241512D01*
X1205147D01*
X1204163Y0242496D01*
X1210067Y0239544D02*
X1204163D01*
Y0236592D01*
X1205147Y0235608D01*
X1207115D01*
X1208099Y0236592D01*
Y0239544D01*
Y0237576D02*
X1210067Y0235608D01*
X0648413Y0286364D02*
Y0284396D01*
Y0285380D01*
X0654317D01*
Y0286364D01*
Y0284396D01*
X0648413Y0278493D02*
Y0280461D01*
X0649397Y0281445D01*
X0653333D01*
X0654317Y0280461D01*
Y0278493D01*
X0653333Y0277509D01*
X0649397D01*
X0648413Y0278493D01*
X0649397Y0265702D02*
X0648413Y0266686D01*
Y0268653D01*
X0649397Y0269637D01*
X0653333D01*
X0654317Y0268653D01*
Y0266686D01*
X0653333Y0265702D01*
X0648413Y0260782D02*
Y0262750D01*
X0649397Y0263734D01*
X0653333D01*
X0654317Y0262750D01*
Y0260782D01*
X0653333Y0259798D01*
X0649397D01*
X0648413Y0260782D01*
X0654317Y0257830D02*
X0648413D01*
X0654317Y0253894D01*
X0648413D01*
X0654317Y0251926D02*
X0648413D01*
X0654317Y0247991D01*
X0648413D01*
Y0242087D02*
Y0246023D01*
X0654317D01*
Y0242087D01*
X0651365Y0246023D02*
Y0244055D01*
X0649397Y0236184D02*
X0648413Y0237168D01*
Y0239135D01*
X0649397Y0240119D01*
X0653333D01*
X0654317Y0239135D01*
Y0237168D01*
X0653333Y0236184D01*
X0648413Y0234216D02*
Y0230280D01*
Y0232248D01*
X0654317D01*
X0648413Y0225360D02*
Y0227328D01*
X0649397Y0228312D01*
X0653333D01*
X0654317Y0227328D01*
Y0225360D01*
X0653333Y0224376D01*
X0649397D01*
X0648413Y0225360D01*
X0654317Y0222409D02*
X0648413D01*
Y0219457D01*
X0649397Y0218473D01*
X0651365D01*
X0652349Y0219457D01*
Y0222409D01*
Y0220441D02*
X0654317Y0218473D01*
X0598898Y0166710D02*
X0592994D01*
X0594962Y0164743D01*
X0592994Y0162775D01*
X0598898D01*
X0592994Y0157855D02*
Y0159823D01*
X0593978Y0160807D01*
X0597914D01*
X0598898Y0159823D01*
Y0157855D01*
X0597914Y0156871D01*
X0593978D01*
X0592994Y0157855D01*
Y0154903D02*
X0596930D01*
X0598898Y0152936D01*
X0596930Y0150968D01*
X0592994D01*
Y0145064D02*
Y0149000D01*
X0598898D01*
Y0145064D01*
X0595946Y0149000D02*
Y0147032D01*
X0602913Y0172614D02*
X0608817D01*
Y0169662D01*
X0607833Y0168678D01*
X0603897D01*
X0602913Y0169662D01*
Y0172614D01*
X0608817Y0166710D02*
X0602913D01*
Y0163759D01*
X0603897Y0162775D01*
X0605865D01*
X0606849Y0163759D01*
Y0166710D01*
Y0164743D02*
X0608817Y0162775D01*
X0602913Y0160807D02*
Y0158839D01*
Y0159823D01*
X0608817D01*
Y0160807D01*
Y0158839D01*
X0602913Y0155887D02*
X0606849D01*
X0608817Y0153919D01*
X0606849Y0151952D01*
X0602913D01*
Y0146048D02*
Y0149984D01*
X0608817D01*
Y0146048D01*
X0605865Y0149984D02*
Y0148016D01*
X0608817Y0144080D02*
X0602913D01*
Y0141128D01*
X0603897Y0140144D01*
X0605865D01*
X0606849Y0141128D01*
Y0144080D01*
Y0142112D02*
X0608817Y0140144D01*
X0638817Y0118645D02*
Y0124549D01*
X0635865D01*
X0634881Y0123565D01*
Y0121597D01*
X0635865Y0120613D01*
X0638817D01*
X0632913Y0124549D02*
Y0118645D01*
X0630945Y0120613D01*
X0628978Y0118645D01*
Y0124549D01*
X0627010Y0118645D02*
Y0124549D01*
X0624058D01*
X0623074Y0123565D01*
Y0121597D01*
X0624058Y0120613D01*
X0627010D01*
X0625042D02*
X0623074Y0118645D01*
X0638817Y0114630D02*
Y0108726D01*
X0634881D01*
X0628978Y0114630D02*
X0632913D01*
Y0108726D01*
X0628978D01*
X0632913Y0111678D02*
X0630945D01*
X0627010Y0114630D02*
Y0108726D01*
X0624058D01*
X0623074Y0109710D01*
Y0113646D01*
X0624058Y0114630D01*
X0627010D01*
D55*
X0962248Y0278917D02*
X0958312Y0271045D01*
X0954377Y0278917D01*
X0950441Y0280885D02*
X0948473Y0282852D01*
X0944537D01*
X0942569Y0280885D01*
Y0273013D01*
X0944537Y0271045D01*
X0948473D01*
X0950441Y0273013D01*
Y0280885D01*
X0938634Y0271045D02*
Y0273013D01*
X0936666D01*
Y0271045D01*
X0938634D01*
X0928794Y0280885D02*
X0926826Y0282852D01*
X0922891D01*
X0920923Y0280885D01*
Y0278917D01*
X0922891Y0276949D01*
X0924858D01*
X0922891D01*
X0920923Y0274981D01*
Y0273013D01*
X0922891Y0271045D01*
X0926826D01*
X0928794Y0273013D01*
X0962248Y0303167D02*
Y0297263D01*
X0960280Y0295295D01*
X0958312Y0297263D01*
X0956344Y0295295D01*
X0954377Y0297263D01*
Y0303167D01*
X0950441D02*
Y0297263D01*
X0948473Y0295295D01*
X0946505Y0297263D01*
X0944537Y0295295D01*
X0942569Y0297263D01*
Y0303167D01*
X0938634D02*
Y0297263D01*
X0936666Y0295295D01*
X0934698Y0297263D01*
X0932730Y0295295D01*
X0930762Y0297263D01*
Y0303167D01*
X0926826Y0295295D02*
Y0297263D01*
X0924858D01*
Y0295295D01*
X0926826D01*
X0916987D02*
Y0307102D01*
Y0299231D02*
X0911084Y0303167D01*
X0916987Y0299231D02*
X0911084Y0295295D01*
X0903212D02*
X0899276D01*
X0897308Y0297263D01*
Y0301199D01*
X0899276Y0303167D01*
X0903212D01*
X0905180Y0301199D01*
Y0297263D01*
X0903212Y0295295D01*
X0893373Y0303167D02*
Y0295295D01*
Y0299231D01*
X0891405Y0301199D01*
X0889437Y0303167D01*
X0887469D01*
X0881565D02*
Y0297263D01*
X0879598Y0295295D01*
X0873694D01*
Y0303167D01*
X0869758D02*
X0861887D01*
X0869758Y0295295D01*
X0861887D01*
X0855983Y0303167D02*
X0852048D01*
X0850080Y0301199D01*
Y0295295D01*
X0855983D01*
X0857951Y0297263D01*
X0855983Y0299231D01*
X0850080D01*
X0846144Y0295295D02*
Y0297263D01*
X0844176D01*
Y0295295D01*
X0846144D01*
X0836304D02*
Y0303167D01*
X0830401D01*
X0828433Y0301199D01*
Y0295295D01*
X0818594D02*
X0822529D01*
X0824497Y0297263D01*
Y0301199D01*
X0822529Y0303167D01*
X0818594D01*
X0816626Y0301199D01*
Y0299231D01*
X0824497D01*
X0810722Y0305135D02*
Y0303167D01*
X0812690D01*
X0808754D01*
X0810722D01*
Y0297263D01*
X0808754Y0295295D01*
X0962248Y0315045D02*
Y0334724D01*
Y0321605D02*
X0952409Y0328164D01*
X0962248Y0321605D02*
X0952409Y0315045D01*
X0939289D02*
X0932730D01*
X0929450Y0318325D01*
Y0324885D01*
X0932730Y0328164D01*
X0939289D01*
X0942569Y0324885D01*
Y0318325D01*
X0939289Y0315045D01*
X0922891Y0328164D02*
Y0315045D01*
Y0321605D01*
X0919611Y0324885D01*
X0916331Y0328164D01*
X0913051D01*
X0903212D02*
Y0318325D01*
X0899932Y0315045D01*
X0890093D01*
Y0328164D01*
X0883533D02*
X0870414D01*
X0883533Y0315045D01*
X0870414D01*
X0860575Y0328164D02*
X0854015D01*
X0850735Y0324885D01*
Y0315045D01*
X0860575D01*
X0863855Y0318325D01*
X0860575Y0321605D01*
X0850735D01*
X0811378Y0331444D02*
X0814658Y0334724D01*
X0821218D01*
X0824497Y0331444D01*
Y0318325D01*
X0821218Y0315045D01*
X0814658D01*
X0811378Y0318325D01*
X0804819Y0315045D02*
Y0334724D01*
X0798259Y0328164D01*
X0791699Y0334724D01*
Y0315045D01*
X0765461Y0334724D02*
Y0315045D01*
X0755622D01*
X0752342Y0318325D01*
Y0321605D01*
Y0324885D01*
X0755622Y0328164D01*
X0765461D01*
X0742503Y0315045D02*
X0735943D01*
X0732663Y0318325D01*
Y0324885D01*
X0735943Y0328164D01*
X0742503D01*
X0745783Y0324885D01*
Y0318325D01*
X0742503Y0315045D01*
X0722824Y0328164D02*
X0716264D01*
X0712985Y0324885D01*
Y0315045D01*
X0722824D01*
X0726104Y0318325D01*
X0722824Y0321605D01*
X0712985D01*
X0706425Y0328164D02*
Y0315045D01*
Y0321605D01*
X0703145Y0324885D01*
X0699866Y0328164D01*
X0696586D01*
X0673627Y0334724D02*
Y0315045D01*
X0683467D01*
X0686747Y0318325D01*
Y0324885D01*
X0683467Y0328164D01*
X0673627D01*
D104*
X0609894Y0121295D02*
G03*
X0609894Y0121295I-0009646J0000000D01*
G01*
X1208319D02*
G03*
X1208319Y0121295I-0009646J0000000D01*
G01*
Y0345705D02*
G03*
X1208319Y0345705I-0009646J0000000D01*
G01*
X1007532Y0345705D02*
G03*
X1007532Y0345705I-0009646J0000000D01*
G01*
X0609894Y0345705D02*
G03*
X0609894Y0345705I-0009646J0000000D01*
G01*
D107*
X0952248Y0233595D02*
X0952348D01*
X0951448Y0233295D02*
X0951548D01*
X0950448Y0232995D02*
X0950548D01*
X0948348Y0232595D02*
X0948448D01*
X0948148D02*
X0948248D01*
X0947148Y0232495D02*
X0947248D01*
X0947148Y0243795D02*
X0949348D01*
X0946948Y0243695D02*
X0949348D01*
X0947048Y0243595D02*
X0949348D01*
X0946848Y0243495D02*
X0949348D01*
X0946948Y0243395D02*
X0949348D01*
X0946748D02*
X0946848D01*
X0946748Y0243295D02*
X0949348D01*
X0946748Y0243195D02*
X0949348D01*
X0946648Y0243095D02*
X0949348D01*
X0946548Y0242995D02*
X0949348D01*
X0946548Y0242895D02*
X0949348D01*
X0946448Y0242795D02*
X0949348D01*
X0946448Y0249595D02*
X0949348D01*
X0946448Y0249495D02*
X0949348D01*
X0946548Y0249395D02*
X0949348D01*
X0946648Y0249295D02*
X0949348D01*
X0946648Y0249195D02*
X0949348D01*
X0946748Y0249095D02*
X0949348D01*
X0946748Y0248995D02*
X0949348D01*
X0946848Y0248895D02*
X0949348D01*
X0946948Y0248795D02*
X0949348D01*
X0946948Y0248695D02*
X0949348D01*
X0947048Y0248595D02*
X0949348D01*
X0947148Y0248495D02*
X0949348D01*
X0947148Y0248395D02*
X0949348D01*
X0947248Y0248295D02*
X0949348D01*
X0947348Y0248195D02*
X0949348D01*
X0947348Y0248095D02*
X0949348D01*
X0947448Y0247995D02*
X0949348D01*
X0947448Y0247895D02*
X0949348D01*
X0947448Y0247795D02*
X0949348D01*
X0947648Y0247695D02*
X0949348D01*
X0947748Y0247595D02*
X0949348D01*
X0947648Y0247495D02*
X0949348D01*
X0947848Y0247395D02*
X0949348D01*
X0947948Y0247295D02*
X0949348D01*
X0947848Y0247195D02*
X0949348D01*
X0948048Y0247095D02*
X0949348D01*
X0948048Y0246995D02*
X0949348D01*
X0948148Y0246895D02*
X0949348D01*
X0948148Y0246795D02*
X0949348D01*
X0948248Y0246695D02*
X0949348D01*
X0948348Y0246595D02*
X0949348D01*
X0948348Y0246495D02*
X0949348D01*
X0948448Y0246395D02*
X0949348D01*
X0948448Y0246295D02*
X0949348D01*
X0948448Y0246195D02*
X0949348D01*
X0948548Y0246095D02*
X0949348D01*
X0948448Y0245995D02*
X0949348D01*
X0948448Y0245895D02*
X0949348D01*
X0948348Y0245795D02*
X0949348D01*
X0948348Y0245695D02*
X0949348D01*
X0948348Y0245595D02*
X0949348D01*
X0948148Y0245495D02*
X0949348D01*
X0948248Y0245395D02*
X0949348D01*
X0948048D02*
X0948148D01*
Y0245295D02*
X0949348D01*
X0947948Y0245195D02*
X0949348D01*
X0948048Y0245095D02*
X0949348D01*
X0947848D02*
X0947948D01*
X0947848Y0244995D02*
X0949348D01*
X0947748Y0244895D02*
X0949348D01*
X0947748Y0244795D02*
X0949348D01*
X0947648Y0244695D02*
X0949348D01*
X0947548Y0244595D02*
X0949348D01*
X0947648Y0244495D02*
X0949348D01*
X0947448D02*
X0947548D01*
Y0244395D02*
X0949348D01*
X0947448Y0244295D02*
X0949348D01*
X0947348Y0244195D02*
X0949348D01*
X0947248Y0244095D02*
X0949348D01*
X0947248Y0243995D02*
X0949348D01*
X0946948Y0259295D02*
X0947048D01*
X0948148Y0259195D02*
X0948248D01*
X0949148Y0259095D02*
X0949248D01*
X0950848Y0258695D02*
X0950948D01*
X0951748Y0258395D02*
X0951848D01*
X0951648Y0252795D02*
X0951748D01*
X0951448D02*
X0951548D01*
X0951248D02*
X0951348D01*
X0950848D02*
X0950948D01*
X0950648D02*
X0950748D01*
X0950248D02*
X0950348D01*
X0950048D02*
X0950148D01*
X0949648D02*
X0949748D01*
X0943048Y0233095D02*
X0943148D01*
X0944848Y0232695D02*
X0944948D01*
X0945648Y0232595D02*
X0945748D01*
X0943948Y0243695D02*
X0944048D01*
X0942348Y0241295D02*
X0942448D01*
X0945248Y0251295D02*
X0945348D01*
X0945948Y0250195D02*
X0946048D01*
X0944148Y0248395D02*
X0944248D01*
X0944748Y0247495D02*
X0944848D01*
X0945748Y0259195D02*
X0945848D01*
X0944848Y0259095D02*
X0944948D01*
X0943848Y0258895D02*
X0943948D01*
X0944048Y0252795D02*
X0944148D01*
X0943748D02*
X0943948D01*
X0943548D02*
X0943648D01*
X0943248D02*
X0943348D01*
X0942948D02*
X0943148D01*
X0942648D02*
X0942748D01*
X0942148D02*
X0942548D01*
X0941848D02*
X0942048D01*
X0941648D02*
X0941748D01*
X0947148Y0243895D02*
X0949348D01*
X0938248Y0235795D02*
X0955748D01*
X0938348Y0235695D02*
X0955648D01*
X0938448Y0235595D02*
X0955548D01*
X0938648Y0235495D02*
X0955348D01*
X0938648Y0235395D02*
X0955248D01*
X0938848Y0235295D02*
X0955148D01*
X0938948Y0235195D02*
X0955048D01*
X0939148Y0235095D02*
X0954848D01*
X0939348Y0234995D02*
X0954748D01*
X0939348Y0234895D02*
X0954548D01*
X0939548Y0234795D02*
X0954548D01*
X0939648Y0234695D02*
X0954248D01*
X0939848Y0234595D02*
X0954148D01*
X0940048Y0234495D02*
X0953948D01*
X0940148Y0234395D02*
X0953748D01*
X0940348Y0234295D02*
X0953648D01*
X0940548Y0234195D02*
X0953548D01*
X0940748Y0234095D02*
X0953248D01*
X0940848Y0233995D02*
X0953148D01*
X0941048Y0233895D02*
X0952848D01*
X0941348Y0233795D02*
X0952748D01*
X0941548Y0233695D02*
X0952448D01*
X0941748Y0233595D02*
X0952148D01*
X0941948Y0233495D02*
X0952048D01*
X0942248Y0233395D02*
X0951648D01*
X0942548Y0233295D02*
X0951348D01*
X0942848Y0233195D02*
X0951148D01*
X0943248Y0233095D02*
X0950748D01*
X0943548Y0232995D02*
X0950348D01*
X0943948Y0232895D02*
X0950048D01*
X0944348Y0232795D02*
X0949648D01*
X0945048Y0232695D02*
X0948948D01*
X0945948Y0232595D02*
X0948048D01*
X0933848Y0243795D02*
X0944048D01*
X0933748Y0243695D02*
X0943848D01*
X0933848Y0243595D02*
X0943848D01*
X0933848Y0243495D02*
X0943748D01*
X0933848Y0243395D02*
X0943848D01*
X0933848Y0243295D02*
X0943648D01*
X0933948Y0243195D02*
X0943548D01*
X0933948Y0243095D02*
X0943648D01*
X0933948Y0242995D02*
X0943548D01*
X0933948Y0242895D02*
X0943348D01*
X0934048Y0242795D02*
X0943448D01*
X0946348Y0242695D02*
X0949348D01*
X0933948D02*
X0943248D01*
X0946348Y0242595D02*
X0949348D01*
X0934048D02*
X0943248D01*
X0946248Y0242495D02*
X0949348D01*
X0934048D02*
X0943148D01*
X0946148Y0242395D02*
X0949348D01*
X0934148D02*
X0943048D01*
X0946148Y0242295D02*
X0949348D01*
X0934148D02*
X0943048D01*
X0946048Y0242195D02*
X0949348D01*
X0934148D02*
X0942948D01*
X0945948Y0242095D02*
X0949348D01*
X0934248D02*
X0942848D01*
X0946048Y0241995D02*
X0949348D01*
X0934148D02*
X0942848D01*
X0945848Y0241895D02*
X0949348D01*
X0934248D02*
X0942748D01*
X0945848Y0241795D02*
X0949348D01*
X0934248D02*
X0942748D01*
X0945748Y0241695D02*
X0949348D01*
X0934348D02*
X0942548D01*
X0945648Y0241595D02*
X0949348D01*
X0934348D02*
X0942648D01*
X0945548Y0241495D02*
X0949348D01*
X0934448D02*
X0942448D01*
X0945548Y0241395D02*
X0949348D01*
X0934448D02*
X0942448D01*
X0945548Y0241295D02*
X0949348D01*
X0934448D02*
X0942248D01*
X0945348Y0241195D02*
X0949348D01*
X0934548D02*
X0942248D01*
X0945348Y0241095D02*
X0949348D01*
X0934448D02*
X0942248D01*
X0945348Y0240995D02*
X0949348D01*
X0934548D02*
X0942148D01*
X0945148Y0240895D02*
X0949348D01*
X0934648D02*
X0942148D01*
X0945148Y0240795D02*
X0949348D01*
X0934648D02*
X0941948D01*
X0945148Y0240695D02*
X0949348D01*
X0934648D02*
X0941948D01*
X0944948Y0240595D02*
X0949348D01*
X0934748D02*
X0941848D01*
X0945048Y0240495D02*
X0949348D01*
X0934748D02*
X0941848D01*
X0944848Y0240395D02*
X0949348D01*
X0934748D02*
X0941748D01*
X0944948Y0240295D02*
X0949348D01*
X0934848D02*
X0941648D01*
X0944848Y0240195D02*
X0949348D01*
X0934848D02*
X0941648D01*
X0944648Y0240095D02*
X0949348D01*
X0934948D02*
X0941548D01*
X0944548Y0239995D02*
X0949348D01*
X0935048D02*
X0941548D01*
X0944648Y0239895D02*
X0949348D01*
X0935048D02*
X0941448D01*
X0944548Y0239795D02*
X0949348D01*
X0935048D02*
X0941348D01*
X0944448Y0239695D02*
X0949348D01*
X0935148D02*
X0941248D01*
X0944348Y0239595D02*
X0949348D01*
X0935248D02*
X0941248D01*
X0944348Y0239495D02*
X0949348D01*
X0935248D02*
X0941148D01*
X0944248Y0239395D02*
X0949348D01*
X0935348D02*
X0941148D01*
X0944148Y0239295D02*
X0949348D01*
X0935348D02*
X0941048D01*
X0944148Y0239195D02*
X0949348D01*
X0935448D02*
X0941048D01*
X0943848Y0239095D02*
X0949448D01*
X0935448D02*
X0941148D01*
X0943748Y0238995D02*
X0949648D01*
X0935448D02*
X0941248D01*
X0935748Y0238695D02*
X0958248D01*
X0935848Y0238595D02*
X0958148D01*
X0935848Y0238495D02*
X0958148D01*
X0935848Y0238395D02*
X0958148D01*
X0936048Y0238295D02*
X0957948D01*
X0936048Y0238195D02*
X0957948D01*
X0936148Y0238095D02*
X0957948D01*
X0936248Y0237995D02*
X0957748D01*
X0936248Y0237895D02*
X0957748D01*
X0936348Y0237795D02*
X0957648D01*
X0936448Y0237695D02*
X0957548D01*
X0936548Y0237595D02*
X0957448D01*
X0936548Y0237495D02*
X0957348D01*
X0936648Y0237395D02*
X0957348D01*
X0936748Y0237295D02*
X0957248D01*
X0936848Y0237195D02*
X0957148D01*
X0936948Y0237095D02*
X0957148D01*
X0937048Y0236995D02*
X0956948D01*
X0937148Y0236895D02*
X0956848D01*
X0937148Y0236795D02*
X0956748D01*
X0937348Y0236695D02*
X0956748D01*
X0937348Y0236595D02*
X0956548D01*
X0937448Y0236495D02*
X0956548D01*
X0937548Y0236395D02*
X0956348D01*
X0937748Y0236295D02*
X0956348D01*
X0937848Y0236195D02*
X0956148D01*
X0937948Y0236095D02*
X0956148D01*
X0937948Y0235995D02*
X0955948D01*
X0945048Y0251795D02*
X0949348D01*
X0934948D02*
X0941848D01*
X0945048Y0251695D02*
X0949348D01*
X0934948D02*
X0942048D01*
X0945148Y0251595D02*
X0949348D01*
X0934948D02*
X0942048D01*
X0945148Y0251495D02*
X0949348D01*
X0934848D02*
X0942148D01*
X0945348Y0251395D02*
X0949348D01*
X0934748D02*
X0942248D01*
X0945448Y0251295D02*
X0949348D01*
X0934748D02*
X0942148D01*
X0945348Y0251195D02*
X0949348D01*
X0934748D02*
X0942348D01*
X0945448Y0251095D02*
X0949348D01*
X0934648D02*
X0942448D01*
X0945548Y0250995D02*
X0949348D01*
X0934648D02*
X0942548D01*
X0945548Y0250895D02*
X0949348D01*
X0934548D02*
X0942448D01*
X0945648Y0250795D02*
X0949348D01*
X0934548D02*
X0942548D01*
X0945748Y0250695D02*
X0949348D01*
X0934548D02*
X0942648D01*
X0945748Y0250595D02*
X0949348D01*
X0934548D02*
X0942748D01*
X0945848Y0250495D02*
X0949348D01*
X0934448D02*
X0942748D01*
X0945948Y0250395D02*
X0949348D01*
X0934448D02*
X0942848D01*
X0945948Y0250295D02*
X0949348D01*
X0934348D02*
X0942948D01*
X0946148Y0250195D02*
X0949348D01*
X0934348D02*
X0942948D01*
X0946048Y0250095D02*
X0949348D01*
X0934348D02*
X0943048D01*
X0946148Y0249995D02*
X0949348D01*
X0934248D02*
X0943148D01*
X0946248Y0249895D02*
X0949348D01*
X0934248D02*
X0943148D01*
X0946248Y0249795D02*
X0949348D01*
X0934248D02*
X0943248D01*
X0946348Y0249695D02*
X0949348D01*
X0934148D02*
X0943348D01*
X0934148Y0249595D02*
X0943348D01*
X0934148Y0249495D02*
X0943448D01*
X0934148Y0249395D02*
X0943448D01*
X0934048Y0249295D02*
X0943648D01*
X0934048Y0249195D02*
X0943648D01*
X0934048Y0249095D02*
X0943648D01*
X0934048Y0248995D02*
X0943748D01*
X0933948Y0248895D02*
X0943848D01*
X0933948Y0248795D02*
X0943948D01*
X0933948Y0248695D02*
X0943948D01*
X0933948Y0248595D02*
X0944048D01*
X0933848Y0248495D02*
X0944148D01*
X0933848Y0248395D02*
X0944048D01*
X0933848Y0248295D02*
X0944148D01*
X0933848Y0248195D02*
X0944348D01*
X0933848Y0248095D02*
X0944248D01*
X0933748Y0247995D02*
X0944448D01*
X0933848Y0247895D02*
X0944548D01*
X0933748Y0247795D02*
X0944548D01*
X0933748Y0247695D02*
X0944648D01*
X0933748Y0247595D02*
X0944648D01*
X0933748Y0247495D02*
X0944648D01*
X0933748Y0247395D02*
X0944848D01*
X0933748Y0247295D02*
X0944848D01*
X0933648Y0247195D02*
X0944948D01*
X0933748Y0247095D02*
X0945048D01*
X0933748Y0246995D02*
X0945048D01*
X0933648Y0246895D02*
X0945148D01*
X0933648Y0246795D02*
X0945248D01*
X0933648Y0246695D02*
X0945248D01*
X0933648Y0246595D02*
X0945348D01*
X0933648Y0246495D02*
X0945348D01*
X0933648Y0246395D02*
X0945448D01*
X0933648Y0246295D02*
X0945548D01*
X0933548Y0246195D02*
X0945648D01*
X0933648Y0246095D02*
X0945548D01*
X0933648Y0245995D02*
X0945448D01*
X0933648Y0245895D02*
X0945448D01*
X0933648Y0245795D02*
X0945348D01*
X0933548Y0245695D02*
X0945248D01*
X0933648Y0245595D02*
X0945248D01*
X0933648Y0245495D02*
X0945148D01*
X0933648Y0245395D02*
X0945048D01*
X0933648Y0245295D02*
X0945048D01*
X0933648Y0245195D02*
X0944948D01*
X0933648Y0245095D02*
X0944848D01*
X0933648Y0244995D02*
X0944848D01*
X0933648Y0244895D02*
X0944748D01*
X0933748Y0244795D02*
X0944648D01*
X0933748Y0244695D02*
X0944648D01*
X0933748Y0244595D02*
X0944548D01*
X0933748Y0244495D02*
X0944448D01*
X0933748Y0244395D02*
X0944448D01*
X0933748Y0244295D02*
X0944348D01*
X0933748Y0244195D02*
X0944348D01*
X0933748Y0244095D02*
X0944148D01*
X0933748Y0243995D02*
X0944248D01*
X0945948Y0259195D02*
X0948048D01*
X0945048Y0259095D02*
X0948948D01*
X0944348Y0258995D02*
X0949648D01*
X0944048Y0258895D02*
X0950048D01*
X0943548Y0258795D02*
X0950448D01*
X0943148Y0258695D02*
X0950748D01*
X0942848Y0258595D02*
X0951148D01*
X0942648Y0258495D02*
X0951448D01*
X0942248Y0258395D02*
X0951648D01*
X0941948Y0258295D02*
X0951948D01*
X0941748Y0258195D02*
X0952248D01*
X0941548Y0258095D02*
X0952448D01*
X0941348Y0257995D02*
X0952648D01*
X0941048Y0257895D02*
X0952948D01*
X0940948Y0257795D02*
X0953148D01*
X0940748Y0257695D02*
X0953348D01*
X0940548Y0257595D02*
X0953448D01*
X0940248Y0257495D02*
X0953648D01*
X0940148Y0257395D02*
X0953848D01*
X0940048Y0257295D02*
X0953948D01*
X0939848Y0257195D02*
X0954148D01*
X0939648Y0257095D02*
X0954348D01*
X0939548Y0256995D02*
X0954448D01*
X0939348Y0256895D02*
X0954548D01*
X0939248Y0256795D02*
X0954748D01*
X0939148Y0256695D02*
X0954848D01*
X0938948Y0256595D02*
X0955048D01*
X0938848Y0256495D02*
X0955148D01*
X0938748Y0256395D02*
X0955348D01*
X0938548Y0256295D02*
X0955348D01*
X0938448Y0256195D02*
X0955448D01*
X0938348Y0256095D02*
X0955648D01*
X0938248Y0255995D02*
X0955848D01*
X0938148Y0255895D02*
X0955848D01*
X0937948Y0255795D02*
X0955948D01*
X0937948Y0255695D02*
X0956048D01*
X0937848Y0255595D02*
X0956248D01*
X0937648Y0255495D02*
X0956348D01*
X0937648Y0255395D02*
X0956348D01*
X0937448Y0255295D02*
X0956548D01*
X0937348Y0255195D02*
X0956548D01*
X0937348Y0255095D02*
X0956748D01*
X0937148Y0254995D02*
X0956848D01*
X0937148Y0254895D02*
X0956848D01*
X0937048Y0254795D02*
X0956948D01*
X0936948Y0254695D02*
X0957048D01*
X0936848Y0254595D02*
X0957148D01*
X0936748Y0254495D02*
X0957148D01*
X0936648Y0254395D02*
X0957348D01*
X0936548Y0254295D02*
X0957448D01*
X0936548Y0254195D02*
X0957448D01*
X0936448Y0254095D02*
X0957648D01*
X0936348Y0253995D02*
X0957648D01*
X0936348Y0253895D02*
X0957648D01*
X0936248Y0253795D02*
X0957848D01*
X0936048Y0253695D02*
X0957848D01*
X0936048Y0253595D02*
X0957848D01*
X0936048Y0253495D02*
X0958048D01*
X0935948Y0253395D02*
X0958048D01*
X0935848Y0253295D02*
X0958148D01*
X0935748Y0253195D02*
X0958248D01*
X0935748Y0253095D02*
X0958248D01*
X0944248Y0252795D02*
X0949548D01*
X0935548D02*
X0941548D01*
X0944448Y0252695D02*
X0949448D01*
X0935448D02*
X0941448D01*
X0944448Y0252595D02*
X0949348D01*
X0935448D02*
X0941448D01*
X0944648Y0252495D02*
X0949348D01*
X0935348D02*
X0941448D01*
X0944748Y0252395D02*
X0949348D01*
X0935348D02*
X0941548D01*
X0944648Y0252295D02*
X0949348D01*
X0935248D02*
X0941648D01*
X0944748Y0252195D02*
X0949348D01*
X0935148D02*
X0941648D01*
X0944848Y0252095D02*
X0949348D01*
X0935148D02*
X0941748D01*
X0944848Y0251995D02*
X0949348D01*
X0935148D02*
X0941748D01*
X0938148Y0235895D02*
X0955948D01*
X0945048Y0251895D02*
X0949348D01*
X0935048D02*
X0941848D01*
X0933848Y0243895D02*
X0944048D01*
X0952248Y0243795D02*
X0960148D01*
X0952248Y0243695D02*
X0960148D01*
X0952148Y0243595D02*
X0960148D01*
X0952248Y0243495D02*
X0960148D01*
X0952248Y0243395D02*
X0960148D01*
X0952248Y0243295D02*
X0960048D01*
X0952148Y0243195D02*
X0960048D01*
X0952248Y0243095D02*
X0960148D01*
X0952248Y0242995D02*
X0960048D01*
X0952248Y0242895D02*
X0960048D01*
X0952148Y0242795D02*
X0960048D01*
X0952248Y0242695D02*
X0959948D01*
X0952148Y0242595D02*
X0959948D01*
X0952248Y0242495D02*
X0959948D01*
X0952248Y0242395D02*
X0959848D01*
X0952148Y0242295D02*
X0959848D01*
X0952248Y0242195D02*
X0959848D01*
X0952248Y0242095D02*
X0959748D01*
X0952148Y0241995D02*
X0959848D01*
X0952248Y0241895D02*
X0959748D01*
X0952248Y0241795D02*
X0959648D01*
X0952148Y0241695D02*
X0959648D01*
X0952248Y0241595D02*
X0959648D01*
X0952248Y0241495D02*
X0959648D01*
X0952248Y0241395D02*
X0959548D01*
X0952248Y0241295D02*
X0959548D01*
X0952148Y0241195D02*
X0959548D01*
X0952248Y0241095D02*
X0959448D01*
X0952248Y0240995D02*
X0959448D01*
X0952248Y0240895D02*
X0959348D01*
X0952148Y0240795D02*
X0959348D01*
X0952248Y0240695D02*
X0959348D01*
X0952148Y0240595D02*
X0959248D01*
X0952248Y0240495D02*
X0959248D01*
X0952248Y0240395D02*
X0959248D01*
X0952148Y0240295D02*
X0959148D01*
X0952248Y0240195D02*
X0959148D01*
X0952248Y0240095D02*
X0959048D01*
X0952148Y0239995D02*
X0958948D01*
X0952248Y0239895D02*
X0958948D01*
X0952248Y0239795D02*
X0958948D01*
X0952248Y0239695D02*
X0958848D01*
X0952148Y0239595D02*
X0958748D01*
X0952248Y0239495D02*
X0958748D01*
X0952248Y0239395D02*
X0958748D01*
X0952148Y0239295D02*
X0958548D01*
X0952148Y0239195D02*
X0958548D01*
X0952048Y0239095D02*
X0958548D01*
X0951948Y0238995D02*
X0958448D01*
X0935648Y0238895D02*
X0958348D01*
X0935648Y0238795D02*
X0958348D01*
X0952248Y0251795D02*
X0958948D01*
X0952248Y0251695D02*
X0959048D01*
X0952148Y0251595D02*
X0959148D01*
X0952248Y0251495D02*
X0959148D01*
X0952248Y0251395D02*
X0959148D01*
X0952248Y0251295D02*
X0959248D01*
X0952148Y0251195D02*
X0959248D01*
X0952248Y0251095D02*
X0959348D01*
X0952248Y0250995D02*
X0959348D01*
X0952248Y0250895D02*
X0959448D01*
X0952148Y0250795D02*
X0959448D01*
X0952248Y0250695D02*
X0959448D01*
X0952148Y0250595D02*
X0959448D01*
X0952248Y0250495D02*
X0959548D01*
X0952248Y0250395D02*
X0959548D01*
X0952148Y0250295D02*
X0959648D01*
X0952248Y0250195D02*
X0959648D01*
X0952248Y0250095D02*
X0959748D01*
X0952148Y0249995D02*
X0959648D01*
X0952248Y0249895D02*
X0959748D01*
X0952248Y0249795D02*
X0959848D01*
X0952248Y0249695D02*
X0959748D01*
X0952148Y0249595D02*
X0959848D01*
X0952248Y0249495D02*
X0959848D01*
X0952248Y0249395D02*
X0959848D01*
X0952248Y0249295D02*
X0959948D01*
X0952148Y0249195D02*
X0959948D01*
X0952248Y0249095D02*
X0959948D01*
X0952148Y0248995D02*
X0959948D01*
X0952248Y0248895D02*
X0960048D01*
X0952248Y0248795D02*
X0960048D01*
X0952148Y0248695D02*
X0960148D01*
X0952248Y0248595D02*
X0960048D01*
X0952248Y0248495D02*
X0960148D01*
X0952148Y0248395D02*
X0960148D01*
X0952248Y0248295D02*
X0960148D01*
X0952248Y0248195D02*
X0960148D01*
X0952248Y0248095D02*
X0960148D01*
X0952148Y0247995D02*
X0960248D01*
X0952248Y0247895D02*
X0960148D01*
X0952248Y0247795D02*
X0960248D01*
X0952248Y0247695D02*
X0960248D01*
X0952148Y0247595D02*
X0960248D01*
X0952248Y0247495D02*
X0960248D01*
X0952148Y0247395D02*
X0960248D01*
X0952248Y0247295D02*
X0960248D01*
X0952248Y0247195D02*
X0960348D01*
X0952148Y0247095D02*
X0960248D01*
X0952248Y0246995D02*
X0960348D01*
X0952248Y0246895D02*
X0960248D01*
X0952148Y0246795D02*
X0960348D01*
X0952248Y0246695D02*
X0960348D01*
X0952248Y0246595D02*
X0960348D01*
X0952248Y0246495D02*
X0960348D01*
X0952148Y0246395D02*
X0960348D01*
X0952248Y0246295D02*
X0960348D01*
X0952248Y0246195D02*
X0960348D01*
X0952248Y0246095D02*
X0960348D01*
X0952148Y0245995D02*
X0960348D01*
X0952248Y0245895D02*
X0960348D01*
X0952148Y0245795D02*
X0960348D01*
X0952248Y0245695D02*
X0960348D01*
X0952248Y0245595D02*
X0960348D01*
X0952148Y0245495D02*
X0960348D01*
X0952248Y0245395D02*
X0960348D01*
X0952248Y0245295D02*
X0960348D01*
X0952148Y0245195D02*
X0960348D01*
X0952248Y0245095D02*
X0960348D01*
X0952248Y0244995D02*
X0960248D01*
X0952248Y0244895D02*
X0960348D01*
X0952148Y0244795D02*
X0960348D01*
X0952248Y0244695D02*
X0960248D01*
X0952248Y0244595D02*
X0960248D01*
X0952248Y0244495D02*
X0960348D01*
X0952148Y0244395D02*
X0960248D01*
X0952248Y0244295D02*
X0960248D01*
X0952148Y0244195D02*
X0960248D01*
X0952248Y0244095D02*
X0960248D01*
X0952248Y0243995D02*
X0960248D01*
X0935648Y0252995D02*
X0958348D01*
X0935648Y0252895D02*
X0958348D01*
X0951848Y0252795D02*
X0958448D01*
X0952148Y0252695D02*
X0958548D01*
X0952148Y0252595D02*
X0958648D01*
X0952248Y0252495D02*
X0958648D01*
X0952248Y0252395D02*
X0958648D01*
X0952148Y0252295D02*
X0958748D01*
X0952248Y0252195D02*
X0958748D01*
X0952148Y0252095D02*
X0958848D01*
X0952248Y0251995D02*
X0958948D01*
X0952248Y0251895D02*
X0958948D01*
X0952148Y0243895D02*
X0960148D01*
D108*
X0892498Y0113295D02*
Y0131295D01*
X1159248Y0156545D02*
Y0208045D01*
Y0156545D02*
X1190748D01*
Y0208045D01*
X1159248D02*
X1190748D01*
X1152998Y0237795D02*
Y0326795D01*
Y0237795D02*
X1200498D01*
Y0326795D01*
X1152998D02*
X1200498D01*
X0880587Y0113225D02*
X0884998Y0111295D01*
X0880587Y0113225D02*
X0884748Y0115045D01*
X0880748Y0113295D02*
X0892498D01*
X0609748Y0183045D02*
Y0332795D01*
Y0183045D02*
X0641248D01*
Y0332795D01*
X0609748D02*
X0641248D01*
X0639998Y0140795D02*
Y0143795D01*
X0636998D02*
X0639998D01*
X0621498D02*
X0624498D01*
X0621498Y0140795D02*
Y0143795D01*
X0639998Y0140795D02*
X0649248D01*
X0612248D02*
X0621498D01*
X0649248D02*
Y0170795D01*
X0624498Y0143795D02*
X0636998D01*
X0612248Y0140795D02*
Y0170795D01*
X0649248D01*
X1021557Y0142046D02*
X1023918D01*
Y0138504D01*
X1021557D01*
X1023918Y0140275D02*
X1022738D01*
X1020376Y0142046D02*
X1018015D01*
X1019196D01*
Y0138504D01*
X1016834Y0142046D02*
Y0138504D01*
Y0140275D01*
X1014473D01*
Y0142046D01*
Y0138504D01*
X1010931Y0142046D02*
X1013292D01*
Y0138504D01*
X1010931D01*
X1013292Y0140275D02*
X1012111D01*
X1009750Y0138504D02*
Y0142046D01*
X1007979D01*
X1007388Y0141455D01*
Y0140275D01*
X1007979Y0139684D01*
X1009750D01*
X1008569D02*
X1007388Y0138504D01*
X1006208D02*
Y0142046D01*
X1003846Y0138504D01*
Y0142046D01*
X1000304D02*
X1002666D01*
Y0138504D01*
X1000304D01*
X1002666Y0140275D02*
X1001485D01*
X0999123Y0142046D02*
X0996762D01*
X0997943D01*
Y0138504D01*
X1013292Y0134134D02*
X1010931D01*
X1012111Y0135315D02*
Y0132954D01*
X1027461Y0126223D02*
Y0129765D01*
X1025690D01*
X1025099Y0129175D01*
Y0127994D01*
X1025690Y0127404D01*
X1027461D01*
X1023918Y0126223D02*
Y0128584D01*
X1022738Y0129765D01*
X1021557Y0128584D01*
Y0126223D01*
Y0127994D01*
X1023918D01*
X1018015Y0129175D02*
X1018605Y0129765D01*
X1019786D01*
X1020376Y0129175D01*
Y0128584D01*
X1019786Y0127994D01*
X1018605D01*
X1018015Y0127404D01*
Y0126813D01*
X1018605Y0126223D01*
X1019786D01*
X1020376Y0126813D01*
X1016834Y0129765D02*
X1015653D01*
X1016244D01*
Y0126223D01*
X1016834D01*
X1015653D01*
X1013882Y0129765D02*
Y0127404D01*
X1012702Y0126223D01*
X1011521Y0127404D01*
Y0129765D01*
X1007979D02*
X1010340D01*
Y0126223D01*
X1007979D01*
X1010340Y0127994D02*
X1009159D01*
X1003256Y0126223D02*
Y0129765D01*
X1001485D01*
X1000894Y0129175D01*
Y0127994D01*
X1001485Y0127404D01*
X1003256D01*
X0999123Y0126223D02*
X0997943D01*
X0997352Y0126813D01*
Y0127994D01*
X0997943Y0128584D01*
X0999123D01*
X0999714Y0127994D01*
Y0126813D01*
X0999123Y0126223D01*
X0993810Y0129765D02*
X0996171D01*
Y0126223D01*
X0993810D01*
X0996171Y0127994D02*
X0994991D01*
X1014473Y0120083D02*
X1016834D01*
X1014473Y0122444D01*
Y0123034D01*
X1015063Y0123625D01*
X1016244D01*
X1016834Y0123034D01*
X1011521Y0120083D02*
Y0123625D01*
X1013292Y0121854D01*
X1010931D01*
X1009750Y0123625D02*
Y0121263D01*
X1008569Y0120083D01*
X1007388Y0121263D01*
Y0123625D01*
X0926461Y0131015D02*
Y0128063D01*
X0925870Y0127473D01*
X0924689D01*
X0924099Y0128063D01*
Y0131015D01*
X0920557Y0130425D02*
X0921147Y0131015D01*
X0922328D01*
X0922918Y0130425D01*
Y0129834D01*
X0922328Y0129244D01*
X0921147D01*
X0920557Y0128654D01*
Y0128063D01*
X0921147Y0127473D01*
X0922328D01*
X0922918Y0128063D01*
X0919376Y0131015D02*
Y0127473D01*
X0917605D01*
X0917015Y0128063D01*
Y0128654D01*
X0917605Y0129244D01*
X0919376D01*
X0917605D01*
X0917015Y0129834D01*
Y0130425D01*
X0917605Y0131015D01*
X0919376D01*
X0909931Y0130425D02*
X0910521Y0131015D01*
X0911702D01*
X0912292Y0130425D01*
Y0129834D01*
X0911702Y0129244D01*
X0910521D01*
X0909931Y0128654D01*
Y0128063D01*
X0910521Y0127473D01*
X0911702D01*
X0912292Y0128063D01*
X0908750Y0131015D02*
Y0127473D01*
X0906388D01*
X0905208D02*
Y0129834D01*
X0904027Y0131015D01*
X0902846Y0129834D01*
Y0127473D01*
Y0129244D01*
X0905208D01*
X0901665Y0131015D02*
Y0128654D01*
X0900485Y0127473D01*
X0899304Y0128654D01*
Y0131015D01*
X0895762D02*
X0898123D01*
Y0127473D01*
X0895762D01*
X0898123Y0129244D02*
X0896943D01*
X0915834Y0124875D02*
Y0121333D01*
X0914063D01*
X0913473Y0121923D01*
Y0122513D01*
X0914063Y0123104D01*
X0915834D01*
X0914063D01*
X0913473Y0123694D01*
Y0124284D01*
X0914063Y0124875D01*
X0915834D01*
X0910521D02*
X0911702D01*
X0912292Y0124284D01*
Y0121923D01*
X0911702Y0121333D01*
X0910521D01*
X0909931Y0121923D01*
Y0124284D01*
X0910521Y0124875D01*
X0906979D02*
X0908159D01*
X0908750Y0124284D01*
Y0121923D01*
X0908159Y0121333D01*
X0906979D01*
X0906388Y0121923D01*
Y0124284D01*
X0906979Y0124875D01*
X0905208D02*
X0902846D01*
X0904027D01*
Y0121333D01*
X0648211Y0166417D02*
X0645324D01*
X0643881Y0164252D02*
Y0168582D01*
X0641717D01*
X0640995Y0167860D01*
Y0166417D01*
X0641717Y0165696D01*
X0643881D01*
X0642438D02*
X0640995Y0164252D01*
X0639552Y0168582D02*
X0636666Y0164252D01*
Y0168582D02*
X0639552Y0164252D01*
X0648211Y0159332D02*
X0645324D01*
X0643881Y0161497D02*
X0642438D01*
X0643160D01*
Y0157168D01*
X0643881D01*
X0642438D01*
X0638109Y0161497D02*
X0639552D01*
X0640274Y0160775D01*
Y0157889D01*
X0639552Y0157168D01*
X0638109D01*
X0637387Y0157889D01*
Y0160775D01*
X0638109Y0161497D01*
X0648211Y0152247D02*
X0645324D01*
X0643881Y0154412D02*
Y0151526D01*
X0642438Y0150083D01*
X0640995Y0151526D01*
Y0154412D01*
X0636666Y0153690D02*
X0637387Y0154412D01*
X0638830D01*
X0639552Y0153690D01*
Y0150804D01*
X0638830Y0150083D01*
X0637387D01*
X0636666Y0150804D01*
X0632337Y0153690D02*
X0633058Y0154412D01*
X0634501D01*
X0635223Y0153690D01*
Y0150804D01*
X0634501Y0150083D01*
X0633058D01*
X0632337Y0150804D01*
X0625631Y0164832D02*
X0622745D01*
X0624188D01*
Y0160503D01*
X0621302Y0164832D02*
X0618416Y0160503D01*
Y0164832D02*
X0621302Y0160503D01*
X0616973Y0162667D02*
X0614086D01*
X0629961Y0153418D02*
Y0157747D01*
X0627796D01*
X0627074Y0157025D01*
Y0155582D01*
X0627796Y0154861D01*
X0629961D01*
X0628517D02*
X0627074Y0153418D01*
X0622745Y0157025D02*
X0623467Y0157747D01*
X0624910D01*
X0625631Y0157025D01*
Y0156304D01*
X0624910Y0155582D01*
X0623467D01*
X0622745Y0154861D01*
Y0154139D01*
X0623467Y0153418D01*
X0624910D01*
X0625631Y0154139D01*
X0621302Y0157747D02*
X0618416D01*
X0619859D01*
Y0153418D01*
X0616973Y0155582D02*
X0614086D01*
X0627074Y0149940D02*
X0627796Y0150662D01*
X0629239D01*
X0629961Y0149940D01*
Y0147054D01*
X0629239Y0146333D01*
X0627796D01*
X0627074Y0147054D01*
Y0148497D01*
X0628517D01*
X0625631Y0146333D02*
Y0150662D01*
X0622745Y0146333D01*
Y0150662D01*
X0621302D02*
Y0146333D01*
X0619137D01*
X0618416Y0147054D01*
Y0149940D01*
X0619137Y0150662D01*
X0621302D01*
X0616973Y0148497D02*
X0614086D01*
X1168637Y0205497D02*
X1169227Y0206087D01*
X1170408D01*
X1170998Y0205497D01*
Y0203136D01*
X1170408Y0202545D01*
X1169227D01*
X1168637Y0203136D01*
Y0204316D01*
X1169817D01*
X1167456Y0202545D02*
Y0206087D01*
X1165094Y0202545D01*
Y0206087D01*
X1163914D02*
Y0202545D01*
X1162143D01*
X1161552Y0203136D01*
Y0205497D01*
X1162143Y0206087D01*
X1163914D01*
X1168637Y0195497D02*
X1169227Y0196087D01*
X1170408D01*
X1170998Y0195497D01*
Y0194907D01*
X1170408Y0194316D01*
X1169227D01*
X1168637Y0193726D01*
Y0193136D01*
X1169227Y0192545D01*
X1170408D01*
X1170998Y0193136D01*
X1165094Y0195497D02*
X1165685Y0196087D01*
X1166866D01*
X1167456Y0195497D01*
Y0193136D01*
X1166866Y0192545D01*
X1165685D01*
X1165094Y0193136D01*
X1163914Y0196087D02*
Y0192545D01*
X1161552D01*
X1168637Y0184747D02*
X1169227Y0185337D01*
X1170408D01*
X1170998Y0184747D01*
Y0184157D01*
X1170408Y0183566D01*
X1169227D01*
X1168637Y0182976D01*
Y0182386D01*
X1169227Y0181795D01*
X1170408D01*
X1170998Y0182386D01*
X1167456Y0185337D02*
Y0181795D01*
X1165685D01*
X1165094Y0182386D01*
Y0184747D01*
X1165685Y0185337D01*
X1167456D01*
X1163914Y0181795D02*
Y0184157D01*
X1162733Y0185337D01*
X1161552Y0184157D01*
Y0181795D01*
Y0183566D01*
X1163914D01*
X1170998Y0175587D02*
X1169817D01*
X1170408D01*
Y0172045D01*
X1170998D01*
X1169817D01*
X1166275Y0175587D02*
X1167456D01*
X1168046Y0174997D01*
Y0172636D01*
X1167456Y0172045D01*
X1166275D01*
X1165685Y0172636D01*
Y0174997D01*
X1166275Y0175587D01*
X1170998Y0165087D02*
X1169817D01*
X1170408D01*
Y0161545D01*
X1170998D01*
X1169817D01*
X1166275Y0165087D02*
X1167456D01*
X1168046Y0164497D01*
Y0162136D01*
X1167456Y0161545D01*
X1166275D01*
X1165685Y0162136D01*
Y0164497D01*
X1166275Y0165087D01*
X1185887D02*
X1188248D01*
Y0163316D01*
X1187067Y0163907D01*
X1186477D01*
X1185887Y0163316D01*
Y0162136D01*
X1186477Y0161545D01*
X1187658D01*
X1188248Y0162136D01*
X1184706Y0165087D02*
Y0162726D01*
X1183525Y0161545D01*
X1182344Y0162726D01*
Y0165087D01*
X1188248Y0174997D02*
X1187658Y0175587D01*
X1186477D01*
X1185887Y0174997D01*
Y0174407D01*
X1186477Y0173816D01*
X1187067D01*
X1186477D01*
X1185887Y0173226D01*
Y0172636D01*
X1186477Y0172045D01*
X1187658D01*
X1188248Y0172636D01*
X1184706Y0175587D02*
Y0173226D01*
X1183525Y0172045D01*
X1182344Y0173226D01*
Y0175587D01*
X1181164Y0174997D02*
X1180573Y0175587D01*
X1179393D01*
X1178802Y0174997D01*
Y0174407D01*
X1179393Y0173816D01*
X1179983D01*
X1179393D01*
X1178802Y0173226D01*
Y0172636D01*
X1179393Y0172045D01*
X1180573D01*
X1181164Y0172636D01*
X1188248Y0181795D02*
Y0185337D01*
X1186477D01*
X1185887Y0184747D01*
Y0183566D01*
X1186477Y0182976D01*
X1188248D01*
X1187067D02*
X1185887Y0181795D01*
X1184706Y0185337D02*
X1182344Y0181795D01*
Y0185337D02*
X1184706Y0181795D01*
X1188248Y0196087D02*
X1185887D01*
X1187067D01*
Y0192545D01*
X1184706Y0196087D02*
X1182344Y0192545D01*
Y0196087D02*
X1184706Y0192545D01*
X1188248Y0206087D02*
X1187067D01*
X1187658D01*
Y0202545D01*
X1188248D01*
X1187067D01*
X1183525Y0206087D02*
X1184706D01*
X1185296Y0205497D01*
Y0203136D01*
X1184706Y0202545D01*
X1183525D01*
X1182935Y0203136D01*
Y0205497D01*
X1183525Y0206087D01*
X1198248Y0324837D02*
Y0322476D01*
X1197067Y0321295D01*
X1195887Y0322476D01*
Y0324837D01*
X1194706D02*
X1192344D01*
X1193525D01*
Y0321295D01*
X1188802D02*
X1191164D01*
X1188802Y0323657D01*
Y0324247D01*
X1189393Y0324837D01*
X1190573D01*
X1191164Y0324247D01*
X1198248Y0314837D02*
Y0312476D01*
X1197067Y0311295D01*
X1195887Y0312476D01*
Y0314837D01*
X1194706D02*
X1192344D01*
X1193525D01*
Y0311295D01*
X1191164D02*
X1189983D01*
X1190573D01*
Y0314837D01*
X1191164Y0314247D01*
X1195887Y0304087D02*
X1198248D01*
Y0302316D01*
X1197067D01*
X1198248D01*
Y0300545D01*
X1194706D02*
Y0302907D01*
X1193525Y0304087D01*
X1192344Y0302907D01*
Y0300545D01*
Y0302316D01*
X1194706D01*
X1191164Y0304087D02*
Y0301136D01*
X1190573Y0300545D01*
X1189393D01*
X1188802Y0301136D01*
Y0304087D01*
X1187621D02*
Y0300545D01*
X1185260D01*
X1181718D02*
X1184079D01*
X1181718Y0302907D01*
Y0303497D01*
X1182308Y0304087D01*
X1183489D01*
X1184079Y0303497D01*
X1198248Y0294337D02*
Y0290795D01*
X1196477D01*
X1195887Y0291386D01*
Y0293747D01*
X1196477Y0294337D01*
X1198248D01*
X1194706D02*
X1193525D01*
X1194116D01*
Y0290795D01*
X1194706D01*
X1193525D01*
X1189393Y0293747D02*
X1189983Y0294337D01*
X1191164D01*
X1191754Y0293747D01*
Y0293157D01*
X1191164Y0292566D01*
X1189983D01*
X1189393Y0291976D01*
Y0291386D01*
X1189983Y0290795D01*
X1191164D01*
X1191754Y0291386D01*
X1185850Y0290795D02*
X1188212D01*
X1185850Y0293157D01*
Y0293747D01*
X1186441Y0294337D01*
X1187621D01*
X1188212Y0293747D01*
X1195887Y0283247D02*
X1196477Y0283837D01*
X1197658D01*
X1198248Y0283247D01*
Y0282657D01*
X1197658Y0282066D01*
X1196477D01*
X1195887Y0281476D01*
Y0280886D01*
X1196477Y0280295D01*
X1197658D01*
X1198248Y0280886D01*
X1194706Y0283837D02*
Y0280295D01*
X1192935D01*
X1192344Y0280886D01*
Y0283247D01*
X1192935Y0283837D01*
X1194706D01*
X1191164Y0280295D02*
Y0282657D01*
X1189983Y0283837D01*
X1188802Y0282657D01*
Y0280295D01*
Y0282066D01*
X1191164D01*
X1185260Y0280295D02*
X1187621D01*
X1185260Y0282657D01*
Y0283247D01*
X1185850Y0283837D01*
X1187031D01*
X1187621Y0283247D01*
X1195887Y0273247D02*
X1196477Y0273837D01*
X1197658D01*
X1198248Y0273247D01*
Y0272657D01*
X1197658Y0272066D01*
X1196477D01*
X1195887Y0271476D01*
Y0270886D01*
X1196477Y0270295D01*
X1197658D01*
X1198248Y0270886D01*
X1192344Y0273247D02*
X1192935Y0273837D01*
X1194116D01*
X1194706Y0273247D01*
Y0270886D01*
X1194116Y0270295D01*
X1192935D01*
X1192344Y0270886D01*
X1191164Y0273837D02*
Y0270295D01*
X1188802D01*
X1185260D02*
X1187621D01*
X1185260Y0272657D01*
Y0273247D01*
X1185850Y0273837D01*
X1187031D01*
X1187621Y0273247D01*
X1198248Y0243337D02*
Y0239795D01*
X1195887D01*
X1192935Y0243337D02*
X1194116D01*
X1194706Y0242747D01*
Y0240386D01*
X1194116Y0239795D01*
X1192935D01*
X1192344Y0240386D01*
Y0242747D01*
X1192935Y0243337D01*
X1188802Y0242747D02*
X1189393Y0243337D01*
X1190573D01*
X1191164Y0242747D01*
Y0242157D01*
X1190573Y0241566D01*
X1189393D01*
X1188802Y0240976D01*
Y0240386D01*
X1189393Y0239795D01*
X1190573D01*
X1191164Y0240386D01*
X1185260Y0239795D02*
X1187621D01*
X1185260Y0242157D01*
Y0242747D01*
X1185850Y0243337D01*
X1187031D01*
X1187621Y0242747D01*
X1198248Y0250045D02*
Y0253587D01*
X1196477D01*
X1195887Y0252997D01*
Y0251816D01*
X1196477Y0251226D01*
X1198248D01*
X1197067D02*
X1195887Y0250045D01*
X1194706Y0249455D02*
X1192344D01*
X1188802Y0252997D02*
X1189393Y0253587D01*
X1190573D01*
X1191164Y0252997D01*
Y0252407D01*
X1190573Y0251816D01*
X1189393D01*
X1188802Y0251226D01*
Y0250636D01*
X1189393Y0250045D01*
X1190573D01*
X1191164Y0250636D01*
X1185260Y0253587D02*
X1187621D01*
Y0250045D01*
X1185260D01*
X1187621Y0251816D02*
X1186441D01*
X1184079Y0253587D02*
Y0250045D01*
X1181718D01*
X1178176D02*
X1180537D01*
X1178176Y0252407D01*
Y0252997D01*
X1178766Y0253587D01*
X1179947D01*
X1180537Y0252997D01*
X1198248Y0264337D02*
Y0260795D01*
X1196477D01*
X1195887Y0261386D01*
Y0263747D01*
X1196477Y0264337D01*
X1198248D01*
X1192344D02*
X1194706D01*
Y0260795D01*
X1192344D01*
X1194706Y0262566D02*
X1193525D01*
X1188802Y0264337D02*
X1191164D01*
Y0262566D01*
X1189983D01*
X1191164D01*
Y0260795D01*
X1187621Y0263747D02*
X1187031Y0264337D01*
X1185850D01*
X1185260Y0263747D01*
Y0261386D01*
X1185850Y0260795D01*
X1187031D01*
X1187621Y0261386D01*
Y0263747D01*
X1184079Y0260205D02*
X1181718D01*
X1178176Y0260795D02*
X1180537D01*
X1178176Y0263157D01*
Y0263747D01*
X1178766Y0264337D01*
X1179947D01*
X1180537Y0263747D01*
X1171137D02*
X1171727Y0264337D01*
X1172908D01*
X1173498Y0263747D01*
Y0263157D01*
X1172908Y0262566D01*
X1171727D01*
X1171137Y0261976D01*
Y0261386D01*
X1171727Y0260795D01*
X1172908D01*
X1173498Y0261386D01*
X1169956Y0264337D02*
Y0260795D01*
X1168185D01*
X1167594Y0261386D01*
Y0263747D01*
X1168185Y0264337D01*
X1169956D01*
X1166414Y0260795D02*
Y0263157D01*
X1165233Y0264337D01*
X1164052Y0263157D01*
Y0260795D01*
Y0262566D01*
X1166414D01*
X1162871Y0260795D02*
X1161691D01*
X1162281D01*
Y0264337D01*
X1162871Y0263747D01*
X1173498Y0253587D02*
Y0250045D01*
X1171727D01*
X1171137Y0250636D01*
Y0252997D01*
X1171727Y0253587D01*
X1173498D01*
X1169956D02*
X1168775D01*
X1169366D01*
Y0250045D01*
X1169956D01*
X1168775D01*
X1164643Y0252997D02*
X1165233Y0253587D01*
X1166414D01*
X1167004Y0252997D01*
Y0252407D01*
X1166414Y0251816D01*
X1165233D01*
X1164643Y0251226D01*
Y0250636D01*
X1165233Y0250045D01*
X1166414D01*
X1167004Y0250636D01*
X1163462Y0249455D02*
X1161100D01*
X1159920Y0250045D02*
X1158739D01*
X1159329D01*
Y0253587D01*
X1159920Y0252997D01*
X1171137Y0243337D02*
X1173498D01*
Y0241566D01*
X1172317D01*
X1173498D01*
Y0239795D01*
X1169956D02*
Y0242157D01*
X1168775Y0243337D01*
X1167594Y0242157D01*
Y0239795D01*
Y0241566D01*
X1169956D01*
X1166414Y0243337D02*
Y0240386D01*
X1165823Y0239795D01*
X1164643D01*
X1164052Y0240386D01*
Y0243337D01*
X1162871D02*
Y0239795D01*
X1160510D01*
X1159329D02*
X1158149D01*
X1158739D01*
Y0243337D01*
X1159329Y0242747D01*
X1171137Y0273247D02*
X1171727Y0273837D01*
X1172908D01*
X1173498Y0273247D01*
Y0272657D01*
X1172908Y0272066D01*
X1171727D01*
X1171137Y0271476D01*
Y0270886D01*
X1171727Y0270295D01*
X1172908D01*
X1173498Y0270886D01*
X1167594Y0273247D02*
X1168185Y0273837D01*
X1169366D01*
X1169956Y0273247D01*
Y0270886D01*
X1169366Y0270295D01*
X1168185D01*
X1167594Y0270886D01*
X1166414Y0273837D02*
Y0270295D01*
X1164052D01*
X1162871D02*
X1161691D01*
X1162281D01*
Y0273837D01*
X1162871Y0273247D01*
X1173498Y0283837D02*
Y0280295D01*
X1171727D01*
X1171137Y0280886D01*
Y0283247D01*
X1171727Y0283837D01*
X1173498D01*
X1167594D02*
X1169956D01*
Y0280295D01*
X1167594D01*
X1169956Y0282066D02*
X1168775D01*
X1164052Y0283837D02*
X1166414D01*
Y0282066D01*
X1165233D01*
X1166414D01*
Y0280295D01*
X1162871Y0283247D02*
X1162281Y0283837D01*
X1161100D01*
X1160510Y0283247D01*
Y0280886D01*
X1161100Y0280295D01*
X1162281D01*
X1162871Y0280886D01*
Y0283247D01*
X1159329Y0279705D02*
X1156968D01*
X1155787Y0280295D02*
X1154607D01*
X1155197D01*
Y0283837D01*
X1155787Y0283247D01*
X1173498Y0290795D02*
Y0294337D01*
X1171727D01*
X1171137Y0293747D01*
Y0292566D01*
X1171727Y0291976D01*
X1173498D01*
X1172317D02*
X1171137Y0290795D01*
X1169956Y0290205D02*
X1167594D01*
X1164052Y0293747D02*
X1164643Y0294337D01*
X1165823D01*
X1166414Y0293747D01*
Y0293157D01*
X1165823Y0292566D01*
X1164643D01*
X1164052Y0291976D01*
Y0291386D01*
X1164643Y0290795D01*
X1165823D01*
X1166414Y0291386D01*
X1160510Y0294337D02*
X1162871D01*
Y0290795D01*
X1160510D01*
X1162871Y0292566D02*
X1161691D01*
X1159329Y0294337D02*
Y0290795D01*
X1156968D01*
X1155787D02*
X1154607D01*
X1155197D01*
Y0294337D01*
X1155787Y0293747D01*
X1173498Y0304087D02*
Y0300545D01*
X1171137D01*
X1168185Y0304087D02*
X1169366D01*
X1169956Y0303497D01*
Y0301136D01*
X1169366Y0300545D01*
X1168185D01*
X1167594Y0301136D01*
Y0303497D01*
X1168185Y0304087D01*
X1164052Y0303497D02*
X1164643Y0304087D01*
X1165823D01*
X1166414Y0303497D01*
Y0302907D01*
X1165823Y0302316D01*
X1164643D01*
X1164052Y0301726D01*
Y0301136D01*
X1164643Y0300545D01*
X1165823D01*
X1166414Y0301136D01*
X1162871Y0300545D02*
X1161691D01*
X1162281D01*
Y0304087D01*
X1162871Y0303497D01*
X1173498Y0314837D02*
Y0312476D01*
X1172317Y0311295D01*
X1171137Y0312476D01*
Y0314837D01*
X1169956Y0311295D02*
Y0314837D01*
X1168185D01*
X1167594Y0314247D01*
Y0313066D01*
X1168185Y0312476D01*
X1169956D01*
X1168775D02*
X1167594Y0311295D01*
X1166414D02*
X1165233D01*
X1165823D01*
Y0314837D01*
X1166414Y0314247D01*
X1173498Y0324837D02*
Y0322476D01*
X1172317Y0321295D01*
X1171137Y0322476D01*
Y0324837D01*
X1169956Y0321295D02*
Y0324837D01*
X1168185D01*
X1167594Y0324247D01*
Y0323066D01*
X1168185Y0322476D01*
X1169956D01*
X1168775D02*
X1167594Y0321295D01*
X1164052D02*
X1166414D01*
X1164052Y0323657D01*
Y0324247D01*
X1164643Y0324837D01*
X1165823D01*
X1166414Y0324247D01*
X0963998Y0124337D02*
Y0121386D01*
X0963408Y0120795D01*
X0962227D01*
X0961637Y0121386D01*
Y0124337D01*
X0958094Y0123747D02*
X0958685Y0124337D01*
X0959865D01*
X0960456Y0123747D01*
Y0123157D01*
X0959865Y0122566D01*
X0958685D01*
X0958094Y0121976D01*
Y0121386D01*
X0958685Y0120795D01*
X0959865D01*
X0960456Y0121386D01*
X0956914Y0124337D02*
Y0120795D01*
X0955143D01*
X0954552Y0121386D01*
Y0121976D01*
X0955143Y0122566D01*
X0956914D01*
X0955143D01*
X0954552Y0123157D01*
Y0123747D01*
X0955143Y0124337D01*
X0956914D01*
X0949829D02*
Y0120795D01*
Y0122566D01*
X0947468D01*
Y0124337D01*
Y0120795D01*
X0944516Y0124337D02*
X0945697D01*
X0946287Y0123747D01*
Y0121386D01*
X0945697Y0120795D01*
X0944516D01*
X0943926Y0121386D01*
Y0123747D01*
X0944516Y0124337D01*
X0940384Y0123747D02*
X0940974Y0124337D01*
X0942155D01*
X0942745Y0123747D01*
Y0123157D01*
X0942155Y0122566D01*
X0940974D01*
X0940384Y0121976D01*
Y0121386D01*
X0940974Y0120795D01*
X0942155D01*
X0942745Y0121386D01*
X0939203Y0124337D02*
X0936841D01*
X0938022D01*
Y0120795D01*
X0876998Y0140837D02*
Y0138476D01*
X0875817Y0137295D01*
X0874637Y0138476D01*
Y0140837D01*
X0871094Y0140247D02*
X0871685Y0140837D01*
X0872865D01*
X0873456Y0140247D01*
Y0137886D01*
X0872865Y0137295D01*
X0871685D01*
X0871094Y0137886D01*
X0867552Y0140247D02*
X0868143Y0140837D01*
X0869323D01*
X0869914Y0140247D01*
Y0137886D01*
X0869323Y0137295D01*
X0868143D01*
X0867552Y0137886D01*
X0863998Y0140837D02*
X0862817D01*
X0863408D01*
Y0137295D01*
X0863998D01*
X0862817D01*
X0859275Y0140837D02*
X0860456D01*
X0861046Y0140247D01*
Y0137886D01*
X0860456Y0137295D01*
X0859275D01*
X0858685Y0137886D01*
Y0140247D01*
X0859275Y0140837D01*
X0851600Y0140247D02*
X0852191Y0140837D01*
X0853372D01*
X0853962Y0140247D01*
Y0137886D01*
X0853372Y0137295D01*
X0852191D01*
X0851600Y0137886D01*
Y0139066D01*
X0852781D01*
X0850420Y0137295D02*
Y0140837D01*
X0848058Y0137295D01*
Y0140837D01*
X0846878D02*
Y0137295D01*
X0845107D01*
X0844516Y0137886D01*
Y0140247D01*
X0845107Y0140837D01*
X0846878D01*
X0874498Y0149087D02*
Y0145545D01*
X0872137D01*
X0868594Y0149087D02*
X0870956D01*
Y0145545D01*
X0868594D01*
X0870956Y0147316D02*
X0869775D01*
X0867414Y0149087D02*
Y0145545D01*
X0865643D01*
X0865052Y0146136D01*
Y0148497D01*
X0865643Y0149087D01*
X0867414D01*
X0860329Y0145545D02*
Y0149087D01*
X0858558D01*
X0857968Y0148497D01*
Y0147316D01*
X0858558Y0146726D01*
X0860329D01*
X0859149D02*
X0857968Y0145545D01*
X0856787Y0149087D02*
X0855606D01*
X0856197D01*
Y0145545D01*
X0856787D01*
X0855606D01*
X0853835D02*
Y0149087D01*
X0851474Y0145545D01*
Y0149087D01*
X0847932Y0148497D02*
X0848522Y0149087D01*
X0849703D01*
X0850293Y0148497D01*
Y0146136D01*
X0849703Y0145545D01*
X0848522D01*
X0847932Y0146136D01*
Y0147316D01*
X0849113D01*
X0873137Y0115337D02*
X0875498D01*
Y0111795D01*
X0873137D01*
X0875498Y0113566D02*
X0874317D01*
X0871956Y0111795D02*
Y0115337D01*
X0869594Y0111795D01*
Y0115337D01*
X0863100Y0111795D02*
X0864872Y0113566D01*
X0863100Y0115337D01*
X0861329Y0111795D02*
X0859558Y0113566D01*
X0861329Y0115337D01*
X0854835D02*
Y0111795D01*
X0853064D01*
X0852474Y0112386D01*
Y0114747D01*
X0853064Y0115337D01*
X0854835D01*
X0851293D02*
X0850113D01*
X0850703D01*
Y0111795D01*
X0851293D01*
X0850113D01*
X0845980Y0114747D02*
X0846570Y0115337D01*
X0847751D01*
X0848341Y0114747D01*
Y0114157D01*
X0847751Y0113566D01*
X0846570D01*
X0845980Y0112976D01*
Y0112386D01*
X0846570Y0111795D01*
X0847751D01*
X0848341Y0112386D01*
X0835227Y0115337D02*
X0836408D01*
X0836998Y0114747D01*
Y0112386D01*
X0836408Y0111795D01*
X0835227D01*
X0834637Y0112386D01*
Y0114747D01*
X0835227Y0115337D01*
X0831094D02*
X0833456D01*
Y0113566D01*
X0832275D01*
X0833456D01*
Y0111795D01*
X0827552Y0115337D02*
X0829914D01*
Y0113566D01*
X0828733D01*
X0829914D01*
Y0111795D01*
X0821058D02*
X0822829Y0113566D01*
X0821058Y0115337D01*
X0819287Y0111795D02*
X0817516Y0113566D01*
X0819287Y0115337D01*
X0807480D02*
X0808661D01*
X0809251Y0114747D01*
Y0112386D01*
X0808661Y0111795D01*
X0807480D01*
X0806890Y0112386D01*
Y0114747D01*
X0807480Y0115337D01*
X0805709Y0111795D02*
Y0115337D01*
X0803347Y0111795D01*
Y0115337D01*
X0834387Y0138247D02*
X0834977Y0138837D01*
X0836158D01*
X0836748Y0138247D01*
Y0135886D01*
X0836158Y0135295D01*
X0834977D01*
X0834387Y0135886D01*
X0833206Y0135295D02*
Y0137657D01*
X0832025Y0138837D01*
X0830844Y0137657D01*
Y0135295D01*
Y0137066D01*
X0833206D01*
X0829664Y0135295D02*
Y0138837D01*
X0828483Y0137657D01*
X0827302Y0138837D01*
Y0135295D01*
X0823760Y0138837D02*
X0826122D01*
Y0135295D01*
X0823760D01*
X0826122Y0137066D02*
X0824941D01*
X0822579Y0135295D02*
Y0138837D01*
X0820808D01*
X0820218Y0138247D01*
Y0137066D01*
X0820808Y0136476D01*
X0822579D01*
X0821399D02*
X0820218Y0135295D01*
X0819037D02*
Y0137657D01*
X0817857Y0138837D01*
X0816676Y0137657D01*
Y0135295D01*
Y0137066D01*
X0819037D01*
X0811953Y0135295D02*
Y0138837D01*
X0810182D01*
X0809591Y0138247D01*
Y0137066D01*
X0810182Y0136476D01*
X0811953D01*
X0808411Y0138837D02*
Y0135295D01*
X0807230Y0136476D01*
X0806049Y0135295D01*
Y0138837D01*
X0804869Y0135295D02*
Y0138837D01*
X0803098D01*
X0802507Y0138247D01*
Y0137066D01*
X0803098Y0136476D01*
X0804869D01*
X0803688D02*
X0802507Y0135295D01*
X0619137Y0330247D02*
X0619727Y0330837D01*
X0620908D01*
X0621498Y0330247D01*
Y0329657D01*
X0620908Y0329066D01*
X0619727D01*
X0619137Y0328476D01*
Y0327886D01*
X0619727Y0327295D01*
X0620908D01*
X0621498Y0327886D01*
X0617956Y0330837D02*
Y0327295D01*
X0616185D01*
X0615594Y0327886D01*
Y0330247D01*
X0616185Y0330837D01*
X0617956D01*
X0614414Y0327295D02*
Y0329657D01*
X0613233Y0330837D01*
X0612052Y0329657D01*
Y0327295D01*
Y0329066D01*
X0614414D01*
X0621498Y0317295D02*
Y0320837D01*
X0619137Y0317295D01*
Y0320837D01*
X0615594Y0320247D02*
X0616185Y0320837D01*
X0617366D01*
X0617956Y0320247D01*
Y0317886D01*
X0617366Y0317295D01*
X0616185D01*
X0615594Y0317886D01*
X0621498Y0306545D02*
Y0310087D01*
X0619137Y0306545D01*
Y0310087D01*
X0615594Y0309497D02*
X0616185Y0310087D01*
X0617366D01*
X0617956Y0309497D01*
Y0307136D01*
X0617366Y0306545D01*
X0616185D01*
X0615594Y0307136D01*
X0621498Y0296795D02*
Y0300337D01*
X0619137Y0296795D01*
Y0300337D01*
X0615594Y0299747D02*
X0616185Y0300337D01*
X0617366D01*
X0617956Y0299747D01*
Y0297386D01*
X0617366Y0296795D01*
X0616185D01*
X0615594Y0297386D01*
X0621498Y0286295D02*
Y0289837D01*
X0619137Y0286295D01*
Y0289837D01*
X0615594Y0289247D02*
X0616185Y0289837D01*
X0617366D01*
X0617956Y0289247D01*
Y0286886D01*
X0617366Y0286295D01*
X0616185D01*
X0615594Y0286886D01*
X0619137Y0279247D02*
X0619727Y0279837D01*
X0620908D01*
X0621498Y0279247D01*
Y0276886D01*
X0620908Y0276295D01*
X0619727D01*
X0619137Y0276886D01*
Y0278066D01*
X0620317D01*
X0617956Y0276295D02*
Y0279837D01*
X0615594Y0276295D01*
Y0279837D01*
X0614414D02*
Y0276295D01*
X0612643D01*
X0612052Y0276886D01*
Y0279247D01*
X0612643Y0279837D01*
X0614414D01*
X0621498Y0249337D02*
X0620317D01*
X0620908D01*
Y0245795D01*
X0621498D01*
X0620317D01*
X0616775Y0249337D02*
X0617956D01*
X0618546Y0248747D01*
Y0246386D01*
X0617956Y0245795D01*
X0616775D01*
X0616185Y0246386D01*
Y0248747D01*
X0616775Y0249337D01*
X0621498Y0259587D02*
X0620317D01*
X0620908D01*
Y0256045D01*
X0621498D01*
X0620317D01*
X0616775Y0259587D02*
X0617956D01*
X0618546Y0258997D01*
Y0256636D01*
X0617956Y0256045D01*
X0616775D01*
X0616185Y0256636D01*
Y0258997D01*
X0616775Y0259587D01*
X0621498Y0237337D02*
X0620317D01*
X0620908D01*
Y0233795D01*
X0621498D01*
X0620317D01*
X0616775Y0237337D02*
X0617956D01*
X0618546Y0236747D01*
Y0234386D01*
X0617956Y0233795D01*
X0616775D01*
X0616185Y0234386D01*
Y0236747D01*
X0616775Y0237337D01*
X0621498Y0224045D02*
Y0227587D01*
X0619137Y0224045D01*
Y0227587D01*
X0615594Y0226997D02*
X0616185Y0227587D01*
X0617366D01*
X0617956Y0226997D01*
Y0224636D01*
X0617366Y0224045D01*
X0616185D01*
X0615594Y0224636D01*
X0621498Y0214545D02*
Y0218087D01*
X0619727D01*
X0619137Y0217497D01*
Y0216316D01*
X0619727Y0215726D01*
X0621498D01*
X0620317D02*
X0619137Y0214545D01*
X0617956Y0218087D02*
X0615594Y0214545D01*
Y0218087D02*
X0617956Y0214545D01*
X0619137Y0206497D02*
X0619727Y0207087D01*
X0620908D01*
X0621498Y0206497D01*
Y0204136D01*
X0620908Y0203545D01*
X0619727D01*
X0619137Y0204136D01*
Y0205316D01*
X0620317D01*
X0617956Y0203545D02*
Y0207087D01*
X0615594Y0203545D01*
Y0207087D01*
X0614414D02*
Y0203545D01*
X0612643D01*
X0612052Y0204136D01*
Y0206497D01*
X0612643Y0207087D01*
X0614414D01*
X0621498Y0197837D02*
Y0194295D01*
X0619727D01*
X0619137Y0194886D01*
Y0197247D01*
X0619727Y0197837D01*
X0621498D01*
X0617956Y0196066D02*
X0615594D01*
X0616775Y0197247D02*
Y0194886D01*
X0619137Y0188837D02*
X0621498D01*
Y0187066D01*
X0620317Y0187657D01*
X0619727D01*
X0619137Y0187066D01*
Y0185886D01*
X0619727Y0185295D01*
X0620908D01*
X0621498Y0185886D01*
X0617956Y0188837D02*
Y0186476D01*
X0616775Y0185295D01*
X0615594Y0186476D01*
Y0188837D01*
X0621498Y0270337D02*
X0620317D01*
X0620908D01*
Y0266795D01*
X0621498D01*
X0620317D01*
X0616775Y0270337D02*
X0617956D01*
X0618546Y0269747D01*
Y0267386D01*
X0617956Y0266795D01*
X0616775D01*
X0616185Y0267386D01*
Y0269747D01*
X0616775Y0270337D01*
X0638748Y0266795D02*
Y0270337D01*
X0636387Y0266795D01*
Y0270337D01*
X0632844Y0269747D02*
X0633435Y0270337D01*
X0634616D01*
X0635206Y0269747D01*
Y0267386D01*
X0634616Y0266795D01*
X0633435D01*
X0632844Y0267386D01*
X0636387Y0188837D02*
X0638748D01*
Y0187066D01*
X0637567Y0187657D01*
X0636977D01*
X0636387Y0187066D01*
Y0185886D01*
X0636977Y0185295D01*
X0638158D01*
X0638748Y0185886D01*
X0635206Y0188837D02*
Y0186476D01*
X0634025Y0185295D01*
X0632844Y0186476D01*
Y0188837D01*
X0638748Y0197837D02*
Y0194295D01*
X0636977D01*
X0636387Y0194886D01*
Y0197247D01*
X0636977Y0197837D01*
X0638748D01*
X0635206Y0196066D02*
X0632844D01*
X0636387Y0206497D02*
X0636977Y0207087D01*
X0638158D01*
X0638748Y0206497D01*
Y0204136D01*
X0638158Y0203545D01*
X0636977D01*
X0636387Y0204136D01*
Y0205316D01*
X0637567D01*
X0635206Y0203545D02*
Y0207087D01*
X0632844Y0203545D01*
Y0207087D01*
X0631664D02*
Y0203545D01*
X0629893D01*
X0629302Y0204136D01*
Y0206497D01*
X0629893Y0207087D01*
X0631664D01*
X0638748Y0218087D02*
X0636387D01*
X0637567D01*
Y0214545D01*
X0635206Y0218087D02*
X0632844Y0214545D01*
Y0218087D02*
X0635206Y0214545D01*
X0638748Y0224045D02*
Y0227587D01*
X0636387Y0224045D01*
Y0227587D01*
X0632844Y0226997D02*
X0633435Y0227587D01*
X0634616D01*
X0635206Y0226997D01*
Y0224636D01*
X0634616Y0224045D01*
X0633435D01*
X0632844Y0224636D01*
X0638748Y0237337D02*
X0637567D01*
X0638158D01*
Y0233795D01*
X0638748D01*
X0637567D01*
X0634025Y0237337D02*
X0635206D01*
X0635796Y0236747D01*
Y0234386D01*
X0635206Y0233795D01*
X0634025D01*
X0633435Y0234386D01*
Y0236747D01*
X0634025Y0237337D01*
X0638748Y0258997D02*
X0638158Y0259587D01*
X0636977D01*
X0636387Y0258997D01*
Y0258407D01*
X0636977Y0257816D01*
X0637567D01*
X0636977D01*
X0636387Y0257226D01*
Y0256636D01*
X0636977Y0256045D01*
X0638158D01*
X0638748Y0256636D01*
X0635206Y0259587D02*
Y0257226D01*
X0634025Y0256045D01*
X0632844Y0257226D01*
Y0259587D01*
X0631664Y0258997D02*
X0631073Y0259587D01*
X0629893D01*
X0629302Y0258997D01*
Y0258407D01*
X0629893Y0257816D01*
X0630483D01*
X0629893D01*
X0629302Y0257226D01*
Y0256636D01*
X0629893Y0256045D01*
X0631073D01*
X0631664Y0256636D01*
X0638748Y0245795D02*
Y0249337D01*
X0636387Y0245795D01*
Y0249337D01*
X0632844Y0248747D02*
X0633435Y0249337D01*
X0634616D01*
X0635206Y0248747D01*
Y0246386D01*
X0634616Y0245795D01*
X0633435D01*
X0632844Y0246386D01*
X0636387Y0279247D02*
X0636977Y0279837D01*
X0638158D01*
X0638748Y0279247D01*
Y0276886D01*
X0638158Y0276295D01*
X0636977D01*
X0636387Y0276886D01*
Y0278066D01*
X0637567D01*
X0635206Y0276295D02*
Y0279837D01*
X0632844Y0276295D01*
Y0279837D01*
X0631664D02*
Y0276295D01*
X0629893D01*
X0629302Y0276886D01*
Y0279247D01*
X0629893Y0279837D01*
X0631664D01*
X0638748Y0286295D02*
Y0289837D01*
X0636387Y0286295D01*
Y0289837D01*
X0632844Y0289247D02*
X0633435Y0289837D01*
X0634616D01*
X0635206Y0289247D01*
Y0286886D01*
X0634616Y0286295D01*
X0633435D01*
X0632844Y0286886D01*
X0638748Y0296795D02*
Y0300337D01*
X0636387Y0296795D01*
Y0300337D01*
X0632844Y0299747D02*
X0633435Y0300337D01*
X0634616D01*
X0635206Y0299747D01*
Y0297386D01*
X0634616Y0296795D01*
X0633435D01*
X0632844Y0297386D01*
X0638748Y0306545D02*
Y0310087D01*
X0636387Y0306545D01*
Y0310087D01*
X0632844Y0309497D02*
X0633435Y0310087D01*
X0634616D01*
X0635206Y0309497D01*
Y0307136D01*
X0634616Y0306545D01*
X0633435D01*
X0632844Y0307136D01*
X0638748Y0317295D02*
Y0320837D01*
X0636387Y0317295D01*
Y0320837D01*
X0632844Y0320247D02*
X0633435Y0320837D01*
X0634616D01*
X0635206Y0320247D01*
Y0317886D01*
X0634616Y0317295D01*
X0633435D01*
X0632844Y0317886D01*
X0636387Y0330247D02*
X0636977Y0330837D01*
X0638158D01*
X0638748Y0330247D01*
Y0329657D01*
X0638158Y0329066D01*
X0636977D01*
X0636387Y0328476D01*
Y0327886D01*
X0636977Y0327295D01*
X0638158D01*
X0638748Y0327886D01*
X0632844Y0330247D02*
X0633435Y0330837D01*
X0634616D01*
X0635206Y0330247D01*
Y0327886D01*
X0634616Y0327295D01*
X0633435D01*
X0632844Y0327886D01*
X0631664Y0330837D02*
Y0327295D01*
X0629302D01*
M02*
