G04 Layer_Physical_Order=2*
G04 Layer_Color=32768*
%FSAX25Y25*%
%MOIN*%
G70*
G01*
G75*
%ADD84C,0.04000*%
%ADD85C,0.08724*%
%ADD86C,0.10693*%
%ADD87C,0.10299*%
%ADD88C,0.14000*%
%ADD89C,0.07543*%
%ADD90C,0.16992*%
%ADD91C,0.08016*%
%ADD92C,0.07937*%
%ADD93C,0.10102*%
%ADD94C,0.16598*%
%ADD95C,0.05496*%
%ADD96C,0.05500*%
D84*
X0584500Y0349642D02*
X0584727Y0351946D01*
X0585399Y0354162D01*
X0586490Y0356204D01*
X0587959Y0357993D01*
X0589749Y0359462D01*
X0591791Y0360554D01*
X0594007Y0361226D01*
X0596311Y0361453D01*
X1202610D01*
X1204914Y0361226D01*
X1207130Y0360554D01*
X1209172Y0359462D01*
X1210962Y0357993D01*
X1212431Y0356204D01*
X1213522Y0354162D01*
X1214194Y0351946D01*
X1214421Y0349642D01*
Y0117358D02*
Y0349642D01*
X1214194Y0115054D02*
X1214421Y0117358D01*
X1213522Y0112838D02*
X1214194Y0115054D01*
X1212431Y0110796D02*
X1213522Y0112838D01*
X1210962Y0109007D02*
X1212431Y0110796D01*
X1209172Y0107538D02*
X1210962Y0109007D01*
X1207130Y0106446D02*
X1209172Y0107538D01*
X1204914Y0105774D02*
X1207130Y0106446D01*
X1202610Y0105547D02*
X1204914Y0105774D01*
X1123870Y0105547D02*
X1202610D01*
X1123870D02*
Y0148854D01*
X1123771Y0149730D02*
X1123870Y0148854D01*
X1123480Y0150563D02*
X1123771Y0149730D01*
X1123011Y0151309D02*
X1123480Y0150563D01*
X1122388Y0151932D02*
X1123011Y0151309D01*
X1121641Y0152401D02*
X1122388Y0151932D01*
X1120809Y0152693D02*
X1121641Y0152401D01*
X1119933Y0152791D02*
X1120809Y0152693D01*
X1054972Y0152791D02*
X1119933D01*
X1054096Y0152693D02*
X1054972Y0152791D01*
X1053264Y0152401D02*
X1054096Y0152693D01*
X1052518Y0151932D02*
X1053264Y0152401D01*
X1051894Y0151309D02*
X1052518Y0151932D01*
X1051425Y0150563D02*
X1051894Y0151309D01*
X1051134Y0149730D02*
X1051425Y0150563D01*
X1051035Y0148854D02*
X1051134Y0149730D01*
X1051035Y0105547D02*
Y0148854D01*
X0596311Y0105547D02*
X1051035D01*
X0594007Y0105774D02*
X0596311Y0105547D01*
X0591791Y0106446D02*
X0594007Y0105774D01*
X0589749Y0107538D02*
X0591791Y0106446D01*
X0587959Y0109007D02*
X0589749Y0107538D01*
X0586490Y0110796D02*
X0587959Y0109007D01*
X0585399Y0112838D02*
X0586490Y0110796D01*
X0584727Y0115054D02*
X0585399Y0112838D01*
X0584500Y0117358D02*
X0584727Y0115054D01*
X0584500Y0117358D02*
Y0349642D01*
D85*
X0659998Y0332187D02*
D03*
D86*
X0922990D02*
D03*
D87*
X0778748Y0199795D02*
D03*
X0698748Y0119795D02*
D03*
X0738748Y0199795D02*
D03*
X0728748Y0119795D02*
D03*
X0748748D02*
D03*
X0977996Y0135775D02*
D03*
X1041500D02*
D03*
D88*
X0711228Y0199795D02*
D03*
Y0119795D02*
D03*
X0766228Y0199795D02*
D03*
Y0119795D02*
D03*
D89*
X0669998Y0116545D02*
D03*
Y0136545D02*
D03*
Y0146545D02*
D03*
Y0166545D02*
D03*
Y0176545D02*
D03*
Y0186545D02*
D03*
X1017740Y0218295D02*
D03*
X1025732D02*
D03*
X1033724D02*
D03*
X0989768Y0208295D02*
D03*
X0997760D02*
D03*
X1021736D02*
D03*
X1029728D02*
D03*
X1031756Y0180264D02*
D03*
X0987740D02*
D03*
X1147890Y0321673D02*
D03*
X1137890Y0311673D02*
D03*
X1147890D02*
D03*
X1137890Y0301673D02*
D03*
X1147890D02*
D03*
X1137890Y0291673D02*
D03*
X1147890D02*
D03*
X1137890Y0281673D02*
D03*
X1147890D02*
D03*
X1137890Y0271673D02*
D03*
X1147890D02*
D03*
X1137890Y0261673D02*
D03*
X1147890D02*
D03*
X1137890Y0251673D02*
D03*
X1147890D02*
D03*
X1137890Y0241673D02*
D03*
X1147890D02*
D03*
X1137890Y0321673D02*
D03*
X1151498Y0161295D02*
D03*
Y0171295D02*
D03*
Y0181295D02*
D03*
Y0191295D02*
D03*
Y0201295D02*
D03*
X1141498Y0161295D02*
D03*
Y0171295D02*
D03*
Y0181295D02*
D03*
Y0191295D02*
D03*
X0603248Y0195295D02*
D03*
X0593248D02*
D03*
Y0325295D02*
D03*
X0603248D02*
D03*
X0593248Y0315295D02*
D03*
X0603248D02*
D03*
X0593248Y0305295D02*
D03*
X0603248D02*
D03*
X0593248Y0295295D02*
D03*
X0603248D02*
D03*
X0593248Y0285295D02*
D03*
X0603248D02*
D03*
X0593248Y0265295D02*
D03*
X0603248D02*
D03*
X0593248Y0255295D02*
D03*
X0603248D02*
D03*
X0593248Y0245295D02*
D03*
X0603248D02*
D03*
X0593248Y0235295D02*
D03*
X0603248D02*
D03*
X0593248Y0225295D02*
D03*
X0603248D02*
D03*
X0593248Y0215295D02*
D03*
X0603248D02*
D03*
X0593248Y0185295D02*
D03*
X0603248D02*
D03*
X0871748Y0131545D02*
D03*
Y0121545D02*
D03*
X0861748Y0131545D02*
D03*
Y0121545D02*
D03*
D90*
X0984748Y0148295D02*
D03*
X1034748D02*
D03*
D91*
X0985752Y0228295D02*
D03*
X0995752D02*
D03*
X1023744D02*
D03*
X1033744D02*
D03*
D92*
X0810248Y0127045D02*
D03*
X0820248D02*
D03*
X0951039Y0165667D02*
D03*
Y0157793D02*
D03*
X0945685Y0153856D02*
D03*
X0951039Y0149919D02*
D03*
D93*
X1067756Y0293252D02*
D03*
X1105649Y0293449D02*
D03*
D94*
X0600248Y0345705D02*
D03*
X0997886Y0345705D02*
D03*
X1198673Y0345705D02*
D03*
Y0121295D02*
D03*
X0600248D02*
D03*
D95*
X0702498Y0299295D02*
D03*
X0708795Y0355795D02*
D03*
Y0303045D02*
D03*
X0705295Y0355795D02*
D03*
Y0303045D02*
D03*
X0711498Y0268295D02*
D03*
X0714998Y0274545D02*
D03*
X0909748Y0220545D02*
D03*
X1041748Y0234545D02*
D03*
X1014748Y0276295D02*
D03*
X1010748Y0278394D02*
D03*
X0836998Y0303295D02*
D03*
X0823248Y0179295D02*
D03*
X0828998Y0184295D02*
D03*
X1022498Y0337545D02*
D03*
X0845248Y0355795D02*
D03*
X0934748Y0132295D02*
D03*
X0928248Y0168140D02*
D03*
X0868248Y0348295D02*
D03*
X0857748D02*
D03*
X0689248Y0308045D02*
D03*
X0676248Y0296545D02*
D03*
X0900998Y0135545D02*
D03*
X1187248Y0154795D02*
D03*
X1158748Y0176545D02*
D03*
X1139498Y0232795D02*
D03*
X1207998Y0200295D02*
D03*
X0850248Y0138795D02*
D03*
X0786998Y0131295D02*
D03*
X0778248Y0115795D02*
D03*
X0637998Y0246045D02*
D03*
X0890248Y0342045D02*
D03*
X1040248Y0327545D02*
D03*
X1174248Y0226795D02*
D03*
X0813748Y0290045D02*
D03*
X1173248Y0266795D02*
D03*
X1115748Y0349545D02*
D03*
X1104998D02*
D03*
X0890248Y0356795D02*
D03*
X0921748Y0357545D02*
D03*
X0908248Y0355795D02*
D03*
X1177748Y0223795D02*
D03*
X1183248Y0209795D02*
D03*
X0974248Y0229045D02*
D03*
X0971498Y0231545D02*
D03*
X0946748Y0283045D02*
D03*
X0948998Y0286795D02*
D03*
X1109748Y0202295D02*
D03*
X0805748Y0263545D02*
D03*
X0802998Y0267045D02*
D03*
X1102998Y0185795D02*
D03*
X0843248Y0278545D02*
D03*
X0840248Y0274795D02*
D03*
X0962998Y0223045D02*
D03*
X0848498Y0275795D02*
D03*
X0983248Y0202045D02*
D03*
X1176498Y0173795D02*
D03*
X1011248Y0128795D02*
D03*
X0993748D02*
D03*
X0983248Y0183295D02*
D03*
X0978998Y0184295D02*
D03*
X0979248Y0193295D02*
D03*
X1148998Y0123295D02*
D03*
X0836498Y0264295D02*
D03*
X0840248Y0355533D02*
D03*
X0853295Y0297445D02*
D03*
X0835498Y0357045D02*
D03*
X1176998Y0115795D02*
D03*
X0812248Y0263045D02*
D03*
X1172748Y0159545D02*
D03*
X1172498Y0165545D02*
D03*
X1210498Y0216545D02*
D03*
X1193248Y0219545D02*
D03*
X1196748Y0223045D02*
D03*
X1157998Y0227295D02*
D03*
X1202498Y0237795D02*
D03*
X1036748Y0234045D02*
D03*
X0630998Y0252795D02*
D03*
X0621998Y0231295D02*
D03*
X0620998Y0237795D02*
D03*
X1025248Y0294508D02*
D03*
Y0291008D02*
D03*
X0960998Y0207795D02*
D03*
Y0196795D02*
D03*
X1046998Y0252545D02*
D03*
X1020748Y0330545D02*
D03*
X1003748Y0328795D02*
D03*
X0950498Y0211295D02*
D03*
X0966248Y0330545D02*
D03*
X0997248Y0331545D02*
D03*
X1044998Y0285545D02*
D03*
X1018248Y0251795D02*
D03*
X0973498Y0262295D02*
D03*
X0998498Y0269545D02*
D03*
Y0253045D02*
D03*
X0979248Y0285295D02*
D03*
X0956248Y0284295D02*
D03*
X0961498Y0302045D02*
D03*
X0969498Y0327545D02*
D03*
X1037248Y0310045D02*
D03*
X1021248Y0311545D02*
D03*
X0966059Y0231235D02*
D03*
X1009198Y0274995D02*
D03*
X0963584Y0233710D02*
D03*
X0909498Y0143295D02*
D03*
X0800248Y0228795D02*
D03*
X0639248Y0263045D02*
D03*
X0719998Y0271795D02*
D03*
X0639248Y0267045D02*
D03*
X0642498Y0288545D02*
D03*
X0642248Y0284795D02*
D03*
Y0280795D02*
D03*
X0877498Y0250045D02*
D03*
X0873748Y0241295D02*
D03*
X0825248Y0246545D02*
D03*
X0827248Y0255795D02*
D03*
X0831998Y0263795D02*
D03*
X0817748Y0234795D02*
D03*
X0819998Y0231545D02*
D03*
X0654748Y0206045D02*
D03*
X0654498Y0200045D02*
D03*
X0714748Y0279045D02*
D03*
X0760748Y0323545D02*
D03*
X0769998Y0324045D02*
D03*
X0765498Y0326045D02*
D03*
X0742748Y0323045D02*
D03*
X0737248Y0322795D02*
D03*
X0843248Y0324045D02*
D03*
X0829248Y0326545D02*
D03*
X0825748Y0328545D02*
D03*
X0840998Y0327295D02*
D03*
X0828998Y0357545D02*
D03*
X0826248Y0355295D02*
D03*
X0647498Y0157795D02*
D03*
X0639998Y0114045D02*
D03*
X0913748Y0212295D02*
D03*
X0920748Y0190295D02*
D03*
X0917748Y0134045D02*
D03*
X0902998Y0132545D02*
D03*
X0927498Y0210295D02*
D03*
X0727748Y0329045D02*
D03*
X0729748Y0326295D02*
D03*
X0896748Y0341795D02*
D03*
X0894998Y0336795D02*
D03*
X0732248Y0324045D02*
D03*
X0642248Y0276795D02*
D03*
X0900748Y0163045D02*
D03*
X0887998Y0132545D02*
D03*
X0833498Y0159545D02*
D03*
X0851998Y0198295D02*
D03*
X0810498Y0147795D02*
D03*
X0802248Y0214545D02*
D03*
X0800248Y0190045D02*
D03*
D96*
X0984248Y0274795D02*
D03*
X0675248Y0355795D02*
D03*
X0678498D02*
D03*
X0685998Y0356795D02*
D03*
Y0353795D02*
D03*
X0692748Y0304795D02*
D03*
X0689248D02*
D03*
X0692748Y0308045D02*
D03*
X0677998Y0309045D02*
D03*
X0674748D02*
D03*
X0676248Y0299545D02*
D03*
X0663998Y0355295D02*
D03*
Y0351295D02*
D03*
Y0347045D02*
D03*
X0667748Y0304295D02*
D03*
X0664248D02*
D03*
Y0308045D02*
D03*
X0667748D02*
D03*
X0812998Y0166295D02*
D03*
X0776748Y0166545D02*
D03*
X0780498D02*
D03*
X0800248Y0193795D02*
D03*
X0802248Y0211295D02*
D03*
X0846998Y0138795D02*
D03*
X0841998Y0166045D02*
D03*
X0851248Y0180295D02*
D03*
X0853998Y0178045D02*
D03*
X0784248Y0166545D02*
D03*
X0756498Y0176795D02*
D03*
Y0173045D02*
D03*
Y0169295D02*
D03*
Y0165545D02*
D03*
Y0161795D02*
D03*
Y0158045D02*
D03*
X0752748Y0176795D02*
D03*
Y0173045D02*
D03*
Y0169295D02*
D03*
Y0165545D02*
D03*
Y0161795D02*
D03*
Y0158045D02*
D03*
X0650748Y0148795D02*
D03*
X0646248D02*
D03*
X0653998Y0157795D02*
D03*
X0650498D02*
D03*
X0834998Y0271795D02*
D03*
X0870248Y0308045D02*
D03*
X1159498Y0260295D02*
D03*
X1159248Y0253295D02*
D03*
X1166272Y0133272D02*
D03*
X1018998Y0283295D02*
D03*
X1027998Y0285795D02*
D03*
X0993498Y0280545D02*
D03*
X0975866Y0290913D02*
D03*
X0973998Y0295719D02*
D03*
X0977748Y0308045D02*
D03*
X0977998Y0313045D02*
D03*
X0993748Y0329795D02*
D03*
X0969998Y0337045D02*
D03*
X1020998Y0299545D02*
D03*
X1021498Y0306795D02*
D03*
X1021248Y0317545D02*
D03*
X0632451Y0245795D02*
D03*
M02*
