G04 Layer_Physical_Order=1*
G04 Layer_Color=255*
%FSAX25Y25*%
%MOIN*%
G70*
G01*
G75*
%ADD10C,0.04000*%
%ADD11C,0.05906*%
%ADD12R,0.03543X0.02362*%
%ADD13R,0.01181X0.05315*%
%ADD14R,0.01378X0.07874*%
%ADD15R,0.17716X0.18110*%
%ADD16R,0.09843X0.06693*%
%ADD17R,0.00984X0.03937*%
%ADD18R,0.03740X0.00984*%
%ADD19R,0.00984X0.03740*%
%ADD20R,0.28740X0.28740*%
%ADD21R,0.05512X0.04331*%
%ADD22R,0.01969X0.01378*%
%ADD23R,0.12598X0.07284*%
%ADD24R,0.03937X0.07284*%
%ADD25R,0.02362X0.03543*%
%ADD26R,0.06299X0.03543*%
%ADD27R,0.03543X0.06299*%
%ADD28R,0.01575X0.03347*%
%ADD29R,0.05906X0.05906*%
%ADD30R,0.03543X0.05118*%
%ADD31R,0.03150X0.03150*%
%ADD32R,0.13386X0.04724*%
%ADD33R,0.14173X0.05906*%
%ADD34R,0.05906X0.14173*%
%ADD35R,0.03150X0.03150*%
%ADD36R,0.01575X0.05512*%
%ADD37R,0.06102X0.07480*%
%ADD38R,0.06299X0.05512*%
%ADD39R,0.09055X0.07480*%
%ADD40R,0.11811X0.05906*%
%ADD41R,0.05118X0.03543*%
%ADD42R,0.06496X0.02362*%
%ADD43C,0.00800*%
%ADD44C,0.01299*%
%ADD45C,0.01268*%
%ADD46C,0.00988*%
%ADD47C,0.04724*%
%ADD48C,0.03937*%
%ADD49C,0.01969*%
%ADD50C,0.01575*%
%ADD51C,0.05906*%
%ADD52C,0.01181*%
%ADD53C,0.00984*%
%ADD54C,0.01000*%
%ADD55C,0.00799*%
%ADD56R,0.11750X0.19250*%
%ADD57R,0.03250X0.13000*%
%ADD58R,0.07750X0.07250*%
%ADD59R,0.03250X0.04750*%
%ADD60R,0.05500X0.13500*%
%ADD61R,0.05750X0.21500*%
%ADD62R,0.10000X0.13750*%
%ADD63R,0.08250X0.11000*%
%ADD64R,0.16000X0.43250*%
%ADD65R,0.10500X0.30500*%
%ADD66R,0.03500X0.05250*%
%ADD67R,0.03500X0.04250*%
%ADD68R,0.06750X0.03750*%
%ADD69R,0.08250X0.03750*%
%ADD70C,0.09449*%
%ADD71O,0.07874X0.06299*%
%ADD72C,0.06024*%
%ADD73C,0.05543*%
%ADD74C,0.04921*%
%ADD75O,0.05512X0.09843*%
%ADD76R,0.05512X0.09843*%
%ADD77R,0.05906X0.05906*%
%ADD78C,0.05512*%
%ADD79C,0.07480*%
%ADD80R,0.07874X0.07874*%
%ADD81C,0.06102*%
%ADD82C,0.02500*%
%ADD83C,0.01969*%
D10*
X0640748Y0350795D02*
D03*
X1198248Y0144795D02*
D03*
X1172748Y0347545D02*
D03*
D11*
X0803998Y0138045D02*
D03*
X0855498Y0192045D02*
D03*
X0621748Y0133795D02*
D03*
X0716248Y0306545D02*
D03*
X0712748Y0292795D02*
D03*
X0795248Y0208295D02*
D03*
X0933498Y0209795D02*
D03*
X0940748Y0200045D02*
D03*
X1044248Y0312045D02*
D03*
X0924498Y0134795D02*
D03*
X0917748Y0170545D02*
D03*
X1147890Y0321673D02*
D03*
X1137890Y0311673D02*
D03*
X1147890D02*
D03*
X1137890Y0301673D02*
D03*
X1147890D02*
D03*
X1137890Y0291673D02*
D03*
X1147890D02*
D03*
X1137890Y0281673D02*
D03*
X1147890D02*
D03*
X1137890Y0271673D02*
D03*
X1147890D02*
D03*
X1137890Y0261673D02*
D03*
X1147890D02*
D03*
X1137890Y0251673D02*
D03*
X1147890D02*
D03*
X1137890Y0241673D02*
D03*
X1147890D02*
D03*
X1151498Y0171295D02*
D03*
Y0181295D02*
D03*
Y0191295D02*
D03*
Y0201295D02*
D03*
X1141498Y0161295D02*
D03*
Y0171295D02*
D03*
Y0181295D02*
D03*
Y0191295D02*
D03*
Y0201295D02*
D03*
X0603248Y0195295D02*
D03*
X0593248D02*
D03*
X0603248Y0325295D02*
D03*
X0593248Y0315295D02*
D03*
X0603248D02*
D03*
X0593248Y0305295D02*
D03*
X0603248D02*
D03*
X0593248Y0295295D02*
D03*
X0603248D02*
D03*
X0593248Y0285295D02*
D03*
X0603248D02*
D03*
X0593248Y0275295D02*
D03*
X0603248D02*
D03*
X0593248Y0265295D02*
D03*
X0603248D02*
D03*
X0593248Y0255295D02*
D03*
X0603248D02*
D03*
X0593248Y0245295D02*
D03*
X0603248D02*
D03*
X0593248Y0235295D02*
D03*
X0603248D02*
D03*
X0593248Y0225295D02*
D03*
X0603248D02*
D03*
X0593248Y0215295D02*
D03*
X0603248D02*
D03*
X0593248Y0205295D02*
D03*
X0603248D02*
D03*
X0593248Y0185295D02*
D03*
X0603248D02*
D03*
X0871748Y0131545D02*
D03*
Y0121545D02*
D03*
X0861748Y0131545D02*
D03*
Y0121545D02*
D03*
X0851748Y0131545D02*
D03*
D12*
X0722248Y0292248D02*
D03*
X0728998D02*
D03*
X0722248Y0286343D02*
D03*
X0728998D02*
D03*
X1167498Y0127998D02*
D03*
Y0122092D02*
D03*
X1142748Y0128498D02*
D03*
Y0122592D02*
D03*
X1159998Y0128593D02*
D03*
Y0134498D02*
D03*
X1135248Y0128593D02*
D03*
Y0134498D02*
D03*
X1023248Y0266748D02*
D03*
Y0260842D02*
D03*
X1047498Y0242593D02*
D03*
Y0248498D02*
D03*
X1176498Y0186701D02*
D03*
Y0180795D02*
D03*
X0696498Y0292248D02*
D03*
Y0286343D02*
D03*
X0703248Y0292248D02*
D03*
Y0286343D02*
D03*
X0639248Y0251842D02*
D03*
Y0257748D02*
D03*
X0904498Y0138842D02*
D03*
Y0144748D02*
D03*
X0882748Y0132701D02*
D03*
Y0126795D02*
D03*
X0634248Y0114093D02*
D03*
Y0119998D02*
D03*
X0889179Y0302354D02*
D03*
Y0296449D02*
D03*
X0882392Y0302354D02*
D03*
Y0296449D02*
D03*
D13*
X0909029Y0205305D02*
D03*
X0910998D02*
D03*
X0907061Y0187785D02*
D03*
X0914935Y0205305D02*
D03*
X0912967D02*
D03*
X0907061D02*
D03*
X0914935Y0187785D02*
D03*
X0912967D02*
D03*
X0910998D02*
D03*
X0909029D02*
D03*
D14*
X0705864Y0348329D02*
D03*
X0708226D02*
D03*
X0712951D02*
D03*
X0715313D02*
D03*
X0727124D02*
D03*
X0729486D02*
D03*
X0666888Y0316045D02*
D03*
X0669250D02*
D03*
X0671612D02*
D03*
X0673974D02*
D03*
X0676337D02*
D03*
X0678699D02*
D03*
X0681061D02*
D03*
X0683423D02*
D03*
X0685785D02*
D03*
X0688148D02*
D03*
X0690510D02*
D03*
X0692872D02*
D03*
X0695234D02*
D03*
X0697596D02*
D03*
X0699959D02*
D03*
X0702321D02*
D03*
X0704683D02*
D03*
X0707045D02*
D03*
X0709407D02*
D03*
X0711770D02*
D03*
X0714132D02*
D03*
X0716494D02*
D03*
X0718856D02*
D03*
X0721218D02*
D03*
X0723581D02*
D03*
X0725943D02*
D03*
X0728305D02*
D03*
X0730667D02*
D03*
X0733030D02*
D03*
X0735392D02*
D03*
X0737754D02*
D03*
X0740116D02*
D03*
X0742478D02*
D03*
X0744840D02*
D03*
X0747203D02*
D03*
X0749565D02*
D03*
X0751927D02*
D03*
X0754289D02*
D03*
X0756652D02*
D03*
X0759014D02*
D03*
X0761376D02*
D03*
X0763738D02*
D03*
X0766100D02*
D03*
X0768463D02*
D03*
X0770825D02*
D03*
X0773187D02*
D03*
X0775549D02*
D03*
X0777911D02*
D03*
X0780274D02*
D03*
X0782636D02*
D03*
X0784998D02*
D03*
X0787360D02*
D03*
X0789722D02*
D03*
X0792085D02*
D03*
X0794447D02*
D03*
X0796809D02*
D03*
X0799171D02*
D03*
X0801533D02*
D03*
X0803896D02*
D03*
X0806258D02*
D03*
X0808620D02*
D03*
X0810982D02*
D03*
X0813344D02*
D03*
X0815707D02*
D03*
X0818069D02*
D03*
X0820431D02*
D03*
X0822793D02*
D03*
X0825156D02*
D03*
X0827518D02*
D03*
X0829880D02*
D03*
X0832242D02*
D03*
X0834604D02*
D03*
X0836967D02*
D03*
X0839329D02*
D03*
X0841691D02*
D03*
X0844053D02*
D03*
X0846415D02*
D03*
X0848777D02*
D03*
X0851140D02*
D03*
X0853502D02*
D03*
X0668069Y0348329D02*
D03*
X0670431D02*
D03*
X0672793D02*
D03*
X0675155D02*
D03*
X0677518D02*
D03*
X0679880D02*
D03*
X0682242D02*
D03*
X0684604D02*
D03*
X0686967D02*
D03*
X0689329D02*
D03*
X0691691D02*
D03*
X0694053D02*
D03*
X0696415D02*
D03*
X0698777D02*
D03*
X0701140D02*
D03*
X0703502D02*
D03*
X0710589D02*
D03*
X0717675D02*
D03*
X0720037D02*
D03*
X0722400D02*
D03*
X0724762D02*
D03*
X0731848D02*
D03*
X0734211D02*
D03*
X0736573D02*
D03*
X0738935D02*
D03*
X0741297D02*
D03*
X0743659D02*
D03*
X0746022D02*
D03*
X0748384D02*
D03*
X0750746D02*
D03*
X0753108D02*
D03*
X0755470D02*
D03*
X0757833D02*
D03*
X0760195D02*
D03*
X0762557D02*
D03*
X0764919D02*
D03*
X0767281D02*
D03*
X0769644D02*
D03*
X0772006D02*
D03*
X0774368D02*
D03*
X0776730D02*
D03*
X0779093D02*
D03*
X0781455D02*
D03*
X0783817D02*
D03*
X0786179D02*
D03*
X0788541D02*
D03*
X0790904D02*
D03*
X0793266D02*
D03*
X0795628D02*
D03*
X0797990D02*
D03*
X0800352D02*
D03*
X0802715D02*
D03*
X0805077D02*
D03*
X0807439D02*
D03*
X0809801D02*
D03*
X0812163D02*
D03*
X0814526D02*
D03*
X0816888D02*
D03*
X0819250D02*
D03*
X0821612D02*
D03*
X0823974D02*
D03*
X0826337D02*
D03*
X0828699D02*
D03*
X0831061D02*
D03*
X0833423D02*
D03*
X0835785D02*
D03*
X0838148D02*
D03*
X0840510D02*
D03*
X0842872D02*
D03*
X0845234D02*
D03*
X0847596D02*
D03*
X0849959D02*
D03*
X0852321D02*
D03*
X0854683D02*
D03*
X0870037Y0316045D02*
D03*
X0872400D02*
D03*
X0874762D02*
D03*
X0877124D02*
D03*
X0879486D02*
D03*
X0881848D02*
D03*
X0884211D02*
D03*
X0886573D02*
D03*
X0888935D02*
D03*
X0891297D02*
D03*
X0893659D02*
D03*
X0896022D02*
D03*
X0898384D02*
D03*
X0900746D02*
D03*
X0903108D02*
D03*
X0905470D02*
D03*
X0907833D02*
D03*
X0910195D02*
D03*
X0912557D02*
D03*
X0914919D02*
D03*
X0871218Y0348329D02*
D03*
X0873581D02*
D03*
X0875943D02*
D03*
X0878305D02*
D03*
X0880667D02*
D03*
X0883029D02*
D03*
X0885392D02*
D03*
X0887754D02*
D03*
X0890116D02*
D03*
X0892478D02*
D03*
X0894841D02*
D03*
X0897203D02*
D03*
X0899565D02*
D03*
X0901927D02*
D03*
X0904289D02*
D03*
X0906651D02*
D03*
X0909014D02*
D03*
X0911376D02*
D03*
X0913738D02*
D03*
X0916100D02*
D03*
D15*
X0663738Y0284943D02*
D03*
X0919250D02*
D03*
D16*
X0831498Y0172795D02*
D03*
D17*
X0835927Y0166102D02*
D03*
X0834155D02*
D03*
X0832384D02*
D03*
X0830612D02*
D03*
X0828841D02*
D03*
Y0179488D02*
D03*
X0827069Y0166102D02*
D03*
Y0179488D02*
D03*
X0830612D02*
D03*
X0832384D02*
D03*
X0834155D02*
D03*
X0835927D02*
D03*
D18*
X1016722Y0291781D02*
D03*
Y0293750D02*
D03*
Y0295719D02*
D03*
Y0297687D02*
D03*
Y0299656D02*
D03*
Y0301624D02*
D03*
Y0303592D02*
D03*
Y0305561D02*
D03*
Y0307529D02*
D03*
Y0309498D02*
D03*
Y0311467D02*
D03*
Y0313435D02*
D03*
Y0315404D02*
D03*
Y0317372D02*
D03*
Y0319340D02*
D03*
Y0321309D02*
D03*
X0982274D02*
D03*
Y0319340D02*
D03*
Y0317372D02*
D03*
Y0315404D02*
D03*
Y0313435D02*
D03*
Y0311467D02*
D03*
Y0309498D02*
D03*
Y0307529D02*
D03*
Y0305561D02*
D03*
Y0303592D02*
D03*
Y0301624D02*
D03*
Y0299656D02*
D03*
Y0297687D02*
D03*
Y0295719D02*
D03*
Y0293750D02*
D03*
Y0291781D02*
D03*
D19*
X1014262Y0323770D02*
D03*
X1012293D02*
D03*
X1010325D02*
D03*
X1008356D02*
D03*
X1006388D02*
D03*
X1004419D02*
D03*
X1002451D02*
D03*
X1000482D02*
D03*
X0998514D02*
D03*
X0996545D02*
D03*
X0994577D02*
D03*
X0992608D02*
D03*
X0990640D02*
D03*
X0988671D02*
D03*
X0986703D02*
D03*
X0984734D02*
D03*
Y0289321D02*
D03*
X0986703D02*
D03*
X0988671D02*
D03*
X0990640D02*
D03*
X0992608D02*
D03*
X0994577D02*
D03*
X0996545D02*
D03*
X0998514D02*
D03*
X1000482D02*
D03*
X1002451D02*
D03*
X1004419D02*
D03*
X1006388D02*
D03*
X1008356D02*
D03*
X1010325D02*
D03*
X1012293D02*
D03*
X1014262D02*
D03*
D20*
X0999498Y0306545D02*
D03*
D21*
X1031167Y0259445D02*
D03*
X1039829Y0253146D02*
D03*
Y0259445D02*
D03*
X1031167Y0253146D02*
D03*
D22*
X1206033Y0211457D02*
D03*
X1197963D02*
D03*
Y0214016D02*
D03*
Y0216575D02*
D03*
Y0219134D02*
D03*
X1206033D02*
D03*
Y0216575D02*
D03*
Y0214016D02*
D03*
D23*
X1193498Y0278545D02*
D03*
D24*
X1202553Y0253545D02*
D03*
X1193498D02*
D03*
X1184443D02*
D03*
D25*
X1169451Y0248545D02*
D03*
X1163545D02*
D03*
X1169451Y0254651D02*
D03*
X1163545D02*
D03*
X1169451Y0242795D02*
D03*
X1163545D02*
D03*
X1169451Y0236795D02*
D03*
X1163545D02*
D03*
X1163545Y0273045D02*
D03*
X1169451D02*
D03*
X1169451Y0218795D02*
D03*
X1163545D02*
D03*
X1163545Y0212795D02*
D03*
X1169451D02*
D03*
X1169451Y0279295D02*
D03*
X1163545D02*
D03*
X1169451Y0224795D02*
D03*
X1163545D02*
D03*
X1172951Y0115295D02*
D03*
X1167045D02*
D03*
X1169451Y0266795D02*
D03*
X1163545D02*
D03*
X1148451Y0115545D02*
D03*
X1142545D02*
D03*
X1169451Y0230795D02*
D03*
X1163545D02*
D03*
X1169451Y0260795D02*
D03*
X1163545D02*
D03*
X0920045Y0142545D02*
D03*
X0925951D02*
D03*
X0922295Y0163045D02*
D03*
X0928201D02*
D03*
X1031701Y0310795D02*
D03*
X1025795D02*
D03*
X1034045Y0279795D02*
D03*
X1039951D02*
D03*
X0974295Y0337045D02*
D03*
X0980201D02*
D03*
X0967951Y0276545D02*
D03*
X0962045D02*
D03*
X0961451Y0213045D02*
D03*
X0955545D02*
D03*
X0967093Y0301795D02*
D03*
X0972998D02*
D03*
X1034045Y0239295D02*
D03*
X1039951D02*
D03*
X0993045Y0257795D02*
D03*
X0998951D02*
D03*
X0984201Y0262295D02*
D03*
X0978295D02*
D03*
X1008795Y0263045D02*
D03*
X1014701D02*
D03*
X0998951Y0264045D02*
D03*
X0993045D02*
D03*
X0954795Y0201545D02*
D03*
X0960701D02*
D03*
X0955045Y0191545D02*
D03*
X0960951D02*
D03*
X0666701Y0200545D02*
D03*
X0660795D02*
D03*
X0660748Y0207045D02*
D03*
X0666653D02*
D03*
X1161045Y0165545D02*
D03*
X1166951D02*
D03*
X1161045Y0159545D02*
D03*
X1166951D02*
D03*
X0626701Y0245795D02*
D03*
X0620795D02*
D03*
X1184295Y0194795D02*
D03*
X1190201D02*
D03*
X0627795Y0238045D02*
D03*
X0633701D02*
D03*
X0627748Y0231545D02*
D03*
X0633653D02*
D03*
X0891295Y0144295D02*
D03*
X0897201D02*
D03*
X0844451Y0158545D02*
D03*
X0838545D02*
D03*
D26*
X0818248Y0195087D02*
D03*
Y0206504D02*
D03*
X0805748Y0166337D02*
D03*
Y0177754D02*
D03*
X0795748Y0125898D02*
D03*
Y0113693D02*
D03*
D27*
X0831207Y0137545D02*
D03*
X0819789D02*
D03*
X0639600Y0186545D02*
D03*
X0627396D02*
D03*
X0639600Y0176795D02*
D03*
X0627396D02*
D03*
X0640100Y0148545D02*
D03*
X0627896D02*
D03*
X0640100Y0139295D02*
D03*
X0627896D02*
D03*
D28*
X0920280Y0149449D02*
D03*
X0924216D02*
D03*
X0922248Y0156142D02*
D03*
X0903529Y0151449D02*
D03*
X0907467D02*
D03*
X0905498Y0158142D02*
D03*
X0891529Y0151449D02*
D03*
X0895467D02*
D03*
X0893498Y0158142D02*
D03*
D29*
X1198547Y0185957D02*
D03*
X1185949D02*
D03*
Y0168634D02*
D03*
X1198547D02*
D03*
X0851748Y0121545D02*
D03*
D30*
X1177508Y0320795D02*
D03*
X1184988D02*
D03*
X1177258Y0293795D02*
D03*
X1184738D02*
D03*
X1170508Y0330045D02*
D03*
X1177988D02*
D03*
X1170508Y0303045D02*
D03*
X1177988D02*
D03*
X0813488Y0186295D02*
D03*
X0806008D02*
D03*
D31*
X0962795Y0284545D02*
D03*
X0968701D02*
D03*
X1039951Y0285795D02*
D03*
X1034045D02*
D03*
X1201795Y0205045D02*
D03*
X1207701D02*
D03*
X1031951Y0322295D02*
D03*
X1026045D02*
D03*
X0967045Y0313545D02*
D03*
X0972951D02*
D03*
X1031951Y0316795D02*
D03*
X1026045D02*
D03*
X0962795Y0290045D02*
D03*
X0968701D02*
D03*
X1036201Y0274045D02*
D03*
X1030295D02*
D03*
X1045201Y0267045D02*
D03*
X1039295D02*
D03*
X1014701Y0269045D02*
D03*
X1008795D02*
D03*
X1031951Y0299545D02*
D03*
X1026045D02*
D03*
X1038951Y0292795D02*
D03*
X1033045D02*
D03*
X1031951Y0305045D02*
D03*
X1026045D02*
D03*
X0974295Y0273045D02*
D03*
X0980201D02*
D03*
X0974295Y0281045D02*
D03*
X0980201D02*
D03*
X0962795Y0295545D02*
D03*
X0968701D02*
D03*
X0967045Y0308045D02*
D03*
X0972951D02*
D03*
X0982795Y0331295D02*
D03*
X0988701D02*
D03*
X0973295Y0255295D02*
D03*
X0979201D02*
D03*
X1009545Y0256545D02*
D03*
X1015451D02*
D03*
X1034045Y0245045D02*
D03*
X1039951D02*
D03*
X0994795Y0246295D02*
D03*
X1000701D02*
D03*
X0983451D02*
D03*
X0977545D02*
D03*
X1021795Y0239295D02*
D03*
X1027701D02*
D03*
X1010201Y0239545D02*
D03*
X1004295D02*
D03*
X1192951Y0160295D02*
D03*
X1187045D02*
D03*
X1205451Y0287795D02*
D03*
X1199545D02*
D03*
X1196295Y0243295D02*
D03*
X1202201D02*
D03*
X0847295Y0302045D02*
D03*
X0853201D02*
D03*
X0844701Y0152545D02*
D03*
X0838795D02*
D03*
D32*
X0633748Y0167270D02*
D03*
Y0157821D02*
D03*
D33*
X0840998Y0199049D02*
D03*
Y0187041D02*
D03*
D34*
X0815744Y0152045D02*
D03*
X0827752D02*
D03*
D35*
X1159998Y0122195D02*
D03*
Y0115896D02*
D03*
X1135248Y0122195D02*
D03*
Y0115896D02*
D03*
X0882748Y0120445D02*
D03*
Y0114146D02*
D03*
X0627248Y0119595D02*
D03*
Y0113295D02*
D03*
X1199498Y0327998D02*
D03*
Y0322093D02*
D03*
X1162998Y0315593D02*
D03*
Y0321498D02*
D03*
X1198998Y0301998D02*
D03*
Y0296093D02*
D03*
X1162998Y0288843D02*
D03*
Y0294748D02*
D03*
X1193248Y0327998D02*
D03*
Y0322093D02*
D03*
X1169498Y0315593D02*
D03*
Y0321498D02*
D03*
X1192748Y0301998D02*
D03*
Y0296093D02*
D03*
X1169498Y0288843D02*
D03*
Y0294748D02*
D03*
X1162998Y0334998D02*
D03*
Y0329093D02*
D03*
Y0307545D02*
D03*
Y0301640D02*
D03*
X1189248Y0206842D02*
D03*
Y0212748D02*
D03*
X0934748Y0161998D02*
D03*
Y0156093D02*
D03*
X0922498Y0210248D02*
D03*
Y0204343D02*
D03*
X1023248Y0246592D02*
D03*
Y0252498D02*
D03*
X0993498Y0270592D02*
D03*
Y0276498D02*
D03*
X1012998Y0336498D02*
D03*
Y0330592D02*
D03*
X0974998Y0321592D02*
D03*
Y0327498D02*
D03*
X0645498Y0257498D02*
D03*
Y0251592D02*
D03*
X0869498Y0296342D02*
D03*
Y0302248D02*
D03*
D36*
X0908654Y0127266D02*
D03*
X0916331D02*
D03*
X0913772D02*
D03*
X0906094D02*
D03*
X0911213D02*
D03*
D37*
X0915248Y0116045D02*
D03*
X0907177D02*
D03*
D38*
X0923811Y0126380D02*
D03*
X0898614D02*
D03*
D39*
X0896449Y0116045D02*
D03*
X0925976D02*
D03*
D40*
X0611998Y0150295D02*
D03*
X0594281Y0165295D02*
D03*
Y0155295D02*
D03*
Y0145295D02*
D03*
X0611998Y0170295D02*
D03*
Y0160295D02*
D03*
D41*
X0795248Y0180785D02*
D03*
Y0173305D02*
D03*
Y0159305D02*
D03*
Y0166785D02*
D03*
X0808498Y0198805D02*
D03*
Y0206285D02*
D03*
X0819248Y0173535D02*
D03*
Y0166055D02*
D03*
X0845748Y0172055D02*
D03*
Y0179535D02*
D03*
X0827248Y0190305D02*
D03*
Y0197785D02*
D03*
X0840748Y0144535D02*
D03*
Y0137055D02*
D03*
X0805248Y0153535D02*
D03*
Y0146055D02*
D03*
D42*
X0635663Y0327980D02*
D03*
Y0324043D02*
D03*
Y0320106D02*
D03*
Y0316169D02*
D03*
Y0312232D02*
D03*
Y0308295D02*
D03*
Y0304358D02*
D03*
Y0300421D02*
D03*
Y0296484D02*
D03*
Y0292547D02*
D03*
Y0288610D02*
D03*
Y0284673D02*
D03*
Y0280736D02*
D03*
Y0276799D02*
D03*
Y0272862D02*
D03*
X0620998D02*
D03*
Y0276799D02*
D03*
Y0280736D02*
D03*
Y0284673D02*
D03*
Y0288610D02*
D03*
Y0292547D02*
D03*
Y0296484D02*
D03*
Y0300421D02*
D03*
Y0304358D02*
D03*
Y0308295D02*
D03*
Y0312232D02*
D03*
Y0316169D02*
D03*
Y0320106D02*
D03*
Y0324043D02*
D03*
Y0327980D02*
D03*
D43*
X1185748Y0180045D02*
X1197159Y0168634D01*
X1177248Y0180045D02*
X1185748D01*
X1176498Y0180795D02*
X1177248Y0180045D01*
X0710498Y0271295D02*
X0719498D01*
X0643998Y0204795D02*
X0710498Y0271295D01*
X0644998Y0201545D02*
X0711498Y0268045D01*
Y0268295D01*
X0708998Y0274545D02*
X0714998D01*
X0820431Y0231978D02*
Y0316045D01*
X0818069Y0235116D02*
Y0316045D01*
X0873748Y0241295D02*
Y0306045D01*
X0874762Y0307059D01*
X0905998Y0224295D02*
X0909748Y0220545D01*
X1041451Y0234842D02*
X1041748Y0234545D01*
X1039951Y0234842D02*
X1041451D01*
X1039951D02*
Y0239295D01*
X0984248Y0274795D02*
X0985998Y0276545D01*
X0982498Y0273045D02*
X0984248Y0274795D01*
X1014701Y0269045D02*
Y0271498D01*
X1016248Y0273045D01*
X1014149Y0280894D02*
X1018998Y0276045D01*
X1011399Y0280894D02*
X1014149D01*
X1018998Y0265092D02*
Y0276045D01*
X1006388Y0285906D02*
X1011399Y0280894D01*
X1006998Y0259045D02*
X1009498Y0256545D01*
X1009545D01*
X0794998Y0186295D02*
X0795248Y0186045D01*
Y0180785D02*
Y0186045D01*
X0916331Y0127266D02*
X0917216Y0126380D01*
X0923811D01*
Y0119982D02*
X0925998Y0117795D01*
X0923811Y0119982D02*
Y0126380D01*
X0896498Y0117795D02*
X0898614Y0119911D01*
Y0126380D01*
X0836967Y0310577D02*
X0837998Y0309545D01*
X0836967Y0310577D02*
Y0316045D01*
X0840248Y0274795D02*
Y0307545D01*
X0834604Y0272189D02*
Y0316045D01*
X0831998Y0263795D02*
Y0315801D01*
X0834604Y0272189D02*
X0834998Y0271795D01*
X0844248Y0306545D02*
X0848777Y0311075D01*
X0844248Y0289545D02*
Y0306545D01*
X0848777Y0311075D02*
Y0316045D01*
X0837248Y0265045D02*
Y0303045D01*
X0836998Y0303295D02*
X0837248Y0303045D01*
X0836498Y0264295D02*
X0837248Y0265045D01*
X0690748Y0356545D02*
X0693248D01*
X0689329Y0355126D02*
X0690748Y0356545D01*
X0689329Y0348329D02*
Y0355126D01*
X1188498Y0330045D02*
X1190545Y0327998D01*
X1193248D01*
X1204451D02*
X1204498Y0328045D01*
X1199498Y0327998D02*
X1204451D01*
X1198998Y0301998D02*
Y0306545D01*
X1192748Y0301998D02*
Y0306545D01*
X0823248Y0179295D02*
X0823441Y0179488D01*
X0827069D01*
X0828998Y0184295D02*
X0830612Y0182681D01*
X0827022Y0166055D02*
X0827069Y0166102D01*
X1015545Y0330592D02*
X1022498Y0337545D01*
X1012998Y0330592D02*
X1015545D01*
X0914935Y0182358D02*
X0915748Y0181545D01*
X0914935Y0182358D02*
Y0187785D01*
X0842872Y0348329D02*
Y0353419D01*
X0845248Y0355795D01*
X0845234Y0343309D02*
X0846748Y0341795D01*
X0845234Y0343309D02*
Y0348329D01*
X0934498Y0167545D02*
X0934748Y0167295D01*
Y0161998D02*
Y0167295D01*
Y0132295D02*
Y0156093D01*
X0928201Y0168093D02*
X0928248Y0168140D01*
X0928201Y0163045D02*
Y0168093D01*
X0670748Y0323295D02*
X0671612Y0322431D01*
Y0316045D02*
Y0322431D01*
X0682248Y0323795D02*
X0684998D01*
X0688148Y0320646D01*
Y0316045D02*
Y0320646D01*
X0702248Y0316045D02*
Y0322939D01*
X0709407Y0320955D02*
X0711748Y0323295D01*
X0709407Y0316045D02*
Y0320955D01*
X0717248Y0324295D02*
X0719248D01*
X0723581Y0319963D01*
Y0316045D02*
Y0319963D01*
X0730667Y0312126D02*
X0733748Y0309045D01*
X0730667Y0312126D02*
Y0316045D01*
X0737754Y0310289D02*
Y0316045D01*
Y0310289D02*
X0738748Y0309295D01*
X0743748D01*
X0744840Y0310388D01*
Y0316045D01*
X0759014Y0309780D02*
X0760498Y0308295D01*
X0759014Y0309780D02*
Y0316045D01*
X0766100Y0309152D02*
Y0316045D01*
X0773187Y0309152D02*
Y0316045D01*
X0780274Y0309152D02*
Y0316045D01*
X0787360Y0309152D02*
Y0316045D01*
X0794447Y0309152D02*
Y0316045D01*
X0801533Y0309152D02*
Y0316045D01*
X0808620Y0309152D02*
Y0316045D01*
X0815707Y0309152D02*
Y0316045D01*
X0822793Y0309152D02*
Y0316045D01*
X0829748Y0308295D02*
Y0315913D01*
X0829880Y0316045D01*
X0851248D02*
Y0322939D01*
X0846142D02*
X0851248D01*
X0844053Y0320850D02*
X0846142Y0322939D01*
X0844053Y0316045D02*
Y0320850D01*
X0872248Y0316045D02*
Y0322939D01*
X0879498Y0316045D02*
Y0322939D01*
X0886498Y0316045D02*
Y0322939D01*
X0920214Y0348329D02*
X0920248Y0348295D01*
X0916100Y0348329D02*
X0920214D01*
X0906998Y0338795D02*
X0909014Y0340811D01*
Y0348329D01*
X0901748Y0347545D02*
Y0354439D01*
X0894998Y0347545D02*
Y0354439D01*
X0886498Y0356545D02*
X0887748Y0355295D01*
Y0348295D02*
Y0355295D01*
X0880748Y0348295D02*
Y0355189D01*
X0873498Y0348295D02*
Y0355189D01*
X0656998Y0344295D02*
X0658498Y0342795D01*
X0671748D01*
X0672793Y0343841D01*
Y0348329D01*
X0672748Y0348374D02*
X0672793Y0348329D01*
X0682248Y0349045D02*
Y0355939D01*
X0682242Y0348329D02*
X0682498Y0348585D01*
X0700998Y0355045D02*
Y0355795D01*
Y0355045D02*
X0703502Y0352541D01*
Y0348329D02*
Y0352541D01*
X0713748Y0356045D02*
Y0356295D01*
X0710589Y0352886D02*
X0713748Y0356045D01*
X0710589Y0348329D02*
Y0352886D01*
X0717748Y0348045D02*
Y0354939D01*
X0724748Y0348045D02*
Y0354939D01*
X0731998Y0348045D02*
Y0354939D01*
X0738998Y0348045D02*
Y0354939D01*
X0745998Y0348045D02*
Y0354939D01*
X0752998Y0348045D02*
Y0354939D01*
X0760248Y0348045D02*
Y0354939D01*
X0767248Y0348045D02*
Y0354939D01*
X0774248Y0348045D02*
Y0354939D01*
X0781498Y0348045D02*
Y0354939D01*
X0788498Y0348045D02*
Y0354939D01*
X0795748Y0348045D02*
Y0354939D01*
X0802748Y0348045D02*
Y0354939D01*
X0809748Y0348045D02*
Y0354939D01*
X0816998Y0348295D02*
Y0355189D01*
X0822998Y0341545D02*
X0823974Y0342522D01*
Y0348329D01*
X0832248Y0341795D02*
X0832998D01*
X0831061Y0342982D02*
X0832248Y0341795D01*
X0831061Y0342982D02*
Y0348329D01*
X0838148Y0342396D02*
X0838873Y0341670D01*
X0846623D02*
X0846748Y0341795D01*
X0838873Y0341670D02*
X0846623D01*
X0737815Y0339112D02*
X0898315D01*
X0899565Y0340362D01*
X0838148Y0342396D02*
Y0348329D01*
X0852321D02*
Y0355222D01*
X0868248Y0348295D02*
X0871185D01*
X0871218Y0348329D01*
X0857714D02*
X0857748Y0348295D01*
X0854683Y0348329D02*
X0857714D01*
X0900998Y0135545D02*
X0901201D01*
X0904498Y0138842D01*
X1167045Y0121640D02*
X1171842D01*
X1158748Y0176545D02*
Y0176795D01*
X1139498Y0231045D02*
Y0232795D01*
X1207701Y0200592D02*
X1207998Y0200295D01*
X0821248Y0187545D02*
X0824008Y0190305D01*
X0827248D01*
X0851998Y0198295D02*
X0855498Y0194795D01*
Y0192045D02*
Y0194795D01*
X0789748Y0208295D02*
X0795248D01*
X0781248Y0199795D02*
X0789748Y0208295D01*
X0778748Y0199795D02*
X0781248D01*
X0841998Y0166045D02*
X0844451Y0163593D01*
Y0158545D02*
Y0163593D01*
X0778748Y0199795D02*
Y0200795D01*
X0668498Y0125045D02*
X0669998Y0126545D01*
X0621748Y0133795D02*
Y0139295D01*
X0808503Y0142550D02*
Y0142800D01*
X0803998Y0138045D02*
X0808503Y0142550D01*
X0620998Y0304358D02*
X0635663D01*
X0620998Y0316169D02*
X0635663D01*
X0620998Y0327980D02*
X0635663D01*
X0712951Y0343992D02*
X0713248Y0343694D01*
X0712951Y0343992D02*
Y0348329D01*
X0632015Y0324043D02*
X0635663D01*
X0639311D01*
X0620998D02*
X0624646D01*
X0630947Y0322975D02*
X0632015Y0324043D01*
X0625714Y0322975D02*
X0630947D01*
X0624646Y0324043D02*
X0625714Y0322975D01*
X0635663Y0320106D02*
X0639311D01*
X0630947Y0321175D02*
X0632015Y0320106D01*
X0635663D01*
X0625714Y0321175D02*
X0630947D01*
X0620998Y0320106D02*
X0624646D01*
X0625714Y0321175D01*
X0720037Y0343992D02*
X0720319Y0343711D01*
X0720037Y0343992D02*
Y0348329D01*
X0639311Y0312232D02*
X0639602Y0312523D01*
X0635663Y0312232D02*
X0639311D01*
X0632015D02*
X0635663D01*
X0620998D02*
X0624646D01*
X0630947Y0311164D02*
X0632015Y0312232D01*
X0625714Y0311164D02*
X0630947D01*
X0624646Y0312232D02*
X0625714Y0311164D01*
X0722400Y0343992D02*
Y0348329D01*
X0722119Y0343711D02*
X0722400Y0343992D01*
X0635663Y0308295D02*
X0639311D01*
X0632015D02*
X0635663D01*
X0625714Y0309364D02*
X0630947D01*
X0632015Y0308295D01*
X0624646D02*
X0625714Y0309364D01*
X0620998Y0308295D02*
X0624646D01*
X0727124Y0343992D02*
X0727405Y0343711D01*
X0727124Y0343992D02*
Y0348329D01*
X0639311Y0300421D02*
X0639790Y0299943D01*
X0640350D01*
X0632015Y0300421D02*
X0635663D01*
X0639311D01*
X0620998D02*
X0624646D01*
X0630947Y0299353D02*
X0632015Y0300421D01*
X0625714Y0299353D02*
X0630947D01*
X0624646Y0300421D02*
X0625714Y0299353D01*
X0729486Y0343992D02*
Y0348329D01*
X0729205Y0343711D02*
X0729486Y0343992D01*
X0639311Y0296484D02*
X0640970Y0298143D01*
X0641096D01*
X0632015Y0296484D02*
X0635663D01*
X0639311D01*
X0625714Y0297553D02*
X0630947D01*
X0632015Y0296484D01*
X0624646D02*
X0625714Y0297553D01*
X0620998Y0296484D02*
X0624646D01*
X0620998Y0292547D02*
X0635663D01*
X0620998Y0288610D02*
X0635663D01*
X0620998Y0284673D02*
X0635663D01*
X0620998Y0280736D02*
X0635663D01*
X0620998Y0276799D02*
X0635663D01*
X0892478Y0344276D02*
Y0348329D01*
X0890248Y0342045D02*
X0892478Y0344276D01*
X1040248Y0327545D02*
X1041498Y0326295D01*
X1049748Y0255795D02*
Y0322295D01*
X1041498Y0330545D02*
X1049748Y0322295D01*
X1020748Y0330545D02*
X1041498D01*
X1042498Y0313795D02*
X1044248Y0312045D01*
X1169451Y0224795D02*
X1172248D01*
X1174248Y0226795D01*
X0813344Y0290449D02*
X0813748Y0290045D01*
X0813344Y0290449D02*
Y0316045D01*
X1169451Y0266795D02*
X1173248D01*
X1104998Y0349545D02*
X1115748D01*
X0890116Y0356663D02*
X0890248Y0356795D01*
X0890116Y0348329D02*
Y0356663D01*
X0920998Y0358295D02*
X0921748Y0357545D01*
X0905248Y0358295D02*
X0920998D01*
X0904248Y0357295D02*
X0905248Y0358295D01*
X0906651Y0354199D02*
X0908248Y0355795D01*
X0906651Y0348329D02*
Y0354199D01*
X0904248Y0348370D02*
X0904289Y0348329D01*
X0904248Y0348370D02*
Y0357295D01*
X1171998Y0212795D02*
X1173748Y0214545D01*
X1169451Y0212795D02*
X1171998D01*
X1173248Y0273045D02*
X1173498Y0272795D01*
X1169451Y0273045D02*
X1173248D01*
X1125498Y0163795D02*
X1150123Y0139170D01*
X1171842Y0121640D02*
X1173998Y0123795D01*
Y0133045D01*
X1167873Y0139170D02*
X1173998Y0133045D01*
X1150123Y0139170D02*
X1167873D01*
X1125498Y0163795D02*
Y0217045D01*
X1177748Y0221295D02*
Y0223795D01*
X1183248Y0209795D02*
X1186201Y0212748D01*
X1189248D01*
X1089998Y0198795D02*
X1102998Y0185795D01*
X0805748Y0263545D02*
X0806258Y0264055D01*
Y0316045D01*
X0802998Y0267045D02*
X0803896Y0267943D01*
X1188248Y0219545D02*
X1193248D01*
X1155498Y0186795D02*
X1188248Y0219545D01*
X1147498Y0186795D02*
X1155498D01*
X1187748Y0223045D02*
X1196748D01*
X1161748Y0197045D02*
X1187748Y0223045D01*
X1148998Y0197045D02*
X1161748D01*
X1141998Y0181295D02*
X1147498Y0186795D01*
X1141498Y0181295D02*
X1141998D01*
X1143248Y0191295D02*
X1148998Y0197045D01*
X1141498Y0191295D02*
X1143248D01*
X0840248Y0307545D02*
X0841691Y0308988D01*
X0842498Y0279295D02*
X0843248Y0278545D01*
X0842498Y0279295D02*
Y0307295D01*
X0844248Y0289545D02*
X0844498D01*
X0848498Y0285545D01*
Y0275795D02*
Y0285545D01*
X0841691Y0308988D02*
Y0316045D01*
X0842498Y0307295D02*
X0846415Y0311213D01*
X0853502Y0302045D02*
Y0316045D01*
X0847248Y0306545D02*
X0851140Y0310437D01*
X0847248Y0302045D02*
Y0306545D01*
X0961451Y0217998D02*
X0962998Y0219545D01*
Y0223045D01*
X0846415Y0311213D02*
Y0316045D01*
X0983248Y0183295D02*
Y0202045D01*
X0982002Y0242045D02*
X0995752Y0228295D01*
X0972998Y0242045D02*
X0982002D01*
X0953248Y0261795D02*
X0972998Y0242045D01*
X0953248Y0261795D02*
Y0317545D01*
X1176498Y0173795D02*
Y0180795D01*
X0993748Y0128795D02*
X1011248D01*
X0978998Y0184295D02*
X0979248Y0184545D01*
Y0193295D01*
X0954248Y0196295D02*
X0955045Y0195498D01*
Y0191545D02*
Y0195498D01*
X1148451Y0115545D02*
X1148998Y0116093D01*
Y0123295D01*
X0840248Y0355533D02*
X0840510Y0355272D01*
X0840248Y0355533D02*
Y0356272D01*
X0869498Y0291295D02*
X0869748Y0291045D01*
X0869498Y0291295D02*
Y0296342D01*
X0853295Y0297445D02*
Y0302148D01*
X0847045Y0297695D02*
Y0302398D01*
X0851140Y0310437D02*
Y0316045D01*
X0835498Y0357045D02*
X0835785Y0356758D01*
Y0348329D02*
Y0356758D01*
X1172951Y0115295D02*
X1173451Y0115795D01*
X1176998D01*
X0810982Y0264311D02*
X0812248Y0263045D01*
X0810982Y0264311D02*
Y0316045D01*
X1166951Y0159545D02*
X1172748D01*
X1166951Y0165545D02*
X1172498D01*
X1151498Y0171295D02*
X1157248Y0165545D01*
X1161045D01*
X1151498Y0161295D02*
X1153248Y0159545D01*
X1161045D01*
X1176498Y0186701D02*
X1177242Y0185957D01*
X1185949D01*
X1197159Y0168634D02*
X1198547D01*
X1204837Y0185957D02*
X1204998Y0185795D01*
X1198547Y0185957D02*
X1204837D01*
X1197248Y0160295D02*
X1197498Y0160045D01*
X1192951Y0160295D02*
X1197248D01*
X1185949Y0168634D02*
X1187045Y0167537D01*
X1189248Y0212748D02*
X1193701D01*
X1194969Y0214016D01*
X1197963D01*
X1192451Y0206842D02*
X1193498Y0205795D01*
X1189248Y0206842D02*
X1192451D01*
X1201748Y0200295D02*
X1201795Y0200342D01*
Y0205045D01*
X1197963Y0211457D02*
X1201795Y0207624D01*
Y0205045D02*
Y0207624D01*
X1207701Y0200592D02*
Y0205045D01*
X1206033Y0206713D02*
X1207701Y0205045D01*
X1206033Y0206713D02*
Y0211457D01*
X1210028Y0214016D02*
X1210748Y0213295D01*
X1206033Y0214016D02*
X1210028D01*
X1210468Y0216575D02*
X1210498Y0216545D01*
X1206033Y0216575D02*
X1210468D01*
X1205998Y0222545D02*
X1206033Y0222510D01*
Y0219134D02*
Y0222510D01*
X1194718Y0216575D02*
X1197963D01*
X1193748Y0217545D02*
X1194718Y0216575D01*
X1193748Y0217545D02*
Y0219045D01*
X1193248Y0219545D02*
X1193748Y0219045D01*
X1159498Y0258699D02*
Y0260295D01*
Y0258699D02*
X1163545Y0254651D01*
X1155998Y0258795D02*
X1158498Y0256295D01*
Y0254045D02*
Y0256295D01*
Y0254045D02*
X1159248Y0253295D01*
X1149748Y0267045D02*
X1153623Y0263170D01*
X1155998Y0250342D02*
Y0254795D01*
X1153623Y0257170D02*
X1155998Y0254795D01*
X1153623Y0257170D02*
Y0263170D01*
X1144248Y0267045D02*
X1149748D01*
X1155998Y0250342D02*
X1163545Y0242795D01*
X1159248Y0253295D02*
X1163545Y0248998D01*
X1197963Y0219134D02*
Y0221831D01*
X1196748Y0223045D02*
X1197963Y0221831D01*
X1142545Y0122390D02*
X1142748Y0122592D01*
X1142545Y0115545D02*
Y0122390D01*
X1175248Y0218795D02*
X1177748Y0221295D01*
X1169451Y0218795D02*
X1175248D01*
X1169451Y0230795D02*
Y0236795D01*
Y0242795D01*
Y0248545D01*
Y0254651D01*
Y0260795D01*
X1125498Y0217045D02*
X1139498Y0231045D01*
X1142748Y0223545D02*
Y0244795D01*
X1137890Y0249654D02*
X1142748Y0244795D01*
X1132626Y0301673D02*
X1137890D01*
X1122998Y0292045D02*
X1132626Y0301673D01*
X1122998Y0160545D02*
Y0292045D01*
Y0160545D02*
X1128498Y0155045D01*
Y0118795D02*
Y0155045D01*
Y0118795D02*
X1131398Y0115896D01*
X1135248D01*
X1135598Y0115545D01*
X1142545D01*
X1161045Y0227295D02*
X1163545Y0224795D01*
X1157998Y0227295D02*
X1161045D01*
X1153498Y0212795D02*
X1163545D01*
X1142748Y0223545D02*
X1153498Y0212795D01*
X1137890Y0249654D02*
Y0251673D01*
X1156748Y0218795D02*
X1163545D01*
X1153998Y0221545D02*
X1156748Y0218795D01*
X1153998Y0221545D02*
Y0242795D01*
X1147890Y0248903D02*
X1153998Y0242795D01*
X1147890Y0248903D02*
Y0251673D01*
X1153498Y0246843D02*
Y0253545D01*
Y0246843D02*
X1163545Y0236795D01*
X1150248Y0256795D02*
X1153498Y0253545D01*
X1144748Y0256795D02*
X1150248D01*
X1139870Y0261673D02*
X1144748Y0256795D01*
X1137890Y0261673D02*
X1139870D01*
X1139620Y0271673D02*
X1144248Y0267045D01*
X1137890Y0271673D02*
X1139620D01*
X1163545Y0248545D02*
Y0248998D01*
X1162748Y0266795D02*
X1163545D01*
X1138376Y0281673D02*
X1143248Y0286545D01*
X1137890Y0281673D02*
X1138376D01*
X1162998Y0288843D02*
X1169498D01*
X1175998Y0260795D02*
Y0276545D01*
X1173248Y0279295D02*
X1175998Y0276545D01*
X1169451Y0279295D02*
X1173248D01*
X0888976Y0291746D02*
Y0296449D01*
X0882189Y0291746D02*
Y0296449D01*
X1034045Y0236748D02*
X1036748Y0234045D01*
X1034045Y0236748D02*
Y0239295D01*
X1034045Y0239295D01*
Y0245045D01*
X1043498Y0254545D02*
X1045498Y0256545D01*
X1041228Y0254545D02*
X1043498D01*
X1039829Y0253146D02*
X1041228Y0254545D01*
X1036998Y0248545D02*
X1039951Y0245592D01*
Y0245045D02*
Y0245592D01*
X0643248Y0246295D02*
X0645498Y0248545D01*
Y0251592D01*
X0642250Y0292547D02*
X0642498Y0292795D01*
X0630998Y0252795D02*
X0635951Y0257748D01*
X0639248D01*
X0621998Y0231295D02*
X0622248Y0231545D01*
X0627748D01*
X0620998Y0237795D02*
X0621248Y0238045D01*
X0627795D01*
X0633701D02*
X0635451Y0239795D01*
X0633653Y0231545D02*
X0636404Y0234295D01*
X0642248D01*
X0655998Y0248045D01*
Y0271545D01*
X0646748Y0280795D02*
X0655998Y0271545D01*
X0642248Y0280795D02*
X0646748D01*
X0635451Y0239795D02*
X0642498D01*
X0653248Y0250545D01*
Y0269295D01*
X0645748Y0276795D02*
X0653248Y0269295D01*
X0642248Y0276795D02*
X0645748D01*
X0961451Y0213045D02*
Y0217998D01*
X0949248Y0202045D02*
X0949748Y0201545D01*
X0954795D01*
X1018953Y0319340D02*
X1021498Y0316795D01*
X0976998Y0313545D02*
X0979077Y0311467D01*
X1018498Y0284045D02*
X1028498Y0274045D01*
X1030295D01*
X1013248Y0284045D02*
X1018498D01*
X0953248Y0317545D02*
X0966248Y0330545D01*
X1049748Y0255795D02*
X1051248Y0254295D01*
Y0231295D02*
Y0254295D01*
X1042998Y0223045D02*
X1051248Y0231295D01*
X1046998Y0252545D02*
X1047498Y0252045D01*
Y0248498D02*
Y0252045D01*
Y0242593D02*
X1047748Y0242342D01*
Y0235545D02*
Y0242342D01*
X1040498Y0228295D02*
X1047748Y0235545D01*
X1033744Y0228295D02*
X1040498D01*
X1023744D02*
X1028994Y0223045D01*
X1042998D01*
X1003748Y0328795D02*
X1004419Y0328124D01*
Y0323770D02*
Y0328124D01*
X0950498Y0211295D02*
X0952248Y0213045D01*
X0955295D01*
X0997248Y0331545D02*
X1005748D01*
X1006388Y0330906D01*
Y0323770D02*
Y0330906D01*
X1015451Y0254592D02*
X1018248Y0251795D01*
X1015451Y0254592D02*
Y0256545D01*
X1009545Y0253998D02*
X1013998Y0249545D01*
X1009545Y0253998D02*
Y0256545D01*
X0968748Y0255295D02*
X0973295D01*
X0914919Y0309295D02*
Y0316045D01*
X0905998Y0300374D02*
X0914919Y0309295D01*
X0905998Y0224295D02*
Y0300374D01*
X0874762Y0307059D02*
Y0316045D01*
X1039951Y0279795D02*
X1044248D01*
X1027998D02*
X1034045D01*
X1021998Y0285795D02*
X1027998Y0279795D01*
X1013498Y0285795D02*
X1021998D01*
X1012293Y0287000D02*
X1013498Y0285795D01*
X1012293Y0287000D02*
Y0289321D01*
X1041498Y0274045D02*
X1041748Y0273795D01*
X1036201Y0274045D02*
X1041498D01*
X1010325Y0286968D02*
X1013248Y0284045D01*
X1010325Y0286968D02*
Y0289321D01*
X1015498Y0282295D02*
X1021498Y0276295D01*
Y0268498D02*
Y0276295D01*
Y0268498D02*
X1023248Y0266748D01*
X1045201Y0263092D02*
X1046748Y0261545D01*
X1045201Y0263092D02*
Y0267045D01*
X1018248Y0246045D02*
X1018795Y0246592D01*
X1023248D01*
X1030520Y0252498D02*
X1031167Y0253146D01*
X1023248Y0252498D02*
X1030520D01*
X1023248D02*
Y0260842D01*
X1031167Y0263965D02*
X1031248Y0264045D01*
X1031167Y0259445D02*
Y0263965D01*
X1039295Y0259978D02*
X1039829Y0259445D01*
X1039295Y0259978D02*
Y0267045D01*
X1023248Y0266748D02*
X1023545Y0267045D01*
X1039295D01*
X1012498Y0282295D02*
X1015498D01*
X1008356Y0286437D02*
X1012498Y0282295D01*
X1008356Y0286437D02*
Y0289321D01*
X1018998Y0265092D02*
X1023248Y0260842D01*
X1006388Y0285906D02*
Y0289321D01*
X1000482Y0281561D02*
X1006248Y0275795D01*
X1000482Y0281561D02*
Y0289321D01*
X1014701Y0263045D02*
X1015451Y0262295D01*
Y0256545D02*
Y0262295D01*
X1027701Y0241998D02*
X1028748Y0243045D01*
X1027701Y0239295D02*
Y0241998D01*
X1004498Y0239545D02*
X1007998Y0243045D01*
X1004295Y0239545D02*
X1004498D01*
X1000701Y0249998D02*
X1001248Y0250545D01*
X1000701Y0246295D02*
Y0249998D01*
X0972248Y0246795D02*
X0972748Y0246295D01*
X0977545D01*
X0993045Y0264092D02*
X0998498Y0269545D01*
X0993045Y0264045D02*
Y0264092D01*
X0994795Y0270592D02*
X0997998Y0273795D01*
X0993498Y0270592D02*
X0994795D01*
X0998498Y0253045D02*
X0998951Y0253498D01*
Y0257795D01*
X0993498Y0276498D02*
Y0280545D01*
X0994577Y0281124D02*
Y0289321D01*
X0980201Y0282498D02*
Y0284343D01*
Y0281045D02*
Y0282498D01*
X0979248Y0285295D02*
X0980201Y0284343D01*
X0968498Y0271295D02*
X0970248Y0273045D01*
X0974295D01*
X0980201D02*
X0982498D01*
X0985998Y0276545D02*
Y0283545D01*
X0988671Y0286219D01*
Y0289321D01*
X0956248Y0276545D02*
X0962045D01*
X0967951D02*
X0968451Y0277045D01*
X0982248D01*
X0983998Y0278795D01*
Y0284045D01*
X0986703Y0286750D01*
Y0289321D01*
X0984734Y0287032D02*
Y0289321D01*
X0980201Y0282498D02*
X0984734Y0287032D01*
X0974295Y0284842D02*
X0974748Y0285295D01*
X0974295Y0281045D02*
Y0284842D01*
X0956248Y0284295D02*
X0956498Y0284545D01*
X0962795D01*
X0968701D02*
Y0290045D01*
X0957498D02*
X0962795D01*
X0968701D02*
X0974998D01*
X0976734Y0291781D01*
X0982274D01*
X0968701Y0295545D02*
X0968874Y0295719D01*
X0982274D01*
X0977498Y0298295D02*
X0978858Y0299656D01*
X0982274D01*
X0961498Y0302045D02*
X0961748Y0301795D01*
X0967093D01*
X0972998D02*
X0975998D01*
X0979764Y0305561D01*
X0982274D01*
X0977748Y0308045D02*
X0978498D01*
X0972951D02*
X0977748D01*
X0982258Y0307545D02*
X0982274Y0307529D01*
X0978998Y0307545D02*
X0982258D01*
X0978498Y0308045D02*
X0978998Y0307545D01*
X0977748Y0308045D02*
X0979201Y0309498D01*
X0982274D01*
X0961248Y0308045D02*
X0967045D01*
X0961498Y0313545D02*
X0967045D01*
X0972951D02*
X0976998D01*
X0979077Y0311467D02*
X0982274D01*
X0969498Y0327545D02*
X0969545Y0327498D01*
X0974998D01*
X0969498Y0321295D02*
X0969795Y0321592D01*
X0974998D01*
X0977250Y0319340D01*
X0982274D01*
X0974998Y0327498D02*
X0978498Y0323998D01*
Y0322795D02*
Y0323998D01*
Y0322795D02*
X0979984Y0321309D01*
X0982274D01*
X0969998Y0337045D02*
X0974295D01*
X0978998Y0335842D02*
X0980201Y0337045D01*
X0978998Y0328795D02*
Y0335842D01*
Y0328795D02*
X0980248Y0327545D01*
X0991498D01*
X0992608Y0326435D01*
Y0323770D02*
Y0326435D01*
X0988701Y0331295D02*
X0991748D01*
X0994577Y0328467D01*
Y0323770D02*
Y0328467D01*
X1015451Y0336498D02*
X1017498Y0338545D01*
X1012998Y0336498D02*
X1015451D01*
X1010325Y0327919D02*
X1012998Y0330592D01*
X1010325Y0323770D02*
Y0327919D01*
X1043998Y0292795D02*
X1044248Y0293045D01*
X1038951Y0292795D02*
X1043998D01*
X1026295Y0299545D02*
X1033045Y0292795D01*
X1026045Y0299545D02*
X1026295D01*
X1036748Y0322295D02*
X1036998Y0322545D01*
X1031951Y0322295D02*
X1036748D01*
X1026045Y0316795D02*
Y0322295D01*
X1036748Y0316795D02*
X1036998Y0317045D01*
X1031951Y0316795D02*
X1036748D01*
X1036498Y0310795D02*
X1037248Y0310045D01*
X1031701Y0310795D02*
X1036498D01*
X1025795Y0311248D02*
Y0311593D01*
Y0310795D02*
Y0311248D01*
X1021498Y0316795D02*
X1026045D01*
X1016722Y0319340D02*
X1018953D01*
X1016722Y0313435D02*
X1019388D01*
X1021169Y0311467D02*
X1021248Y0311545D01*
X1016722Y0311467D02*
X1021169D01*
X0904498Y0144748D02*
X0905951Y0143295D01*
X0909498D01*
X0796809Y0232234D02*
X0800248Y0228795D01*
X0796809Y0232234D02*
Y0316045D01*
X0803896Y0267943D02*
Y0316045D01*
X0719498Y0271295D02*
X0719998Y0271795D01*
X0614498Y0263045D02*
X0639248D01*
X0610248Y0267295D02*
X0614498Y0263045D01*
X0610248Y0267295D02*
Y0318295D01*
X0607998Y0320545D02*
X0610248Y0318295D01*
X0597998Y0320545D02*
X0607998D01*
X0593248Y0325295D02*
X0597998Y0320545D01*
X0615998Y0267045D02*
X0639248D01*
X0613498Y0269545D02*
X0615998Y0267045D01*
X0613498Y0269545D02*
Y0322545D01*
X0610748Y0325295D02*
X0613498Y0322545D01*
X0603248Y0325295D02*
X0610748D01*
X0635728Y0288545D02*
X0642498D01*
X0642126Y0284673D02*
X0642248Y0284795D01*
X0642189Y0280736D02*
X0642248Y0280795D01*
X0635663Y0288610D02*
X0635728Y0288545D01*
X0626701Y0245795D02*
X0632451D01*
X0615748D02*
X0620795D01*
X0606248Y0255295D02*
X0615748Y0245795D01*
X0603248Y0255295D02*
X0606248D01*
X0877124Y0250419D02*
Y0316045D01*
Y0250419D02*
X0877498Y0250045D01*
X0825156Y0303953D02*
Y0316045D01*
X0823748Y0302545D02*
X0825156Y0303953D01*
X0823748Y0253795D02*
Y0302545D01*
Y0253795D02*
X0825248Y0252295D01*
Y0246545D02*
Y0252295D01*
X0827248Y0315776D02*
X0827518Y0316045D01*
X0827248Y0255795D02*
Y0315776D01*
X0831998Y0315801D02*
X0832242Y0316045D01*
X0817748Y0234795D02*
X0818069Y0235116D01*
X0819998Y0231545D02*
X0820431Y0231978D01*
X0666653Y0207045D02*
X0666701Y0206998D01*
X0654748Y0206045D02*
X0655748Y0207045D01*
X0660295Y0200045D02*
X0660795Y0200545D01*
X0714248Y0278545D02*
X0714748Y0279045D01*
X0706498Y0278545D02*
X0714248D01*
X0760748Y0323545D02*
X0762498Y0321795D01*
X0770248Y0323795D02*
X0839248D01*
X0769998Y0324045D02*
X0770248Y0323795D01*
X0765748Y0326295D02*
X0828998D01*
X0765498Y0326045D02*
X0765748Y0326295D01*
X0748748Y0329045D02*
X0825248D01*
X0742748Y0323045D02*
X0748748Y0329045D01*
X0825248D02*
X0825748Y0328545D01*
X0762498Y0321795D02*
X0840998D01*
X0737248Y0322795D02*
Y0324045D01*
X0840998Y0321795D02*
X0843248Y0324045D01*
X0839248Y0323795D02*
X0840998Y0325545D01*
Y0327295D01*
X0828998Y0326295D02*
X0829248Y0326545D01*
X0840510Y0348329D02*
Y0355272D01*
X0828699Y0348329D02*
Y0357246D01*
X0828998Y0357545D01*
X0826248Y0348417D02*
Y0355295D01*
X0621998Y0163295D02*
Y0188795D01*
X0598248Y0155295D02*
X0602748Y0159795D01*
X0594281Y0155295D02*
X0598248D01*
X0826248Y0348417D02*
X0826337Y0348329D01*
X0727748Y0329045D02*
X0737815Y0339112D01*
X0618998Y0160295D02*
X0621998Y0163295D01*
X0611998Y0160295D02*
X0618998D01*
X0635663Y0292547D02*
X0642250D01*
X0639951Y0114093D02*
X0639998Y0114045D01*
X0634248Y0114093D02*
X0639951D01*
X0633845Y0119595D02*
X0634248Y0119998D01*
X0627248Y0119595D02*
X0633845D01*
X0621498Y0113295D02*
X0627248D01*
X0621498D02*
Y0113545D01*
X0927094Y0149449D02*
X0927248Y0149295D01*
X0924216Y0149449D02*
X0927094D01*
X0927748Y0142545D02*
X0930998Y0139295D01*
X0925951Y0142545D02*
X0927748D01*
X0927701Y0204343D02*
X0927748Y0204295D01*
X0922498Y0204343D02*
X0927701D01*
X0907061Y0202611D02*
Y0205305D01*
Y0202611D02*
X0908627Y0201045D01*
X0919201D01*
X0922498Y0204343D01*
X0927451Y0210248D02*
X0927498Y0210295D01*
X0922498Y0210248D02*
X0927451D01*
X0915951D02*
X0922498D01*
X0914935Y0209232D02*
X0915951Y0210248D01*
X0914935Y0205305D02*
Y0209232D01*
X0635663Y0284673D02*
X0642126D01*
X0897203Y0342250D02*
Y0348329D01*
X0896748Y0341795D02*
X0897203Y0342250D01*
X0899565Y0340362D02*
Y0348329D01*
X0635663Y0280736D02*
X0642189D01*
X0732248Y0324045D02*
X0742248Y0334045D01*
X0907998D01*
X0911376Y0337423D01*
Y0348329D01*
X0642244Y0276799D02*
X0642248Y0276795D01*
X0635663Y0276799D02*
X0642244D01*
X0900748Y0163045D02*
X0901498Y0162295D01*
X0882748Y0132701D02*
X0887842D01*
X0887998Y0132545D01*
X0893498Y0158142D02*
X0895844D01*
X0900748Y0163045D01*
X0891529Y0144529D02*
Y0151449D01*
X0891295Y0144295D02*
X0891529Y0144529D01*
X0885045Y0138045D02*
X0891295Y0144295D01*
X0881248Y0138045D02*
X0885045D01*
X0897201Y0140093D02*
Y0144295D01*
X0904498Y0144748D02*
Y0146795D01*
X0903529Y0147764D02*
X0904498Y0146795D01*
X0903529Y0147764D02*
Y0151449D01*
X0907467Y0149827D02*
Y0151449D01*
Y0149827D02*
X0909248Y0148045D01*
X0895467Y0151449D02*
X0899498D01*
Y0148795D02*
X0900498Y0147795D01*
X0885848Y0114146D02*
X0888748Y0117045D01*
X0882748Y0114146D02*
X0885848D01*
X0899498Y0152142D02*
X0905498Y0158142D01*
X0831498Y0172795D02*
X0832238Y0172055D01*
X0830612Y0166102D02*
Y0171909D01*
X0831498Y0172795D01*
X0832384Y0173681D02*
Y0179488D01*
X0831498Y0172795D02*
X0832384Y0173681D01*
X0827752Y0152045D02*
X0828841Y0153134D01*
X0835927Y0161163D02*
Y0166102D01*
Y0161163D02*
X0838545Y0158545D01*
Y0152795D02*
Y0158545D01*
Y0152795D02*
X0838795Y0152545D01*
X0844701D02*
X0849748D01*
X0841752Y0198295D02*
X0851998D01*
X0840998Y0199049D02*
X0841752Y0198295D01*
X0830612Y0179488D02*
Y0182681D01*
X0832384Y0160659D02*
X0833498Y0159545D01*
X0832384Y0160659D02*
Y0166102D01*
X0870037Y0301795D02*
Y0316045D01*
X0851045Y0318372D02*
X0851140Y0316045D01*
X0639311Y0324043D02*
X0640380Y0322975D01*
X0713248Y0342295D02*
Y0343694D01*
X0639311Y0320106D02*
X0640380Y0321175D01*
X0715313Y0341815D02*
Y0348329D01*
X0640380Y0322975D02*
X0641248D01*
X0640380Y0321175D02*
X0641994D01*
X0641248Y0322975D02*
X0659318Y0341045D01*
X0641994Y0321175D02*
X0660064Y0339245D01*
X0659318Y0341045D02*
X0711998D01*
X0660064Y0339245D02*
X0712744D01*
X0711998Y0341045D02*
X0713248Y0342295D01*
X0712744Y0339245D02*
X0715313Y0341815D01*
X0640350Y0299943D02*
X0669452Y0329045D01*
X0641096Y0298143D02*
X0670198Y0327245D01*
X0669452Y0329045D02*
X0718498D01*
X0670198Y0327245D02*
X0719244D01*
X0718498Y0329045D02*
X0727405Y0337952D01*
X0719244Y0327245D02*
X0729205Y0337207D01*
X0727405Y0337952D02*
Y0343711D01*
X0729205Y0337207D02*
Y0343711D01*
X0639311Y0308295D02*
X0642061Y0311045D01*
X0639602Y0312523D02*
X0642061D01*
Y0311045D02*
X0644294D01*
X0642061Y0312523D02*
X0643225D01*
X0644294Y0311045D02*
X0659544Y0326295D01*
X0643225Y0312523D02*
X0658798Y0328095D01*
X0659544Y0326295D02*
X0663748D01*
X0658798Y0328095D02*
X0663002D01*
X0663748Y0326295D02*
X0670448Y0332995D01*
X0663002Y0328095D02*
X0669702Y0334795D01*
X0670448Y0332995D02*
X0715064D01*
X0669702Y0334795D02*
X0714319D01*
X0715064Y0332995D02*
X0722119Y0340050D01*
X0714319Y0334795D02*
X0720319Y0340795D01*
X0722119Y0340050D02*
Y0343711D01*
X0720319Y0340795D02*
Y0343711D01*
X0680998Y0316045D02*
Y0322545D01*
X0682248Y0323795D01*
X0611998Y0170295D02*
Y0176295D01*
X0618748Y0183045D01*
X0602748Y0159795D02*
Y0172795D01*
X0615748Y0185795D01*
X0594281Y0168329D02*
X0613498Y0187545D01*
Y0191045D01*
X0594281Y0165295D02*
Y0168329D01*
X0615748Y0185795D02*
Y0189545D01*
X0618748Y0183045D02*
Y0189045D01*
X0613498Y0191045D02*
X0632998Y0210545D01*
X0638498D01*
X0706498Y0278545D01*
X0615748Y0189545D02*
X0633998Y0207795D01*
X0642248D01*
X0708998Y0274545D01*
X0618748Y0189045D02*
X0634498Y0204795D01*
X0643998D01*
X0621998Y0188795D02*
X0634748Y0201545D01*
X0644998D01*
X0729748Y0326295D02*
X0740248Y0336795D01*
X0894998D01*
X0737248Y0324045D02*
X0744748Y0331545D01*
X0909498D01*
X0913738Y0335785D01*
Y0348329D01*
X0881848Y0302898D02*
X0882392Y0302354D01*
X0881848Y0302898D02*
Y0316045D01*
X0884211Y0307323D02*
Y0316045D01*
Y0307323D02*
X0889179Y0302354D01*
X0878248Y0130795D02*
Y0135045D01*
X0881248Y0138045D01*
X0861748Y0121545D02*
X0866748Y0126545D01*
X0873998D01*
X0878248Y0130795D01*
X0888748Y0117045D02*
Y0127295D01*
X0900498Y0139045D01*
Y0147795D01*
X0899498Y0148795D02*
Y0151449D01*
Y0152142D01*
X0982795Y0331295D02*
X0985498Y0333998D01*
Y0335795D01*
X1041498Y0312795D02*
X1042498Y0313795D01*
X1041498Y0312795D02*
Y0326295D01*
X1027770Y0313567D02*
X1040726D01*
X1025795Y0311593D02*
X1027770Y0313567D01*
X1040726D02*
X1041498Y0312795D01*
X1019388Y0313435D02*
X1020248Y0314295D01*
X1022748D01*
X1025795Y0311248D01*
X1014748Y0275295D02*
Y0276295D01*
X1006248Y0271795D02*
Y0275795D01*
Y0271795D02*
X1008748Y0269295D01*
X1014748Y0275295D01*
X0958498Y0298545D02*
X0959795D01*
X0962795Y0295545D01*
X1137890Y0291673D02*
Y0293437D01*
X1140998Y0296545D01*
X1158998Y0286795D02*
X1163545Y0282248D01*
Y0279295D02*
Y0282248D01*
X1149370Y0291673D02*
X1159998Y0281045D01*
Y0276592D02*
Y0281045D01*
Y0276592D02*
X1163545Y0273045D01*
X1147890Y0291673D02*
X1149370D01*
X1140998Y0296545D02*
X1150998D01*
X1158998Y0288545D01*
Y0286795D02*
Y0288545D01*
X1147890Y0281673D02*
X1154498Y0275065D01*
X1143248Y0286545D02*
X1149998D01*
X1157248Y0272295D02*
X1162748Y0266795D01*
X1157248Y0272295D02*
Y0279295D01*
X1149998Y0286545D02*
X1157248Y0279295D01*
X1147890Y0271673D02*
X1149120D01*
X1155998Y0264795D01*
Y0258795D02*
Y0264795D01*
X1154498Y0271045D02*
Y0275065D01*
Y0271045D02*
X1159498Y0266045D01*
Y0260295D02*
Y0266045D01*
X1161045Y0227295D02*
X1163545Y0229795D01*
Y0230795D01*
X1169451D02*
X1177998D01*
X1177748Y0231045D02*
X1177998Y0230795D01*
X1186998Y0199045D02*
X1190201Y0195843D01*
Y0194795D02*
Y0195843D01*
X1184295Y0187610D02*
X1185949Y0185957D01*
X1184295Y0187610D02*
Y0194795D01*
X1158748Y0176795D02*
X1180998Y0199045D01*
X1186998D01*
X1014248Y0198795D02*
X1089998D01*
X1014498Y0202295D02*
X1109748D01*
X0995498Y0217545D02*
X1014248Y0198795D01*
X0996748Y0220045D02*
X1014498Y0202295D01*
X0982248Y0217545D02*
X0995498D01*
X0983998Y0220045D02*
X0996748D01*
X0977998Y0221795D02*
X0982248Y0217545D01*
X0980748Y0223295D02*
X0983998Y0220045D01*
X0974998Y0236795D02*
X0977998Y0233795D01*
Y0221795D02*
Y0233795D01*
X0976748Y0239795D02*
X0980748Y0235795D01*
Y0223295D02*
Y0235795D01*
X0945748Y0282045D02*
X0946748Y0283045D01*
X0945748Y0260545D02*
Y0282045D01*
Y0260545D02*
X0969498Y0236795D01*
X0974998D01*
X0948998Y0261795D02*
Y0286795D01*
Y0261795D02*
X0970998Y0239795D01*
X0976748D01*
D44*
X0712748Y0299246D02*
X0721273D01*
X0708494D02*
X0712748D01*
Y0292795D02*
Y0299246D01*
X0716260Y0301545D02*
X0722225D01*
X0710295D02*
X0716260D01*
X0716248Y0306545D02*
X0716260Y0306533D01*
Y0301545D02*
Y0306533D01*
X0701547Y0284642D02*
X0703248Y0286343D01*
X0701547Y0279843D02*
Y0284642D01*
X0700874Y0279170D02*
X0701547Y0279843D01*
X0700874Y0279170D02*
Y0279170D01*
X0698750Y0277045D02*
X0700874Y0279170D01*
X0608250Y0190545D02*
X0694750Y0277045D01*
X0698750D01*
X0597998Y0190545D02*
X0608250D01*
X0593248Y0195295D02*
X0597998Y0190545D01*
X0696498Y0286343D02*
X0699248Y0283593D01*
Y0280795D02*
Y0283593D01*
X0697797Y0279345D02*
X0699248Y0280795D01*
X0693797Y0279345D02*
X0697797D01*
X0608498Y0194045D02*
X0693797Y0279345D01*
X0604498Y0194045D02*
X0608498D01*
X0603248Y0195295D02*
X0604498Y0194045D01*
X0702498Y0299295D02*
X0703248Y0298545D01*
Y0292248D02*
Y0298545D01*
X0696498Y0292248D02*
Y0299295D01*
X0700248Y0303045D01*
X0705295D01*
X0708445Y0355795D02*
X0708795D01*
X0708226Y0348329D02*
Y0352915D01*
X0708748Y0302998D02*
X0708795Y0303045D01*
X0726773Y0294473D02*
X0728998Y0292248D01*
X0722225Y0301545D02*
X0726773Y0296998D01*
X0708795Y0303045D02*
X0710295Y0301545D01*
X0726773Y0294473D02*
Y0296998D01*
X0708195Y0352947D02*
Y0355545D01*
X0708445Y0355795D01*
X0708195Y0352947D02*
X0708226Y0352915D01*
X0705864D02*
X0705896Y0352947D01*
Y0355545D01*
X0705864Y0348329D02*
Y0352915D01*
X0721273Y0299246D02*
X0724473Y0296045D01*
Y0294473D02*
Y0296045D01*
X0722248Y0292248D02*
X0724473Y0294473D01*
X0705646Y0355795D02*
X0705896Y0355545D01*
X0705295Y0355795D02*
X0705646D01*
X0705295Y0302445D02*
X0708494Y0299246D01*
X0705295Y0302445D02*
Y0303045D01*
X0897364Y0222045D02*
X0908864Y0210545D01*
Y0208777D02*
Y0210545D01*
X0730383Y0241681D02*
X0750018Y0222045D01*
X0897364D01*
X0909029Y0205305D02*
Y0208612D01*
X0908864Y0208777D02*
X0909029Y0208612D01*
X0722248Y0286343D02*
X0724964Y0283626D01*
Y0282545D02*
Y0283626D01*
Y0247099D02*
Y0277045D01*
X1010748Y0278045D02*
Y0278394D01*
X1010498Y0277795D02*
X1010748Y0278045D01*
X1024640Y0291616D02*
X1025248Y0291008D01*
X1019407Y0291616D02*
X1024640D01*
X1016722Y0291781D02*
X1019242D01*
X1019407Y0291616D01*
X0953827Y0160581D02*
X0967944D01*
X0951039Y0157793D02*
X0953827Y0160581D01*
X1004419Y0283874D02*
Y0289321D01*
Y0283874D02*
X1010824Y0277470D01*
X1002451Y0282591D02*
X1009198Y0275844D01*
Y0274995D02*
Y0275844D01*
X1002451Y0282591D02*
Y0289321D01*
X0907061Y0168003D02*
X0912383Y0162680D01*
X0907061Y0168003D02*
Y0187785D01*
X0908654Y0127266D02*
Y0134180D01*
X0912383Y0137910D02*
Y0162680D01*
X0908654Y0134180D02*
X0912383Y0137910D01*
X0967944Y0160581D02*
X0970998Y0163635D01*
Y0174262D01*
D45*
X0911148Y0208746D02*
Y0211491D01*
X0910998Y0208597D02*
X0911148Y0208746D01*
X0898310Y0224329D02*
X0911148Y0211491D01*
X0910998Y0205305D02*
Y0208597D01*
X0727248Y0284593D02*
X0728998Y0286343D01*
X0727248Y0248045D02*
Y0284593D01*
X0750964Y0224329D02*
X0898310D01*
X0727248Y0248045D02*
X0750964Y0224329D01*
X0724964Y0247099D02*
X0730383Y0241681D01*
X0724964Y0277045D02*
Y0282545D01*
X0973248Y0229045D02*
X0974248D01*
X0971498Y0231545D02*
X0971644Y0231399D01*
X1024640Y0293900D02*
X1025248Y0294508D01*
X1019376Y0293900D02*
X1024640D01*
X1019226Y0293750D02*
X1019376Y0293900D01*
X1016722Y0293750D02*
X1019226D01*
X0953842Y0162864D02*
X0966998D01*
X0951039Y0165667D02*
X0953842Y0162864D01*
X0970998Y0226795D02*
X0973248Y0229045D01*
X0971644Y0230649D02*
Y0231399D01*
X0968730Y0227735D02*
X0971644Y0230649D01*
X0965187Y0231235D02*
X0966059D01*
X0964278Y0230326D02*
X0965187Y0231235D01*
X0963968Y0230326D02*
X0964278D01*
X0937938Y0204295D02*
X0963968Y0230326D01*
X0937938Y0204295D02*
X0940748Y0201485D01*
X0930188Y0196545D02*
X0937938Y0204295D01*
X0940748Y0200045D02*
Y0201485D01*
X0915998Y0196545D02*
X0930188D01*
X0912967Y0187785D02*
Y0193514D01*
X0915998Y0196545D01*
X0963584Y0233149D02*
Y0233710D01*
X0936739Y0206304D02*
X0963584Y0233149D01*
X0933498Y0209795D02*
X0936739Y0206554D01*
Y0206304D02*
Y0206554D01*
X0929248Y0198813D02*
X0936739Y0206304D01*
X0915059Y0198813D02*
X0929248D01*
X0910998Y0194753D02*
X0915059Y0198813D01*
X0910998Y0187785D02*
Y0194753D01*
X0909029Y0169264D02*
X0914667Y0163626D01*
X0909029Y0169264D02*
Y0187785D01*
X0911213Y0127266D02*
Y0133510D01*
X0914667Y0136964D02*
Y0163626D01*
X0911213Y0133510D02*
X0914667Y0136964D01*
X0970998Y0174262D02*
Y0226795D01*
X0966998Y0162864D02*
X0968730Y0164596D01*
Y0227735D01*
D46*
X0987974Y0262295D02*
Y0282522D01*
Y0246045D02*
Y0262295D01*
X0984201D02*
X0987974D01*
X1004248Y0254545D02*
X1017498Y0241295D01*
X1002460Y0253805D02*
X1015710Y0240555D01*
X1004248Y0263045D02*
Y0274324D01*
Y0254545D02*
Y0263045D01*
X1008795D01*
X1017498Y0239545D02*
Y0241295D01*
Y0227795D02*
Y0239545D01*
X1021545D02*
X1021795Y0239295D01*
X1017498Y0239545D02*
X1021545D01*
X1015710D02*
Y0240555D01*
Y0227055D02*
Y0239545D01*
X1010201D02*
X1015710D01*
X0987974Y0244069D02*
Y0246045D01*
X0983451Y0246295D02*
X0983701Y0246045D01*
X0987974D01*
X0989762Y0246295D02*
Y0257795D01*
Y0244810D02*
Y0246295D01*
X0994795D01*
X0989762Y0257795D02*
Y0281781D01*
Y0257795D02*
X0993045D01*
X1002460Y0264045D02*
Y0273583D01*
Y0253805D02*
Y0264045D01*
X0998951D02*
X1002460D01*
X0996545Y0279498D02*
X1002460Y0273583D01*
X0998514Y0280058D02*
X1004248Y0274324D01*
X1003536Y0221786D02*
Y0231036D01*
X0989762Y0244810D02*
X1003536Y0231036D01*
X1001748Y0221045D02*
Y0230295D01*
X0987974Y0244069D02*
X1001748Y0230295D01*
X1003536Y0221786D02*
X1012027Y0213295D01*
X1001748Y0221045D02*
X1011286Y0211507D01*
X1017498Y0227795D02*
X1023394Y0221899D01*
X1025277Y0218295D02*
X1025732D01*
X1023394Y0220178D02*
Y0221899D01*
Y0220178D02*
X1025277Y0218295D01*
X0998514Y0280058D02*
Y0289321D01*
X1015710Y0227055D02*
X1021748Y0221016D01*
Y0216295D02*
Y0221016D01*
X1026998Y0214045D02*
X1029728Y0211315D01*
Y0208295D02*
Y0211315D01*
X1021748Y0216295D02*
X1023998Y0214045D01*
X1026998D01*
X0996545Y0279498D02*
Y0289321D01*
X1018524Y0211507D02*
X1021736Y0208295D01*
X1011286Y0211507D02*
X1018524D01*
X0990640Y0285187D02*
Y0289321D01*
X0987974Y0282522D02*
X0990640Y0285187D01*
X1017740Y0215037D02*
Y0218295D01*
X1015998Y0213295D02*
X1017740Y0215037D01*
X1012027Y0213295D02*
X1015998D01*
X0992608Y0284627D02*
Y0289321D01*
X0989762Y0281781D02*
X0992608Y0284627D01*
D47*
X0805748Y0166337D02*
X0819248D01*
X0766248Y0159545D02*
X0799498D01*
X1187045Y0160295D02*
X1187248Y0160092D01*
Y0154795D02*
Y0160092D01*
X0845748Y0179535D02*
X0853988D01*
X0778748Y0174795D02*
X0786207Y0167337D01*
X0795248D01*
X0778748Y0174795D02*
Y0199795D01*
X0853988Y0178055D02*
X0853998Y0178045D01*
X0853988Y0178055D02*
Y0179535D01*
X0797498Y0167337D02*
X0804748D01*
X0786998Y0131295D02*
X0790350D01*
X0795748Y0125898D01*
X0619998Y0125045D02*
X0668498D01*
X0662248Y0149045D02*
Y0161545D01*
X0655498Y0168295D02*
X0662248Y0161545D01*
X0655498Y0168295D02*
X0663748Y0176545D01*
X0652498Y0139295D02*
X0662248Y0149045D01*
X0846758Y0144535D02*
X0847248Y0144045D01*
X1193498Y0261545D02*
Y0278545D01*
Y0253545D02*
Y0261545D01*
X1193248Y0322093D02*
X1199498D01*
X1205701D01*
X1207248Y0320545D01*
Y0297390D02*
Y0320545D01*
X1205951Y0296093D02*
X1207248Y0297390D01*
X1198998Y0296093D02*
X1205951D01*
X1192748D02*
X1198998D01*
X1199545Y0295545D01*
Y0287795D02*
Y0295545D01*
Y0284593D02*
Y0287795D01*
X1193498Y0278545D02*
X1199545Y0284593D01*
X1202201Y0238092D02*
X1202498Y0237795D01*
X1202201Y0238092D02*
Y0243295D01*
Y0253193D02*
X1202553Y0253545D01*
X1202201Y0243295D02*
Y0253193D01*
X0795248Y0167337D02*
Y0173305D01*
X0627396Y0187443D02*
X0634248Y0194295D01*
X0627396Y0186545D02*
Y0187443D01*
X0639600Y0176795D02*
Y0186545D01*
X0640100Y0139295D02*
X0652498D01*
X0599748Y0145295D02*
X0619998Y0125045D01*
X0663748Y0176545D02*
X0669998D01*
X0633748Y0167270D02*
X0654472D01*
X0640100Y0148795D02*
X0650748D01*
X0660998Y0186545D02*
X0669998D01*
X0651248Y0176795D02*
X0660998Y0186545D01*
X0639600Y0176795D02*
X0651248D01*
X0594281Y0145295D02*
X0599748D01*
X0832238Y0172055D02*
X0845748D01*
X0819988Y0172795D02*
X0831498D01*
X0819248Y0173535D02*
X0819988Y0172795D01*
X0813488Y0173535D02*
X0819248D01*
X0812748Y0172795D02*
X0813488Y0173535D01*
X0845748Y0172055D02*
X0851988D01*
X0854248Y0169795D01*
X0813488Y0180305D02*
Y0186295D01*
Y0180305D02*
X0813498Y0180295D01*
X0808498Y0194295D02*
Y0198805D01*
Y0194295D02*
X0808998Y0193795D01*
X0840748Y0144535D02*
X0846758D01*
X0800238Y0158545D02*
X0805248Y0153535D01*
X0627396Y0169898D02*
Y0176795D01*
Y0169898D02*
X0630024Y0167270D01*
X0633748D01*
D48*
X0799498Y0147295D02*
X0806488D01*
X0756498Y0158045D02*
X0762498Y0152045D01*
X0794748D02*
X0799498Y0147295D01*
X0762498Y0152045D02*
X0794748D01*
X0805248Y0146055D02*
X0806488Y0147295D01*
X0684750Y0311184D02*
X0688639Y0307295D01*
X0689248Y0307904D02*
Y0308045D01*
X0688639Y0307295D02*
X0689248Y0307904D01*
X0800248Y0190045D02*
Y0194545D01*
X0805258Y0206285D02*
X0808498D01*
X0802248Y0209295D02*
X0805258Y0206285D01*
X0802248Y0209295D02*
Y0214545D01*
X0842488Y0138795D02*
X0850248D01*
X0840748Y0137055D02*
X0842488Y0138795D01*
X0621748Y0139295D02*
X0627896D01*
X0616498D02*
X0621748D01*
X0810494Y0146795D02*
X0815744Y0152045D01*
X0805988Y0146795D02*
X0810494D01*
X0808503Y0142800D02*
X0813758Y0137545D01*
X0805248Y0146055D02*
X0808503Y0142800D01*
X0810248Y0127045D02*
X0810498Y0127295D01*
Y0134285D01*
X0813758Y0137545D01*
X0629998Y0139295D02*
X0637748Y0131545D01*
X0627896Y0139295D02*
X0629998D01*
X0611998Y0143795D02*
X0616498Y0139295D01*
X0637748Y0131545D02*
X0664998D01*
X0611998Y0143795D02*
Y0150295D01*
X0664998Y0131545D02*
X0669998Y0136545D01*
X0805748Y0177754D02*
Y0186035D01*
X0806008Y0186295D01*
X0808716Y0206504D02*
X0818248D01*
X0808498Y0206285D02*
X0808716Y0206504D01*
X0828512Y0199049D02*
X0840998D01*
X0827248Y0197785D02*
X0828512Y0199049D01*
X0820947Y0197785D02*
X0827248D01*
X0818248Y0195087D02*
X0820947Y0197785D01*
X0813758Y0137545D02*
X0819789D01*
X0831207D02*
X0840258D01*
X0840748Y0137055D01*
X0803998Y0186295D02*
X0806008D01*
X0800248Y0190045D02*
X0803998Y0186295D01*
X0758738Y0157055D02*
X0758748Y0157045D01*
X0684750Y0311184D02*
Y0311750D01*
D49*
X1187045Y0160295D02*
Y0167537D01*
X0620998Y0272862D02*
X0635663D01*
X0642931D01*
X0645498Y0270295D01*
Y0257498D02*
Y0270295D01*
X0637998Y0246045D02*
X0639248Y0247295D01*
Y0251842D01*
X0639843D02*
X0645498Y0257498D01*
X0639248Y0251842D02*
X0639843D01*
D50*
X1167045Y0121640D02*
X1167498Y0122092D01*
X1167045Y0115295D02*
Y0121640D01*
X0769248Y0210295D02*
X0778748Y0200795D01*
X0669904Y0210295D02*
X0769248D01*
X0666653Y0207045D02*
X0669904Y0210295D01*
X1141795Y0134498D02*
X1159998D01*
X1165045D02*
X1167498Y0132045D01*
X1177748Y0223795D02*
Y0231045D01*
X1175998Y0238545D02*
X1177748Y0236795D01*
X1175998Y0238545D02*
Y0260795D01*
X1192748D01*
X1193498Y0261545D01*
X1167498Y0127998D02*
Y0132045D01*
X1159998Y0134498D02*
X1165045D01*
X1159998Y0122195D02*
Y0128593D01*
X1166445Y0115896D02*
X1167045Y0115295D01*
X1159998Y0115896D02*
X1166445D01*
X1135248Y0134498D02*
X1141795D01*
X1142748Y0133545D01*
Y0128498D02*
Y0133545D01*
X1135248Y0122195D02*
Y0128593D01*
X1190701Y0322093D02*
X1193248D01*
X1186285D02*
X1190701D01*
X1184988Y0320795D02*
X1186285Y0322093D01*
X1182748Y0330045D02*
X1190701Y0322093D01*
X1177988Y0330045D02*
X1182748D01*
X1191201Y0296093D02*
X1192748D01*
X1187035D02*
X1191201D01*
X1184738Y0293795D02*
X1187035Y0296093D01*
X1184248Y0303045D02*
X1191201Y0296093D01*
X1177988Y0303045D02*
X1184248D01*
X1176305Y0294748D02*
X1177258Y0293795D01*
X1169498Y0294748D02*
X1176305D01*
X1162998D02*
X1169498D01*
X1167248Y0303045D02*
X1170508D01*
X1165843Y0301640D02*
X1167248Y0303045D01*
X1162998Y0301640D02*
X1165843D01*
X1162998Y0321498D02*
X1169498D01*
X1162998Y0329093D02*
X1163951Y0330045D01*
X1170508D01*
X1169498Y0321498D02*
X1170201Y0320795D01*
X1177508D01*
X1162045Y0294748D02*
X1162998D01*
X1149998Y0306795D02*
X1162045Y0294748D01*
X1143998Y0306795D02*
X1149998D01*
X1139120Y0311673D02*
X1143998Y0306795D01*
X1137890Y0311673D02*
X1139120D01*
X1159653Y0301640D02*
X1162998D01*
X1149620Y0311673D02*
X1159653Y0301640D01*
X1147890Y0311673D02*
X1149620D01*
X1156451Y0321498D02*
X1162998D01*
X1151998Y0317045D02*
X1156451Y0321498D01*
X1142518Y0317045D02*
X1151998D01*
X1137890Y0321673D02*
X1142518Y0317045D01*
X1155309Y0329093D02*
X1162998D01*
X1147890Y0321673D02*
X1155309Y0329093D01*
X1040201Y0285545D02*
X1044998D01*
X1039951Y0285795D02*
X1040201Y0285545D01*
X1022472Y0289321D02*
X1025998Y0285795D01*
X1014262Y0289321D02*
X1022472D01*
X1025998Y0285795D02*
X1027998D01*
X1034045D01*
X0978295Y0262295D02*
X0979201Y0261390D01*
Y0255295D02*
Y0261390D01*
X0973498Y0262295D02*
X0978295D01*
X1037248Y0305045D02*
X1037498Y0304795D01*
X1031951Y0305045D02*
X1037248D01*
Y0299545D02*
X1037498Y0299795D01*
X1031951Y0299545D02*
X1037248D01*
X0666701Y0200545D02*
Y0206998D01*
X0655748Y0207045D02*
X0660748D01*
X0654498Y0200045D02*
X0660295D01*
X1177748Y0231045D02*
Y0236795D01*
D51*
X0780350Y0113693D02*
X0795748D01*
X0778248Y0115795D02*
X0780350Y0113693D01*
X0633748Y0157821D02*
X0633774Y0157795D01*
X0654037D01*
X0627896Y0148545D02*
Y0151969D01*
X0633748Y0157821D01*
D52*
X1163545Y0260795D02*
Y0266795D01*
X1161998Y0340545D02*
X1162998Y0339545D01*
Y0334998D02*
Y0339545D01*
X1173701Y0288843D02*
X1174248Y0288295D01*
X1169498Y0288843D02*
X1173701D01*
X1170701Y0315593D02*
X1173248Y0313045D01*
X1169498Y0315593D02*
X1170701D01*
X1162748Y0311545D02*
X1162998Y0311795D01*
Y0315593D01*
X1164498Y0309045D02*
X1167248D01*
X1162998Y0307545D02*
X1164498Y0309045D01*
X1205451Y0287795D02*
X1210248D01*
X1184443Y0247100D02*
Y0253545D01*
Y0247100D02*
X1188248Y0243295D01*
X1196295D01*
X1196248Y0237295D02*
X1196295Y0237343D01*
Y0243295D01*
X0960701Y0207498D02*
X0960998Y0207795D01*
X0960701Y0201545D02*
Y0207498D01*
X0960951Y0191545D02*
X0960998Y0191593D01*
Y0196795D01*
D53*
X1016722Y0299656D02*
X1025935D01*
X1019295Y0309498D02*
X1023748Y0305045D01*
X1026045D01*
X1016722Y0309498D02*
X1019295D01*
X1025935Y0299656D02*
X1026045Y0299545D01*
X0922295Y0170545D02*
Y0188748D01*
Y0163045D02*
Y0170545D01*
X0917748D02*
X0922295D01*
X0912967Y0205305D02*
X0913252Y0205591D01*
Y0211800D01*
X0913748Y0212295D01*
X0920748Y0190295D02*
X0922295Y0188748D01*
X0922248Y0162998D02*
X0922295Y0163045D01*
X0922248Y0156142D02*
Y0162998D01*
X0920045Y0149214D02*
X0920280Y0149449D01*
X0920045Y0142545D02*
Y0149214D01*
Y0138593D02*
Y0142545D01*
X0917748Y0136295D02*
X0920045Y0138593D01*
X0917748Y0134045D02*
Y0136295D01*
X0923748Y0134045D02*
X0924498Y0134795D01*
X0917748Y0134045D02*
X0923748D01*
X0902998Y0132545D02*
X0903498D01*
X0906094Y0129949D01*
Y0127266D02*
Y0129949D01*
X0882748Y0120445D02*
Y0126795D01*
X0828841Y0153134D02*
Y0166102D01*
D54*
X0834155Y0179488D02*
Y0184888D01*
D55*
X0838844D01*
X0840998Y0187041D01*
D56*
X0699373Y0195670D02*
D03*
D57*
X0685873Y0351795D02*
D03*
D58*
X0690873Y0306420D02*
D03*
D59*
X0675373Y0355920D02*
D03*
D60*
X0677248Y0351545D02*
D03*
D61*
X0676373Y0306045D02*
D03*
D62*
X0665748Y0351420D02*
D03*
D63*
X0665623Y0307545D02*
D03*
D64*
X0780498Y0185420D02*
D03*
D65*
X0755748Y0168545D02*
D03*
D66*
X0684498Y0313920D02*
D03*
D67*
X0667998Y0314670D02*
D03*
D68*
X0824123Y0166170D02*
D03*
D69*
X0839623Y0179420D02*
D03*
D70*
X0778748Y0199795D02*
D03*
X0698748Y0119795D02*
D03*
Y0199795D02*
D03*
X0738748D02*
D03*
X0728748Y0119795D02*
D03*
X0748748D02*
D03*
X0977996Y0135775D02*
D03*
X1041500D02*
D03*
D71*
X0669998Y0116545D02*
D03*
Y0126545D02*
D03*
Y0136545D02*
D03*
Y0146545D02*
D03*
Y0166545D02*
D03*
Y0176545D02*
D03*
Y0186545D02*
D03*
D72*
X0985752Y0228295D02*
D03*
X0995752D02*
D03*
X1023744D02*
D03*
X1033744D02*
D03*
D73*
X1017740Y0218295D02*
D03*
X1025732D02*
D03*
X1033724D02*
D03*
X0989768Y0208295D02*
D03*
X0997760D02*
D03*
X1021736D02*
D03*
X1029728D02*
D03*
D74*
X1031756Y0180264D02*
D03*
X0987740D02*
D03*
D75*
X0810248Y0127045D02*
D03*
X0820248D02*
D03*
D76*
X0830248D02*
D03*
D77*
X1137890Y0321673D02*
D03*
X1151498Y0161295D02*
D03*
X0593248Y0325295D02*
D03*
D78*
X0951039Y0165667D02*
D03*
Y0157793D02*
D03*
X0945685Y0153856D02*
D03*
X0951039Y0173541D02*
D03*
Y0149919D02*
D03*
X1067604Y0318004D02*
D03*
X1114311Y0171795D02*
D03*
X1105404Y0318004D02*
D03*
X1086502D02*
D03*
D79*
X0940331Y0174604D02*
D03*
X0961748D02*
D03*
X0940331Y0147045D02*
D03*
X0961748D02*
D03*
D80*
X1114604Y0260461D02*
D03*
X1058504Y0290004D02*
D03*
Y0250604D02*
D03*
Y0211204D02*
D03*
Y0280204D02*
D03*
Y0261704D02*
D03*
Y0171804D02*
D03*
X1080904Y0250604D02*
D03*
X1102104D02*
D03*
X1114604Y0230904D02*
D03*
Y0191504D02*
D03*
X1092304Y0171804D02*
D03*
X1114604Y0270304D02*
D03*
Y0280204D02*
D03*
Y0299804D02*
D03*
Y0309704D02*
D03*
X1058504Y0299804D02*
D03*
D81*
X1067756Y0293252D02*
D03*
X1105649Y0293449D02*
D03*
D82*
X0702498Y0299295D02*
D03*
X0708795Y0355795D02*
D03*
Y0303045D02*
D03*
X0705295Y0355795D02*
D03*
Y0303045D02*
D03*
X0711498Y0268295D02*
D03*
X0714998Y0274545D02*
D03*
X0909748Y0220545D02*
D03*
X1041748Y0234545D02*
D03*
X0984248Y0274795D02*
D03*
X1016248Y0273045D02*
D03*
X1014748Y0276295D02*
D03*
X1010748Y0278394D02*
D03*
X1006998Y0259045D02*
D03*
X0794998Y0186295D02*
D03*
X0925998Y0117795D02*
D03*
X0915248D02*
D03*
X0907248D02*
D03*
X0896498D02*
D03*
X0837998Y0309545D02*
D03*
X0836998Y0303295D02*
D03*
X0693248Y0356545D02*
D03*
X1188498Y0330045D02*
D03*
X1204498Y0328045D02*
D03*
X1198998Y0306545D02*
D03*
X1192748D02*
D03*
X0958498Y0298545D02*
D03*
X0823248Y0179295D02*
D03*
X0828998Y0184295D02*
D03*
X1022498Y0337545D02*
D03*
X0915748Y0181545D02*
D03*
X0845248Y0355795D02*
D03*
X0934498Y0167545D02*
D03*
X0934748Y0132295D02*
D03*
X0928248Y0168140D02*
D03*
X0670748Y0323295D02*
D03*
X0682248Y0323795D02*
D03*
X0702248Y0322939D02*
D03*
X0711748Y0323295D02*
D03*
X0717248Y0324295D02*
D03*
X0733748Y0309045D02*
D03*
X0738748Y0309295D02*
D03*
X0760498Y0308295D02*
D03*
X0766100Y0309152D02*
D03*
X0773187D02*
D03*
X0780274D02*
D03*
X0787360D02*
D03*
X0794447D02*
D03*
X0801533D02*
D03*
X0808620D02*
D03*
X0815707D02*
D03*
X0822793D02*
D03*
X0829748Y0308295D02*
D03*
X0851248Y0322939D02*
D03*
X0872248D02*
D03*
X0879498D02*
D03*
X0886498D02*
D03*
X0920248Y0348295D02*
D03*
X0906998Y0338795D02*
D03*
X0901748Y0354439D02*
D03*
X0894998D02*
D03*
X0886498Y0356545D02*
D03*
X0880748Y0355189D02*
D03*
X0873498D02*
D03*
X0656998Y0344295D02*
D03*
X0675248Y0355795D02*
D03*
X0678498D02*
D03*
X0682248Y0355939D02*
D03*
X0700998Y0355795D02*
D03*
X0713748Y0356295D02*
D03*
X0717748Y0354939D02*
D03*
X0724748D02*
D03*
X0731998D02*
D03*
X0738998D02*
D03*
X0745998D02*
D03*
X0752998D02*
D03*
X0760248D02*
D03*
X0767248D02*
D03*
X0774248D02*
D03*
X0781498D02*
D03*
X0788498D02*
D03*
X0795748D02*
D03*
X0802748D02*
D03*
X0809748D02*
D03*
X0816998Y0355189D02*
D03*
X0822998Y0341545D02*
D03*
X0832998Y0341795D02*
D03*
X0846748D02*
D03*
X0852321Y0355222D02*
D03*
X0868248Y0348295D02*
D03*
X0857748D02*
D03*
X0696498Y0188295D02*
D03*
X0700748D02*
D03*
Y0192045D02*
D03*
X0696498D02*
D03*
X0785998Y0159545D02*
D03*
X0781998D02*
D03*
X0777998D02*
D03*
X0774248D02*
D03*
X0770248D02*
D03*
X0766248D02*
D03*
X0685998Y0356795D02*
D03*
Y0353795D02*
D03*
X0692748Y0304795D02*
D03*
X0689248D02*
D03*
X0692748Y0308045D02*
D03*
X0689248D02*
D03*
X0677998Y0309045D02*
D03*
X0674748D02*
D03*
X0676248Y0299545D02*
D03*
Y0296545D02*
D03*
X0663998Y0355295D02*
D03*
Y0351295D02*
D03*
Y0347045D02*
D03*
X0667748Y0304295D02*
D03*
X0664248D02*
D03*
Y0308045D02*
D03*
X0667748D02*
D03*
X0900998Y0135545D02*
D03*
X1187248Y0154795D02*
D03*
X1158748Y0176545D02*
D03*
X1139498Y0232795D02*
D03*
X1207998Y0200295D02*
D03*
X0812998Y0166295D02*
D03*
X0776748Y0166545D02*
D03*
X0780498D02*
D03*
X0821248Y0187545D02*
D03*
X0800248Y0193795D02*
D03*
X0802248Y0211295D02*
D03*
X0846998Y0138795D02*
D03*
X0850248D02*
D03*
X0841998Y0166045D02*
D03*
X0823998Y0172795D02*
D03*
X0839998Y0171795D02*
D03*
X0851248Y0180295D02*
D03*
X0853998Y0178045D02*
D03*
X0784248Y0166545D02*
D03*
X0756498Y0176795D02*
D03*
Y0173045D02*
D03*
Y0169295D02*
D03*
Y0165545D02*
D03*
Y0161795D02*
D03*
Y0158045D02*
D03*
X0752748Y0176795D02*
D03*
Y0173045D02*
D03*
Y0169295D02*
D03*
Y0165545D02*
D03*
Y0161795D02*
D03*
Y0158045D02*
D03*
X0786998Y0131295D02*
D03*
X0778248Y0115795D02*
D03*
X0650748Y0148795D02*
D03*
X0646248D02*
D03*
X0631498Y0191795D02*
D03*
X0634248Y0194295D02*
D03*
X0653998Y0157795D02*
D03*
X0650498D02*
D03*
X0628748Y0292547D02*
D03*
X0628498Y0304358D02*
D03*
X0628331Y0316169D02*
D03*
Y0327980D02*
D03*
X0637998Y0246045D02*
D03*
X0847248Y0144045D02*
D03*
X0890248Y0342045D02*
D03*
X1040248Y0327545D02*
D03*
X1174248Y0226795D02*
D03*
X0813748Y0290045D02*
D03*
X1173248Y0266795D02*
D03*
X1115748Y0349545D02*
D03*
X1104998D02*
D03*
X0890248Y0356795D02*
D03*
X0921748Y0357545D02*
D03*
X0908248Y0355795D02*
D03*
X1173748Y0214545D02*
D03*
X1173498Y0272795D02*
D03*
X1177748Y0223795D02*
D03*
X1183248Y0209795D02*
D03*
X0974248Y0229045D02*
D03*
X0971498Y0231545D02*
D03*
X0946748Y0283045D02*
D03*
X0948998Y0286795D02*
D03*
X1109748Y0202295D02*
D03*
X0805748Y0263545D02*
D03*
X0802998Y0267045D02*
D03*
X1102998Y0185795D02*
D03*
X0843248Y0278545D02*
D03*
X0847045Y0297695D02*
D03*
X0840248Y0274795D02*
D03*
X0962998Y0223045D02*
D03*
X0848498Y0275795D02*
D03*
X0834998Y0271795D02*
D03*
X0983248Y0202045D02*
D03*
X1176498Y0173795D02*
D03*
X1011248Y0128795D02*
D03*
X0993748D02*
D03*
X0983248Y0183295D02*
D03*
X0978998Y0184295D02*
D03*
X0979248Y0193295D02*
D03*
X0954248Y0196295D02*
D03*
X1148998Y0123295D02*
D03*
X0836498Y0264295D02*
D03*
X0840248Y0355533D02*
D03*
X0870248Y0308045D02*
D03*
X0869748Y0291045D02*
D03*
X0853295Y0297445D02*
D03*
X0835498Y0357045D02*
D03*
X1176998Y0115795D02*
D03*
X0812248Y0263045D02*
D03*
X1172748Y0159545D02*
D03*
X1172498Y0165545D02*
D03*
X1204998Y0185795D02*
D03*
X1197498Y0160045D02*
D03*
X1193498Y0205795D02*
D03*
X1201748Y0200295D02*
D03*
X1210748Y0213295D02*
D03*
X1210498Y0216545D02*
D03*
X1205998Y0222545D02*
D03*
X1193248Y0219545D02*
D03*
X1159498Y0260295D02*
D03*
X1196748Y0223045D02*
D03*
X1159248Y0253295D02*
D03*
X1157998Y0227295D02*
D03*
X1166272Y0133272D02*
D03*
X1161998Y0340545D02*
D03*
X1174248Y0288295D02*
D03*
X1173248Y0313045D02*
D03*
X1162748Y0311545D02*
D03*
X1167248Y0309045D02*
D03*
X1210248Y0287795D02*
D03*
X1202498Y0237795D02*
D03*
X1196248Y0237295D02*
D03*
X0888929Y0291699D02*
D03*
X0882142D02*
D03*
X1036748Y0234045D02*
D03*
X1045498Y0256545D02*
D03*
X1036998Y0248545D02*
D03*
X0643248Y0246295D02*
D03*
X0630998Y0252795D02*
D03*
X0621998Y0231295D02*
D03*
X0620998Y0237795D02*
D03*
X1025248Y0294508D02*
D03*
Y0291008D02*
D03*
X0949248Y0202045D02*
D03*
X0960998Y0207795D02*
D03*
Y0196795D02*
D03*
X1018998Y0283295D02*
D03*
X1046998Y0252545D02*
D03*
X1020748Y0330545D02*
D03*
X1003748Y0328795D02*
D03*
X0950498Y0211295D02*
D03*
X0966248Y0330545D02*
D03*
X0997248Y0331545D02*
D03*
X1044998Y0285545D02*
D03*
X1027998Y0285795D02*
D03*
X1018248Y0251795D02*
D03*
X1013998Y0249545D02*
D03*
X0968748Y0255295D02*
D03*
X0973498Y0262295D02*
D03*
X1044248Y0279795D02*
D03*
X1041748Y0273795D02*
D03*
X1046748Y0261545D02*
D03*
X1018248Y0246045D02*
D03*
X1031248Y0264045D02*
D03*
X1028748Y0243045D02*
D03*
X1007998D02*
D03*
X1001248Y0250545D02*
D03*
X0972248Y0246795D02*
D03*
X0998498Y0269545D02*
D03*
X0997998Y0273795D02*
D03*
X0998498Y0253045D02*
D03*
X0993498Y0280545D02*
D03*
X0979248Y0285295D02*
D03*
X0968498Y0271295D02*
D03*
X0956248Y0276545D02*
D03*
X0974748Y0285295D02*
D03*
X0956248Y0284295D02*
D03*
X0957498Y0290045D02*
D03*
X0975866Y0290913D02*
D03*
X0973998Y0295719D02*
D03*
X0977498Y0298295D02*
D03*
X0961498Y0302045D02*
D03*
X0977748Y0308045D02*
D03*
X0977998Y0313045D02*
D03*
X0961248Y0308045D02*
D03*
X0961498Y0313545D02*
D03*
X0969498Y0327545D02*
D03*
Y0321295D02*
D03*
X0993748Y0329795D02*
D03*
X0969998Y0337045D02*
D03*
X0985498Y0335795D02*
D03*
X1017498Y0338545D02*
D03*
X1044248Y0293045D02*
D03*
X1020998Y0299545D02*
D03*
X1021498Y0306795D02*
D03*
X1021248Y0317545D02*
D03*
X1036998Y0322545D02*
D03*
Y0317045D02*
D03*
X1037248Y0310045D02*
D03*
X1021248Y0311545D02*
D03*
X1037498Y0304795D02*
D03*
Y0299795D02*
D03*
X0966059Y0231235D02*
D03*
X1009198Y0274995D02*
D03*
X0963584Y0233710D02*
D03*
X0909498Y0143295D02*
D03*
X0800248Y0228795D02*
D03*
X0639248Y0263045D02*
D03*
X0719998Y0271795D02*
D03*
X0639248Y0267045D02*
D03*
X0642498Y0288545D02*
D03*
X0642248Y0284795D02*
D03*
X0642498Y0292795D02*
D03*
X0642248Y0280795D02*
D03*
X0632451Y0245795D02*
D03*
X0877498Y0250045D02*
D03*
X0873748Y0241295D02*
D03*
X0825248Y0246545D02*
D03*
X0827248Y0255795D02*
D03*
X0831998Y0263795D02*
D03*
X0817748Y0234795D02*
D03*
X0819998Y0231545D02*
D03*
X0654748Y0206045D02*
D03*
X0654498Y0200045D02*
D03*
X0714748Y0279045D02*
D03*
X0760748Y0323545D02*
D03*
X0769998Y0324045D02*
D03*
X0765498Y0326045D02*
D03*
X0742748Y0323045D02*
D03*
X0737248Y0322795D02*
D03*
X0843248Y0324045D02*
D03*
X0829248Y0326545D02*
D03*
X0825748Y0328545D02*
D03*
X0840998Y0327295D02*
D03*
X0828998Y0357545D02*
D03*
X0826248Y0355295D02*
D03*
X0647498Y0157795D02*
D03*
X0639998Y0114045D02*
D03*
X0621498Y0113545D02*
D03*
X0913748Y0212295D02*
D03*
X0920748Y0190295D02*
D03*
X0927248Y0149295D02*
D03*
X0930998Y0139295D02*
D03*
X0917748Y0134045D02*
D03*
X0902998Y0132545D02*
D03*
X0927748Y0204295D02*
D03*
X0927498Y0210295D02*
D03*
X0727748Y0329045D02*
D03*
X0729748Y0326295D02*
D03*
X0896748Y0341795D02*
D03*
X0894998Y0336795D02*
D03*
X0732248Y0324045D02*
D03*
X0642248Y0276795D02*
D03*
X0900748Y0163045D02*
D03*
X0887998Y0132545D02*
D03*
X0897201Y0140093D02*
D03*
X0909248Y0148045D02*
D03*
X0812748Y0172795D02*
D03*
X0854248Y0169795D02*
D03*
X0813498Y0180295D02*
D03*
X0808998Y0193795D02*
D03*
X0849748Y0152545D02*
D03*
X0833498Y0159545D02*
D03*
X0851998Y0198295D02*
D03*
X0810498Y0147795D02*
D03*
X0802248Y0214545D02*
D03*
X0800248Y0190045D02*
D03*
D83*
X1012490Y0293553D02*
D03*
X1008159D02*
D03*
X1003829D02*
D03*
X0999498D02*
D03*
X0995167D02*
D03*
X0990837D02*
D03*
X0986506D02*
D03*
X1012490Y0297884D02*
D03*
X1008159D02*
D03*
X1003829D02*
D03*
X0999498D02*
D03*
X0995167D02*
D03*
X0990837D02*
D03*
X0986506D02*
D03*
X1012490Y0302215D02*
D03*
X1008159D02*
D03*
X1003829D02*
D03*
X0999498D02*
D03*
X0995167D02*
D03*
X0990837D02*
D03*
X0986506D02*
D03*
X1012490Y0306545D02*
D03*
X1008159D02*
D03*
X1003829D02*
D03*
X0999498D02*
D03*
X0995167D02*
D03*
X0990837D02*
D03*
X0986506D02*
D03*
X1012490Y0310876D02*
D03*
X1008159D02*
D03*
X1003829D02*
D03*
X0999498D02*
D03*
X0995167D02*
D03*
X0990837D02*
D03*
X0986506D02*
D03*
X1012490Y0315207D02*
D03*
X1008159D02*
D03*
X1003829D02*
D03*
X0999498D02*
D03*
X0995167D02*
D03*
X0990837D02*
D03*
X0986506D02*
D03*
X1012490Y0319537D02*
D03*
X1008159D02*
D03*
X1003829D02*
D03*
X0999498D02*
D03*
X0995167D02*
D03*
X0990837D02*
D03*
X0986506D02*
D03*
M02*
