G04 Layer_Color=16711935*
%FSAX25Y25*%
%MOIN*%
G70*
G01*
G75*
%ADD55C,0.01969*%
D55*
X0584500Y0117358D02*
Y0349642D01*
Y0117358D02*
X0584727Y0115054D01*
X0585399Y0112838D01*
X0586490Y0110796D01*
X0587959Y0109007D01*
X0589749Y0107538D01*
X0591791Y0106446D01*
X0594007Y0105774D01*
X0596311Y0105547D01*
X1051035D01*
Y0148854D01*
X1051134Y0149730D01*
X1051425Y0150563D01*
X1051894Y0151309D01*
X1052518Y0151932D01*
X1053264Y0152401D01*
X1054096Y0152693D01*
X1054972Y0152791D01*
X1119933D01*
X1120809Y0152693D01*
X1121641Y0152401D01*
X1122388Y0151932D01*
X1123011Y0151309D01*
X1123480Y0150563D01*
X1123771Y0149730D01*
X1123870Y0148854D01*
Y0105547D02*
Y0148854D01*
Y0105547D02*
X1202610D01*
X1204914Y0105774D01*
X1207130Y0106446D01*
X1209172Y0107538D01*
X1210962Y0109007D01*
X1212431Y0110796D01*
X1213522Y0112838D01*
X1214194Y0115054D01*
X1214421Y0117358D01*
Y0349642D01*
X1214194Y0351946D02*
X1214421Y0349642D01*
X1213522Y0354162D02*
X1214194Y0351946D01*
X1212431Y0356204D02*
X1213522Y0354162D01*
X1210962Y0357993D02*
X1212431Y0356204D01*
X1209172Y0359462D02*
X1210962Y0357993D01*
X1207130Y0360554D02*
X1209172Y0359462D01*
X1204914Y0361226D02*
X1207130Y0360554D01*
X1202610Y0361453D02*
X1204914Y0361226D01*
X0596311Y0361453D02*
X1202610D01*
X0594007Y0361226D02*
X0596311Y0361453D01*
X0591791Y0360554D02*
X0594007Y0361226D01*
X0589749Y0359462D02*
X0591791Y0360554D01*
X0587959Y0357993D02*
X0589749Y0359462D01*
X0586490Y0356204D02*
X0587959Y0357993D01*
X0585399Y0354162D02*
X0586490Y0356204D01*
X0584727Y0351946D02*
X0585399Y0354162D01*
X0584500Y0349642D02*
X0584727Y0351946D01*
M02*
