G04 Layer_Color=8388736*
%FSAX25Y25*%
%MOIN*%
G70*
G01*
G75*
%ADD112C,0.12000*%
%ADD113C,0.06706*%
%ADD114R,0.04343X0.03162*%
%ADD115R,0.01981X0.06115*%
%ADD116R,0.02178X0.08674*%
%ADD117R,0.18517X0.18910*%
%ADD118R,0.10642X0.07493*%
%ADD119R,0.01784X0.04737*%
%ADD120R,0.04540X0.01784*%
%ADD121R,0.01784X0.04540*%
%ADD122R,0.29540X0.29540*%
%ADD123R,0.06312X0.05131*%
%ADD124R,0.02769X0.02178*%
%ADD125R,0.13398X0.08083*%
%ADD126R,0.04737X0.08083*%
%ADD127R,0.03162X0.04343*%
%ADD128R,0.07099X0.04343*%
%ADD129R,0.04343X0.07099*%
%ADD130R,0.02375X0.04147*%
%ADD131R,0.06706X0.06706*%
%ADD132R,0.04343X0.05918*%
%ADD133R,0.03950X0.03950*%
%ADD134R,0.14186X0.05524*%
%ADD135R,0.14973X0.06706*%
%ADD136R,0.06706X0.14973*%
%ADD137R,0.03950X0.03950*%
%ADD138R,0.01969X0.05906*%
%ADD139R,0.06902X0.08280*%
%ADD140R,0.07099X0.06312*%
%ADD141R,0.09855X0.08280*%
%ADD142R,0.12611X0.06706*%
%ADD143R,0.05918X0.04343*%
%ADD144R,0.07296X0.03162*%
%ADD145C,0.00800*%
%ADD146C,0.10249*%
%ADD147O,0.08674X0.07099*%
%ADD148C,0.06824*%
%ADD149C,0.06343*%
%ADD150C,0.05721*%
%ADD151O,0.06312X0.10642*%
%ADD152R,0.06312X0.10642*%
%ADD153R,0.06706X0.06706*%
%ADD154C,0.06312*%
%ADD155C,0.08280*%
%ADD156R,0.08674X0.08674*%
%ADD157C,0.06902*%
%ADD158C,0.00197*%
%ADD159C,0.02769*%
D112*
X0640748Y0350795D02*
D03*
X1198248Y0144795D02*
D03*
X1172748Y0347545D02*
D03*
D113*
X0803998Y0138045D02*
D03*
X0855498Y0192045D02*
D03*
X0621748Y0133795D02*
D03*
X0716248Y0306545D02*
D03*
X0712748Y0292795D02*
D03*
X0795248Y0208295D02*
D03*
X0933498Y0209795D02*
D03*
X0940748Y0200045D02*
D03*
X1044248Y0312045D02*
D03*
X0924498Y0134795D02*
D03*
X0917748Y0170545D02*
D03*
X1147890Y0321673D02*
D03*
X1137890Y0311673D02*
D03*
X1147890D02*
D03*
X1137890Y0301673D02*
D03*
X1147890D02*
D03*
X1137890Y0291673D02*
D03*
X1147890D02*
D03*
X1137890Y0281673D02*
D03*
X1147890D02*
D03*
X1137890Y0271673D02*
D03*
X1147890D02*
D03*
X1137890Y0261673D02*
D03*
X1147890D02*
D03*
X1137890Y0251673D02*
D03*
X1147890D02*
D03*
X1137890Y0241673D02*
D03*
X1147890D02*
D03*
X1151498Y0171295D02*
D03*
Y0181295D02*
D03*
Y0191295D02*
D03*
Y0201295D02*
D03*
X1141498Y0161295D02*
D03*
Y0171295D02*
D03*
Y0181295D02*
D03*
Y0191295D02*
D03*
Y0201295D02*
D03*
X0603248Y0195295D02*
D03*
X0593248D02*
D03*
X0603248Y0325295D02*
D03*
X0593248Y0315295D02*
D03*
X0603248D02*
D03*
X0593248Y0305295D02*
D03*
X0603248D02*
D03*
X0593248Y0295295D02*
D03*
X0603248D02*
D03*
X0593248Y0285295D02*
D03*
X0603248D02*
D03*
X0593248Y0275295D02*
D03*
X0603248D02*
D03*
X0593248Y0265295D02*
D03*
X0603248D02*
D03*
X0593248Y0255295D02*
D03*
X0603248D02*
D03*
X0593248Y0245295D02*
D03*
X0603248D02*
D03*
X0593248Y0235295D02*
D03*
X0603248D02*
D03*
X0593248Y0225295D02*
D03*
X0603248D02*
D03*
X0593248Y0215295D02*
D03*
X0603248D02*
D03*
X0593248Y0205295D02*
D03*
X0603248D02*
D03*
X0593248Y0185295D02*
D03*
X0603248D02*
D03*
X0871748Y0131545D02*
D03*
Y0121545D02*
D03*
X0861748Y0131545D02*
D03*
Y0121545D02*
D03*
X0851748Y0131545D02*
D03*
D114*
X0722248Y0292248D02*
D03*
X0728998D02*
D03*
X0722248Y0286343D02*
D03*
X0728998D02*
D03*
X1167498Y0127998D02*
D03*
Y0122092D02*
D03*
X1142748Y0128498D02*
D03*
Y0122592D02*
D03*
X1159998Y0128593D02*
D03*
Y0134498D02*
D03*
X1135248Y0128593D02*
D03*
Y0134498D02*
D03*
X1023248Y0266748D02*
D03*
Y0260842D02*
D03*
X1047498Y0242593D02*
D03*
Y0248498D02*
D03*
X1176498Y0186701D02*
D03*
Y0180795D02*
D03*
X0696498Y0292248D02*
D03*
Y0286343D02*
D03*
X0703248Y0292248D02*
D03*
Y0286343D02*
D03*
X0639248Y0251842D02*
D03*
Y0257748D02*
D03*
X0904498Y0138842D02*
D03*
Y0144748D02*
D03*
X0882748Y0132701D02*
D03*
Y0126795D02*
D03*
X0634248Y0114093D02*
D03*
Y0119998D02*
D03*
X0889179Y0302354D02*
D03*
Y0296449D02*
D03*
X0882392Y0302354D02*
D03*
Y0296449D02*
D03*
D115*
X0909029Y0205305D02*
D03*
X0910998D02*
D03*
X0907061Y0187785D02*
D03*
X0914935Y0205305D02*
D03*
X0912967D02*
D03*
X0907061D02*
D03*
X0914935Y0187785D02*
D03*
X0912967D02*
D03*
X0910998D02*
D03*
X0909029D02*
D03*
D116*
X0705864Y0348329D02*
D03*
X0708226D02*
D03*
X0712951D02*
D03*
X0715313D02*
D03*
X0727124D02*
D03*
X0729486D02*
D03*
X0666888Y0316045D02*
D03*
X0669250D02*
D03*
X0671612D02*
D03*
X0673974D02*
D03*
X0676337D02*
D03*
X0678699D02*
D03*
X0681061D02*
D03*
X0683423D02*
D03*
X0685785D02*
D03*
X0688148D02*
D03*
X0690510D02*
D03*
X0692872D02*
D03*
X0695234D02*
D03*
X0697596D02*
D03*
X0699959D02*
D03*
X0702321D02*
D03*
X0704683D02*
D03*
X0707045D02*
D03*
X0709407D02*
D03*
X0711770D02*
D03*
X0714132D02*
D03*
X0716494D02*
D03*
X0718856D02*
D03*
X0721218D02*
D03*
X0723581D02*
D03*
X0725943D02*
D03*
X0728305D02*
D03*
X0730667D02*
D03*
X0733030D02*
D03*
X0735392D02*
D03*
X0737754D02*
D03*
X0740116D02*
D03*
X0742478D02*
D03*
X0744840D02*
D03*
X0747203D02*
D03*
X0749565D02*
D03*
X0751927D02*
D03*
X0754289D02*
D03*
X0756652D02*
D03*
X0759014D02*
D03*
X0761376D02*
D03*
X0763738D02*
D03*
X0766100D02*
D03*
X0768463D02*
D03*
X0770825D02*
D03*
X0773187D02*
D03*
X0775549D02*
D03*
X0777911D02*
D03*
X0780274D02*
D03*
X0782636D02*
D03*
X0784998D02*
D03*
X0787360D02*
D03*
X0789722D02*
D03*
X0792085D02*
D03*
X0794447D02*
D03*
X0796809D02*
D03*
X0799171D02*
D03*
X0801533D02*
D03*
X0803896D02*
D03*
X0806258D02*
D03*
X0808620D02*
D03*
X0810982D02*
D03*
X0813344D02*
D03*
X0815707D02*
D03*
X0818069D02*
D03*
X0820431D02*
D03*
X0822793D02*
D03*
X0825156D02*
D03*
X0827518D02*
D03*
X0829880D02*
D03*
X0832242D02*
D03*
X0834604D02*
D03*
X0836967D02*
D03*
X0839329D02*
D03*
X0841691D02*
D03*
X0844053D02*
D03*
X0846415D02*
D03*
X0848777D02*
D03*
X0851140D02*
D03*
X0853502D02*
D03*
X0668069Y0348329D02*
D03*
X0670431D02*
D03*
X0672793D02*
D03*
X0675155D02*
D03*
X0677518D02*
D03*
X0679880D02*
D03*
X0682242D02*
D03*
X0684604D02*
D03*
X0686967D02*
D03*
X0689329D02*
D03*
X0691691D02*
D03*
X0694053D02*
D03*
X0696415D02*
D03*
X0698777D02*
D03*
X0701140D02*
D03*
X0703502D02*
D03*
X0710589D02*
D03*
X0717675D02*
D03*
X0720037D02*
D03*
X0722400D02*
D03*
X0724762D02*
D03*
X0731848D02*
D03*
X0734211D02*
D03*
X0736573D02*
D03*
X0738935D02*
D03*
X0741297D02*
D03*
X0743659D02*
D03*
X0746022D02*
D03*
X0748384D02*
D03*
X0750746D02*
D03*
X0753108D02*
D03*
X0755470D02*
D03*
X0757833D02*
D03*
X0760195D02*
D03*
X0762557D02*
D03*
X0764919D02*
D03*
X0767281D02*
D03*
X0769644D02*
D03*
X0772006D02*
D03*
X0774368D02*
D03*
X0776730D02*
D03*
X0779093D02*
D03*
X0781455D02*
D03*
X0783817D02*
D03*
X0786179D02*
D03*
X0788541D02*
D03*
X0790904D02*
D03*
X0793266D02*
D03*
X0795628D02*
D03*
X0797990D02*
D03*
X0800352D02*
D03*
X0802715D02*
D03*
X0805077D02*
D03*
X0807439D02*
D03*
X0809801D02*
D03*
X0812163D02*
D03*
X0814526D02*
D03*
X0816888D02*
D03*
X0819250D02*
D03*
X0821612D02*
D03*
X0823974D02*
D03*
X0826337D02*
D03*
X0828699D02*
D03*
X0831061D02*
D03*
X0833423D02*
D03*
X0835785D02*
D03*
X0838148D02*
D03*
X0840510D02*
D03*
X0842872D02*
D03*
X0845234D02*
D03*
X0847596D02*
D03*
X0849959D02*
D03*
X0852321D02*
D03*
X0854683D02*
D03*
X0870037Y0316045D02*
D03*
X0872400D02*
D03*
X0874762D02*
D03*
X0877124D02*
D03*
X0879486D02*
D03*
X0881848D02*
D03*
X0884211D02*
D03*
X0886573D02*
D03*
X0888935D02*
D03*
X0891297D02*
D03*
X0893659D02*
D03*
X0896022D02*
D03*
X0898384D02*
D03*
X0900746D02*
D03*
X0903108D02*
D03*
X0905470D02*
D03*
X0907833D02*
D03*
X0910195D02*
D03*
X0912557D02*
D03*
X0914919D02*
D03*
X0871218Y0348329D02*
D03*
X0873581D02*
D03*
X0875943D02*
D03*
X0878305D02*
D03*
X0880667D02*
D03*
X0883029D02*
D03*
X0885392D02*
D03*
X0887754D02*
D03*
X0890116D02*
D03*
X0892478D02*
D03*
X0894841D02*
D03*
X0897203D02*
D03*
X0899565D02*
D03*
X0901927D02*
D03*
X0904289D02*
D03*
X0906651D02*
D03*
X0909014D02*
D03*
X0911376D02*
D03*
X0913738D02*
D03*
X0916100D02*
D03*
D117*
X0663738Y0284943D02*
D03*
X0919250D02*
D03*
D118*
X0831498Y0172795D02*
D03*
D119*
X0835927Y0166102D02*
D03*
X0834155D02*
D03*
X0832384D02*
D03*
X0830612D02*
D03*
X0828841D02*
D03*
Y0179488D02*
D03*
X0827069Y0166102D02*
D03*
Y0179488D02*
D03*
X0830612D02*
D03*
X0832384D02*
D03*
X0834155D02*
D03*
X0835927D02*
D03*
D120*
X1016722Y0291781D02*
D03*
Y0293750D02*
D03*
Y0295719D02*
D03*
Y0297687D02*
D03*
Y0299656D02*
D03*
Y0301624D02*
D03*
Y0303592D02*
D03*
Y0305561D02*
D03*
Y0307529D02*
D03*
Y0309498D02*
D03*
Y0311467D02*
D03*
Y0313435D02*
D03*
Y0315404D02*
D03*
Y0317372D02*
D03*
Y0319340D02*
D03*
Y0321309D02*
D03*
X0982274D02*
D03*
Y0319340D02*
D03*
Y0317372D02*
D03*
Y0315404D02*
D03*
Y0313435D02*
D03*
Y0311467D02*
D03*
Y0309498D02*
D03*
Y0307529D02*
D03*
Y0305561D02*
D03*
Y0303592D02*
D03*
Y0301624D02*
D03*
Y0299656D02*
D03*
Y0297687D02*
D03*
Y0295719D02*
D03*
Y0293750D02*
D03*
Y0291781D02*
D03*
D121*
X1014262Y0323770D02*
D03*
X1012293D02*
D03*
X1010325D02*
D03*
X1008356D02*
D03*
X1006388D02*
D03*
X1004419D02*
D03*
X1002451D02*
D03*
X1000482D02*
D03*
X0998514D02*
D03*
X0996545D02*
D03*
X0994577D02*
D03*
X0992608D02*
D03*
X0990640D02*
D03*
X0988671D02*
D03*
X0986703D02*
D03*
X0984734D02*
D03*
Y0289321D02*
D03*
X0986703D02*
D03*
X0988671D02*
D03*
X0990640D02*
D03*
X0992608D02*
D03*
X0994577D02*
D03*
X0996545D02*
D03*
X0998514D02*
D03*
X1000482D02*
D03*
X1002451D02*
D03*
X1004419D02*
D03*
X1006388D02*
D03*
X1008356D02*
D03*
X1010325D02*
D03*
X1012293D02*
D03*
X1014262D02*
D03*
D122*
X0999498Y0306545D02*
D03*
D123*
X1031167Y0259445D02*
D03*
X1039829Y0253146D02*
D03*
Y0259445D02*
D03*
X1031167Y0253146D02*
D03*
D124*
X1206033Y0211457D02*
D03*
X1197963D02*
D03*
Y0214016D02*
D03*
Y0216575D02*
D03*
Y0219134D02*
D03*
X1206033D02*
D03*
Y0216575D02*
D03*
Y0214016D02*
D03*
D125*
X1193498Y0278545D02*
D03*
D126*
X1202553Y0253545D02*
D03*
X1193498D02*
D03*
X1184443D02*
D03*
D127*
X1169451Y0248545D02*
D03*
X1163545D02*
D03*
X1169451Y0254651D02*
D03*
X1163545D02*
D03*
X1169451Y0242795D02*
D03*
X1163545D02*
D03*
X1169451Y0236795D02*
D03*
X1163545D02*
D03*
X1163545Y0273045D02*
D03*
X1169451D02*
D03*
X1169451Y0218795D02*
D03*
X1163545D02*
D03*
X1163545Y0212795D02*
D03*
X1169451D02*
D03*
X1169451Y0279295D02*
D03*
X1163545D02*
D03*
X1169451Y0224795D02*
D03*
X1163545D02*
D03*
X1172951Y0115295D02*
D03*
X1167045D02*
D03*
X1169451Y0266795D02*
D03*
X1163545D02*
D03*
X1148451Y0115545D02*
D03*
X1142545D02*
D03*
X1169451Y0230795D02*
D03*
X1163545D02*
D03*
X1169451Y0260795D02*
D03*
X1163545D02*
D03*
X0920045Y0142545D02*
D03*
X0925951D02*
D03*
X0922295Y0163045D02*
D03*
X0928201D02*
D03*
X1031701Y0310795D02*
D03*
X1025795D02*
D03*
X1034045Y0279795D02*
D03*
X1039951D02*
D03*
X0974295Y0337045D02*
D03*
X0980201D02*
D03*
X0967951Y0276545D02*
D03*
X0962045D02*
D03*
X0961451Y0213045D02*
D03*
X0955545D02*
D03*
X0967093Y0301795D02*
D03*
X0972998D02*
D03*
X1034045Y0239295D02*
D03*
X1039951D02*
D03*
X0993045Y0257795D02*
D03*
X0998951D02*
D03*
X0984201Y0262295D02*
D03*
X0978295D02*
D03*
X1008795Y0263045D02*
D03*
X1014701D02*
D03*
X0998951Y0264045D02*
D03*
X0993045D02*
D03*
X0954795Y0201545D02*
D03*
X0960701D02*
D03*
X0955045Y0191545D02*
D03*
X0960951D02*
D03*
X0666701Y0200545D02*
D03*
X0660795D02*
D03*
X0660748Y0207045D02*
D03*
X0666653D02*
D03*
X1161045Y0165545D02*
D03*
X1166951D02*
D03*
X1161045Y0159545D02*
D03*
X1166951D02*
D03*
X0626701Y0245795D02*
D03*
X0620795D02*
D03*
X1184295Y0194795D02*
D03*
X1190201D02*
D03*
X0627795Y0238045D02*
D03*
X0633701D02*
D03*
X0627748Y0231545D02*
D03*
X0633653D02*
D03*
X0891295Y0144295D02*
D03*
X0897201D02*
D03*
X0844451Y0158545D02*
D03*
X0838545D02*
D03*
D128*
X0818248Y0195087D02*
D03*
Y0206504D02*
D03*
X0805748Y0166337D02*
D03*
Y0177754D02*
D03*
X0795748Y0125898D02*
D03*
Y0113693D02*
D03*
D129*
X0831207Y0137545D02*
D03*
X0819789D02*
D03*
X0639600Y0186545D02*
D03*
X0627396D02*
D03*
X0639600Y0176795D02*
D03*
X0627396D02*
D03*
X0640100Y0148545D02*
D03*
X0627896D02*
D03*
X0640100Y0139295D02*
D03*
X0627896D02*
D03*
D130*
X0920280Y0149449D02*
D03*
X0924216D02*
D03*
X0922248Y0156142D02*
D03*
X0903529Y0151449D02*
D03*
X0907467D02*
D03*
X0905498Y0158142D02*
D03*
X0891529Y0151449D02*
D03*
X0895467D02*
D03*
X0893498Y0158142D02*
D03*
D131*
X1198547Y0185957D02*
D03*
X1185949D02*
D03*
Y0168634D02*
D03*
X1198547D02*
D03*
X0851748Y0121545D02*
D03*
D132*
X1177508Y0320795D02*
D03*
X1184988D02*
D03*
X1177258Y0293795D02*
D03*
X1184738D02*
D03*
X1170508Y0330045D02*
D03*
X1177988D02*
D03*
X1170508Y0303045D02*
D03*
X1177988D02*
D03*
X0813488Y0186295D02*
D03*
X0806008D02*
D03*
D133*
X0962795Y0284545D02*
D03*
X0968701D02*
D03*
X1039951Y0285795D02*
D03*
X1034045D02*
D03*
X1201795Y0205045D02*
D03*
X1207701D02*
D03*
X1031951Y0322295D02*
D03*
X1026045D02*
D03*
X0967045Y0313545D02*
D03*
X0972951D02*
D03*
X1031951Y0316795D02*
D03*
X1026045D02*
D03*
X0962795Y0290045D02*
D03*
X0968701D02*
D03*
X1036201Y0274045D02*
D03*
X1030295D02*
D03*
X1045201Y0267045D02*
D03*
X1039295D02*
D03*
X1014701Y0269045D02*
D03*
X1008795D02*
D03*
X1031951Y0299545D02*
D03*
X1026045D02*
D03*
X1038951Y0292795D02*
D03*
X1033045D02*
D03*
X1031951Y0305045D02*
D03*
X1026045D02*
D03*
X0974295Y0273045D02*
D03*
X0980201D02*
D03*
X0974295Y0281045D02*
D03*
X0980201D02*
D03*
X0962795Y0295545D02*
D03*
X0968701D02*
D03*
X0967045Y0308045D02*
D03*
X0972951D02*
D03*
X0982795Y0331295D02*
D03*
X0988701D02*
D03*
X0973295Y0255295D02*
D03*
X0979201D02*
D03*
X1009545Y0256545D02*
D03*
X1015451D02*
D03*
X1034045Y0245045D02*
D03*
X1039951D02*
D03*
X0994795Y0246295D02*
D03*
X1000701D02*
D03*
X0983451D02*
D03*
X0977545D02*
D03*
X1021795Y0239295D02*
D03*
X1027701D02*
D03*
X1010201Y0239545D02*
D03*
X1004295D02*
D03*
X1192951Y0160295D02*
D03*
X1187045D02*
D03*
X1205451Y0287795D02*
D03*
X1199545D02*
D03*
X1196295Y0243295D02*
D03*
X1202201D02*
D03*
X0847295Y0302045D02*
D03*
X0853201D02*
D03*
X0844701Y0152545D02*
D03*
X0838795D02*
D03*
D134*
X0633748Y0167270D02*
D03*
Y0157821D02*
D03*
D135*
X0840998Y0199049D02*
D03*
Y0187041D02*
D03*
D136*
X0815744Y0152045D02*
D03*
X0827752D02*
D03*
D137*
X1159998Y0122195D02*
D03*
Y0115896D02*
D03*
X1135248Y0122195D02*
D03*
Y0115896D02*
D03*
X0882748Y0120445D02*
D03*
Y0114146D02*
D03*
X0627248Y0119595D02*
D03*
Y0113295D02*
D03*
X1199498Y0327998D02*
D03*
Y0322093D02*
D03*
X1162998Y0315593D02*
D03*
Y0321498D02*
D03*
X1198998Y0301998D02*
D03*
Y0296093D02*
D03*
X1162998Y0288843D02*
D03*
Y0294748D02*
D03*
X1193248Y0327998D02*
D03*
Y0322093D02*
D03*
X1169498Y0315593D02*
D03*
Y0321498D02*
D03*
X1192748Y0301998D02*
D03*
Y0296093D02*
D03*
X1169498Y0288843D02*
D03*
Y0294748D02*
D03*
X1162998Y0334998D02*
D03*
Y0329093D02*
D03*
Y0307545D02*
D03*
Y0301640D02*
D03*
X1189248Y0206842D02*
D03*
Y0212748D02*
D03*
X0934748Y0161998D02*
D03*
Y0156093D02*
D03*
X0922498Y0210248D02*
D03*
Y0204343D02*
D03*
X1023248Y0246592D02*
D03*
Y0252498D02*
D03*
X0993498Y0270592D02*
D03*
Y0276498D02*
D03*
X1012998Y0336498D02*
D03*
Y0330592D02*
D03*
X0974998Y0321592D02*
D03*
Y0327498D02*
D03*
X0645498Y0257498D02*
D03*
Y0251592D02*
D03*
X0869498Y0296342D02*
D03*
Y0302248D02*
D03*
D138*
X0908654Y0127266D02*
D03*
X0916331D02*
D03*
X0913772D02*
D03*
X0906094D02*
D03*
X0911213D02*
D03*
D139*
X0915248Y0116045D02*
D03*
X0907177D02*
D03*
D140*
X0923811Y0126380D02*
D03*
X0898614D02*
D03*
D141*
X0896449Y0116045D02*
D03*
X0925976D02*
D03*
D142*
X0611998Y0150295D02*
D03*
X0594281Y0165295D02*
D03*
Y0155295D02*
D03*
Y0145295D02*
D03*
X0611998Y0170295D02*
D03*
Y0160295D02*
D03*
D143*
X0795248Y0180785D02*
D03*
Y0173305D02*
D03*
Y0159305D02*
D03*
Y0166785D02*
D03*
X0808498Y0198805D02*
D03*
Y0206285D02*
D03*
X0819248Y0173535D02*
D03*
Y0166055D02*
D03*
X0845748Y0172055D02*
D03*
Y0179535D02*
D03*
X0827248Y0190305D02*
D03*
Y0197785D02*
D03*
X0840748Y0144535D02*
D03*
Y0137055D02*
D03*
X0805248Y0153535D02*
D03*
Y0146055D02*
D03*
D144*
X0635663Y0327980D02*
D03*
Y0324043D02*
D03*
Y0320106D02*
D03*
Y0316169D02*
D03*
Y0312232D02*
D03*
Y0308295D02*
D03*
Y0304358D02*
D03*
Y0300421D02*
D03*
Y0296484D02*
D03*
Y0292547D02*
D03*
Y0288610D02*
D03*
Y0284673D02*
D03*
Y0280736D02*
D03*
Y0276799D02*
D03*
Y0272862D02*
D03*
X0620998D02*
D03*
Y0276799D02*
D03*
Y0280736D02*
D03*
Y0284673D02*
D03*
Y0288610D02*
D03*
Y0292547D02*
D03*
Y0296484D02*
D03*
Y0300421D02*
D03*
Y0304358D02*
D03*
Y0308295D02*
D03*
Y0312232D02*
D03*
Y0316169D02*
D03*
Y0320106D02*
D03*
Y0324043D02*
D03*
Y0327980D02*
D03*
D145*
X0659998Y0332187D02*
D03*
X0922990D02*
D03*
X0711228Y0199795D02*
D03*
Y0119795D02*
D03*
X0766228Y0199795D02*
D03*
Y0119795D02*
D03*
X0984748Y0148295D02*
D03*
X1034748D02*
D03*
D146*
X0778748Y0199795D02*
D03*
X0698748Y0119795D02*
D03*
Y0199795D02*
D03*
X0738748D02*
D03*
X0728748Y0119795D02*
D03*
X0748748D02*
D03*
X0977996Y0135775D02*
D03*
X1041500D02*
D03*
D147*
X0669998Y0116545D02*
D03*
Y0126545D02*
D03*
Y0136545D02*
D03*
Y0146545D02*
D03*
Y0166545D02*
D03*
Y0176545D02*
D03*
Y0186545D02*
D03*
D148*
X0985752Y0228295D02*
D03*
X0995752D02*
D03*
X1023744D02*
D03*
X1033744D02*
D03*
D149*
X1017740Y0218295D02*
D03*
X1025732D02*
D03*
X1033724D02*
D03*
X0989768Y0208295D02*
D03*
X0997760D02*
D03*
X1021736D02*
D03*
X1029728D02*
D03*
D150*
X1031756Y0180264D02*
D03*
X0987740D02*
D03*
D151*
X0810248Y0127045D02*
D03*
X0820248D02*
D03*
D152*
X0830248D02*
D03*
D153*
X1137890Y0321673D02*
D03*
X1151498Y0161295D02*
D03*
X0593248Y0325295D02*
D03*
D154*
X0951039Y0165667D02*
D03*
Y0157793D02*
D03*
X0945685Y0153856D02*
D03*
X0951039Y0173541D02*
D03*
Y0149919D02*
D03*
X1067604Y0318004D02*
D03*
X1114311Y0171795D02*
D03*
X1105404Y0318004D02*
D03*
X1086502D02*
D03*
D155*
X0940331Y0174604D02*
D03*
X0961748D02*
D03*
X0940331Y0147045D02*
D03*
X0961748D02*
D03*
D156*
X1114604Y0260461D02*
D03*
X1058504Y0290004D02*
D03*
Y0250604D02*
D03*
Y0211204D02*
D03*
Y0280204D02*
D03*
Y0261704D02*
D03*
Y0171804D02*
D03*
X1080904Y0250604D02*
D03*
X1102104D02*
D03*
X1114604Y0230904D02*
D03*
Y0191504D02*
D03*
X1092304Y0171804D02*
D03*
X1114604Y0270304D02*
D03*
Y0280204D02*
D03*
Y0299804D02*
D03*
Y0309704D02*
D03*
X1058504Y0299804D02*
D03*
D157*
X1067756Y0293252D02*
D03*
X1105649Y0293449D02*
D03*
D158*
X0600248Y0345705D02*
D03*
X0997886Y0345705D02*
D03*
X1198673Y0345705D02*
D03*
Y0121295D02*
D03*
X0600248D02*
D03*
D159*
X1012490Y0293553D02*
D03*
X1008159D02*
D03*
X1003829D02*
D03*
X0999498D02*
D03*
X0995167D02*
D03*
X0990837D02*
D03*
X0986506D02*
D03*
X1012490Y0297884D02*
D03*
X1008159D02*
D03*
X1003829D02*
D03*
X0999498D02*
D03*
X0995167D02*
D03*
X0990837D02*
D03*
X0986506D02*
D03*
X1012490Y0302215D02*
D03*
X1008159D02*
D03*
X1003829D02*
D03*
X0999498D02*
D03*
X0995167D02*
D03*
X0990837D02*
D03*
X0986506D02*
D03*
X1012490Y0306545D02*
D03*
X1008159D02*
D03*
X1003829D02*
D03*
X0999498D02*
D03*
X0995167D02*
D03*
X0990837D02*
D03*
X0986506D02*
D03*
X1012490Y0310876D02*
D03*
X1008159D02*
D03*
X1003829D02*
D03*
X0999498D02*
D03*
X0995167D02*
D03*
X0990837D02*
D03*
X0986506D02*
D03*
X1012490Y0315207D02*
D03*
X1008159D02*
D03*
X1003829D02*
D03*
X0999498D02*
D03*
X0995167D02*
D03*
X0990837D02*
D03*
X0986506D02*
D03*
X1012490Y0319537D02*
D03*
X1008159D02*
D03*
X1003829D02*
D03*
X0999498D02*
D03*
X0995167D02*
D03*
X0990837D02*
D03*
X0986506D02*
D03*
M02*
