G04 Layer_Color=8421504*
%FSAX25Y25*%
%MOIN*%
G70*
G01*
G75*
%ADD11R,0.02953X0.01181*%
%ADD12R,0.03268X0.06496*%
%ADD13R,0.03543X0.05118*%
%ADD14R,0.05118X0.03543*%
%ADD15R,0.03150X0.03150*%
%ADD16R,0.03150X0.03150*%
%ADD17R,0.06299X0.03543*%
%ADD18R,0.17716X0.18110*%
%ADD19R,0.01378X0.07874*%
%ADD20R,0.06496X0.02362*%
%ADD21R,0.11811X0.05906*%
%ADD22R,0.14173X0.05906*%
%ADD23R,0.01575X0.03347*%
%ADD24R,0.02362X0.03543*%
%ADD25R,0.03543X0.02362*%
%ADD27R,0.00984X0.03937*%
%ADD28R,0.09843X0.06693*%
%ADD29R,0.03937X0.07284*%
%ADD30R,0.12598X0.07284*%
%ADD31R,0.01181X0.05315*%
%ADD32R,0.05512X0.04331*%
%ADD33R,0.00984X0.03740*%
%ADD34R,0.28740X0.28740*%
%ADD35R,0.03740X0.00984*%
%ADD36R,0.05906X0.14173*%
%ADD37R,0.03543X0.06299*%
%ADD38R,0.07480X0.05315*%
%ADD39R,0.04606X0.07087*%
%ADD40R,0.02953X0.04331*%
%ADD41R,0.06102X0.05315*%
%ADD42R,0.04724X0.03937*%
%ADD43R,0.06299X0.07284*%
%ADD44R,0.05512X0.02362*%
%ADD45R,0.01772X0.04331*%
%ADD46R,0.02362X0.03937*%
%ADD47R,0.09646X0.06102*%
%ADD48R,0.04724X0.05512*%
%ADD50R,0.01575X0.05512*%
D11*
X0901291Y0199248D02*
D03*
Y0201807D02*
D03*
Y0204366D02*
D03*
X0893496Y0199248D02*
D03*
Y0201807D02*
D03*
Y0204366D02*
D03*
X0911331Y0226610D02*
D03*
Y0229169D02*
D03*
Y0231728D02*
D03*
X0903535Y0226610D02*
D03*
Y0229169D02*
D03*
Y0231728D02*
D03*
X1187906Y0211354D02*
D03*
Y0213913D02*
D03*
Y0216472D02*
D03*
X1180110Y0211354D02*
D03*
Y0213913D02*
D03*
Y0216472D02*
D03*
X1140563Y0216768D02*
D03*
Y0219327D02*
D03*
Y0221886D02*
D03*
X1132768Y0216768D02*
D03*
Y0219327D02*
D03*
Y0221886D02*
D03*
D12*
X0897394Y0201807D02*
D03*
X0907433Y0229169D02*
D03*
X1184008Y0213913D02*
D03*
X1136665Y0219327D02*
D03*
D13*
X0810008Y0193795D02*
D03*
X0817488D02*
D03*
X1179776Y0360862D02*
D03*
X1172295D02*
D03*
X1179677Y0390783D02*
D03*
X1172197D02*
D03*
X0607531Y0374150D02*
D03*
X0600051D02*
D03*
X0900937Y0189406D02*
D03*
X0893457D02*
D03*
X0910386Y0218736D02*
D03*
X0902905D02*
D03*
X1188634Y0203480D02*
D03*
X1181153D02*
D03*
X1140799Y0208697D02*
D03*
X1133319D02*
D03*
D14*
X0805498Y0154055D02*
D03*
Y0161535D02*
D03*
X0797498Y0154055D02*
D03*
Y0161535D02*
D03*
X0827498Y0205785D02*
D03*
Y0198305D02*
D03*
X0845998Y0187535D02*
D03*
Y0180055D02*
D03*
X0819498Y0174055D02*
D03*
Y0181535D02*
D03*
X0816998Y0212785D02*
D03*
Y0205305D02*
D03*
X0779498Y0199305D02*
D03*
Y0206785D02*
D03*
Y0192785D02*
D03*
Y0185305D02*
D03*
X1178890Y0344819D02*
D03*
Y0352299D02*
D03*
X1180169Y0374150D02*
D03*
Y0381630D02*
D03*
D15*
X0844951Y0160545D02*
D03*
X0839045D02*
D03*
X0716587Y0302791D02*
D03*
X0710681D02*
D03*
X1184697Y0256433D02*
D03*
X1190602D02*
D03*
X1190799Y0301512D02*
D03*
X1184894D02*
D03*
X0894441Y0375429D02*
D03*
X0888535D02*
D03*
X1007728Y0266866D02*
D03*
X1001823D02*
D03*
X1018161Y0266276D02*
D03*
X1024067D02*
D03*
X0980957Y0270311D02*
D03*
X0975051D02*
D03*
X0992472Y0272476D02*
D03*
X0998378D02*
D03*
X1031626Y0276551D02*
D03*
X1037531D02*
D03*
X1007126Y0288051D02*
D03*
X1013031D02*
D03*
X0970130Y0278087D02*
D03*
X0976035D02*
D03*
X0980376Y0362801D02*
D03*
X0986281D02*
D03*
X0964626Y0339551D02*
D03*
X0970531D02*
D03*
X0960376Y0327051D02*
D03*
X0966282D02*
D03*
X0971876Y0312551D02*
D03*
X0977781D02*
D03*
X0971876Y0304551D02*
D03*
X0977781D02*
D03*
X1036716Y0361551D02*
D03*
X1030811D02*
D03*
X1036665Y0350232D02*
D03*
X1030760D02*
D03*
X1036716Y0356051D02*
D03*
X1030811D02*
D03*
X1012282Y0300551D02*
D03*
X1006376D02*
D03*
X1042782Y0298551D02*
D03*
X1036876D02*
D03*
X1035484Y0309484D02*
D03*
X1029579D02*
D03*
X0960376Y0321551D02*
D03*
X0966282D02*
D03*
X1036716Y0373301D02*
D03*
X1030811D02*
D03*
X0964626Y0345051D02*
D03*
X0970531D02*
D03*
X1036716Y0378801D02*
D03*
X1030811D02*
D03*
X0894244Y0182516D02*
D03*
X0900150D02*
D03*
X1187421Y0331413D02*
D03*
X1181516D02*
D03*
X1193858Y0380018D02*
D03*
X1187953D02*
D03*
X1187421Y0325163D02*
D03*
X1181516D02*
D03*
X1193858Y0373768D02*
D03*
X1187953D02*
D03*
X1036567Y0344327D02*
D03*
X1030661D02*
D03*
X0960376Y0316051D02*
D03*
X0966282D02*
D03*
X0667965Y0320901D02*
D03*
X0673870D02*
D03*
X0667965Y0327890D02*
D03*
X0673870D02*
D03*
X0888535Y0179957D02*
D03*
X0882630D02*
D03*
X0908319Y0211748D02*
D03*
X0902413D02*
D03*
X1187945Y0196000D02*
D03*
X1193850D02*
D03*
X1181646D02*
D03*
X1175740D02*
D03*
X1123575Y0201807D02*
D03*
X1129480D02*
D03*
X1135583Y0201905D02*
D03*
X1141488D02*
D03*
D16*
X0693161Y0308598D02*
D03*
Y0302693D02*
D03*
X0972579Y0353098D02*
D03*
Y0359004D02*
D03*
X1004677Y0374051D02*
D03*
Y0368146D02*
D03*
X0993752Y0297575D02*
D03*
Y0303480D02*
D03*
X1020829Y0278098D02*
D03*
Y0284004D02*
D03*
X0878201Y0215685D02*
D03*
Y0221590D02*
D03*
X1165110Y0365390D02*
D03*
Y0359484D02*
D03*
X1165043Y0394338D02*
D03*
Y0388433D02*
D03*
X1171311Y0346787D02*
D03*
Y0352693D02*
D03*
X1171606Y0375921D02*
D03*
Y0381827D02*
D03*
X1165110Y0346787D02*
D03*
Y0352693D02*
D03*
X1165043Y0374933D02*
D03*
Y0380839D02*
D03*
X0802498Y0111146D02*
D03*
Y0117445D02*
D03*
X0846998Y0111396D02*
D03*
Y0117695D02*
D03*
X1135248Y0115896D02*
D03*
Y0122195D02*
D03*
X1159998Y0115896D02*
D03*
Y0122195D02*
D03*
X0917768Y0221000D02*
D03*
Y0215094D02*
D03*
D17*
X0780248Y0130648D02*
D03*
Y0118443D02*
D03*
X0883713Y0198264D02*
D03*
Y0186059D02*
D03*
X0894835Y0229465D02*
D03*
Y0217260D02*
D03*
X0959498Y0189754D02*
D03*
Y0178337D02*
D03*
X1172591Y0215291D02*
D03*
Y0203087D02*
D03*
X1125346Y0221000D02*
D03*
Y0208795D02*
D03*
D18*
X0641746Y0319648D02*
D03*
X0897258D02*
D03*
D19*
X0644896Y0256262D02*
D03*
X0647258D02*
D03*
X0649620D02*
D03*
X0651982D02*
D03*
X0654344D02*
D03*
X0656707D02*
D03*
X0659069D02*
D03*
X0661431D02*
D03*
X0663793D02*
D03*
X0666155D02*
D03*
X0668518D02*
D03*
X0670880D02*
D03*
X0673242D02*
D03*
X0675604D02*
D03*
X0677966D02*
D03*
X0680329D02*
D03*
X0682691D02*
D03*
X0685053D02*
D03*
X0687415D02*
D03*
X0689778D02*
D03*
X0646077Y0288545D02*
D03*
X0648439D02*
D03*
X0650801D02*
D03*
X0653163D02*
D03*
X0655526D02*
D03*
X0657888D02*
D03*
X0660250D02*
D03*
X0662612D02*
D03*
X0664974D02*
D03*
X0667337D02*
D03*
X0669699D02*
D03*
X0672061D02*
D03*
X0674423D02*
D03*
X0676785D02*
D03*
X0679148D02*
D03*
X0681510D02*
D03*
X0683872D02*
D03*
X0686234D02*
D03*
X0688596D02*
D03*
X0690959D02*
D03*
X0706313Y0256262D02*
D03*
X0708675D02*
D03*
X0711037D02*
D03*
X0713400D02*
D03*
X0715762D02*
D03*
X0718124D02*
D03*
X0720486D02*
D03*
X0722848D02*
D03*
X0725211D02*
D03*
X0727573D02*
D03*
X0729935D02*
D03*
X0732297D02*
D03*
X0734659D02*
D03*
X0737022D02*
D03*
X0739384D02*
D03*
X0741746D02*
D03*
X0744108D02*
D03*
X0746470D02*
D03*
X0748833D02*
D03*
X0751195D02*
D03*
X0753557D02*
D03*
X0755919D02*
D03*
X0758282D02*
D03*
X0760644D02*
D03*
X0763006D02*
D03*
X0765368D02*
D03*
X0767730D02*
D03*
X0770092D02*
D03*
X0772455D02*
D03*
X0774817D02*
D03*
X0777179D02*
D03*
X0779541D02*
D03*
X0781904D02*
D03*
X0784266D02*
D03*
X0786628D02*
D03*
X0788990D02*
D03*
X0791352D02*
D03*
X0793715D02*
D03*
X0796077D02*
D03*
X0798439D02*
D03*
X0800801D02*
D03*
X0803163D02*
D03*
X0805526D02*
D03*
X0807888D02*
D03*
X0810250D02*
D03*
X0812612D02*
D03*
X0814974D02*
D03*
X0817337D02*
D03*
X0819699D02*
D03*
X0822061D02*
D03*
X0824423D02*
D03*
X0826785D02*
D03*
X0829148D02*
D03*
X0836234D02*
D03*
X0838596D02*
D03*
X0840959D02*
D03*
X0843321D02*
D03*
X0850408D02*
D03*
X0857494D02*
D03*
X0859856D02*
D03*
X0862218D02*
D03*
X0864581D02*
D03*
X0866943D02*
D03*
X0869305D02*
D03*
X0871667D02*
D03*
X0874030D02*
D03*
X0876392D02*
D03*
X0878754D02*
D03*
X0881116D02*
D03*
X0883478D02*
D03*
X0885841D02*
D03*
X0888203D02*
D03*
X0890565D02*
D03*
X0892927D02*
D03*
X0707494Y0288545D02*
D03*
X0709856D02*
D03*
X0712219D02*
D03*
X0714581D02*
D03*
X0716943D02*
D03*
X0719305D02*
D03*
X0721667D02*
D03*
X0724029D02*
D03*
X0726392D02*
D03*
X0728754D02*
D03*
X0731116D02*
D03*
X0733478D02*
D03*
X0735841D02*
D03*
X0738203D02*
D03*
X0740565D02*
D03*
X0742927D02*
D03*
X0745289D02*
D03*
X0747651D02*
D03*
X0750014D02*
D03*
X0752376D02*
D03*
X0754738D02*
D03*
X0757100D02*
D03*
X0759463D02*
D03*
X0761825D02*
D03*
X0764187D02*
D03*
X0766549D02*
D03*
X0768911D02*
D03*
X0771274D02*
D03*
X0773636D02*
D03*
X0775998D02*
D03*
X0778360D02*
D03*
X0780722D02*
D03*
X0783085D02*
D03*
X0785447D02*
D03*
X0787809D02*
D03*
X0790171D02*
D03*
X0792533D02*
D03*
X0794896D02*
D03*
X0797258D02*
D03*
X0799620D02*
D03*
X0801982D02*
D03*
X0804344D02*
D03*
X0806707D02*
D03*
X0809069D02*
D03*
X0811431D02*
D03*
X0813793D02*
D03*
X0816156D02*
D03*
X0818518D02*
D03*
X0820880D02*
D03*
X0823242D02*
D03*
X0825604D02*
D03*
X0827966D02*
D03*
X0830329D02*
D03*
X0832691D02*
D03*
X0835053D02*
D03*
X0837415D02*
D03*
X0839777D02*
D03*
X0842140D02*
D03*
X0844502D02*
D03*
X0846864D02*
D03*
X0849226D02*
D03*
X0851589D02*
D03*
X0853951D02*
D03*
X0856313D02*
D03*
X0858675D02*
D03*
X0861037D02*
D03*
X0863400D02*
D03*
X0865762D02*
D03*
X0868124D02*
D03*
X0870486D02*
D03*
X0872848D02*
D03*
X0875211D02*
D03*
X0877573D02*
D03*
X0879935D02*
D03*
X0882297D02*
D03*
X0884659D02*
D03*
X0887022D02*
D03*
X0889384D02*
D03*
X0891746D02*
D03*
X0894108D02*
D03*
X0855132Y0256262D02*
D03*
X0852770D02*
D03*
X0848045D02*
D03*
X0845683D02*
D03*
X0833872D02*
D03*
X0831510D02*
D03*
D20*
X0932039Y0350429D02*
D03*
Y0346492D02*
D03*
Y0318933D02*
D03*
Y0330744D02*
D03*
Y0334681D02*
D03*
Y0338618D02*
D03*
Y0342555D02*
D03*
Y0354366D02*
D03*
Y0358303D02*
D03*
Y0362240D02*
D03*
Y0366177D02*
D03*
Y0370114D02*
D03*
Y0374051D02*
D03*
X0946705D02*
D03*
Y0370114D02*
D03*
Y0366177D02*
D03*
Y0362240D02*
D03*
Y0358303D02*
D03*
Y0354366D02*
D03*
Y0350429D02*
D03*
Y0346492D02*
D03*
Y0342555D02*
D03*
Y0338618D02*
D03*
Y0334681D02*
D03*
Y0330744D02*
D03*
Y0326807D02*
D03*
Y0322870D02*
D03*
Y0318933D02*
D03*
X0932039Y0326807D02*
D03*
Y0322870D02*
D03*
D21*
X0617669Y0148401D02*
D03*
X0599953Y0163401D02*
D03*
Y0153402D02*
D03*
Y0143402D02*
D03*
X0617669Y0168402D02*
D03*
Y0158402D02*
D03*
D22*
X0841248Y0195041D02*
D03*
Y0207049D02*
D03*
D23*
X0871114Y0166374D02*
D03*
X0875051D02*
D03*
X0873083Y0173067D02*
D03*
X0885484Y0173165D02*
D03*
X0881547D02*
D03*
X0883516Y0166472D02*
D03*
X0859717Y0156892D02*
D03*
X0855779D02*
D03*
X0857748Y0150199D02*
D03*
X0888966Y0150142D02*
D03*
X0885030D02*
D03*
X0886998Y0143449D02*
D03*
X0874854Y0150134D02*
D03*
X0870917D02*
D03*
X0872886Y0143441D02*
D03*
D24*
X0838795Y0166545D02*
D03*
X0844701D02*
D03*
X0835482Y0371069D02*
D03*
X0829577D02*
D03*
X0835530Y0377569D02*
D03*
X0829624D02*
D03*
X0841390Y0238224D02*
D03*
X0835484D02*
D03*
X0841403Y0232189D02*
D03*
X0835498D02*
D03*
X1155858Y0230252D02*
D03*
X1161764D02*
D03*
X0621114Y0238913D02*
D03*
X0627020D02*
D03*
X0626331Y0192555D02*
D03*
X0620425D02*
D03*
X0620425Y0186551D02*
D03*
X0626331D02*
D03*
X0991193Y0287831D02*
D03*
X0997098D02*
D03*
X1012282Y0294551D02*
D03*
X1006376D02*
D03*
X0975937Y0285469D02*
D03*
X0981843D02*
D03*
X0997098Y0281335D02*
D03*
X0991193D02*
D03*
X1037531Y0270801D02*
D03*
X1031626D02*
D03*
X0970579Y0333301D02*
D03*
X0964673D02*
D03*
X0972197Y0242063D02*
D03*
X0978102D02*
D03*
X0959626Y0308051D02*
D03*
X0965532D02*
D03*
X0977781Y0368551D02*
D03*
X0971876D02*
D03*
X1035484Y0315882D02*
D03*
X1029579D02*
D03*
X1030561Y0367301D02*
D03*
X1036467D02*
D03*
X0844045Y0150045D02*
D03*
X0849951D02*
D03*
X0854045Y0141795D02*
D03*
X0859951D02*
D03*
X0599461Y0382417D02*
D03*
X0605366D02*
D03*
X1165504Y0313815D02*
D03*
X1171409D02*
D03*
X1165492Y0319837D02*
D03*
X1171398D02*
D03*
X1165307Y0338618D02*
D03*
X1171213D02*
D03*
X1165492Y0332337D02*
D03*
X1171398D02*
D03*
X1174547Y0224892D02*
D03*
X1168642D02*
D03*
X1168642Y0230892D02*
D03*
X1174547D02*
D03*
X1165405Y0326118D02*
D03*
X1171311D02*
D03*
X1174854Y0244720D02*
D03*
X1168949D02*
D03*
X1168850Y0250724D02*
D03*
X1174756D02*
D03*
X1165492Y0307693D02*
D03*
X1171398D02*
D03*
X1165492Y0301587D02*
D03*
X1171398D02*
D03*
X0880366Y0158795D02*
D03*
X0886272D02*
D03*
X0894244Y0176118D02*
D03*
X0900150D02*
D03*
D25*
X0687207Y0308506D02*
D03*
Y0302600D02*
D03*
X0680419Y0308506D02*
D03*
Y0302600D02*
D03*
X0802498Y0122843D02*
D03*
Y0128748D02*
D03*
X0846998Y0124045D02*
D03*
Y0129951D02*
D03*
X0860248Y0169998D02*
D03*
Y0164093D02*
D03*
X0874658Y0178776D02*
D03*
Y0184681D02*
D03*
X1136665Y0187240D02*
D03*
Y0181335D02*
D03*
X0868555Y0229760D02*
D03*
Y0223854D02*
D03*
X0862453Y0229760D02*
D03*
Y0223854D02*
D03*
X1025051Y0259386D02*
D03*
Y0253480D02*
D03*
X1020829Y0292348D02*
D03*
Y0298254D02*
D03*
X1135248Y0134498D02*
D03*
Y0128593D02*
D03*
X1159998Y0134498D02*
D03*
Y0128593D02*
D03*
X1175346Y0176709D02*
D03*
Y0182614D02*
D03*
X1187551Y0176709D02*
D03*
Y0182614D02*
D03*
X1181449Y0176709D02*
D03*
Y0182614D02*
D03*
X1193653Y0176709D02*
D03*
Y0182614D02*
D03*
X1048969Y0198559D02*
D03*
Y0204465D02*
D03*
X1048378Y0334386D02*
D03*
Y0340291D02*
D03*
X0643850Y0196394D02*
D03*
Y0190488D02*
D03*
X0643653Y0176118D02*
D03*
Y0182024D02*
D03*
X0893752Y0165291D02*
D03*
Y0159386D02*
D03*
X0907433Y0205842D02*
D03*
Y0199937D02*
D03*
X0918653Y0235567D02*
D03*
Y0229661D02*
D03*
X1193850Y0219720D02*
D03*
Y0213815D02*
D03*
X1186075Y0231827D02*
D03*
Y0237732D02*
D03*
X1147098Y0208401D02*
D03*
Y0214307D02*
D03*
X1130563Y0187240D02*
D03*
Y0181335D02*
D03*
D27*
X0836177Y0187488D02*
D03*
X0834406D02*
D03*
X0832634D02*
D03*
X0830862D02*
D03*
X0827319D02*
D03*
Y0174102D02*
D03*
X0829090Y0187488D02*
D03*
Y0174102D02*
D03*
X0830862D02*
D03*
X0832634D02*
D03*
X0834406D02*
D03*
X0836177D02*
D03*
D28*
X0831748Y0180795D02*
D03*
D29*
X1169047Y0266965D02*
D03*
X1178102D02*
D03*
X1187158D02*
D03*
D30*
X1178102Y0291965D02*
D03*
D31*
X0867177Y0191276D02*
D03*
X0873083Y0208795D02*
D03*
X0871114D02*
D03*
X0865209D02*
D03*
X0873083Y0191276D02*
D03*
X0871114D02*
D03*
X0869146D02*
D03*
Y0208795D02*
D03*
X0867177D02*
D03*
X0865209Y0191276D02*
D03*
D32*
X1028748Y0284651D02*
D03*
X1037409Y0290951D02*
D03*
Y0284651D02*
D03*
X1028748Y0290951D02*
D03*
D33*
X1000031Y0320827D02*
D03*
X1002000D02*
D03*
X1011843D02*
D03*
X1009874D02*
D03*
X1007905D02*
D03*
X1005937D02*
D03*
X1003969D02*
D03*
X0998063D02*
D03*
X0996094D02*
D03*
X0994126D02*
D03*
X0992157D02*
D03*
X0990189D02*
D03*
X0988220D02*
D03*
X0986252D02*
D03*
X0984283D02*
D03*
X0982315D02*
D03*
Y0355276D02*
D03*
X0984283D02*
D03*
X0986252D02*
D03*
X0988220D02*
D03*
X0990189D02*
D03*
X0992157D02*
D03*
X0994126D02*
D03*
X0996094D02*
D03*
X0998063D02*
D03*
X1000031D02*
D03*
X1002000D02*
D03*
X1003969D02*
D03*
X1005937D02*
D03*
X1007905D02*
D03*
X1009874D02*
D03*
X1011843D02*
D03*
D34*
X0997079Y0338051D02*
D03*
D35*
X0979854Y0323287D02*
D03*
Y0325256D02*
D03*
Y0327224D02*
D03*
Y0329193D02*
D03*
Y0331161D02*
D03*
Y0333130D02*
D03*
Y0335098D02*
D03*
Y0337067D02*
D03*
Y0339035D02*
D03*
Y0341004D02*
D03*
Y0342972D02*
D03*
Y0344941D02*
D03*
Y0346909D02*
D03*
Y0348878D02*
D03*
Y0350846D02*
D03*
Y0352815D02*
D03*
X1014303D02*
D03*
Y0350846D02*
D03*
Y0348878D02*
D03*
Y0346909D02*
D03*
Y0344941D02*
D03*
Y0342972D02*
D03*
Y0341004D02*
D03*
Y0339035D02*
D03*
Y0337067D02*
D03*
Y0335098D02*
D03*
Y0333130D02*
D03*
Y0331161D02*
D03*
Y0329193D02*
D03*
Y0327224D02*
D03*
Y0325256D02*
D03*
Y0323287D02*
D03*
D36*
X0828002Y0160045D02*
D03*
X0815994D02*
D03*
D37*
X0611961Y0364602D02*
D03*
X0599756D02*
D03*
X0799707Y0195045D02*
D03*
X0788289D02*
D03*
X0960957Y0226295D02*
D03*
X0949539D02*
D03*
D38*
X0696606Y0340291D02*
D03*
X0672984D02*
D03*
D39*
X0704480Y0381236D02*
D03*
D40*
X0699756Y0382417D02*
D03*
X0695425D02*
D03*
X0691094D02*
D03*
X0686764D02*
D03*
X0682433D02*
D03*
X0678102D02*
D03*
X0673772D02*
D03*
X0669441D02*
D03*
D41*
X0659598Y0382024D02*
D03*
D42*
X0658811Y0358401D02*
D03*
Y0343835D02*
D03*
D43*
X0663319Y0197673D02*
D03*
X0653319D02*
D03*
X0663319Y0162831D02*
D03*
X0653319D02*
D03*
D44*
X0633516Y0153579D02*
D03*
X0642965Y0157319D02*
D03*
Y0149838D02*
D03*
D45*
X0789909Y0207927D02*
D03*
X0792469D02*
D03*
X0795027D02*
D03*
X0797587D02*
D03*
Y0218163D02*
D03*
X0795027D02*
D03*
X0792469D02*
D03*
X0789909D02*
D03*
D46*
X0915110Y0193441D02*
D03*
Y0182614D02*
D03*
X0918850D02*
D03*
X0911370D02*
D03*
X0918850Y0193441D02*
D03*
X0911370D02*
D03*
X0930366D02*
D03*
X0926626Y0182614D02*
D03*
X0930366D02*
D03*
X0934106D02*
D03*
Y0193441D02*
D03*
X0926626D02*
D03*
X1005464Y0256630D02*
D03*
X1001724D02*
D03*
X0997984D02*
D03*
Y0245803D02*
D03*
X1001724D02*
D03*
X1005464D02*
D03*
X1168260Y0194720D02*
D03*
X1164520D02*
D03*
X1160779D02*
D03*
Y0183894D02*
D03*
X1164520D02*
D03*
X1168260D02*
D03*
X1152610Y0194720D02*
D03*
X1148870D02*
D03*
X1145130D02*
D03*
Y0183894D02*
D03*
X1148870D02*
D03*
X1152610D02*
D03*
D47*
X0960949Y0214545D02*
D03*
X0948547D02*
D03*
X0960949Y0201295D02*
D03*
X0948547D02*
D03*
D48*
X0857150Y0122770D02*
D03*
X0882346D02*
D03*
D50*
X0864630Y0123655D02*
D03*
X0872307D02*
D03*
X0874866D02*
D03*
X0869748D02*
D03*
X0867189D02*
D03*
M02*
