G04 Layer_Color=16711935*
%FSAX25Y25*%
%MOIN*%
G70*
G01*
G75*
%ADD51C,0.01181*%
%ADD52C,0.01969*%
%ADD65C,0.01000*%
%ADD141C,0.00787*%
%ADD142C,0.00394*%
%ADD143C,0.00500*%
%ADD211C,0.03150*%
%ADD212C,0.00197*%
%ADD213R,0.02420X0.11496*%
D51*
X0900313Y0199445D02*
G03*
X0900313Y0199445I-0000557J0000000D01*
G01*
X0870883Y0173657D02*
G03*
X0870883Y0173657I-0000557J0000000D01*
G01*
X0886828Y0165882D02*
G03*
X0886828Y0165882I-0000557J0000000D01*
G01*
X0861061Y0149608D02*
G03*
X0861061Y0149608I-0000557J0000000D01*
G01*
X0643521Y0146492D02*
G03*
X0643521Y0146492I-0000557J0000000D01*
G01*
X0789580Y0210683D02*
G03*
X0789580Y0210683I-0000557J0000000D01*
G01*
X0890311Y0142858D02*
G03*
X0890311Y0142858I-0000557J0000000D01*
G01*
X0876198Y0142850D02*
G03*
X0876198Y0142850I-0000557J0000000D01*
G01*
X0919998Y0192752D02*
G03*
X0919998Y0192752I-0000557J0000000D01*
G01*
X0935254D02*
G03*
X0935254Y0192752I-0000557J0000000D01*
G01*
X0910352Y0226807D02*
G03*
X0910352Y0226807I-0000557J0000000D01*
G01*
X1006612Y0255941D02*
G03*
X1006612Y0255941I-0000557J0000000D01*
G01*
X1169407Y0194031D02*
G03*
X1169407Y0194031I-0000557J0000000D01*
G01*
X1186927Y0211551D02*
G03*
X1186927Y0211551I-0000557J0000000D01*
G01*
X1139584Y0216965D02*
G03*
X1139584Y0216965I-0000557J0000000D01*
G01*
X1153757Y0194032D02*
G03*
X1153757Y0194032I-0000557J0000000D01*
G01*
D52*
X1070998Y0316087D02*
G03*
X1070998Y0316087I-0000880J0000000D01*
G01*
X0620982Y0142496D02*
G03*
X0620982Y0142496I-0000557J0000000D01*
G01*
X0598279Y0324957D02*
G03*
X0598279Y0324957I-0000984J0000000D01*
G01*
X0836242Y0188079D02*
G03*
X0836242Y0188079I-0000557J0000000D01*
G01*
X1167636Y0266079D02*
G03*
X1167636Y0266079I-0000557J0000000D01*
G01*
X0874493Y0207122D02*
G03*
X0874493Y0207122I-0000623J0000000D01*
G01*
X1028059Y0283963D02*
G03*
X1028059Y0283963I-0000787J0000000D01*
G01*
X1015392Y0322303D02*
G03*
X1015392Y0322303I-0000793J0000000D01*
G01*
X0665627Y0190488D02*
G03*
X0665627Y0190488I-0000812J0000000D01*
G01*
D65*
X0813307Y0119315D02*
G03*
X0813307Y0119315I-0000394J0000000D01*
G01*
X0621016Y0127949D02*
G03*
X0621016Y0127949I-0000394J0000000D01*
G01*
X0661506Y0122275D02*
G03*
X0661506Y0122275I-0000394J0000000D01*
G01*
X1128496Y0244504D02*
G03*
X1128496Y0244504I-0000394J0000000D01*
G01*
X0820835Y0189858D02*
Y0197732D01*
X0806661D02*
X0820835D01*
X0806661Y0189858D02*
Y0197732D01*
Y0189858D02*
X0820835D01*
X0801561Y0164882D02*
X0809435D01*
X0801561Y0150709D02*
Y0164882D01*
Y0150709D02*
X0809435D01*
Y0164882D01*
X0793561D02*
X0801435D01*
X0793561Y0150709D02*
Y0164882D01*
Y0150709D02*
X0801435D01*
Y0164882D01*
X0823561Y0194959D02*
X0831435D01*
Y0209132D01*
X0823561D02*
X0831435D01*
X0823561Y0194959D02*
Y0209132D01*
X0842061Y0176709D02*
X0849935D01*
Y0190882D01*
X0842061D02*
X0849935D01*
X0842061Y0176709D02*
Y0190882D01*
X0815561Y0184882D02*
X0823435D01*
X0815561Y0170709D02*
Y0184882D01*
Y0170709D02*
X0823435D01*
Y0184882D01*
X0813061Y0201959D02*
X0820935D01*
Y0216132D01*
X0813061D02*
X0820935D01*
X0813061Y0201959D02*
Y0216132D01*
X0775561Y0210132D02*
X0783435D01*
X0775561Y0195959D02*
Y0210132D01*
Y0195959D02*
X0783435D01*
Y0210132D01*
X0775561Y0181959D02*
X0783435D01*
Y0196132D01*
X0775561D02*
X0783435D01*
X0775561Y0181959D02*
Y0196132D01*
X0799348Y0108390D02*
X0805648D01*
X0799348Y0107209D02*
X0805648D01*
Y0120201D01*
X0799348D02*
X0805648D01*
X0799348Y0107209D02*
Y0120201D01*
X0843848Y0108640D02*
X0850148D01*
X0843848Y0107459D02*
X0850148D01*
Y0120451D01*
X0843848D02*
X0850148D01*
X0843848Y0107459D02*
Y0120451D01*
X1132098Y0113140D02*
X1138398D01*
X1132098Y0111959D02*
X1138398D01*
Y0124951D01*
X1132098D02*
X1138398D01*
X1132098Y0111959D02*
Y0124951D01*
X1156848Y0113140D02*
X1163148D01*
X1156848Y0111959D02*
X1163148D01*
Y0124951D01*
X1156848D02*
X1163148D01*
X1156848Y0111959D02*
Y0124951D01*
X1168949Y0356925D02*
Y0364799D01*
Y0356925D02*
X1183122D01*
Y0364799D01*
X1168949D02*
X1183122D01*
X1168850Y0386846D02*
Y0394720D01*
Y0386846D02*
X1183024D01*
Y0394720D01*
X1168850D02*
X1183024D01*
X1174953Y0355646D02*
X1182827D01*
X1174953Y0341472D02*
Y0355646D01*
Y0341472D02*
X1182827D01*
Y0355646D01*
X1176232Y0384976D02*
X1184106D01*
X1176232Y0370803D02*
Y0384976D01*
Y0370803D02*
X1184106D01*
Y0384976D01*
X0596705Y0370213D02*
Y0378087D01*
Y0370213D02*
X0610878D01*
Y0378087D01*
X0596705D02*
X0610878D01*
X0618653Y0110232D02*
Y0129681D01*
Y0110232D02*
X0628102D01*
Y0129681D01*
X0618653D02*
X0628102D01*
X0890110Y0185468D02*
Y0193342D01*
Y0185468D02*
X0904283D01*
Y0193342D01*
X0890110D02*
X0904283D01*
X0899559Y0214799D02*
Y0222673D01*
Y0214799D02*
X0913732D01*
Y0222673D01*
X0899559D02*
X0913732D01*
X1177807Y0199543D02*
Y0207417D01*
Y0199543D02*
X1191980D01*
Y0207417D01*
X1177807D02*
X1191980D01*
X1129972Y0204760D02*
Y0212634D01*
Y0204760D02*
X1144146D01*
Y0212634D01*
X1129972D02*
X1144146D01*
X0837401Y0128882D02*
Y0122884D01*
X0834402D01*
X0833403Y0123883D01*
Y0125883D01*
X0834402Y0126883D01*
X0837401D01*
X0831404Y0128882D02*
X0829404D01*
X0830404D01*
Y0122884D01*
X0831404Y0123883D01*
X0835202Y0186307D02*
X0829371D01*
X0828205Y0185141D01*
Y0182808D01*
X0829371Y0181642D01*
X0835202D01*
X0828205Y0179309D02*
Y0176977D01*
Y0178143D01*
X0835202D01*
X0834036Y0179309D01*
X0621332Y0116200D02*
X0620333Y0115200D01*
Y0113200D01*
X0621332Y0112201D01*
X0625331D01*
X0626331Y0113200D01*
Y0115200D01*
X0625331Y0116200D01*
X0620333Y0121198D02*
Y0119199D01*
X0621332Y0118199D01*
X0625331D01*
X0626331Y0119199D01*
Y0121198D01*
X0625331Y0122197D01*
X0621332D01*
X0620333Y0121198D01*
X0626331Y0124197D02*
X0620333D01*
X0626331Y0128196D01*
X0620333D01*
X0621332Y0130195D02*
X0620333Y0131195D01*
Y0133194D01*
X0621332Y0134194D01*
X0622332D01*
X0623332Y0133194D01*
X0624331Y0134194D01*
X0625331D01*
X0626331Y0133194D01*
Y0131195D01*
X0625331Y0130195D01*
X0624331D01*
X0623332Y0131195D01*
X0622332Y0130195D01*
X0621332D01*
X0623332Y0131195D02*
Y0133194D01*
X0654476Y0108891D02*
X0655475Y0107892D01*
X0657475D01*
X0658474Y0108891D01*
Y0112890D01*
X0657475Y0113890D01*
X0655475D01*
X0654476Y0112890D01*
X0649477Y0107892D02*
X0651477D01*
X0652476Y0108891D01*
Y0112890D01*
X0651477Y0113890D01*
X0649477D01*
X0648478Y0112890D01*
Y0108891D01*
X0649477Y0107892D01*
X0646478Y0113890D02*
Y0107892D01*
X0642480Y0113890D01*
Y0107892D01*
X0637481Y0113890D02*
Y0107892D01*
X0640480Y0110891D01*
X0636482D01*
X1155740Y0242260D02*
Y0236262D01*
X1152741D01*
X1151741Y0237261D01*
Y0239261D01*
X1152741Y0240261D01*
X1155740D01*
X1145743Y0242260D02*
X1149742D01*
X1145743Y0238261D01*
Y0237261D01*
X1146743Y0236262D01*
X1148742D01*
X1149742Y0237261D01*
X0865873Y0115366D02*
X0864873Y0116366D01*
X0862874D01*
X0861874Y0115366D01*
Y0111368D01*
X0862874Y0110368D01*
X0864873D01*
X0865873Y0111368D01*
X0870871Y0116366D02*
X0868872D01*
X0867872Y0115366D01*
Y0111368D01*
X0868872Y0110368D01*
X0870871D01*
X0871871Y0111368D01*
Y0115366D01*
X0870871Y0116366D01*
X0873870Y0110368D02*
Y0116366D01*
X0877869Y0110368D01*
Y0116366D01*
X0879868Y0111368D02*
X0880868Y0110368D01*
X0882867D01*
X0883867Y0111368D01*
Y0115366D01*
X0882867Y0116366D01*
X0880868D01*
X0879868Y0115366D01*
Y0114367D01*
X0880868Y0113367D01*
X0883867D01*
D141*
X0811024Y0096500D02*
X0840551D01*
X0811024D02*
Y0136362D01*
X0840551D01*
Y0096500D02*
Y0136362D01*
X0836248Y0157795D02*
X0847748D01*
X0836248D02*
Y0163295D01*
X0847748D01*
Y0157795D02*
Y0163295D01*
X0695911Y0299896D02*
Y0311396D01*
X0690411Y0299896D02*
X0695911D01*
X0690411D02*
Y0311396D01*
X0695911D01*
X0707884Y0300041D02*
X0719384D01*
X0707884D02*
Y0305541D01*
X0719384D01*
Y0300041D02*
Y0305541D01*
X1181900Y0259183D02*
X1193400D01*
Y0253683D02*
Y0259183D01*
X1181900Y0253683D02*
X1193400D01*
X1181900D02*
Y0259183D01*
X1182096Y0298762D02*
X1193596D01*
X1182096D02*
Y0304262D01*
X1193596D01*
Y0298762D02*
Y0304262D01*
X0885738Y0372679D02*
X0897238D01*
X0885738D02*
Y0378179D01*
X0897238D01*
Y0372679D02*
Y0378179D01*
X0775748Y0115545D02*
X0784748D01*
Y0133545D01*
X0775748D02*
X0784748D01*
X0775748Y0115545D02*
Y0133545D01*
X0999026Y0264116D02*
X1010526D01*
X0999026D02*
Y0269616D01*
X1010526D01*
Y0264116D02*
Y0269616D01*
X1015364Y0269026D02*
X1026864D01*
Y0263526D02*
Y0269026D01*
X1015364Y0263526D02*
X1026864D01*
X1015364D02*
Y0269026D01*
X0972254Y0267561D02*
X0983754D01*
X0972254D02*
Y0273061D01*
X0983754D01*
Y0267561D02*
Y0273061D01*
X0989675Y0275226D02*
X1001175D01*
Y0269726D02*
Y0275226D01*
X0989675Y0269726D02*
X1001175D01*
X0989675D02*
Y0275226D01*
X1028829Y0279301D02*
X1040329D01*
Y0273801D02*
Y0279301D01*
X1028829Y0273801D02*
X1040329D01*
X1028829D02*
Y0279301D01*
X0969829Y0350301D02*
Y0361801D01*
X0975329D01*
Y0350301D02*
Y0361801D01*
X0969829Y0350301D02*
X0975329D01*
X1004329Y0290801D02*
X1015829D01*
Y0285301D02*
Y0290801D01*
X1004329Y0285301D02*
X1015829D01*
X1004329D02*
Y0290801D01*
X0967333Y0280837D02*
X0978833D01*
Y0275337D02*
Y0280837D01*
X0967333Y0275337D02*
X0978833D01*
X0967333D02*
Y0280837D01*
X0977579Y0365551D02*
X0989079D01*
Y0360051D02*
Y0365551D01*
X0977579Y0360051D02*
X0989079D01*
X0977579D02*
Y0365551D01*
X0961829Y0342301D02*
X0973329D01*
Y0336801D02*
Y0342301D01*
X0961829Y0336801D02*
X0973329D01*
X0961829D02*
Y0342301D01*
X1007427Y0365348D02*
Y0376848D01*
X1001927Y0365348D02*
X1007427D01*
X1001927D02*
Y0376848D01*
X1007427D01*
X0957579Y0329801D02*
X0969079D01*
Y0324301D02*
Y0329801D01*
X0957579Y0324301D02*
X0969079D01*
X0957579D02*
Y0329801D01*
X0969079Y0315301D02*
X0980579D01*
Y0309801D02*
Y0315301D01*
X0969079Y0309801D02*
X0980579D01*
X0969079D02*
Y0315301D01*
Y0307301D02*
X0980579D01*
Y0301801D02*
Y0307301D01*
X0969079Y0301801D02*
X0980579D01*
X0969079D02*
Y0307301D01*
X0991002Y0294777D02*
Y0306277D01*
X0996502D01*
Y0294777D02*
Y0306277D01*
X0991002Y0294777D02*
X0996502D01*
X1028014Y0358801D02*
X1039514D01*
X1028014D02*
Y0364301D01*
X1039514D01*
Y0358801D02*
Y0364301D01*
X1027963Y0347482D02*
X1039463D01*
X1027963D02*
Y0352982D01*
X1039463D01*
Y0347482D02*
Y0352982D01*
X1028014Y0353301D02*
X1039514D01*
X1028014D02*
Y0358801D01*
X1039514D01*
Y0353301D02*
Y0358801D01*
X1003579Y0297801D02*
X1015079D01*
X1003579D02*
Y0303301D01*
X1015079D01*
Y0297801D02*
Y0303301D01*
X1018079Y0275301D02*
Y0286801D01*
X1023579D01*
Y0275301D02*
Y0286801D01*
X1018079Y0275301D02*
X1023579D01*
X1034079Y0295801D02*
X1045579D01*
X1034079D02*
Y0301301D01*
X1045579D01*
Y0295801D02*
Y0301301D01*
X1026781Y0306734D02*
X1038282D01*
X1026781D02*
Y0312234D01*
X1038282D01*
Y0306734D02*
Y0312234D01*
X0957579Y0324301D02*
X0969079D01*
Y0318801D02*
Y0324301D01*
X0957579Y0318801D02*
X0969079D01*
X0957579D02*
Y0324301D01*
X1028014Y0370551D02*
X1039514D01*
X1028014D02*
Y0376051D01*
X1039514D01*
Y0370551D02*
Y0376051D01*
X0961829Y0347801D02*
X0973329D01*
Y0342301D02*
Y0347801D01*
X0961829Y0342301D02*
X0973329D01*
X0961829D02*
Y0347801D01*
X1028014Y0376051D02*
X1039514D01*
X1028014D02*
Y0381551D01*
X1039514D01*
Y0376051D02*
Y0381551D01*
X0875451Y0212888D02*
Y0224388D01*
X0880951D01*
Y0212888D02*
Y0224388D01*
X0875451Y0212888D02*
X0880951D01*
X0891447Y0185266D02*
X0902947D01*
Y0179766D02*
Y0185266D01*
X0891447Y0179766D02*
X0902947D01*
X0891447D02*
Y0185266D01*
X1167860Y0356687D02*
Y0368187D01*
X1162360Y0356687D02*
X1167860D01*
X1162360D02*
Y0368187D01*
X1167860D01*
X1167793Y0385636D02*
Y0397136D01*
X1162293Y0385636D02*
X1167793D01*
X1162293D02*
Y0397136D01*
X1167793D01*
X1168561Y0343990D02*
Y0355490D01*
X1174061D01*
Y0343990D02*
Y0355490D01*
X1168561Y0343990D02*
X1174061D01*
X1178718Y0328663D02*
X1190219D01*
X1178718D02*
Y0334163D01*
X1190219D01*
Y0328663D02*
Y0334163D01*
X1168856Y0373124D02*
Y0384624D01*
X1174356D01*
Y0373124D02*
Y0384624D01*
X1168856Y0373124D02*
X1174356D01*
X1185155Y0377268D02*
X1196655D01*
X1185155D02*
Y0382768D01*
X1196655D01*
Y0377268D02*
Y0382768D01*
X1162360Y0343990D02*
Y0355490D01*
X1167860D01*
Y0343990D02*
Y0355490D01*
X1162360Y0343990D02*
X1167860D01*
X1178718Y0322413D02*
X1190219D01*
X1178718D02*
Y0327913D01*
X1190219D01*
Y0322413D02*
Y0327913D01*
X1162293Y0372136D02*
Y0383636D01*
X1167793D01*
Y0372136D02*
Y0383636D01*
X1162293Y0372136D02*
X1167793D01*
X1185155Y0371018D02*
X1196655D01*
X1185155D02*
Y0376518D01*
X1196655D01*
Y0371018D02*
Y0376518D01*
X1027864Y0341577D02*
X1039364D01*
X1027864D02*
Y0347077D01*
X1039364D01*
Y0341577D02*
Y0347077D01*
X0957579Y0318801D02*
X0969079D01*
Y0313301D02*
Y0318801D01*
X0957579Y0313301D02*
X0969079D01*
X0957579D02*
Y0318801D01*
X0825449Y0171150D02*
X0838047D01*
X0825449D02*
Y0190441D01*
X0838047D01*
Y0171150D02*
Y0190441D01*
X1024811Y0292722D02*
Y0294100D01*
X1041346Y0281502D02*
Y0294100D01*
X1024811Y0281502D02*
X1041346D01*
X1024811Y0294100D02*
X1041346D01*
X1024811Y0281502D02*
Y0292722D01*
X0879213Y0183161D02*
X0888213D01*
Y0201161D01*
X0879213D02*
X0888213D01*
X0879213Y0183161D02*
Y0201161D01*
X0596858Y0360102D02*
Y0369102D01*
Y0360102D02*
X0614858D01*
Y0369102D01*
X0596858D02*
X0614858D01*
X0665167Y0323652D02*
X0676667D01*
Y0318151D02*
Y0323652D01*
X0665167Y0318151D02*
X0676667D01*
X0665167D02*
Y0323652D01*
Y0330640D02*
X0676667D01*
Y0325140D02*
Y0330640D01*
X0665167Y0325140D02*
X0676667D01*
X0665167D02*
Y0330640D01*
X0635640Y0132787D02*
X0667136D01*
Y0105622D02*
Y0132787D01*
X0635640Y0105622D02*
X0667136D01*
X0635640D02*
Y0132787D01*
X0890335Y0214362D02*
X0899335D01*
Y0232362D01*
X0890335D02*
X0899335D01*
X0890335Y0214362D02*
Y0232362D01*
X0879833Y0177207D02*
X0891333D01*
X0879833D02*
Y0182707D01*
X0891333D01*
Y0177207D02*
Y0182707D01*
X0920518Y0212297D02*
Y0223797D01*
X0915018Y0212297D02*
X0920518D01*
X0915018D02*
Y0223797D01*
X0920518D01*
X0899616Y0208998D02*
X0911116D01*
X0899616D02*
Y0214498D01*
X0911116D01*
Y0208998D02*
Y0214498D01*
X1185148Y0198750D02*
X1196648D01*
Y0193250D02*
Y0198750D01*
X1185148Y0193250D02*
X1196648D01*
X1185148D02*
Y0198750D01*
X1172943Y0193250D02*
X1184443D01*
X1172943D02*
Y0198750D01*
X1184443D01*
Y0193250D02*
Y0198750D01*
X1168091Y0200189D02*
X1177090D01*
Y0218189D01*
X1168091D02*
X1177090D01*
X1168091Y0200189D02*
Y0218189D01*
X1120846Y0205898D02*
X1129846D01*
Y0223898D01*
X1120846D02*
X1129846D01*
X1120846Y0205898D02*
Y0223898D01*
X1120778Y0204557D02*
X1132277D01*
Y0199057D02*
Y0204557D01*
X1120778Y0199057D02*
X1132277D01*
X1120778D02*
Y0204557D01*
X1132785Y0204656D02*
X1144285D01*
Y0199155D02*
Y0204656D01*
X1132785Y0199155D02*
X1144285D01*
X1132785D02*
Y0204656D01*
X1160071Y0233992D02*
Y0256827D01*
X1121488D02*
X1160071D01*
X1121488Y0233992D02*
Y0256827D01*
Y0233992D02*
X1160071D01*
X0854787Y0102888D02*
X0884709D01*
X0854787Y0124345D02*
X0884709D01*
X0854787Y0102888D02*
Y0124345D01*
X0884709Y0102888D02*
Y0124345D01*
X1091245Y0330130D02*
X1092556Y0331442D01*
Y0334066D01*
X1091245Y0335378D01*
X1085997D01*
X1084685Y0334066D01*
Y0331442D01*
X1085997Y0330130D01*
X1084685Y0327506D02*
X1089933D01*
X1092556Y0324883D01*
X1089933Y0322259D01*
X1084685D01*
X1088621D01*
Y0327506D01*
X1091245Y0314387D02*
X1092556Y0315699D01*
Y0318323D01*
X1091245Y0319635D01*
X1085997D01*
X1084685Y0318323D01*
Y0315699D01*
X1085997Y0314387D01*
X1088621D01*
Y0317011D01*
X1092556Y0306516D02*
Y0311764D01*
X1084685D01*
Y0306516D01*
X1088621Y0311764D02*
Y0309140D01*
X1084685Y0303892D02*
Y0301268D01*
Y0302580D01*
X1092556D01*
X1091245Y0303892D01*
X0749250Y0276463D02*
X0747938Y0277775D01*
X0745314D01*
X0744002Y0276463D01*
Y0271215D01*
X0745314Y0269903D01*
X0747938D01*
X0749250Y0271215D01*
X0755809Y0277775D02*
X0753185D01*
X0751873Y0276463D01*
Y0271215D01*
X0753185Y0269903D01*
X0755809D01*
X0757121Y0271215D01*
Y0276463D01*
X0755809Y0277775D01*
X0759745Y0269903D02*
Y0277775D01*
X0764993Y0269903D01*
Y0277775D01*
X0767616Y0269903D02*
X0770240D01*
X0768928D01*
Y0277775D01*
X0767616Y0276463D01*
X0719250Y0346151D02*
X0715314D01*
X0714002Y0344839D01*
Y0342215D01*
X0715314Y0340903D01*
X0719250D01*
X0723185D02*
X0725809D01*
X0727121Y0342215D01*
Y0344839D01*
X0725809Y0346151D01*
X0723185D01*
X0721873Y0344839D01*
Y0342215D01*
X0723185Y0340903D01*
X0729745D02*
Y0346151D01*
X0731057D01*
X0732369Y0344839D01*
Y0340903D01*
Y0344839D01*
X0733681Y0346151D01*
X0734993Y0344839D01*
Y0340903D01*
X0737616Y0338280D02*
Y0346151D01*
X0741552D01*
X0742864Y0344839D01*
Y0342215D01*
X0741552Y0340903D01*
X0737616D01*
X0745488Y0346151D02*
Y0342215D01*
X0746800Y0340903D01*
X0750736D01*
Y0346151D01*
X0754671Y0347463D02*
Y0346151D01*
X0753359D01*
X0755983D01*
X0754671D01*
Y0342215D01*
X0755983Y0340903D01*
X0763855D02*
X0761231D01*
X0759919Y0342215D01*
Y0344839D01*
X0761231Y0346151D01*
X0763855D01*
X0765167Y0344839D01*
Y0343527D01*
X0759919D01*
X0775662Y0340903D02*
Y0346151D01*
X0776974D01*
X0778286Y0344839D01*
Y0340903D01*
Y0344839D01*
X0779598Y0346151D01*
X0780909Y0344839D01*
Y0340903D01*
X0784845D02*
X0787469D01*
X0788781Y0342215D01*
Y0344839D01*
X0787469Y0346151D01*
X0784845D01*
X0783533Y0344839D01*
Y0342215D01*
X0784845Y0340903D01*
X0796653Y0348775D02*
Y0340903D01*
X0792717D01*
X0791405Y0342215D01*
Y0344839D01*
X0792717Y0346151D01*
X0796653D01*
X0799276D02*
Y0342215D01*
X0800588Y0340903D01*
X0804524D01*
Y0346151D01*
X0807148Y0340903D02*
X0809772D01*
X0808460D01*
Y0348775D01*
X0807148D01*
X0817643Y0340903D02*
X0815019D01*
X0813707Y0342215D01*
Y0344839D01*
X0815019Y0346151D01*
X0817643D01*
X0818955Y0344839D01*
Y0343527D01*
X0813707D01*
X0935716Y0338748D02*
X0934404Y0337436D01*
Y0334812D01*
X0935716Y0333500D01*
X0940964D01*
X0942276Y0334812D01*
Y0337436D01*
X0940964Y0338748D01*
X0934404Y0345307D02*
Y0342683D01*
X0935716Y0341371D01*
X0940964D01*
X0942276Y0342683D01*
Y0345307D01*
X0940964Y0346619D01*
X0935716D01*
X0934404Y0345307D01*
X0942276Y0349243D02*
X0934404D01*
X0942276Y0354491D01*
X0934404D01*
X0942276Y0362362D02*
Y0357114D01*
X0937028Y0362362D01*
X0935716D01*
X0934404Y0361050D01*
Y0358426D01*
X0935716Y0357114D01*
X0837117Y0194057D02*
X0844988D01*
Y0199305D01*
Y0207176D02*
Y0201928D01*
X0839740Y0207176D01*
X0838429D01*
X0837117Y0205864D01*
Y0203240D01*
X0838429Y0201928D01*
X0601232Y0289524D02*
X0609104D01*
Y0285588D01*
X0607792Y0284276D01*
X0605168D01*
X0603856Y0285588D01*
Y0289524D01*
X0607792Y0281652D02*
X0609104Y0280340D01*
Y0277716D01*
X0607792Y0276404D01*
X0606480D01*
X0605168Y0277716D01*
Y0279028D01*
Y0277716D01*
X0603856Y0276404D01*
X0602544D01*
X0601232Y0277716D01*
Y0280340D01*
X0602544Y0281652D01*
X1028232Y0163337D02*
X1022985D01*
X1025608D01*
Y0171209D01*
X1020361D02*
X1017737D01*
X1019049D01*
Y0163337D01*
X1020361Y0164649D01*
X1174168Y0270016D02*
X1180727D01*
X1182039Y0271328D01*
Y0273952D01*
X1180727Y0275263D01*
X1174168D01*
X1182039Y0283135D02*
Y0277887D01*
X1176792Y0283135D01*
X1175480D01*
X1174168Y0281823D01*
Y0279199D01*
X1175480Y0277887D01*
X0721963Y0146447D02*
X0728523D01*
X0729835Y0147759D01*
Y0150382D01*
X0728523Y0151695D01*
X0721963D01*
X0729835Y0158254D02*
X0721963D01*
X0725899Y0154318D01*
Y0159566D01*
X0873474Y0206335D02*
X0866914D01*
X0865602Y0205023D01*
Y0202399D01*
X0866914Y0201087D01*
X0873474D01*
Y0193216D02*
X0872162Y0195839D01*
X0869538Y0198463D01*
X0866914D01*
X0865602Y0197151D01*
Y0194527D01*
X0866914Y0193216D01*
X0868226D01*
X0869538Y0194527D01*
Y0198463D01*
X1039279Y0283965D02*
Y0285277D01*
X1036656Y0287901D01*
X1034032Y0285277D01*
Y0283965D01*
X1036656Y0287901D02*
Y0291837D01*
X1031408D02*
X1028784D01*
X1030096D01*
Y0283965D01*
X1031408Y0285277D01*
X1004067Y0333132D02*
Y0339692D01*
X1002755Y0341004D01*
X1000131D01*
X0998819Y0339692D01*
Y0333132D01*
X0990948D02*
X0996195D01*
Y0337068D01*
X0993572Y0335756D01*
X0992260D01*
X0990948Y0337068D01*
Y0339692D01*
X0992260Y0341004D01*
X0994884D01*
X0996195Y0339692D01*
X0828986Y0155914D02*
Y0163785D01*
X0823738D01*
X0821115D02*
X0818491D01*
X0819803D01*
Y0155914D01*
X0821115Y0157226D01*
D142*
X0638006Y0256262D02*
G03*
X0638006Y0256262I-0000787J0000000D01*
G01*
X0901488Y0197713D02*
Y0205902D01*
X0893299Y0197713D02*
Y0205902D01*
Y0197713D02*
X0901488D01*
X0893299Y0205902D02*
X0901488D01*
X1053583Y0362150D02*
X1119724D01*
X1053583Y0166087D02*
Y0362150D01*
Y0166087D02*
X1119724D01*
Y0362150D01*
X0627502Y0250403D02*
X0911002D01*
Y0394451D01*
X0627502D02*
X0911002D01*
X0627502Y0250403D02*
Y0394451D01*
X0934894Y0302398D02*
X0946606D01*
Y0390488D01*
X0934894D02*
X0946606D01*
X0931744Y0387338D02*
X0934894Y0390488D01*
X0931744Y0305547D02*
Y0387338D01*
Y0305547D02*
X0934894Y0302398D01*
X0624362Y0136591D02*
Y0174779D01*
X0593260Y0136591D02*
X0624362D01*
X0593260D02*
Y0174779D01*
X0624362D01*
X0831996Y0191203D02*
X0850500D01*
Y0210888D01*
X0831996D02*
X0850500D01*
X0831996Y0191203D02*
Y0210888D01*
X0594343Y0327909D02*
X0614028D01*
X0594343Y0178303D02*
Y0327909D01*
Y0178303D02*
X0614028D01*
Y0327909D01*
X0836236Y0169498D02*
X0847260D01*
Y0163593D02*
Y0169498D01*
X0836236Y0163593D02*
X0847260D01*
X0836236D02*
Y0169498D01*
X0690159Y0300041D02*
Y0311065D01*
X0684254Y0300041D02*
X0690159D01*
X0684254D02*
Y0311065D01*
X0690159D01*
X0683372Y0300041D02*
Y0311065D01*
X0677466Y0300041D02*
X0683372D01*
X0677466D02*
Y0311065D01*
X0683372D01*
X0799545Y0120283D02*
Y0131307D01*
X0805451D01*
Y0120283D02*
Y0131307D01*
X0799545Y0120283D02*
X0805451D01*
X0844045Y0121486D02*
Y0132510D01*
X0849951D01*
Y0121486D02*
Y0132510D01*
X0844045Y0121486D02*
X0849951D01*
X0863201Y0161533D02*
Y0172557D01*
X0857295Y0161533D02*
X0863201D01*
X0857295D02*
Y0172557D01*
X0863201D01*
X0871705Y0176216D02*
Y0187240D01*
X0877610D01*
Y0176216D02*
Y0187240D01*
X0871705Y0176216D02*
X0877610D01*
X0827018Y0368116D02*
X0838041D01*
X0827018D02*
Y0374022D01*
X0838041D01*
Y0368116D02*
Y0374022D01*
X0827065Y0374616D02*
X0838089D01*
X0827065D02*
Y0380522D01*
X0838089D01*
Y0374616D02*
Y0380522D01*
X1139618Y0178776D02*
Y0189799D01*
X1133713Y0178776D02*
X1139618D01*
X1133713D02*
Y0189799D01*
X1139618D01*
X0832925Y0241177D02*
X0843949D01*
Y0235272D02*
Y0241177D01*
X0832925Y0235272D02*
X0843949D01*
X0832925D02*
Y0241177D01*
X0832939Y0235142D02*
X0843963D01*
Y0229236D02*
Y0235142D01*
X0832939Y0229236D02*
X0843963D01*
X0832939D02*
Y0235142D01*
X0865602Y0221295D02*
Y0232319D01*
X0871508D01*
Y0221295D02*
Y0232319D01*
X0865602Y0221295D02*
X0871508D01*
X0859500D02*
Y0232319D01*
X0865405D01*
Y0221295D02*
Y0232319D01*
X0859500Y0221295D02*
X0865405D01*
X1153299Y0233205D02*
X1164323D01*
Y0227299D02*
Y0233205D01*
X1153299Y0227299D02*
X1164323D01*
X1153299D02*
Y0233205D01*
X0618555Y0241866D02*
X0629579D01*
Y0235961D02*
Y0241866D01*
X0618555Y0235961D02*
X0629579D01*
X0618555D02*
Y0241866D01*
X0617866Y0189602D02*
X0628890D01*
X0617866D02*
Y0195508D01*
X0628890D01*
Y0189602D02*
Y0195508D01*
X0617866Y0189504D02*
X0628890D01*
Y0183598D02*
Y0189504D01*
X0617866Y0183598D02*
X0628890D01*
X0617866D02*
Y0189504D01*
X0988634Y0290783D02*
X0999658D01*
Y0284878D02*
Y0290783D01*
X0988634Y0284878D02*
X0999658D01*
X0988634D02*
Y0290783D01*
X1003817Y0291598D02*
X1014841D01*
X1003817D02*
Y0297504D01*
X1014841D01*
Y0291598D02*
Y0297504D01*
X0973378Y0288421D02*
X0984402D01*
Y0282516D02*
Y0288421D01*
X0973378Y0282516D02*
X0984402D01*
X0973378D02*
Y0288421D01*
X0988634Y0278382D02*
X0999658D01*
X0988634D02*
Y0284287D01*
X0999658D01*
Y0278382D02*
Y0284287D01*
X1029067Y0267848D02*
X1040090D01*
X1029067D02*
Y0273754D01*
X1040090D01*
Y0267848D02*
Y0273754D01*
X0962114Y0330348D02*
X0973138D01*
X0962114D02*
Y0336254D01*
X0973138D01*
Y0330348D02*
Y0336254D01*
X1028004Y0250921D02*
Y0261945D01*
X1022098Y0250921D02*
X1028004D01*
X1022098D02*
Y0261945D01*
X1028004D01*
X0969638Y0245016D02*
X0980661D01*
Y0239110D02*
Y0245016D01*
X0969638Y0239110D02*
X0980661D01*
X0969638D02*
Y0245016D01*
X0957067Y0311004D02*
X0968091D01*
Y0305098D02*
Y0311004D01*
X0957067Y0305098D02*
X0968091D01*
X0957067D02*
Y0311004D01*
X0969317Y0365598D02*
X0980340D01*
X0969317D02*
Y0371504D01*
X0980340D01*
Y0365598D02*
Y0371504D01*
X1017876Y0289789D02*
Y0300813D01*
X1023781D01*
Y0289789D02*
Y0300813D01*
X1017876Y0289789D02*
X1023781D01*
X1027020Y0312929D02*
X1038043D01*
X1027020D02*
Y0318835D01*
X1038043D01*
Y0312929D02*
Y0318835D01*
X1028002Y0370254D02*
X1039025D01*
Y0364348D02*
Y0370254D01*
X1028002Y0364348D02*
X1039025D01*
X1028002D02*
Y0370254D01*
X0841486Y0152998D02*
X0852510D01*
Y0147092D02*
Y0152998D01*
X0841486Y0147092D02*
X0852510D01*
X0841486D02*
Y0152998D01*
X0851486Y0144748D02*
X0862510D01*
Y0138842D02*
Y0144748D01*
X0851486Y0138842D02*
X0862510D01*
X0851486D02*
Y0144748D01*
X1138201Y0126033D02*
Y0137057D01*
X1132295Y0126033D02*
X1138201D01*
X1132295D02*
Y0137057D01*
X1138201D01*
X1162951Y0126033D02*
Y0137057D01*
X1157045Y0126033D02*
X1162951D01*
X1157045D02*
Y0137057D01*
X1162951D01*
X0596902Y0385370D02*
X0607925D01*
Y0379465D02*
Y0385370D01*
X0596902Y0379465D02*
X0607925D01*
X0596902D02*
Y0385370D01*
X1172394Y0174150D02*
Y0185173D01*
X1178299D01*
Y0174150D02*
Y0185173D01*
X1172394Y0174150D02*
X1178299D01*
X1162945Y0316768D02*
X1173969D01*
Y0310862D02*
Y0316768D01*
X1162945Y0310862D02*
X1173969D01*
X1162945D02*
Y0316768D01*
X1184598Y0174150D02*
Y0185173D01*
X1190504D01*
Y0174150D02*
Y0185173D01*
X1184598Y0174150D02*
X1190504D01*
X1178496D02*
Y0185173D01*
X1184402D01*
Y0174150D02*
Y0185173D01*
X1178496Y0174150D02*
X1184402D01*
X1162933Y0322789D02*
X1173957D01*
Y0316884D02*
Y0322789D01*
X1162933Y0316884D02*
X1173957D01*
X1162933D02*
Y0322789D01*
X1190701Y0174150D02*
Y0185173D01*
X1196606D01*
Y0174150D02*
Y0185173D01*
X1190701Y0174150D02*
X1196606D01*
X1162748Y0341571D02*
X1173772D01*
Y0335665D02*
Y0341571D01*
X1162748Y0335665D02*
X1173772D01*
X1162748D02*
Y0341571D01*
X1162933Y0335289D02*
X1173957D01*
Y0329384D02*
Y0335289D01*
X1162933Y0329384D02*
X1173957D01*
X1162933D02*
Y0335289D01*
X1166083Y0221939D02*
X1177106D01*
X1166083D02*
Y0227845D01*
X1177106D01*
Y0221939D02*
Y0227845D01*
X1166083Y0233844D02*
X1177106D01*
Y0227939D02*
Y0233844D01*
X1166083Y0227939D02*
X1177106D01*
X1166083D02*
Y0233844D01*
X1162846Y0329071D02*
X1173870D01*
Y0323165D02*
Y0329071D01*
X1162846Y0323165D02*
X1173870D01*
X1162846D02*
Y0329071D01*
X1166390Y0241768D02*
X1177413D01*
X1166390D02*
Y0247673D01*
X1177413D01*
Y0241768D02*
Y0247673D01*
X1166291Y0253677D02*
X1177315D01*
Y0247772D02*
Y0253677D01*
X1166291Y0247772D02*
X1177315D01*
X1166291D02*
Y0253677D01*
X1162933Y0310646D02*
X1173957D01*
Y0304740D02*
Y0310646D01*
X1162933Y0304740D02*
X1173957D01*
X1162933D02*
Y0310646D01*
Y0304539D02*
X1173957D01*
Y0298634D02*
Y0304539D01*
X1162933Y0298634D02*
X1173957D01*
X1162933D02*
Y0304539D01*
X1163929Y0262142D02*
X1192276D01*
X1163929Y0296787D02*
X1192276D01*
X1163929Y0262142D02*
Y0296787D01*
X1192276Y0262142D02*
Y0296787D01*
X0671567Y0107864D02*
X0773929D01*
Y0210226D01*
X0671567D02*
X0773929D01*
X0671567Y0107864D02*
Y0210226D01*
X0862059Y0212240D02*
X0876232D01*
X0862059Y0187831D02*
X0876232D01*
Y0212240D01*
X0862059Y0187831D02*
Y0212240D01*
X0977000Y0317972D02*
X1017157D01*
X0977000D02*
Y0358130D01*
X1017157D01*
Y0317972D02*
Y0358130D01*
X0831841Y0150793D02*
Y0169297D01*
X0812156D02*
X0831841D01*
X0812156Y0150793D02*
Y0169297D01*
Y0150793D02*
X0831841D01*
X1046016Y0207024D02*
X1051921D01*
X1046016Y0196000D02*
Y0207024D01*
Y0196000D02*
X1051921D01*
Y0207024D01*
X1045425Y0342850D02*
X1051331D01*
X1045425Y0331827D02*
Y0342850D01*
Y0331827D02*
X1051331D01*
Y0342850D01*
X0658024Y0338717D02*
X0705661D01*
X0658024D02*
Y0383992D01*
X0705661D01*
Y0338717D02*
Y0383992D01*
X0646803Y0187929D02*
Y0198953D01*
X0640898Y0187929D02*
X0646803D01*
X0640898D02*
Y0198953D01*
X0646803D01*
X0640701Y0173559D02*
Y0184583D01*
X0646606D01*
Y0173559D02*
Y0184583D01*
X0640701Y0173559D02*
X0646606D01*
X0648279Y0194032D02*
X0668358D01*
X0648279Y0166472D02*
X0668358D01*
Y0194032D01*
X0648279Y0166472D02*
Y0194032D01*
X0634894Y0159484D02*
X0641587D01*
X0634894Y0147673D02*
X0641587D01*
X0634894D02*
Y0159484D01*
X0641587Y0147673D02*
Y0159484D01*
X0787449Y0209108D02*
Y0216982D01*
Y0209108D02*
X0800047D01*
Y0216982D01*
X0787449D02*
X0800047D01*
X0785337Y0190715D02*
Y0199376D01*
Y0190715D02*
X0802659D01*
Y0199376D01*
X0785337D02*
X0802659D01*
X0877807Y0161748D02*
X0888831D01*
Y0155842D02*
Y0161748D01*
X0877807Y0155842D02*
X0888831D01*
X0877807D02*
Y0161748D01*
X0896705Y0156827D02*
Y0167850D01*
X0890799Y0156827D02*
X0896705D01*
X0890799D02*
Y0167850D01*
X0896705D01*
X0901215Y0100850D02*
Y0170142D01*
X0957514D01*
Y0100850D02*
Y0170142D01*
X0901215Y0100850D02*
X0957514D01*
X0891685Y0179071D02*
X0902709D01*
Y0173165D02*
Y0179071D01*
X0891685Y0173165D02*
X0902709D01*
X0891685D02*
Y0179071D01*
X0910386Y0197378D02*
Y0208401D01*
X0904480Y0197378D02*
X0910386D01*
X0904480D02*
Y0208401D01*
X0910386D01*
X0921016Y0181728D02*
Y0194327D01*
X0909205Y0181728D02*
X0921016D01*
X0909205D02*
Y0194327D01*
X0921016D01*
X0936272Y0181728D02*
Y0194327D01*
X0924461Y0181728D02*
X0936272D01*
X0924461D02*
Y0194327D01*
X0936272D01*
X0921606Y0227102D02*
Y0238126D01*
X0915701Y0227102D02*
X0921606D01*
X0915701D02*
Y0238126D01*
X0921606D01*
X0911528Y0225075D02*
Y0233264D01*
X0903339Y0225075D02*
Y0233264D01*
Y0225075D02*
X0911528D01*
X0903339Y0233264D02*
X0911528D01*
X0946587Y0221965D02*
Y0230626D01*
Y0221965D02*
X0963909D01*
Y0230626D01*
X0946587D02*
X0963909D01*
X0945752Y0208797D02*
X0963744D01*
X0945752Y0220293D02*
X0963744D01*
Y0208797D02*
Y0220293D01*
X0945752Y0208797D02*
Y0220293D01*
Y0195547D02*
X0963744D01*
X0945752Y0207043D02*
X0963744D01*
Y0195547D02*
Y0207043D01*
X0945752Y0195547D02*
Y0207043D01*
X0955167Y0175384D02*
X0963829D01*
Y0192707D01*
X0955167D02*
X0963829D01*
X0955167Y0175384D02*
Y0192707D01*
X1007630Y0244917D02*
Y0257516D01*
X0995819Y0244917D02*
X1007630D01*
X0995819D02*
Y0257516D01*
X1007630D01*
X1170425Y0183008D02*
Y0195606D01*
X1158614Y0183008D02*
X1170425D01*
X1158614D02*
Y0195606D01*
X1170425D01*
X1196803Y0211256D02*
Y0222280D01*
X1190898Y0211256D02*
X1196803D01*
X1190898D02*
Y0222280D01*
X1196803D01*
X1188102Y0209819D02*
Y0218008D01*
X1179913Y0209819D02*
Y0218008D01*
Y0209819D02*
X1188102D01*
X1179913Y0218008D02*
X1188102D01*
X1183122Y0229268D02*
Y0240291D01*
X1189028D01*
Y0229268D02*
Y0240291D01*
X1183122Y0229268D02*
X1189028D01*
X1144146Y0205842D02*
Y0216866D01*
X1150051D01*
Y0205842D02*
Y0216866D01*
X1144146Y0205842D02*
X1150051D01*
X1140760Y0215232D02*
Y0223421D01*
X1132571Y0215232D02*
Y0223421D01*
Y0215232D02*
X1140760D01*
X1132571Y0223421D02*
X1140760D01*
X1154776Y0183008D02*
Y0195606D01*
X1142964Y0183008D02*
X1154776D01*
X1142964D02*
Y0195606D01*
X1154776D01*
X1133516Y0178776D02*
Y0189799D01*
X1127610Y0178776D02*
X1133516D01*
X1127610D02*
Y0189799D01*
X1133516D01*
X1129185Y0101709D02*
Y0171000D01*
X1185484D01*
Y0101709D02*
Y0171000D01*
X1129185Y0101709D02*
X1185484D01*
X0900150Y0200627D02*
Y0203251D01*
X0899625Y0203776D01*
X0898575D01*
X0898050Y0203251D01*
Y0200627D01*
X0897001Y0201152D02*
X0896476Y0200627D01*
X0895427D01*
X0894902Y0201152D01*
Y0201677D01*
X0895427Y0202201D01*
X0894902Y0202726D01*
Y0203251D01*
X0895427Y0203776D01*
X0896476D01*
X0897001Y0203251D01*
Y0202726D01*
X0896476Y0202201D01*
X0897001Y0201677D01*
Y0201152D01*
X0896476Y0202201D02*
X0895427D01*
X0816149Y0192671D02*
X0816674Y0192147D01*
X0817723D01*
X0818248Y0192671D01*
Y0194771D01*
X0817723Y0195295D01*
X0816674D01*
X0816149Y0194771D01*
X0815099Y0195295D02*
X0814050D01*
X0814575D01*
Y0192147D01*
X0815099Y0192671D01*
X0806622Y0160196D02*
X0807147Y0160721D01*
Y0161770D01*
X0806622Y0162295D01*
X0804523D01*
X0803998Y0161770D01*
Y0160721D01*
X0804523Y0160196D01*
X0803998Y0157048D02*
Y0159147D01*
X0806097Y0157048D01*
X0806622D01*
X0807147Y0157572D01*
Y0158622D01*
X0806622Y0159147D01*
X0798622Y0160196D02*
X0799147Y0160721D01*
Y0161770D01*
X0798622Y0162295D01*
X0796523D01*
X0795998Y0161770D01*
Y0160721D01*
X0796523Y0160196D01*
X0798622Y0159147D02*
X0799147Y0158622D01*
Y0157572D01*
X0798622Y0157048D01*
X0798097D01*
X0797572Y0157572D01*
Y0158097D01*
Y0157572D01*
X0797048Y0157048D01*
X0796523D01*
X0795998Y0157572D01*
Y0158622D01*
X0796523Y0159147D01*
X0826374Y0199644D02*
X0825849Y0199119D01*
Y0198070D01*
X0826374Y0197545D01*
X0828473D01*
X0828998Y0198070D01*
Y0199119D01*
X0828473Y0199644D01*
X0828998Y0202268D02*
X0825849D01*
X0827424Y0200694D01*
Y0202793D01*
X0844874Y0181394D02*
X0844349Y0180869D01*
Y0179820D01*
X0844874Y0179295D01*
X0846973D01*
X0847498Y0179820D01*
Y0180869D01*
X0846973Y0181394D01*
X0844349Y0184543D02*
Y0182444D01*
X0845924D01*
X0845399Y0183493D01*
Y0184018D01*
X0845924Y0184543D01*
X0846973D01*
X0847498Y0184018D01*
Y0182969D01*
X0846973Y0182444D01*
X0820622Y0180196D02*
X0821147Y0180721D01*
Y0181771D01*
X0820622Y0182295D01*
X0818523D01*
X0817998Y0181771D01*
Y0180721D01*
X0818523Y0180196D01*
X0821147Y0177048D02*
X0820622Y0178097D01*
X0819572Y0179147D01*
X0818523D01*
X0817998Y0178622D01*
Y0177572D01*
X0818523Y0177048D01*
X0819048D01*
X0819572Y0177572D01*
Y0179147D01*
X0844174Y0159577D02*
X0844567Y0159184D01*
X0845354D01*
X0845748Y0159577D01*
Y0161152D01*
X0845354Y0161545D01*
X0844567D01*
X0844174Y0161152D01*
X0843387Y0159184D02*
X0841812D01*
Y0159577D01*
X0843387Y0161152D01*
Y0161545D01*
X0815874Y0206644D02*
X0815349Y0206119D01*
Y0205070D01*
X0815874Y0204545D01*
X0817973D01*
X0818498Y0205070D01*
Y0206119D01*
X0817973Y0206644D01*
X0815874Y0207694D02*
X0815349Y0208219D01*
Y0209268D01*
X0815874Y0209793D01*
X0816399D01*
X0816924Y0209268D01*
X0817449Y0209793D01*
X0817973D01*
X0818498Y0209268D01*
Y0208219D01*
X0817973Y0207694D01*
X0817449D01*
X0816924Y0208219D01*
X0816399Y0207694D01*
X0815874D01*
X0816924Y0208219D02*
Y0209268D01*
X0694129Y0307821D02*
X0694523Y0308215D01*
Y0309002D01*
X0694129Y0309396D01*
X0692555D01*
X0692161Y0309002D01*
Y0308215D01*
X0692555Y0307821D01*
Y0307034D02*
X0692161Y0306641D01*
Y0305854D01*
X0692555Y0305460D01*
X0694129D01*
X0694523Y0305854D01*
Y0306641D01*
X0694129Y0307034D01*
X0693736D01*
X0693342Y0306641D01*
Y0305460D01*
X0715809Y0301823D02*
X0716203Y0301430D01*
X0716990D01*
X0717384Y0301823D01*
Y0303398D01*
X0716990Y0303791D01*
X0716203D01*
X0715809Y0303398D01*
X0715022Y0303791D02*
X0714235D01*
X0714629D01*
Y0301430D01*
X0715022Y0301823D01*
X0713055D02*
X0712661Y0301430D01*
X0711874D01*
X0711480Y0301823D01*
Y0303398D01*
X0711874Y0303791D01*
X0712661D01*
X0713055Y0303398D01*
Y0301823D01*
X1185474Y0257401D02*
X1185080Y0257794D01*
X1184293D01*
X1183900Y0257401D01*
Y0255827D01*
X1184293Y0255433D01*
X1185080D01*
X1185474Y0255827D01*
X1186261Y0255433D02*
X1187048D01*
X1186655D01*
Y0257794D01*
X1186261Y0257401D01*
X1188229Y0255433D02*
X1189016D01*
X1188622D01*
Y0257794D01*
X1188229Y0257401D01*
X1190022Y0300544D02*
X1190416Y0300150D01*
X1191203D01*
X1191596Y0300544D01*
Y0302118D01*
X1191203Y0302512D01*
X1190416D01*
X1190022Y0302118D01*
X1189235Y0302512D02*
X1188448D01*
X1188841D01*
Y0300150D01*
X1189235Y0300544D01*
X1185693Y0302512D02*
X1187267D01*
X1185693Y0300938D01*
Y0300544D01*
X1186086Y0300150D01*
X1186874D01*
X1187267Y0300544D01*
X0893664Y0374461D02*
X0894057Y0374068D01*
X0894845D01*
X0895238Y0374461D01*
Y0376035D01*
X0894845Y0376429D01*
X0894057D01*
X0893664Y0376035D01*
X0892877Y0376429D02*
X0892090D01*
X0892483D01*
Y0374068D01*
X0892877Y0374461D01*
X0889335Y0374068D02*
X0890122Y0374461D01*
X0890909Y0375248D01*
Y0376035D01*
X0890515Y0376429D01*
X0889728D01*
X0889335Y0376035D01*
Y0375642D01*
X0889728Y0375248D01*
X0890909D01*
X0780622Y0205446D02*
X0781147Y0205971D01*
Y0207020D01*
X0780622Y0207545D01*
X0778523D01*
X0777998Y0207020D01*
Y0205971D01*
X0778523Y0205446D01*
X0777998Y0204397D02*
Y0203347D01*
Y0203872D01*
X0781147D01*
X0780622Y0204397D01*
Y0201773D02*
X0781147Y0201248D01*
Y0200199D01*
X0780622Y0199674D01*
X0780097D01*
X0779572Y0200199D01*
X0779047Y0199674D01*
X0778523D01*
X0777998Y0200199D01*
Y0201248D01*
X0778523Y0201773D01*
X0779047D01*
X0779572Y0201248D01*
X0780097Y0201773D01*
X0780622D01*
X0779572Y0201248D02*
Y0200199D01*
X0778468Y0121169D02*
X0777812Y0120513D01*
Y0119201D01*
X0778468Y0118545D01*
X0781092D01*
X0781748Y0119201D01*
Y0120513D01*
X0781092Y0121169D01*
X0781748Y0122481D02*
Y0123793D01*
Y0123137D01*
X0777812D01*
X0778468Y0122481D01*
X0781092Y0125761D02*
X0781748Y0126417D01*
Y0127729D01*
X0781092Y0128385D01*
X0778468D01*
X0777812Y0127729D01*
Y0126417D01*
X0778468Y0125761D01*
X0779124D01*
X0779780Y0126417D01*
Y0128385D01*
X0778374Y0186644D02*
X0777849Y0186119D01*
Y0185070D01*
X0778374Y0184545D01*
X0780473D01*
X0780998Y0185070D01*
Y0186119D01*
X0780473Y0186644D01*
X0780998Y0189793D02*
Y0187694D01*
X0778899Y0189793D01*
X0778374D01*
X0777849Y0189268D01*
Y0188219D01*
X0778374Y0187694D01*
Y0190842D02*
X0777849Y0191367D01*
Y0192417D01*
X0778374Y0192941D01*
X0780473D01*
X0780998Y0192417D01*
Y0191367D01*
X0780473Y0190842D01*
X0778374D01*
X1006951Y0265898D02*
X1007345Y0265505D01*
X1008132D01*
X1008526Y0265898D01*
Y0267473D01*
X1008132Y0267866D01*
X1007345D01*
X1006951Y0267473D01*
X1004590Y0267866D02*
X1006164D01*
X1004590Y0266292D01*
Y0265898D01*
X1004983Y0265505D01*
X1005771D01*
X1006164Y0265898D01*
X1002228Y0267866D02*
X1003803D01*
X1002228Y0266292D01*
Y0265898D01*
X1002622Y0265505D01*
X1003409D01*
X1003803Y0265898D01*
X1018938Y0267243D02*
X1018545Y0267637D01*
X1017758D01*
X1017364Y0267243D01*
Y0265669D01*
X1017758Y0265276D01*
X1018545D01*
X1018938Y0265669D01*
X1021300Y0265276D02*
X1019726D01*
X1021300Y0266850D01*
Y0267243D01*
X1020906Y0267637D01*
X1020119D01*
X1019726Y0267243D01*
X1022087D02*
X1022481Y0267637D01*
X1023268D01*
X1023661Y0267243D01*
Y0266850D01*
X1023268Y0266456D01*
X1022874D01*
X1023268D01*
X1023661Y0266063D01*
Y0265669D01*
X1023268Y0265276D01*
X1022481D01*
X1022087Y0265669D01*
X0980180Y0269343D02*
X0980573Y0268950D01*
X0981360D01*
X0981754Y0269343D01*
Y0270917D01*
X0981360Y0271311D01*
X0980573D01*
X0980180Y0270917D01*
X0977818Y0271311D02*
X0979393D01*
X0977818Y0269737D01*
Y0269343D01*
X0978212Y0268950D01*
X0978999D01*
X0979393Y0269343D01*
X0975850Y0271311D02*
Y0268950D01*
X0977031Y0270130D01*
X0975457D01*
X0993250Y0273444D02*
X0992856Y0273838D01*
X0992069D01*
X0991675Y0273444D01*
Y0271870D01*
X0992069Y0271476D01*
X0992856D01*
X0993250Y0271870D01*
X0995611Y0271476D02*
X0994037D01*
X0995611Y0273051D01*
Y0273444D01*
X0995217Y0273838D01*
X0994430D01*
X0994037Y0273444D01*
X0997972Y0273838D02*
X0996398D01*
Y0272657D01*
X0997185Y0273051D01*
X0997579D01*
X0997972Y0272657D01*
Y0271870D01*
X0997579Y0271476D01*
X0996792D01*
X0996398Y0271870D01*
X1032403Y0277519D02*
X1032009Y0277913D01*
X1031222D01*
X1030829Y0277519D01*
Y0275945D01*
X1031222Y0275551D01*
X1032009D01*
X1032403Y0275945D01*
X1034764Y0275551D02*
X1033190D01*
X1034764Y0277125D01*
Y0277519D01*
X1034371Y0277913D01*
X1033584D01*
X1033190Y0277519D01*
X1037126Y0277913D02*
X1036339Y0277519D01*
X1035552Y0276732D01*
Y0275945D01*
X1035945Y0275551D01*
X1036732D01*
X1037126Y0275945D01*
Y0276338D01*
X1036732Y0276732D01*
X1035552D01*
X0971611Y0353875D02*
X0971217Y0353482D01*
Y0352695D01*
X0971611Y0352301D01*
X0973185D01*
X0973579Y0352695D01*
Y0353482D01*
X0973185Y0353875D01*
X0973579Y0356237D02*
Y0354663D01*
X0972004Y0356237D01*
X0971611D01*
X0971217Y0355843D01*
Y0355056D01*
X0971611Y0354663D01*
X0971217Y0357024D02*
Y0358598D01*
X0971611D01*
X0973185Y0357024D01*
X0973579D01*
X1007903Y0289019D02*
X1007509Y0289413D01*
X1006722D01*
X1006329Y0289019D01*
Y0287445D01*
X1006722Y0287051D01*
X1007509D01*
X1007903Y0287445D01*
X1010264Y0287051D02*
X1008690D01*
X1010264Y0288625D01*
Y0289019D01*
X1009871Y0289413D01*
X1009084D01*
X1008690Y0289019D01*
X1011052D02*
X1011445Y0289413D01*
X1012232D01*
X1012626Y0289019D01*
Y0288625D01*
X1012232Y0288232D01*
X1012626Y0287838D01*
Y0287445D01*
X1012232Y0287051D01*
X1011445D01*
X1011052Y0287445D01*
Y0287838D01*
X1011445Y0288232D01*
X1011052Y0288625D01*
Y0289019D01*
X1011445Y0288232D02*
X1012232D01*
X0970907Y0279054D02*
X0970513Y0279448D01*
X0969726D01*
X0969333Y0279054D01*
Y0277480D01*
X0969726Y0277087D01*
X0970513D01*
X0970907Y0277480D01*
X0973268Y0277087D02*
X0971694D01*
X0973268Y0278661D01*
Y0279054D01*
X0972875Y0279448D01*
X0972088D01*
X0971694Y0279054D01*
X0974055Y0277480D02*
X0974449Y0277087D01*
X0975236D01*
X0975630Y0277480D01*
Y0279054D01*
X0975236Y0279448D01*
X0974449D01*
X0974055Y0279054D01*
Y0278661D01*
X0974449Y0278267D01*
X0975630D01*
X0981153Y0363769D02*
X0980759Y0364163D01*
X0979972D01*
X0979579Y0363769D01*
Y0362195D01*
X0979972Y0361801D01*
X0980759D01*
X0981153Y0362195D01*
X0981940Y0363769D02*
X0982334Y0364163D01*
X0983121D01*
X0983514Y0363769D01*
Y0363375D01*
X0983121Y0362982D01*
X0982727D01*
X0983121D01*
X0983514Y0362588D01*
Y0362195D01*
X0983121Y0361801D01*
X0982334D01*
X0981940Y0362195D01*
X0984302Y0363769D02*
X0984695Y0364163D01*
X0985482D01*
X0985876Y0363769D01*
Y0362195D01*
X0985482Y0361801D01*
X0984695D01*
X0984302Y0362195D01*
Y0363769D01*
X0965403Y0340519D02*
X0965009Y0340913D01*
X0964222D01*
X0963829Y0340519D01*
Y0338945D01*
X0964222Y0338551D01*
X0965009D01*
X0965403Y0338945D01*
X0966190Y0340519D02*
X0966584Y0340913D01*
X0967371D01*
X0967764Y0340519D01*
Y0340125D01*
X0967371Y0339732D01*
X0966977D01*
X0967371D01*
X0967764Y0339338D01*
Y0338945D01*
X0967371Y0338551D01*
X0966584D01*
X0966190Y0338945D01*
X0968552Y0338551D02*
X0969339D01*
X0968945D01*
Y0340913D01*
X0968552Y0340519D01*
X1005645Y0373274D02*
X1006039Y0373668D01*
Y0374455D01*
X1005645Y0374848D01*
X1004071D01*
X1003677Y0374455D01*
Y0373668D01*
X1004071Y0373274D01*
X1005645Y0372487D02*
X1006039Y0372093D01*
Y0371306D01*
X1005645Y0370913D01*
X1005251D01*
X1004858Y0371306D01*
Y0371700D01*
Y0371306D01*
X1004464Y0370913D01*
X1004071D01*
X1003677Y0371306D01*
Y0372093D01*
X1004071Y0372487D01*
X1003677Y0368551D02*
Y0370126D01*
X1005251Y0368551D01*
X1005645D01*
X1006039Y0368945D01*
Y0369732D01*
X1005645Y0370126D01*
X0961153Y0328019D02*
X0960759Y0328413D01*
X0959972D01*
X0959579Y0328019D01*
Y0326445D01*
X0959972Y0326051D01*
X0960759D01*
X0961153Y0326445D01*
X0961940Y0328019D02*
X0962334Y0328413D01*
X0963121D01*
X0963514Y0328019D01*
Y0327625D01*
X0963121Y0327232D01*
X0962727D01*
X0963121D01*
X0963514Y0326838D01*
Y0326445D01*
X0963121Y0326051D01*
X0962334D01*
X0961940Y0326445D01*
X0964302Y0328019D02*
X0964695Y0328413D01*
X0965482D01*
X0965876Y0328019D01*
Y0327625D01*
X0965482Y0327232D01*
X0965089D01*
X0965482D01*
X0965876Y0326838D01*
Y0326445D01*
X0965482Y0326051D01*
X0964695D01*
X0964302Y0326445D01*
X0972653Y0313519D02*
X0972259Y0313913D01*
X0971472D01*
X0971079Y0313519D01*
Y0311945D01*
X0971472Y0311551D01*
X0972259D01*
X0972653Y0311945D01*
X0973440Y0313519D02*
X0973834Y0313913D01*
X0974621D01*
X0975014Y0313519D01*
Y0313125D01*
X0974621Y0312732D01*
X0974227D01*
X0974621D01*
X0975014Y0312338D01*
Y0311945D01*
X0974621Y0311551D01*
X0973834D01*
X0973440Y0311945D01*
X0976982Y0311551D02*
Y0313913D01*
X0975802Y0312732D01*
X0977376D01*
X0972653Y0305519D02*
X0972259Y0305913D01*
X0971472D01*
X0971079Y0305519D01*
Y0303945D01*
X0971472Y0303551D01*
X0972259D01*
X0972653Y0303945D01*
X0973440Y0305519D02*
X0973834Y0305913D01*
X0974621D01*
X0975014Y0305519D01*
Y0305125D01*
X0974621Y0304732D01*
X0974227D01*
X0974621D01*
X0975014Y0304338D01*
Y0303945D01*
X0974621Y0303551D01*
X0973834D01*
X0973440Y0303945D01*
X0977376Y0305913D02*
X0975802D01*
Y0304732D01*
X0976589Y0305125D01*
X0976982D01*
X0977376Y0304732D01*
Y0303945D01*
X0976982Y0303551D01*
X0976195D01*
X0975802Y0303945D01*
X0992784Y0298352D02*
X0992391Y0297958D01*
Y0297171D01*
X0992784Y0296778D01*
X0994358D01*
X0994752Y0297171D01*
Y0297958D01*
X0994358Y0298352D01*
X0992784Y0299139D02*
X0992391Y0299533D01*
Y0300320D01*
X0992784Y0300713D01*
X0993178D01*
X0993571Y0300320D01*
Y0299926D01*
Y0300320D01*
X0993965Y0300713D01*
X0994358D01*
X0994752Y0300320D01*
Y0299533D01*
X0994358Y0299139D01*
X0992391Y0303075D02*
X0992784Y0302288D01*
X0993571Y0301500D01*
X0994358D01*
X0994752Y0301894D01*
Y0302681D01*
X0994358Y0303075D01*
X0993965D01*
X0993571Y0302681D01*
Y0301500D01*
X1035940Y0360583D02*
X1036333Y0360190D01*
X1037120D01*
X1037514Y0360583D01*
Y0362158D01*
X1037120Y0362551D01*
X1036333D01*
X1035940Y0362158D01*
X1035152Y0360583D02*
X1034759Y0360190D01*
X1033972D01*
X1033578Y0360583D01*
Y0360977D01*
X1033972Y0361370D01*
X1034365D01*
X1033972D01*
X1033578Y0361764D01*
Y0362158D01*
X1033972Y0362551D01*
X1034759D01*
X1035152Y0362158D01*
X1032791Y0360190D02*
X1031217D01*
Y0360583D01*
X1032791Y0362158D01*
Y0362551D01*
X1035888Y0349264D02*
X1036282Y0348871D01*
X1037069D01*
X1037463Y0349264D01*
Y0350839D01*
X1037069Y0351232D01*
X1036282D01*
X1035888Y0350839D01*
X1035101Y0349264D02*
X1034708Y0348871D01*
X1033920D01*
X1033527Y0349264D01*
Y0349658D01*
X1033920Y0350051D01*
X1034314D01*
X1033920D01*
X1033527Y0350445D01*
Y0350839D01*
X1033920Y0351232D01*
X1034708D01*
X1035101Y0350839D01*
X1032740Y0349264D02*
X1032346Y0348871D01*
X1031559D01*
X1031165Y0349264D01*
Y0349658D01*
X1031559Y0350051D01*
X1031165Y0350445D01*
Y0350839D01*
X1031559Y0351232D01*
X1032346D01*
X1032740Y0350839D01*
Y0350445D01*
X1032346Y0350051D01*
X1032740Y0349658D01*
Y0349264D01*
X1032346Y0350051D02*
X1031559D01*
X1035940Y0355083D02*
X1036333Y0354690D01*
X1037120D01*
X1037514Y0355083D01*
Y0356658D01*
X1037120Y0357051D01*
X1036333D01*
X1035940Y0356658D01*
X1035152Y0355083D02*
X1034759Y0354690D01*
X1033972D01*
X1033578Y0355083D01*
Y0355477D01*
X1033972Y0355870D01*
X1034365D01*
X1033972D01*
X1033578Y0356264D01*
Y0356658D01*
X1033972Y0357051D01*
X1034759D01*
X1035152Y0356658D01*
X1032791D02*
X1032397Y0357051D01*
X1031610D01*
X1031217Y0356658D01*
Y0355083D01*
X1031610Y0354690D01*
X1032397D01*
X1032791Y0355083D01*
Y0355477D01*
X1032397Y0355870D01*
X1031217D01*
X1011504Y0299583D02*
X1011898Y0299190D01*
X1012685D01*
X1013079Y0299583D01*
Y0301158D01*
X1012685Y0301551D01*
X1011898D01*
X1011504Y0301158D01*
X1009536Y0301551D02*
Y0299190D01*
X1010717Y0300370D01*
X1009143D01*
X1008356Y0299583D02*
X1007962Y0299190D01*
X1007175D01*
X1006781Y0299583D01*
Y0301158D01*
X1007175Y0301551D01*
X1007962D01*
X1008356Y0301158D01*
Y0299583D01*
X1019861Y0278875D02*
X1019467Y0278482D01*
Y0277695D01*
X1019861Y0277301D01*
X1021435D01*
X1021829Y0277695D01*
Y0278482D01*
X1021435Y0278875D01*
X1021829Y0280843D02*
X1019467D01*
X1020648Y0279663D01*
Y0281237D01*
X1021829Y0282024D02*
Y0282811D01*
Y0282418D01*
X1019467D01*
X1019861Y0282024D01*
X1042004Y0297583D02*
X1042398Y0297190D01*
X1043185D01*
X1043579Y0297583D01*
Y0299158D01*
X1043185Y0299551D01*
X1042398D01*
X1042004Y0299158D01*
X1040036Y0299551D02*
Y0297190D01*
X1041217Y0298370D01*
X1039643D01*
X1037282Y0299551D02*
X1038856D01*
X1037282Y0297977D01*
Y0297583D01*
X1037675Y0297190D01*
X1038462D01*
X1038856Y0297583D01*
X1034707Y0308516D02*
X1035101Y0308123D01*
X1035888D01*
X1036281Y0308516D01*
Y0310091D01*
X1035888Y0310484D01*
X1035101D01*
X1034707Y0310091D01*
X1032739Y0310484D02*
Y0308123D01*
X1033920Y0309303D01*
X1032346D01*
X1031559Y0308516D02*
X1031165Y0308123D01*
X1030378D01*
X1029984Y0308516D01*
Y0308910D01*
X1030378Y0309303D01*
X1030771D01*
X1030378D01*
X1029984Y0309697D01*
Y0310091D01*
X1030378Y0310484D01*
X1031165D01*
X1031559Y0310091D01*
X0961153Y0322519D02*
X0960759Y0322913D01*
X0959972D01*
X0959579Y0322519D01*
Y0320945D01*
X0959972Y0320551D01*
X0960759D01*
X0961153Y0320945D01*
X0963121Y0320551D02*
Y0322913D01*
X0961940Y0321732D01*
X0963514D01*
X0965482Y0320551D02*
Y0322913D01*
X0964302Y0321732D01*
X0965876D01*
X1035940Y0372333D02*
X1036333Y0371940D01*
X1037120D01*
X1037514Y0372333D01*
Y0373908D01*
X1037120Y0374301D01*
X1036333D01*
X1035940Y0373908D01*
X1033972Y0374301D02*
Y0371940D01*
X1035152Y0373120D01*
X1033578D01*
X1031217Y0371940D02*
X1032791D01*
Y0373120D01*
X1032004Y0372727D01*
X1031610D01*
X1031217Y0373120D01*
Y0373908D01*
X1031610Y0374301D01*
X1032397D01*
X1032791Y0373908D01*
X0965403Y0346019D02*
X0965009Y0346413D01*
X0964222D01*
X0963829Y0346019D01*
Y0344445D01*
X0964222Y0344051D01*
X0965009D01*
X0965403Y0344445D01*
X0967371Y0344051D02*
Y0346413D01*
X0966190Y0345232D01*
X0967764D01*
X0970126Y0346413D02*
X0969339Y0346019D01*
X0968552Y0345232D01*
Y0344445D01*
X0968945Y0344051D01*
X0969732D01*
X0970126Y0344445D01*
Y0344838D01*
X0969732Y0345232D01*
X0968552D01*
X1035940Y0377833D02*
X1036333Y0377440D01*
X1037120D01*
X1037514Y0377833D01*
Y0379408D01*
X1037120Y0379801D01*
X1036333D01*
X1035940Y0379408D01*
X1033972Y0379801D02*
Y0377440D01*
X1035152Y0378620D01*
X1033578D01*
X1032791Y0377440D02*
X1031217D01*
Y0377833D01*
X1032791Y0379408D01*
Y0379801D01*
X0877233Y0216462D02*
X0876839Y0216069D01*
Y0215281D01*
X0877233Y0214888D01*
X0878807D01*
X0879201Y0215281D01*
Y0216069D01*
X0878807Y0216462D01*
X0879201Y0218430D02*
X0876839D01*
X0878020Y0217249D01*
Y0218824D01*
X0877233Y0219611D02*
X0876839Y0220004D01*
Y0220791D01*
X0877233Y0221185D01*
X0877627D01*
X0878020Y0220791D01*
X0878414Y0221185D01*
X0878807D01*
X0879201Y0220791D01*
Y0220004D01*
X0878807Y0219611D01*
X0878414D01*
X0878020Y0220004D01*
X0877627Y0219611D01*
X0877233D01*
X0878020Y0220004D02*
Y0220791D01*
X0895021Y0183484D02*
X0894627Y0183877D01*
X0893840D01*
X0893447Y0183484D01*
Y0181909D01*
X0893840Y0181516D01*
X0894627D01*
X0895021Y0181909D01*
X0896989Y0181516D02*
Y0183877D01*
X0895808Y0182696D01*
X0897383D01*
X0898170Y0181909D02*
X0898563Y0181516D01*
X0899350D01*
X0899744Y0181909D01*
Y0183484D01*
X0899350Y0183877D01*
X0898563D01*
X0898170Y0183484D01*
Y0183090D01*
X0898563Y0182696D01*
X0899744D01*
X1166078Y0364613D02*
X1166472Y0365006D01*
Y0365793D01*
X1166078Y0366187D01*
X1164504D01*
X1164110Y0365793D01*
Y0365006D01*
X1164504Y0364613D01*
X1166472Y0362251D02*
Y0363825D01*
X1165291D01*
X1165685Y0363038D01*
Y0362645D01*
X1165291Y0362251D01*
X1164504D01*
X1164110Y0362645D01*
Y0363432D01*
X1164504Y0363825D01*
X1164110Y0359890D02*
Y0361464D01*
X1165685Y0359890D01*
X1166078D01*
X1166472Y0360283D01*
Y0361070D01*
X1166078Y0361464D01*
X1166011Y0393562D02*
X1166405Y0393955D01*
Y0394742D01*
X1166011Y0395136D01*
X1164437D01*
X1164043Y0394742D01*
Y0393955D01*
X1164437Y0393562D01*
X1166405Y0391200D02*
Y0392774D01*
X1165224D01*
X1165618Y0391987D01*
Y0391594D01*
X1165224Y0391200D01*
X1164437D01*
X1164043Y0391594D01*
Y0392381D01*
X1164437Y0392774D01*
X1166011Y0390413D02*
X1166405Y0390019D01*
Y0389232D01*
X1166011Y0388839D01*
X1165618D01*
X1165224Y0389232D01*
Y0389626D01*
Y0389232D01*
X1164830Y0388839D01*
X1164437D01*
X1164043Y0389232D01*
Y0390019D01*
X1164437Y0390413D01*
X1170343Y0347564D02*
X1169950Y0347171D01*
Y0346384D01*
X1170343Y0345990D01*
X1171917D01*
X1172311Y0346384D01*
Y0347171D01*
X1171917Y0347564D01*
X1169950Y0349926D02*
Y0348352D01*
X1171130D01*
X1170737Y0349139D01*
Y0349532D01*
X1171130Y0349926D01*
X1171917D01*
X1172311Y0349532D01*
Y0348745D01*
X1171917Y0348352D01*
X1172311Y0351894D02*
X1169950D01*
X1171130Y0350713D01*
Y0352287D01*
X1186644Y0330446D02*
X1187038Y0330052D01*
X1187825D01*
X1188218Y0330446D01*
Y0332020D01*
X1187825Y0332413D01*
X1187038D01*
X1186644Y0332020D01*
X1184283Y0330052D02*
X1185857D01*
Y0331233D01*
X1185070Y0330839D01*
X1184676D01*
X1184283Y0331233D01*
Y0332020D01*
X1184676Y0332413D01*
X1185464D01*
X1185857Y0332020D01*
X1181921Y0330052D02*
X1183496D01*
Y0331233D01*
X1182708Y0330839D01*
X1182315D01*
X1181921Y0331233D01*
Y0332020D01*
X1182315Y0332413D01*
X1183102D01*
X1183496Y0332020D01*
X1170638Y0376698D02*
X1170245Y0376305D01*
Y0375518D01*
X1170638Y0375124D01*
X1172213D01*
X1172606Y0375518D01*
Y0376305D01*
X1172213Y0376698D01*
X1170245Y0379060D02*
Y0377485D01*
X1171426D01*
X1171032Y0378273D01*
Y0378666D01*
X1171426Y0379060D01*
X1172213D01*
X1172606Y0378666D01*
Y0377879D01*
X1172213Y0377485D01*
X1170245Y0381421D02*
X1170638Y0380634D01*
X1171426Y0379847D01*
X1172213D01*
X1172606Y0380240D01*
Y0381028D01*
X1172213Y0381421D01*
X1171819D01*
X1171426Y0381028D01*
Y0379847D01*
X1193081Y0379050D02*
X1193475Y0378656D01*
X1194262D01*
X1194656Y0379050D01*
Y0380624D01*
X1194262Y0381018D01*
X1193475D01*
X1193081Y0380624D01*
X1190720Y0378656D02*
X1192294D01*
Y0379837D01*
X1191507Y0379443D01*
X1191113D01*
X1190720Y0379837D01*
Y0380624D01*
X1191113Y0381018D01*
X1191901D01*
X1192294Y0380624D01*
X1189933Y0378656D02*
X1188358D01*
Y0379050D01*
X1189933Y0380624D01*
Y0381018D01*
X1164142Y0347564D02*
X1163749Y0347171D01*
Y0346384D01*
X1164142Y0345990D01*
X1165717D01*
X1166110Y0346384D01*
Y0347171D01*
X1165717Y0347564D01*
X1163749Y0349926D02*
Y0348352D01*
X1164929D01*
X1164536Y0349139D01*
Y0349532D01*
X1164929Y0349926D01*
X1165717D01*
X1166110Y0349532D01*
Y0348745D01*
X1165717Y0348352D01*
X1164142Y0350713D02*
X1163749Y0351107D01*
Y0351894D01*
X1164142Y0352287D01*
X1164536D01*
X1164929Y0351894D01*
X1165323Y0352287D01*
X1165717D01*
X1166110Y0351894D01*
Y0351107D01*
X1165717Y0350713D01*
X1165323D01*
X1164929Y0351107D01*
X1164536Y0350713D01*
X1164142D01*
X1164929Y0351107D02*
Y0351894D01*
X1186644Y0324196D02*
X1187038Y0323802D01*
X1187825D01*
X1188218Y0324196D01*
Y0325770D01*
X1187825Y0326163D01*
X1187038D01*
X1186644Y0325770D01*
X1184283Y0323802D02*
X1185857D01*
Y0324983D01*
X1185070Y0324589D01*
X1184676D01*
X1184283Y0324983D01*
Y0325770D01*
X1184676Y0326163D01*
X1185464D01*
X1185857Y0325770D01*
X1183496D02*
X1183102Y0326163D01*
X1182315D01*
X1181921Y0325770D01*
Y0324196D01*
X1182315Y0323802D01*
X1183102D01*
X1183496Y0324196D01*
Y0324589D01*
X1183102Y0324983D01*
X1181921D01*
X1164075Y0375710D02*
X1163682Y0375317D01*
Y0374529D01*
X1164075Y0374136D01*
X1165650D01*
X1166043Y0374529D01*
Y0375317D01*
X1165650Y0375710D01*
X1163682Y0378071D02*
X1164075Y0377284D01*
X1164863Y0376497D01*
X1165650D01*
X1166043Y0376891D01*
Y0377678D01*
X1165650Y0378071D01*
X1165256D01*
X1164863Y0377678D01*
Y0376497D01*
X1164075Y0378859D02*
X1163682Y0379252D01*
Y0380039D01*
X1164075Y0380433D01*
X1165650D01*
X1166043Y0380039D01*
Y0379252D01*
X1165650Y0378859D01*
X1164075D01*
X1193081Y0372800D02*
X1193475Y0372406D01*
X1194262D01*
X1194656Y0372800D01*
Y0374374D01*
X1194262Y0374768D01*
X1193475D01*
X1193081Y0374374D01*
X1190720Y0372406D02*
X1191507Y0372800D01*
X1192294Y0373587D01*
Y0374374D01*
X1191901Y0374768D01*
X1191113D01*
X1190720Y0374374D01*
Y0373980D01*
X1191113Y0373587D01*
X1192294D01*
X1189933Y0374768D02*
X1189145D01*
X1189539D01*
Y0372406D01*
X1189933Y0372800D01*
X0611041Y0159295D02*
X0611762Y0160016D01*
Y0161460D01*
X0611041Y0162181D01*
X0608155D01*
X0607433Y0161460D01*
Y0160016D01*
X0608155Y0159295D01*
X0611762Y0155687D02*
Y0157130D01*
X0611041Y0157852D01*
X0608155D01*
X0607433Y0157130D01*
Y0155687D01*
X0608155Y0154966D01*
X0611041D01*
X0611762Y0155687D01*
X0607433Y0153523D02*
X0611762D01*
X0607433Y0150636D01*
X0611762D01*
X0611041Y0149193D02*
X0611762Y0148472D01*
Y0147029D01*
X0611041Y0146307D01*
X0610319D01*
X0609598Y0147029D01*
Y0147750D01*
Y0147029D01*
X0608876Y0146307D01*
X0608155D01*
X0607433Y0147029D01*
Y0148472D01*
X0608155Y0149193D01*
X0801318Y0109965D02*
X0803679D01*
Y0111145D01*
X0803286Y0111539D01*
X0801711D01*
X0801318Y0111145D01*
Y0109965D01*
X0803679Y0112326D02*
Y0113113D01*
Y0112720D01*
X0801318D01*
X0801711Y0112326D01*
X0845818Y0110214D02*
X0848179D01*
Y0111395D01*
X0847785Y0111789D01*
X0846211D01*
X0845818Y0111395D01*
Y0110214D01*
X0848179Y0114150D02*
Y0112576D01*
X0846605Y0114150D01*
X0846211D01*
X0845818Y0113757D01*
Y0112970D01*
X0846211Y0112576D01*
X1134068Y0114715D02*
X1136429D01*
Y0115895D01*
X1136036Y0116289D01*
X1134461D01*
X1134068Y0115895D01*
Y0114715D01*
X1134461Y0117076D02*
X1134068Y0117470D01*
Y0118257D01*
X1134461Y0118650D01*
X1134855D01*
X1135248Y0118257D01*
Y0117863D01*
Y0118257D01*
X1135642Y0118650D01*
X1136036D01*
X1136429Y0118257D01*
Y0117470D01*
X1136036Y0117076D01*
X1158818Y0114715D02*
X1161179D01*
Y0115895D01*
X1160785Y0116289D01*
X1159211D01*
X1158818Y0115895D01*
Y0114715D01*
X1161179Y0118257D02*
X1158818D01*
X1159998Y0117076D01*
Y0118650D01*
X1037364Y0342965D02*
Y0345327D01*
X1035790D01*
X1033822D02*
Y0342965D01*
X1035003Y0344146D01*
X1033428D01*
X0959579Y0317413D02*
Y0315051D01*
X0961153D01*
X0963514Y0317413D02*
X0961940D01*
Y0316232D01*
X0962727Y0316625D01*
X0963121D01*
X0963514Y0316232D01*
Y0315445D01*
X0963121Y0315051D01*
X0962334D01*
X0961940Y0315445D01*
X1171535Y0362511D02*
Y0359362D01*
X1173635D01*
X1176783Y0362511D02*
X1175733Y0361986D01*
X1174684Y0360936D01*
Y0359887D01*
X1175209Y0359362D01*
X1176258D01*
X1176783Y0359887D01*
Y0360412D01*
X1176258Y0360936D01*
X1174684D01*
X1171437Y0392432D02*
Y0389283D01*
X1173536D01*
X1174586Y0392432D02*
X1176685D01*
Y0391907D01*
X1174586Y0389808D01*
Y0389283D01*
X1180538Y0353059D02*
X1177390D01*
Y0350960D01*
X1180014Y0349910D02*
X1180538Y0349386D01*
Y0348336D01*
X1180014Y0347811D01*
X1179489D01*
X1178964Y0348336D01*
X1178439Y0347811D01*
X1177915D01*
X1177390Y0348336D01*
Y0349386D01*
X1177915Y0349910D01*
X1178439D01*
X1178964Y0349386D01*
X1179489Y0349910D01*
X1180014D01*
X1178964Y0349386D02*
Y0348336D01*
X1181818Y0382390D02*
X1178669D01*
Y0380291D01*
X1179194Y0379241D02*
X1178669Y0378716D01*
Y0377667D01*
X1179194Y0377142D01*
X1181293D01*
X1181818Y0377667D01*
Y0378716D01*
X1181293Y0379241D01*
X1180768D01*
X1180244Y0378716D01*
Y0377142D01*
X0871901Y0167949D02*
Y0170310D01*
X0871310Y0170900D01*
X0870130D01*
X0869539Y0170310D01*
Y0167949D01*
X0870130Y0167358D01*
X0871310D01*
X0870720Y0168539D02*
X0871901Y0167358D01*
X0871310D02*
X0871901Y0167949D01*
X0873081Y0167358D02*
X0874262D01*
X0873672D01*
Y0170900D01*
X0873081Y0170310D01*
X0884698Y0171591D02*
Y0169229D01*
X0885288Y0168639D01*
X0886469D01*
X0887059Y0169229D01*
Y0171591D01*
X0886469Y0172181D01*
X0885288D01*
X0885878Y0171000D02*
X0884698Y0172181D01*
X0885288D02*
X0884698Y0171591D01*
X0881155Y0172181D02*
X0883517D01*
X0881155Y0169820D01*
Y0169229D01*
X0881746Y0168639D01*
X0882926D01*
X0883517Y0169229D01*
X0858930Y0155317D02*
Y0152956D01*
X0859520Y0152365D01*
X0860701D01*
X0861291Y0152956D01*
Y0155317D01*
X0860701Y0155907D01*
X0859520D01*
X0860111Y0154727D02*
X0858930Y0155907D01*
X0859520D02*
X0858930Y0155317D01*
X0857749Y0152956D02*
X0857159Y0152365D01*
X0855978D01*
X0855388Y0152956D01*
Y0153546D01*
X0855978Y0154136D01*
X0856568D01*
X0855978D01*
X0855388Y0154727D01*
Y0155317D01*
X0855978Y0155907D01*
X0857159D01*
X0857749Y0155317D01*
X0837417Y0164970D02*
Y0167332D01*
X0838598D01*
X0838992Y0166938D01*
Y0166151D01*
X0838598Y0165758D01*
X0837417D01*
X0838204D02*
X0838992Y0164970D01*
X0839779Y0166938D02*
X0840172Y0167332D01*
X0840959D01*
X0841353Y0166938D01*
Y0166545D01*
X0840959Y0166151D01*
X0840566D01*
X0840959D01*
X0841353Y0165758D01*
Y0165364D01*
X0840959Y0164970D01*
X0840172D01*
X0839779Y0165364D01*
X0685632Y0309884D02*
X0687993D01*
Y0308703D01*
X0687600Y0308310D01*
X0686813D01*
X0686419Y0308703D01*
Y0309884D01*
Y0309097D02*
X0685632Y0308310D01*
X0687993Y0305948D02*
Y0307522D01*
X0686813D01*
X0687206Y0306735D01*
Y0306342D01*
X0686813Y0305948D01*
X0686025D01*
X0685632Y0306342D01*
Y0307129D01*
X0686025Y0307522D01*
X0678844Y0309884D02*
X0681206D01*
Y0308703D01*
X0680812Y0308310D01*
X0680025D01*
X0679632Y0308703D01*
Y0309884D01*
Y0309097D02*
X0678844Y0308310D01*
X0681206Y0305948D02*
X0680812Y0306735D01*
X0680025Y0307522D01*
X0679238D01*
X0678844Y0307129D01*
Y0306342D01*
X0679238Y0305948D01*
X0679632D01*
X0680025Y0306342D01*
Y0307522D01*
X0804073Y0121465D02*
X0801711D01*
Y0122645D01*
X0802105Y0123039D01*
X0802892D01*
X0803286Y0122645D01*
Y0121465D01*
Y0122252D02*
X0804073Y0123039D01*
X0801711Y0123826D02*
Y0125400D01*
X0802105D01*
X0803679Y0123826D01*
X0804073D01*
X0848573Y0122667D02*
X0846211D01*
Y0123848D01*
X0846605Y0124242D01*
X0847392D01*
X0847786Y0123848D01*
Y0122667D01*
Y0123454D02*
X0848573Y0124242D01*
X0846605Y0125029D02*
X0846211Y0125422D01*
Y0126209D01*
X0846605Y0126603D01*
X0846999D01*
X0847392Y0126209D01*
X0847786Y0126603D01*
X0848179D01*
X0848573Y0126209D01*
Y0125422D01*
X0848179Y0125029D01*
X0847786D01*
X0847392Y0125422D01*
X0846999Y0125029D01*
X0846605D01*
X0847392Y0125422D02*
Y0126209D01*
X0858673Y0171376D02*
X0861035D01*
Y0170195D01*
X0860641Y0169802D01*
X0859854D01*
X0859460Y0170195D01*
Y0171376D01*
Y0170589D02*
X0858673Y0169802D01*
X0859067Y0169015D02*
X0858673Y0168621D01*
Y0167834D01*
X0859067Y0167440D01*
X0860641D01*
X0861035Y0167834D01*
Y0168621D01*
X0860641Y0169015D01*
X0860248D01*
X0859854Y0168621D01*
Y0167440D01*
X0876232Y0177398D02*
X0873871D01*
Y0178578D01*
X0874264Y0178972D01*
X0875051D01*
X0875445Y0178578D01*
Y0177398D01*
Y0178185D02*
X0876232Y0178972D01*
Y0179759D02*
Y0180546D01*
Y0180153D01*
X0873871D01*
X0874264Y0179759D01*
Y0181727D02*
X0873871Y0182121D01*
Y0182908D01*
X0874264Y0183301D01*
X0875839D01*
X0876232Y0182908D01*
Y0182121D01*
X0875839Y0181727D01*
X0874264D01*
X0836860Y0372644D02*
Y0370282D01*
X0835680D01*
X0835286Y0370676D01*
Y0371463D01*
X0835680Y0371856D01*
X0836860D01*
X0836073D02*
X0835286Y0372644D01*
X0834499D02*
X0833712D01*
X0834105D01*
Y0370282D01*
X0834499Y0370676D01*
X0832531D02*
X0832137Y0370282D01*
X0831350D01*
X0830957Y0370676D01*
Y0371069D01*
X0831350Y0371463D01*
X0831744D01*
X0831350D01*
X0830957Y0371856D01*
Y0372250D01*
X0831350Y0372644D01*
X0832137D01*
X0832531Y0372250D01*
X0836907Y0379144D02*
Y0376782D01*
X0835727D01*
X0835333Y0377176D01*
Y0377963D01*
X0835727Y0378357D01*
X0836907D01*
X0836120D02*
X0835333Y0379144D01*
X0834546D02*
X0833759D01*
X0834152D01*
Y0376782D01*
X0834546Y0377176D01*
X0831397Y0379144D02*
Y0376782D01*
X0832578Y0377963D01*
X0831004D01*
X1135091Y0188618D02*
X1137452D01*
Y0187437D01*
X1137058Y0187044D01*
X1136271D01*
X1135878Y0187437D01*
Y0188618D01*
Y0187831D02*
X1135091Y0187044D01*
Y0186257D02*
Y0185469D01*
Y0185863D01*
X1137452D01*
X1137058Y0186257D01*
X1137452Y0182714D02*
Y0184289D01*
X1136271D01*
X1136665Y0183502D01*
Y0183108D01*
X1136271Y0182714D01*
X1135484D01*
X1135091Y0183108D01*
Y0183895D01*
X1135484Y0184289D01*
X0834106Y0236650D02*
Y0239011D01*
X0835287D01*
X0835681Y0238617D01*
Y0237830D01*
X0835287Y0237437D01*
X0834106D01*
X0834893D02*
X0835681Y0236650D01*
X0836468D02*
X0837255D01*
X0836861D01*
Y0239011D01*
X0836468Y0238617D01*
X0840010Y0239011D02*
X0839223Y0238617D01*
X0838436Y0237830D01*
Y0237043D01*
X0838829Y0236650D01*
X0839616D01*
X0840010Y0237043D01*
Y0237437D01*
X0839616Y0237830D01*
X0838436D01*
X0834120Y0230614D02*
Y0232976D01*
X0835301D01*
X0835694Y0232582D01*
Y0231795D01*
X0835301Y0231401D01*
X0834120D01*
X0834907D02*
X0835694Y0230614D01*
X0836481D02*
X0837269D01*
X0836875D01*
Y0232976D01*
X0836481Y0232582D01*
X0838449Y0232976D02*
X0840024D01*
Y0232582D01*
X0838449Y0231008D01*
Y0230614D01*
X0870130Y0222476D02*
X0867768D01*
Y0223657D01*
X0868162Y0224051D01*
X0868949D01*
X0869343Y0223657D01*
Y0222476D01*
Y0223264D02*
X0870130Y0224051D01*
Y0224838D02*
Y0225625D01*
Y0225231D01*
X0867768D01*
X0868162Y0224838D01*
Y0226806D02*
X0867768Y0227199D01*
Y0227986D01*
X0868162Y0228380D01*
X0868556D01*
X0868949Y0227986D01*
X0869343Y0228380D01*
X0869736D01*
X0870130Y0227986D01*
Y0227199D01*
X0869736Y0226806D01*
X0869343D01*
X0868949Y0227199D01*
X0868556Y0226806D01*
X0868162D01*
X0868949Y0227199D02*
Y0227986D01*
X0864028Y0222476D02*
X0861666D01*
Y0223657D01*
X0862060Y0224051D01*
X0862847D01*
X0863240Y0223657D01*
Y0222476D01*
Y0223264D02*
X0864028Y0224051D01*
Y0224838D02*
Y0225625D01*
Y0225231D01*
X0861666D01*
X0862060Y0224838D01*
X0863634Y0226806D02*
X0864028Y0227199D01*
Y0227986D01*
X0863634Y0228380D01*
X0862060D01*
X0861666Y0227986D01*
Y0227199D01*
X0862060Y0226806D01*
X0862453D01*
X0862847Y0227199D01*
Y0228380D01*
X1154480Y0228677D02*
Y0231039D01*
X1155661D01*
X1156055Y0230645D01*
Y0229858D01*
X1155661Y0229464D01*
X1154480D01*
X1155267D02*
X1156055Y0228677D01*
X1158416D02*
X1156842D01*
X1158416Y0230251D01*
Y0230645D01*
X1158022Y0231039D01*
X1157235D01*
X1156842Y0230645D01*
X1159203D02*
X1159597Y0231039D01*
X1160384D01*
X1160777Y0230645D01*
Y0229071D01*
X1160384Y0228677D01*
X1159597D01*
X1159203Y0229071D01*
Y0230645D01*
X0619736Y0237338D02*
Y0239700D01*
X0620917D01*
X0621311Y0239306D01*
Y0238519D01*
X0620917Y0238126D01*
X0619736D01*
X0620523D02*
X0621311Y0237338D01*
X0623672D02*
X0622098D01*
X0623672Y0238913D01*
Y0239306D01*
X0623278Y0239700D01*
X0622491D01*
X0622098Y0239306D01*
X0626033Y0237338D02*
X0624459D01*
X0626033Y0238913D01*
Y0239306D01*
X0625640Y0239700D01*
X0624853D01*
X0624459Y0239306D01*
X0627709Y0194130D02*
Y0191769D01*
X0626528D01*
X0626134Y0192162D01*
Y0192949D01*
X0626528Y0193343D01*
X0627709D01*
X0626922D02*
X0626134Y0194130D01*
X0623773D02*
X0625347D01*
X0623773Y0192556D01*
Y0192162D01*
X0624166Y0191769D01*
X0624954D01*
X0625347Y0192162D01*
X0621412Y0191769D02*
X0622986D01*
Y0192949D01*
X0622199Y0192556D01*
X0621805D01*
X0621412Y0192949D01*
Y0193736D01*
X0621805Y0194130D01*
X0622592D01*
X0622986Y0193736D01*
X0619047Y0184976D02*
Y0187338D01*
X0620228D01*
X0620621Y0186944D01*
Y0186157D01*
X0620228Y0185764D01*
X0619047D01*
X0619834D02*
X0620621Y0184976D01*
X0622983D02*
X0621409D01*
X0622983Y0186551D01*
Y0186944D01*
X0622589Y0187338D01*
X0621802D01*
X0621409Y0186944D01*
X0625344Y0187338D02*
X0624557Y0186944D01*
X0623770Y0186157D01*
Y0185370D01*
X0624164Y0184976D01*
X0624951D01*
X0625344Y0185370D01*
Y0185764D01*
X0624951Y0186157D01*
X0623770D01*
X0989815Y0286256D02*
Y0288617D01*
X0990996D01*
X0991389Y0288224D01*
Y0287437D01*
X0990996Y0287043D01*
X0989815D01*
X0990602D02*
X0991389Y0286256D01*
X0993751D02*
X0992176D01*
X0993751Y0287830D01*
Y0288224D01*
X0993357Y0288617D01*
X0992570D01*
X0992176Y0288224D01*
X0994538Y0286649D02*
X0994931Y0286256D01*
X0995718D01*
X0996112Y0286649D01*
Y0288224D01*
X0995718Y0288617D01*
X0994931D01*
X0994538Y0288224D01*
Y0287830D01*
X0994931Y0287437D01*
X0996112D01*
X1013659Y0296126D02*
Y0293764D01*
X1012479D01*
X1012085Y0294158D01*
Y0294945D01*
X1012479Y0295339D01*
X1013659D01*
X1012872D02*
X1012085Y0296126D01*
X1011298Y0294158D02*
X1010904Y0293764D01*
X1010117D01*
X1009724Y0294158D01*
Y0294552D01*
X1010117Y0294945D01*
X1010511D01*
X1010117D01*
X1009724Y0295339D01*
Y0295732D01*
X1010117Y0296126D01*
X1010904D01*
X1011298Y0295732D01*
X1008937Y0294158D02*
X1008543Y0293764D01*
X1007756D01*
X1007362Y0294158D01*
Y0295732D01*
X1007756Y0296126D01*
X1008543D01*
X1008937Y0295732D01*
Y0294158D01*
X0974559Y0283894D02*
Y0286255D01*
X0975740D01*
X0976133Y0285861D01*
Y0285074D01*
X0975740Y0284681D01*
X0974559D01*
X0975346D02*
X0976133Y0283894D01*
X0976921Y0285861D02*
X0977314Y0286255D01*
X0978101D01*
X0978495Y0285861D01*
Y0285468D01*
X0978101Y0285074D01*
X0977708D01*
X0978101D01*
X0978495Y0284681D01*
Y0284287D01*
X0978101Y0283894D01*
X0977314D01*
X0976921Y0284287D01*
X0979282Y0283894D02*
X0980069D01*
X0979675D01*
Y0286255D01*
X0979282Y0285861D01*
X0998476Y0282909D02*
Y0280548D01*
X0997296D01*
X0996902Y0280942D01*
Y0281729D01*
X0997296Y0282122D01*
X0998476D01*
X0997689D02*
X0996902Y0282909D01*
X0996115Y0280942D02*
X0995721Y0280548D01*
X0994934D01*
X0994541Y0280942D01*
Y0281335D01*
X0994934Y0281729D01*
X0995328D01*
X0994934D01*
X0994541Y0282122D01*
Y0282516D01*
X0994934Y0282909D01*
X0995721D01*
X0996115Y0282516D01*
X0992179Y0282909D02*
X0993754D01*
X0992179Y0281335D01*
Y0280942D01*
X0992573Y0280548D01*
X0993360D01*
X0993754Y0280942D01*
X1038909Y0272376D02*
Y0270015D01*
X1037729D01*
X1037335Y0270408D01*
Y0271195D01*
X1037729Y0271589D01*
X1038909D01*
X1038122D02*
X1037335Y0272376D01*
X1036548Y0270408D02*
X1036154Y0270015D01*
X1035367D01*
X1034974Y0270408D01*
Y0270802D01*
X1035367Y0271195D01*
X1035761D01*
X1035367D01*
X1034974Y0271589D01*
Y0271982D01*
X1035367Y0272376D01*
X1036154D01*
X1036548Y0271982D01*
X1034186Y0270408D02*
X1033793Y0270015D01*
X1033006D01*
X1032612Y0270408D01*
Y0270802D01*
X1033006Y0271195D01*
X1033399D01*
X1033006D01*
X1032612Y0271589D01*
Y0271982D01*
X1033006Y0272376D01*
X1033793D01*
X1034186Y0271982D01*
X0971957Y0334876D02*
Y0332515D01*
X0970776D01*
X0970382Y0332908D01*
Y0333695D01*
X0970776Y0334089D01*
X0971957D01*
X0971169D02*
X0970382Y0334876D01*
X0969595Y0332908D02*
X0969202Y0332515D01*
X0968414D01*
X0968021Y0332908D01*
Y0333302D01*
X0968414Y0333695D01*
X0968808D01*
X0968414D01*
X0968021Y0334089D01*
Y0334482D01*
X0968414Y0334876D01*
X0969202D01*
X0969595Y0334482D01*
X0966053Y0334876D02*
Y0332515D01*
X0967234Y0333695D01*
X0965660D01*
X1023476Y0260764D02*
X1025838D01*
Y0259583D01*
X1025444Y0259190D01*
X1024657D01*
X1024263Y0259583D01*
Y0260764D01*
Y0259977D02*
X1023476Y0259190D01*
X1025444Y0258402D02*
X1025838Y0258009D01*
Y0257222D01*
X1025444Y0256828D01*
X1025051D01*
X1024657Y0257222D01*
Y0257615D01*
Y0257222D01*
X1024263Y0256828D01*
X1023870D01*
X1023476Y0257222D01*
Y0258009D01*
X1023870Y0258402D01*
X1025838Y0254467D02*
Y0256041D01*
X1024657D01*
X1025051Y0255254D01*
Y0254860D01*
X1024657Y0254467D01*
X1023870D01*
X1023476Y0254860D01*
Y0255647D01*
X1023870Y0256041D01*
X0970819Y0240488D02*
Y0242850D01*
X0972000D01*
X0972393Y0242456D01*
Y0241669D01*
X0972000Y0241275D01*
X0970819D01*
X0971606D02*
X0972393Y0240488D01*
X0973180Y0242456D02*
X0973574Y0242850D01*
X0974361D01*
X0974755Y0242456D01*
Y0242062D01*
X0974361Y0241669D01*
X0973967D01*
X0974361D01*
X0974755Y0241275D01*
Y0240882D01*
X0974361Y0240488D01*
X0973574D01*
X0973180Y0240882D01*
X0977116Y0242850D02*
X0976329Y0242456D01*
X0975542Y0241669D01*
Y0240882D01*
X0975935Y0240488D01*
X0976723D01*
X0977116Y0240882D01*
Y0241275D01*
X0976723Y0241669D01*
X0975542D01*
X0958248Y0306476D02*
Y0308838D01*
X0959429D01*
X0959822Y0308444D01*
Y0307657D01*
X0959429Y0307263D01*
X0958248D01*
X0959035D02*
X0959822Y0306476D01*
X0960609Y0308444D02*
X0961003Y0308838D01*
X0961790D01*
X0962184Y0308444D01*
Y0308051D01*
X0961790Y0307657D01*
X0961397D01*
X0961790D01*
X0962184Y0307263D01*
Y0306870D01*
X0961790Y0306476D01*
X0961003D01*
X0960609Y0306870D01*
X0962971Y0308838D02*
X0964545D01*
Y0308444D01*
X0962971Y0306870D01*
Y0306476D01*
X0979159Y0370126D02*
Y0367764D01*
X0977979D01*
X0977585Y0368158D01*
Y0368945D01*
X0977979Y0369339D01*
X0979159D01*
X0978372D02*
X0977585Y0370126D01*
X0976798Y0368158D02*
X0976404Y0367764D01*
X0975617D01*
X0975224Y0368158D01*
Y0368552D01*
X0975617Y0368945D01*
X0976011D01*
X0975617D01*
X0975224Y0369339D01*
Y0369732D01*
X0975617Y0370126D01*
X0976404D01*
X0976798Y0369732D01*
X0974436Y0368158D02*
X0974043Y0367764D01*
X0973256D01*
X0972862Y0368158D01*
Y0368552D01*
X0973256Y0368945D01*
X0972862Y0369339D01*
Y0369732D01*
X0973256Y0370126D01*
X0974043D01*
X0974436Y0369732D01*
Y0369339D01*
X0974043Y0368945D01*
X0974436Y0368552D01*
Y0368158D01*
X0974043Y0368945D02*
X0973256D01*
X1022404Y0290970D02*
X1020042D01*
Y0292151D01*
X1020436Y0292545D01*
X1021223D01*
X1021616Y0292151D01*
Y0290970D01*
Y0291758D02*
X1022404Y0292545D01*
X1020436Y0293332D02*
X1020042Y0293725D01*
Y0294513D01*
X1020436Y0294906D01*
X1020829D01*
X1021223Y0294513D01*
Y0294119D01*
Y0294513D01*
X1021616Y0294906D01*
X1022010D01*
X1022404Y0294513D01*
Y0293725D01*
X1022010Y0293332D01*
Y0295693D02*
X1022404Y0296087D01*
Y0296874D01*
X1022010Y0297268D01*
X1020436D01*
X1020042Y0296874D01*
Y0296087D01*
X1020436Y0295693D01*
X1020829D01*
X1021223Y0296087D01*
Y0297268D01*
X1036862Y0317457D02*
Y0315095D01*
X1035682D01*
X1035288Y0315489D01*
Y0316276D01*
X1035682Y0316670D01*
X1036862D01*
X1036075D02*
X1035288Y0317457D01*
X1033320D02*
Y0315095D01*
X1034501Y0316276D01*
X1032926D01*
X1032139Y0315489D02*
X1031746Y0315095D01*
X1030959D01*
X1030565Y0315489D01*
Y0317063D01*
X1030959Y0317457D01*
X1031746D01*
X1032139Y0317063D01*
Y0315489D01*
X1029183Y0365726D02*
Y0368088D01*
X1030364D01*
X1030757Y0367694D01*
Y0366907D01*
X1030364Y0366513D01*
X1029183D01*
X1029970D02*
X1030757Y0365726D01*
X1032725D02*
Y0368088D01*
X1031544Y0366907D01*
X1033119D01*
X1033906Y0365726D02*
X1034693D01*
X1034299D01*
Y0368088D01*
X1033906Y0367694D01*
X0842667Y0148470D02*
Y0150832D01*
X0843848D01*
X0844242Y0150438D01*
Y0149651D01*
X0843848Y0149258D01*
X0842667D01*
X0843454D02*
X0844242Y0148470D01*
X0846209D02*
Y0150832D01*
X0845029Y0149651D01*
X0846603D01*
X0848965Y0148470D02*
X0847390D01*
X0848965Y0150045D01*
Y0150438D01*
X0848571Y0150832D01*
X0847784D01*
X0847390Y0150438D01*
X0852667Y0140220D02*
Y0142582D01*
X0853848D01*
X0854242Y0142188D01*
Y0141401D01*
X0853848Y0141008D01*
X0852667D01*
X0853454D02*
X0854242Y0140220D01*
X0856209D02*
Y0142582D01*
X0855029Y0141401D01*
X0856603D01*
X0857390Y0142188D02*
X0857784Y0142582D01*
X0858571D01*
X0858965Y0142188D01*
Y0141795D01*
X0858571Y0141401D01*
X0858177D01*
X0858571D01*
X0858965Y0141008D01*
Y0140614D01*
X0858571Y0140220D01*
X0857784D01*
X0857390Y0140614D01*
X1133673Y0135876D02*
X1136035D01*
Y0134695D01*
X1135641Y0134302D01*
X1134854D01*
X1134460Y0134695D01*
Y0135876D01*
Y0135089D02*
X1133673Y0134302D01*
Y0132334D02*
X1136035D01*
X1134854Y0133514D01*
Y0131940D01*
X1133673Y0129972D02*
X1136035D01*
X1134854Y0131153D01*
Y0129579D01*
X1158423Y0135876D02*
X1160785D01*
Y0134695D01*
X1160391Y0134302D01*
X1159604D01*
X1159210Y0134695D01*
Y0135876D01*
Y0135089D02*
X1158423Y0134302D01*
Y0132334D02*
X1160785D01*
X1159604Y0133514D01*
Y0131940D01*
X1160785Y0129579D02*
Y0131153D01*
X1159604D01*
X1159997Y0130366D01*
Y0129972D01*
X1159604Y0129579D01*
X1158817D01*
X1158423Y0129972D01*
Y0130760D01*
X1158817Y0131153D01*
X0598083Y0380842D02*
Y0383204D01*
X0599263D01*
X0599657Y0382810D01*
Y0382023D01*
X0599263Y0381630D01*
X0598083D01*
X0598870D02*
X0599657Y0380842D01*
X0601625D02*
Y0383204D01*
X0600444Y0382023D01*
X0602018D01*
X0604380Y0383204D02*
X0603593Y0382810D01*
X0602806Y0382023D01*
Y0381236D01*
X0603199Y0380842D01*
X0603986D01*
X0604380Y0381236D01*
Y0381630D01*
X0603986Y0382023D01*
X0602806D01*
X1176921Y0175331D02*
X1174560D01*
Y0176511D01*
X1174953Y0176905D01*
X1175741D01*
X1176134Y0176511D01*
Y0175331D01*
Y0176118D02*
X1176921Y0176905D01*
Y0178873D02*
X1174560D01*
X1175741Y0177692D01*
Y0179266D01*
X1174560Y0180053D02*
Y0181628D01*
X1174953D01*
X1176528Y0180053D01*
X1176921D01*
X1164126Y0312240D02*
Y0314602D01*
X1165307D01*
X1165700Y0314208D01*
Y0313421D01*
X1165307Y0313027D01*
X1164126D01*
X1164913D02*
X1165700Y0312240D01*
X1167668D02*
Y0314602D01*
X1166487Y0313421D01*
X1168062D01*
X1168849Y0314208D02*
X1169242Y0314602D01*
X1170030D01*
X1170423Y0314208D01*
Y0313814D01*
X1170030Y0313421D01*
X1170423Y0313027D01*
Y0312634D01*
X1170030Y0312240D01*
X1169242D01*
X1168849Y0312634D01*
Y0313027D01*
X1169242Y0313421D01*
X1168849Y0313814D01*
Y0314208D01*
X1169242Y0313421D02*
X1170030D01*
X1189126Y0175331D02*
X1186765D01*
Y0176511D01*
X1187158Y0176905D01*
X1187945D01*
X1188339Y0176511D01*
Y0175331D01*
Y0176118D02*
X1189126Y0176905D01*
Y0178873D02*
X1186765D01*
X1187945Y0177692D01*
Y0179266D01*
X1188732Y0180053D02*
X1189126Y0180447D01*
Y0181234D01*
X1188732Y0181628D01*
X1187158D01*
X1186765Y0181234D01*
Y0180447D01*
X1187158Y0180053D01*
X1187552D01*
X1187945Y0180447D01*
Y0181628D01*
X1183024Y0175331D02*
X1180662D01*
Y0176511D01*
X1181056Y0176905D01*
X1181843D01*
X1182236Y0176511D01*
Y0175331D01*
Y0176118D02*
X1183024Y0176905D01*
X1180662Y0179266D02*
Y0177692D01*
X1181843D01*
X1181449Y0178479D01*
Y0178873D01*
X1181843Y0179266D01*
X1182630D01*
X1183024Y0178873D01*
Y0178086D01*
X1182630Y0177692D01*
X1181056Y0180053D02*
X1180662Y0180447D01*
Y0181234D01*
X1181056Y0181628D01*
X1182630D01*
X1183024Y0181234D01*
Y0180447D01*
X1182630Y0180053D01*
X1181056D01*
X1164114Y0318262D02*
Y0320623D01*
X1165295D01*
X1165688Y0320230D01*
Y0319443D01*
X1165295Y0319049D01*
X1164114D01*
X1164901D02*
X1165688Y0318262D01*
X1168050Y0320623D02*
X1166476D01*
Y0319443D01*
X1167263Y0319836D01*
X1167656D01*
X1168050Y0319443D01*
Y0318655D01*
X1167656Y0318262D01*
X1166869D01*
X1166476Y0318655D01*
X1168837Y0318262D02*
X1169624D01*
X1169231D01*
Y0320623D01*
X1168837Y0320230D01*
X1195228Y0175331D02*
X1192867D01*
Y0176511D01*
X1193260Y0176905D01*
X1194048D01*
X1194441Y0176511D01*
Y0175331D01*
Y0176118D02*
X1195228Y0176905D01*
X1192867Y0179266D02*
Y0177692D01*
X1194048D01*
X1193654Y0178479D01*
Y0178873D01*
X1194048Y0179266D01*
X1194835D01*
X1195228Y0178873D01*
Y0178086D01*
X1194835Y0177692D01*
X1195228Y0181628D02*
Y0180053D01*
X1193654Y0181628D01*
X1193260D01*
X1192867Y0181234D01*
Y0180447D01*
X1193260Y0180053D01*
X1163929Y0337043D02*
Y0339405D01*
X1165110D01*
X1165503Y0339011D01*
Y0338224D01*
X1165110Y0337830D01*
X1163929D01*
X1164716D02*
X1165503Y0337043D01*
X1167865Y0339405D02*
X1166290D01*
Y0338224D01*
X1167078Y0338618D01*
X1167471D01*
X1167865Y0338224D01*
Y0337437D01*
X1167471Y0337043D01*
X1166684D01*
X1166290Y0337437D01*
X1168652Y0339011D02*
X1169046Y0339405D01*
X1169833D01*
X1170226Y0339011D01*
Y0338618D01*
X1169833Y0338224D01*
X1169439D01*
X1169833D01*
X1170226Y0337830D01*
Y0337437D01*
X1169833Y0337043D01*
X1169046D01*
X1168652Y0337437D01*
X1164114Y0330762D02*
Y0333123D01*
X1165295D01*
X1165688Y0332730D01*
Y0331943D01*
X1165295Y0331549D01*
X1164114D01*
X1164901D02*
X1165688Y0330762D01*
X1168050Y0333123D02*
X1166476D01*
Y0331943D01*
X1167263Y0332336D01*
X1167656D01*
X1168050Y0331943D01*
Y0331155D01*
X1167656Y0330762D01*
X1166869D01*
X1166476Y0331155D01*
X1170018Y0330762D02*
Y0333123D01*
X1168837Y0331943D01*
X1170411D01*
X1175925Y0226466D02*
Y0224105D01*
X1174744D01*
X1174351Y0224499D01*
Y0225286D01*
X1174744Y0225679D01*
X1175925D01*
X1175138D02*
X1174351Y0226466D01*
X1171989Y0224105D02*
X1173564D01*
Y0225286D01*
X1172777Y0224892D01*
X1172383D01*
X1171989Y0225286D01*
Y0226073D01*
X1172383Y0226466D01*
X1173170D01*
X1173564Y0226073D01*
X1169628Y0224105D02*
X1171202D01*
Y0225286D01*
X1170415Y0224892D01*
X1170022D01*
X1169628Y0225286D01*
Y0226073D01*
X1170022Y0226466D01*
X1170809D01*
X1171202Y0226073D01*
X1167264Y0229317D02*
Y0231678D01*
X1168445D01*
X1168838Y0231285D01*
Y0230498D01*
X1168445Y0230104D01*
X1167264D01*
X1168051D02*
X1168838Y0229317D01*
X1171200Y0231678D02*
X1169625D01*
Y0230498D01*
X1170412Y0230891D01*
X1170806D01*
X1171200Y0230498D01*
Y0229711D01*
X1170806Y0229317D01*
X1170019D01*
X1169625Y0229711D01*
X1173561Y0231678D02*
X1172774Y0231285D01*
X1171987Y0230498D01*
Y0229711D01*
X1172380Y0229317D01*
X1173167D01*
X1173561Y0229711D01*
Y0230104D01*
X1173167Y0230498D01*
X1171987D01*
X1164028Y0324543D02*
Y0326905D01*
X1165208D01*
X1165602Y0326511D01*
Y0325724D01*
X1165208Y0325330D01*
X1164028D01*
X1164815D02*
X1165602Y0324543D01*
X1167963Y0326905D02*
X1166389D01*
Y0325724D01*
X1167176Y0326118D01*
X1167570D01*
X1167963Y0325724D01*
Y0324937D01*
X1167570Y0324543D01*
X1166782D01*
X1166389Y0324937D01*
X1168750Y0326905D02*
X1170325D01*
Y0326511D01*
X1168750Y0324937D01*
Y0324543D01*
X1176232Y0246295D02*
Y0243934D01*
X1175051D01*
X1174658Y0244327D01*
Y0245114D01*
X1175051Y0245508D01*
X1176232D01*
X1175445D02*
X1174658Y0246295D01*
X1172297Y0243934D02*
X1173871D01*
Y0245114D01*
X1173084Y0244721D01*
X1172690D01*
X1172297Y0245114D01*
Y0245902D01*
X1172690Y0246295D01*
X1173477D01*
X1173871Y0245902D01*
X1171509Y0244327D02*
X1171116Y0243934D01*
X1170329D01*
X1169935Y0244327D01*
Y0244721D01*
X1170329Y0245114D01*
X1169935Y0245508D01*
Y0245902D01*
X1170329Y0246295D01*
X1171116D01*
X1171509Y0245902D01*
Y0245508D01*
X1171116Y0245114D01*
X1171509Y0244721D01*
Y0244327D01*
X1171116Y0245114D02*
X1170329D01*
X1167472Y0249150D02*
Y0251511D01*
X1168653D01*
X1169047Y0251117D01*
Y0250330D01*
X1168653Y0249937D01*
X1167472D01*
X1168260D02*
X1169047Y0249150D01*
X1171408Y0251511D02*
X1169834D01*
Y0250330D01*
X1170621Y0250724D01*
X1171015D01*
X1171408Y0250330D01*
Y0249543D01*
X1171015Y0249150D01*
X1170227D01*
X1169834Y0249543D01*
X1172195D02*
X1172589Y0249150D01*
X1173376D01*
X1173770Y0249543D01*
Y0251117D01*
X1173376Y0251511D01*
X1172589D01*
X1172195Y0251117D01*
Y0250724D01*
X1172589Y0250330D01*
X1173770D01*
X1164114Y0306118D02*
Y0308479D01*
X1165295D01*
X1165688Y0308086D01*
Y0307299D01*
X1165295Y0306905D01*
X1164114D01*
X1164901D02*
X1165688Y0306118D01*
X1168050Y0308479D02*
X1167263Y0308086D01*
X1166476Y0307299D01*
Y0306512D01*
X1166869Y0306118D01*
X1167656D01*
X1168050Y0306512D01*
Y0306905D01*
X1167656Y0307299D01*
X1166476D01*
X1168837Y0308086D02*
X1169231Y0308479D01*
X1170018D01*
X1170411Y0308086D01*
Y0306512D01*
X1170018Y0306118D01*
X1169231D01*
X1168837Y0306512D01*
Y0308086D01*
X1164114Y0300012D02*
Y0302373D01*
X1165295D01*
X1165688Y0301980D01*
Y0301192D01*
X1165295Y0300799D01*
X1164114D01*
X1164901D02*
X1165688Y0300012D01*
X1168050Y0302373D02*
X1167263Y0301980D01*
X1166476Y0301192D01*
Y0300405D01*
X1166869Y0300012D01*
X1167656D01*
X1168050Y0300405D01*
Y0300799D01*
X1167656Y0301192D01*
X1166476D01*
X1168837Y0300012D02*
X1169624D01*
X1169231D01*
Y0302373D01*
X1168837Y0301980D01*
X0881933Y0188785D02*
X0881277Y0188129D01*
Y0186817D01*
X0881933Y0186161D01*
X0884557D01*
X0885213Y0186817D01*
Y0188129D01*
X0884557Y0188785D01*
X0885213Y0190097D02*
Y0191409D01*
Y0190753D01*
X0881277D01*
X0881933Y0190097D01*
X0881277Y0196001D02*
Y0193377D01*
X0883245D01*
X0882589Y0194689D01*
Y0195345D01*
X0883245Y0196001D01*
X0884557D01*
X0885213Y0195345D01*
Y0194033D01*
X0884557Y0193377D01*
X1049755Y0204268D02*
Y0205055D01*
Y0204662D01*
X1047787D01*
X1047394Y0205055D01*
Y0205449D01*
X1047787Y0205842D01*
X1047394Y0203481D02*
X1049755D01*
X1048968Y0202694D01*
X1049755Y0201907D01*
X1047394D01*
Y0201120D02*
X1049755D01*
Y0199939D01*
X1049362Y0199545D01*
X1048574D01*
X1048181Y0199939D01*
Y0201120D01*
X1047394Y0198758D02*
Y0197971D01*
Y0198365D01*
X1049755D01*
X1049362Y0198758D01*
X1049165Y0340095D02*
Y0340882D01*
Y0340489D01*
X1047197D01*
X1046803Y0340882D01*
Y0341276D01*
X1047197Y0341669D01*
X1046803Y0339308D02*
X1049165D01*
X1048377Y0338521D01*
X1049165Y0337734D01*
X1046803D01*
Y0336946D02*
X1049165D01*
Y0335766D01*
X1048771Y0335372D01*
X1047984D01*
X1047590Y0335766D01*
Y0336946D01*
X1046803Y0333011D02*
Y0334585D01*
X1048377Y0333011D01*
X1048771D01*
X1049165Y0333404D01*
Y0334191D01*
X1048771Y0334585D01*
X0601390Y0375798D02*
X0599291D01*
Y0374224D01*
X0600341D01*
X0599291D01*
Y0372650D01*
X0602440Y0375798D02*
Y0372650D01*
X0604014D01*
X0604539Y0373174D01*
Y0373699D01*
X0604014Y0374224D01*
X0602440D01*
X0604014D01*
X0604539Y0374749D01*
Y0375273D01*
X0604014Y0375798D01*
X0602440D01*
X0605588Y0372650D02*
X0606638D01*
X0606113D01*
Y0375798D01*
X0605588Y0375273D01*
X0602482Y0366382D02*
X0601826Y0367038D01*
X0600514D01*
X0599858Y0366382D01*
Y0363758D01*
X0600514Y0363102D01*
X0601826D01*
X0602482Y0363758D01*
X0606418Y0363102D02*
X0603794D01*
X0606418Y0365726D01*
Y0366382D01*
X0605762Y0367038D01*
X0604450D01*
X0603794Y0366382D01*
X0607730Y0363102D02*
X0609042D01*
X0608386D01*
Y0367038D01*
X0607730Y0366382D01*
X0687027Y0360108D02*
X0687552Y0359584D01*
X0688601D01*
X0689126Y0360108D01*
Y0362208D01*
X0688601Y0362732D01*
X0687552D01*
X0687027Y0362208D01*
X0684403Y0359584D02*
X0685453D01*
X0685977Y0360108D01*
Y0362208D01*
X0685453Y0362732D01*
X0684403D01*
X0683878Y0362208D01*
Y0360108D01*
X0684403Y0359584D01*
X0682829Y0362732D02*
Y0359584D01*
X0680730Y0362732D01*
Y0359584D01*
X0677581D02*
X0679680D01*
Y0361158D01*
X0678631Y0360633D01*
X0678106D01*
X0677581Y0361158D01*
Y0362208D01*
X0678106Y0362732D01*
X0679155D01*
X0679680Y0362208D01*
X0668742Y0321869D02*
X0668348Y0322263D01*
X0667561D01*
X0667167Y0321869D01*
Y0320295D01*
X0667561Y0319901D01*
X0668348D01*
X0668742Y0320295D01*
X0669529Y0319901D02*
X0670316D01*
X0669922D01*
Y0322263D01*
X0669529Y0321869D01*
X0672677Y0319901D02*
Y0322263D01*
X0671497Y0321082D01*
X0673071D01*
X0668742Y0328858D02*
X0668348Y0329251D01*
X0667561D01*
X0667167Y0328858D01*
Y0327283D01*
X0667561Y0326890D01*
X0668348D01*
X0668742Y0327283D01*
X0669529Y0326890D02*
X0670316D01*
X0669922D01*
Y0329251D01*
X0669529Y0328858D01*
X0671497D02*
X0671890Y0329251D01*
X0672677D01*
X0673071Y0328858D01*
Y0328464D01*
X0672677Y0328070D01*
X0672284D01*
X0672677D01*
X0673071Y0327677D01*
Y0327283D01*
X0672677Y0326890D01*
X0671890D01*
X0671497Y0327283D01*
X0642276Y0197772D02*
X0644637D01*
Y0196591D01*
X0644243Y0196197D01*
X0643456D01*
X0643063Y0196591D01*
Y0197772D01*
Y0196985D02*
X0642276Y0196197D01*
X0644637Y0193836D02*
X0644243Y0194623D01*
X0643456Y0195410D01*
X0642669D01*
X0642276Y0195017D01*
Y0194229D01*
X0642669Y0193836D01*
X0643063D01*
X0643456Y0194229D01*
Y0195410D01*
X0644637Y0191474D02*
Y0193049D01*
X0643456D01*
X0643850Y0192262D01*
Y0191868D01*
X0643456Y0191474D01*
X0642669D01*
X0642276Y0191868D01*
Y0192655D01*
X0642669Y0193049D01*
X0645228Y0174740D02*
X0642867D01*
Y0175921D01*
X0643260Y0176314D01*
X0644048D01*
X0644441Y0175921D01*
Y0174740D01*
Y0175527D02*
X0645228Y0176314D01*
X0642867Y0178676D02*
X0643260Y0177889D01*
X0644048Y0177102D01*
X0644835D01*
X0645228Y0177495D01*
Y0178282D01*
X0644835Y0178676D01*
X0644441D01*
X0644048Y0178282D01*
Y0177102D01*
X0642867Y0181037D02*
X0643260Y0180250D01*
X0644048Y0179463D01*
X0644835D01*
X0645228Y0179857D01*
Y0180644D01*
X0644835Y0181037D01*
X0644441D01*
X0644048Y0180644D01*
Y0179463D01*
X0659105Y0186551D02*
X0656481D01*
X0655957Y0186026D01*
Y0184977D01*
X0656481Y0184452D01*
X0659105D01*
X0655957Y0183403D02*
Y0182353D01*
Y0182878D01*
X0659105D01*
X0658580Y0183403D01*
X0659105Y0178680D02*
X0658580Y0179729D01*
X0657531Y0180779D01*
X0656481D01*
X0655957Y0180254D01*
Y0179204D01*
X0656481Y0178680D01*
X0657006D01*
X0657531Y0179204D01*
Y0180779D01*
X0638897Y0151741D02*
X0636797D01*
X0636273Y0151216D01*
Y0150166D01*
X0636797Y0149642D01*
X0638897D01*
X0639421Y0150166D01*
Y0151216D01*
X0638372Y0150691D02*
X0639421Y0151741D01*
Y0151216D02*
X0638897Y0151741D01*
X0636273Y0154889D02*
X0636797Y0153840D01*
X0637847Y0152790D01*
X0638897D01*
X0639421Y0153315D01*
Y0154365D01*
X0638897Y0154889D01*
X0638372D01*
X0637847Y0154365D01*
Y0152790D01*
X0893055Y0219986D02*
X0892399Y0219330D01*
Y0218018D01*
X0893055Y0217362D01*
X0895679D01*
X0896335Y0218018D01*
Y0219330D01*
X0895679Y0219986D01*
X0892399Y0223922D02*
X0893055Y0222610D01*
X0894367Y0221298D01*
X0895679D01*
X0896335Y0221954D01*
Y0223266D01*
X0895679Y0223922D01*
X0895023D01*
X0894367Y0223266D01*
Y0221298D01*
X0893055Y0225234D02*
X0892399Y0225890D01*
Y0227202D01*
X0893055Y0227857D01*
X0893711D01*
X0894367Y0227202D01*
Y0226546D01*
Y0227202D01*
X0895023Y0227857D01*
X0895679D01*
X0896335Y0227202D01*
Y0225890D01*
X0895679Y0225234D01*
X0789024Y0215406D02*
Y0212783D01*
X0789548Y0212258D01*
X0790598D01*
X0791123Y0212783D01*
Y0215406D01*
X0792172D02*
X0794271D01*
Y0214882D01*
X0792172Y0212783D01*
Y0212258D01*
X0788880Y0193077D02*
Y0197406D01*
X0791045D01*
X0791766Y0196685D01*
Y0195241D01*
X0791045Y0194520D01*
X0788880D01*
X0790323D02*
X0791766Y0193077D01*
X0796095D02*
X0793209D01*
X0796095Y0195963D01*
Y0196685D01*
X0795374Y0197406D01*
X0793931D01*
X0793209Y0196685D01*
X0797539Y0193077D02*
X0798982D01*
X0798260D01*
Y0197406D01*
X0797539Y0196685D01*
X0888180Y0148567D02*
Y0146206D01*
X0888770Y0145615D01*
X0889951D01*
X0890541Y0146206D01*
Y0148567D01*
X0889951Y0149157D01*
X0888770D01*
X0889361Y0147977D02*
X0888180Y0149157D01*
X0888770D02*
X0888180Y0148567D01*
X0885228Y0149157D02*
Y0145615D01*
X0886999Y0147386D01*
X0884638D01*
X0874068Y0148559D02*
Y0146198D01*
X0874658Y0145607D01*
X0875839D01*
X0876429Y0146198D01*
Y0148559D01*
X0875839Y0149150D01*
X0874658D01*
X0875248Y0147969D02*
X0874068Y0149150D01*
X0874658D02*
X0874068Y0148559D01*
X0870525Y0145607D02*
X0872887D01*
Y0147379D01*
X0871706Y0146788D01*
X0871116D01*
X0870525Y0147379D01*
Y0148559D01*
X0871116Y0149150D01*
X0872297D01*
X0872887Y0148559D01*
X0878988Y0157220D02*
Y0159582D01*
X0880169D01*
X0880562Y0159188D01*
Y0158401D01*
X0880169Y0158008D01*
X0878988D01*
X0879775D02*
X0880562Y0157220D01*
X0882924Y0159582D02*
X0882137Y0159188D01*
X0881350Y0158401D01*
Y0157614D01*
X0881743Y0157220D01*
X0882530D01*
X0882924Y0157614D01*
Y0158008D01*
X0882530Y0158401D01*
X0881350D01*
X0884892Y0157220D02*
Y0159582D01*
X0883711Y0158401D01*
X0885285D01*
X0892177Y0166669D02*
X0894539D01*
Y0165489D01*
X0894145Y0165095D01*
X0893358D01*
X0892964Y0165489D01*
Y0166669D01*
Y0165882D02*
X0892177Y0165095D01*
Y0164308D02*
Y0163521D01*
Y0163914D01*
X0894539D01*
X0894145Y0164308D01*
X0892177Y0162340D02*
Y0161553D01*
Y0161946D01*
X0894539D01*
X0894145Y0162340D01*
X0923392Y0131427D02*
X0922868Y0131952D01*
X0921818D01*
X0921293Y0131427D01*
Y0129328D01*
X0921818Y0128803D01*
X0922868D01*
X0923392Y0129328D01*
X0926016Y0131952D02*
X0924967D01*
X0924442Y0131427D01*
Y0129328D01*
X0924967Y0128803D01*
X0926016D01*
X0926541Y0129328D01*
Y0131427D01*
X0926016Y0131952D01*
X0927590Y0128803D02*
Y0131952D01*
X0929690Y0128803D01*
Y0131952D01*
X0932838D02*
X0931789Y0131427D01*
X0930739Y0130377D01*
Y0129328D01*
X0931264Y0128803D01*
X0932313D01*
X0932838Y0129328D01*
Y0129853D01*
X0932313Y0130377D01*
X0930739D01*
X0892866Y0174543D02*
Y0176905D01*
X0894047D01*
X0894440Y0176511D01*
Y0175724D01*
X0894047Y0175330D01*
X0892866D01*
X0893653D02*
X0894440Y0174543D01*
X0896802D02*
X0895228D01*
X0896802Y0176118D01*
Y0176511D01*
X0896408Y0176905D01*
X0895621D01*
X0895228Y0176511D01*
X0887758Y0178989D02*
X0888152Y0178595D01*
X0888939D01*
X0889333Y0178989D01*
Y0180563D01*
X0888939Y0180957D01*
X0888152D01*
X0887758Y0180563D01*
X0886971Y0180957D02*
X0886184D01*
X0886578D01*
Y0178595D01*
X0886971Y0178989D01*
X0885003Y0178595D02*
X0883429D01*
Y0178989D01*
X0885003Y0180563D01*
Y0180957D01*
X0894796Y0190529D02*
X0894271Y0191054D01*
X0893222D01*
X0892697Y0190529D01*
Y0188430D01*
X0893222Y0187906D01*
X0894271D01*
X0894796Y0188430D01*
X0897945Y0191054D02*
X0896895Y0190529D01*
X0895845Y0189480D01*
Y0188430D01*
X0896370Y0187906D01*
X0897420D01*
X0897945Y0188430D01*
Y0188955D01*
X0897420Y0189480D01*
X0895845D01*
X0901093Y0187906D02*
X0898994D01*
X0901093Y0190005D01*
Y0190529D01*
X0900568Y0191054D01*
X0899519D01*
X0898994Y0190529D01*
X0905858Y0207220D02*
X0908220D01*
Y0206040D01*
X0907826Y0205646D01*
X0907039D01*
X0906645Y0206040D01*
Y0207220D01*
Y0206433D02*
X0905858Y0205646D01*
Y0204859D02*
Y0204072D01*
Y0204465D01*
X0908220D01*
X0907826Y0204859D01*
X0916684Y0192358D02*
X0914060D01*
X0913535Y0191833D01*
Y0190784D01*
X0914060Y0190259D01*
X0916684D01*
X0913535Y0189210D02*
Y0188160D01*
Y0188685D01*
X0916684D01*
X0916159Y0189210D01*
X0913535Y0186586D02*
Y0185536D01*
Y0186061D01*
X0916684D01*
X0916159Y0186586D01*
X0931940Y0192358D02*
X0929316D01*
X0928791Y0191833D01*
Y0190784D01*
X0929316Y0190259D01*
X0931940D01*
X0929316Y0189210D02*
X0928791Y0188685D01*
Y0187635D01*
X0929316Y0187111D01*
X0931415D01*
X0931940Y0187635D01*
Y0188685D01*
X0931415Y0189210D01*
X0930890D01*
X0930366Y0188685D01*
Y0187111D01*
X0918736Y0220223D02*
X0919129Y0220617D01*
Y0221404D01*
X0918736Y0221797D01*
X0917161D01*
X0916768Y0221404D01*
Y0220617D01*
X0917161Y0220223D01*
X0919129Y0217862D02*
X0918736Y0218649D01*
X0917948Y0219436D01*
X0917161D01*
X0916768Y0219042D01*
Y0218255D01*
X0917161Y0217862D01*
X0917555D01*
X0917948Y0218255D01*
Y0219436D01*
X0919129Y0215500D02*
Y0217074D01*
X0917948D01*
X0918342Y0216287D01*
Y0215894D01*
X0917948Y0215500D01*
X0917161D01*
X0916768Y0215894D01*
Y0216681D01*
X0917161Y0217074D01*
X0917079Y0236945D02*
X0919440D01*
Y0235764D01*
X0919047Y0235371D01*
X0918259D01*
X0917866Y0235764D01*
Y0236945D01*
Y0236158D02*
X0917079Y0235371D01*
Y0233403D02*
X0919440D01*
X0918259Y0234583D01*
Y0233009D01*
X0910189Y0227989D02*
Y0230613D01*
X0909664Y0231138D01*
X0908615D01*
X0908090Y0230613D01*
Y0227989D01*
X0907040Y0231138D02*
X0905991D01*
X0906516D01*
Y0227989D01*
X0907040Y0228514D01*
X0904416D02*
X0903892Y0227989D01*
X0902842D01*
X0902318Y0228514D01*
Y0230613D01*
X0902842Y0231138D01*
X0903892D01*
X0904416Y0230613D01*
Y0228514D01*
X0904245Y0219860D02*
X0903720Y0220385D01*
X0902670D01*
X0902146Y0219860D01*
Y0217761D01*
X0902670Y0217236D01*
X0903720D01*
X0904245Y0217761D01*
X0907393Y0220385D02*
X0906344Y0219860D01*
X0905294Y0218811D01*
Y0217761D01*
X0905819Y0217236D01*
X0906868D01*
X0907393Y0217761D01*
Y0218286D01*
X0906868Y0218811D01*
X0905294D01*
X0910542Y0220385D02*
X0909492Y0219860D01*
X0908443Y0218811D01*
Y0217761D01*
X0908968Y0217236D01*
X0910017D01*
X0910542Y0217761D01*
Y0218286D01*
X0910017Y0218811D01*
X0908443D01*
X0907542Y0210780D02*
X0907935Y0210387D01*
X0908722D01*
X0909116Y0210780D01*
Y0212354D01*
X0908722Y0212748D01*
X0907935D01*
X0907542Y0212354D01*
X0905180Y0210387D02*
X0905968Y0210780D01*
X0906755Y0211567D01*
Y0212354D01*
X0906361Y0212748D01*
X0905574D01*
X0905180Y0212354D01*
Y0211961D01*
X0905574Y0211567D01*
X0906755D01*
X0903213Y0212748D02*
Y0210387D01*
X0904393Y0211567D01*
X0902819D01*
X0950130Y0224327D02*
Y0228656D01*
X0952295D01*
X0953016Y0227935D01*
Y0226491D01*
X0952295Y0225770D01*
X0950130D01*
X0951573D02*
X0953016Y0224327D01*
X0957345D02*
X0954459D01*
X0957345Y0227213D01*
Y0227935D01*
X0956624Y0228656D01*
X0955181D01*
X0954459Y0227935D01*
X0958788Y0228656D02*
X0961675D01*
Y0227935D01*
X0958788Y0225048D01*
Y0224327D01*
X0961467Y0178927D02*
X0957137D01*
Y0181092D01*
X0957859Y0181813D01*
X0959302D01*
X0960023Y0181092D01*
Y0178927D01*
Y0180370D02*
X0961467Y0181813D01*
Y0186143D02*
Y0183256D01*
X0958580Y0186143D01*
X0957859D01*
X0957137Y0185421D01*
Y0183978D01*
X0957859Y0183256D01*
Y0187586D02*
X0957137Y0188307D01*
Y0189750D01*
X0957859Y0190472D01*
X0958580D01*
X0959302Y0189750D01*
X0960023Y0190472D01*
X0960745D01*
X0961467Y0189750D01*
Y0188307D01*
X0960745Y0187586D01*
X0960023D01*
X0959302Y0188307D01*
X0958580Y0187586D01*
X0957859D01*
X0959302Y0188307D02*
Y0189750D01*
X1003298Y0255547D02*
X1000674D01*
X1000150Y0255022D01*
Y0253973D01*
X1000674Y0253448D01*
X1003298D01*
X1002773Y0252399D02*
X1003298Y0251874D01*
Y0250824D01*
X1002773Y0250300D01*
X1002249D01*
X1001724Y0250824D01*
Y0251349D01*
Y0250824D01*
X1001199Y0250300D01*
X1000674D01*
X1000150Y0250824D01*
Y0251874D01*
X1000674Y0252399D01*
X1188722Y0196968D02*
X1188328Y0197361D01*
X1187541D01*
X1187148Y0196968D01*
Y0195394D01*
X1187541Y0195000D01*
X1188328D01*
X1188722Y0195394D01*
X1189509Y0197361D02*
X1191083D01*
Y0196968D01*
X1189509Y0195394D01*
Y0195000D01*
X1191870Y0196968D02*
X1192264Y0197361D01*
X1193051D01*
X1193445Y0196968D01*
Y0196574D01*
X1193051Y0196181D01*
X1192658D01*
X1193051D01*
X1193445Y0195787D01*
Y0195394D01*
X1193051Y0195000D01*
X1192264D01*
X1191870Y0195394D01*
X1180869Y0195032D02*
X1181262Y0194639D01*
X1182049D01*
X1182443Y0195032D01*
Y0196606D01*
X1182049Y0197000D01*
X1181262D01*
X1180869Y0196606D01*
X1180081Y0194639D02*
X1178507D01*
Y0195032D01*
X1180081Y0196606D01*
Y0197000D01*
X1176146D02*
X1177720D01*
X1176146Y0195426D01*
Y0195032D01*
X1176539Y0194639D01*
X1177326D01*
X1177720Y0195032D01*
X1166093Y0193638D02*
X1163470D01*
X1162945Y0193113D01*
Y0192063D01*
X1163470Y0191539D01*
X1166093D01*
X1162945Y0190489D02*
Y0189440D01*
Y0189964D01*
X1166093D01*
X1165569Y0190489D01*
X1166093Y0185766D02*
Y0187865D01*
X1164519D01*
X1165044Y0186816D01*
Y0186291D01*
X1164519Y0185766D01*
X1163470D01*
X1162945Y0186291D01*
Y0187341D01*
X1163470Y0187865D01*
X1182493Y0204604D02*
X1181968Y0205129D01*
X1180918D01*
X1180394Y0204604D01*
Y0202505D01*
X1180918Y0201980D01*
X1181968D01*
X1182493Y0202505D01*
X1183542Y0205129D02*
X1185641D01*
Y0204604D01*
X1183542Y0202505D01*
Y0201980D01*
X1188265D02*
Y0205129D01*
X1186691Y0203555D01*
X1188790D01*
X1192276Y0221098D02*
X1194637D01*
Y0219918D01*
X1194243Y0219524D01*
X1193456D01*
X1193063Y0219918D01*
Y0221098D01*
Y0220311D02*
X1192276Y0219524D01*
X1194637Y0217163D02*
X1194243Y0217950D01*
X1193456Y0218737D01*
X1192669D01*
X1192276Y0218343D01*
Y0217556D01*
X1192669Y0217163D01*
X1193063D01*
X1193456Y0217556D01*
Y0218737D01*
X1192276Y0214801D02*
Y0216375D01*
X1193850Y0214801D01*
X1194243D01*
X1194637Y0215195D01*
Y0215982D01*
X1194243Y0216375D01*
X1170811Y0205813D02*
X1170155Y0205157D01*
Y0203845D01*
X1170811Y0203189D01*
X1173435D01*
X1174090Y0203845D01*
Y0205157D01*
X1173435Y0205813D01*
X1170155Y0207125D02*
Y0209749D01*
X1170811D01*
X1173435Y0207125D01*
X1174090D01*
Y0211060D02*
Y0212372D01*
Y0211716D01*
X1170155D01*
X1170811Y0211060D01*
X1186764Y0212733D02*
Y0215357D01*
X1186239Y0215882D01*
X1185190D01*
X1184665Y0215357D01*
Y0212733D01*
X1183615Y0215882D02*
X1182566D01*
X1183090D01*
Y0212733D01*
X1183615Y0213258D01*
X1179417Y0215882D02*
Y0212733D01*
X1180991Y0214308D01*
X1178892D01*
X1187650Y0230449D02*
X1185288D01*
Y0231629D01*
X1185682Y0232023D01*
X1186469D01*
X1186862Y0231629D01*
Y0230449D01*
Y0231236D02*
X1187650Y0232023D01*
X1185288Y0234384D02*
X1185682Y0233597D01*
X1186469Y0232810D01*
X1187256D01*
X1187650Y0233204D01*
Y0233991D01*
X1187256Y0234384D01*
X1186862D01*
X1186469Y0233991D01*
Y0232810D01*
X1185288Y0235172D02*
Y0236746D01*
X1185682D01*
X1187256Y0235172D01*
X1187650D01*
X1148673Y0207024D02*
X1146312D01*
Y0208204D01*
X1146705Y0208598D01*
X1147493D01*
X1147886Y0208204D01*
Y0207024D01*
Y0207811D02*
X1148673Y0208598D01*
Y0209385D02*
Y0210172D01*
Y0209779D01*
X1146312D01*
X1146705Y0209385D01*
X1148673Y0212927D02*
Y0211353D01*
X1147099Y0212927D01*
X1146705D01*
X1146312Y0212534D01*
Y0211747D01*
X1146705Y0211353D01*
X1139421Y0218147D02*
Y0220771D01*
X1138896Y0221295D01*
X1137847D01*
X1137322Y0220771D01*
Y0218147D01*
X1136273Y0221295D02*
X1135223D01*
X1135748D01*
Y0218147D01*
X1136273Y0218671D01*
X1131550Y0221295D02*
X1133649D01*
X1131550Y0219196D01*
Y0218671D01*
X1132075Y0218147D01*
X1133124D01*
X1133649Y0218671D01*
X1123567Y0211521D02*
X1122911Y0210865D01*
Y0209554D01*
X1123567Y0208898D01*
X1126190D01*
X1126846Y0209554D01*
Y0210865D01*
X1126190Y0211521D01*
X1122911Y0215457D02*
X1123567Y0214145D01*
X1124879Y0212833D01*
X1126190D01*
X1126846Y0213489D01*
Y0214801D01*
X1126190Y0215457D01*
X1125535D01*
X1124879Y0214801D01*
Y0212833D01*
X1122911Y0216769D02*
Y0219393D01*
X1123567D01*
X1126190Y0216769D01*
X1126846D01*
X1124352Y0202775D02*
X1123958Y0203169D01*
X1123171D01*
X1122777Y0202775D01*
Y0201201D01*
X1123171Y0200807D01*
X1123958D01*
X1124352Y0201201D01*
X1126713Y0203169D02*
X1125926Y0202775D01*
X1125139Y0201988D01*
Y0201201D01*
X1125533Y0200807D01*
X1126320D01*
X1126713Y0201201D01*
Y0201594D01*
X1126320Y0201988D01*
X1125139D01*
X1127500Y0202775D02*
X1127894Y0203169D01*
X1128681D01*
X1129075Y0202775D01*
Y0202381D01*
X1128681Y0201988D01*
X1129075Y0201594D01*
Y0201201D01*
X1128681Y0200807D01*
X1127894D01*
X1127500Y0201201D01*
Y0201594D01*
X1127894Y0201988D01*
X1127500Y0202381D01*
Y0202775D01*
X1127894Y0201988D02*
X1128681D01*
X1150444Y0193638D02*
X1147820D01*
X1147295Y0193113D01*
Y0192063D01*
X1147820Y0191539D01*
X1150444D01*
X1147295Y0190489D02*
Y0189440D01*
Y0189964D01*
X1150444D01*
X1149919Y0190489D01*
Y0187865D02*
X1150444Y0187341D01*
Y0186291D01*
X1149919Y0185766D01*
X1149394D01*
X1148870Y0186291D01*
Y0186816D01*
Y0186291D01*
X1148345Y0185766D01*
X1147820D01*
X1147295Y0186291D01*
Y0187341D01*
X1147820Y0187865D01*
X1128988Y0188618D02*
X1131350D01*
Y0187437D01*
X1130956Y0187044D01*
X1130169D01*
X1129775Y0187437D01*
Y0188618D01*
Y0187831D02*
X1128988Y0187044D01*
X1131350Y0184682D02*
X1130956Y0185469D01*
X1130169Y0186257D01*
X1129382D01*
X1128988Y0185863D01*
Y0185076D01*
X1129382Y0184682D01*
X1129775D01*
X1130169Y0185076D01*
Y0186257D01*
X1130956Y0183895D02*
X1131350Y0183502D01*
Y0182714D01*
X1130956Y0182321D01*
X1130562D01*
X1130169Y0182714D01*
Y0183108D01*
Y0182714D01*
X1129775Y0182321D01*
X1129382D01*
X1128988Y0182714D01*
Y0183502D01*
X1129382Y0183895D01*
X1151363Y0132285D02*
X1150838Y0132810D01*
X1149788D01*
X1149264Y0132285D01*
Y0130186D01*
X1149788Y0129661D01*
X1150838D01*
X1151363Y0130186D01*
X1153987Y0132810D02*
X1152937D01*
X1152412Y0132285D01*
Y0130186D01*
X1152937Y0129661D01*
X1153987D01*
X1154511Y0130186D01*
Y0132285D01*
X1153987Y0132810D01*
X1155561Y0129661D02*
Y0132810D01*
X1157660Y0129661D01*
Y0132810D01*
X1158710D02*
X1160809D01*
Y0132285D01*
X1158710Y0130186D01*
Y0129661D01*
X1136360Y0202873D02*
X1135966Y0203267D01*
X1135179D01*
X1134785Y0202873D01*
Y0201299D01*
X1135179Y0200905D01*
X1135966D01*
X1136360Y0201299D01*
X1138721Y0203267D02*
X1137934Y0202873D01*
X1137147Y0202086D01*
Y0201299D01*
X1137540Y0200905D01*
X1138328D01*
X1138721Y0201299D01*
Y0201693D01*
X1138328Y0202086D01*
X1137147D01*
X1139508Y0201299D02*
X1139902Y0200905D01*
X1140689D01*
X1141083Y0201299D01*
Y0202873D01*
X1140689Y0203267D01*
X1139902D01*
X1139508Y0202873D01*
Y0202480D01*
X1139902Y0202086D01*
X1141083D01*
X1134658Y0209821D02*
X1134133Y0210345D01*
X1133084D01*
X1132559Y0209821D01*
Y0207722D01*
X1133084Y0207197D01*
X1134133D01*
X1134658Y0207722D01*
X1135708Y0210345D02*
X1137807D01*
Y0209821D01*
X1135708Y0207722D01*
Y0207197D01*
X1138856Y0209821D02*
X1139381Y0210345D01*
X1140431D01*
X1140955Y0209821D01*
Y0207722D01*
X1140431Y0207197D01*
X1139381D01*
X1138856Y0207722D01*
Y0209821D01*
D143*
X0976264Y0235382D02*
X1043193D01*
Y0105382D02*
Y0235382D01*
X0976264Y0105382D02*
X1043193D01*
X0976264D02*
Y0235382D01*
D211*
X0769992Y0113376D02*
G03*
X0769992Y0113376I-0001575J0000000D01*
G01*
D212*
X0868752Y0163815D02*
X0877413D01*
X0868752Y0175626D02*
X0877413D01*
X0868752Y0163815D02*
Y0175626D01*
X0877413Y0163815D02*
Y0175626D01*
X0879185Y0175724D02*
X0887846D01*
X0879185Y0163913D02*
X0887846D01*
Y0175724D01*
X0879185Y0163913D02*
Y0175724D01*
X0853417Y0159451D02*
X0862079D01*
X0853417Y0147640D02*
X0862079D01*
Y0159451D01*
X0853417Y0147640D02*
Y0159451D01*
X0882667Y0152701D02*
X0891329D01*
X0882667Y0140890D02*
X0891329D01*
Y0152701D01*
X0882667Y0140890D02*
Y0152701D01*
X0868555Y0152693D02*
X0877217D01*
X0868555Y0140882D02*
X0877217D01*
Y0152693D01*
X0868555Y0140882D02*
Y0152693D01*
D213*
X0946962Y0214545D02*
D03*
Y0201295D02*
D03*
M02*
