G04 Layer_Physical_Order=2*
G04 Layer_Color=32768*
%FSAX25Y25*%
%MOIN*%
G70*
G01*
G75*
%ADD107C,0.04000*%
%ADD108C,0.06756*%
%ADD109C,0.16598*%
%ADD110C,0.07543*%
%ADD111C,0.08200*%
%ADD112C,0.08134*%
%ADD113C,0.10102*%
%ADD114C,0.10693*%
%ADD115C,0.08724*%
%ADD116C,0.10299*%
%ADD117C,0.08016*%
%ADD118C,0.16992*%
%ADD119C,0.14000*%
%ADD120C,0.08331*%
%ADD121C,0.09118*%
%ADD122C,0.13055*%
%ADD123C,0.07937*%
%ADD124O,0.05969X0.08724*%
%ADD125C,0.05496*%
%ADD126C,0.05181*%
%ADD127C,0.06362*%
D107*
X0606483Y0104545D02*
X1051035D01*
X0584500Y0117358D02*
X0584727Y0115054D01*
X0585399Y0112838D01*
X0586490Y0110796D01*
X0587959Y0109007D01*
X0589749Y0107538D01*
X0591791Y0106446D01*
X0594007Y0105774D01*
X1123870Y0105547D02*
X1202610D01*
X1204914Y0105774D01*
X1207130Y0106446D01*
X1209172Y0107538D01*
X1210962Y0109007D01*
X1212431Y0110796D01*
X1213522Y0112838D01*
X1214194Y0115054D01*
X1214421Y0117358D01*
X0594007Y0105774D02*
X0606483Y0104545D01*
X1214421Y0117358D02*
Y0388669D01*
X1214194Y0390973D02*
X1214421Y0388669D01*
X1213522Y0393189D02*
X1214194Y0390973D01*
X1212431Y0395231D02*
X1213522Y0393189D01*
X1210962Y0397021D02*
X1212431Y0395231D01*
X1209172Y0398490D02*
X1210962Y0397021D01*
X1207130Y0399581D02*
X1209172Y0398490D01*
X1204914Y0400253D02*
X1207130Y0399581D01*
X1199133Y0400823D02*
X1204914Y0400253D01*
X0599788Y0400823D02*
X1199133D01*
X0594007Y0400253D02*
X0599788Y0400823D01*
X0591791Y0399581D02*
X0594007Y0400253D01*
X0589749Y0398490D02*
X0591791Y0399581D01*
X0587959Y0397021D02*
X0589749Y0398490D01*
X0586490Y0395231D02*
X0587959Y0397021D01*
X0585399Y0393189D02*
X0586490Y0395231D01*
X0584727Y0390973D02*
X0585399Y0393189D01*
X0584500Y0388669D02*
X0584727Y0390973D01*
X0584500Y0117358D02*
Y0388669D01*
X1051035Y0104545D02*
Y0188224D01*
X1051134Y0189100D01*
X1051425Y0189933D01*
X1051894Y0190679D01*
X1052518Y0191302D01*
X1053264Y0191771D01*
X1054096Y0192063D01*
X1054972Y0192161D01*
X1119933D01*
X1120809Y0192063D01*
X1121641Y0191771D01*
X1122388Y0191302D01*
X1123011Y0190679D01*
X1123480Y0189933D01*
X1123771Y0189100D01*
X1123870Y0188224D01*
Y0105547D02*
Y0188224D01*
D108*
X0877709Y0121689D02*
D03*
X0861764D02*
D03*
D109*
X0600248Y0345705D02*
D03*
Y0121295D02*
D03*
X1198673Y0345705D02*
D03*
Y0121295D02*
D03*
D110*
X1147886Y0281118D02*
D03*
X1137886D02*
D03*
X1147886Y0291118D02*
D03*
X1137886D02*
D03*
X1147886Y0301118D02*
D03*
X1137886D02*
D03*
X1147886Y0311118D02*
D03*
X1137886D02*
D03*
X1147886Y0321118D02*
D03*
X1137886D02*
D03*
X1147886Y0331118D02*
D03*
X1137886D02*
D03*
X1147886Y0341118D02*
D03*
X1137886D02*
D03*
X1147886Y0351118D02*
D03*
X1137886D02*
D03*
X1147886Y0361118D02*
D03*
X1137886D02*
D03*
X0825748Y0121795D02*
D03*
Y0131795D02*
D03*
X0835748Y0121795D02*
D03*
Y0131795D02*
D03*
X0599264Y0322988D02*
D03*
X0609264D02*
D03*
X0599264Y0312988D02*
D03*
X0609264D02*
D03*
X0599264Y0302988D02*
D03*
X0609264D02*
D03*
X0599264Y0292988D02*
D03*
X0609264D02*
D03*
X0599264Y0282988D02*
D03*
X0609264D02*
D03*
X0599264Y0262988D02*
D03*
X0609264D02*
D03*
X0599264Y0252988D02*
D03*
X0609264D02*
D03*
X0599264Y0242988D02*
D03*
X0609264D02*
D03*
X0599264Y0232988D02*
D03*
X0609264D02*
D03*
X0599264Y0222988D02*
D03*
X0609264D02*
D03*
X0599264Y0212988D02*
D03*
X0609264D02*
D03*
X0599264Y0192988D02*
D03*
X0609264D02*
D03*
X0599264Y0182988D02*
D03*
X0609264D02*
D03*
X0987740Y0180264D02*
D03*
X1031756D02*
D03*
X1029728Y0208295D02*
D03*
X1021736D02*
D03*
X0997760D02*
D03*
X0989768D02*
D03*
X1033724Y0218295D02*
D03*
X1025732D02*
D03*
X1017740D02*
D03*
D111*
X1067604Y0357374D02*
D03*
X1114311Y0211165D02*
D03*
X1105404Y0357374D02*
D03*
X1086502D02*
D03*
D112*
X1114604Y0299832D02*
D03*
X1058504Y0329374D02*
D03*
Y0289974D02*
D03*
Y0250574D02*
D03*
Y0319574D02*
D03*
Y0301074D02*
D03*
Y0211174D02*
D03*
X1080904Y0289974D02*
D03*
X1102104D02*
D03*
X1114604Y0270274D02*
D03*
Y0230874D02*
D03*
X1092304Y0211174D02*
D03*
X1114604Y0309674D02*
D03*
Y0319574D02*
D03*
Y0339174D02*
D03*
Y0349074D02*
D03*
X1058504Y0339174D02*
D03*
D113*
X1067756Y0332622D02*
D03*
X1105649Y0332819D02*
D03*
D114*
X0638006Y0272404D02*
D03*
D115*
X0900998D02*
D03*
D116*
X1041500Y0135775D02*
D03*
X0977996D02*
D03*
X0732748Y0119045D02*
D03*
X0712748D02*
D03*
X0722748Y0199045D02*
D03*
X0682748Y0119045D02*
D03*
X0762748Y0199045D02*
D03*
D117*
X1033744Y0228295D02*
D03*
X1023744D02*
D03*
X0995752D02*
D03*
X0985752D02*
D03*
D118*
X1034748Y0148295D02*
D03*
X0984748D02*
D03*
D119*
X0750228Y0119045D02*
D03*
Y0199045D02*
D03*
X0695228Y0119045D02*
D03*
Y0199045D02*
D03*
D120*
X0623378Y0124996D02*
D03*
Y0114996D02*
D03*
X1150937Y0246984D02*
D03*
X1130937D02*
D03*
D121*
X0658278Y0119795D02*
D03*
X0644498D02*
D03*
D122*
X0955742Y0143626D02*
D03*
Y0165988D02*
D03*
X0903774Y0143626D02*
D03*
Y0165988D02*
D03*
X1183713Y0144484D02*
D03*
Y0166846D02*
D03*
X1131744Y0144484D02*
D03*
Y0166846D02*
D03*
D123*
X0915781Y0164630D02*
D03*
X0925624D02*
D03*
X0933498D02*
D03*
X0915781Y0154295D02*
D03*
X0925624D02*
D03*
X0933498D02*
D03*
X1143752Y0165488D02*
D03*
X1153594D02*
D03*
X1161469D02*
D03*
Y0155154D02*
D03*
X1153594D02*
D03*
X1143752D02*
D03*
D124*
X0858429Y0113224D02*
D03*
X0881067D02*
D03*
D125*
X1021311Y0360567D02*
D03*
X1026134Y0356433D02*
D03*
X0739520Y0248362D02*
D03*
X0625642Y0197968D02*
D03*
X0632335Y0238126D02*
D03*
X0621606Y0271394D02*
D03*
X0622689Y0266965D02*
D03*
X0709894Y0263323D02*
D03*
X0782925Y0379957D02*
D03*
X0714323Y0334976D02*
D03*
X0725937Y0324051D02*
D03*
X0741882Y0373657D02*
D03*
X0697394Y0348461D02*
D03*
X0693063Y0353874D02*
D03*
X0705760Y0357713D02*
D03*
X0691783Y0345508D02*
D03*
X0742965Y0369720D02*
D03*
X0714028Y0340980D02*
D03*
X0703201Y0338323D02*
D03*
X0744244Y0366571D02*
D03*
X0718457Y0345311D02*
D03*
X0654087Y0248461D02*
D03*
X0778693Y0340193D02*
D03*
X0810484Y0363224D02*
D03*
X0782728Y0342850D02*
D03*
X0783220Y0359189D02*
D03*
X0923673Y0372378D02*
D03*
X1009402Y0368933D02*
D03*
X1011862Y0366177D02*
D03*
X0656843Y0263398D02*
D03*
X0861998Y0160545D02*
D03*
X0841248Y0116545D02*
D03*
X0880248Y0134795D02*
D03*
X0839498Y0212795D02*
D03*
X0832998Y0168545D02*
D03*
X0830748Y0191545D02*
D03*
X0812498Y0173795D02*
D03*
X0853498Y0184795D02*
D03*
X0947998Y0181295D02*
D03*
X0665307Y0297378D02*
D03*
X0673181Y0308106D02*
D03*
X0670228Y0311256D02*
D03*
X0661567Y0300626D02*
D03*
X0870524Y0160468D02*
D03*
X0872394Y0138028D02*
D03*
X0895917Y0152890D02*
D03*
X0905760Y0176709D02*
D03*
X0870228Y0181335D02*
D03*
X0883713Y0192063D02*
D03*
X0890012Y0174346D02*
D03*
X0931941Y0186748D02*
D03*
X0917079Y0186846D02*
D03*
X0916488Y0210764D02*
D03*
X0994244Y0245803D02*
D03*
X0988339Y0239996D02*
D03*
X1008909Y0245803D02*
D03*
X1017768Y0245901D02*
D03*
X1021036Y0320321D02*
D03*
X1024658Y0320409D02*
D03*
X0956350Y0248264D02*
D03*
Y0251764D02*
D03*
X0955760Y0255817D02*
D03*
Y0259317D02*
D03*
X1023083Y0327398D02*
D03*
X1136665Y0191669D02*
D03*
X1028201Y0331925D02*
D03*
X1029579Y0321197D02*
D03*
X0984402Y0365980D02*
D03*
X0979283Y0296492D02*
D03*
X1003594Y0311354D02*
D03*
X0988929Y0303972D02*
D03*
X1014717Y0283598D02*
D03*
X1001823Y0278579D02*
D03*
X1042177Y0269032D02*
D03*
X1020807Y0259376D02*
D03*
X0966783Y0242260D02*
D03*
X1000642Y0362142D02*
D03*
X0940307Y0265390D02*
D03*
X0942669Y0262732D02*
D03*
X1041291Y0340094D02*
D03*
X0706153Y0249248D02*
D03*
X0666094Y0267358D02*
D03*
X0663339Y0247673D02*
D03*
X1190602Y0251217D02*
D03*
X1164224Y0243539D02*
D03*
X1187846Y0279760D02*
D03*
X1171213Y0236157D02*
D03*
X0825445Y0369425D02*
D03*
X0824953Y0377594D02*
D03*
X0797787Y0222378D02*
D03*
X0797295Y0300724D02*
D03*
X0793949Y0303283D02*
D03*
X0794441Y0224150D02*
D03*
X0828102Y0243047D02*
D03*
X1122000Y0227299D02*
D03*
X1126823Y0194524D02*
D03*
X0825150Y0263224D02*
D03*
X1027118Y0326905D02*
D03*
X1048969Y0303512D02*
D03*
X1051429Y0299051D02*
D03*
X1082335Y0281925D02*
D03*
X1154382Y0235173D02*
D03*
X0850051Y0239504D02*
D03*
X0835583Y0248362D02*
D03*
X1158909Y0333992D02*
D03*
X1161862Y0327594D02*
D03*
X1176429Y0338618D02*
D03*
X1175051Y0319622D02*
D03*
X0730366Y0222378D02*
D03*
X0720819Y0247870D02*
D03*
X0717669Y0248067D02*
D03*
X0726331Y0221689D02*
D03*
X0734402Y0221787D02*
D03*
X0737748Y0220016D02*
D03*
X0650642Y0204366D02*
D03*
X0655071Y0207614D02*
D03*
X0695228Y0265193D02*
D03*
X1121705Y0259878D02*
D03*
X1140701Y0115488D02*
D03*
X1170032Y0134287D02*
D03*
X1179677Y0158992D02*
D03*
X1171114Y0179563D02*
D03*
X1198279D02*
D03*
X1198476Y0184878D02*
D03*
X1197984Y0171394D02*
D03*
X1198476Y0157122D02*
D03*
X1194835Y0152594D02*
D03*
X1177217Y0129858D02*
D03*
X1148181Y0131039D02*
D03*
X1167669Y0119720D02*
D03*
X0949037Y0188028D02*
D03*
X0944061Y0181295D02*
D03*
X0790799Y0130785D02*
D03*
X0768752Y0142161D02*
D03*
X0779087Y0162240D02*
D03*
X0891291Y0169819D02*
D03*
X0894539Y0223756D02*
D03*
X1170327Y0207319D02*
D03*
X1123378Y0212240D02*
D03*
X1134303Y0194622D02*
D03*
X0790498Y0117295D02*
D03*
X0727709Y0263815D02*
D03*
X0645917Y0202201D02*
D03*
X0640012Y0192457D02*
D03*
X0691685Y0150429D02*
D03*
X0689323Y0129661D02*
D03*
X0639323Y0161945D02*
D03*
X0628496Y0151906D02*
D03*
X0871114Y0175626D02*
D03*
X0646213Y0296492D02*
D03*
X0813732Y0233500D02*
D03*
X0710090Y0235764D02*
D03*
X0649165Y0298559D02*
D03*
X0651232Y0301217D02*
D03*
X0671213Y0315980D02*
D03*
X0879382Y0162831D02*
D03*
X0814913Y0238028D02*
D03*
X0706252Y0244917D02*
D03*
X0746311Y0237437D02*
D03*
X0721409Y0297181D02*
D03*
X0877217Y0174150D02*
D03*
X0814126Y0246689D02*
D03*
X0731252Y0247280D02*
D03*
X0734659Y0248400D02*
D03*
X0766390Y0246689D02*
D03*
X0763142Y0297378D02*
D03*
X0689815Y0249445D02*
D03*
X0685090Y0248264D02*
D03*
X0689716Y0244130D02*
D03*
X0683516Y0245114D02*
D03*
X0678201Y0245016D02*
D03*
X0666488Y0245606D02*
D03*
X0773772Y0310665D02*
D03*
X0913535Y0351512D02*
D03*
X1024658Y0350134D02*
D03*
X0675445Y0247673D02*
D03*
X0670527Y0246400D02*
D03*
X0800642Y0208008D02*
D03*
X0793457Y0111650D02*
D03*
X0810583Y0168342D02*
D03*
X1044736Y0193736D02*
D03*
X0790307Y0123362D02*
D03*
X0841390Y0129071D02*
D03*
X0887551Y0164012D02*
D03*
X0873575Y0216276D02*
D03*
X0996114Y0375134D02*
D03*
X0969638Y0364012D02*
D03*
X1043949Y0367555D02*
D03*
X0960976Y0334780D02*
D03*
X1129382Y0214701D02*
D03*
X0710779Y0307220D02*
D03*
X0967866Y0348657D02*
D03*
X1018555Y0352693D02*
D03*
X0962256Y0313028D02*
D03*
X1000150Y0313421D02*
D03*
X1026844Y0304080D02*
D03*
X1026134Y0343342D02*
D03*
X0975346Y0308795D02*
D03*
D126*
X0858319Y0238224D02*
D03*
X0952709Y0192457D02*
D03*
X0948969D02*
D03*
X0952709Y0187959D02*
D03*
X0947984Y0177102D02*
D03*
X0944047D02*
D03*
X0794343Y0117260D02*
D03*
X0786862D02*
D03*
X0786961Y0130744D02*
D03*
X0794736Y0130842D02*
D03*
X0800642Y0187535D02*
D03*
X0804185D02*
D03*
Y0184189D02*
D03*
X0800642D02*
D03*
X0804185Y0180744D02*
D03*
X0800642D02*
D03*
X0787256Y0148756D02*
D03*
Y0145311D02*
D03*
X0790799D02*
D03*
Y0148756D02*
D03*
X0794343Y0145311D02*
D03*
Y0148756D02*
D03*
X0817177Y0221492D02*
D03*
Y0217949D02*
D03*
X0820622Y0221492D02*
D03*
X0824165D02*
D03*
X0874067Y0302201D02*
D03*
X0877610D02*
D03*
Y0299051D02*
D03*
X0874067D02*
D03*
Y0295901D02*
D03*
X0877610D02*
D03*
X0886567Y0295803D02*
D03*
X0883024D02*
D03*
Y0298953D02*
D03*
X0886567D02*
D03*
Y0302102D02*
D03*
X0883024D02*
D03*
X0890898Y0302201D02*
D03*
X0894441D02*
D03*
Y0299051D02*
D03*
X0890898D02*
D03*
X0894441Y0295901D02*
D03*
X0895622Y0246000D02*
D03*
Y0249543D02*
D03*
X0898772D02*
D03*
Y0246000D02*
D03*
X0901921D02*
D03*
Y0249543D02*
D03*
X0890898Y0295901D02*
D03*
X0824165Y0217949D02*
D03*
X0820622D02*
D03*
X0885287Y0246984D02*
D03*
X0881744D02*
D03*
Y0250134D02*
D03*
X0885287D02*
D03*
X0881744Y0243835D02*
D03*
X0885287D02*
D03*
X0876429Y0249346D02*
D03*
X0873673D02*
D03*
X0873772Y0246197D02*
D03*
X0876528D02*
D03*
X0873772Y0243047D02*
D03*
X0876528D02*
D03*
D127*
X0600248Y0354760D02*
D03*
Y0336650D02*
D03*
X0609303Y0345705D02*
D03*
X0591193D02*
D03*
X0593845Y0339302D02*
D03*
X0606651Y0352108D02*
D03*
Y0339302D02*
D03*
X0593845Y0352108D02*
D03*
Y0127698D02*
D03*
X0606651Y0114892D02*
D03*
Y0127698D02*
D03*
X0593845Y0114892D02*
D03*
X0591193Y0121295D02*
D03*
X0609303D02*
D03*
X0600248Y0112240D02*
D03*
Y0130350D02*
D03*
X1198673Y0354760D02*
D03*
Y0336650D02*
D03*
X1207728Y0345705D02*
D03*
X1189618D02*
D03*
X1192270Y0339302D02*
D03*
X1205076Y0352108D02*
D03*
Y0339302D02*
D03*
X1192270Y0352108D02*
D03*
Y0127698D02*
D03*
X1205076Y0114892D02*
D03*
Y0127698D02*
D03*
X1192270Y0114892D02*
D03*
X1189618Y0121295D02*
D03*
X1207728D02*
D03*
X1198673Y0112240D02*
D03*
Y0130350D02*
D03*
X0692571Y0296689D02*
D03*
M02*
