G04*
G04 #@! TF.GenerationSoftware,Altium Limited,Altium Designer,21.6.4 (81)*
G04*
G04 Layer_Color=16711935*
%FSAX25Y25*%
%MOIN*%
G70*
G04*
G04 #@! TF.SameCoordinates,DD8D4212-8735-41A3-844D-102B836B4CE1*
G04*
G04*
G04 #@! TF.FilePolarity,Negative*
G04*
G01*
G75*
%ADD76C,0.06706*%
%ADD77R,0.06706X0.06706*%
%ADD128C,0.11824*%
%ADD129C,0.06343*%
%ADD130C,0.21850*%
%ADD131R,0.00800X0.00800*%
%ADD132R,0.06706X0.06706*%
%ADD133C,0.06312*%
%ADD134R,0.08674X0.08674*%
%ADD135C,0.06902*%
%ADD136C,0.00800*%
%ADD137C,0.05721*%
%ADD138C,0.10249*%
%ADD139C,0.06824*%
%ADD140R,0.08674X0.07099*%
%ADD141O,0.08674X0.07099*%
%ADD142R,0.08280X0.08280*%
%ADD143C,0.08280*%
%ADD144C,0.07493*%
%ADD145R,0.07493X0.07493*%
%ADD146O,0.04737X0.07099*%
%ADD213C,0.02400*%
%ADD214C,0.01587*%
D76*
X0815748Y0131795D02*
D03*
X0825748Y0121795D02*
D03*
Y0131795D02*
D03*
X0835748Y0121795D02*
D03*
Y0131795D02*
D03*
X0609264Y0322988D02*
D03*
X0599264Y0312988D02*
D03*
X0609264D02*
D03*
X0599264Y0302988D02*
D03*
X0609264D02*
D03*
X0599264Y0292988D02*
D03*
X0609264D02*
D03*
X0599264Y0282988D02*
D03*
X0609264D02*
D03*
X0599264Y0272988D02*
D03*
X0609264D02*
D03*
X0599264Y0262988D02*
D03*
X0609264D02*
D03*
X0599264Y0252988D02*
D03*
X0609264D02*
D03*
X0599264Y0242988D02*
D03*
X0609264D02*
D03*
X0599264Y0232988D02*
D03*
X0609264D02*
D03*
X0599264Y0222988D02*
D03*
X0609264D02*
D03*
X0599264Y0212988D02*
D03*
X0609264D02*
D03*
X0599264Y0202988D02*
D03*
X0609264D02*
D03*
X0599264Y0192988D02*
D03*
X0609264D02*
D03*
X0599264Y0182988D02*
D03*
X0609264D02*
D03*
D77*
X0599264Y0322988D02*
D03*
D128*
X1183713Y0144484D02*
D03*
Y0166846D02*
D03*
X1131744Y0144484D02*
D03*
Y0166846D02*
D03*
X0955742Y0143626D02*
D03*
Y0165988D02*
D03*
X0903774Y0143626D02*
D03*
Y0165988D02*
D03*
D129*
X1143752Y0165488D02*
D03*
X1171311D02*
D03*
X1153594D02*
D03*
X1161469D02*
D03*
Y0155154D02*
D03*
X1153594D02*
D03*
X1171311D02*
D03*
X1143752D02*
D03*
X1029728Y0208295D02*
D03*
X1021736D02*
D03*
X0997760D02*
D03*
X0989768D02*
D03*
X1033724Y0218295D02*
D03*
X1025732D02*
D03*
X1017740D02*
D03*
X0915781Y0164630D02*
D03*
X0943340D02*
D03*
X0925624D02*
D03*
X0933498D02*
D03*
X0943340Y0154295D02*
D03*
X0915781D02*
D03*
X0925624D02*
D03*
X0933498D02*
D03*
D130*
X1198673Y0345705D02*
D03*
X0600248Y0121295D02*
D03*
X1198673D02*
D03*
X0600248Y0345705D02*
D03*
D131*
X0877709Y0121689D02*
D03*
X0861764D02*
D03*
D132*
X0815748Y0121795D02*
D03*
D133*
X1067604Y0357374D02*
D03*
X1114311Y0211165D02*
D03*
X1105404Y0357374D02*
D03*
X1086502D02*
D03*
D134*
X1114604Y0299832D02*
D03*
X1058504Y0329374D02*
D03*
Y0289974D02*
D03*
Y0250574D02*
D03*
Y0319574D02*
D03*
Y0301074D02*
D03*
Y0211174D02*
D03*
X1080904Y0289974D02*
D03*
X1102104D02*
D03*
X1114604Y0270274D02*
D03*
Y0230874D02*
D03*
X1092304Y0211174D02*
D03*
X1114604Y0309674D02*
D03*
Y0319574D02*
D03*
Y0339174D02*
D03*
Y0349074D02*
D03*
X1058504Y0339174D02*
D03*
D135*
X1067756Y0332622D02*
D03*
X1105649Y0332819D02*
D03*
D136*
X0638006Y0272404D02*
D03*
X0900998D02*
D03*
X1034748Y0148295D02*
D03*
X0984748D02*
D03*
X0750228Y0119045D02*
D03*
Y0199045D02*
D03*
X0695228Y0119045D02*
D03*
Y0199045D02*
D03*
D137*
X0987740Y0180264D02*
D03*
X1031756D02*
D03*
D138*
X1041500Y0135775D02*
D03*
X0977996D02*
D03*
X0732748Y0119045D02*
D03*
X0712748D02*
D03*
X0722748Y0199045D02*
D03*
X0682748D02*
D03*
Y0119045D02*
D03*
X0762748Y0199045D02*
D03*
D139*
X1033744Y0228295D02*
D03*
X1023744D02*
D03*
X0995752D02*
D03*
X0985752D02*
D03*
D140*
X0623378Y0124996D02*
D03*
D141*
Y0114996D02*
D03*
D142*
X0658278Y0119795D02*
D03*
D143*
X0644498D02*
D03*
D144*
X1150937Y0246984D02*
D03*
X1140937D02*
D03*
D145*
X1130937D02*
D03*
D146*
X0858429Y0113224D02*
D03*
X0881067D02*
D03*
D213*
X0729498Y0309622D02*
G03*
X0729498Y0309622I-0001100J0000000D01*
G01*
X0735501Y0309622D02*
G03*
X0735501Y0309622I-0001100J0000000D01*
G01*
Y0309841D02*
G03*
X0735501Y0309841I-0001100J0000000D01*
G01*
X0719360Y0318283D02*
G03*
X0719360Y0318283I-0001100J0000000D01*
G01*
X0726151Y0318084D02*
G03*
X0726151Y0318084I-0001100J0000000D01*
G01*
Y0318304D02*
G03*
X0726151Y0318304I-0001100J0000000D01*
G01*
X0719458Y0330292D02*
G03*
X0719458Y0330292I-0001100J0000000D01*
G01*
X0726545Y0330094D02*
G03*
X0726545Y0330094I-0001100J0000000D01*
G01*
Y0330314D02*
G03*
X0726545Y0330314I-0001100J0000000D01*
G01*
D214*
X0728398Y0308402D02*
D03*
Y0310862D02*
D03*
X0734402Y0308401D02*
D03*
Y0311062D02*
D03*
X0718260Y0317063D02*
D03*
Y0319523D02*
D03*
X0725051Y0316864D02*
D03*
Y0319524D02*
D03*
X0718358Y0329071D02*
D03*
Y0331532D02*
D03*
X0725445Y0328874D02*
D03*
Y0331534D02*
D03*
M02*
