G04*
G04 #@! TF.GenerationSoftware,Altium Limited,Altium Designer,21.6.4 (81)*
G04*
G04 Layer_Color=32896*
%FSAX25Y25*%
%MOIN*%
G70*
G04*
G04 #@! TF.SameCoordinates,DD8D4212-8735-41A3-844D-102B836B4CE1*
G04*
G04*
G04 #@! TF.FilePolarity,Positive*
G04*
G01*
G75*
%ADD11C,0.00787*%
%ADD12C,0.05118*%
%ADD13C,0.01181*%
%ADD16C,0.01968*%
%ADD18C,0.00100*%
%ADD161C,0.03937*%
%ADD215R,0.62750X0.18000*%
D11*
X1152681Y0237589D02*
Y0326589D01*
Y0237589D02*
X1200181D01*
Y0326589D01*
X1152681D02*
X1200181D01*
X0620968Y0178222D02*
Y0327972D01*
Y0178222D02*
X0652468D01*
Y0327972D01*
X0620968D02*
X0652468D01*
X0639998Y0140795D02*
Y0143795D01*
X0636998D02*
X0639998D01*
X0621498D02*
X0624498D01*
X0621498Y0140795D02*
Y0143795D01*
X0639998Y0140795D02*
X0649248D01*
X0612248D02*
X0621498D01*
X0649248D02*
Y0170795D01*
X0624498Y0143795D02*
X0636998D01*
X0612248Y0140795D02*
Y0170795D01*
X0649248D01*
X0625631Y0164832D02*
X0622745D01*
X0624188D01*
Y0160503D01*
X0621302Y0164832D02*
X0618416Y0160503D01*
Y0164832D02*
X0621302Y0160503D01*
X0616973Y0162667D02*
X0614086D01*
X0629961Y0153418D02*
Y0157747D01*
X0627796D01*
X0627074Y0157025D01*
Y0155582D01*
X0627796Y0154861D01*
X0629961D01*
X0628517D02*
X0627074Y0153418D01*
X0622745Y0157025D02*
X0623467Y0157747D01*
X0624910D01*
X0625631Y0157025D01*
Y0156304D01*
X0624910Y0155582D01*
X0623467D01*
X0622745Y0154861D01*
Y0154139D01*
X0623467Y0153418D01*
X0624910D01*
X0625631Y0154139D01*
X0621302Y0157747D02*
X0618416D01*
X0619859D01*
Y0153418D01*
X0616973Y0155582D02*
X0614086D01*
X0627074Y0149940D02*
X0627796Y0150662D01*
X0629239D01*
X0629961Y0149940D01*
Y0147054D01*
X0629239Y0146333D01*
X0627796D01*
X0627074Y0147054D01*
Y0148497D01*
X0628517D01*
X0625631Y0146333D02*
Y0150662D01*
X0622745Y0146333D01*
Y0150662D01*
X0621302D02*
Y0146333D01*
X0619137D01*
X0618416Y0147054D01*
Y0149940D01*
X0619137Y0150662D01*
X0621302D01*
X0616973Y0148497D02*
X0614086D01*
X0648211Y0166417D02*
X0645324D01*
X0643881Y0164252D02*
Y0168582D01*
X0641717D01*
X0640995Y0167860D01*
Y0166417D01*
X0641717Y0165696D01*
X0643881D01*
X0642438D02*
X0640995Y0164252D01*
X0639552Y0168582D02*
X0636666Y0164252D01*
Y0168582D02*
X0639552Y0164252D01*
X0648211Y0159332D02*
X0645324D01*
X0643881Y0161497D02*
X0642438D01*
X0643160D01*
Y0157168D01*
X0643881D01*
X0642438D01*
X0638109Y0161497D02*
X0639552D01*
X0640274Y0160775D01*
Y0157889D01*
X0639552Y0157168D01*
X0638109D01*
X0637387Y0157889D01*
Y0160775D01*
X0638109Y0161497D01*
X0648211Y0152247D02*
X0645324D01*
X0643881Y0154412D02*
Y0151526D01*
X0642438Y0150083D01*
X0640995Y0151526D01*
Y0154412D01*
X0636666Y0153690D02*
X0637387Y0154412D01*
X0638830D01*
X0639552Y0153690D01*
Y0150804D01*
X0638830Y0150083D01*
X0637387D01*
X0636666Y0150804D01*
X0632337Y0153690D02*
X0633058Y0154412D01*
X0634501D01*
X0635223Y0153690D01*
Y0150804D01*
X0634501Y0150083D01*
X0633058D01*
X0632337Y0150804D01*
X0885268Y0131104D02*
Y0128152D01*
X0884677Y0127562D01*
X0883497D01*
X0882906Y0128152D01*
Y0131104D01*
X0879364Y0130513D02*
X0879954Y0131104D01*
X0881135D01*
X0881726Y0130513D01*
Y0129923D01*
X0881135Y0129333D01*
X0879954D01*
X0879364Y0128742D01*
Y0128152D01*
X0879954Y0127562D01*
X0881135D01*
X0881726Y0128152D01*
X0878183Y0131104D02*
Y0127562D01*
X0876412D01*
X0875822Y0128152D01*
Y0128742D01*
X0876412Y0129333D01*
X0878183D01*
X0876412D01*
X0875822Y0129923D01*
Y0130513D01*
X0876412Y0131104D01*
X0878183D01*
X0868738Y0130513D02*
X0869328Y0131104D01*
X0870509D01*
X0871099Y0130513D01*
Y0129923D01*
X0870509Y0129333D01*
X0869328D01*
X0868738Y0128742D01*
Y0128152D01*
X0869328Y0127562D01*
X0870509D01*
X0871099Y0128152D01*
X0867557Y0131104D02*
Y0127562D01*
X0865195D01*
X0864015D02*
Y0129923D01*
X0862834Y0131104D01*
X0861653Y0129923D01*
Y0127562D01*
Y0129333D01*
X0864015D01*
X0860473Y0131104D02*
Y0128742D01*
X0859292Y0127562D01*
X0858111Y0128742D01*
Y0131104D01*
X0854569D02*
X0856930D01*
Y0127562D01*
X0854569D01*
X0856930Y0129333D02*
X0855750D01*
X0874641Y0124963D02*
Y0121421D01*
X0872870D01*
X0872280Y0122012D01*
Y0122602D01*
X0872870Y0123192D01*
X0874641D01*
X0872870D01*
X0872280Y0123783D01*
Y0124373D01*
X0872870Y0124963D01*
X0874641D01*
X0869328D02*
X0870509D01*
X0871099Y0124373D01*
Y0122012D01*
X0870509Y0121421D01*
X0869328D01*
X0868738Y0122012D01*
Y0124373D01*
X0869328Y0124963D01*
X0865786D02*
X0866967D01*
X0867557Y0124373D01*
Y0122012D01*
X0866967Y0121421D01*
X0865786D01*
X0865195Y0122012D01*
Y0124373D01*
X0865786Y0124963D01*
X0864015D02*
X0861653D01*
X0862834D01*
Y0121421D01*
X1021557Y0142046D02*
X1023918D01*
Y0138504D01*
X1021557D01*
X1023918Y0140275D02*
X1022738D01*
X1020376Y0142046D02*
X1018015D01*
X1019196D01*
Y0138504D01*
X1016834Y0142046D02*
Y0138504D01*
Y0140275D01*
X1014473D01*
Y0142046D01*
Y0138504D01*
X1010931Y0142046D02*
X1013292D01*
Y0138504D01*
X1010931D01*
X1013292Y0140275D02*
X1012111D01*
X1009750Y0138504D02*
Y0142046D01*
X1007979D01*
X1007388Y0141455D01*
Y0140275D01*
X1007979Y0139684D01*
X1009750D01*
X1008569D02*
X1007388Y0138504D01*
X1006208D02*
Y0142046D01*
X1003846Y0138504D01*
Y0142046D01*
X1000304D02*
X1002666D01*
Y0138504D01*
X1000304D01*
X1002666Y0140275D02*
X1001485D01*
X0999123Y0142046D02*
X0996762D01*
X0997943D01*
Y0138504D01*
X1013292Y0134134D02*
X1010931D01*
X1012111Y0135315D02*
Y0132954D01*
X1027461Y0126223D02*
Y0129765D01*
X1025690D01*
X1025099Y0129175D01*
Y0127994D01*
X1025690Y0127404D01*
X1027461D01*
X1023918Y0126223D02*
Y0128584D01*
X1022738Y0129765D01*
X1021557Y0128584D01*
Y0126223D01*
Y0127994D01*
X1023918D01*
X1018015Y0129175D02*
X1018605Y0129765D01*
X1019786D01*
X1020376Y0129175D01*
Y0128584D01*
X1019786Y0127994D01*
X1018605D01*
X1018015Y0127404D01*
Y0126813D01*
X1018605Y0126223D01*
X1019786D01*
X1020376Y0126813D01*
X1016834Y0129765D02*
X1015653D01*
X1016244D01*
Y0126223D01*
X1016834D01*
X1015653D01*
X1013882Y0129765D02*
Y0127404D01*
X1012702Y0126223D01*
X1011521Y0127404D01*
Y0129765D01*
X1007979D02*
X1010340D01*
Y0126223D01*
X1007979D01*
X1010340Y0127994D02*
X1009159D01*
X1003256Y0126223D02*
Y0129765D01*
X1001485D01*
X1000894Y0129175D01*
Y0127994D01*
X1001485Y0127404D01*
X1003256D01*
X0999123Y0126223D02*
X0997943D01*
X0997352Y0126813D01*
Y0127994D01*
X0997943Y0128584D01*
X0999123D01*
X0999714Y0127994D01*
Y0126813D01*
X0999123Y0126223D01*
X0993810Y0129765D02*
X0996171D01*
Y0126223D01*
X0993810D01*
X0996171Y0127994D02*
X0994991D01*
X1014473Y0120083D02*
X1016834D01*
X1014473Y0122444D01*
Y0123034D01*
X1015063Y0123625D01*
X1016244D01*
X1016834Y0123034D01*
X1011521Y0120083D02*
Y0123625D01*
X1013292Y0121854D01*
X1010931D01*
X1009750Y0123625D02*
Y0121263D01*
X1008569Y0120083D01*
X1007388Y0121263D01*
Y0123625D01*
X0931547Y0132219D02*
Y0129268D01*
X0930957Y0128677D01*
X0929776D01*
X0929186Y0129268D01*
Y0132219D01*
X0925644Y0131629D02*
X0926234Y0132219D01*
X0927415D01*
X0928005Y0131629D01*
Y0131039D01*
X0927415Y0130448D01*
X0926234D01*
X0925644Y0129858D01*
Y0129268D01*
X0926234Y0128677D01*
X0927415D01*
X0928005Y0129268D01*
X0924463Y0132219D02*
Y0128677D01*
X0922692D01*
X0922101Y0129268D01*
Y0129858D01*
X0922692Y0130448D01*
X0924463D01*
X0922692D01*
X0922101Y0131039D01*
Y0131629D01*
X0922692Y0132219D01*
X0924463D01*
X1159518Y0133078D02*
Y0130126D01*
X1158927Y0129535D01*
X1157747D01*
X1157156Y0130126D01*
Y0133078D01*
X1153614Y0132487D02*
X1154204Y0133078D01*
X1155385D01*
X1155976Y0132487D01*
Y0131897D01*
X1155385Y0131307D01*
X1154204D01*
X1153614Y0130716D01*
Y0130126D01*
X1154204Y0129535D01*
X1155385D01*
X1155976Y0130126D01*
X1152433Y0133078D02*
Y0129535D01*
X1150662D01*
X1150072Y0130126D01*
Y0130716D01*
X1150662Y0131307D01*
X1152433D01*
X1150662D01*
X1150072Y0131897D01*
Y0132487D01*
X1150662Y0133078D01*
X1152433D01*
X1198248Y0324837D02*
Y0322476D01*
X1197067Y0321295D01*
X1195887Y0322476D01*
Y0324837D01*
X1194706D02*
X1192344D01*
X1193525D01*
Y0321295D01*
X1188802D02*
X1191164D01*
X1188802Y0323657D01*
Y0324247D01*
X1189393Y0324837D01*
X1190573D01*
X1191164Y0324247D01*
X1198248Y0314837D02*
Y0312476D01*
X1197067Y0311295D01*
X1195887Y0312476D01*
Y0314837D01*
X1194706D02*
X1192344D01*
X1193525D01*
Y0311295D01*
X1191164D02*
X1189983D01*
X1190573D01*
Y0314837D01*
X1191164Y0314247D01*
X1195887Y0304087D02*
X1198248D01*
Y0302316D01*
X1197067D01*
X1198248D01*
Y0300545D01*
X1194706D02*
Y0302907D01*
X1193525Y0304087D01*
X1192344Y0302907D01*
Y0300545D01*
Y0302316D01*
X1194706D01*
X1191164Y0304087D02*
Y0301136D01*
X1190573Y0300545D01*
X1189393D01*
X1188802Y0301136D01*
Y0304087D01*
X1187621D02*
Y0300545D01*
X1185260D01*
X1181718D02*
X1184079D01*
X1181718Y0302907D01*
Y0303497D01*
X1182308Y0304087D01*
X1183489D01*
X1184079Y0303497D01*
X1198248Y0294337D02*
Y0290795D01*
X1196477D01*
X1195887Y0291386D01*
Y0293747D01*
X1196477Y0294337D01*
X1198248D01*
X1194706D02*
X1193525D01*
X1194116D01*
Y0290795D01*
X1194706D01*
X1193525D01*
X1189393Y0293747D02*
X1189983Y0294337D01*
X1191164D01*
X1191754Y0293747D01*
Y0293157D01*
X1191164Y0292566D01*
X1189983D01*
X1189393Y0291976D01*
Y0291386D01*
X1189983Y0290795D01*
X1191164D01*
X1191754Y0291386D01*
X1185850Y0290795D02*
X1188212D01*
X1185850Y0293157D01*
Y0293747D01*
X1186441Y0294337D01*
X1187621D01*
X1188212Y0293747D01*
X1195887Y0283247D02*
X1196477Y0283837D01*
X1197658D01*
X1198248Y0283247D01*
Y0282657D01*
X1197658Y0282066D01*
X1196477D01*
X1195887Y0281476D01*
Y0280886D01*
X1196477Y0280295D01*
X1197658D01*
X1198248Y0280886D01*
X1194706Y0283837D02*
Y0280295D01*
X1192935D01*
X1192344Y0280886D01*
Y0283247D01*
X1192935Y0283837D01*
X1194706D01*
X1191164Y0280295D02*
Y0282657D01*
X1189983Y0283837D01*
X1188802Y0282657D01*
Y0280295D01*
Y0282066D01*
X1191164D01*
X1185260Y0280295D02*
X1187621D01*
X1185260Y0282657D01*
Y0283247D01*
X1185850Y0283837D01*
X1187031D01*
X1187621Y0283247D01*
X1195887Y0273247D02*
X1196477Y0273837D01*
X1197658D01*
X1198248Y0273247D01*
Y0272657D01*
X1197658Y0272066D01*
X1196477D01*
X1195887Y0271476D01*
Y0270886D01*
X1196477Y0270295D01*
X1197658D01*
X1198248Y0270886D01*
X1192344Y0273247D02*
X1192935Y0273837D01*
X1194116D01*
X1194706Y0273247D01*
Y0270886D01*
X1194116Y0270295D01*
X1192935D01*
X1192344Y0270886D01*
X1191164Y0273837D02*
Y0270295D01*
X1188802D01*
X1185260D02*
X1187621D01*
X1185260Y0272657D01*
Y0273247D01*
X1185850Y0273837D01*
X1187031D01*
X1187621Y0273247D01*
X1198248Y0243337D02*
Y0239795D01*
X1195887D01*
X1192935Y0243337D02*
X1194116D01*
X1194706Y0242747D01*
Y0240386D01*
X1194116Y0239795D01*
X1192935D01*
X1192344Y0240386D01*
Y0242747D01*
X1192935Y0243337D01*
X1188802Y0242747D02*
X1189393Y0243337D01*
X1190573D01*
X1191164Y0242747D01*
Y0242157D01*
X1190573Y0241566D01*
X1189393D01*
X1188802Y0240976D01*
Y0240386D01*
X1189393Y0239795D01*
X1190573D01*
X1191164Y0240386D01*
X1185260Y0239795D02*
X1187621D01*
X1185260Y0242157D01*
Y0242747D01*
X1185850Y0243337D01*
X1187031D01*
X1187621Y0242747D01*
X1198248Y0250045D02*
Y0253587D01*
X1196477D01*
X1195887Y0252997D01*
Y0251816D01*
X1196477Y0251226D01*
X1198248D01*
X1197067D02*
X1195887Y0250045D01*
X1194706Y0249455D02*
X1192344D01*
X1188802Y0252997D02*
X1189393Y0253587D01*
X1190573D01*
X1191164Y0252997D01*
Y0252407D01*
X1190573Y0251816D01*
X1189393D01*
X1188802Y0251226D01*
Y0250636D01*
X1189393Y0250045D01*
X1190573D01*
X1191164Y0250636D01*
X1185260Y0253587D02*
X1187621D01*
Y0250045D01*
X1185260D01*
X1187621Y0251816D02*
X1186441D01*
X1184079Y0253587D02*
Y0250045D01*
X1181718D01*
X1178176D02*
X1180537D01*
X1178176Y0252407D01*
Y0252997D01*
X1178766Y0253587D01*
X1179947D01*
X1180537Y0252997D01*
X1198248Y0264337D02*
Y0260795D01*
X1196477D01*
X1195887Y0261386D01*
Y0263747D01*
X1196477Y0264337D01*
X1198248D01*
X1192344D02*
X1194706D01*
Y0260795D01*
X1192344D01*
X1194706Y0262566D02*
X1193525D01*
X1188802Y0264337D02*
X1191164D01*
Y0262566D01*
X1189983D01*
X1191164D01*
Y0260795D01*
X1187621Y0263747D02*
X1187031Y0264337D01*
X1185850D01*
X1185260Y0263747D01*
Y0261386D01*
X1185850Y0260795D01*
X1187031D01*
X1187621Y0261386D01*
Y0263747D01*
X1184079Y0260205D02*
X1181718D01*
X1178176Y0260795D02*
X1180537D01*
X1178176Y0263157D01*
Y0263747D01*
X1178766Y0264337D01*
X1179947D01*
X1180537Y0263747D01*
X1171137D02*
X1171727Y0264337D01*
X1172908D01*
X1173498Y0263747D01*
Y0263157D01*
X1172908Y0262566D01*
X1171727D01*
X1171137Y0261976D01*
Y0261386D01*
X1171727Y0260795D01*
X1172908D01*
X1173498Y0261386D01*
X1169956Y0264337D02*
Y0260795D01*
X1168185D01*
X1167594Y0261386D01*
Y0263747D01*
X1168185Y0264337D01*
X1169956D01*
X1166414Y0260795D02*
Y0263157D01*
X1165233Y0264337D01*
X1164052Y0263157D01*
Y0260795D01*
Y0262566D01*
X1166414D01*
X1162871Y0260795D02*
X1161691D01*
X1162281D01*
Y0264337D01*
X1162871Y0263747D01*
X1173498Y0253587D02*
Y0250045D01*
X1171727D01*
X1171137Y0250636D01*
Y0252997D01*
X1171727Y0253587D01*
X1173498D01*
X1169956D02*
X1168775D01*
X1169366D01*
Y0250045D01*
X1169956D01*
X1168775D01*
X1164643Y0252997D02*
X1165233Y0253587D01*
X1166414D01*
X1167004Y0252997D01*
Y0252407D01*
X1166414Y0251816D01*
X1165233D01*
X1164643Y0251226D01*
Y0250636D01*
X1165233Y0250045D01*
X1166414D01*
X1167004Y0250636D01*
X1163462Y0249455D02*
X1161100D01*
X1159920Y0250045D02*
X1158739D01*
X1159329D01*
Y0253587D01*
X1159920Y0252997D01*
X1171137Y0243337D02*
X1173498D01*
Y0241566D01*
X1172317D01*
X1173498D01*
Y0239795D01*
X1169956D02*
Y0242157D01*
X1168775Y0243337D01*
X1167594Y0242157D01*
Y0239795D01*
Y0241566D01*
X1169956D01*
X1166414Y0243337D02*
Y0240386D01*
X1165823Y0239795D01*
X1164643D01*
X1164052Y0240386D01*
Y0243337D01*
X1162871D02*
Y0239795D01*
X1160510D01*
X1159329D02*
X1158149D01*
X1158739D01*
Y0243337D01*
X1159329Y0242747D01*
X1171137Y0273247D02*
X1171727Y0273837D01*
X1172908D01*
X1173498Y0273247D01*
Y0272657D01*
X1172908Y0272066D01*
X1171727D01*
X1171137Y0271476D01*
Y0270886D01*
X1171727Y0270295D01*
X1172908D01*
X1173498Y0270886D01*
X1167594Y0273247D02*
X1168185Y0273837D01*
X1169366D01*
X1169956Y0273247D01*
Y0270886D01*
X1169366Y0270295D01*
X1168185D01*
X1167594Y0270886D01*
X1166414Y0273837D02*
Y0270295D01*
X1164052D01*
X1162871D02*
X1161691D01*
X1162281D01*
Y0273837D01*
X1162871Y0273247D01*
X1173498Y0283837D02*
Y0280295D01*
X1171727D01*
X1171137Y0280886D01*
Y0283247D01*
X1171727Y0283837D01*
X1173498D01*
X1167594D02*
X1169956D01*
Y0280295D01*
X1167594D01*
X1169956Y0282066D02*
X1168775D01*
X1164052Y0283837D02*
X1166414D01*
Y0282066D01*
X1165233D01*
X1166414D01*
Y0280295D01*
X1162871Y0283247D02*
X1162281Y0283837D01*
X1161100D01*
X1160510Y0283247D01*
Y0280886D01*
X1161100Y0280295D01*
X1162281D01*
X1162871Y0280886D01*
Y0283247D01*
X1159329Y0279705D02*
X1156968D01*
X1155787Y0280295D02*
X1154607D01*
X1155197D01*
Y0283837D01*
X1155787Y0283247D01*
X1173498Y0290795D02*
Y0294337D01*
X1171727D01*
X1171137Y0293747D01*
Y0292566D01*
X1171727Y0291976D01*
X1173498D01*
X1172317D02*
X1171137Y0290795D01*
X1169956Y0290205D02*
X1167594D01*
X1164052Y0293747D02*
X1164643Y0294337D01*
X1165823D01*
X1166414Y0293747D01*
Y0293157D01*
X1165823Y0292566D01*
X1164643D01*
X1164052Y0291976D01*
Y0291386D01*
X1164643Y0290795D01*
X1165823D01*
X1166414Y0291386D01*
X1160510Y0294337D02*
X1162871D01*
Y0290795D01*
X1160510D01*
X1162871Y0292566D02*
X1161691D01*
X1159329Y0294337D02*
Y0290795D01*
X1156968D01*
X1155787D02*
X1154607D01*
X1155197D01*
Y0294337D01*
X1155787Y0293747D01*
X1173498Y0304087D02*
Y0300545D01*
X1171137D01*
X1168185Y0304087D02*
X1169366D01*
X1169956Y0303497D01*
Y0301136D01*
X1169366Y0300545D01*
X1168185D01*
X1167594Y0301136D01*
Y0303497D01*
X1168185Y0304087D01*
X1164052Y0303497D02*
X1164643Y0304087D01*
X1165823D01*
X1166414Y0303497D01*
Y0302907D01*
X1165823Y0302316D01*
X1164643D01*
X1164052Y0301726D01*
Y0301136D01*
X1164643Y0300545D01*
X1165823D01*
X1166414Y0301136D01*
X1162871Y0300545D02*
X1161691D01*
X1162281D01*
Y0304087D01*
X1162871Y0303497D01*
X1173498Y0314837D02*
Y0312476D01*
X1172317Y0311295D01*
X1171137Y0312476D01*
Y0314837D01*
X1169956Y0311295D02*
Y0314837D01*
X1168185D01*
X1167594Y0314247D01*
Y0313066D01*
X1168185Y0312476D01*
X1169956D01*
X1168775D02*
X1167594Y0311295D01*
X1166414D02*
X1165233D01*
X1165823D01*
Y0314837D01*
X1166414Y0314247D01*
X1173498Y0324837D02*
Y0322476D01*
X1172317Y0321295D01*
X1171137Y0322476D01*
Y0324837D01*
X1169956Y0321295D02*
Y0324837D01*
X1168185D01*
X1167594Y0324247D01*
Y0323066D01*
X1168185Y0322476D01*
X1169956D01*
X1168775D02*
X1167594Y0321295D01*
X1164052D02*
X1166414D01*
X1164052Y0323657D01*
Y0324247D01*
X1164643Y0324837D01*
X1165823D01*
X1166414Y0324247D01*
X0841171Y0141723D02*
Y0139362D01*
X0839991Y0138181D01*
X0838810Y0139362D01*
Y0141723D01*
X0835268Y0141133D02*
X0835858Y0141723D01*
X0837039D01*
X0837629Y0141133D01*
Y0138771D01*
X0837039Y0138181D01*
X0835858D01*
X0835268Y0138771D01*
X0831726Y0141133D02*
X0832316Y0141723D01*
X0833497D01*
X0834087Y0141133D01*
Y0138771D01*
X0833497Y0138181D01*
X0832316D01*
X0831726Y0138771D01*
X0828171Y0141723D02*
X0826991D01*
X0827581D01*
Y0138181D01*
X0828171D01*
X0826991D01*
X0823448Y0141723D02*
X0824629D01*
X0825219Y0141133D01*
Y0138771D01*
X0824629Y0138181D01*
X0823448D01*
X0822858Y0138771D01*
Y0141133D01*
X0823448Y0141723D01*
X0815774Y0141133D02*
X0816364Y0141723D01*
X0817545D01*
X0818135Y0141133D01*
Y0138771D01*
X0817545Y0138181D01*
X0816364D01*
X0815774Y0138771D01*
Y0139952D01*
X0816954D01*
X0814593Y0138181D02*
Y0141723D01*
X0812232Y0138181D01*
Y0141723D01*
X0811051D02*
Y0138181D01*
X0809280D01*
X0808689Y0138771D01*
Y0141133D01*
X0809280Y0141723D01*
X0811051D01*
X0840111Y0114798D02*
X0841292D01*
X0841882Y0114208D01*
Y0111846D01*
X0841292Y0111256D01*
X0840111D01*
X0839520Y0111846D01*
Y0114208D01*
X0840111Y0114798D01*
X0838340Y0111256D02*
Y0114798D01*
X0835978Y0111256D01*
Y0114798D01*
X0825942Y0111256D02*
X0827713Y0113027D01*
X0825942Y0114798D01*
X0824171Y0111256D02*
X0822400Y0113027D01*
X0824171Y0114798D01*
X0815906D02*
X0817087D01*
X0817677Y0114208D01*
Y0111846D01*
X0817087Y0111256D01*
X0815906D01*
X0815316Y0111846D01*
Y0114208D01*
X0815906Y0114798D01*
X0811773D02*
X0814135D01*
Y0113027D01*
X0812954D01*
X0814135D01*
Y0111256D01*
X0808231Y0114798D02*
X0810593D01*
Y0113027D01*
X0809412D01*
X0810593D01*
Y0111256D01*
X0800052Y0114404D02*
X0800642Y0114995D01*
X0801823D01*
X0802413Y0114404D01*
Y0112043D01*
X0801823Y0111453D01*
X0800642D01*
X0800052Y0112043D01*
X0798871Y0111453D02*
Y0113814D01*
X0797690Y0114995D01*
X0796510Y0113814D01*
Y0111453D01*
Y0113224D01*
X0798871D01*
X0795329Y0111453D02*
Y0114995D01*
X0794148Y0113814D01*
X0792968Y0114995D01*
Y0111453D01*
X0789425Y0114995D02*
X0791787D01*
Y0111453D01*
X0789425D01*
X0791787Y0113224D02*
X0790606D01*
X0788245Y0111453D02*
Y0114995D01*
X0786474D01*
X0785883Y0114404D01*
Y0113224D01*
X0786474Y0112633D01*
X0788245D01*
X0787064D02*
X0785883Y0111453D01*
X0784702D02*
Y0113814D01*
X0783522Y0114995D01*
X0782341Y0113814D01*
Y0111453D01*
Y0113224D01*
X0784702D01*
X0777618Y0111453D02*
Y0114995D01*
X0775847D01*
X0775257Y0114404D01*
Y0113224D01*
X0775847Y0112633D01*
X0777618D01*
X0774076Y0114995D02*
Y0111453D01*
X0772895Y0112633D01*
X0771715Y0111453D01*
Y0114995D01*
X0770534Y0111453D02*
Y0114995D01*
X0768763D01*
X0768173Y0114404D01*
Y0113224D01*
X0768763Y0112633D01*
X0770534D01*
X0769353D02*
X0768173Y0111453D01*
X0630357Y0325424D02*
X0630947Y0326015D01*
X0632128D01*
X0632719Y0325424D01*
Y0324834D01*
X0632128Y0324243D01*
X0630947D01*
X0630357Y0323653D01*
Y0323063D01*
X0630947Y0322472D01*
X0632128D01*
X0632719Y0323063D01*
X0629176Y0326015D02*
Y0322472D01*
X0627405D01*
X0626815Y0323063D01*
Y0325424D01*
X0627405Y0326015D01*
X0629176D01*
X0625634Y0322472D02*
Y0324834D01*
X0624453Y0326015D01*
X0623273Y0324834D01*
Y0322472D01*
Y0324243D01*
X0625634D01*
X0632719Y0312472D02*
Y0316015D01*
X0630357Y0312472D01*
Y0316015D01*
X0626815Y0315424D02*
X0627405Y0316015D01*
X0628586D01*
X0629176Y0315424D01*
Y0313063D01*
X0628586Y0312472D01*
X0627405D01*
X0626815Y0313063D01*
X0632719Y0301722D02*
Y0305265D01*
X0630357Y0301722D01*
Y0305265D01*
X0626815Y0304674D02*
X0627405Y0305265D01*
X0628586D01*
X0629176Y0304674D01*
Y0302313D01*
X0628586Y0301722D01*
X0627405D01*
X0626815Y0302313D01*
X0632719Y0291972D02*
Y0295515D01*
X0630357Y0291972D01*
Y0295515D01*
X0626815Y0294924D02*
X0627405Y0295515D01*
X0628586D01*
X0629176Y0294924D01*
Y0292563D01*
X0628586Y0291972D01*
X0627405D01*
X0626815Y0292563D01*
X0632719Y0281472D02*
Y0285015D01*
X0630357Y0281472D01*
Y0285015D01*
X0626815Y0284424D02*
X0627405Y0285015D01*
X0628586D01*
X0629176Y0284424D01*
Y0282063D01*
X0628586Y0281472D01*
X0627405D01*
X0626815Y0282063D01*
X0630357Y0274424D02*
X0630947Y0275015D01*
X0632128D01*
X0632719Y0274424D01*
Y0272063D01*
X0632128Y0271472D01*
X0630947D01*
X0630357Y0272063D01*
Y0273243D01*
X0631538D01*
X0629176Y0271472D02*
Y0275015D01*
X0626815Y0271472D01*
Y0275015D01*
X0625634D02*
Y0271472D01*
X0623863D01*
X0623273Y0272063D01*
Y0274424D01*
X0623863Y0275015D01*
X0625634D01*
X0632719Y0244515D02*
X0631538D01*
X0632128D01*
Y0240972D01*
X0632719D01*
X0631538D01*
X0627996Y0244515D02*
X0629176D01*
X0629767Y0243924D01*
Y0241563D01*
X0629176Y0240972D01*
X0627996D01*
X0627405Y0241563D01*
Y0243924D01*
X0627996Y0244515D01*
X0632719Y0254765D02*
X0631538D01*
X0632128D01*
Y0251222D01*
X0632719D01*
X0631538D01*
X0627996Y0254765D02*
X0629176D01*
X0629767Y0254174D01*
Y0251813D01*
X0629176Y0251222D01*
X0627996D01*
X0627405Y0251813D01*
Y0254174D01*
X0627996Y0254765D01*
X0632719Y0232515D02*
X0631538D01*
X0632128D01*
Y0228972D01*
X0632719D01*
X0631538D01*
X0627996Y0232515D02*
X0629176D01*
X0629767Y0231924D01*
Y0229563D01*
X0629176Y0228972D01*
X0627996D01*
X0627405Y0229563D01*
Y0231924D01*
X0627996Y0232515D01*
X0632719Y0219222D02*
Y0222765D01*
X0630357Y0219222D01*
Y0222765D01*
X0626815Y0222174D02*
X0627405Y0222765D01*
X0628586D01*
X0629176Y0222174D01*
Y0219813D01*
X0628586Y0219222D01*
X0627405D01*
X0626815Y0219813D01*
X0632719Y0209722D02*
Y0213265D01*
X0630947D01*
X0630357Y0212674D01*
Y0211493D01*
X0630947Y0210903D01*
X0632719D01*
X0631538D02*
X0630357Y0209722D01*
X0629176Y0213265D02*
X0626815Y0209722D01*
Y0213265D02*
X0629176Y0209722D01*
X0625634D02*
X0624453D01*
X0625044D01*
Y0213265D01*
X0625634Y0212674D01*
X0630357Y0201674D02*
X0630947Y0202265D01*
X0632128D01*
X0632719Y0201674D01*
Y0199313D01*
X0632128Y0198722D01*
X0630947D01*
X0630357Y0199313D01*
Y0200494D01*
X0631538D01*
X0629176Y0198722D02*
Y0202265D01*
X0626815Y0198722D01*
Y0202265D01*
X0625634D02*
Y0198722D01*
X0623863D01*
X0623273Y0199313D01*
Y0201674D01*
X0623863Y0202265D01*
X0625634D01*
X0632719Y0193015D02*
Y0189472D01*
X0630947D01*
X0630357Y0190063D01*
Y0192424D01*
X0630947Y0193015D01*
X0632719D01*
X0629176Y0191244D02*
X0626815D01*
X0627996Y0192424D02*
Y0190063D01*
X0630357Y0184015D02*
X0632719D01*
Y0182244D01*
X0631538Y0182834D01*
X0630947D01*
X0630357Y0182244D01*
Y0181063D01*
X0630947Y0180472D01*
X0632128D01*
X0632719Y0181063D01*
X0629176Y0184015D02*
Y0181653D01*
X0627996Y0180472D01*
X0626815Y0181653D01*
Y0184015D01*
X0632719Y0261972D02*
Y0265515D01*
X0630947D01*
X0630357Y0264924D01*
Y0263743D01*
X0630947Y0263153D01*
X0632719D01*
X0631538D02*
X0630357Y0261972D01*
X0629176Y0265515D02*
X0626815Y0261972D01*
Y0265515D02*
X0629176Y0261972D01*
X0625634Y0264924D02*
X0625044Y0265515D01*
X0623863D01*
X0623273Y0264924D01*
Y0262563D01*
X0623863Y0261972D01*
X0625044D01*
X0625634Y0262563D01*
Y0264924D01*
X0649968Y0265515D02*
X0647607D01*
X0648788D01*
Y0261972D01*
X0646426Y0265515D02*
X0644065Y0261972D01*
Y0265515D02*
X0646426Y0261972D01*
X0642884Y0264924D02*
X0642294Y0265515D01*
X0641113D01*
X0640523Y0264924D01*
Y0262563D01*
X0641113Y0261972D01*
X0642294D01*
X0642884Y0262563D01*
Y0264924D01*
X0647607Y0184015D02*
X0649968D01*
Y0182244D01*
X0648788Y0182834D01*
X0648197D01*
X0647607Y0182244D01*
Y0181063D01*
X0648197Y0180472D01*
X0649378D01*
X0649968Y0181063D01*
X0646426Y0184015D02*
Y0181653D01*
X0645246Y0180472D01*
X0644065Y0181653D01*
Y0184015D01*
X0649968Y0193015D02*
Y0189472D01*
X0648197D01*
X0647607Y0190063D01*
Y0192424D01*
X0648197Y0193015D01*
X0649968D01*
X0646426Y0191244D02*
X0644065D01*
X0647607Y0201674D02*
X0648197Y0202265D01*
X0649378D01*
X0649968Y0201674D01*
Y0199313D01*
X0649378Y0198722D01*
X0648197D01*
X0647607Y0199313D01*
Y0200494D01*
X0648788D01*
X0646426Y0198722D02*
Y0202265D01*
X0644065Y0198722D01*
Y0202265D01*
X0642884D02*
Y0198722D01*
X0641113D01*
X0640523Y0199313D01*
Y0201674D01*
X0641113Y0202265D01*
X0642884D01*
X0649968Y0213265D02*
X0647607D01*
X0648788D01*
Y0209722D01*
X0646426Y0213265D02*
X0644065Y0209722D01*
Y0213265D02*
X0646426Y0209722D01*
X0642884D02*
X0641703D01*
X0642294D01*
Y0213265D01*
X0642884Y0212674D01*
X0649968Y0219222D02*
Y0222765D01*
X0647607Y0219222D01*
Y0222765D01*
X0644065Y0222174D02*
X0644655Y0222765D01*
X0645836D01*
X0646426Y0222174D01*
Y0219813D01*
X0645836Y0219222D01*
X0644655D01*
X0644065Y0219813D01*
X0649968Y0232515D02*
X0648788D01*
X0649378D01*
Y0228972D01*
X0649968D01*
X0648788D01*
X0645246Y0232515D02*
X0646426D01*
X0647017Y0231924D01*
Y0229563D01*
X0646426Y0228972D01*
X0645246D01*
X0644655Y0229563D01*
Y0231924D01*
X0645246Y0232515D01*
X0649968Y0254174D02*
X0649378Y0254765D01*
X0648197D01*
X0647607Y0254174D01*
Y0253584D01*
X0648197Y0252993D01*
X0648788D01*
X0648197D01*
X0647607Y0252403D01*
Y0251813D01*
X0648197Y0251222D01*
X0649378D01*
X0649968Y0251813D01*
X0646426Y0254765D02*
Y0252403D01*
X0645246Y0251222D01*
X0644065Y0252403D01*
Y0254765D01*
X0642884Y0254174D02*
X0642294Y0254765D01*
X0641113D01*
X0640523Y0254174D01*
Y0253584D01*
X0641113Y0252993D01*
X0641703D01*
X0641113D01*
X0640523Y0252403D01*
Y0251813D01*
X0641113Y0251222D01*
X0642294D01*
X0642884Y0251813D01*
X0649968Y0240972D02*
Y0244515D01*
X0647607Y0240972D01*
Y0244515D01*
X0644065Y0243924D02*
X0644655Y0244515D01*
X0645836D01*
X0646426Y0243924D01*
Y0241563D01*
X0645836Y0240972D01*
X0644655D01*
X0644065Y0241563D01*
X0647607Y0274424D02*
X0648197Y0275015D01*
X0649378D01*
X0649968Y0274424D01*
Y0272063D01*
X0649378Y0271472D01*
X0648197D01*
X0647607Y0272063D01*
Y0273243D01*
X0648788D01*
X0646426Y0271472D02*
Y0275015D01*
X0644065Y0271472D01*
Y0275015D01*
X0642884D02*
Y0271472D01*
X0641113D01*
X0640523Y0272063D01*
Y0274424D01*
X0641113Y0275015D01*
X0642884D01*
X0649968Y0281472D02*
Y0285015D01*
X0647607Y0281472D01*
Y0285015D01*
X0644065Y0284424D02*
X0644655Y0285015D01*
X0645836D01*
X0646426Y0284424D01*
Y0282063D01*
X0645836Y0281472D01*
X0644655D01*
X0644065Y0282063D01*
X0649968Y0291972D02*
Y0295515D01*
X0647607Y0291972D01*
Y0295515D01*
X0644065Y0294924D02*
X0644655Y0295515D01*
X0645836D01*
X0646426Y0294924D01*
Y0292563D01*
X0645836Y0291972D01*
X0644655D01*
X0644065Y0292563D01*
X0649968Y0301722D02*
Y0305265D01*
X0647607Y0301722D01*
Y0305265D01*
X0644065Y0304674D02*
X0644655Y0305265D01*
X0645836D01*
X0646426Y0304674D01*
Y0302313D01*
X0645836Y0301722D01*
X0644655D01*
X0644065Y0302313D01*
X0649968Y0312472D02*
Y0316015D01*
X0647607Y0312472D01*
Y0316015D01*
X0644065Y0315424D02*
X0644655Y0316015D01*
X0645836D01*
X0646426Y0315424D01*
Y0313063D01*
X0645836Y0312472D01*
X0644655D01*
X0644065Y0313063D01*
X0647607Y0325424D02*
X0648197Y0326015D01*
X0649378D01*
X0649968Y0325424D01*
Y0324834D01*
X0649378Y0324243D01*
X0648197D01*
X0647607Y0323653D01*
Y0323063D01*
X0648197Y0322472D01*
X0649378D01*
X0649968Y0323063D01*
X0644065Y0325424D02*
X0644655Y0326015D01*
X0645836D01*
X0646426Y0325424D01*
Y0323063D01*
X0645836Y0322472D01*
X0644655D01*
X0644065Y0323063D01*
X0642884Y0326015D02*
Y0322472D01*
X0640523D01*
X0745917Y0376413D02*
X0746507Y0375822D01*
Y0374641D01*
X0745917Y0374051D01*
X0745327D01*
X0744736Y0374641D01*
Y0375822D01*
X0744146Y0376413D01*
X0743555D01*
X0742965Y0375822D01*
Y0374641D01*
X0743555Y0374051D01*
X0746507Y0377593D02*
X0742965D01*
Y0379364D01*
X0743555Y0379955D01*
X0744146D01*
X0744736Y0379364D01*
Y0377593D01*
Y0379364D01*
X0745327Y0379955D01*
X0745917D01*
X0746507Y0379364D01*
Y0377593D01*
Y0383497D02*
X0745917Y0382316D01*
X0744736Y0381135D01*
X0743555D01*
X0742965Y0381726D01*
Y0382907D01*
X0743555Y0383497D01*
X0744146D01*
X0744736Y0382907D01*
Y0381135D01*
X0745917Y0359877D02*
X0746507Y0359287D01*
Y0358106D01*
X0745917Y0357516D01*
X0745327D01*
X0744736Y0358106D01*
Y0359287D01*
X0744146Y0359877D01*
X0743555D01*
X0742965Y0359287D01*
Y0358106D01*
X0743555Y0357516D01*
X0746507Y0361058D02*
X0742965D01*
Y0362829D01*
X0743555Y0363419D01*
X0744146D01*
X0744736Y0362829D01*
Y0361058D01*
Y0362829D01*
X0745327Y0363419D01*
X0745917D01*
X0746507Y0362829D01*
Y0361058D01*
Y0366962D02*
Y0364600D01*
X0744736D01*
X0745327Y0365781D01*
Y0366371D01*
X0744736Y0366962D01*
X0743555D01*
X0742965Y0366371D01*
Y0365190D01*
X0743555Y0364600D01*
X0745917Y0344129D02*
X0746507Y0343539D01*
Y0342358D01*
X0745917Y0341768D01*
X0745327D01*
X0744736Y0342358D01*
Y0343539D01*
X0744146Y0344129D01*
X0743555D01*
X0742965Y0343539D01*
Y0342358D01*
X0743555Y0341768D01*
X0746507Y0345310D02*
X0742965D01*
Y0347081D01*
X0743555Y0347671D01*
X0744146D01*
X0744736Y0347081D01*
Y0345310D01*
Y0347081D01*
X0745327Y0347671D01*
X0745917D01*
X0746507Y0347081D01*
Y0345310D01*
X0742965Y0350623D02*
X0746507D01*
X0744736Y0348852D01*
Y0351213D01*
X0739618Y0376413D02*
X0740208Y0375822D01*
Y0374641D01*
X0739618Y0374051D01*
X0739027D01*
X0738437Y0374641D01*
Y0375822D01*
X0737847Y0376413D01*
X0737256D01*
X0736666Y0375822D01*
Y0374641D01*
X0737256Y0374051D01*
X0740208Y0377593D02*
X0736666D01*
Y0379364D01*
X0737256Y0379955D01*
X0737847D01*
X0738437Y0379364D01*
Y0377593D01*
Y0379364D01*
X0739027Y0379955D01*
X0739618D01*
X0740208Y0379364D01*
Y0377593D01*
X0739618Y0381136D02*
X0740208Y0381726D01*
Y0382907D01*
X0739618Y0383497D01*
X0739027D01*
X0738437Y0382907D01*
Y0382316D01*
Y0382907D01*
X0737847Y0383497D01*
X0737256D01*
X0736666Y0382907D01*
Y0381726D01*
X0737256Y0381136D01*
X0739618Y0359877D02*
X0740208Y0359287D01*
Y0358106D01*
X0739618Y0357516D01*
X0739027D01*
X0738437Y0358106D01*
Y0359287D01*
X0737847Y0359877D01*
X0737256D01*
X0736666Y0359287D01*
Y0358106D01*
X0737256Y0357516D01*
X0740208Y0361058D02*
X0736666D01*
Y0362829D01*
X0737256Y0363419D01*
X0737847D01*
X0738437Y0362829D01*
Y0361058D01*
Y0362829D01*
X0739027Y0363419D01*
X0739618D01*
X0740208Y0362829D01*
Y0361058D01*
X0736666Y0366962D02*
Y0364600D01*
X0739027Y0366962D01*
X0739618D01*
X0740208Y0366371D01*
Y0365190D01*
X0739618Y0364600D01*
X0739618Y0344129D02*
X0740208Y0343539D01*
Y0342358D01*
X0739618Y0341768D01*
X0739027D01*
X0738437Y0342358D01*
Y0343539D01*
X0737847Y0344129D01*
X0737256D01*
X0736666Y0343539D01*
Y0342358D01*
X0737256Y0341768D01*
X0740208Y0345310D02*
X0736666D01*
Y0347081D01*
X0737256Y0347671D01*
X0737847D01*
X0738437Y0347081D01*
Y0345310D01*
Y0347081D01*
X0739027Y0347671D01*
X0739618D01*
X0740208Y0347081D01*
Y0345310D01*
X0736666Y0348852D02*
Y0350033D01*
Y0349442D01*
X0740208D01*
X0739618Y0348852D01*
D12*
X1208319Y0345705D02*
G03*
X1208319Y0345705I-0009646J0000000D01*
G01*
X0609894Y0121295D02*
G03*
X0609894Y0121295I-0009646J0000000D01*
G01*
X1208319D02*
G03*
X1208319Y0121295I-0009646J0000000D01*
G01*
X0609894Y0345705D02*
G03*
X0609894Y0345705I-0009646J0000000D01*
G01*
D13*
X0801921Y0130525D02*
Y0136429D01*
X0798969D01*
X0797986Y0135445D01*
Y0133477D01*
X0798969Y0132493D01*
X0801921D01*
X0796018Y0136429D02*
Y0130525D01*
X0794050Y0132493D01*
X0792082Y0130525D01*
Y0136429D01*
X0790114Y0130525D02*
Y0136429D01*
X0787162D01*
X0786178Y0135445D01*
Y0133477D01*
X0787162Y0132493D01*
X0790114D01*
X0788146D02*
X0786178Y0130525D01*
X0801921Y0126510D02*
Y0120606D01*
X0797986D01*
X0792082Y0126510D02*
X0796018D01*
Y0120606D01*
X0792082D01*
X0796018Y0123558D02*
X0794050D01*
X0790114Y0126510D02*
Y0120606D01*
X0787162D01*
X0786178Y0121590D01*
Y0125526D01*
X0787162Y0126510D01*
X0790114D01*
X1205147Y0323178D02*
X1204163Y0324162D01*
Y0326130D01*
X1205147Y0327114D01*
X1206131D01*
X1207115Y0326130D01*
Y0324162D01*
X1208099Y0323178D01*
X1209083D01*
X1210067Y0324162D01*
Y0326130D01*
X1209083Y0327114D01*
X1204163Y0317275D02*
Y0321211D01*
X1207115D01*
Y0319243D01*
Y0321211D01*
X1210067D01*
Y0315307D02*
X1204163D01*
Y0312355D01*
X1205147Y0311371D01*
X1207115D01*
X1208099Y0312355D01*
Y0315307D01*
X1204163Y0303500D02*
Y0301532D01*
Y0302516D01*
X1210067D01*
Y0303500D01*
Y0301532D01*
X1204163Y0295628D02*
Y0297596D01*
X1205147Y0298580D01*
X1209083D01*
X1210067Y0297596D01*
Y0295628D01*
X1209083Y0294644D01*
X1205147D01*
X1204163Y0295628D01*
X1205147Y0282837D02*
X1204163Y0283821D01*
Y0285789D01*
X1205147Y0286773D01*
X1209083D01*
X1210067Y0285789D01*
Y0283821D01*
X1209083Y0282837D01*
X1204163Y0277918D02*
Y0279885D01*
X1205147Y0280869D01*
X1209083D01*
X1210067Y0279885D01*
Y0277918D01*
X1209083Y0276934D01*
X1205147D01*
X1204163Y0277918D01*
X1210067Y0274966D02*
X1204163D01*
X1210067Y0271030D01*
X1204163D01*
X1210067Y0269062D02*
X1204163D01*
X1210067Y0265126D01*
X1204163D01*
Y0259223D02*
Y0263158D01*
X1210067D01*
Y0259223D01*
X1207115Y0263158D02*
Y0261191D01*
X1205147Y0253319D02*
X1204163Y0254303D01*
Y0256271D01*
X1205147Y0257255D01*
X1209083D01*
X1210067Y0256271D01*
Y0254303D01*
X1209083Y0253319D01*
X1204163Y0251351D02*
Y0247415D01*
Y0249383D01*
X1210067D01*
X1204163Y0242496D02*
Y0244464D01*
X1205147Y0245448D01*
X1209083D01*
X1210067Y0244464D01*
Y0242496D01*
X1209083Y0241512D01*
X1205147D01*
X1204163Y0242496D01*
X1210067Y0239544D02*
X1204163D01*
Y0236592D01*
X1205147Y0235608D01*
X1207115D01*
X1208099Y0236592D01*
Y0239544D01*
Y0237576D02*
X1210067Y0235608D01*
X0659634Y0281541D02*
Y0279573D01*
Y0280557D01*
X0665537D01*
Y0281541D01*
Y0279573D01*
X0659634Y0273670D02*
Y0275638D01*
X0660618Y0276622D01*
X0664553D01*
X0665537Y0275638D01*
Y0273670D01*
X0664553Y0272686D01*
X0660618D01*
X0659634Y0273670D01*
X0660618Y0260879D02*
X0659634Y0261863D01*
Y0263830D01*
X0660618Y0264814D01*
X0664553D01*
X0665537Y0263830D01*
Y0261863D01*
X0664553Y0260879D01*
X0659634Y0255959D02*
Y0257927D01*
X0660618Y0258911D01*
X0664553D01*
X0665537Y0257927D01*
Y0255959D01*
X0664553Y0254975D01*
X0660618D01*
X0659634Y0255959D01*
X0665537Y0253007D02*
X0659634D01*
X0665537Y0249072D01*
X0659634D01*
X0665537Y0247104D02*
X0659634D01*
X0665537Y0243168D01*
X0659634D01*
Y0237264D02*
Y0241200D01*
X0665537D01*
Y0237264D01*
X0662586Y0241200D02*
Y0239232D01*
X0660618Y0231361D02*
X0659634Y0232345D01*
Y0234313D01*
X0660618Y0235296D01*
X0664553D01*
X0665537Y0234313D01*
Y0232345D01*
X0664553Y0231361D01*
X0659634Y0229393D02*
Y0225457D01*
Y0227425D01*
X0665537D01*
X0659634Y0220537D02*
Y0222505D01*
X0660618Y0223489D01*
X0664553D01*
X0665537Y0222505D01*
Y0220537D01*
X0664553Y0219553D01*
X0660618D01*
X0659634Y0220537D01*
X0665537Y0217586D02*
X0659634D01*
Y0214634D01*
X0660618Y0213650D01*
X0662586D01*
X0663569Y0214634D01*
Y0217586D01*
Y0215618D02*
X0665537Y0213650D01*
X0598898Y0166710D02*
X0592994D01*
X0594962Y0164743D01*
X0592994Y0162775D01*
X0598898D01*
X0592994Y0157855D02*
Y0159823D01*
X0593978Y0160807D01*
X0597914D01*
X0598898Y0159823D01*
Y0157855D01*
X0597914Y0156871D01*
X0593978D01*
X0592994Y0157855D01*
Y0154903D02*
X0596930D01*
X0598898Y0152936D01*
X0596930Y0150968D01*
X0592994D01*
Y0145064D02*
Y0149000D01*
X0598898D01*
Y0145064D01*
X0595946Y0149000D02*
Y0147032D01*
X0602913Y0172614D02*
X0608817D01*
Y0169662D01*
X0607833Y0168678D01*
X0603897D01*
X0602913Y0169662D01*
Y0172614D01*
X0608817Y0166710D02*
X0602913D01*
Y0163759D01*
X0603897Y0162775D01*
X0605865D01*
X0606849Y0163759D01*
Y0166710D01*
Y0164743D02*
X0608817Y0162775D01*
X0602913Y0160807D02*
Y0158839D01*
Y0159823D01*
X0608817D01*
Y0160807D01*
Y0158839D01*
X0602913Y0155887D02*
X0606849D01*
X0608817Y0153919D01*
X0606849Y0151952D01*
X0602913D01*
Y0146048D02*
Y0149984D01*
X0608817D01*
Y0146048D01*
X0605865Y0149984D02*
Y0148016D01*
X0608817Y0144080D02*
X0602913D01*
Y0141128D01*
X0603897Y0140144D01*
X0605865D01*
X0606849Y0141128D01*
Y0144080D01*
Y0142112D02*
X0608817Y0140144D01*
D16*
X0958311Y0282852D02*
Y0274981D01*
X0954375Y0271045D01*
X0950439Y0274981D01*
Y0282852D01*
X0946504Y0271045D02*
X0942568D01*
X0944536D01*
Y0282852D01*
X0946504Y0280885D01*
X0936664Y0271045D02*
Y0273013D01*
X0934697D01*
Y0271045D01*
X0936664D01*
X0926825Y0280885D02*
X0924857Y0282852D01*
X0920922D01*
X0918954Y0280885D01*
Y0278917D01*
X0920922Y0276949D01*
X0922889D01*
X0920922D01*
X0918954Y0274981D01*
Y0273013D01*
X0920922Y0271045D01*
X0924857D01*
X0926825Y0273013D01*
X0958311Y0303167D02*
Y0297263D01*
X0956343Y0295295D01*
X0954375Y0297263D01*
X0952407Y0295295D01*
X0950439Y0297263D01*
Y0303167D01*
X0946504D02*
Y0297263D01*
X0944536Y0295295D01*
X0942568Y0297263D01*
X0940600Y0295295D01*
X0938632Y0297263D01*
Y0303167D01*
X0934697D02*
Y0297263D01*
X0932729Y0295295D01*
X0930761Y0297263D01*
X0928793Y0295295D01*
X0926825Y0297263D01*
Y0303167D01*
X0922889Y0295295D02*
Y0297263D01*
X0920922D01*
Y0295295D01*
X0922889D01*
X0913050D02*
Y0307102D01*
Y0299231D02*
X0907146Y0303167D01*
X0913050Y0299231D02*
X0907146Y0295295D01*
X0899275D02*
X0895339D01*
X0893371Y0297263D01*
Y0301199D01*
X0895339Y0303167D01*
X0899275D01*
X0901243Y0301199D01*
Y0297263D01*
X0899275Y0295295D01*
X0889436Y0303167D02*
Y0295295D01*
Y0299231D01*
X0887468Y0301199D01*
X0885500Y0303167D01*
X0883532D01*
X0877628D02*
Y0297263D01*
X0875661Y0295295D01*
X0869757D01*
Y0303167D01*
X0865821D02*
X0857950D01*
X0865821Y0295295D01*
X0857950D01*
X0852046Y0303167D02*
X0848110D01*
X0846143Y0301199D01*
Y0295295D01*
X0852046D01*
X0854014Y0297263D01*
X0852046Y0299231D01*
X0846143D01*
X0842207Y0295295D02*
Y0297263D01*
X0840239D01*
Y0295295D01*
X0842207D01*
X0832368D02*
Y0303167D01*
X0826464D01*
X0824496Y0301199D01*
Y0295295D01*
X0814657D02*
X0818592D01*
X0820560Y0297263D01*
Y0301199D01*
X0818592Y0303167D01*
X0814657D01*
X0812689Y0301199D01*
Y0299231D01*
X0820560D01*
X0806785Y0305135D02*
Y0303167D01*
X0808753D01*
X0804817D01*
X0806785D01*
Y0297263D01*
X0804817Y0295295D01*
X0958311Y0315045D02*
Y0334724D01*
Y0321605D02*
X0948472Y0328164D01*
X0958311Y0321605D02*
X0948472Y0315045D01*
X0935353D02*
X0928793D01*
X0925513Y0318325D01*
Y0324885D01*
X0928793Y0328164D01*
X0935353D01*
X0938632Y0324885D01*
Y0318325D01*
X0935353Y0315045D01*
X0918954Y0328164D02*
Y0315045D01*
Y0321605D01*
X0915674Y0324885D01*
X0912394Y0328164D01*
X0909114D01*
X0899275D02*
Y0318325D01*
X0895995Y0315045D01*
X0886156D01*
Y0328164D01*
X0879596D02*
X0866477D01*
X0879596Y0315045D01*
X0866477D01*
X0856638Y0328164D02*
X0850078D01*
X0846799Y0324885D01*
Y0315045D01*
X0856638D01*
X0859918Y0318325D01*
X0856638Y0321605D01*
X0846799D01*
X0807441Y0331444D02*
X0810721Y0334724D01*
X0817280D01*
X0820560Y0331444D01*
Y0318325D01*
X0817280Y0315045D01*
X0810721D01*
X0807441Y0318325D01*
X0800881Y0315045D02*
Y0334724D01*
X0794322Y0328164D01*
X0787762Y0334724D01*
Y0315045D01*
X0761524Y0334724D02*
Y0315045D01*
X0751685D01*
X0748405Y0318325D01*
Y0321605D01*
Y0324885D01*
X0751685Y0328164D01*
X0761524D01*
X0738566Y0315045D02*
X0732006D01*
X0728726Y0318325D01*
Y0324885D01*
X0732006Y0328164D01*
X0738566D01*
X0741846Y0324885D01*
Y0318325D01*
X0738566Y0315045D01*
X0718887Y0328164D02*
X0712327D01*
X0709048Y0324885D01*
Y0315045D01*
X0718887D01*
X0722167Y0318325D01*
X0718887Y0321605D01*
X0709048D01*
X0702488Y0328164D02*
Y0315045D01*
Y0321605D01*
X0699208Y0324885D01*
X0695929Y0328164D01*
X0692649D01*
X0669690Y0334724D02*
Y0315045D01*
X0679530D01*
X0682809Y0318325D01*
Y0324885D01*
X0679530Y0328164D01*
X0669690D01*
X0779998Y0132795D02*
Y0144602D01*
X0772126Y0132795D01*
Y0144602D01*
X0766223Y0132795D02*
X0762287D01*
X0760319Y0134763D01*
Y0138699D01*
X0762287Y0140667D01*
X0766223D01*
X0768191Y0138699D01*
Y0134763D01*
X0766223Y0132795D01*
X0756384D02*
Y0134763D01*
X0754416D01*
Y0132795D01*
X0756384D01*
D18*
X0952248Y0233595D02*
X0952348D01*
X0951448Y0233295D02*
X0951548D01*
X0950448Y0232995D02*
X0950548D01*
X0948348Y0232595D02*
X0948448D01*
X0948148D02*
X0948248D01*
X0947148Y0232495D02*
X0947248D01*
X0947148Y0243795D02*
X0949348D01*
X0946948Y0243695D02*
X0949348D01*
X0947048Y0243595D02*
X0949348D01*
X0946848Y0243495D02*
X0949348D01*
X0946948Y0243395D02*
X0949348D01*
X0946748D02*
X0946848D01*
X0946748Y0243295D02*
X0949348D01*
X0946748Y0243195D02*
X0949348D01*
X0946648Y0243095D02*
X0949348D01*
X0946548Y0242995D02*
X0949348D01*
X0946548Y0242895D02*
X0949348D01*
X0946448Y0242795D02*
X0949348D01*
X0946448Y0249595D02*
X0949348D01*
X0946448Y0249495D02*
X0949348D01*
X0946548Y0249395D02*
X0949348D01*
X0946648Y0249295D02*
X0949348D01*
X0946648Y0249195D02*
X0949348D01*
X0946748Y0249095D02*
X0949348D01*
X0946748Y0248995D02*
X0949348D01*
X0946848Y0248895D02*
X0949348D01*
X0946948Y0248795D02*
X0949348D01*
X0946948Y0248695D02*
X0949348D01*
X0947048Y0248595D02*
X0949348D01*
X0947148Y0248495D02*
X0949348D01*
X0947148Y0248395D02*
X0949348D01*
X0947248Y0248295D02*
X0949348D01*
X0947348Y0248195D02*
X0949348D01*
X0947348Y0248095D02*
X0949348D01*
X0947448Y0247995D02*
X0949348D01*
X0947448Y0247895D02*
X0949348D01*
X0947448Y0247795D02*
X0949348D01*
X0947648Y0247695D02*
X0949348D01*
X0947748Y0247595D02*
X0949348D01*
X0947648Y0247495D02*
X0949348D01*
X0947848Y0247395D02*
X0949348D01*
X0947948Y0247295D02*
X0949348D01*
X0947848Y0247195D02*
X0949348D01*
X0948048Y0247095D02*
X0949348D01*
X0948048Y0246995D02*
X0949348D01*
X0948148Y0246895D02*
X0949348D01*
X0948148Y0246795D02*
X0949348D01*
X0948248Y0246695D02*
X0949348D01*
X0948348Y0246595D02*
X0949348D01*
X0948348Y0246495D02*
X0949348D01*
X0948448Y0246395D02*
X0949348D01*
X0948448Y0246295D02*
X0949348D01*
X0948448Y0246195D02*
X0949348D01*
X0948548Y0246095D02*
X0949348D01*
X0948448Y0245995D02*
X0949348D01*
X0948448Y0245895D02*
X0949348D01*
X0948348Y0245795D02*
X0949348D01*
X0948348Y0245695D02*
X0949348D01*
X0948348Y0245595D02*
X0949348D01*
X0948148Y0245495D02*
X0949348D01*
X0948248Y0245395D02*
X0949348D01*
X0948048D02*
X0948148D01*
Y0245295D02*
X0949348D01*
X0947948Y0245195D02*
X0949348D01*
X0948048Y0245095D02*
X0949348D01*
X0947848D02*
X0947948D01*
X0947848Y0244995D02*
X0949348D01*
X0947748Y0244895D02*
X0949348D01*
X0947748Y0244795D02*
X0949348D01*
X0947648Y0244695D02*
X0949348D01*
X0947548Y0244595D02*
X0949348D01*
X0947648Y0244495D02*
X0949348D01*
X0947448D02*
X0947548D01*
Y0244395D02*
X0949348D01*
X0947448Y0244295D02*
X0949348D01*
X0947348Y0244195D02*
X0949348D01*
X0947248Y0244095D02*
X0949348D01*
X0947248Y0243995D02*
X0949348D01*
X0946948Y0259295D02*
X0947048D01*
X0948148Y0259195D02*
X0948248D01*
X0949148Y0259095D02*
X0949248D01*
X0950848Y0258695D02*
X0950948D01*
X0951748Y0258395D02*
X0951848D01*
X0951648Y0252795D02*
X0951748D01*
X0951448D02*
X0951548D01*
X0951248D02*
X0951348D01*
X0950848D02*
X0950948D01*
X0950648D02*
X0950748D01*
X0950248D02*
X0950348D01*
X0950048D02*
X0950148D01*
X0949648D02*
X0949748D01*
X0943048Y0233095D02*
X0943148D01*
X0944848Y0232695D02*
X0944948D01*
X0945648Y0232595D02*
X0945748D01*
X0943948Y0243695D02*
X0944048D01*
X0942348Y0241295D02*
X0942448D01*
X0945248Y0251295D02*
X0945348D01*
X0945948Y0250195D02*
X0946048D01*
X0944148Y0248395D02*
X0944248D01*
X0944748Y0247495D02*
X0944848D01*
X0945748Y0259195D02*
X0945848D01*
X0944848Y0259095D02*
X0944948D01*
X0943848Y0258895D02*
X0943948D01*
X0944048Y0252795D02*
X0944148D01*
X0943748D02*
X0943948D01*
X0943548D02*
X0943648D01*
X0943248D02*
X0943348D01*
X0942948D02*
X0943148D01*
X0942648D02*
X0942748D01*
X0942148D02*
X0942548D01*
X0941848D02*
X0942048D01*
X0941648D02*
X0941748D01*
X0947148Y0243895D02*
X0949348D01*
X0938248Y0235795D02*
X0955748D01*
X0938348Y0235695D02*
X0955648D01*
X0938448Y0235595D02*
X0955548D01*
X0938648Y0235495D02*
X0955348D01*
X0938648Y0235395D02*
X0955248D01*
X0938848Y0235295D02*
X0955148D01*
X0938948Y0235195D02*
X0955048D01*
X0939148Y0235095D02*
X0954848D01*
X0939348Y0234995D02*
X0954748D01*
X0939348Y0234895D02*
X0954548D01*
X0939548Y0234795D02*
X0954548D01*
X0939648Y0234695D02*
X0954248D01*
X0939848Y0234595D02*
X0954148D01*
X0940048Y0234495D02*
X0953948D01*
X0940148Y0234395D02*
X0953748D01*
X0940348Y0234295D02*
X0953648D01*
X0940548Y0234195D02*
X0953548D01*
X0940748Y0234095D02*
X0953248D01*
X0940848Y0233995D02*
X0953148D01*
X0941048Y0233895D02*
X0952848D01*
X0941348Y0233795D02*
X0952748D01*
X0941548Y0233695D02*
X0952448D01*
X0941748Y0233595D02*
X0952148D01*
X0941948Y0233495D02*
X0952048D01*
X0942248Y0233395D02*
X0951648D01*
X0942548Y0233295D02*
X0951348D01*
X0942848Y0233195D02*
X0951148D01*
X0943248Y0233095D02*
X0950748D01*
X0943548Y0232995D02*
X0950348D01*
X0943948Y0232895D02*
X0950048D01*
X0944348Y0232795D02*
X0949648D01*
X0945048Y0232695D02*
X0948948D01*
X0945948Y0232595D02*
X0948048D01*
X0933848Y0243795D02*
X0944048D01*
X0933748Y0243695D02*
X0943848D01*
X0933848Y0243595D02*
X0943848D01*
X0933848Y0243495D02*
X0943748D01*
X0933848Y0243395D02*
X0943848D01*
X0933848Y0243295D02*
X0943648D01*
X0933948Y0243195D02*
X0943548D01*
X0933948Y0243095D02*
X0943648D01*
X0933948Y0242995D02*
X0943548D01*
X0933948Y0242895D02*
X0943348D01*
X0934048Y0242795D02*
X0943448D01*
X0946348Y0242695D02*
X0949348D01*
X0933948D02*
X0943248D01*
X0946348Y0242595D02*
X0949348D01*
X0934048D02*
X0943248D01*
X0946248Y0242495D02*
X0949348D01*
X0934048D02*
X0943148D01*
X0946148Y0242395D02*
X0949348D01*
X0934148D02*
X0943048D01*
X0946148Y0242295D02*
X0949348D01*
X0934148D02*
X0943048D01*
X0946048Y0242195D02*
X0949348D01*
X0934148D02*
X0942948D01*
X0945948Y0242095D02*
X0949348D01*
X0934248D02*
X0942848D01*
X0946048Y0241995D02*
X0949348D01*
X0934148D02*
X0942848D01*
X0945848Y0241895D02*
X0949348D01*
X0934248D02*
X0942748D01*
X0945848Y0241795D02*
X0949348D01*
X0934248D02*
X0942748D01*
X0945748Y0241695D02*
X0949348D01*
X0934348D02*
X0942548D01*
X0945648Y0241595D02*
X0949348D01*
X0934348D02*
X0942648D01*
X0945548Y0241495D02*
X0949348D01*
X0934448D02*
X0942448D01*
X0945548Y0241395D02*
X0949348D01*
X0934448D02*
X0942448D01*
X0945548Y0241295D02*
X0949348D01*
X0934448D02*
X0942248D01*
X0945348Y0241195D02*
X0949348D01*
X0934548D02*
X0942248D01*
X0945348Y0241095D02*
X0949348D01*
X0934448D02*
X0942248D01*
X0945348Y0240995D02*
X0949348D01*
X0934548D02*
X0942148D01*
X0945148Y0240895D02*
X0949348D01*
X0934648D02*
X0942148D01*
X0945148Y0240795D02*
X0949348D01*
X0934648D02*
X0941948D01*
X0945148Y0240695D02*
X0949348D01*
X0934648D02*
X0941948D01*
X0944948Y0240595D02*
X0949348D01*
X0934748D02*
X0941848D01*
X0945048Y0240495D02*
X0949348D01*
X0934748D02*
X0941848D01*
X0944848Y0240395D02*
X0949348D01*
X0934748D02*
X0941748D01*
X0944948Y0240295D02*
X0949348D01*
X0934848D02*
X0941648D01*
X0944848Y0240195D02*
X0949348D01*
X0934848D02*
X0941648D01*
X0944648Y0240095D02*
X0949348D01*
X0934948D02*
X0941548D01*
X0944548Y0239995D02*
X0949348D01*
X0935048D02*
X0941548D01*
X0944648Y0239895D02*
X0949348D01*
X0935048D02*
X0941448D01*
X0944548Y0239795D02*
X0949348D01*
X0935048D02*
X0941348D01*
X0944448Y0239695D02*
X0949348D01*
X0935148D02*
X0941248D01*
X0944348Y0239595D02*
X0949348D01*
X0935248D02*
X0941248D01*
X0944348Y0239495D02*
X0949348D01*
X0935248D02*
X0941148D01*
X0944248Y0239395D02*
X0949348D01*
X0935348D02*
X0941148D01*
X0944148Y0239295D02*
X0949348D01*
X0935348D02*
X0941048D01*
X0944148Y0239195D02*
X0949348D01*
X0935448D02*
X0941048D01*
X0943848Y0239095D02*
X0949448D01*
X0935448D02*
X0941148D01*
X0943748Y0238995D02*
X0949648D01*
X0935448D02*
X0941248D01*
X0935748Y0238695D02*
X0958248D01*
X0935848Y0238595D02*
X0958148D01*
X0935848Y0238495D02*
X0958148D01*
X0935848Y0238395D02*
X0958148D01*
X0936048Y0238295D02*
X0957948D01*
X0936048Y0238195D02*
X0957948D01*
X0936148Y0238095D02*
X0957948D01*
X0936248Y0237995D02*
X0957748D01*
X0936248Y0237895D02*
X0957748D01*
X0936348Y0237795D02*
X0957648D01*
X0936448Y0237695D02*
X0957548D01*
X0936548Y0237595D02*
X0957448D01*
X0936548Y0237495D02*
X0957348D01*
X0936648Y0237395D02*
X0957348D01*
X0936748Y0237295D02*
X0957248D01*
X0936848Y0237195D02*
X0957148D01*
X0936948Y0237095D02*
X0957148D01*
X0937048Y0236995D02*
X0956948D01*
X0937148Y0236895D02*
X0956848D01*
X0937148Y0236795D02*
X0956748D01*
X0937348Y0236695D02*
X0956748D01*
X0937348Y0236595D02*
X0956548D01*
X0937448Y0236495D02*
X0956548D01*
X0937548Y0236395D02*
X0956348D01*
X0937748Y0236295D02*
X0956348D01*
X0937848Y0236195D02*
X0956148D01*
X0937948Y0236095D02*
X0956148D01*
X0937948Y0235995D02*
X0955948D01*
X0945048Y0251795D02*
X0949348D01*
X0934948D02*
X0941848D01*
X0945048Y0251695D02*
X0949348D01*
X0934948D02*
X0942048D01*
X0945148Y0251595D02*
X0949348D01*
X0934948D02*
X0942048D01*
X0945148Y0251495D02*
X0949348D01*
X0934848D02*
X0942148D01*
X0945348Y0251395D02*
X0949348D01*
X0934748D02*
X0942248D01*
X0945448Y0251295D02*
X0949348D01*
X0934748D02*
X0942148D01*
X0945348Y0251195D02*
X0949348D01*
X0934748D02*
X0942348D01*
X0945448Y0251095D02*
X0949348D01*
X0934648D02*
X0942448D01*
X0945548Y0250995D02*
X0949348D01*
X0934648D02*
X0942548D01*
X0945548Y0250895D02*
X0949348D01*
X0934548D02*
X0942448D01*
X0945648Y0250795D02*
X0949348D01*
X0934548D02*
X0942548D01*
X0945748Y0250695D02*
X0949348D01*
X0934548D02*
X0942648D01*
X0945748Y0250595D02*
X0949348D01*
X0934548D02*
X0942748D01*
X0945848Y0250495D02*
X0949348D01*
X0934448D02*
X0942748D01*
X0945948Y0250395D02*
X0949348D01*
X0934448D02*
X0942848D01*
X0945948Y0250295D02*
X0949348D01*
X0934348D02*
X0942948D01*
X0946148Y0250195D02*
X0949348D01*
X0934348D02*
X0942948D01*
X0946048Y0250095D02*
X0949348D01*
X0934348D02*
X0943048D01*
X0946148Y0249995D02*
X0949348D01*
X0934248D02*
X0943148D01*
X0946248Y0249895D02*
X0949348D01*
X0934248D02*
X0943148D01*
X0946248Y0249795D02*
X0949348D01*
X0934248D02*
X0943248D01*
X0946348Y0249695D02*
X0949348D01*
X0934148D02*
X0943348D01*
X0934148Y0249595D02*
X0943348D01*
X0934148Y0249495D02*
X0943448D01*
X0934148Y0249395D02*
X0943448D01*
X0934048Y0249295D02*
X0943648D01*
X0934048Y0249195D02*
X0943648D01*
X0934048Y0249095D02*
X0943648D01*
X0934048Y0248995D02*
X0943748D01*
X0933948Y0248895D02*
X0943848D01*
X0933948Y0248795D02*
X0943948D01*
X0933948Y0248695D02*
X0943948D01*
X0933948Y0248595D02*
X0944048D01*
X0933848Y0248495D02*
X0944148D01*
X0933848Y0248395D02*
X0944048D01*
X0933848Y0248295D02*
X0944148D01*
X0933848Y0248195D02*
X0944348D01*
X0933848Y0248095D02*
X0944248D01*
X0933748Y0247995D02*
X0944448D01*
X0933848Y0247895D02*
X0944548D01*
X0933748Y0247795D02*
X0944548D01*
X0933748Y0247695D02*
X0944648D01*
X0933748Y0247595D02*
X0944648D01*
X0933748Y0247495D02*
X0944648D01*
X0933748Y0247395D02*
X0944848D01*
X0933748Y0247295D02*
X0944848D01*
X0933648Y0247195D02*
X0944948D01*
X0933748Y0247095D02*
X0945048D01*
X0933748Y0246995D02*
X0945048D01*
X0933648Y0246895D02*
X0945148D01*
X0933648Y0246795D02*
X0945248D01*
X0933648Y0246695D02*
X0945248D01*
X0933648Y0246595D02*
X0945348D01*
X0933648Y0246495D02*
X0945348D01*
X0933648Y0246395D02*
X0945448D01*
X0933648Y0246295D02*
X0945548D01*
X0933548Y0246195D02*
X0945648D01*
X0933648Y0246095D02*
X0945548D01*
X0933648Y0245995D02*
X0945448D01*
X0933648Y0245895D02*
X0945448D01*
X0933648Y0245795D02*
X0945348D01*
X0933548Y0245695D02*
X0945248D01*
X0933648Y0245595D02*
X0945248D01*
X0933648Y0245495D02*
X0945148D01*
X0933648Y0245395D02*
X0945048D01*
X0933648Y0245295D02*
X0945048D01*
X0933648Y0245195D02*
X0944948D01*
X0933648Y0245095D02*
X0944848D01*
X0933648Y0244995D02*
X0944848D01*
X0933648Y0244895D02*
X0944748D01*
X0933748Y0244795D02*
X0944648D01*
X0933748Y0244695D02*
X0944648D01*
X0933748Y0244595D02*
X0944548D01*
X0933748Y0244495D02*
X0944448D01*
X0933748Y0244395D02*
X0944448D01*
X0933748Y0244295D02*
X0944348D01*
X0933748Y0244195D02*
X0944348D01*
X0933748Y0244095D02*
X0944148D01*
X0933748Y0243995D02*
X0944248D01*
X0945948Y0259195D02*
X0948048D01*
X0945048Y0259095D02*
X0948948D01*
X0944348Y0258995D02*
X0949648D01*
X0944048Y0258895D02*
X0950048D01*
X0943548Y0258795D02*
X0950448D01*
X0943148Y0258695D02*
X0950748D01*
X0942848Y0258595D02*
X0951148D01*
X0942648Y0258495D02*
X0951448D01*
X0942248Y0258395D02*
X0951648D01*
X0941948Y0258295D02*
X0951948D01*
X0941748Y0258195D02*
X0952248D01*
X0941548Y0258095D02*
X0952448D01*
X0941348Y0257995D02*
X0952648D01*
X0941048Y0257895D02*
X0952948D01*
X0940948Y0257795D02*
X0953148D01*
X0940748Y0257695D02*
X0953348D01*
X0940548Y0257595D02*
X0953448D01*
X0940248Y0257495D02*
X0953648D01*
X0940148Y0257395D02*
X0953848D01*
X0940048Y0257295D02*
X0953948D01*
X0939848Y0257195D02*
X0954148D01*
X0939648Y0257095D02*
X0954348D01*
X0939548Y0256995D02*
X0954448D01*
X0939348Y0256895D02*
X0954548D01*
X0939248Y0256795D02*
X0954748D01*
X0939148Y0256695D02*
X0954848D01*
X0938948Y0256595D02*
X0955048D01*
X0938848Y0256495D02*
X0955148D01*
X0938748Y0256395D02*
X0955348D01*
X0938548Y0256295D02*
X0955348D01*
X0938448Y0256195D02*
X0955448D01*
X0938348Y0256095D02*
X0955648D01*
X0938248Y0255995D02*
X0955848D01*
X0938148Y0255895D02*
X0955848D01*
X0937948Y0255795D02*
X0955948D01*
X0937948Y0255695D02*
X0956048D01*
X0937848Y0255595D02*
X0956248D01*
X0937648Y0255495D02*
X0956348D01*
X0937648Y0255395D02*
X0956348D01*
X0937448Y0255295D02*
X0956548D01*
X0937348Y0255195D02*
X0956548D01*
X0937348Y0255095D02*
X0956748D01*
X0937148Y0254995D02*
X0956848D01*
X0937148Y0254895D02*
X0956848D01*
X0937048Y0254795D02*
X0956948D01*
X0936948Y0254695D02*
X0957048D01*
X0936848Y0254595D02*
X0957148D01*
X0936748Y0254495D02*
X0957148D01*
X0936648Y0254395D02*
X0957348D01*
X0936548Y0254295D02*
X0957448D01*
X0936548Y0254195D02*
X0957448D01*
X0936448Y0254095D02*
X0957648D01*
X0936348Y0253995D02*
X0957648D01*
X0936348Y0253895D02*
X0957648D01*
X0936248Y0253795D02*
X0957848D01*
X0936048Y0253695D02*
X0957848D01*
X0936048Y0253595D02*
X0957848D01*
X0936048Y0253495D02*
X0958048D01*
X0935948Y0253395D02*
X0958048D01*
X0935848Y0253295D02*
X0958148D01*
X0935748Y0253195D02*
X0958248D01*
X0935748Y0253095D02*
X0958248D01*
X0944248Y0252795D02*
X0949548D01*
X0935548D02*
X0941548D01*
X0944448Y0252695D02*
X0949448D01*
X0935448D02*
X0941448D01*
X0944448Y0252595D02*
X0949348D01*
X0935448D02*
X0941448D01*
X0944648Y0252495D02*
X0949348D01*
X0935348D02*
X0941448D01*
X0944748Y0252395D02*
X0949348D01*
X0935348D02*
X0941548D01*
X0944648Y0252295D02*
X0949348D01*
X0935248D02*
X0941648D01*
X0944748Y0252195D02*
X0949348D01*
X0935148D02*
X0941648D01*
X0944848Y0252095D02*
X0949348D01*
X0935148D02*
X0941748D01*
X0944848Y0251995D02*
X0949348D01*
X0935148D02*
X0941748D01*
X0938148Y0235895D02*
X0955948D01*
X0945048Y0251895D02*
X0949348D01*
X0935048D02*
X0941848D01*
X0933848Y0243895D02*
X0944048D01*
X0952248Y0243795D02*
X0960148D01*
X0952248Y0243695D02*
X0960148D01*
X0952148Y0243595D02*
X0960148D01*
X0952248Y0243495D02*
X0960148D01*
X0952248Y0243395D02*
X0960148D01*
X0952248Y0243295D02*
X0960048D01*
X0952148Y0243195D02*
X0960048D01*
X0952248Y0243095D02*
X0960148D01*
X0952248Y0242995D02*
X0960048D01*
X0952248Y0242895D02*
X0960048D01*
X0952148Y0242795D02*
X0960048D01*
X0952248Y0242695D02*
X0959948D01*
X0952148Y0242595D02*
X0959948D01*
X0952248Y0242495D02*
X0959948D01*
X0952248Y0242395D02*
X0959848D01*
X0952148Y0242295D02*
X0959848D01*
X0952248Y0242195D02*
X0959848D01*
X0952248Y0242095D02*
X0959748D01*
X0952148Y0241995D02*
X0959848D01*
X0952248Y0241895D02*
X0959748D01*
X0952248Y0241795D02*
X0959648D01*
X0952148Y0241695D02*
X0959648D01*
X0952248Y0241595D02*
X0959648D01*
X0952248Y0241495D02*
X0959648D01*
X0952248Y0241395D02*
X0959548D01*
X0952248Y0241295D02*
X0959548D01*
X0952148Y0241195D02*
X0959548D01*
X0952248Y0241095D02*
X0959448D01*
X0952248Y0240995D02*
X0959448D01*
X0952248Y0240895D02*
X0959348D01*
X0952148Y0240795D02*
X0959348D01*
X0952248Y0240695D02*
X0959348D01*
X0952148Y0240595D02*
X0959248D01*
X0952248Y0240495D02*
X0959248D01*
X0952248Y0240395D02*
X0959248D01*
X0952148Y0240295D02*
X0959148D01*
X0952248Y0240195D02*
X0959148D01*
X0952248Y0240095D02*
X0959048D01*
X0952148Y0239995D02*
X0958948D01*
X0952248Y0239895D02*
X0958948D01*
X0952248Y0239795D02*
X0958948D01*
X0952248Y0239695D02*
X0958848D01*
X0952148Y0239595D02*
X0958748D01*
X0952248Y0239495D02*
X0958748D01*
X0952248Y0239395D02*
X0958748D01*
X0952148Y0239295D02*
X0958548D01*
X0952148Y0239195D02*
X0958548D01*
X0952048Y0239095D02*
X0958548D01*
X0951948Y0238995D02*
X0958448D01*
X0935648Y0238895D02*
X0958348D01*
X0935648Y0238795D02*
X0958348D01*
X0952248Y0251795D02*
X0958948D01*
X0952248Y0251695D02*
X0959048D01*
X0952148Y0251595D02*
X0959148D01*
X0952248Y0251495D02*
X0959148D01*
X0952248Y0251395D02*
X0959148D01*
X0952248Y0251295D02*
X0959248D01*
X0952148Y0251195D02*
X0959248D01*
X0952248Y0251095D02*
X0959348D01*
X0952248Y0250995D02*
X0959348D01*
X0952248Y0250895D02*
X0959448D01*
X0952148Y0250795D02*
X0959448D01*
X0952248Y0250695D02*
X0959448D01*
X0952148Y0250595D02*
X0959448D01*
X0952248Y0250495D02*
X0959548D01*
X0952248Y0250395D02*
X0959548D01*
X0952148Y0250295D02*
X0959648D01*
X0952248Y0250195D02*
X0959648D01*
X0952248Y0250095D02*
X0959748D01*
X0952148Y0249995D02*
X0959648D01*
X0952248Y0249895D02*
X0959748D01*
X0952248Y0249795D02*
X0959848D01*
X0952248Y0249695D02*
X0959748D01*
X0952148Y0249595D02*
X0959848D01*
X0952248Y0249495D02*
X0959848D01*
X0952248Y0249395D02*
X0959848D01*
X0952248Y0249295D02*
X0959948D01*
X0952148Y0249195D02*
X0959948D01*
X0952248Y0249095D02*
X0959948D01*
X0952148Y0248995D02*
X0959948D01*
X0952248Y0248895D02*
X0960048D01*
X0952248Y0248795D02*
X0960048D01*
X0952148Y0248695D02*
X0960148D01*
X0952248Y0248595D02*
X0960048D01*
X0952248Y0248495D02*
X0960148D01*
X0952148Y0248395D02*
X0960148D01*
X0952248Y0248295D02*
X0960148D01*
X0952248Y0248195D02*
X0960148D01*
X0952248Y0248095D02*
X0960148D01*
X0952148Y0247995D02*
X0960248D01*
X0952248Y0247895D02*
X0960148D01*
X0952248Y0247795D02*
X0960248D01*
X0952248Y0247695D02*
X0960248D01*
X0952148Y0247595D02*
X0960248D01*
X0952248Y0247495D02*
X0960248D01*
X0952148Y0247395D02*
X0960248D01*
X0952248Y0247295D02*
X0960248D01*
X0952248Y0247195D02*
X0960348D01*
X0952148Y0247095D02*
X0960248D01*
X0952248Y0246995D02*
X0960348D01*
X0952248Y0246895D02*
X0960248D01*
X0952148Y0246795D02*
X0960348D01*
X0952248Y0246695D02*
X0960348D01*
X0952248Y0246595D02*
X0960348D01*
X0952248Y0246495D02*
X0960348D01*
X0952148Y0246395D02*
X0960348D01*
X0952248Y0246295D02*
X0960348D01*
X0952248Y0246195D02*
X0960348D01*
X0952248Y0246095D02*
X0960348D01*
X0952148Y0245995D02*
X0960348D01*
X0952248Y0245895D02*
X0960348D01*
X0952148Y0245795D02*
X0960348D01*
X0952248Y0245695D02*
X0960348D01*
X0952248Y0245595D02*
X0960348D01*
X0952148Y0245495D02*
X0960348D01*
X0952248Y0245395D02*
X0960348D01*
X0952248Y0245295D02*
X0960348D01*
X0952148Y0245195D02*
X0960348D01*
X0952248Y0245095D02*
X0960348D01*
X0952248Y0244995D02*
X0960248D01*
X0952248Y0244895D02*
X0960348D01*
X0952148Y0244795D02*
X0960348D01*
X0952248Y0244695D02*
X0960248D01*
X0952248Y0244595D02*
X0960248D01*
X0952248Y0244495D02*
X0960348D01*
X0952148Y0244395D02*
X0960248D01*
X0952248Y0244295D02*
X0960248D01*
X0952148Y0244195D02*
X0960248D01*
X0952248Y0244095D02*
X0960248D01*
X0952248Y0243995D02*
X0960248D01*
X0935648Y0252995D02*
X0958348D01*
X0935648Y0252895D02*
X0958348D01*
X0951848Y0252795D02*
X0958448D01*
X0952148Y0252695D02*
X0958548D01*
X0952148Y0252595D02*
X0958648D01*
X0952248Y0252495D02*
X0958648D01*
X0952248Y0252395D02*
X0958648D01*
X0952148Y0252295D02*
X0958748D01*
X0952248Y0252195D02*
X0958748D01*
X0952148Y0252095D02*
X0958848D01*
X0952248Y0251995D02*
X0958948D01*
X0952248Y0251895D02*
X0958948D01*
X0952148Y0243895D02*
X0960148D01*
D161*
X1150437Y0121096D02*
X1159937D01*
X1155187Y0116346D02*
X1159937Y0121096D01*
X1150437D02*
X1155187Y0116346D01*
X1007748Y0116295D02*
X1012498Y0111545D01*
X1017248Y0116295D01*
X1007748D02*
X1017248D01*
X0864055Y0116634D02*
X0873555D01*
X0868805Y0111884D02*
X0873555Y0116634D01*
X0864055D02*
X0868805Y0111884D01*
X0922466Y0120238D02*
X0927217Y0115488D01*
X0931966Y0120238D01*
X0922466D02*
X0931966D01*
D215*
X0719373Y0140295D02*
D03*
M02*
