G04*
G04 #@! TF.GenerationSoftware,Altium Limited,Altium Designer,21.6.4 (81)*
G04*
G04 Layer_Color=16711935*
%FSAX25Y25*%
%MOIN*%
G70*
G04*
G04 #@! TF.SameCoordinates,DD8D4212-8735-41A3-844D-102B836B4CE1*
G04*
G04*
G04 #@! TF.FilePolarity,Positive*
G04*
G01*
G75*
%ADD216C,0.00000*%
D216*
X1782381Y0545010D02*
G03*
X1782381Y0527310I-0000040J-0008850D01*
G01*
X1782381Y0450520D02*
G03*
X1782381Y0432820I-0000040J-0008850D01*
G01*
X1782381Y0403280D02*
G03*
X1782381Y0385560I-0000040J-0008860D01*
G01*
Y0497770D02*
G03*
X1782381Y0480050I-0000040J-0008860D01*
G01*
Y0356040D02*
G03*
X1782381Y0338320I-0000040J-0008860D01*
G01*
Y0308790D02*
G03*
X1782381Y0291090I-0000040J-0008850D01*
G01*
X1782381Y0261550D02*
G03*
X1782381Y0243830I-0000040J-0008860D01*
G01*
Y0592260D02*
G03*
X1782381Y0574540I-0000040J-0008860D01*
G01*
Y0639500D02*
G03*
X1782381Y0621780I-0000040J-0008860D01*
G01*
Y0686740D02*
G03*
X1782381Y0669040I-0000040J-0008850D01*
G01*
X1782381Y-0021920D02*
G03*
X1782381Y-0039620I-0000040J-0008850D01*
G01*
X1782381Y0025330D02*
G03*
X1782381Y0007610I-0000040J-0008860D01*
G01*
Y0072570D02*
G03*
X1782381Y0054850I-0000040J-0008860D01*
G01*
Y0119820D02*
G03*
X1782381Y0102100I-0000040J-0008860D01*
G01*
Y0167060D02*
G03*
X1782381Y0149340I-0000040J-0008860D01*
G01*
Y0214300D02*
G03*
X1782381Y0196600I-0000040J-0008850D01*
G01*
X1782381Y-0069160D02*
G03*
X1782381Y-0086880I-0000040J-0008860D01*
G01*
Y-0116410D02*
G03*
X1782381Y-0134110I-0000040J-0008850D01*
G01*
X1782381Y-0163650D02*
G03*
X1782381Y-0181370I-0000040J-0008860D01*
G01*
Y-0210890D02*
G03*
X1782381Y-0228610I-0000040J-0008860D01*
G01*
X0181941Y0934820D02*
G03*
X0199661Y0934820I0008860J-0000040D01*
G01*
X0276431D02*
G03*
X0294151Y0934820I0008860J-0000040D01*
G01*
X0701631D02*
G03*
X0719351Y0934820I0008860J-0000040D01*
G01*
X0937851D02*
G03*
X0955571Y0934820I0008860J-0000040D01*
G01*
X0985091D02*
G03*
X1002811Y0934820I0008860J-0000040D01*
G01*
X0748871D02*
G03*
X0766591Y0934820I0008860J-0000040D01*
G01*
X0843361D02*
G03*
X0861081Y0934820I0008860J-0000040D01*
G01*
X0607141D02*
G03*
X0624861Y0934820I0008860J-0000040D01*
G01*
X0512651D02*
G03*
X0530371Y0934820I0008860J-0000040D01*
G01*
X0890601D02*
G03*
X0908321Y0934820I0008860J-0000040D01*
G01*
X0796121D02*
G03*
X0813821Y0934820I0008850J-0000040D01*
G01*
X0654381Y0934820D02*
G03*
X0672101Y0934820I0008860J-0000040D01*
G01*
X0559901D02*
G03*
X0577601Y0934820I0008850J-0000040D01*
G01*
X0465411Y0934820D02*
G03*
X0483111Y0934820I0008850J-0000040D01*
G01*
X0323681Y0934820D02*
G03*
X0341381Y0934820I0008850J-0000040D01*
G01*
X0229191Y0934820D02*
G03*
X0246891Y0934820I0008850J-0000040D01*
G01*
X0418161Y0934820D02*
G03*
X0435881Y0934820I0008860J-0000040D01*
G01*
X0370921D02*
G03*
X0388641Y0934820I0008860J-0000040D01*
G01*
X1552021D02*
G03*
X1569741Y0934820I0008860J-0000040D01*
G01*
X1504781D02*
G03*
X1522481Y0934820I0008850J-0000040D01*
G01*
X1599271Y0934820D02*
G03*
X1616971Y0934820I0008850J-0000040D01*
G01*
X1032341Y0934820D02*
G03*
X1050041Y0934820I0008850J-0000040D01*
G01*
X1079581Y0934820D02*
G03*
X1097301Y0934820I0008860J-0000040D01*
G01*
X1126831D02*
G03*
X1144531Y0934820I0008850J-0000040D01*
G01*
X1457531Y0934820D02*
G03*
X1475251Y0934820I0008860J-0000040D01*
G01*
X1410291D02*
G03*
X1428011Y0934820I0008860J-0000040D01*
G01*
X1315801D02*
G03*
X1333521Y0934820I0008860J-0000040D01*
G01*
X1221311D02*
G03*
X1239031Y0934820I0008860J-0000040D01*
G01*
X1174071D02*
G03*
X1191791Y0934820I0008860J-0000040D01*
G01*
X1363051D02*
G03*
X1380751Y0934820I0008850J-0000040D01*
G01*
X1268561Y0934820D02*
G03*
X1286261Y0934820I0008850J-0000040D01*
G01*
X1782381Y0733990D02*
G03*
X1782381Y0716270I-0000040J-0008860D01*
G01*
X0016551Y-0039630D02*
G03*
X0016551Y-0021930I0000040J0008850D01*
G01*
X0016551Y0007610D02*
G03*
X0016551Y0025330I0000040J0008860D01*
G01*
Y0054850D02*
G03*
X0016551Y0072570I0000040J0008860D01*
G01*
Y0102100D02*
G03*
X0016551Y0119820I0000040J0008860D01*
G01*
Y-0086880D02*
G03*
X0016551Y-0069160I0000040J0008860D01*
G01*
Y-0228610D02*
G03*
X0016551Y-0210890I0000040J0008860D01*
G01*
Y-0181370D02*
G03*
X0016551Y-0163650I0000040J0008860D01*
G01*
Y-0134120D02*
G03*
X0016551Y-0116420I0000040J0008850D01*
G01*
X0016551Y0716270D02*
G03*
X0016551Y0733990I0000040J0008860D01*
G01*
Y0291080D02*
G03*
X0016551Y0308780I0000040J0008850D01*
G01*
X0016551Y0338320D02*
G03*
X0016551Y0356040I0000040J0008860D01*
G01*
Y0149340D02*
G03*
X0016551Y0167060I0000040J0008860D01*
G01*
Y0196590D02*
G03*
X0016551Y0214290I0000040J0008850D01*
G01*
X0016551Y0243830D02*
G03*
X0016551Y0261550I0000040J0008860D01*
G01*
Y0385560D02*
G03*
X0016551Y0403280I0000040J0008860D01*
G01*
Y0432810D02*
G03*
X0016551Y0450510I0000040J0008850D01*
G01*
X0016551Y0480050D02*
G03*
X0016551Y0497770I0000040J0008860D01*
G01*
Y0527300D02*
G03*
X0016551Y0545000I0000040J0008850D01*
G01*
X0016551Y0574540D02*
G03*
X0016551Y0592260I0000040J0008860D01*
G01*
Y0621780D02*
G03*
X0016551Y0639500I0000040J0008860D01*
G01*
Y0669030D02*
G03*
X0016551Y0686730I0000040J0008850D01*
G01*
X1522491Y-0429440D02*
G03*
X1504791Y-0429440I-0008850J0000040D01*
G01*
X1380761Y-0429440D02*
G03*
X1363061Y-0429440I-0008850J0000040D01*
G01*
X1286271Y-0429440D02*
G03*
X1268571Y-0429440I-0008850J0000040D01*
G01*
X1475251Y-0429440D02*
G03*
X1457531Y-0429440I-0008860J0000040D01*
G01*
X1428011D02*
G03*
X1410291Y-0429440I-0008860J0000040D01*
G01*
X1333521D02*
G03*
X1315801Y-0429440I-0008860J0000040D01*
G01*
X1144541D02*
G03*
X1126841Y-0429440I-0008850J0000040D01*
G01*
X1050051Y-0429440D02*
G03*
X1032351Y-0429440I-0008850J0000040D01*
G01*
X0813831Y-0429440D02*
G03*
X0796131Y-0429440I-0008850J0000040D01*
G01*
X1239031Y-0429440D02*
G03*
X1221311Y-0429440I-0008860J0000040D01*
G01*
X1191791D02*
G03*
X1174071Y-0429440I-0008860J0000040D01*
G01*
X0577611D02*
G03*
X0559911Y-0429440I-0008850J0000040D01*
G01*
X1002811Y-0429440D02*
G03*
X0985091Y-0429440I-0008860J0000040D01*
G01*
X0719351D02*
G03*
X0701631Y-0429440I-0008860J0000040D01*
G01*
X0672101D02*
G03*
X0654381Y-0429440I-0008860J0000040D01*
G01*
X0955571D02*
G03*
X0937851Y-0429440I-0008860J0000040D01*
G01*
X0908321D02*
G03*
X0890601Y-0429440I-0008860J0000040D01*
G01*
X0861081D02*
G03*
X0843361Y-0429440I-0008860J0000040D01*
G01*
X0766591D02*
G03*
X0748871Y-0429440I-0008860J0000040D01*
G01*
X1097301D02*
G03*
X1079581Y-0429440I-0008860J0000040D01*
G01*
X0624861D02*
G03*
X0607141Y-0429440I-0008860J0000040D01*
G01*
X0341391D02*
G03*
X0323691Y-0429440I-0008850J0000040D01*
G01*
X0246901Y-0429440D02*
G03*
X0229201Y-0429440I-0008850J0000040D01*
G01*
X0483121Y-0429440D02*
G03*
X0465421Y-0429440I-0008850J0000040D01*
G01*
X0294151Y-0429440D02*
G03*
X0276431Y-0429440I-0008860J0000040D01*
G01*
X0199661D02*
G03*
X0181941Y-0429440I-0008860J0000040D01*
G01*
X0530371D02*
G03*
X0512651Y-0429440I-0008860J0000040D01*
G01*
X1569741D02*
G03*
X1552021Y-0429440I-0008860J0000040D01*
G01*
X1616981D02*
G03*
X1599281Y-0429440I-0008850J0000040D01*
G01*
X0388641Y-0429440D02*
G03*
X0370921Y-0429440I-0008860J0000040D01*
G01*
X0435881D02*
G03*
X0418161Y-0429440I-0008860J0000040D01*
G01*
X1782381Y0639500D02*
X1793161D01*
Y0621780D02*
Y0639500D01*
Y0574540D02*
Y0592260D01*
Y0527300D02*
Y0545010D01*
X1782381Y0574540D02*
X1793161D01*
X1782381Y0592260D02*
X1793161D01*
X1782381Y0527300D02*
X1793161D01*
X1782381Y0621780D02*
X1793161D01*
X1782381Y0545010D02*
X1793161D01*
X1782381Y0480050D02*
X1793161D01*
X1782381Y0497770D02*
X1793161D01*
Y0669030D02*
Y0686740D01*
X1782381D02*
X1793161D01*
X1782381Y0669030D02*
X1793161D01*
Y0480050D02*
Y0497770D01*
Y0243830D02*
Y0261550D01*
Y0432810D02*
Y0450520D01*
Y0385560D02*
Y0403280D01*
Y0291080D02*
Y0308790D01*
Y0196590D02*
Y0214300D01*
Y0338320D02*
Y0356040D01*
Y0149340D02*
Y0167060D01*
Y0102100D02*
Y0119820D01*
Y0054850D02*
Y0072570D01*
Y0007610D02*
Y0025330D01*
Y-0181370D02*
Y-0163650D01*
Y-0228610D02*
Y-0210890D01*
X1782381Y0450520D02*
X1793161D01*
X1782381Y0385560D02*
X1793161D01*
X1782381Y0432810D02*
X1793161D01*
X1782381Y0403280D02*
X1793161D01*
X1782381Y0308790D02*
X1793161D01*
X1782381Y0291080D02*
X1793161D01*
X1782381Y0356040D02*
X1793161D01*
X1782381Y0338320D02*
X1793161D01*
X1782381Y0261550D02*
X1793161D01*
X1782381Y0243830D02*
X1793161D01*
X1824661Y-0328020D02*
Y0833400D01*
X1793161Y-0134120D02*
Y-0116410D01*
X1804971Y-0347700D02*
X1824661Y-0328020D01*
X1793161Y-0086880D02*
Y-0069160D01*
X1782381Y0214300D02*
X1793161D01*
X1782381Y0196590D02*
X1793161D01*
X1782381Y0149340D02*
X1793161D01*
X1782381Y0167060D02*
X1793161D01*
X1782381Y0102100D02*
X1793161D01*
X1782381Y0119820D02*
X1793161D01*
X1782381Y-0039630D02*
X1793161D01*
X1782381Y0054850D02*
X1793161D01*
X1782381Y0072570D02*
X1793161D01*
X1782381Y0007610D02*
X1793161D01*
X1782381Y0025330D02*
X1793161D01*
Y-0039630D02*
Y-0021920D01*
X1782381D02*
X1793161D01*
X1782381Y-0210890D02*
X1793161D01*
X1782381Y-0116410D02*
X1793161D01*
X1782381Y-0181370D02*
X1793161D01*
X1782381Y-0163650D02*
X1793161D01*
X1782381Y-0134120D02*
X1793161D01*
X1782381Y-0086880D02*
X1793161D01*
X1782381Y-0069160D02*
X1793161D01*
X1700641Y-0347700D02*
X1804971D01*
X1782381Y-0228610D02*
X1793161D01*
X1700641Y-0452040D02*
Y-0347700D01*
X0246901Y0934820D02*
Y0945600D01*
X0323681Y0934820D02*
Y0945600D01*
X0294151Y0934820D02*
Y0945600D01*
X0276431Y0934820D02*
Y0945600D01*
X0199661Y0934820D02*
Y0945600D01*
X0276431D02*
X0294151D01*
X0229191D02*
X0246901D01*
X0229191Y0934820D02*
Y0945600D01*
X1097301Y0934820D02*
Y0945600D01*
X1552021D02*
X1569741D01*
X1616981Y0934820D02*
Y0945600D01*
X1552021Y0934820D02*
Y0945600D01*
X1268561Y0934820D02*
Y0945600D01*
X1599271D02*
X1616981D01*
X1599271Y0934820D02*
Y0945600D01*
X1569741Y0934820D02*
Y0945600D01*
X1522491Y0934820D02*
Y0945600D01*
X1504781D02*
X1522491D01*
X1504781Y0934820D02*
Y0945600D01*
X1475251Y0934820D02*
Y0945600D01*
X1428011Y0934820D02*
Y0945600D01*
X1457531D02*
X1475251D01*
X1457531Y0934820D02*
Y0945600D01*
X1410291D02*
X1428011D01*
X1410291Y0934820D02*
Y0945600D01*
X1380761Y0934820D02*
Y0945600D01*
X1363051D02*
X1380761D01*
X1363051Y0934820D02*
Y0945600D01*
X1333521Y0934820D02*
Y0945600D01*
X1315801D02*
X1333521D01*
X1315801Y0934820D02*
Y0945600D01*
X1286271Y0934820D02*
Y0945600D01*
X1268561D02*
X1286271D01*
X1239031Y0934820D02*
Y0945600D01*
X1221311D02*
X1239031D01*
X1221311Y0934820D02*
Y0945600D01*
X1191791Y0934820D02*
Y0945600D01*
X1174071D02*
X1191791D01*
X1174071Y0934820D02*
Y0945600D01*
X1144541Y0934820D02*
Y0945600D01*
X1126831D02*
X1144541D01*
X1126831Y0934820D02*
Y0945600D01*
X1079581D02*
X1097301D01*
X1002811Y0934820D02*
Y0945600D01*
X1050051Y0934820D02*
Y0945600D01*
X1032341Y0934820D02*
Y0945600D01*
X1079581Y0934820D02*
Y0945600D01*
X1032341D02*
X1050051D01*
X0985091D02*
X1002811D01*
X0985091Y0934820D02*
Y0945600D01*
X0955571Y0934820D02*
Y0945600D01*
X0937851Y0934820D02*
Y0945600D01*
X0908321Y0934820D02*
Y0945600D01*
X0890601Y0934820D02*
Y0945600D01*
X0861081Y0934820D02*
Y0945600D01*
X0937851D02*
X0955571D01*
X0890601D02*
X0908321D01*
X0117971Y0977100D02*
X1680961D01*
X0843361Y0945600D02*
X0861081D01*
X0796121D02*
X0813831D01*
X0748871D02*
X0766591D01*
X0323681D02*
X0341391D01*
X0181941D02*
X0199661D01*
X0098281Y0957410D02*
X0117971Y0977100D01*
X0341391Y0934820D02*
Y0945600D01*
X0465411Y0934820D02*
Y0945600D01*
X0418161D02*
X0435881D01*
X0370921D02*
X0388641D01*
X0843361Y0934820D02*
Y0945600D01*
X0766591Y0934820D02*
Y0945600D01*
X0813831Y0934820D02*
Y0945600D01*
X0796121Y0934820D02*
Y0945600D01*
X0577611Y0934820D02*
Y0945600D01*
X0559901Y0934820D02*
Y0945600D01*
X0512651Y0934820D02*
Y0945600D01*
X0483121Y0934820D02*
Y0945600D01*
X0435881Y0934820D02*
Y0945600D01*
X0418161Y0934820D02*
Y0945600D01*
X0388641Y0934820D02*
Y0945600D01*
X0370921Y0934820D02*
Y0945600D01*
X0748871Y0934820D02*
Y0945600D01*
X0719351Y0934820D02*
Y0945600D01*
X0701631D02*
X0719351D01*
X0701631Y0934820D02*
Y0945600D01*
X0672101Y0934820D02*
Y0945600D01*
X0654381D02*
X0672101D01*
X0654381Y0934820D02*
Y0945600D01*
X0624861Y0934820D02*
Y0945600D01*
X0607141D02*
X0624861D01*
X0607141Y0934820D02*
Y0945600D01*
X0559901D02*
X0577611D01*
X0530371Y0934820D02*
Y0945600D01*
X0512651D02*
X0530371D01*
X0465411D02*
X0483121D01*
X1793161Y0716270D02*
Y0733990D01*
X1782381D02*
X1793161D01*
X1782381Y0716270D02*
X1793161D01*
X1700641Y0853080D02*
X1804971D01*
X1700641D02*
Y0957410D01*
X1680961Y0977100D02*
X1700641Y0957410D01*
X1804971Y0853080D02*
X1824661Y0833400D01*
X-0025729Y-0328020D02*
X-0006049Y-0347700D01*
X0005761Y-0039630D02*
X0016551D01*
X0005761D02*
Y-0021920D01*
X-0025729Y-0328020D02*
Y0833400D01*
X-0006049Y0853080D01*
X0005761Y0149340D02*
X0016551D01*
X0005761Y0025330D02*
X0016551D01*
X0005761Y-0021920D02*
X0016551D01*
X0005761Y0007610D02*
X0016551D01*
X0005761D02*
Y0025330D01*
Y0054850D02*
X0016551D01*
X0005761D02*
Y0072570D01*
X0016551D01*
X0005761Y0102100D02*
X0016551D01*
X0005761Y0119820D02*
X0016551D01*
X0005761Y0102100D02*
Y0119820D01*
X0181941Y-0440220D02*
Y-0429440D01*
X-0006049Y-0347700D02*
X0098281D01*
X0005761Y-0116410D02*
X0016551D01*
X0005761Y-0086880D02*
Y-0069160D01*
X0016551D01*
X0005761Y-0228610D02*
X0016551D01*
X0005761D02*
Y-0210890D01*
X0016551D01*
X0005761Y-0181370D02*
X0016551D01*
X0005761D02*
Y-0163650D01*
X0016551D01*
X0005761Y0733990D02*
X0016551D01*
X0005761Y0716270D02*
X0016551D01*
X0005761D02*
Y0733990D01*
X0181941Y0934820D02*
Y0945600D01*
X0005761Y0338320D02*
X0016551D01*
X0005761Y0291080D02*
X0016551D01*
X0005761D02*
Y0308790D01*
X0016551D01*
X0005761Y0338320D02*
Y0356040D01*
X0016551D01*
X0005761Y-0134120D02*
X0016551D01*
X0005761Y-0086880D02*
X0016551D01*
X0005761Y-0134120D02*
Y-0116410D01*
Y0261550D02*
X0016551D01*
X0005761Y0167060D02*
X0016551D01*
X0005761Y0196590D02*
X0016551D01*
X0005761Y0214300D02*
X0016551D01*
X0005761Y0243830D02*
X0016551D01*
X0005761Y0149340D02*
Y0167060D01*
Y0196590D02*
Y0214300D01*
Y0243830D02*
Y0261550D01*
X0098281Y0853080D02*
Y0957410D01*
X-0006049Y0853080D02*
X0098281D01*
X0005761Y0403280D02*
X0016551D01*
X0005761Y0432810D02*
X0016551D01*
X0005761Y0385560D02*
X0016551D01*
X0005761D02*
Y0403280D01*
Y0450520D02*
X0016551D01*
X0005761Y0686740D02*
X0016551D01*
X0005761Y0432810D02*
Y0450520D01*
Y0480050D02*
X0016551D01*
X0005761D02*
Y0497770D01*
X0016551D01*
X0005761Y0527300D02*
X0016551D01*
X0005761D02*
Y0545010D01*
X0016551D01*
X0005761Y0574540D02*
X0016551D01*
X0005761D02*
Y0592260D01*
X0016551D01*
X0005761Y0621780D02*
X0016551D01*
X0005761D02*
Y0639500D01*
X0016551D01*
X0005761Y0669030D02*
X0016551D01*
X0005761D02*
Y0686740D01*
X0559901Y-0440220D02*
X0577611D01*
X1126831D02*
X1144541D01*
X1363051D02*
X1380761D01*
X1268561D02*
X1286271D01*
X1174071D02*
X1191791D01*
X0607141D02*
X0624861D01*
X0701631D02*
X0719351D01*
X1032341D02*
X1050051D01*
X0937851D02*
X0955571D01*
X0796121D02*
X0813831D01*
X0890601D02*
X0908321D01*
X0985091D02*
X1002811D01*
X0098281Y-0452040D02*
X0117971Y-0471720D01*
X1680961D01*
X1700641Y-0452040D01*
X1504781Y-0440220D02*
X1522491D01*
X1268561D02*
Y-0429440D01*
X1239031Y-0440220D02*
Y-0429440D01*
X1221311Y-0440220D02*
Y-0429440D01*
X1457531Y-0440220D02*
X1475251D01*
X1410291D02*
X1428011D01*
X1315801D02*
X1333521D01*
X1221311D02*
X1239031D01*
X1079581D02*
X1097301D01*
X0654381D02*
X0672101D01*
X0748871D02*
X0766591D01*
X0843361D02*
X0861081D01*
X0512651D02*
X0530371D01*
X0465411D02*
X0483121D01*
X0323681D02*
X0341391D01*
X0276431D02*
X0294151D01*
X0229191D02*
X0246901D01*
X0181941D02*
X0199661D01*
X1504781D02*
Y-0429440D01*
X1174071Y-0440220D02*
Y-0429440D01*
X1144541Y-0440220D02*
Y-0429440D01*
X1126831Y-0440220D02*
Y-0429440D01*
X1475251Y-0440220D02*
Y-0429440D01*
X1050051Y-0440220D02*
Y-0429440D01*
X0843361Y-0440220D02*
Y-0429440D01*
X1002811Y-0440220D02*
Y-0429440D01*
X0937851Y-0440220D02*
Y-0429440D01*
X0985091Y-0440220D02*
Y-0429440D01*
X0861081Y-0440220D02*
Y-0429440D01*
X0908321Y-0440220D02*
Y-0429440D01*
X1032341Y-0440220D02*
Y-0429440D01*
X0890601Y-0440220D02*
Y-0429440D01*
X1079581Y-0440220D02*
Y-0429440D01*
X0955571Y-0440220D02*
Y-0429440D01*
X1457531Y-0440220D02*
Y-0429440D01*
X0748871Y-0440220D02*
Y-0429440D01*
X0719351Y-0440220D02*
Y-0429440D01*
X0766591Y-0440220D02*
Y-0429440D01*
X0813831Y-0440220D02*
Y-0429440D01*
X1286271Y-0440220D02*
Y-0429440D01*
X0672101Y-0440220D02*
Y-0429440D01*
X0654381Y-0440220D02*
Y-0429440D01*
X0701631Y-0440220D02*
Y-0429440D01*
X1428011Y-0440220D02*
Y-0429440D01*
X0624861Y-0440220D02*
Y-0429440D01*
X0607141Y-0440220D02*
Y-0429440D01*
X1410291Y-0440220D02*
Y-0429440D01*
X0098281Y-0452040D02*
Y-0347700D01*
X1380761Y-0440220D02*
Y-0429440D01*
X1097301Y-0440220D02*
Y-0429440D01*
X1191791Y-0440220D02*
Y-0429440D01*
X1363051Y-0440220D02*
Y-0429440D01*
X1333521Y-0440220D02*
Y-0429440D01*
X1315801Y-0440220D02*
Y-0429440D01*
X0796121Y-0440220D02*
Y-0429440D01*
X0199661Y-0440220D02*
Y-0429440D01*
X0530371Y-0440220D02*
Y-0429440D01*
X0559901Y-0440220D02*
Y-0429440D01*
X0577611Y-0440220D02*
Y-0429440D01*
X0483121Y-0440220D02*
Y-0429440D01*
X0512651Y-0440220D02*
Y-0429440D01*
X0294151Y-0440220D02*
Y-0429440D01*
X0276431Y-0440220D02*
Y-0429440D01*
X0341391Y-0440220D02*
Y-0429440D01*
X0246901Y-0440220D02*
Y-0429440D01*
X0323681Y-0440220D02*
Y-0429440D01*
X0229191Y-0440220D02*
Y-0429440D01*
X1599271Y-0440220D02*
Y-0429440D01*
X1569741Y-0440220D02*
Y-0429440D01*
X1552021Y-0440220D02*
Y-0429440D01*
X1599271Y-0440220D02*
X1616981D01*
X1552021D02*
X1569741D01*
X1522491D02*
Y-0429440D01*
X1616981Y-0440220D02*
Y-0429440D01*
X0388641Y-0440220D02*
Y-0429440D01*
X0435881Y-0440220D02*
Y-0429440D01*
X0370921Y-0440220D02*
Y-0429440D01*
X0418161Y-0440220D02*
X0435881D01*
X0370921D02*
X0388641D01*
X0465411D02*
Y-0429440D01*
X0418161Y-0440220D02*
Y-0429440D01*
M02*
