M48
;Layer_Color=9474304
;FILE_FORMAT=2:5
INCH
;TYPE=PLATED
T1F00S00C0.01378
T2F00S00C0.01496
T3F00S00C0.01500
T4F00S00C0.01968
T6F00S00C0.03543
T7F00S00C0.04016
T8F00S00C0.06299
T9F00S00C0.12598
;TYPE=NON_PLATED
T10F00S00C0.10000
T11F00S00C0.11024
%
T01
X0854508Y0157508
X0858839
X0863169
X0867500
X0871831
X0876161
X0880492
Y0161839
Y0166169
Y0170500
Y0174831
Y0179161
Y0183492
X0876161
Y0179161
Y0174831
Y0170500
Y0166169
Y0161839
X0871831
Y0166169
Y0170500
Y0174831
Y0179161
Y0183492
X0867500
Y0179161
Y0174831
Y0170500
Y0166169
Y0161839
X0863169
Y0166169
Y0170500
Y0174831
Y0179161
Y0183492
X0858839
Y0179161
Y0174831
Y0170500
Y0166169
Y0161839
X0854508
Y0166169
Y0170500
Y0174831
Y0179161
Y0183492
T02
X0609000Y0112250
X0611750Y0132500
X0716750Y0141750
X0727250Y0133500
X0745500Y0151250
X0752500Y0151500
X0766250Y0147500
X0763500Y0136500
X0780500Y0131000
X0775500Y0155750
X0760000Y0110500
X0749250Y0118750
X0800000Y0131750
X0801250Y0137000
X0801500Y0149500
X0809000Y0147000
X0820500Y0143000
X0823000Y0140000
X0845250Y0138750
X0845000Y0142500
X0845500Y0148500
X0845000Y0133500
X0850000Y0124933
X0864000Y0127000
X0866500Y0123750
X0881500Y0124000
X0878000Y0139000
X0889000Y0151000
X0929000Y0118000
X0956000Y0193000
X0955000Y0202000
Y0209500
Y0217500
X0943500Y0224500
X0944500Y0230000
X0950500Y0235000
X0948750Y0281750
X0948500Y0287250
X1016500Y0296750
X1042250Y0289000
X1005924Y0216674
X1003590Y0214340
X0931000Y0209500
X0931500Y0202000
X0930000Y0218500
X0920500Y0194000
X0917500Y0191500
X0928000Y0184000
X0928500Y0177500
X0937000Y0177000
X0931000Y0169000
X0908250Y0169250
X0909500Y0179000
X0913500Y0177000
X0894000Y0186500
X0870500Y0194000
X0864500Y0192500
X0860610Y0192000
X0853500Y0193500
X0848500Y0194000
X0845000Y0191000
X0843500Y0187500
X0835500Y0184000
X0828500Y0188000
X0820500Y0181000
X0814500Y0185500
X0810000Y0190500
X0814475Y0207275
X0812000Y0209750
X0816500Y0213500
X0794250Y0208000
X0786500Y0212500
X0782000Y0210500
X0781750Y0235500
X0784000Y0263000
X0791000Y0263500
X0805500
X0812500
X0820000Y0262000
X0825500Y0265500
X0833000Y0276000
X0868500Y0272000
X0881000Y0267000
X0857500Y0260500
X0856250Y0227000
X0846610Y0226500
X0841000Y0227000
X0842000Y0234000
X0857500Y0211000
X0864500Y0208000
X0876500Y0207500
X0835500Y0172000
X0840500Y0159000
X0812500Y0171500
X0790500Y0158000
X0786500Y0157000
X0783500Y0161000
X0783000Y0182500
X0784000Y0284250
X0772000Y0287500
X0761000Y0298000
X0745000
X0738000Y0290000
X0740250Y0286000
X0739500Y0275750
X0742000Y0269250
X0749500Y0263000
X0755500
X0763000
X0770000
X0777000
X0772500Y0242250
X0758500
X0753250Y0241750
X0749250Y0239250
X0741500Y0242000
X0735750Y0242250
X0732500Y0245500
X0720000Y0242500
X0713500
X0699083Y0241500
X0697750Y0261500
X0698250Y0267500
X0697250Y0272750
X0706000Y0264500
X0712750Y0261250
X0718750Y0262750
X0726000Y0263500
X0722500Y0269750
X0722750Y0275500
X0719750Y0286250
X0717625Y0308375
X0714750Y0227750
X0710500Y0213500
X0705500Y0213000
X0719500
X0723750Y0213250
X0749500Y0212250
X0776500Y0212000
X0781000Y0231100
X0767750Y0227750
X0775750Y0181000
X0778500Y0182750
X0773500Y0176500
X0764250Y0172500
X0759250Y0171500
X0747500Y0174500
X0739500Y0166750
X0681000Y0207000
X0686000Y0220500
X0676500Y0226500
X0669500Y0227500
X0662500Y0227000
X0654000Y0228500
X0651750Y0231250
X0652500Y0237000
X0644750Y0233750
X0641250Y0231750
X0639500Y0227750
X0632000Y0228000
X0661000Y0213000
X0657000Y0206250
X0663890Y0245610
X0659000Y0266250
X0667500Y0273250
X0671750Y0270500
X0673500Y0263500
X0636250Y0298250
X0612500Y0279000
X0609000Y0251000
X0615500Y0232500
X0610500Y0221000
X0614250Y0209750
X0596500Y0330000
X0590750
X0714500Y0327000
X0722250Y0326250
X0729500Y0327750
X0717250Y0317500
Y0312750
X0750750Y0334750
X0855000Y0329500
X0859250Y0326750
X0883000Y0329250
X0881750Y0333750
X0905500Y0331750
X0903000Y0325000
X0905500Y0320500
X0910250Y0316250
X0912250Y0338500
X0947500Y0334250
X0948000Y0326750
X1073250Y0336250
X1070924Y0343250
X1080924
X1078000Y0315000
X1095750Y0327750
X1118000Y0314000
T03
X0700750Y0148750
X0705750
X0710500
X0715000
X0719750
Y0155000
X0715000
X0710500
X0705750
X0700750
X0767750Y0131000
Y0127750
X0771750
Y0131000
X0845000Y0154500
X0873000Y0148500
Y0139500
X0886500Y0147500
X0891000Y0144000
X0957500Y0233500
X1042000Y0246500
X1045750
X1044065Y0250500
X0902500Y0242000
X0890000Y0249500
Y0253000
Y0256500
X0889000Y0259500
X0885500
X0882000
X0886750Y0255000
Y0251250
X0875250Y0263750
X0875500Y0267500
X0872500Y0269000
Y0265500
Y0262000
X0865500Y0263500
Y0259750
X0862250Y0227000
X0871500Y0207500
X0881000Y0209250
X0885000
X0888250
X0888500Y0213000
X0885000
X0881500
X0899000Y0188000
X0857500Y0193500
X0832500Y0197000
X0838500Y0212500
X0809000
X0792000
X0817500Y0175000
X0825000Y0172500
X0815000Y0161500
X0772500Y0196750
Y0200750
Y0205000
X0768250
X0768750Y0211500
X0763500
X0761750Y0206500
X0735000Y0205750
Y0209000
X0730750
X0731500Y0205750
X0735000Y0202000
X0739500Y0213000
X0715500Y0213250
X0701500Y0227000
X0706250Y0173500
X0710500
X0714250
X0718000
X0721750
X0725500
Y0169000
X0721750
X0718000
X0714250
X0710500
X0706250
X0706500Y0161500
X0710500
X0715000
X0719000
X0702000
X0646500Y0175500
X0643625Y0178375
X0640750Y0181250
X0638000Y0184000
X0635000Y0187000
X0632250Y0189750
X0644750Y0212250
X0731500Y0262000
T04
X0904500Y0167000
X0924667Y0279941
Y0291752
Y0303563
X0924500Y0315500
T06
X0592000Y0140000
X0602000
X0630500Y0120000
X0660500
X0680500
X0821000Y0128500
X0831000
X0841000
X0916284Y0156000
X0926126
X0934000
X0943843
X1188500Y0160250
X1198500
Y0170250
Y0180250
Y0190250
Y0200250
X1188500
Y0190250
Y0180250
Y0170250
X1027000Y0180000
X1024972Y0208032
X1016980
X1020976Y0218032
X1012984
X1028969
X0993004Y0208032
X0985012
X0982984Y0180000
X0977250Y0260750
X0967250
X0957250
X0947250
X0960000Y0289750
X0970000
X0980000
Y0299750
X0970000
X0960000
X1027500Y0301250
Y0311250
X1037500
Y0301250
X1017250Y0260750
X1007250
X0997250
X0710500Y0200000
X0670500
X0630500
X0602000Y0197500
X0592000
Y0207500
Y0217500
Y0227500
Y0237500
Y0247500
Y0257500
Y0267500
Y0277500
Y0287500
Y0297500
Y0307500
X0602000
Y0297500
Y0287500
Y0277500
Y0267500
Y0257500
Y0247500
Y0237500
Y0227500
Y0217500
Y0207500
Y0187500
Y0177500
X0592000
Y0187500
Y0167500
X0602000
X1027500Y0321250
Y0331250
Y0341250
X1037500
Y0331250
Y0321250
T07
X0980996Y0228031
X0990996
X1018988
X1028988
T08
X0973240Y0135512
X1036744
T09
X0600248Y0121295
X1198673
X1143000Y0163000
X0600248Y0345705
X0801035Y0345705
X0997886
X1143000Y0345705
X1198673
T10
X0642980Y0120000
X0697980
X0904197Y0145331
X0955929
X0697980Y0200000
X0642980
T11
X0979992Y0148031
X1029992
M30
