G04 Layer_Color=65535*
%FSAX25Y25*%
%MOIN*%
G70*
G01*
G75*
%ADD36C,0.00984*%
%ADD37C,0.00800*%
%ADD91C,0.02362*%
%ADD92C,0.03000*%
%ADD93C,0.00787*%
%ADD94C,0.00394*%
%ADD95C,0.01000*%
%ADD96C,0.00500*%
D36*
X0827039Y0142732D02*
G03*
X0827039Y0142732I-0000492J0000000D01*
G01*
X0836039D02*
G03*
X0836039Y0142732I-0000492J0000000D01*
G01*
X0782760Y0140047D02*
G03*
X0782760Y0140047I-0000492J0000000D01*
G01*
X0726492Y0111500D02*
G03*
X0726492Y0111500I-0000492J0000000D01*
G01*
X0850079Y0149437D02*
G03*
X0850079Y0149437I-0000492J0000000D01*
G01*
X0791732Y0189693D02*
G03*
X0791732Y0189693I-0000492J0000000D01*
G01*
X0819992Y0161500D02*
G03*
X0819992Y0161500I-0000492J0000000D01*
G01*
X0759071Y0168405D02*
G03*
X0759071Y0168405I-0000492J0000000D01*
G01*
D37*
X0587500Y0315500D02*
Y0314451D01*
Y0314975D01*
X0590649D01*
X0590124Y0315500D01*
X1023500Y0349750D02*
Y0348700D01*
Y0349225D01*
X1026649D01*
X1026124Y0349750D01*
D91*
X0635421Y0212028D02*
G03*
X0635421Y0212028I-0001181J0000000D01*
G01*
X0800591Y0185165D02*
G03*
X0800591Y0185165I-0001181J0000000D01*
G01*
D92*
X0924164Y0259000D02*
G03*
X0924164Y0259000I-0001414J0000000D01*
G01*
D93*
X0611144Y0109250D02*
G03*
X0611144Y0109250I-0000394J0000000D01*
G01*
X0780358Y0127469D02*
X0783705D01*
X0780358Y0105028D02*
Y0127469D01*
Y0105028D02*
X0812642D01*
Y0127469D01*
X0809295D02*
X0812642D01*
X0904553Y0338720D02*
X0904947D01*
X0904553Y0341280D02*
X0904947D01*
X1209130Y0174030D02*
Y0185841D01*
X1174091Y0140171D02*
Y0220486D01*
X1211098D01*
Y0140171D02*
Y0220486D01*
X1174091Y0140171D02*
X1211098D01*
X0758606Y0142122D02*
X0759394D01*
X0758606Y0144878D02*
X0759394D01*
X1007100Y0283356D02*
Y0284144D01*
X1013400Y0283356D02*
Y0284144D01*
X1036900Y0271671D02*
Y0272459D01*
X1030600Y0271671D02*
Y0272459D01*
X0894106Y0341378D02*
X0894894D01*
X0894106Y0338622D02*
X0894894D01*
X1025856Y0285850D02*
X1026644D01*
X1025856Y0292150D02*
X1026644D01*
X0764856Y0116350D02*
X0765644D01*
X0764856Y0122650D02*
X0765644D01*
X0937606Y0208122D02*
X0938394D01*
X0937606Y0210878D02*
X0938394D01*
X0937606Y0217122D02*
X0938394D01*
X0937606Y0219878D02*
X0938394D01*
X0937606Y0191622D02*
X0938394D01*
X0937606Y0194378D02*
X0938394D01*
X0940878Y0227106D02*
Y0227894D01*
X0938122Y0227106D02*
Y0227894D01*
X0943606Y0179878D02*
X0944394D01*
X0943606Y0177122D02*
X0944394D01*
X0943606Y0185378D02*
X0944394D01*
X0943606Y0182622D02*
X0944394D01*
X0873606Y0127622D02*
X0874394D01*
X0873606Y0130378D02*
X0874394D01*
X0890122Y0158961D02*
Y0159748D01*
X0892878Y0158961D02*
Y0159748D01*
X0873606Y0133122D02*
X0874394D01*
X0873606Y0135878D02*
X0874394D01*
X0913378Y0186106D02*
Y0186894D01*
X0910622Y0186106D02*
Y0186894D01*
X0907878Y0186106D02*
Y0186894D01*
X0905122Y0186106D02*
Y0186894D01*
X0873606Y0142622D02*
X0874394D01*
X0873606Y0145378D02*
X0874394D01*
X0864622Y0144106D02*
Y0144894D01*
X0867378Y0144106D02*
Y0144894D01*
X0859122Y0144106D02*
Y0144894D01*
X0861878Y0144106D02*
Y0144894D01*
X0862606Y0132378D02*
X0863394D01*
X0862606Y0129622D02*
X0863394D01*
X0831878Y0173606D02*
Y0174394D01*
X0829122Y0173606D02*
Y0174394D01*
X0826378Y0179106D02*
Y0179894D01*
X0823622Y0179106D02*
Y0179894D01*
X0862606Y0137878D02*
X0863394D01*
X0862606Y0135122D02*
X0863394D01*
X0817606Y0167878D02*
X0818394D01*
X0817606Y0165122D02*
X0818394D01*
X0816378Y0154106D02*
Y0154894D01*
X0813622Y0154106D02*
Y0154894D01*
X0810878Y0154106D02*
Y0154894D01*
X0808122Y0154106D02*
Y0154894D01*
X0808122Y0164606D02*
Y0165394D01*
X0810878Y0164606D02*
Y0165394D01*
X0884803Y0130280D02*
X0885197D01*
X0884803Y0127720D02*
X0885197D01*
X0885803Y0135780D02*
X0886197D01*
X0885803Y0133221D02*
X0886197D01*
X0885803Y0141279D02*
X0886197D01*
X0885803Y0138721D02*
X0886197D01*
X0801106Y0194378D02*
X0801894D01*
X0801106Y0191622D02*
X0801894D01*
X0938461Y0165622D02*
X0939248D01*
X0938461Y0168378D02*
X0939248D01*
X0886091Y0216673D02*
X0898492D01*
Y0243642D01*
X0886091D02*
X0898492D01*
X0618964Y0216673D02*
X0631366D01*
X0618964D02*
Y0243642D01*
X0631366D01*
X0631366D01*
X0631366Y0250886D02*
X0631366D01*
X0631366Y0243642D02*
Y0250886D01*
X0886051Y0243642D02*
X0886091D01*
X0886051D02*
Y0250886D01*
X0958095Y0104976D02*
Y0161472D01*
X0901795D02*
X0958095D01*
X0901795Y0104976D02*
Y0161472D01*
Y0104976D02*
X0958095D01*
X0615878Y0114606D02*
Y0115394D01*
X0613122Y0114606D02*
Y0115394D01*
X0813106Y0142878D02*
X0813894D01*
X0813106Y0140122D02*
X0813894D01*
X1046650Y0271671D02*
Y0272459D01*
X1040350Y0271671D02*
Y0272459D01*
X0804917Y0160303D02*
Y0160697D01*
X0802083Y0160303D02*
Y0160697D01*
X0842667Y0105167D02*
Y0118500D01*
X0841000Y0103500D02*
X0842667Y0105167D01*
X0839333D02*
X0841000Y0103500D01*
X0839333Y0105167D02*
Y0118500D01*
X0832667Y0105167D02*
Y0118500D01*
X0831000Y0103500D02*
X0832667Y0105167D01*
X0829333D02*
X0831000Y0103500D01*
X0829333Y0105167D02*
Y0118500D01*
X0822667Y0105167D02*
Y0118500D01*
X0821000Y0103500D02*
X0822667Y0105167D01*
X0819333D02*
X0821000Y0103500D01*
X0819333Y0105167D02*
Y0118500D01*
X0816000Y0123500D02*
X0846000D01*
X0816000Y0118500D02*
Y0123500D01*
X0846000Y0118500D02*
Y0123500D01*
X0816000Y0118500D02*
X0846000D01*
X0587000Y0135000D02*
X0607000D01*
Y0145000D01*
X0587000D02*
X0607000D01*
X0587000Y0135000D02*
Y0145000D01*
X0999685Y0276128D02*
Y0311561D01*
X0939843D02*
X0999685D01*
X0939843Y0276128D02*
Y0311561D01*
Y0276128D02*
X0999685D01*
X0964252Y0309593D02*
X0976063D01*
X0587000Y0312500D02*
X0607000D01*
Y0162500D02*
Y0312500D01*
X0587000Y0162500D02*
Y0312500D01*
Y0162500D02*
X0607000D01*
X1042500Y0296250D02*
Y0346250D01*
X1022500Y0296250D02*
X1042500D01*
X1022500D02*
Y0346250D01*
X1042500D01*
X0826153Y0138205D02*
Y0140173D01*
X0827138D01*
X0832847Y0138205D02*
Y0140173D01*
X0831862D02*
X0832847D01*
X0835153Y0138205D02*
Y0140173D01*
X0836138D01*
X0841846Y0138205D02*
Y0140173D01*
X0840862D02*
X0841846D01*
X0784827Y0139654D02*
X0786795D01*
X0784827D02*
Y0140638D01*
Y0146346D02*
X0786795D01*
X0784827Y0145362D02*
Y0146346D01*
X0738850Y0186856D02*
Y0187644D01*
X0745150Y0186856D02*
Y0187644D01*
X0613221Y0125303D02*
Y0125697D01*
X0615779Y0125303D02*
Y0125697D01*
X0740856Y0129150D02*
X0741644D01*
X0740856Y0122850D02*
X0741644D01*
X0758803Y0150279D02*
X0759197D01*
X0758803Y0147721D02*
X0759197D01*
X0760356Y0194100D02*
X0761144D01*
X0760356Y0200400D02*
X0761144D01*
X0609721Y0239803D02*
Y0240197D01*
X0612280Y0239803D02*
Y0240197D01*
Y0229303D02*
Y0229697D01*
X0609721Y0229303D02*
Y0229697D01*
X0802803Y0140220D02*
X0803197D01*
X0802803Y0142780D02*
X0803197D01*
X0819303Y0137279D02*
X0819697D01*
X0819303Y0134721D02*
X0819697D01*
X0809157D02*
X0809551D01*
X0809157Y0137279D02*
X0809551D01*
X0589470Y0321803D02*
Y0322197D01*
X0592029Y0321803D02*
Y0322197D01*
X0595221Y0321803D02*
Y0322197D01*
X0597780Y0321803D02*
Y0322197D01*
X0894053Y0332970D02*
X0894447D01*
X0894053Y0335529D02*
X0894447D01*
X0890720Y0326053D02*
Y0326447D01*
X0893279Y0326053D02*
Y0326447D01*
X0823803Y0210720D02*
X0824197D01*
X0823803Y0213280D02*
X0824197D01*
X0823803Y0205221D02*
X0824197D01*
X0823803Y0207780D02*
X0824197D01*
X0823803Y0193720D02*
X0824197D01*
X0823803Y0196280D02*
X0824197D01*
X0823803Y0199221D02*
X0824197D01*
X0823803Y0201780D02*
X0824197D01*
X0956053Y0330971D02*
X0956447D01*
X0956053Y0333529D02*
X0956447D01*
X0956053Y0325470D02*
X0956447D01*
X0956053Y0328029D02*
X0956447D01*
X0613779Y0261803D02*
Y0262197D01*
X0611221Y0261803D02*
Y0262197D01*
X0614720Y0174803D02*
Y0175197D01*
X0617279Y0174803D02*
Y0175197D01*
X0611779Y0174803D02*
Y0175197D01*
X0609221Y0174803D02*
Y0175197D01*
X0921303Y0176221D02*
X0921697D01*
X0921303Y0178779D02*
X0921697D01*
X0921303Y0181720D02*
X0921697D01*
X0921303Y0184280D02*
X0921697D01*
X0948303Y0210780D02*
X0948697D01*
X0948303Y0208221D02*
X0948697D01*
X0948303Y0219779D02*
X0948697D01*
X0948303Y0217220D02*
X0948697D01*
X0948303Y0194280D02*
X0948697D01*
X0948303Y0191720D02*
X0948697D01*
X0948303Y0203279D02*
X0948697D01*
X0948303Y0200721D02*
X0948697D01*
X0935279Y0227303D02*
Y0227697D01*
X0932720Y0227303D02*
Y0227697D01*
X0927779Y0190803D02*
Y0191197D01*
X0925220Y0190803D02*
Y0191197D01*
X0953303Y0231279D02*
X0953697D01*
X0953303Y0228720D02*
X0953697D01*
X0953303Y0223220D02*
X0953697D01*
X0953303Y0225780D02*
X0953697D01*
X0821303Y0186721D02*
X0821697D01*
X0821303Y0189279D02*
X0821697D01*
X0901803Y0177220D02*
X0902197D01*
X0901803Y0179780D02*
X0902197D01*
X0841280Y0149803D02*
Y0150197D01*
X0838721Y0149803D02*
Y0150197D01*
X0898779Y0162803D02*
Y0163197D01*
X0896220Y0162803D02*
Y0163197D01*
X0786303Y0153279D02*
X0786697D01*
X0786303Y0150721D02*
X0786697D01*
X0786803Y0133721D02*
X0787197D01*
X0786803Y0136279D02*
X0787197D01*
X0619319Y0108819D02*
Y0211181D01*
X0721681D01*
Y0108819D02*
Y0211181D01*
X0619319Y0108819D02*
X0721681D01*
X0884823Y0151996D02*
X0886004Y0153177D01*
X0884823Y0189004D02*
X0886004Y0187823D01*
X0848996D02*
X0850177Y0189004D01*
X0848996Y0153177D02*
X0850177Y0151996D01*
X0886004Y0153177D02*
Y0153669D01*
X0884331Y0151996D02*
X0884823D01*
X0886004Y0187331D02*
Y0187823D01*
X0884331Y0189004D02*
X0884823D01*
X0850177D02*
X0850669D01*
X0848996Y0187331D02*
Y0187823D01*
Y0153177D02*
Y0153669D01*
X0850177Y0151996D02*
X0850669D01*
X0795472Y0176898D02*
X0804528D01*
X0795472Y0189102D02*
X0804528D01*
Y0176898D02*
Y0189102D01*
X0795472Y0176898D02*
Y0189102D01*
X0821701Y0146232D02*
Y0162768D01*
X0834299D01*
Y0146232D02*
Y0162768D01*
X0821701Y0146232D02*
X0834299D01*
X0937606Y0200622D02*
X0938394D01*
X0937606Y0203378D02*
X0938394D01*
X1038356Y0259715D02*
X1039144D01*
X1038356Y0253415D02*
X1039144D01*
X0756906Y0156595D02*
Y0168405D01*
X0745094Y0156595D02*
Y0168405D01*
X0873870Y0124667D02*
X0874264D01*
X0873870Y0121833D02*
X0874264D01*
X0919250Y0340500D02*
Y0337351D01*
X0917676D01*
X0917151Y0337876D01*
Y0338926D01*
X0917676Y0339451D01*
X0919250D01*
X0918200D02*
X0917151Y0340500D01*
X0914527D02*
Y0337351D01*
X0916101Y0338926D01*
X0914002D01*
X0912953Y0337876D02*
X0912428Y0337351D01*
X0911378D01*
X0910854Y0337876D01*
Y0338401D01*
X0911378Y0338926D01*
X0910854Y0339451D01*
Y0339975D01*
X0911378Y0340500D01*
X0912428D01*
X0912953Y0339975D01*
Y0339451D01*
X0912428Y0338926D01*
X0912953Y0338401D01*
Y0337876D01*
X0912428Y0338926D02*
X0911378D01*
X1179750Y0133326D02*
X1176601D01*
Y0134901D01*
X1177126Y0135425D01*
X1178176D01*
X1178701Y0134901D01*
Y0133326D01*
X1179750Y0138049D02*
X1176601D01*
X1178176Y0136475D01*
Y0138574D01*
X0743099Y0213874D02*
X0742574Y0214399D01*
X0741525D01*
X0741000Y0213874D01*
Y0211775D01*
X0741525Y0211250D01*
X0742574D01*
X0743099Y0211775D01*
X0744149Y0211250D02*
X0745198D01*
X0744673D01*
Y0214399D01*
X0744149Y0213874D01*
X0767349Y0139624D02*
X0766824Y0140149D01*
X0765775D01*
X0765250Y0139624D01*
Y0137525D01*
X0765775Y0137000D01*
X0766824D01*
X0767349Y0137525D01*
X0770498Y0137000D02*
X0768399D01*
X0770498Y0139099D01*
Y0139624D01*
X0769973Y0140149D01*
X0768923D01*
X0768399Y0139624D01*
X0761876Y0129099D02*
X0761351Y0128574D01*
Y0127525D01*
X0761876Y0127000D01*
X0763975D01*
X0764500Y0127525D01*
Y0128574D01*
X0763975Y0129099D01*
X0761876Y0130149D02*
X0761351Y0130673D01*
Y0131723D01*
X0761876Y0132248D01*
X0762401D01*
X0762926Y0131723D01*
Y0131198D01*
Y0131723D01*
X0763450Y0132248D01*
X0763975D01*
X0764500Y0131723D01*
Y0130673D01*
X0763975Y0130149D01*
X0778099Y0159874D02*
X0777574Y0160399D01*
X0776525D01*
X0776000Y0159874D01*
Y0157775D01*
X0776525Y0157250D01*
X0777574D01*
X0778099Y0157775D01*
X0780723Y0157250D02*
Y0160399D01*
X0779149Y0158824D01*
X0781248D01*
X0767349Y0135374D02*
X0766824Y0135899D01*
X0765775D01*
X0765250Y0135374D01*
Y0133275D01*
X0765775Y0132750D01*
X0766824D01*
X0767349Y0133275D01*
X0770498Y0135899D02*
X0768399D01*
Y0134324D01*
X0769448Y0134849D01*
X0769973D01*
X0770498Y0134324D01*
Y0133275D01*
X0769973Y0132750D01*
X0768923D01*
X0768399Y0133275D01*
X0739099Y0166874D02*
X0738574Y0167399D01*
X0737525D01*
X0737000Y0166874D01*
Y0164775D01*
X0737525Y0164250D01*
X0738574D01*
X0739099Y0164775D01*
X0742248Y0167399D02*
X0741198Y0166874D01*
X0740149Y0165824D01*
Y0164775D01*
X0740673Y0164250D01*
X0741723D01*
X0742248Y0164775D01*
Y0165299D01*
X0741723Y0165824D01*
X0740149D01*
X0725349Y0166374D02*
X0724824Y0166899D01*
X0723775D01*
X0723250Y0166374D01*
Y0164275D01*
X0723775Y0163750D01*
X0724824D01*
X0725349Y0164275D01*
X0726399Y0166899D02*
X0728498D01*
Y0166374D01*
X0726399Y0164275D01*
Y0163750D01*
X0756099Y0214124D02*
X0755574Y0214649D01*
X0754525D01*
X0754000Y0214124D01*
Y0212025D01*
X0754525Y0211500D01*
X0755574D01*
X0756099Y0212025D01*
X0757149Y0214124D02*
X0757673Y0214649D01*
X0758723D01*
X0759248Y0214124D01*
Y0213599D01*
X0758723Y0213074D01*
X0759248Y0212549D01*
Y0212025D01*
X0758723Y0211500D01*
X0757673D01*
X0757149Y0212025D01*
Y0212549D01*
X0757673Y0213074D01*
X0757149Y0213599D01*
Y0214124D01*
X0757673Y0213074D02*
X0758723D01*
X0725349Y0162124D02*
X0724824Y0162649D01*
X0723775D01*
X0723250Y0162124D01*
Y0160025D01*
X0723775Y0159500D01*
X0724824D01*
X0725349Y0160025D01*
X0726399D02*
X0726923Y0159500D01*
X0727973D01*
X0728498Y0160025D01*
Y0162124D01*
X0727973Y0162649D01*
X0726923D01*
X0726399Y0162124D01*
Y0161599D01*
X0726923Y0161074D01*
X0728498D01*
X0725099Y0136624D02*
X0724574Y0137149D01*
X0723525D01*
X0723000Y0136624D01*
Y0134525D01*
X0723525Y0134000D01*
X0724574D01*
X0725099Y0134525D01*
X0726149Y0134000D02*
X0727198D01*
X0726673D01*
Y0137149D01*
X0726149Y0136624D01*
X0730347Y0134000D02*
Y0137149D01*
X0728772Y0135574D01*
X0730871D01*
X1006849Y0297624D02*
X1006324Y0298149D01*
X1005275D01*
X1004750Y0297624D01*
Y0295525D01*
X1005275Y0295000D01*
X1006324D01*
X1006849Y0295525D01*
X1007899Y0295000D02*
X1008948D01*
X1008423D01*
Y0298149D01*
X1007899Y0297624D01*
X1012621Y0298149D02*
X1010522D01*
Y0296574D01*
X1011572Y0297099D01*
X1012097D01*
X1012621Y0296574D01*
Y0295525D01*
X1012097Y0295000D01*
X1011047D01*
X1010522Y0295525D01*
X1021849Y0280624D02*
X1021324Y0281149D01*
X1020275D01*
X1019750Y0280624D01*
Y0278525D01*
X1020275Y0278000D01*
X1021324D01*
X1021849Y0278525D01*
X1022899Y0278000D02*
X1023948D01*
X1023423D01*
Y0281149D01*
X1022899Y0280624D01*
X1025522Y0281149D02*
X1027621D01*
Y0280624D01*
X1025522Y0278525D01*
Y0278000D01*
X0878099Y0341124D02*
X0877574Y0341649D01*
X0876525D01*
X0876000Y0341124D01*
Y0339025D01*
X0876525Y0338500D01*
X0877574D01*
X0878099Y0339025D01*
X0879149Y0338500D02*
X0880198D01*
X0879673D01*
Y0341649D01*
X0879149Y0341124D01*
X0881772D02*
X0882297Y0341649D01*
X0883347D01*
X0883871Y0341124D01*
Y0340599D01*
X0883347Y0340074D01*
X0883871Y0339549D01*
Y0339025D01*
X0883347Y0338500D01*
X0882297D01*
X0881772Y0339025D01*
Y0339549D01*
X0882297Y0340074D01*
X0881772Y0340599D01*
Y0341124D01*
X0882297Y0340074D02*
X0883347D01*
X1039099Y0293874D02*
X1038574Y0294399D01*
X1037525D01*
X1037000Y0293874D01*
Y0291775D01*
X1037525Y0291250D01*
X1038574D01*
X1039099Y0291775D01*
X1040149Y0291250D02*
X1041198D01*
X1040673D01*
Y0294399D01*
X1040149Y0293874D01*
X1042772Y0291775D02*
X1043297Y0291250D01*
X1044347D01*
X1044872Y0291775D01*
Y0293874D01*
X1044347Y0294399D01*
X1043297D01*
X1042772Y0293874D01*
Y0293349D01*
X1043297Y0292824D01*
X1044872D01*
X0749599Y0114874D02*
X0749074Y0115399D01*
X0748025D01*
X0747500Y0114874D01*
Y0112775D01*
X0748025Y0112250D01*
X0749074D01*
X0749599Y0112775D01*
X0752748Y0112250D02*
X0750649D01*
X0752748Y0114349D01*
Y0114874D01*
X0752223Y0115399D01*
X0751173D01*
X0750649Y0114874D01*
X0753797D02*
X0754322Y0115399D01*
X0755372D01*
X0755896Y0114874D01*
Y0112775D01*
X0755372Y0112250D01*
X0754322D01*
X0753797Y0112775D01*
Y0114874D01*
X0730099Y0174874D02*
X0729574Y0175399D01*
X0728525D01*
X0728000Y0174874D01*
Y0172775D01*
X0728525Y0172250D01*
X0729574D01*
X0730099Y0172775D01*
X0733248Y0172250D02*
X0731149D01*
X0733248Y0174349D01*
Y0174874D01*
X0732723Y0175399D01*
X0731673D01*
X0731149Y0174874D01*
X0734297Y0172250D02*
X0735347D01*
X0734822D01*
Y0175399D01*
X0734297Y0174874D01*
X0725349Y0195124D02*
X0724824Y0195649D01*
X0723775D01*
X0723250Y0195124D01*
Y0193025D01*
X0723775Y0192500D01*
X0724824D01*
X0725349Y0193025D01*
X0728498Y0192500D02*
X0726399D01*
X0728498Y0194599D01*
Y0195124D01*
X0727973Y0195649D01*
X0726923D01*
X0726399Y0195124D01*
X0731646Y0192500D02*
X0729547D01*
X0731646Y0194599D01*
Y0195124D01*
X0731121Y0195649D01*
X0730072D01*
X0729547Y0195124D01*
X0925599Y0212374D02*
X0925074Y0212899D01*
X0924025D01*
X0923500Y0212374D01*
Y0210275D01*
X0924025Y0209750D01*
X0925074D01*
X0925599Y0210275D01*
X0928748Y0209750D02*
X0926649D01*
X0928748Y0211849D01*
Y0212374D01*
X0928223Y0212899D01*
X0927173D01*
X0926649Y0212374D01*
X0929797D02*
X0930322Y0212899D01*
X0931371D01*
X0931896Y0212374D01*
Y0211849D01*
X0931371Y0211324D01*
X0930847D01*
X0931371D01*
X0931896Y0210800D01*
Y0210275D01*
X0931371Y0209750D01*
X0930322D01*
X0929797Y0210275D01*
X0927099Y0216624D02*
X0926574Y0217149D01*
X0925525D01*
X0925000Y0216624D01*
Y0214525D01*
X0925525Y0214000D01*
X0926574D01*
X0927099Y0214525D01*
X0930248Y0214000D02*
X0928149D01*
X0930248Y0216099D01*
Y0216624D01*
X0929723Y0217149D01*
X0928673D01*
X0928149Y0216624D01*
X0932872Y0214000D02*
Y0217149D01*
X0931297Y0215574D01*
X0933396D01*
X0941849Y0189624D02*
X0941324Y0190149D01*
X0940275D01*
X0939750Y0189624D01*
Y0187525D01*
X0940275Y0187000D01*
X0941324D01*
X0941849Y0187525D01*
X0944998Y0187000D02*
X0942899D01*
X0944998Y0189099D01*
Y0189624D01*
X0944473Y0190149D01*
X0943423D01*
X0942899Y0189624D01*
X0948146Y0190149D02*
X0946047D01*
Y0188574D01*
X0947097Y0189099D01*
X0947622D01*
X0948146Y0188574D01*
Y0187525D01*
X0947622Y0187000D01*
X0946572D01*
X0946047Y0187525D01*
X0927626Y0227099D02*
X0927101Y0226574D01*
Y0225525D01*
X0927626Y0225000D01*
X0929725D01*
X0930250Y0225525D01*
Y0226574D01*
X0929725Y0227099D01*
X0930250Y0230248D02*
Y0228149D01*
X0928151Y0230248D01*
X0927626D01*
X0927101Y0229723D01*
Y0228673D01*
X0927626Y0228149D01*
X0927101Y0231297D02*
Y0233396D01*
X0927626D01*
X0929725Y0231297D01*
X0930250D01*
X0953099Y0179124D02*
X0952574Y0179649D01*
X0951525D01*
X0951000Y0179124D01*
Y0177025D01*
X0951525Y0176500D01*
X0952574D01*
X0953099Y0177025D01*
X0956248Y0176500D02*
X0954149D01*
X0956248Y0178599D01*
Y0179124D01*
X0955723Y0179649D01*
X0954673D01*
X0954149Y0179124D01*
X0957297D02*
X0957822Y0179649D01*
X0958871D01*
X0959396Y0179124D01*
Y0178599D01*
X0958871Y0178074D01*
X0959396Y0177550D01*
Y0177025D01*
X0958871Y0176500D01*
X0957822D01*
X0957297Y0177025D01*
Y0177550D01*
X0957822Y0178074D01*
X0957297Y0178599D01*
Y0179124D01*
X0957822Y0178074D02*
X0958871D01*
X0953099Y0185124D02*
X0952574Y0185649D01*
X0951525D01*
X0951000Y0185124D01*
Y0183025D01*
X0951525Y0182500D01*
X0952574D01*
X0953099Y0183025D01*
X0956248Y0182500D02*
X0954149D01*
X0956248Y0184599D01*
Y0185124D01*
X0955723Y0185649D01*
X0954673D01*
X0954149Y0185124D01*
X0957297Y0183025D02*
X0957822Y0182500D01*
X0958871D01*
X0959396Y0183025D01*
Y0185124D01*
X0958871Y0185649D01*
X0957822D01*
X0957297Y0185124D01*
Y0184599D01*
X0957822Y0184074D01*
X0959396D01*
X0873099Y0109874D02*
X0872574Y0110399D01*
X0871525D01*
X0871000Y0109874D01*
Y0107775D01*
X0871525Y0107250D01*
X0872574D01*
X0873099Y0107775D01*
X0874149Y0109874D02*
X0874673Y0110399D01*
X0875723D01*
X0876248Y0109874D01*
Y0109349D01*
X0875723Y0108824D01*
X0875198D01*
X0875723D01*
X0876248Y0108300D01*
Y0107775D01*
X0875723Y0107250D01*
X0874673D01*
X0874149Y0107775D01*
X0877297Y0109874D02*
X0877822Y0110399D01*
X0878872D01*
X0879396Y0109874D01*
Y0107775D01*
X0878872Y0107250D01*
X0877822D01*
X0877297Y0107775D01*
Y0109874D01*
X0890126Y0167599D02*
X0889601Y0167074D01*
Y0166025D01*
X0890126Y0165500D01*
X0892225D01*
X0892750Y0166025D01*
Y0167074D01*
X0892225Y0167599D01*
X0890126Y0168649D02*
X0889601Y0169173D01*
Y0170223D01*
X0890126Y0170748D01*
X0890651D01*
X0891176Y0170223D01*
Y0169698D01*
Y0170223D01*
X0891700Y0170748D01*
X0892225D01*
X0892750Y0170223D01*
Y0169173D01*
X0892225Y0168649D01*
X0892750Y0171797D02*
Y0172847D01*
Y0172322D01*
X0889601D01*
X0890126Y0171797D01*
X0872349Y0115124D02*
X0871824Y0115649D01*
X0870775D01*
X0870250Y0115124D01*
Y0113025D01*
X0870775Y0112500D01*
X0871824D01*
X0872349Y0113025D01*
X0873399Y0115124D02*
X0873923Y0115649D01*
X0874973D01*
X0875498Y0115124D01*
Y0114599D01*
X0874973Y0114074D01*
X0874448D01*
X0874973D01*
X0875498Y0113549D01*
Y0113025D01*
X0874973Y0112500D01*
X0873923D01*
X0873399Y0113025D01*
X0878646Y0112500D02*
X0876547D01*
X0878646Y0114599D01*
Y0115124D01*
X0878121Y0115649D01*
X0877072D01*
X0876547Y0115124D01*
X0910599Y0194624D02*
X0910074Y0195149D01*
X0909025D01*
X0908500Y0194624D01*
Y0192525D01*
X0909025Y0192000D01*
X0910074D01*
X0910599Y0192525D01*
X0911649Y0194624D02*
X0912173Y0195149D01*
X0913223D01*
X0913748Y0194624D01*
Y0194099D01*
X0913223Y0193574D01*
X0912698D01*
X0913223D01*
X0913748Y0193050D01*
Y0192525D01*
X0913223Y0192000D01*
X0912173D01*
X0911649Y0192525D01*
X0914797Y0194624D02*
X0915322Y0195149D01*
X0916372D01*
X0916896Y0194624D01*
Y0194099D01*
X0916372Y0193574D01*
X0915847D01*
X0916372D01*
X0916896Y0193050D01*
Y0192525D01*
X0916372Y0192000D01*
X0915322D01*
X0914797Y0192525D01*
X0901099Y0194624D02*
X0900574Y0195149D01*
X0899525D01*
X0899000Y0194624D01*
Y0192525D01*
X0899525Y0192000D01*
X0900574D01*
X0901099Y0192525D01*
X0902149Y0194624D02*
X0902673Y0195149D01*
X0903723D01*
X0904248Y0194624D01*
Y0194099D01*
X0903723Y0193574D01*
X0903198D01*
X0903723D01*
X0904248Y0193050D01*
Y0192525D01*
X0903723Y0192000D01*
X0902673D01*
X0902149Y0192525D01*
X0906872Y0192000D02*
Y0195149D01*
X0905297Y0193574D01*
X0907396D01*
X0872349Y0119624D02*
X0871824Y0120149D01*
X0870775D01*
X0870250Y0119624D01*
Y0117525D01*
X0870775Y0117000D01*
X0871824D01*
X0872349Y0117525D01*
X0873399Y0119624D02*
X0873923Y0120149D01*
X0874973D01*
X0875498Y0119624D01*
Y0119099D01*
X0874973Y0118574D01*
X0874448D01*
X0874973D01*
X0875498Y0118050D01*
Y0117525D01*
X0874973Y0117000D01*
X0873923D01*
X0873399Y0117525D01*
X0878646Y0120149D02*
X0876547D01*
Y0118574D01*
X0877597Y0119099D01*
X0878121D01*
X0878646Y0118574D01*
Y0117525D01*
X0878121Y0117000D01*
X0877072D01*
X0876547Y0117525D01*
X0866126Y0119349D02*
X0865601Y0118824D01*
Y0117775D01*
X0866126Y0117250D01*
X0868225D01*
X0868750Y0117775D01*
Y0118824D01*
X0868225Y0119349D01*
X0866126Y0120399D02*
X0865601Y0120923D01*
Y0121973D01*
X0866126Y0122498D01*
X0866651D01*
X0867176Y0121973D01*
Y0121448D01*
Y0121973D01*
X0867700Y0122498D01*
X0868225D01*
X0868750Y0121973D01*
Y0120923D01*
X0868225Y0120399D01*
X0865601Y0125646D02*
X0866126Y0124597D01*
X0867176Y0123547D01*
X0868225D01*
X0868750Y0124072D01*
Y0125121D01*
X0868225Y0125646D01*
X0867700D01*
X0867176Y0125121D01*
Y0123547D01*
X0861995Y0119599D02*
X0861470Y0119074D01*
Y0118025D01*
X0861995Y0117500D01*
X0864094D01*
X0864618Y0118025D01*
Y0119074D01*
X0864094Y0119599D01*
X0861995Y0120649D02*
X0861470Y0121173D01*
Y0122223D01*
X0861995Y0122748D01*
X0862519D01*
X0863044Y0122223D01*
Y0121698D01*
Y0122223D01*
X0863569Y0122748D01*
X0864094D01*
X0864618Y0122223D01*
Y0121173D01*
X0864094Y0120649D01*
X0861470Y0123797D02*
Y0125896D01*
X0861995D01*
X0864094Y0123797D01*
X0864618D01*
X0863599Y0109874D02*
X0863074Y0110399D01*
X0862025D01*
X0861500Y0109874D01*
Y0107775D01*
X0862025Y0107250D01*
X0863074D01*
X0863599Y0107775D01*
X0864649Y0109874D02*
X0865173Y0110399D01*
X0866223D01*
X0866748Y0109874D01*
Y0109349D01*
X0866223Y0108824D01*
X0865698D01*
X0866223D01*
X0866748Y0108300D01*
Y0107775D01*
X0866223Y0107250D01*
X0865173D01*
X0864649Y0107775D01*
X0867797Y0109874D02*
X0868322Y0110399D01*
X0869372D01*
X0869896Y0109874D01*
Y0109349D01*
X0869372Y0108824D01*
X0869896Y0108300D01*
Y0107775D01*
X0869372Y0107250D01*
X0868322D01*
X0867797Y0107775D01*
Y0108300D01*
X0868322Y0108824D01*
X0867797Y0109349D01*
Y0109874D01*
X0868322Y0108824D02*
X0869372D01*
X0836599Y0179124D02*
X0836074Y0179649D01*
X0835025D01*
X0834500Y0179124D01*
Y0177025D01*
X0835025Y0176500D01*
X0836074D01*
X0836599Y0177025D01*
X0837649Y0179124D02*
X0838173Y0179649D01*
X0839223D01*
X0839748Y0179124D01*
Y0178599D01*
X0839223Y0178074D01*
X0838698D01*
X0839223D01*
X0839748Y0177550D01*
Y0177025D01*
X0839223Y0176500D01*
X0838173D01*
X0837649Y0177025D01*
X0840797D02*
X0841322Y0176500D01*
X0842371D01*
X0842896Y0177025D01*
Y0179124D01*
X0842371Y0179649D01*
X0841322D01*
X0840797Y0179124D01*
Y0178599D01*
X0841322Y0178074D01*
X0842896D01*
X0828876Y0181599D02*
X0828351Y0181074D01*
Y0180025D01*
X0828876Y0179500D01*
X0830975D01*
X0831500Y0180025D01*
Y0181074D01*
X0830975Y0181599D01*
X0831500Y0184223D02*
X0828351D01*
X0829926Y0182649D01*
Y0184748D01*
X0828876Y0185797D02*
X0828351Y0186322D01*
Y0187372D01*
X0828876Y0187896D01*
X0830975D01*
X0831500Y0187372D01*
Y0186322D01*
X0830975Y0185797D01*
X0828876D01*
X0863599Y0115124D02*
X0863074Y0115649D01*
X0862025D01*
X0861500Y0115124D01*
Y0113025D01*
X0862025Y0112500D01*
X0863074D01*
X0863599Y0113025D01*
X0866223Y0112500D02*
Y0115649D01*
X0864649Y0114074D01*
X0866748D01*
X0867797Y0112500D02*
X0868847D01*
X0868322D01*
Y0115649D01*
X0867797Y0115124D01*
X0825599Y0168124D02*
X0825074Y0168649D01*
X0824025D01*
X0823500Y0168124D01*
Y0166025D01*
X0824025Y0165500D01*
X0825074D01*
X0825599Y0166025D01*
X0828223Y0165500D02*
Y0168649D01*
X0826649Y0167074D01*
X0828748D01*
X0831896Y0165500D02*
X0829797D01*
X0831896Y0167599D01*
Y0168124D01*
X0831371Y0168649D01*
X0830322D01*
X0829797Y0168124D01*
X0818376Y0152349D02*
X0817851Y0151824D01*
Y0150775D01*
X0818376Y0150250D01*
X0820475D01*
X0821000Y0150775D01*
Y0151824D01*
X0820475Y0152349D01*
X0821000Y0154973D02*
X0817851D01*
X0819426Y0153399D01*
Y0155498D01*
X0818376Y0156547D02*
X0817851Y0157072D01*
Y0158122D01*
X0818376Y0158646D01*
X0818901D01*
X0819426Y0158122D01*
Y0157597D01*
Y0158122D01*
X0819950Y0158646D01*
X0820475D01*
X0821000Y0158122D01*
Y0157072D01*
X0820475Y0156547D01*
X0801099Y0154124D02*
X0800574Y0154649D01*
X0799525D01*
X0799000Y0154124D01*
Y0152025D01*
X0799525Y0151500D01*
X0800574D01*
X0801099Y0152025D01*
X0803723Y0151500D02*
Y0154649D01*
X0802149Y0153074D01*
X0804248D01*
X0806872Y0151500D02*
Y0154649D01*
X0805297Y0153074D01*
X0807396D01*
X0810099Y0176124D02*
X0809574Y0176649D01*
X0808525D01*
X0808000Y0176124D01*
Y0174025D01*
X0808525Y0173500D01*
X0809574D01*
X0810099Y0174025D01*
X0812723Y0173500D02*
Y0176649D01*
X0811149Y0175074D01*
X0813248D01*
X0816396Y0176649D02*
X0814297D01*
Y0175074D01*
X0815347Y0175599D01*
X0815872D01*
X0816396Y0175074D01*
Y0174025D01*
X0815872Y0173500D01*
X0814822D01*
X0814297Y0174025D01*
X0882349Y0109874D02*
X0881824Y0110399D01*
X0880775D01*
X0880250Y0109874D01*
Y0107775D01*
X0880775Y0107250D01*
X0881824D01*
X0882349Y0107775D01*
X0884973Y0107250D02*
Y0110399D01*
X0883399Y0108824D01*
X0885498D01*
X0888646Y0110399D02*
X0887597Y0109874D01*
X0886547Y0108824D01*
Y0107775D01*
X0887072Y0107250D01*
X0888122D01*
X0888646Y0107775D01*
Y0108300D01*
X0888122Y0108824D01*
X0886547D01*
X0882349Y0114874D02*
X0881824Y0115399D01*
X0880775D01*
X0880250Y0114874D01*
Y0112775D01*
X0880775Y0112250D01*
X0881824D01*
X0882349Y0112775D01*
X0884973Y0112250D02*
Y0115399D01*
X0883399Y0113824D01*
X0885498D01*
X0886547Y0115399D02*
X0888646D01*
Y0114874D01*
X0886547Y0112775D01*
Y0112250D01*
X0882349Y0119874D02*
X0881824Y0120399D01*
X0880775D01*
X0880250Y0119874D01*
Y0117775D01*
X0880775Y0117250D01*
X0881824D01*
X0882349Y0117775D01*
X0884973Y0117250D02*
Y0120399D01*
X0883399Y0118824D01*
X0885498D01*
X0886547Y0119874D02*
X0887072Y0120399D01*
X0888122D01*
X0888646Y0119874D01*
Y0119349D01*
X0888122Y0118824D01*
X0888646Y0118299D01*
Y0117775D01*
X0888122Y0117250D01*
X0887072D01*
X0886547Y0117775D01*
Y0118299D01*
X0887072Y0118824D01*
X0886547Y0119349D01*
Y0119874D01*
X0887072Y0118824D02*
X0888122D01*
X0790099Y0194624D02*
X0789574Y0195149D01*
X0788525D01*
X0788000Y0194624D01*
Y0192525D01*
X0788525Y0192000D01*
X0789574D01*
X0790099Y0192525D01*
X0792723Y0192000D02*
Y0195149D01*
X0791149Y0193574D01*
X0793248D01*
X0794297Y0192525D02*
X0794822Y0192000D01*
X0795871D01*
X0796396Y0192525D01*
Y0194624D01*
X0795871Y0195149D01*
X0794822D01*
X0794297Y0194624D01*
Y0194099D01*
X0794822Y0193574D01*
X0796396D01*
X0947599Y0168624D02*
X0947074Y0169149D01*
X0946025D01*
X0945500Y0168624D01*
Y0166525D01*
X0946025Y0166000D01*
X0947074D01*
X0947599Y0166525D01*
X0950748Y0169149D02*
X0948649D01*
Y0167574D01*
X0949698Y0168099D01*
X0950223D01*
X0950748Y0167574D01*
Y0166525D01*
X0950223Y0166000D01*
X0949173D01*
X0948649Y0166525D01*
X0951797Y0168624D02*
X0952322Y0169149D01*
X0953372D01*
X0953896Y0168624D01*
Y0166525D01*
X0953372Y0166000D01*
X0952322D01*
X0951797Y0166525D01*
Y0168624D01*
X0903599Y0226124D02*
X0903074Y0226649D01*
X0902025D01*
X0901500Y0226124D01*
Y0224025D01*
X0902025Y0223500D01*
X0903074D01*
X0903599Y0224025D01*
X0906223Y0226649D02*
X0905173D01*
X0904649Y0226124D01*
Y0224025D01*
X0905173Y0223500D01*
X0906223D01*
X0906748Y0224025D01*
Y0226124D01*
X0906223Y0226649D01*
X0907797Y0223500D02*
Y0226649D01*
X0909896Y0223500D01*
Y0226649D01*
X0910946Y0223500D02*
X0911995D01*
X0911471D01*
Y0226649D01*
X0910946Y0226124D01*
X0916749Y0357615D02*
X0916224Y0358139D01*
X0915175D01*
X0914650Y0357615D01*
Y0355516D01*
X0915175Y0354991D01*
X0916224D01*
X0916749Y0355516D01*
X0919373Y0358139D02*
X0918323D01*
X0917799Y0357615D01*
Y0355516D01*
X0918323Y0354991D01*
X0919373D01*
X0919898Y0355516D01*
Y0357615D01*
X0919373Y0358139D01*
X0920947Y0354991D02*
Y0358139D01*
X0923046Y0354991D01*
Y0358139D01*
X0926195Y0354991D02*
X0924096D01*
X0926195Y0357090D01*
Y0357615D01*
X0925670Y0358139D01*
X0924621D01*
X0924096Y0357615D01*
X0771099Y0109624D02*
X0770574Y0110149D01*
X0769525D01*
X0769000Y0109624D01*
Y0107525D01*
X0769525Y0107000D01*
X0770574D01*
X0771099Y0107525D01*
X0773723Y0110149D02*
X0772673D01*
X0772149Y0109624D01*
Y0107525D01*
X0772673Y0107000D01*
X0773723D01*
X0774248Y0107525D01*
Y0109624D01*
X0773723Y0110149D01*
X0775297Y0107000D02*
Y0110149D01*
X0777396Y0107000D01*
Y0110149D01*
X0778446Y0109624D02*
X0778970Y0110149D01*
X0780020D01*
X0780545Y0109624D01*
Y0109099D01*
X0780020Y0108574D01*
X0779495D01*
X0780020D01*
X0780545Y0108049D01*
Y0107525D01*
X0780020Y0107000D01*
X0778970D01*
X0778446Y0107525D01*
X0896876Y0113599D02*
X0896351Y0113074D01*
Y0112025D01*
X0896876Y0111500D01*
X0898975D01*
X0899500Y0112025D01*
Y0113074D01*
X0898975Y0113599D01*
X0896351Y0116223D02*
Y0115173D01*
X0896876Y0114649D01*
X0898975D01*
X0899500Y0115173D01*
Y0116223D01*
X0898975Y0116748D01*
X0896876D01*
X0896351Y0116223D01*
X0899500Y0117797D02*
X0896351D01*
X0899500Y0119896D01*
X0896351D01*
X0899500Y0122520D02*
X0896351D01*
X0897926Y0120946D01*
Y0123045D01*
X0612101Y0136250D02*
X0615250D01*
Y0137824D01*
X0614725Y0138349D01*
X0612626D01*
X0612101Y0137824D01*
Y0136250D01*
X0615250Y0139399D02*
Y0140448D01*
Y0139923D01*
X0612101D01*
X0612626Y0139399D01*
X0810500Y0147649D02*
Y0144500D01*
X0812074D01*
X0812599Y0145025D01*
Y0147124D01*
X0812074Y0147649D01*
X0810500D01*
X0815748Y0144500D02*
X0813649D01*
X0815748Y0146599D01*
Y0147124D01*
X0815223Y0147649D01*
X0814173D01*
X0813649Y0147124D01*
X0739000Y0131399D02*
Y0128250D01*
X0741099D01*
X0742149D02*
X0743198D01*
X0742673D01*
Y0131399D01*
X0742149Y0130874D01*
X0771500Y0188649D02*
Y0185500D01*
X0773599D01*
X0776748D02*
X0774649D01*
X0776748Y0187599D01*
Y0188124D01*
X0776223Y0188649D01*
X0775173D01*
X0774649Y0188124D01*
X1044500Y0287399D02*
Y0284250D01*
X1046599D01*
X1047649Y0286874D02*
X1048173Y0287399D01*
X1049223D01*
X1049748Y0286874D01*
Y0286349D01*
X1049223Y0285824D01*
X1048698D01*
X1049223D01*
X1049748Y0285299D01*
Y0284775D01*
X1049223Y0284250D01*
X1048173D01*
X1047649Y0284775D01*
X0795000Y0166149D02*
Y0163000D01*
X0797099D01*
X0800248Y0166149D02*
X0798149D01*
Y0164574D01*
X0799198Y0165099D01*
X0799723D01*
X0800248Y0164574D01*
Y0163525D01*
X0799723Y0163000D01*
X0798673D01*
X0798149Y0163525D01*
X0846000Y0110500D02*
Y0113649D01*
X0847574D01*
X0848099Y0113124D01*
Y0112074D01*
X0847574Y0111549D01*
X0846000D01*
X0849149Y0110500D02*
X0850198D01*
X0849673D01*
Y0113649D01*
X0849149Y0113124D01*
X0587500Y0129500D02*
Y0132649D01*
X0589074D01*
X0589599Y0132124D01*
Y0131074D01*
X0589074Y0130550D01*
X0587500D01*
X0592748Y0129500D02*
X0590649D01*
X0592748Y0131599D01*
Y0132124D01*
X0592223Y0132649D01*
X0591173D01*
X0590649Y0132124D01*
X1002250Y0309250D02*
Y0312399D01*
X1003824D01*
X1004349Y0311874D01*
Y0310824D01*
X1003824Y0310299D01*
X1002250D01*
X1005399Y0311874D02*
X1005923Y0312399D01*
X1006973D01*
X1007498Y0311874D01*
Y0311349D01*
X1006973Y0310824D01*
X1006448D01*
X1006973D01*
X1007498Y0310299D01*
Y0309775D01*
X1006973Y0309250D01*
X1005923D01*
X1005399Y0309775D01*
X0602000Y0314000D02*
Y0317149D01*
X0603574D01*
X0604099Y0316624D01*
Y0315574D01*
X0603574Y0315050D01*
X0602000D01*
X0607248Y0317149D02*
X0605149D01*
Y0315574D01*
X0606198Y0316099D01*
X0606723D01*
X0607248Y0315574D01*
Y0314525D01*
X0606723Y0314000D01*
X0605673D01*
X0605149Y0314525D01*
X1015750Y0343250D02*
Y0346399D01*
X1017324D01*
X1017849Y0345874D01*
Y0344824D01*
X1017324Y0344300D01*
X1015750D01*
X1020998Y0346399D02*
X1019948Y0345874D01*
X1018899Y0344824D01*
Y0343775D01*
X1019423Y0343250D01*
X1020473D01*
X1020998Y0343775D01*
Y0344300D01*
X1020473Y0344824D01*
X1018899D01*
X0846599Y0137025D02*
Y0139124D01*
X0846074Y0139649D01*
X0845025D01*
X0844500Y0139124D01*
Y0137025D01*
X0845025Y0136500D01*
X0846074D01*
X0845549Y0137549D02*
X0846599Y0136500D01*
X0846074D02*
X0846599Y0137025D01*
X0847649Y0136500D02*
X0848698D01*
X0848173D01*
Y0139649D01*
X0847649Y0139124D01*
X0852849Y0137025D02*
Y0139124D01*
X0852324Y0139649D01*
X0851275D01*
X0850750Y0139124D01*
Y0137025D01*
X0851275Y0136500D01*
X0852324D01*
X0851799Y0137549D02*
X0852849Y0136500D01*
X0852324D02*
X0852849Y0137025D01*
X0855998Y0136500D02*
X0853899D01*
X0855998Y0138599D01*
Y0139124D01*
X0855473Y0139649D01*
X0854423D01*
X0853899Y0139124D01*
X0780599Y0146525D02*
Y0148624D01*
X0780074Y0149149D01*
X0779025D01*
X0778500Y0148624D01*
Y0146525D01*
X0779025Y0146000D01*
X0780074D01*
X0779550Y0147049D02*
X0780599Y0146000D01*
X0780074D02*
X0780599Y0146525D01*
X0781649Y0148624D02*
X0782173Y0149149D01*
X0783223D01*
X0783748Y0148624D01*
Y0148099D01*
X0783223Y0147574D01*
X0782698D01*
X0783223D01*
X0783748Y0147049D01*
Y0146525D01*
X0783223Y0146000D01*
X0782173D01*
X0781649Y0146525D01*
X0738250Y0173750D02*
Y0176899D01*
X0739824D01*
X0740349Y0176374D01*
Y0175324D01*
X0739824Y0174800D01*
X0738250D01*
X0739299D02*
X0740349Y0173750D01*
X0741399D02*
X0742448D01*
X0741923D01*
Y0176899D01*
X0741399Y0176374D01*
X0615250Y0141750D02*
X0612101D01*
Y0143324D01*
X0612626Y0143849D01*
X0613676D01*
X0614200Y0143324D01*
Y0141750D01*
Y0142799D02*
X0615250Y0143849D01*
Y0146998D02*
Y0144899D01*
X0613151Y0146998D01*
X0612626D01*
X0612101Y0146473D01*
Y0145423D01*
X0612626Y0144899D01*
X0731750Y0117750D02*
Y0120899D01*
X0733324D01*
X0733849Y0120374D01*
Y0119324D01*
X0733324Y0118799D01*
X0731750D01*
X0732799D02*
X0733849Y0117750D01*
X0734899Y0120374D02*
X0735423Y0120899D01*
X0736473D01*
X0736998Y0120374D01*
Y0119849D01*
X0736473Y0119324D01*
X0735948D01*
X0736473D01*
X0736998Y0118799D01*
Y0118275D01*
X0736473Y0117750D01*
X0735423D01*
X0734899Y0118275D01*
X0758500Y0152500D02*
Y0155649D01*
X0760074D01*
X0760599Y0155124D01*
Y0154074D01*
X0760074Y0153550D01*
X0758500D01*
X0759550D02*
X0760599Y0152500D01*
X0763223D02*
Y0155649D01*
X0761649Y0154074D01*
X0763748D01*
X0768000Y0203500D02*
Y0206649D01*
X0769574D01*
X0770099Y0206124D01*
Y0205074D01*
X0769574Y0204550D01*
X0768000D01*
X0769050D02*
X0770099Y0203500D01*
X0773248Y0206649D02*
X0771149D01*
Y0205074D01*
X0772198Y0205599D01*
X0772723D01*
X0773248Y0205074D01*
Y0204025D01*
X0772723Y0203500D01*
X0771673D01*
X0771149Y0204025D01*
X0612500Y0246000D02*
X0609351D01*
Y0247574D01*
X0609876Y0248099D01*
X0610926D01*
X0611450Y0247574D01*
Y0246000D01*
Y0247049D02*
X0612500Y0248099D01*
X0609351Y0251248D02*
X0609876Y0250198D01*
X0610926Y0249149D01*
X0611975D01*
X0612500Y0249673D01*
Y0250723D01*
X0611975Y0251248D01*
X0611450D01*
X0610926Y0250723D01*
Y0249149D01*
X0612000Y0218500D02*
X0608851D01*
Y0220074D01*
X0609376Y0220599D01*
X0610426D01*
X0610951Y0220074D01*
Y0218500D01*
Y0219549D02*
X0612000Y0220599D01*
X0608851Y0221649D02*
Y0223748D01*
X0609376D01*
X0611475Y0221649D01*
X0612000D01*
X0798500Y0145500D02*
Y0148649D01*
X0800074D01*
X0800599Y0148124D01*
Y0147074D01*
X0800074Y0146549D01*
X0798500D01*
X0799549D02*
X0800599Y0145500D01*
X0801649Y0148124D02*
X0802173Y0148649D01*
X0803223D01*
X0803748Y0148124D01*
Y0147599D01*
X0803223Y0147074D01*
X0803748Y0146549D01*
Y0146025D01*
X0803223Y0145500D01*
X0802173D01*
X0801649Y0146025D01*
Y0146549D01*
X0802173Y0147074D01*
X0801649Y0147599D01*
Y0148124D01*
X0802173Y0147074D02*
X0803223D01*
X0819000Y0140250D02*
Y0143399D01*
X0820574D01*
X0821099Y0142874D01*
Y0141824D01*
X0820574Y0141299D01*
X0819000D01*
X0820049D02*
X0821099Y0140250D01*
X0822149Y0140775D02*
X0822673Y0140250D01*
X0823723D01*
X0824248Y0140775D01*
Y0142874D01*
X0823723Y0143399D01*
X0822673D01*
X0822149Y0142874D01*
Y0142349D01*
X0822673Y0141824D01*
X0824248D01*
X0809354Y0130000D02*
Y0133149D01*
X0810929D01*
X0811453Y0132624D01*
Y0131574D01*
X0810929Y0131050D01*
X0809354D01*
X0810404D02*
X0811453Y0130000D01*
X0812503D02*
X0813552D01*
X0813028D01*
Y0133149D01*
X0812503Y0132624D01*
X0815127D02*
X0815652Y0133149D01*
X0816701D01*
X0817226Y0132624D01*
Y0130525D01*
X0816701Y0130000D01*
X0815652D01*
X0815127Y0130525D01*
Y0132624D01*
X0601250Y0326000D02*
X0604399D01*
Y0324426D01*
X0603874Y0323901D01*
X0602824D01*
X0602299Y0324426D01*
Y0326000D01*
Y0324951D02*
X0601250Y0323901D01*
Y0322851D02*
Y0321802D01*
Y0322327D01*
X0604399D01*
X0603874Y0322851D01*
X0601250Y0320228D02*
Y0319178D01*
Y0319703D01*
X0604399D01*
X0603874Y0320228D01*
X0606000Y0326000D02*
X0609149D01*
Y0324426D01*
X0608624Y0323901D01*
X0607574D01*
X0607050Y0324426D01*
Y0326000D01*
Y0324951D02*
X0606000Y0323901D01*
Y0322851D02*
Y0321802D01*
Y0322327D01*
X0609149D01*
X0608624Y0322851D01*
X0606000Y0318128D02*
Y0320228D01*
X0608099Y0318128D01*
X0608624D01*
X0609149Y0318653D01*
Y0319703D01*
X0608624Y0320228D01*
X0907250Y0335250D02*
Y0332101D01*
X0905676D01*
X0905151Y0332626D01*
Y0333676D01*
X0905676Y0334201D01*
X0907250D01*
X0906201D02*
X0905151Y0335250D01*
X0904101D02*
X0903052D01*
X0903577D01*
Y0332101D01*
X0904101Y0332626D01*
X0901478D02*
X0900953Y0332101D01*
X0899903D01*
X0899378Y0332626D01*
Y0333151D01*
X0899903Y0333676D01*
X0900428D01*
X0899903D01*
X0899378Y0334201D01*
Y0334725D01*
X0899903Y0335250D01*
X0900953D01*
X0901478Y0334725D01*
X0893000Y0313250D02*
X0889851D01*
Y0314824D01*
X0890376Y0315349D01*
X0891426D01*
X0891951Y0314824D01*
Y0313250D01*
Y0314300D02*
X0893000Y0315349D01*
Y0316399D02*
Y0317448D01*
Y0316923D01*
X0889851D01*
X0890376Y0316399D01*
X0893000Y0320597D02*
X0889851D01*
X0891426Y0319022D01*
Y0321122D01*
X0829500Y0211500D02*
Y0214649D01*
X0831074D01*
X0831599Y0214124D01*
Y0213074D01*
X0831074Y0212549D01*
X0829500D01*
X0830550D02*
X0831599Y0211500D01*
X0832649D02*
X0833698D01*
X0833173D01*
Y0214649D01*
X0832649Y0214124D01*
X0837372Y0214649D02*
X0835272D01*
Y0213074D01*
X0836322Y0213599D01*
X0836847D01*
X0837372Y0213074D01*
Y0212025D01*
X0836847Y0211500D01*
X0835797D01*
X0835272Y0212025D01*
X0830500Y0204000D02*
Y0207149D01*
X0832074D01*
X0832599Y0206624D01*
Y0205574D01*
X0832074Y0205049D01*
X0830500D01*
X0831549D02*
X0832599Y0204000D01*
X0833649D02*
X0834698D01*
X0834173D01*
Y0207149D01*
X0833649Y0206624D01*
X0838371Y0207149D02*
X0837322Y0206624D01*
X0836272Y0205574D01*
Y0204525D01*
X0836797Y0204000D01*
X0837847D01*
X0838371Y0204525D01*
Y0205049D01*
X0837847Y0205574D01*
X0836272D01*
X0838500Y0194500D02*
Y0197649D01*
X0840074D01*
X0840599Y0197124D01*
Y0196074D01*
X0840074Y0195549D01*
X0838500D01*
X0839550D02*
X0840599Y0194500D01*
X0843748D02*
X0841649D01*
X0843748Y0196599D01*
Y0197124D01*
X0843223Y0197649D01*
X0842173D01*
X0841649Y0197124D01*
X0844797D02*
X0845322Y0197649D01*
X0846371D01*
X0846896Y0197124D01*
Y0195025D01*
X0846371Y0194500D01*
X0845322D01*
X0844797Y0195025D01*
Y0197124D01*
X0838500Y0198500D02*
Y0201649D01*
X0840074D01*
X0840599Y0201124D01*
Y0200074D01*
X0840074Y0199549D01*
X0838500D01*
X0839550D02*
X0840599Y0198500D01*
X0843748D02*
X0841649D01*
X0843748Y0200599D01*
Y0201124D01*
X0843223Y0201649D01*
X0842173D01*
X0841649Y0201124D01*
X0844797Y0198500D02*
X0845847D01*
X0845322D01*
Y0201649D01*
X0844797Y0201124D01*
X0939250Y0329750D02*
Y0332899D01*
X0940824D01*
X0941349Y0332374D01*
Y0331324D01*
X0940824Y0330800D01*
X0939250D01*
X0940300D02*
X0941349Y0329750D01*
X0944498D02*
X0942399D01*
X0944498Y0331849D01*
Y0332374D01*
X0943973Y0332899D01*
X0942923D01*
X0942399Y0332374D01*
X0945547D02*
X0946072Y0332899D01*
X0947122D01*
X0947646Y0332374D01*
Y0331849D01*
X0947122Y0331324D01*
X0946597D01*
X0947122D01*
X0947646Y0330800D01*
Y0330275D01*
X0947122Y0329750D01*
X0946072D01*
X0945547Y0330275D01*
X0939250Y0325500D02*
Y0328649D01*
X0940824D01*
X0941349Y0328124D01*
Y0327074D01*
X0940824Y0326550D01*
X0939250D01*
X0940300D02*
X0941349Y0325500D01*
X0944498D02*
X0942399D01*
X0944498Y0327599D01*
Y0328124D01*
X0943973Y0328649D01*
X0942923D01*
X0942399Y0328124D01*
X0947646Y0328649D02*
X0946597Y0328124D01*
X0945547Y0327074D01*
Y0326025D01*
X0946072Y0325500D01*
X0947122D01*
X0947646Y0326025D01*
Y0326550D01*
X0947122Y0327074D01*
X0945547D01*
X0614000Y0267500D02*
X0610851D01*
Y0269074D01*
X0611376Y0269599D01*
X0612426D01*
X0612951Y0269074D01*
Y0267500D01*
Y0268549D02*
X0614000Y0269599D01*
Y0272748D02*
Y0270649D01*
X0611901Y0272748D01*
X0611376D01*
X0610851Y0272223D01*
Y0271173D01*
X0611376Y0270649D01*
X0610851Y0273797D02*
Y0275896D01*
X0611376D01*
X0613475Y0273797D01*
X0614000D01*
X0617000Y0181000D02*
X0613851D01*
Y0182574D01*
X0614376Y0183099D01*
X0615426D01*
X0615950Y0182574D01*
Y0181000D01*
Y0182050D02*
X0617000Y0183099D01*
X0614376Y0184149D02*
X0613851Y0184673D01*
Y0185723D01*
X0614376Y0186248D01*
X0614901D01*
X0615426Y0185723D01*
Y0185198D01*
Y0185723D01*
X0615950Y0186248D01*
X0616475D01*
X0617000Y0185723D01*
Y0184673D01*
X0616475Y0184149D01*
X0614376Y0187297D02*
X0613851Y0187822D01*
Y0188872D01*
X0614376Y0189396D01*
X0616475D01*
X0617000Y0188872D01*
Y0187822D01*
X0616475Y0187297D01*
X0614376D01*
X0611500Y0181000D02*
X0608351D01*
Y0182574D01*
X0608876Y0183099D01*
X0609926D01*
X0610451Y0182574D01*
Y0181000D01*
Y0182050D02*
X0611500Y0183099D01*
X0608876Y0184149D02*
X0608351Y0184673D01*
Y0185723D01*
X0608876Y0186248D01*
X0609401D01*
X0609926Y0185723D01*
Y0185198D01*
Y0185723D01*
X0610451Y0186248D01*
X0610975D01*
X0611500Y0185723D01*
Y0184673D01*
X0610975Y0184149D01*
X0611500Y0187297D02*
Y0188347D01*
Y0187822D01*
X0608351D01*
X0608876Y0187297D01*
X0915000Y0171500D02*
Y0174649D01*
X0916574D01*
X0917099Y0174124D01*
Y0173074D01*
X0916574Y0172549D01*
X0915000D01*
X0916049D02*
X0917099Y0171500D01*
X0918149Y0174124D02*
X0918673Y0174649D01*
X0919723D01*
X0920248Y0174124D01*
Y0173599D01*
X0919723Y0173074D01*
X0919198D01*
X0919723D01*
X0920248Y0172549D01*
Y0172025D01*
X0919723Y0171500D01*
X0918673D01*
X0918149Y0172025D01*
X0923396Y0171500D02*
X0921297D01*
X0923396Y0173599D01*
Y0174124D01*
X0922871Y0174649D01*
X0921822D01*
X0921297Y0174124D01*
X0916000Y0186500D02*
Y0189649D01*
X0917574D01*
X0918099Y0189124D01*
Y0188074D01*
X0917574Y0187549D01*
X0916000D01*
X0917050D02*
X0918099Y0186500D01*
X0919149Y0189124D02*
X0919673Y0189649D01*
X0920723D01*
X0921248Y0189124D01*
Y0188599D01*
X0920723Y0188074D01*
X0920198D01*
X0920723D01*
X0921248Y0187549D01*
Y0187025D01*
X0920723Y0186500D01*
X0919673D01*
X0919149Y0187025D01*
X0922297Y0189124D02*
X0922822Y0189649D01*
X0923872D01*
X0924396Y0189124D01*
Y0188599D01*
X0923872Y0188074D01*
X0923347D01*
X0923872D01*
X0924396Y0187549D01*
Y0187025D01*
X0923872Y0186500D01*
X0922822D01*
X0922297Y0187025D01*
X0954250Y0207750D02*
Y0210899D01*
X0955824D01*
X0956349Y0210374D01*
Y0209324D01*
X0955824Y0208800D01*
X0954250D01*
X0955299D02*
X0956349Y0207750D01*
X0957399Y0210374D02*
X0957923Y0210899D01*
X0958973D01*
X0959498Y0210374D01*
Y0209849D01*
X0958973Y0209324D01*
X0958448D01*
X0958973D01*
X0959498Y0208800D01*
Y0208275D01*
X0958973Y0207750D01*
X0957923D01*
X0957399Y0208275D01*
X0962121Y0207750D02*
Y0210899D01*
X0960547Y0209324D01*
X0962646D01*
X0954250Y0218750D02*
Y0221899D01*
X0955824D01*
X0956349Y0221374D01*
Y0220324D01*
X0955824Y0219799D01*
X0954250D01*
X0955299D02*
X0956349Y0218750D01*
X0957399Y0221374D02*
X0957923Y0221899D01*
X0958973D01*
X0959498Y0221374D01*
Y0220849D01*
X0958973Y0220324D01*
X0958448D01*
X0958973D01*
X0959498Y0219799D01*
Y0219275D01*
X0958973Y0218750D01*
X0957923D01*
X0957399Y0219275D01*
X0962646Y0221899D02*
X0960547D01*
Y0220324D01*
X0961597Y0220849D01*
X0962121D01*
X0962646Y0220324D01*
Y0219275D01*
X0962121Y0218750D01*
X0961072D01*
X0960547Y0219275D01*
X0951000Y0187000D02*
Y0190149D01*
X0952574D01*
X0953099Y0189624D01*
Y0188574D01*
X0952574Y0188049D01*
X0951000D01*
X0952050D02*
X0953099Y0187000D01*
X0954149Y0189624D02*
X0954673Y0190149D01*
X0955723D01*
X0956248Y0189624D01*
Y0189099D01*
X0955723Y0188574D01*
X0955198D01*
X0955723D01*
X0956248Y0188049D01*
Y0187525D01*
X0955723Y0187000D01*
X0954673D01*
X0954149Y0187525D01*
X0959396Y0190149D02*
X0958347Y0189624D01*
X0957297Y0188574D01*
Y0187525D01*
X0957822Y0187000D01*
X0958871D01*
X0959396Y0187525D01*
Y0188049D01*
X0958871Y0188574D01*
X0957297D01*
X0954000Y0203250D02*
Y0206399D01*
X0955574D01*
X0956099Y0205874D01*
Y0204824D01*
X0955574Y0204299D01*
X0954000D01*
X0955050D02*
X0956099Y0203250D01*
X0957149Y0205874D02*
X0957673Y0206399D01*
X0958723D01*
X0959248Y0205874D01*
Y0205349D01*
X0958723Y0204824D01*
X0958198D01*
X0958723D01*
X0959248Y0204299D01*
Y0203775D01*
X0958723Y0203250D01*
X0957673D01*
X0957149Y0203775D01*
X0960297Y0206399D02*
X0962396D01*
Y0205874D01*
X0960297Y0203775D01*
Y0203250D01*
X0926000Y0225000D02*
X0922851D01*
Y0226574D01*
X0923376Y0227099D01*
X0924426D01*
X0924951Y0226574D01*
Y0225000D01*
Y0226049D02*
X0926000Y0227099D01*
X0923376Y0228149D02*
X0922851Y0228673D01*
Y0229723D01*
X0923376Y0230248D01*
X0923901D01*
X0924426Y0229723D01*
Y0229198D01*
Y0229723D01*
X0924951Y0230248D01*
X0925475D01*
X0926000Y0229723D01*
Y0228673D01*
X0925475Y0228149D01*
X0923376Y0231297D02*
X0922851Y0231822D01*
Y0232872D01*
X0923376Y0233396D01*
X0923901D01*
X0924426Y0232872D01*
X0924951Y0233396D01*
X0925475D01*
X0926000Y0232872D01*
Y0231822D01*
X0925475Y0231297D01*
X0924951D01*
X0924426Y0231822D01*
X0923901Y0231297D01*
X0923376D01*
X0924426Y0231822D02*
Y0232872D01*
X0930000Y0186000D02*
Y0189149D01*
X0931574D01*
X0932099Y0188624D01*
Y0187574D01*
X0931574Y0187049D01*
X0930000D01*
X0931050D02*
X0932099Y0186000D01*
X0933149Y0188624D02*
X0933673Y0189149D01*
X0934723D01*
X0935248Y0188624D01*
Y0188099D01*
X0934723Y0187574D01*
X0934198D01*
X0934723D01*
X0935248Y0187049D01*
Y0186525D01*
X0934723Y0186000D01*
X0933673D01*
X0933149Y0186525D01*
X0936297D02*
X0936822Y0186000D01*
X0937871D01*
X0938396Y0186525D01*
Y0188624D01*
X0937871Y0189149D01*
X0936822D01*
X0936297Y0188624D01*
Y0188099D01*
X0936822Y0187574D01*
X0938396D01*
X0944500Y0233000D02*
Y0236149D01*
X0946074D01*
X0946599Y0235624D01*
Y0234574D01*
X0946074Y0234050D01*
X0944500D01*
X0945549D02*
X0946599Y0233000D01*
X0949223D02*
Y0236149D01*
X0947649Y0234574D01*
X0949748D01*
X0950797Y0235624D02*
X0951322Y0236149D01*
X0952372D01*
X0952896Y0235624D01*
Y0233525D01*
X0952372Y0233000D01*
X0951322D01*
X0950797Y0233525D01*
Y0235624D01*
X0948000Y0222000D02*
X0944851D01*
Y0223574D01*
X0945376Y0224099D01*
X0946426D01*
X0946951Y0223574D01*
Y0222000D01*
Y0223049D02*
X0948000Y0224099D01*
Y0226723D02*
X0944851D01*
X0946426Y0225149D01*
Y0227248D01*
X0948000Y0228297D02*
Y0229347D01*
Y0228822D01*
X0944851D01*
X0945376Y0228297D01*
X0828250Y0189000D02*
Y0192149D01*
X0829824D01*
X0830349Y0191624D01*
Y0190574D01*
X0829824Y0190050D01*
X0828250D01*
X0829300D02*
X0830349Y0189000D01*
X0832973D02*
Y0192149D01*
X0831399Y0190574D01*
X0833498D01*
X0836646Y0189000D02*
X0834547D01*
X0836646Y0191099D01*
Y0191624D01*
X0836121Y0192149D01*
X0835072D01*
X0834547Y0191624D01*
X0895000Y0181500D02*
Y0184649D01*
X0896574D01*
X0897099Y0184124D01*
Y0183074D01*
X0896574Y0182550D01*
X0895000D01*
X0896049D02*
X0897099Y0181500D01*
X0899723D02*
Y0184649D01*
X0898149Y0183074D01*
X0900248D01*
X0901297Y0184124D02*
X0901822Y0184649D01*
X0902872D01*
X0903396Y0184124D01*
Y0183599D01*
X0902872Y0183074D01*
X0902347D01*
X0902872D01*
X0903396Y0182550D01*
Y0182025D01*
X0902872Y0181500D01*
X0901822D01*
X0901297Y0182025D01*
X0836500Y0155000D02*
Y0158149D01*
X0838074D01*
X0838599Y0157624D01*
Y0156574D01*
X0838074Y0156050D01*
X0836500D01*
X0837549D02*
X0838599Y0155000D01*
X0841223D02*
Y0158149D01*
X0839649Y0156574D01*
X0841748D01*
X0844372Y0155000D02*
Y0158149D01*
X0842797Y0156574D01*
X0844896D01*
X0897000Y0168000D02*
Y0171149D01*
X0898574D01*
X0899099Y0170624D01*
Y0169574D01*
X0898574Y0169050D01*
X0897000D01*
X0898050D02*
X0899099Y0168000D01*
X0901723D02*
Y0171149D01*
X0900149Y0169574D01*
X0902248D01*
X0905396Y0171149D02*
X0903297D01*
Y0169574D01*
X0904347Y0170099D01*
X0904871D01*
X0905396Y0169574D01*
Y0168525D01*
X0904871Y0168000D01*
X0903822D01*
X0903297Y0168525D01*
X0772750Y0152750D02*
Y0155899D01*
X0774324D01*
X0774849Y0155374D01*
Y0154324D01*
X0774324Y0153799D01*
X0772750D01*
X0773800D02*
X0774849Y0152750D01*
X0777473D02*
Y0155899D01*
X0775899Y0154324D01*
X0777998D01*
X0781146Y0155899D02*
X0780097Y0155374D01*
X0779047Y0154324D01*
Y0153275D01*
X0779572Y0152750D01*
X0780621D01*
X0781146Y0153275D01*
Y0153799D01*
X0780621Y0154324D01*
X0779047D01*
X0775500Y0129000D02*
Y0132149D01*
X0777074D01*
X0777599Y0131624D01*
Y0130574D01*
X0777074Y0130050D01*
X0775500D01*
X0776549D02*
X0777599Y0129000D01*
X0780223D02*
Y0132149D01*
X0778649Y0130574D01*
X0780748D01*
X0781797Y0132149D02*
X0783896D01*
Y0131624D01*
X0781797Y0129525D01*
Y0129000D01*
X1042000Y0234649D02*
X1044099D01*
X1043050D01*
Y0231500D01*
X1045149D02*
X1046198D01*
X1045673D01*
Y0234649D01*
X1045149Y0234124D01*
X0723250Y0122899D02*
X0725349D01*
X0724299D01*
Y0119750D01*
X0726399D02*
Y0122899D01*
X0727973D01*
X0728498Y0122374D01*
Y0121324D01*
X0727973Y0120800D01*
X0726399D01*
X0729547Y0119750D02*
X0730597D01*
X0730072D01*
Y0122899D01*
X0729547Y0122374D01*
X0792500Y0205149D02*
X0794599D01*
X0793549D01*
Y0202000D01*
X0795649D02*
Y0205149D01*
X0797223D01*
X0797748Y0204624D01*
Y0203574D01*
X0797223Y0203049D01*
X0795649D01*
X0800896Y0202000D02*
X0798797D01*
X0800896Y0204099D01*
Y0204624D01*
X0800371Y0205149D01*
X0799322D01*
X0798797Y0204624D01*
X0989000Y0319649D02*
X0991099D01*
X0990049D01*
Y0316500D01*
X0992149D02*
Y0319649D01*
X0993723D01*
X0994248Y0319124D01*
Y0318074D01*
X0993723Y0317549D01*
X0992149D01*
X0996871Y0316500D02*
Y0319649D01*
X0995297Y0318074D01*
X0997396D01*
X0962851Y0323750D02*
Y0325849D01*
Y0324799D01*
X0966000D01*
Y0326899D02*
X0962851D01*
Y0328473D01*
X0963376Y0328998D01*
X0964426D01*
X0964950Y0328473D01*
Y0326899D01*
X0962851Y0330047D02*
Y0332146D01*
X0963376D01*
X0965475Y0330047D01*
X0966000D01*
X0945101Y0315000D02*
Y0317099D01*
Y0316050D01*
X0948250D01*
Y0318149D02*
X0945101D01*
Y0319723D01*
X0945626Y0320248D01*
X0946676D01*
X0947200Y0319723D01*
Y0318149D01*
X0945626Y0321297D02*
X0945101Y0321822D01*
Y0322871D01*
X0945626Y0323396D01*
X0946151D01*
X0946676Y0322871D01*
X0947200Y0323396D01*
X0947725D01*
X0948250Y0322871D01*
Y0321822D01*
X0947725Y0321297D01*
X0947200D01*
X0946676Y0321822D01*
X0946151Y0321297D01*
X0945626D01*
X0946676Y0321822D02*
Y0322871D01*
X0768851Y0141250D02*
Y0143349D01*
Y0142299D01*
X0772000D01*
Y0144399D02*
X0768851D01*
Y0145973D01*
X0769376Y0146498D01*
X0770426D01*
X0770951Y0145973D01*
Y0144399D01*
X0771475Y0147547D02*
X0772000Y0148072D01*
Y0149121D01*
X0771475Y0149646D01*
X0769376D01*
X0768851Y0149121D01*
Y0148072D01*
X0769376Y0147547D01*
X0769901D01*
X0770426Y0148072D01*
Y0149646D01*
X0972101Y0323500D02*
Y0325599D01*
Y0324550D01*
X0975250D01*
Y0326649D02*
X0972101D01*
Y0328223D01*
X0972626Y0328748D01*
X0973676D01*
X0974201Y0328223D01*
Y0326649D01*
X0975250Y0329797D02*
Y0330847D01*
Y0330322D01*
X0972101D01*
X0972626Y0329797D01*
Y0332421D02*
X0972101Y0332946D01*
Y0333995D01*
X0972626Y0334520D01*
X0974725D01*
X0975250Y0333995D01*
Y0332946D01*
X0974725Y0332421D01*
X0972626D01*
X0854750Y0207149D02*
X0856849D01*
X0855799D01*
Y0204000D01*
X0857899D02*
Y0207149D01*
X0859473D01*
X0859998Y0206624D01*
Y0205574D01*
X0859473Y0205049D01*
X0857899D01*
X0861047Y0204000D02*
X0862097D01*
X0861572D01*
Y0207149D01*
X0861047Y0206624D01*
X0863671Y0204000D02*
X0864721D01*
X0864196D01*
Y0207149D01*
X0863671Y0206624D01*
X0842750Y0207399D02*
X0844849D01*
X0843799D01*
Y0204250D01*
X0845899D02*
Y0207399D01*
X0847473D01*
X0847998Y0206874D01*
Y0205824D01*
X0847473Y0205299D01*
X0845899D01*
X0849047Y0204250D02*
X0850097D01*
X0849572D01*
Y0207399D01*
X0849047Y0206874D01*
X0853770Y0204250D02*
X0851671D01*
X0853770Y0206349D01*
Y0206874D01*
X0853245Y0207399D01*
X0852196D01*
X0851671Y0206874D01*
X0908000Y0221149D02*
X0910099D01*
X0909050D01*
Y0218000D01*
X0911149D02*
Y0221149D01*
X0912723D01*
X0913248Y0220624D01*
Y0219574D01*
X0912723Y0219050D01*
X0911149D01*
X0914297Y0218000D02*
X0915347D01*
X0914822D01*
Y0221149D01*
X0914297Y0220624D01*
X0916921D02*
X0917446Y0221149D01*
X0918495D01*
X0919020Y0220624D01*
Y0220099D01*
X0918495Y0219574D01*
X0917970D01*
X0918495D01*
X0919020Y0219050D01*
Y0218525D01*
X0918495Y0218000D01*
X0917446D01*
X0916921Y0218525D01*
X0901500Y0205149D02*
X0903599D01*
X0902549D01*
Y0202000D01*
X0904649D02*
Y0205149D01*
X0906223D01*
X0906748Y0204624D01*
Y0203574D01*
X0906223Y0203049D01*
X0904649D01*
X0907797Y0202000D02*
X0908847D01*
X0908322D01*
Y0205149D01*
X0907797Y0204624D01*
X0911995Y0202000D02*
Y0205149D01*
X0910421Y0203574D01*
X0912520D01*
X0911500Y0210649D02*
X0913599D01*
X0912549D01*
Y0207500D01*
X0914649D02*
Y0210649D01*
X0916223D01*
X0916748Y0210124D01*
Y0209074D01*
X0916223Y0208549D01*
X0914649D01*
X0917797Y0207500D02*
X0918847D01*
X0918322D01*
Y0210649D01*
X0917797Y0210124D01*
X0922520Y0210649D02*
X0920421D01*
Y0209074D01*
X0921471Y0209599D01*
X0921995D01*
X0922520Y0209074D01*
Y0208025D01*
X0921995Y0207500D01*
X0920946D01*
X0920421Y0208025D01*
X0928000Y0176649D02*
X0930099D01*
X0929049D01*
Y0173500D01*
X0931149D02*
Y0176649D01*
X0932723D01*
X0933248Y0176124D01*
Y0175074D01*
X0932723Y0174549D01*
X0931149D01*
X0934297Y0173500D02*
X0935347D01*
X0934822D01*
Y0176649D01*
X0934297Y0176124D01*
X0939020Y0176649D02*
X0937971Y0176124D01*
X0936921Y0175074D01*
Y0174025D01*
X0937446Y0173500D01*
X0938495D01*
X0939020Y0174025D01*
Y0174549D01*
X0938495Y0175074D01*
X0936921D01*
X0788000Y0174149D02*
X0790099D01*
X0789049D01*
Y0171000D01*
X0791149D02*
Y0174149D01*
X0792723D01*
X0793248Y0173624D01*
Y0172574D01*
X0792723Y0172049D01*
X0791149D01*
X0794297Y0171000D02*
X0795347D01*
X0794822D01*
Y0174149D01*
X0794297Y0173624D01*
X0796921D02*
X0797446Y0174149D01*
X0798495D01*
X0799020Y0173624D01*
Y0173099D01*
X0798495Y0172574D01*
X0799020Y0172049D01*
Y0171525D01*
X0798495Y0171000D01*
X0797446D01*
X0796921Y0171525D01*
Y0172049D01*
X0797446Y0172574D01*
X0796921Y0173099D01*
Y0173624D01*
X0797446Y0172574D02*
X0798495D01*
X0773851Y0139500D02*
Y0141599D01*
Y0140550D01*
X0777000D01*
Y0142649D02*
X0773851D01*
Y0144223D01*
X0774376Y0144748D01*
X0775426D01*
X0775950Y0144223D01*
Y0142649D01*
X0777000Y0147896D02*
Y0145797D01*
X0774901Y0147896D01*
X0774376D01*
X0773851Y0147371D01*
Y0146322D01*
X0774376Y0145797D01*
Y0148946D02*
X0773851Y0149470D01*
Y0150520D01*
X0774376Y0151045D01*
X0776475D01*
X0777000Y0150520D01*
Y0149470D01*
X0776475Y0148946D01*
X0774376D01*
X0777601Y0169750D02*
Y0171849D01*
Y0170800D01*
X0780750D01*
Y0172899D02*
X0777601D01*
Y0174473D01*
X0778126Y0174998D01*
X0779176D01*
X0779701Y0174473D01*
Y0172899D01*
X0780750Y0178146D02*
Y0176047D01*
X0778651Y0178146D01*
X0778126D01*
X0777601Y0177621D01*
Y0176572D01*
X0778126Y0176047D01*
X0780750Y0181295D02*
Y0179196D01*
X0778651Y0181295D01*
X0778126D01*
X0777601Y0180770D01*
Y0179720D01*
X0778126Y0179196D01*
X0723250Y0116899D02*
Y0114275D01*
X0723775Y0113750D01*
X0724824D01*
X0725349Y0114275D01*
Y0116899D01*
X0727973Y0113750D02*
Y0116899D01*
X0726399Y0115324D01*
X0728498D01*
X0883500Y0194649D02*
Y0192025D01*
X0884025Y0191500D01*
X0885074D01*
X0885599Y0192025D01*
Y0194649D01*
X0888748D02*
X0886649D01*
Y0193074D01*
X0887698Y0193599D01*
X0888223D01*
X0888748Y0193074D01*
Y0192025D01*
X0888223Y0191500D01*
X0887173D01*
X0886649Y0192025D01*
X0808000Y0193399D02*
Y0190775D01*
X0808525Y0190250D01*
X0809574D01*
X0810099Y0190775D01*
Y0193399D01*
X0813248D02*
X0812198Y0192874D01*
X0811149Y0191824D01*
Y0190775D01*
X0811673Y0190250D01*
X0812723D01*
X0813248Y0190775D01*
Y0191299D01*
X0812723Y0191824D01*
X0811149D01*
X0835000Y0166649D02*
Y0166124D01*
X0836049Y0165074D01*
X0837099Y0166124D01*
Y0166649D01*
X0836049Y0165074D02*
Y0163500D01*
X0838149D02*
X0839198D01*
X0838673D01*
Y0166649D01*
X0838149Y0166124D01*
X0929376Y0201599D02*
X0928851Y0201074D01*
Y0200025D01*
X0929376Y0199500D01*
X0931475D01*
X0932000Y0200025D01*
Y0201074D01*
X0931475Y0201599D01*
X0932000Y0204748D02*
Y0202649D01*
X0929901Y0204748D01*
X0929376D01*
X0928851Y0204223D01*
Y0203173D01*
X0929376Y0202649D01*
X0928851Y0207896D02*
X0929376Y0206847D01*
X0930426Y0205797D01*
X0931475D01*
X0932000Y0206322D01*
Y0207371D01*
X0931475Y0207896D01*
X0930951D01*
X0930426Y0207371D01*
Y0205797D01*
X1030849Y0250124D02*
X1030324Y0250649D01*
X1029275D01*
X1028750Y0250124D01*
Y0248025D01*
X1029275Y0247500D01*
X1030324D01*
X1030849Y0248025D01*
X1031899Y0247500D02*
X1032948D01*
X1032423D01*
Y0250649D01*
X1031899Y0250124D01*
X1036621Y0250649D02*
X1035572Y0250124D01*
X1034522Y0249074D01*
Y0248025D01*
X1035047Y0247500D01*
X1036097D01*
X1036621Y0248025D01*
Y0248550D01*
X1036097Y0249074D01*
X1034522D01*
X0929750Y0241149D02*
Y0238525D01*
X0930275Y0238000D01*
X0931324D01*
X0931849Y0238525D01*
Y0241149D01*
X0932899Y0240624D02*
X0933423Y0241149D01*
X0934473D01*
X0934998Y0240624D01*
Y0240099D01*
X0934473Y0239574D01*
X0933948D01*
X0934473D01*
X0934998Y0239050D01*
Y0238525D01*
X0934473Y0238000D01*
X0933423D01*
X0932899Y0238525D01*
X0745500Y0175899D02*
Y0173275D01*
X0746025Y0172750D01*
X0747074D01*
X0747599Y0173275D01*
Y0175899D01*
X0748649Y0172750D02*
X0749698D01*
X0749173D01*
Y0175899D01*
X0748649Y0175374D01*
X0884500Y0125649D02*
Y0122500D01*
X0886599D01*
X0889223D02*
Y0125649D01*
X0887649Y0124074D01*
X0889748D01*
D94*
X0818666Y0138893D02*
G03*
X0818666Y0138893I-0000197J0000000D01*
G01*
X0976449Y0228740D02*
X0975399D01*
X0975924D01*
Y0225592D01*
X0976449Y0226116D01*
X0971726Y0225592D02*
X0973825D01*
Y0227166D01*
X0972775Y0226641D01*
X0972251D01*
X0971726Y0227166D01*
Y0228215D01*
X0972251Y0228740D01*
X0973300D01*
X0973825Y0228215D01*
X1036488Y0229724D02*
X1035439D01*
X1035963D01*
Y0226576D01*
X1036488Y0227101D01*
X1031765Y0229724D02*
X1033864D01*
X1031765Y0227625D01*
Y0227101D01*
X1032290Y0226576D01*
X1033340D01*
X1033864Y0227101D01*
X0978417Y0181496D02*
X0977368D01*
X0977893D01*
Y0178348D01*
X0978417Y0178872D01*
X0975793Y0181496D02*
X0974744D01*
X0975269D01*
Y0178348D01*
X0975793Y0178872D01*
X1034520Y0181496D02*
X1033470D01*
X1033995D01*
Y0178348D01*
X1034520Y0178872D01*
X1031896D02*
X1031371Y0178348D01*
X1030322D01*
X1029797Y0178872D01*
Y0180971D01*
X1030322Y0181496D01*
X1031371D01*
X1031896Y0180971D01*
Y0178872D01*
X1034520Y0215749D02*
X1032421D01*
Y0216274D01*
X1034520Y0218373D01*
Y0218898D01*
X0978287Y0205907D02*
X0979336Y0206431D01*
X0980386Y0207481D01*
Y0208530D01*
X0979861Y0209055D01*
X0978811D01*
X0978287Y0208530D01*
Y0208006D01*
X0978811Y0207481D01*
X0980386D01*
X1030583Y0209055D02*
X1029533D01*
X1030058D01*
Y0205907D01*
X1030583Y0206431D01*
D95*
X0932000Y0263405D02*
Y0277941D01*
X0920189Y0263405D02*
X0932000D01*
X0917000Y0266595D02*
Y0277941D01*
Y0266595D02*
X0920189Y0263405D01*
X0932000Y0336941D02*
Y0351476D01*
X0920189D02*
X0932000D01*
X0917000Y0348287D02*
X0920189Y0351476D01*
X0917000Y0336941D02*
Y0348287D01*
X1025242Y0237128D02*
Y0273348D01*
X0937329Y0237128D02*
Y0273348D01*
X1025242D01*
X0937329Y0237128D02*
X1025242D01*
X0825000Y0108000D02*
X0826999D01*
X0826000D01*
Y0113998D01*
X0825000Y0112998D01*
X0837999Y0108000D02*
X0834000D01*
X0837999Y0111999D01*
Y0112998D01*
X0836999Y0113998D01*
X0835000D01*
X0834000Y0112998D01*
D96*
X0971528Y0105118D02*
Y0235118D01*
X1038457D01*
X0971528Y0105118D02*
X1038457D01*
Y0235118D01*
M02*
