G04 Layer_Color=8388736*
%FSAX25Y25*%
%MOIN*%
G70*
G01*
G75*
%ADD97R,0.08674X0.08674*%
%ADD98R,0.02375X0.07690*%
%ADD99R,0.03162X0.04147*%
%ADD100R,0.06312X0.05721*%
%ADD101R,0.03359X0.04343*%
%ADD102R,0.05721X0.06312*%
%ADD103R,0.07887X0.08280*%
%ADD104R,0.08280X0.07887*%
%ADD105R,0.04343X0.03359*%
%ADD106R,0.02178X0.08674*%
%ADD107R,0.18517X0.18910*%
%ADD108R,0.07296X0.03162*%
%ADD109R,0.06706X0.14973*%
%ADD110R,0.04422X0.03241*%
%ADD111R,0.02375X0.04147*%
%ADD112R,0.04147X0.02375*%
%ADD113R,0.04147X0.03162*%
%ADD114C,0.06706*%
%ADD115R,0.01784X0.04540*%
%ADD116R,0.04540X0.01784*%
%ADD117R,0.29540X0.29540*%
%ADD118R,0.06115X0.01981*%
%ADD119R,0.05131X0.06312*%
%ADD120R,0.01784X0.04737*%
%ADD121R,0.10642X0.07493*%
%ADD122R,0.03241X0.04422*%
%ADD123O,0.04147X0.10642*%
%ADD124C,0.06343*%
%ADD125C,0.00800*%
%ADD126R,0.06706X0.06706*%
%ADD127R,0.06706X0.06706*%
%ADD128C,0.05721*%
%ADD129C,0.10249*%
%ADD130C,0.06824*%
%ADD131C,0.13398*%
%ADD132C,0.03162*%
%ADD133C,0.03300*%
D97*
X0809886Y0112311D02*
D03*
X0782917D02*
D03*
D98*
X0791382Y0125500D02*
D03*
X0793941D02*
D03*
X0801618D02*
D03*
X0799059D02*
D03*
X0796500D02*
D03*
D99*
X0901896Y0340000D02*
D03*
X0907604D02*
D03*
X0887854Y0129000D02*
D03*
X0882146D02*
D03*
X0888854Y0134500D02*
D03*
X0883146D02*
D03*
X0888854Y0140000D02*
D03*
X0883146D02*
D03*
X0761854Y0149000D02*
D03*
X0756146D02*
D03*
X0800146Y0141500D02*
D03*
X0805854D02*
D03*
X0822354Y0136000D02*
D03*
X0816646D02*
D03*
X0806500D02*
D03*
X0812209D02*
D03*
X0891396Y0334250D02*
D03*
X0897104D02*
D03*
X0821146Y0212000D02*
D03*
X0826854D02*
D03*
X0821146Y0206500D02*
D03*
X0826854D02*
D03*
X0821146Y0195000D02*
D03*
X0826854D02*
D03*
X0821146Y0200500D02*
D03*
X0826854D02*
D03*
X0953396Y0332250D02*
D03*
X0959104D02*
D03*
X0953396Y0326750D02*
D03*
X0959104D02*
D03*
X0918646Y0177500D02*
D03*
X0924354D02*
D03*
X0918646Y0183000D02*
D03*
X0924354D02*
D03*
X0951354Y0209500D02*
D03*
X0945646D02*
D03*
X0951354Y0218500D02*
D03*
X0945646D02*
D03*
X0951354Y0193000D02*
D03*
X0945646D02*
D03*
X0951354Y0202000D02*
D03*
X0945646D02*
D03*
X0956354Y0230000D02*
D03*
X0950646D02*
D03*
Y0224500D02*
D03*
X0956354D02*
D03*
X0818646Y0188000D02*
D03*
X0824354D02*
D03*
X0899146Y0178500D02*
D03*
X0904854D02*
D03*
X0789354Y0152000D02*
D03*
X0783646D02*
D03*
X0784146Y0135000D02*
D03*
X0789854D02*
D03*
D100*
X0742000Y0207498D02*
D03*
Y0201002D02*
D03*
X0764500Y0161002D02*
D03*
Y0167498D02*
D03*
X0757250Y0135248D02*
D03*
Y0128752D02*
D03*
X0772000Y0161002D02*
D03*
Y0167498D02*
D03*
X0739750Y0153502D02*
D03*
Y0159998D02*
D03*
X0732250Y0162002D02*
D03*
Y0168498D02*
D03*
X0726000Y0141002D02*
D03*
Y0147498D02*
D03*
D101*
X0756146Y0143500D02*
D03*
X0761854D02*
D03*
X0897354Y0340000D02*
D03*
X0891646D02*
D03*
X0935146Y0209500D02*
D03*
X0940854D02*
D03*
X0935146Y0218500D02*
D03*
X0940854D02*
D03*
X0935146Y0193000D02*
D03*
X0940854D02*
D03*
X0946854Y0178500D02*
D03*
X0941146D02*
D03*
X0946854Y0184000D02*
D03*
X0941146D02*
D03*
X0871146Y0129000D02*
D03*
X0876854D02*
D03*
X0871146Y0134500D02*
D03*
X0876854D02*
D03*
X0871146Y0144000D02*
D03*
X0876854D02*
D03*
X0865854Y0131000D02*
D03*
X0860146D02*
D03*
X0865854Y0136500D02*
D03*
X0860146D02*
D03*
X0820854Y0166500D02*
D03*
X0815146D02*
D03*
X0804354Y0193000D02*
D03*
X0798646D02*
D03*
X0936000Y0167000D02*
D03*
X0941709D02*
D03*
X0816354Y0141500D02*
D03*
X0810646D02*
D03*
X0935146Y0202000D02*
D03*
X0940854D02*
D03*
D102*
X0749752Y0207000D02*
D03*
X0756248D02*
D03*
X0732248Y0154750D02*
D03*
X0725752D02*
D03*
X0732748Y0180000D02*
D03*
X0726252D02*
D03*
Y0187500D02*
D03*
X0732748D02*
D03*
D103*
X1010250Y0289065D02*
D03*
Y0278435D02*
D03*
X1033750Y0266750D02*
D03*
Y0277380D02*
D03*
X1043500Y0266750D02*
D03*
Y0277380D02*
D03*
X0742000Y0192565D02*
D03*
Y0181935D02*
D03*
D104*
X1020935Y0289000D02*
D03*
X1031565D02*
D03*
X0759935Y0119500D02*
D03*
X0770565D02*
D03*
X0746565Y0126000D02*
D03*
X0735935D02*
D03*
X0755435Y0197250D02*
D03*
X0766065D02*
D03*
X1033435Y0256565D02*
D03*
X1044065D02*
D03*
D105*
X0939500Y0224646D02*
D03*
Y0230354D02*
D03*
X0891500Y0162209D02*
D03*
Y0156500D02*
D03*
X0912000Y0183646D02*
D03*
Y0189354D02*
D03*
X0906500Y0183646D02*
D03*
Y0189354D02*
D03*
X0866000Y0147354D02*
D03*
Y0141646D02*
D03*
X0860500Y0147354D02*
D03*
Y0141646D02*
D03*
X0830500Y0171146D02*
D03*
Y0176854D02*
D03*
X0825000Y0176646D02*
D03*
Y0182354D02*
D03*
X0815000Y0151646D02*
D03*
Y0157354D02*
D03*
X0809500Y0151646D02*
D03*
Y0157354D02*
D03*
Y0167854D02*
D03*
Y0162146D02*
D03*
X0614500Y0112146D02*
D03*
Y0117854D02*
D03*
D106*
X0827823Y0220216D02*
D03*
X0830185D02*
D03*
X0841996D02*
D03*
X0844358D02*
D03*
X0634122D02*
D03*
X0636484D02*
D03*
X0638846D02*
D03*
X0641209D02*
D03*
X0643571D02*
D03*
X0645933D02*
D03*
X0648295D02*
D03*
X0650658D02*
D03*
X0653020D02*
D03*
X0655382D02*
D03*
X0657744D02*
D03*
X0660106D02*
D03*
X0662468D02*
D03*
X0664831D02*
D03*
X0667193D02*
D03*
X0669555D02*
D03*
X0671917D02*
D03*
X0674279D02*
D03*
X0676642D02*
D03*
X0679004D02*
D03*
X0635303Y0252500D02*
D03*
X0637665D02*
D03*
X0640028D02*
D03*
X0642390D02*
D03*
X0644752D02*
D03*
X0647114D02*
D03*
X0649476D02*
D03*
X0651839D02*
D03*
X0654201D02*
D03*
X0656563D02*
D03*
X0658925D02*
D03*
X0661287D02*
D03*
X0663650D02*
D03*
X0666012D02*
D03*
X0668374D02*
D03*
X0670736D02*
D03*
X0673098D02*
D03*
X0675461D02*
D03*
X0677823D02*
D03*
X0680185D02*
D03*
X0695539Y0220216D02*
D03*
X0697902D02*
D03*
X0700264D02*
D03*
X0702626D02*
D03*
X0704988D02*
D03*
X0707350D02*
D03*
X0709713D02*
D03*
X0712075D02*
D03*
X0714437D02*
D03*
X0716799D02*
D03*
X0719161D02*
D03*
X0721524D02*
D03*
X0723886D02*
D03*
X0726248D02*
D03*
X0728610D02*
D03*
X0730972D02*
D03*
X0733335D02*
D03*
X0735697D02*
D03*
X0738059D02*
D03*
X0740421D02*
D03*
X0742783D02*
D03*
X0745146D02*
D03*
X0747508D02*
D03*
X0749870D02*
D03*
X0752232D02*
D03*
X0754595D02*
D03*
X0756957D02*
D03*
X0759319D02*
D03*
X0761681D02*
D03*
X0764043D02*
D03*
X0766405D02*
D03*
X0768768D02*
D03*
X0771130D02*
D03*
X0773492D02*
D03*
X0775854D02*
D03*
X0778217D02*
D03*
X0780579D02*
D03*
X0782941D02*
D03*
X0785303D02*
D03*
X0787665D02*
D03*
X0790028D02*
D03*
X0792390D02*
D03*
X0794752D02*
D03*
X0797114D02*
D03*
X0799476D02*
D03*
X0801839D02*
D03*
X0804201D02*
D03*
X0806563D02*
D03*
X0808925D02*
D03*
X0811287D02*
D03*
X0813650D02*
D03*
X0816012D02*
D03*
X0818374D02*
D03*
X0820736D02*
D03*
X0823098D02*
D03*
X0825461D02*
D03*
X0832547D02*
D03*
X0834909D02*
D03*
X0837272D02*
D03*
X0839634D02*
D03*
X0846721D02*
D03*
X0849083D02*
D03*
X0851445D02*
D03*
X0853807D02*
D03*
X0856169D02*
D03*
X0858531D02*
D03*
X0860894D02*
D03*
X0863256D02*
D03*
X0865618D02*
D03*
X0867980D02*
D03*
X0870343D02*
D03*
X0872705D02*
D03*
X0875067D02*
D03*
X0877429D02*
D03*
X0879791D02*
D03*
X0882154D02*
D03*
X0696721Y0252500D02*
D03*
X0699083D02*
D03*
X0701445D02*
D03*
X0703807D02*
D03*
X0706169D02*
D03*
X0708532D02*
D03*
X0710894D02*
D03*
X0713256D02*
D03*
X0715618D02*
D03*
X0717980D02*
D03*
X0720342D02*
D03*
X0722705D02*
D03*
X0725067D02*
D03*
X0727429D02*
D03*
X0729791D02*
D03*
X0732154D02*
D03*
X0734516D02*
D03*
X0736878D02*
D03*
X0739240D02*
D03*
X0741602D02*
D03*
X0743965D02*
D03*
X0746327D02*
D03*
X0748689D02*
D03*
X0751051D02*
D03*
X0753413D02*
D03*
X0755776D02*
D03*
X0758138D02*
D03*
X0760500D02*
D03*
X0762862D02*
D03*
X0765224D02*
D03*
X0767587D02*
D03*
X0769949D02*
D03*
X0772311D02*
D03*
X0774673D02*
D03*
X0777035D02*
D03*
X0779398D02*
D03*
X0781760D02*
D03*
X0784122D02*
D03*
X0786484D02*
D03*
X0788846D02*
D03*
X0791209D02*
D03*
X0793571D02*
D03*
X0795933D02*
D03*
X0798295D02*
D03*
X0800657D02*
D03*
X0803020D02*
D03*
X0805382D02*
D03*
X0807744D02*
D03*
X0810106D02*
D03*
X0812469D02*
D03*
X0814831D02*
D03*
X0817193D02*
D03*
X0819555D02*
D03*
X0821917D02*
D03*
X0824279D02*
D03*
X0826642D02*
D03*
X0829004D02*
D03*
X0831366D02*
D03*
X0833728D02*
D03*
X0836091D02*
D03*
X0838453D02*
D03*
X0840815D02*
D03*
X0843177D02*
D03*
X0845539D02*
D03*
X0847902D02*
D03*
X0850264D02*
D03*
X0852626D02*
D03*
X0854988D02*
D03*
X0857350D02*
D03*
X0859713D02*
D03*
X0862075D02*
D03*
X0864437D02*
D03*
X0866799D02*
D03*
X0869161D02*
D03*
X0871524D02*
D03*
X0873886D02*
D03*
X0876248D02*
D03*
X0878610D02*
D03*
X0880972D02*
D03*
X0883335D02*
D03*
D107*
X0630972Y0283602D02*
D03*
X0886484D02*
D03*
D108*
X0932000Y0307500D02*
D03*
Y0311437D02*
D03*
Y0279941D02*
D03*
Y0283878D02*
D03*
Y0287815D02*
D03*
Y0291752D02*
D03*
Y0295689D02*
D03*
Y0299626D02*
D03*
Y0303563D02*
D03*
Y0315374D02*
D03*
Y0319311D02*
D03*
Y0323248D02*
D03*
Y0327185D02*
D03*
Y0331122D02*
D03*
Y0335059D02*
D03*
X0917335D02*
D03*
Y0331122D02*
D03*
Y0327185D02*
D03*
Y0323248D02*
D03*
Y0319311D02*
D03*
Y0315374D02*
D03*
Y0311437D02*
D03*
Y0307500D02*
D03*
Y0303563D02*
D03*
Y0299626D02*
D03*
Y0295689D02*
D03*
Y0291752D02*
D03*
Y0287815D02*
D03*
Y0283878D02*
D03*
Y0279941D02*
D03*
D109*
X0734996Y0140250D02*
D03*
X0747004D02*
D03*
X0767004Y0183250D02*
D03*
X0754996D02*
D03*
D110*
X0803500Y0157567D02*
D03*
Y0163433D02*
D03*
D111*
X0829500Y0141847D02*
D03*
X0831468Y0135153D02*
D03*
X0827532D02*
D03*
X0838500Y0141847D02*
D03*
X0840469Y0135153D02*
D03*
X0836532D02*
D03*
D112*
X0783153Y0143000D02*
D03*
X0789847Y0144968D02*
D03*
Y0141032D02*
D03*
D113*
X0614500Y0128354D02*
D03*
Y0122646D02*
D03*
X0611000Y0242854D02*
D03*
Y0237146D02*
D03*
Y0226646D02*
D03*
Y0232354D02*
D03*
X0590750Y0324854D02*
D03*
Y0319146D02*
D03*
X0596500Y0324854D02*
D03*
Y0319146D02*
D03*
X0892000Y0329104D02*
D03*
Y0323396D02*
D03*
X0612500Y0259146D02*
D03*
Y0264854D02*
D03*
X0616000Y0177854D02*
D03*
Y0172146D02*
D03*
X0610500D02*
D03*
Y0177854D02*
D03*
X0934000Y0224646D02*
D03*
Y0230354D02*
D03*
X0926500Y0188146D02*
D03*
Y0193854D02*
D03*
X0840000Y0147146D02*
D03*
Y0152854D02*
D03*
X0897500Y0160146D02*
D03*
Y0165854D02*
D03*
D114*
X0726750Y0126500D02*
D03*
X0787750Y0205000D02*
D03*
X0983500Y0318500D02*
D03*
X0964500D02*
D03*
X0954750D02*
D03*
X0767750Y0153250D02*
D03*
X0973500Y0318500D02*
D03*
X0857500Y0211000D02*
D03*
X0849000D02*
D03*
X0922500Y0220000D02*
D03*
X0915500Y0203500D02*
D03*
X0925000Y0203000D02*
D03*
X0932500Y0181500D02*
D03*
X0803000Y0172500D02*
D03*
X0778000Y0136000D02*
D03*
X0780500Y0166000D02*
D03*
X0841000Y0128500D02*
D03*
X0831000D02*
D03*
X0592000Y0140000D02*
D03*
X0602000Y0177500D02*
D03*
X0592000D02*
D03*
Y0297500D02*
D03*
Y0287500D02*
D03*
Y0277500D02*
D03*
Y0267500D02*
D03*
Y0257500D02*
D03*
Y0247500D02*
D03*
Y0237500D02*
D03*
Y0227500D02*
D03*
Y0217500D02*
D03*
Y0207500D02*
D03*
Y0197500D02*
D03*
Y0187500D02*
D03*
Y0167500D02*
D03*
X0602000Y0307500D02*
D03*
Y0297500D02*
D03*
Y0287500D02*
D03*
Y0277500D02*
D03*
Y0267500D02*
D03*
Y0257500D02*
D03*
Y0247500D02*
D03*
Y0237500D02*
D03*
Y0227500D02*
D03*
Y0217500D02*
D03*
Y0207500D02*
D03*
Y0197500D02*
D03*
Y0187500D02*
D03*
Y0167500D02*
D03*
X1027500Y0331250D02*
D03*
Y0321250D02*
D03*
Y0311250D02*
D03*
Y0301250D02*
D03*
X1037500Y0341250D02*
D03*
Y0331250D02*
D03*
Y0321250D02*
D03*
Y0311250D02*
D03*
Y0301250D02*
D03*
D115*
X0852736Y0153276D02*
D03*
X0854705D02*
D03*
X0856673D02*
D03*
X0858642D02*
D03*
X0860610D02*
D03*
X0862579D02*
D03*
X0864547D02*
D03*
X0866516D02*
D03*
X0868484D02*
D03*
X0870453D02*
D03*
X0872421D02*
D03*
X0874390D02*
D03*
X0876358D02*
D03*
X0878327D02*
D03*
X0880295D02*
D03*
X0882264D02*
D03*
Y0187724D02*
D03*
X0880295D02*
D03*
X0878327D02*
D03*
X0876358D02*
D03*
X0874390D02*
D03*
X0872421D02*
D03*
X0870453D02*
D03*
X0868484D02*
D03*
X0866516D02*
D03*
X0864547D02*
D03*
X0862579D02*
D03*
X0860610D02*
D03*
X0858642D02*
D03*
X0856673D02*
D03*
X0854705D02*
D03*
X0852736D02*
D03*
D116*
X0884724Y0155736D02*
D03*
Y0157705D02*
D03*
Y0159673D02*
D03*
Y0161642D02*
D03*
Y0163610D02*
D03*
Y0165579D02*
D03*
Y0167547D02*
D03*
Y0169516D02*
D03*
Y0171484D02*
D03*
Y0173453D02*
D03*
Y0175421D02*
D03*
Y0177390D02*
D03*
Y0179358D02*
D03*
Y0181327D02*
D03*
Y0183295D02*
D03*
Y0185264D02*
D03*
X0850276D02*
D03*
Y0183295D02*
D03*
Y0181327D02*
D03*
Y0179358D02*
D03*
Y0177390D02*
D03*
Y0175421D02*
D03*
Y0173453D02*
D03*
Y0171484D02*
D03*
Y0169516D02*
D03*
Y0163610D02*
D03*
Y0161642D02*
D03*
Y0159673D02*
D03*
Y0157705D02*
D03*
Y0155736D02*
D03*
Y0167547D02*
D03*
Y0165579D02*
D03*
D117*
X0867500Y0170500D02*
D03*
D118*
X0791240Y0179063D02*
D03*
Y0181032D02*
D03*
Y0186937D02*
D03*
Y0184968D02*
D03*
Y0183000D02*
D03*
X0808760Y0186937D02*
D03*
Y0184968D02*
D03*
Y0183000D02*
D03*
Y0181032D02*
D03*
Y0179063D02*
D03*
D119*
X0831150Y0158831D02*
D03*
X0824850Y0150169D02*
D03*
X0831150D02*
D03*
X0824850Y0158831D02*
D03*
D120*
X0755429Y0169193D02*
D03*
X0753657D02*
D03*
X0751886D02*
D03*
X0750114D02*
D03*
X0746571D02*
D03*
Y0155807D02*
D03*
X0748343Y0169193D02*
D03*
Y0155807D02*
D03*
X0750114D02*
D03*
X0751886D02*
D03*
X0753657D02*
D03*
X0755429D02*
D03*
D121*
X0751000Y0162500D02*
D03*
D122*
X0877000Y0123250D02*
D03*
X0871134D02*
D03*
D123*
X0786953Y0125500D02*
D03*
X0806047D02*
D03*
D124*
X1188500Y0160250D02*
D03*
X1198500Y0200250D02*
D03*
Y0190250D02*
D03*
Y0180250D02*
D03*
Y0170250D02*
D03*
Y0160250D02*
D03*
X1188500Y0170250D02*
D03*
Y0180250D02*
D03*
Y0190250D02*
D03*
Y0200250D02*
D03*
X0926126Y0156000D02*
D03*
X0934000D02*
D03*
X0916284D02*
D03*
X0943843D02*
D03*
X0960000Y0289750D02*
D03*
X0970000D02*
D03*
X0980000D02*
D03*
X0960000Y0299750D02*
D03*
X0970000D02*
D03*
X0980000D02*
D03*
X1024972Y0208032D02*
D03*
X1020976Y0218032D02*
D03*
X1016980Y0208032D02*
D03*
X1012984Y0218032D02*
D03*
X0993004Y0208032D02*
D03*
X0985012D02*
D03*
X1028969Y0218032D02*
D03*
X0710500Y0200000D02*
D03*
X0630500Y0120000D02*
D03*
Y0200000D02*
D03*
X0670500D02*
D03*
X0660500Y0120000D02*
D03*
X0680500D02*
D03*
X1017250Y0260750D02*
D03*
X1007250D02*
D03*
X0997250D02*
D03*
X0977250D02*
D03*
X0967250D02*
D03*
X0957250D02*
D03*
X0947250D02*
D03*
D125*
X0955929Y0145331D02*
D03*
X0904197D02*
D03*
X1029992Y0148031D02*
D03*
X0979992D02*
D03*
X0642980Y0200000D02*
D03*
Y0120000D02*
D03*
X0697980Y0200000D02*
D03*
Y0120000D02*
D03*
D126*
X0821000Y0128500D02*
D03*
X0602000Y0140000D02*
D03*
D127*
X0592000Y0307500D02*
D03*
X1027500Y0341250D02*
D03*
D128*
X0982984Y0180000D02*
D03*
X1027000D02*
D03*
D129*
X1036744Y0135512D02*
D03*
X0973240D02*
D03*
D130*
X1028988Y0228031D02*
D03*
X1018988D02*
D03*
X0990996D02*
D03*
X0980996D02*
D03*
D131*
X0600248Y0121295D02*
D03*
X1198673D02*
D03*
Y0345705D02*
D03*
X0600248D02*
D03*
X1143000Y0163000D02*
D03*
Y0345705D02*
D03*
X0801035Y0345705D02*
D03*
X0997886D02*
D03*
D132*
X0880492Y0183492D02*
D03*
Y0179161D02*
D03*
Y0174831D02*
D03*
Y0170500D02*
D03*
Y0166169D02*
D03*
Y0161839D02*
D03*
Y0157508D02*
D03*
X0876161Y0183492D02*
D03*
Y0179161D02*
D03*
Y0174831D02*
D03*
Y0170500D02*
D03*
Y0166169D02*
D03*
Y0161839D02*
D03*
Y0157508D02*
D03*
X0871831Y0183492D02*
D03*
Y0179161D02*
D03*
Y0174831D02*
D03*
Y0170500D02*
D03*
Y0166169D02*
D03*
Y0161839D02*
D03*
Y0157508D02*
D03*
X0867500Y0183492D02*
D03*
Y0179161D02*
D03*
Y0174831D02*
D03*
Y0170500D02*
D03*
Y0166169D02*
D03*
Y0161839D02*
D03*
Y0157508D02*
D03*
X0863169Y0183492D02*
D03*
Y0179161D02*
D03*
Y0174831D02*
D03*
Y0170500D02*
D03*
Y0166169D02*
D03*
Y0161839D02*
D03*
Y0157508D02*
D03*
X0858839Y0183492D02*
D03*
Y0179161D02*
D03*
Y0174831D02*
D03*
Y0170500D02*
D03*
Y0166169D02*
D03*
Y0161839D02*
D03*
Y0157508D02*
D03*
X0854508Y0183492D02*
D03*
Y0179161D02*
D03*
Y0174831D02*
D03*
Y0170500D02*
D03*
Y0166169D02*
D03*
Y0161839D02*
D03*
Y0157508D02*
D03*
D133*
X1095750Y0327750D02*
D03*
X1118000Y0314000D02*
D03*
X1073250Y0336250D02*
D03*
X1070924Y0343250D02*
D03*
X1078000Y0315000D02*
D03*
X1080924Y0343250D02*
D03*
M02*
