G04 Layer_Physical_Order=1*
G04 Layer_Color=255*
%FSAX25Y25*%
%MOIN*%
G70*
G01*
G75*
%ADD10R,0.07874X0.07874*%
%ADD11R,0.01575X0.06890*%
%ADD12R,0.02362X0.03347*%
%ADD13R,0.05512X0.04921*%
%ADD14R,0.02559X0.03543*%
%ADD15R,0.04921X0.05512*%
%ADD16R,0.07087X0.07480*%
%ADD17R,0.07480X0.07087*%
%ADD18R,0.03543X0.02559*%
%ADD19R,0.01378X0.07874*%
%ADD20R,0.17716X0.18110*%
%ADD21R,0.06496X0.02362*%
%ADD22R,0.05906X0.14173*%
%ADD23R,0.03622X0.02441*%
%ADD24R,0.01575X0.03347*%
%ADD25R,0.03347X0.01575*%
%ADD26R,0.03347X0.02362*%
%ADD27C,0.05906*%
%ADD28R,0.00984X0.03740*%
%ADD29R,0.03740X0.00984*%
%ADD30R,0.28740X0.28740*%
%ADD31R,0.05315X0.01181*%
%ADD32R,0.04331X0.05512*%
%ADD33R,0.00984X0.03937*%
%ADD34R,0.09843X0.06693*%
%ADD35R,0.02441X0.03622*%
%ADD36C,0.00984*%
%ADD37C,0.00800*%
%ADD38C,0.07874*%
%ADD39C,0.01299*%
%ADD40C,0.03937*%
%ADD41C,0.01181*%
%ADD42C,0.02756*%
%ADD43C,0.04724*%
%ADD44C,0.00799*%
%ADD45C,0.05906*%
%ADD46C,0.00988*%
%ADD47C,0.01969*%
%ADD48R,0.06500X0.13000*%
%ADD49R,0.11500X0.04000*%
%ADD50R,0.06000X0.17000*%
%ADD51R,0.10500X0.08000*%
%ADD52R,0.06500X0.13500*%
%ADD53R,0.04000X0.09500*%
%ADD54R,0.04000X0.08000*%
%ADD55R,0.07750X0.06250*%
%ADD56R,0.08500X0.13500*%
%ADD57R,0.26250X0.09750*%
%ADD58R,0.26750X0.12250*%
%ADD59R,0.07000X0.05500*%
%ADD60R,0.10500X0.05250*%
%ADD61O,0.03347X0.09843*%
%ADD62C,0.05543*%
%ADD63R,0.05906X0.05906*%
%ADD64R,0.05906X0.05906*%
%ADD65C,0.04921*%
%ADD66C,0.09449*%
%ADD67C,0.06024*%
%ADD68C,0.12598*%
%ADD69C,0.02362*%
%ADD70C,0.02500*%
%ADD71C,0.03000*%
%ADD72C,0.02894*%
G36*
X0736750Y0196000D02*
X0721500Y0211250D01*
X0736750Y0211250D01*
X0736750Y0196000D01*
D02*
G37*
G36*
X0765000Y0208500D02*
Y0209000D01*
X0765500D01*
X0765000Y0208500D01*
D02*
G37*
G36*
X0762500Y0209750D02*
X0759750D01*
X0762500Y0214250D01*
Y0209750D01*
D02*
G37*
D10*
X0809886Y0112311D02*
D03*
X0782917D02*
D03*
D11*
X0791382Y0125500D02*
D03*
X0793941D02*
D03*
X0801618D02*
D03*
X0799059D02*
D03*
X0796500D02*
D03*
D12*
X0901896Y0340000D02*
D03*
X0907604D02*
D03*
X0887854Y0129000D02*
D03*
X0882146D02*
D03*
X0888854Y0134500D02*
D03*
X0883146D02*
D03*
X0888854Y0140000D02*
D03*
X0883146D02*
D03*
X0761854Y0149000D02*
D03*
X0756146D02*
D03*
X0800146Y0141500D02*
D03*
X0805854D02*
D03*
X0822354Y0136000D02*
D03*
X0816646D02*
D03*
X0806500D02*
D03*
X0812209D02*
D03*
X0891396Y0334250D02*
D03*
X0897104D02*
D03*
X0821146Y0212000D02*
D03*
X0826854D02*
D03*
X0821146Y0206500D02*
D03*
X0826854D02*
D03*
X0821146Y0195000D02*
D03*
X0826854D02*
D03*
X0821146Y0200500D02*
D03*
X0826854D02*
D03*
X0953396Y0332250D02*
D03*
X0959104D02*
D03*
X0953396Y0326750D02*
D03*
X0959104D02*
D03*
X0918646Y0177500D02*
D03*
X0924354D02*
D03*
X0918646Y0183000D02*
D03*
X0924354D02*
D03*
X0951354Y0209500D02*
D03*
X0945646D02*
D03*
X0951354Y0218500D02*
D03*
X0945646D02*
D03*
X0951354Y0193000D02*
D03*
X0945646D02*
D03*
X0951354Y0202000D02*
D03*
X0945646D02*
D03*
X0956354Y0230000D02*
D03*
X0950646D02*
D03*
Y0224500D02*
D03*
X0956354D02*
D03*
X0818646Y0188000D02*
D03*
X0824354D02*
D03*
X0899146Y0178500D02*
D03*
X0904854D02*
D03*
X0789354Y0152000D02*
D03*
X0783646D02*
D03*
X0784146Y0135000D02*
D03*
X0789854D02*
D03*
D13*
X0742000Y0207498D02*
D03*
Y0201002D02*
D03*
X0764500Y0161002D02*
D03*
Y0167498D02*
D03*
X0757250Y0135248D02*
D03*
Y0128752D02*
D03*
X0772000Y0161002D02*
D03*
Y0167498D02*
D03*
X0739750Y0153502D02*
D03*
Y0159998D02*
D03*
X0732250Y0162002D02*
D03*
Y0168498D02*
D03*
X0726000Y0141002D02*
D03*
Y0147498D02*
D03*
D14*
X0756146Y0143500D02*
D03*
X0761854D02*
D03*
X0897354Y0340000D02*
D03*
X0891646D02*
D03*
X0935146Y0209500D02*
D03*
X0940854D02*
D03*
X0935146Y0218500D02*
D03*
X0940854D02*
D03*
X0935146Y0193000D02*
D03*
X0940854D02*
D03*
X0946854Y0178500D02*
D03*
X0941146D02*
D03*
X0946854Y0184000D02*
D03*
X0941146D02*
D03*
X0871146Y0129000D02*
D03*
X0876854D02*
D03*
X0871146Y0134500D02*
D03*
X0876854D02*
D03*
X0871146Y0144000D02*
D03*
X0876854D02*
D03*
X0865854Y0131000D02*
D03*
X0860146D02*
D03*
X0865854Y0136500D02*
D03*
X0860146D02*
D03*
X0820854Y0166500D02*
D03*
X0815146D02*
D03*
X0804354Y0193000D02*
D03*
X0798646D02*
D03*
X0936000Y0167000D02*
D03*
X0941709D02*
D03*
X0816354Y0141500D02*
D03*
X0810646D02*
D03*
X0935146Y0202000D02*
D03*
X0940854D02*
D03*
D15*
X0749752Y0207000D02*
D03*
X0756248D02*
D03*
X0732248Y0154750D02*
D03*
X0725752D02*
D03*
X0732748Y0180000D02*
D03*
X0726252D02*
D03*
Y0187500D02*
D03*
X0732748D02*
D03*
D16*
X1010250Y0289065D02*
D03*
Y0278435D02*
D03*
X1033750Y0266750D02*
D03*
Y0277380D02*
D03*
X1043500Y0266750D02*
D03*
Y0277380D02*
D03*
X0742000Y0192565D02*
D03*
Y0181935D02*
D03*
D17*
X1020935Y0289000D02*
D03*
X1031565D02*
D03*
X0759935Y0119500D02*
D03*
X0770565D02*
D03*
X0746565Y0126000D02*
D03*
X0735935D02*
D03*
X0755435Y0197250D02*
D03*
X0766065D02*
D03*
X1033435Y0256565D02*
D03*
X1044065D02*
D03*
D18*
X0939500Y0224646D02*
D03*
Y0230354D02*
D03*
X0891500Y0162209D02*
D03*
Y0156500D02*
D03*
X0912000Y0183646D02*
D03*
Y0189354D02*
D03*
X0906500Y0183646D02*
D03*
Y0189354D02*
D03*
X0866000Y0147354D02*
D03*
Y0141646D02*
D03*
X0860500Y0147354D02*
D03*
Y0141646D02*
D03*
X0830500Y0171146D02*
D03*
Y0176854D02*
D03*
X0825000Y0176646D02*
D03*
Y0182354D02*
D03*
X0815000Y0151646D02*
D03*
Y0157354D02*
D03*
X0809500Y0151646D02*
D03*
Y0157354D02*
D03*
Y0167854D02*
D03*
Y0162146D02*
D03*
X0614500Y0112146D02*
D03*
Y0117854D02*
D03*
D19*
X0827823Y0220216D02*
D03*
X0830185D02*
D03*
X0841996D02*
D03*
X0844358D02*
D03*
X0634122D02*
D03*
X0636484D02*
D03*
X0638846D02*
D03*
X0641209D02*
D03*
X0643571D02*
D03*
X0645933D02*
D03*
X0648295D02*
D03*
X0650658D02*
D03*
X0653020D02*
D03*
X0655382D02*
D03*
X0657744D02*
D03*
X0660106D02*
D03*
X0662468D02*
D03*
X0664831D02*
D03*
X0667193D02*
D03*
X0669555D02*
D03*
X0671917D02*
D03*
X0674279D02*
D03*
X0676642D02*
D03*
X0679004D02*
D03*
X0635303Y0252500D02*
D03*
X0637665D02*
D03*
X0640028D02*
D03*
X0642390D02*
D03*
X0644752D02*
D03*
X0647114D02*
D03*
X0649476D02*
D03*
X0651839D02*
D03*
X0654201D02*
D03*
X0656563D02*
D03*
X0658925D02*
D03*
X0661287D02*
D03*
X0663650D02*
D03*
X0666012D02*
D03*
X0668374D02*
D03*
X0670736D02*
D03*
X0673098D02*
D03*
X0675461D02*
D03*
X0677823D02*
D03*
X0680185D02*
D03*
X0695539Y0220216D02*
D03*
X0697902D02*
D03*
X0700264D02*
D03*
X0702626D02*
D03*
X0704988D02*
D03*
X0707350D02*
D03*
X0709713D02*
D03*
X0712075D02*
D03*
X0714437D02*
D03*
X0716799D02*
D03*
X0719161D02*
D03*
X0721524D02*
D03*
X0723886D02*
D03*
X0726248D02*
D03*
X0728610D02*
D03*
X0730972D02*
D03*
X0733335D02*
D03*
X0735697D02*
D03*
X0738059D02*
D03*
X0740421D02*
D03*
X0742783D02*
D03*
X0745146D02*
D03*
X0747508D02*
D03*
X0749870D02*
D03*
X0752232D02*
D03*
X0754595D02*
D03*
X0756957D02*
D03*
X0759319D02*
D03*
X0761681D02*
D03*
X0764043D02*
D03*
X0766405D02*
D03*
X0768768D02*
D03*
X0771130D02*
D03*
X0773492D02*
D03*
X0775854D02*
D03*
X0778217D02*
D03*
X0780579D02*
D03*
X0782941D02*
D03*
X0785303D02*
D03*
X0787665D02*
D03*
X0790028D02*
D03*
X0792390D02*
D03*
X0794752D02*
D03*
X0797114D02*
D03*
X0799476D02*
D03*
X0801839D02*
D03*
X0804201D02*
D03*
X0806563D02*
D03*
X0808925D02*
D03*
X0811287D02*
D03*
X0813650D02*
D03*
X0816012D02*
D03*
X0818374D02*
D03*
X0820736D02*
D03*
X0823098D02*
D03*
X0825461D02*
D03*
X0832547D02*
D03*
X0834909D02*
D03*
X0837272D02*
D03*
X0839634D02*
D03*
X0846721D02*
D03*
X0849083D02*
D03*
X0851445D02*
D03*
X0853807D02*
D03*
X0856169D02*
D03*
X0858531D02*
D03*
X0860894D02*
D03*
X0863256D02*
D03*
X0865618D02*
D03*
X0867980D02*
D03*
X0870343D02*
D03*
X0872705D02*
D03*
X0875067D02*
D03*
X0877429D02*
D03*
X0879791D02*
D03*
X0882154D02*
D03*
X0696721Y0252500D02*
D03*
X0699083D02*
D03*
X0701445D02*
D03*
X0703807D02*
D03*
X0706169D02*
D03*
X0708532D02*
D03*
X0710894D02*
D03*
X0713256D02*
D03*
X0715618D02*
D03*
X0717980D02*
D03*
X0720342D02*
D03*
X0722705D02*
D03*
X0725067D02*
D03*
X0727429D02*
D03*
X0729791D02*
D03*
X0732154D02*
D03*
X0734516D02*
D03*
X0736878D02*
D03*
X0739240D02*
D03*
X0741602D02*
D03*
X0743965D02*
D03*
X0746327D02*
D03*
X0748689D02*
D03*
X0751051D02*
D03*
X0753413D02*
D03*
X0755776D02*
D03*
X0758138D02*
D03*
X0760500D02*
D03*
X0762862D02*
D03*
X0765224D02*
D03*
X0767587D02*
D03*
X0769949D02*
D03*
X0772311D02*
D03*
X0774673D02*
D03*
X0777035D02*
D03*
X0779398D02*
D03*
X0781760D02*
D03*
X0784122D02*
D03*
X0786484D02*
D03*
X0788846D02*
D03*
X0791209D02*
D03*
X0793571D02*
D03*
X0795933D02*
D03*
X0798295D02*
D03*
X0800657D02*
D03*
X0803020D02*
D03*
X0805382D02*
D03*
X0807744D02*
D03*
X0810106D02*
D03*
X0812469D02*
D03*
X0814831D02*
D03*
X0817193D02*
D03*
X0819555D02*
D03*
X0821917D02*
D03*
X0824279D02*
D03*
X0826642D02*
D03*
X0829004D02*
D03*
X0831366D02*
D03*
X0833728D02*
D03*
X0836091D02*
D03*
X0838453D02*
D03*
X0840815D02*
D03*
X0843177D02*
D03*
X0845539D02*
D03*
X0847902D02*
D03*
X0850264D02*
D03*
X0852626D02*
D03*
X0854988D02*
D03*
X0857350D02*
D03*
X0859713D02*
D03*
X0862075D02*
D03*
X0864437D02*
D03*
X0866799D02*
D03*
X0869161D02*
D03*
X0871524D02*
D03*
X0873886D02*
D03*
X0876248D02*
D03*
X0878610D02*
D03*
X0880972D02*
D03*
X0883335D02*
D03*
D20*
X0630972Y0283602D02*
D03*
X0886484D02*
D03*
D21*
X0932000Y0307500D02*
D03*
Y0311437D02*
D03*
Y0279941D02*
D03*
Y0283878D02*
D03*
Y0287815D02*
D03*
Y0291752D02*
D03*
Y0295689D02*
D03*
Y0299626D02*
D03*
Y0303563D02*
D03*
Y0315374D02*
D03*
Y0319311D02*
D03*
Y0323248D02*
D03*
Y0327185D02*
D03*
Y0331122D02*
D03*
Y0335059D02*
D03*
X0917335D02*
D03*
Y0331122D02*
D03*
Y0327185D02*
D03*
Y0323248D02*
D03*
Y0319311D02*
D03*
Y0315374D02*
D03*
Y0311437D02*
D03*
Y0307500D02*
D03*
Y0303563D02*
D03*
Y0299626D02*
D03*
Y0295689D02*
D03*
Y0291752D02*
D03*
Y0287815D02*
D03*
Y0283878D02*
D03*
Y0279941D02*
D03*
D22*
X0734996Y0140250D02*
D03*
X0747004D02*
D03*
X0767004Y0183250D02*
D03*
X0754996D02*
D03*
D23*
X0803500Y0157567D02*
D03*
Y0163433D02*
D03*
D24*
X0829500Y0141847D02*
D03*
X0831468Y0135153D02*
D03*
X0827532D02*
D03*
X0838500Y0141847D02*
D03*
X0840469Y0135153D02*
D03*
X0836532D02*
D03*
D25*
X0783153Y0143000D02*
D03*
X0789847Y0144968D02*
D03*
Y0141032D02*
D03*
D26*
X0614500Y0128354D02*
D03*
Y0122646D02*
D03*
X0611000Y0242854D02*
D03*
Y0237146D02*
D03*
Y0226646D02*
D03*
Y0232354D02*
D03*
X0590750Y0324854D02*
D03*
Y0319146D02*
D03*
X0596500Y0324854D02*
D03*
Y0319146D02*
D03*
X0892000Y0329104D02*
D03*
Y0323396D02*
D03*
X0612500Y0259146D02*
D03*
Y0264854D02*
D03*
X0616000Y0177854D02*
D03*
Y0172146D02*
D03*
X0610500D02*
D03*
Y0177854D02*
D03*
X0934000Y0224646D02*
D03*
Y0230354D02*
D03*
X0926500Y0188146D02*
D03*
Y0193854D02*
D03*
X0840000Y0147146D02*
D03*
Y0152854D02*
D03*
X0897500Y0160146D02*
D03*
Y0165854D02*
D03*
D27*
X0726750Y0126500D02*
D03*
X0787750Y0205000D02*
D03*
X0983500Y0318500D02*
D03*
X0964500D02*
D03*
X0954750D02*
D03*
X0767750Y0153250D02*
D03*
X0973500Y0318500D02*
D03*
X0857500Y0211000D02*
D03*
X0849000D02*
D03*
X0922500Y0220000D02*
D03*
X0915500Y0203500D02*
D03*
X0925000Y0203000D02*
D03*
X0932500Y0181500D02*
D03*
X0803000Y0172500D02*
D03*
X0778000Y0136000D02*
D03*
X0780500Y0166000D02*
D03*
X0841000Y0128500D02*
D03*
X0831000D02*
D03*
X0592000Y0140000D02*
D03*
X0602000Y0177500D02*
D03*
X0592000D02*
D03*
Y0297500D02*
D03*
Y0287500D02*
D03*
Y0277500D02*
D03*
Y0267500D02*
D03*
Y0257500D02*
D03*
Y0247500D02*
D03*
Y0237500D02*
D03*
Y0227500D02*
D03*
Y0217500D02*
D03*
Y0207500D02*
D03*
Y0197500D02*
D03*
Y0187500D02*
D03*
Y0167500D02*
D03*
X0602000Y0307500D02*
D03*
Y0297500D02*
D03*
Y0287500D02*
D03*
Y0277500D02*
D03*
Y0267500D02*
D03*
Y0257500D02*
D03*
Y0247500D02*
D03*
Y0237500D02*
D03*
Y0227500D02*
D03*
Y0217500D02*
D03*
Y0207500D02*
D03*
Y0197500D02*
D03*
Y0187500D02*
D03*
Y0167500D02*
D03*
X1027500Y0331250D02*
D03*
Y0321250D02*
D03*
Y0311250D02*
D03*
Y0301250D02*
D03*
X1037500Y0341250D02*
D03*
Y0331250D02*
D03*
Y0321250D02*
D03*
Y0311250D02*
D03*
Y0301250D02*
D03*
D28*
X0852736Y0153276D02*
D03*
X0854705D02*
D03*
X0856673D02*
D03*
X0858642D02*
D03*
X0860610D02*
D03*
X0862579D02*
D03*
X0864547D02*
D03*
X0866516D02*
D03*
X0868484D02*
D03*
X0870453D02*
D03*
X0872421D02*
D03*
X0874390D02*
D03*
X0876358D02*
D03*
X0878327D02*
D03*
X0880295D02*
D03*
X0882264D02*
D03*
Y0187724D02*
D03*
X0880295D02*
D03*
X0878327D02*
D03*
X0876358D02*
D03*
X0874390D02*
D03*
X0872421D02*
D03*
X0870453D02*
D03*
X0868484D02*
D03*
X0866516D02*
D03*
X0864547D02*
D03*
X0862579D02*
D03*
X0860610D02*
D03*
X0858642D02*
D03*
X0856673D02*
D03*
X0854705D02*
D03*
X0852736D02*
D03*
D29*
X0884724Y0155736D02*
D03*
Y0157705D02*
D03*
Y0159673D02*
D03*
Y0161642D02*
D03*
Y0163610D02*
D03*
Y0165579D02*
D03*
Y0167547D02*
D03*
Y0169516D02*
D03*
Y0171484D02*
D03*
Y0173453D02*
D03*
Y0175421D02*
D03*
Y0177390D02*
D03*
Y0179358D02*
D03*
Y0181327D02*
D03*
Y0183295D02*
D03*
Y0185264D02*
D03*
X0850276D02*
D03*
Y0183295D02*
D03*
Y0181327D02*
D03*
Y0179358D02*
D03*
Y0177390D02*
D03*
Y0175421D02*
D03*
Y0173453D02*
D03*
Y0171484D02*
D03*
Y0169516D02*
D03*
Y0163610D02*
D03*
Y0161642D02*
D03*
Y0159673D02*
D03*
Y0157705D02*
D03*
Y0155736D02*
D03*
Y0167547D02*
D03*
Y0165579D02*
D03*
D30*
X0867500Y0170500D02*
D03*
D31*
X0791240Y0179063D02*
D03*
Y0181032D02*
D03*
Y0186937D02*
D03*
Y0184968D02*
D03*
Y0183000D02*
D03*
X0808760Y0186937D02*
D03*
Y0184968D02*
D03*
Y0183000D02*
D03*
Y0181032D02*
D03*
Y0179063D02*
D03*
D32*
X0831150Y0158831D02*
D03*
X0824850Y0150169D02*
D03*
X0831150D02*
D03*
X0824850Y0158831D02*
D03*
D33*
X0755429Y0169193D02*
D03*
X0753657D02*
D03*
X0751886D02*
D03*
X0750114D02*
D03*
X0746571D02*
D03*
Y0155807D02*
D03*
X0748343Y0169193D02*
D03*
Y0155807D02*
D03*
X0750114D02*
D03*
X0751886D02*
D03*
X0753657D02*
D03*
X0755429D02*
D03*
D34*
X0751000Y0162500D02*
D03*
D35*
X0877000Y0123250D02*
D03*
X0871134D02*
D03*
D36*
X0813834Y0118250D02*
X0814584Y0119000D01*
X0792750Y0118250D02*
X0813834D01*
X0791382Y0119618D02*
X0792750Y0118250D01*
X0814584Y0119000D02*
X0831500D01*
X0841000Y0128500D01*
X0869634Y0123750D02*
X0870134Y0124250D01*
X0925854Y0194000D02*
X0926500Y0193354D01*
X0827500Y0135153D02*
Y0135250D01*
Y0132000D02*
Y0135153D01*
X0921354Y0187646D02*
X0926500D01*
X0866500Y0123750D02*
X0869634D01*
X0870134Y0124250D02*
X0871134Y0123250D01*
X0827500Y0135153D02*
X0827532D01*
X0823008D02*
X0827500D01*
Y0132000D02*
X0831000Y0128500D01*
X0920500Y0194000D02*
X0925854D01*
X0917500Y0191500D02*
X0921354Y0187646D01*
X0845000Y0191000D02*
X0846000Y0190000D01*
X0846500Y0184500D02*
Y0190000D01*
X0846000D02*
X0846500D01*
X0848500Y0194000D02*
X0850276Y0192224D01*
X0843500Y0184000D02*
Y0187500D01*
X0817500Y0140000D02*
X0823000D01*
X0860610Y0147465D02*
Y0153276D01*
X0860500Y0147354D02*
X0860610Y0147465D01*
X0860500Y0147354D02*
X0866000D01*
X0868854D02*
X0870453Y0148953D01*
Y0153276D01*
X0871146Y0141354D02*
Y0144000D01*
Y0141354D02*
X0873000Y0139500D01*
X0845000Y0154500D02*
X0846236Y0155736D01*
X0850276D01*
X0837984Y0169516D02*
X0850276D01*
X0835500Y0172000D02*
X0837984Y0169516D01*
X0843579Y0175421D02*
X0850276D01*
X0846173Y0181327D02*
X0850276D01*
X0835500Y0183500D02*
Y0184000D01*
Y0183500D02*
X0843579Y0175421D01*
X0843500Y0184000D02*
X0846173Y0181327D01*
X0847705Y0183295D02*
X0850276D01*
X0846500Y0184500D02*
X0847705Y0183295D01*
X0850276Y0185264D02*
Y0192224D01*
X0870453Y0187724D02*
Y0193953D01*
X0870500Y0194000D01*
X0866516Y0187724D02*
Y0190484D01*
X0864500Y0192500D02*
X0866516Y0190484D01*
X0824000Y0188000D02*
X0824354D01*
X0828500D01*
X0831354Y0172000D02*
X0835500D01*
X0830500Y0171146D02*
X0831354Y0172000D01*
X0825000Y0176646D02*
X0830500Y0171146D01*
X0865854Y0131000D02*
Y0136500D01*
X0872774Y0139274D02*
X0873000Y0139500D01*
X0791382Y0125500D02*
Y0133472D01*
X0789854Y0135000D02*
X0791382Y0133472D01*
X0789847Y0141032D02*
X0789854Y0141024D01*
X0783153Y0143000D02*
Y0151508D01*
X0783646Y0152000D01*
X0808760Y0186937D02*
Y0189260D01*
X0810000Y0190500D01*
X0783646Y0152000D02*
Y0160854D01*
X0780500Y0138500D02*
X0789854D01*
X0778000Y0136000D02*
X0780500Y0138500D01*
X0789854Y0135000D02*
Y0138500D01*
Y0141024D01*
X0791382Y0119618D02*
Y0125500D01*
X0831468Y0135153D02*
Y0137469D01*
X0835847Y0141847D01*
X0838500D01*
X0822854Y0135000D02*
X0823008Y0135153D01*
X0817354Y0140146D02*
X0817500Y0140000D01*
X0849000Y0125933D02*
X0850000Y0124933D01*
X0838500Y0141847D02*
X0844347D01*
X0845000Y0142500D01*
Y0154500D02*
X0849000Y0150500D01*
Y0125933D02*
Y0150500D01*
X0780500Y0166000D02*
X0783500Y0163000D01*
Y0161000D02*
X0783646Y0160854D01*
X0783500Y0161000D02*
Y0163000D01*
X0866646Y0147354D02*
X0870000Y0144000D01*
X0871146D01*
X0866000Y0147354D02*
X0866646D01*
X0868854D01*
X0865854Y0136500D02*
X0867000D01*
X0869774Y0139274D01*
X0872774D01*
D37*
X0917335Y0315374D02*
X0932000D01*
X0805610Y0252500D02*
Y0263390D01*
X0812610Y0252500D02*
Y0263390D01*
X0861110Y0220216D02*
Y0224390D01*
X0846610Y0220216D02*
Y0226500D01*
X0939791Y0183000D02*
X0941146D01*
X0860146Y0130354D02*
X0864000Y0126500D01*
X0791110Y0252500D02*
Y0263390D01*
X0777110Y0252000D02*
Y0262890D01*
X0763110Y0252000D02*
Y0262890D01*
X0784110Y0252000D02*
Y0262890D01*
X0770110Y0252000D02*
Y0262890D01*
X0755610Y0252000D02*
Y0262890D01*
X0734390Y0252500D02*
Y0253000D01*
X0748610Y0251500D02*
Y0262390D01*
X0741390Y0242110D02*
Y0253000D01*
X0720232Y0241610D02*
Y0252500D01*
X0713390Y0242610D02*
Y0253500D01*
X0698972Y0241610D02*
Y0252500D01*
X0663890Y0245610D02*
Y0252500D01*
X0782500Y0183000D02*
X0791240D01*
X0801559Y0124250D02*
Y0130191D01*
X0757248Y0135250D02*
X0762250D01*
X0714000Y0213500D02*
X0716818D01*
X0776250Y0181818D02*
X0776409Y0181659D01*
X0871524Y0267476D02*
X0875250Y0263750D01*
X0871524Y0252500D02*
Y0267476D01*
X0873886Y0252500D02*
Y0262000D01*
X0956354Y0224354D02*
X0956500Y0224500D01*
X0806354Y0141000D02*
X0810646D01*
X0897500Y0160000D02*
X0904500Y0167000D01*
X0635000Y0252500D02*
Y0253000D01*
X0956354Y0229854D02*
X0957500Y0231000D01*
X0756248Y0207000D02*
X0761750D01*
X1198500Y0200250D02*
Y0260500D01*
X1093750Y0325750D02*
X1095750Y0327750D01*
X1093750Y0281250D02*
Y0325750D01*
X1107250Y0324750D02*
X1118000Y0314000D01*
X1101250Y0357750D02*
X1198500Y0260500D01*
X0845250Y0357750D02*
X1101250D01*
X1107250Y0324750D02*
Y0345500D01*
X1091346Y0354404D02*
X1099750Y0346000D01*
Y0303000D02*
Y0346000D01*
X1096750Y0356000D02*
X1107250Y0345500D01*
X1099750Y0303000D02*
X1193250Y0209500D01*
X1069500Y0279250D02*
X1188500Y0160250D01*
X1069500Y0279250D02*
Y0332500D01*
X1073250Y0336250D01*
X1065250Y0339000D02*
X1076674D01*
X1037500Y0311250D02*
X1065250Y0339000D01*
X1064000Y0343250D02*
X1070924D01*
X1193250Y0185500D02*
X1198500Y0180250D01*
X1185250Y0185500D02*
X1193250D01*
X1182250Y0188500D02*
X1185250Y0185500D01*
X1182250Y0188500D02*
Y0192750D01*
X1093750Y0281250D02*
X1182250Y0192750D01*
X1193250Y0195500D02*
X1198500Y0190250D01*
X1193250Y0195500D02*
Y0209500D01*
X0644750Y0212250D02*
X0647000D01*
X0642500D02*
X0644750D01*
X0859110Y0226390D02*
X0861110Y0224390D01*
X0880750Y0123250D02*
X0881500Y0124000D01*
X0876250Y0344000D02*
X0936000D01*
X0872250Y0346500D02*
X0962750D01*
X0981500Y0356000D02*
X1096750D01*
X0822250Y0330750D02*
X0845250Y0353750D01*
X0979250D02*
X0981500Y0356000D01*
X0845250Y0353750D02*
X0979250D01*
X0823250Y0328000D02*
X0845750Y0350500D01*
X0981596D02*
X0985500Y0354404D01*
X0845750Y0350500D02*
X0981596D01*
X1037500Y0341250D02*
Y0348000D01*
X1034500Y0351000D02*
X1037500Y0348000D01*
X1020250Y0351000D02*
X1034500D01*
X0962750Y0346500D02*
X0974750Y0334500D01*
X0966750Y0337250D02*
X0973750Y0330250D01*
X0966750Y0332250D02*
X0971750Y0327250D01*
X1020750Y0324500D02*
X1027500Y0331250D01*
X0968250Y0324500D02*
X1020750D01*
X0966000Y0326750D02*
X0968250Y0324500D01*
X0936000Y0344000D02*
X0942750Y0337250D01*
X0909104Y0338500D02*
X0912250D01*
X0907604Y0340000D02*
X0909104Y0338500D01*
X0897354Y0340000D02*
X0901896D01*
Y0336854D02*
Y0340000D01*
Y0336854D02*
X0903691Y0335059D01*
X0891854Y0329250D02*
X0892000Y0329104D01*
X0883000Y0329250D02*
X0891854D01*
X0883000D02*
X0888000Y0334250D01*
X0891396D01*
X0881750Y0333750D02*
X0888000Y0340000D01*
X0891646D01*
X0897104Y0334250D02*
X0898709Y0332646D01*
X0725250Y0323250D02*
X0891854D01*
X0892000Y0323396D01*
X0893396D01*
X0745000Y0298000D02*
X0761000D01*
X0722250Y0326250D02*
X0725250Y0323250D01*
X0729750Y0328000D02*
X0823250D01*
X0729500Y0327750D02*
X0729750Y0328000D01*
X0670125Y0266625D02*
X0676125D01*
X0680250Y0262500D01*
X0673500Y0263500D02*
X0675461Y0261539D01*
Y0252500D02*
Y0261539D01*
X0695250Y0270500D02*
X0698250Y0267500D01*
X0671750Y0270500D02*
X0695250D01*
X0617146Y0269500D02*
X0667250D01*
X0670125Y0266625D01*
X0673098Y0252500D02*
Y0259152D01*
X0666000Y0266250D02*
X0673098Y0259152D01*
X0659000Y0266250D02*
X0666000D01*
X0667500Y0273250D02*
X0696750D01*
X0697250Y0272750D01*
X0641250Y0231750D02*
X0643571Y0229429D01*
Y0220216D02*
Y0229429D01*
X0714500Y0327000D02*
X0718250Y0330750D01*
X0680250Y0252565D02*
Y0262500D01*
X0641250Y0237000D02*
X0652500D01*
X0636500Y0232250D02*
X0641250Y0237000D01*
X0650658Y0230157D02*
X0651750Y0231250D01*
X0644750Y0233750D02*
X0645933Y0232567D01*
Y0220216D02*
Y0232567D01*
X0638846Y0220216D02*
Y0227097D01*
X0639500Y0227750D01*
X0650658Y0220216D02*
Y0230157D01*
X0653020Y0220216D02*
Y0227520D01*
X0654000Y0228500D01*
X0761854Y0149000D02*
X0766104Y0153250D01*
X0767750D01*
X0726750Y0133000D02*
X0727250Y0133500D01*
X0726750Y0126500D02*
Y0133000D01*
X0739500Y0169193D02*
X0746571D01*
X0745500Y0151250D02*
X0746571Y0152321D01*
Y0155807D01*
X0734996Y0140250D02*
Y0141250D01*
Y0137746D02*
Y0140250D01*
X0761854Y0143500D02*
X0763500Y0141854D01*
Y0136500D02*
Y0141854D01*
X0762250Y0135250D02*
X0763500Y0136500D01*
X0757248Y0135250D02*
X0757250Y0135248D01*
X0716750Y0141750D02*
X0717498Y0141002D01*
X0726000D01*
X0772000Y0175000D02*
X0773500Y0176500D01*
X0772000Y0167498D02*
Y0175000D01*
X0767004Y0180746D02*
Y0183250D01*
Y0180746D02*
X0771250Y0176500D01*
X0773500D01*
X0751886Y0152114D02*
X0752500Y0151500D01*
X0751886Y0152114D02*
Y0155807D01*
X0727250Y0133500D02*
X0727500Y0133750D01*
X0747500Y0174500D02*
X0748250D01*
X0750114Y0172636D01*
Y0169193D02*
Y0172636D01*
X0751000Y0162500D02*
X0751886Y0163386D01*
Y0169193D01*
X0750114Y0161614D02*
X0751000Y0162500D01*
X0750114Y0155807D02*
Y0161614D01*
X0756146Y0143500D02*
Y0149000D01*
X0755429Y0149716D02*
X0756146Y0149000D01*
X0755429Y0149716D02*
Y0155807D01*
X0747004Y0141250D02*
X0748343Y0142589D01*
Y0155807D01*
X0756943Y0169193D02*
X0759250Y0171500D01*
X0755429Y0169193D02*
X0756943D01*
X0913269Y0287815D02*
X0917335D01*
X0908950Y0283496D02*
X0913269Y0287815D01*
X0877000Y0123250D02*
X0880750D01*
X0876896D02*
X0877000D01*
X0871146Y0129000D02*
X0876896Y0123250D01*
X0838500Y0138750D02*
X0845250D01*
X0836532Y0136782D02*
X0838500Y0138750D01*
X0836532Y0135153D02*
Y0136782D01*
X0805500Y0137000D02*
X0806500Y0136000D01*
X0801250Y0137000D02*
X0805500D01*
X0800146Y0148146D02*
X0801500Y0149500D01*
X0800146Y0141500D02*
Y0148146D01*
X0942750Y0337250D02*
X0966750D01*
X0959104Y0332250D02*
X0966750D01*
X0959104Y0326750D02*
X0966000D01*
X0948000D02*
X0953396D01*
X0740250Y0286000D02*
X0742250Y0284000D01*
X0783750D02*
X0784000Y0284250D01*
X0742250Y0284000D02*
X0783750D01*
X0738000Y0290000D02*
X0769500D01*
X0772000Y0287500D01*
X0822250Y0334750D02*
X0845250Y0357750D01*
X0750750Y0334750D02*
X0822250D01*
X0904041Y0331750D02*
X0905500D01*
X0903146Y0332646D02*
X0904041Y0331750D01*
X0898709Y0332646D02*
X0903146D01*
X0911622Y0331122D02*
X0917335D01*
X0909750Y0329250D02*
X0911622Y0331122D01*
X0696721Y0252500D02*
Y0260471D01*
X0717250Y0317500D02*
X0895500D01*
X0719750Y0282500D02*
X0739240Y0263010D01*
X0719750Y0282500D02*
Y0286250D01*
X0739240Y0252500D02*
Y0263010D01*
X0718250Y0330750D02*
X0822250D01*
X0895500Y0312000D02*
X0904000Y0320500D01*
X0718000Y0312000D02*
X0895500D01*
X0717250Y0312750D02*
X0718000Y0312000D01*
X0896500Y0307250D02*
X0912498Y0323248D01*
X0718750Y0307250D02*
X0896500D01*
X0717625Y0308375D02*
X0718750Y0307250D01*
X0704500Y0306750D02*
X0742000Y0269250D01*
X0611250Y0306750D02*
X0704500D01*
X0742000Y0269250D02*
X0743965Y0267285D01*
X0739500Y0275750D02*
X0746327Y0268923D01*
Y0252500D02*
Y0268923D01*
X0704500Y0310750D02*
X0739500Y0275750D01*
X0722750Y0275500D02*
X0723000D01*
X0736878Y0261622D01*
Y0252500D02*
Y0261622D01*
X0660106Y0213894D02*
Y0220216D01*
Y0213894D02*
X0661000Y0213000D01*
X0636250Y0298250D02*
X0683500D01*
X0701445Y0280305D01*
X0616500Y0301000D02*
X0692750D01*
X0607500Y0292000D02*
X0616500Y0301000D01*
X0692750D02*
X0712500Y0281250D01*
X0714437Y0227437D02*
X0714750Y0227750D01*
X0714437Y0220216D02*
Y0227437D01*
X0717980Y0261980D02*
X0718750Y0262750D01*
X0717980Y0252500D02*
Y0261980D01*
X0722500Y0269750D02*
X0722705Y0269545D01*
Y0252500D02*
Y0269545D01*
X0725067Y0262567D02*
X0726000Y0263500D01*
X0725067Y0252500D02*
Y0262567D01*
X0701445Y0252500D02*
Y0280305D01*
X0679004Y0220216D02*
X0685716D01*
X0686000Y0220500D01*
X0614750Y0210250D02*
Y0224750D01*
X0614250Y0209750D02*
X0614750Y0210250D01*
X0731500Y0262000D02*
X0733000D01*
X0729500D02*
X0731500D01*
X0727429Y0252500D02*
X0727750Y0252821D01*
Y0260250D01*
X0729500Y0262000D01*
X0733000D02*
X0734516Y0260484D01*
Y0252500D02*
Y0260484D01*
X0635303Y0245303D02*
Y0252500D01*
X0614750Y0224750D02*
X0635303Y0245303D01*
X0680185Y0252500D02*
X0680250Y0252565D01*
X0607000Y0217500D02*
X0610500Y0221000D01*
X0602000Y0217500D02*
X0607000D01*
X0605500Y0247500D02*
X0609000Y0251000D01*
X0602000Y0247500D02*
X0605500D01*
X0712500Y0261500D02*
X0712750Y0261250D01*
X0712500Y0261500D02*
Y0281250D01*
X0607500Y0254500D02*
Y0292000D01*
X0604750Y0251750D02*
X0607500Y0254500D01*
X0596250Y0251750D02*
X0604750D01*
X0592000Y0247500D02*
X0596250Y0251750D01*
X0596750Y0302750D02*
X0607250D01*
X0590750Y0319146D02*
X0592000Y0317896D01*
Y0307500D02*
Y0317896D01*
X0596500Y0319146D02*
X0602000Y0313646D01*
Y0307500D02*
Y0313646D01*
X0743965Y0252500D02*
Y0267285D01*
X0608750Y0310750D02*
X0704500D01*
X0605500Y0307500D02*
X0608750Y0310750D01*
X0602000Y0307500D02*
X0605500D01*
X0592000D02*
X0596750Y0302750D01*
X0607250D02*
X0611250Y0306750D01*
X0816500Y0213500D02*
X0818374Y0215374D01*
Y0220216D01*
X0590750Y0324854D02*
Y0330000D01*
X0596500Y0324854D02*
Y0330000D01*
X0917335Y0323248D02*
X0932000D01*
X0917335Y0319311D02*
X0932000D01*
X0913311D02*
X0917335D01*
X0910250Y0316250D02*
X0913311Y0319311D01*
X0912498Y0323248D02*
X0917335D01*
X0636484Y0220216D02*
X0636500Y0220232D01*
Y0232250D01*
X0670500Y0246000D02*
X0675500D01*
X0917335Y0327185D02*
X0932000D01*
X0917335Y0331122D02*
X0932000D01*
X0664280Y0246000D02*
X0670500D01*
X0670736Y0246236D01*
Y0252500D01*
X0663890Y0245610D02*
X0664280Y0246000D01*
X0675500D02*
X0677823Y0248323D01*
Y0252500D01*
X0900500Y0240000D02*
X0902500Y0242000D01*
X0825461Y0220216D02*
Y0227961D01*
X0917335Y0279941D02*
X0924667D01*
X0917335Y0291752D02*
X0924667D01*
Y0279941D02*
X0932000D01*
X0932500Y0235000D02*
X0950500D01*
X0929500Y0232000D02*
X0932500Y0235000D01*
X0929500Y0226000D02*
Y0232000D01*
X0931000Y0209500D02*
X0935146D01*
X0930854Y0224646D02*
X0934000D01*
X0929500Y0226000D02*
X0930854Y0224646D01*
X0950500Y0235000D02*
X0950646Y0234854D01*
X0941709Y0158134D02*
Y0167000D01*
X0839634Y0225634D02*
X0841000Y0227000D01*
X0811287Y0214787D02*
Y0220216D01*
X0809000Y0212500D02*
X0811287Y0214787D01*
X0908000Y0169500D02*
X0908250Y0169250D01*
X0901146Y0169500D02*
X0908000D01*
X0897500Y0165854D02*
X0901146Y0169500D01*
X0809500Y0157354D02*
X0815000D01*
X0820500Y0143000D02*
X0821500Y0144000D01*
X0825000D01*
X0924667Y0291752D02*
X0932000D01*
X0917335Y0303563D02*
X0924667D01*
X0932000D01*
X0872421Y0149079D02*
Y0153276D01*
Y0149079D02*
X0873000Y0148500D01*
X0884724Y0175421D02*
X0901776D01*
X0904854Y0178500D01*
X0868484Y0187724D02*
Y0192516D01*
X0880295Y0187724D02*
Y0190205D01*
X0881591Y0191500D01*
X0892500D01*
X0882264Y0187724D02*
X0887776D01*
X0893500Y0182000D01*
X0901354D01*
X0904854Y0178500D01*
X0892500Y0191500D02*
X0894000Y0190000D01*
Y0186500D02*
Y0190000D01*
X0860500Y0141646D02*
X0866000D01*
X0825000Y0182354D02*
X0830500Y0176854D01*
X0818646Y0185854D02*
X0822146Y0182354D01*
X0818646Y0185854D02*
Y0188000D01*
X0860500Y0136854D02*
Y0141646D01*
X0860146Y0136500D02*
X0860500Y0136854D01*
X0860146Y0131000D02*
Y0136500D01*
X0876854Y0140146D02*
Y0144000D01*
Y0140146D02*
X0878000Y0139000D01*
X0882146D01*
X0883146Y0140000D01*
Y0130000D02*
Y0134500D01*
X0882146Y0129000D02*
X0883146Y0130000D01*
Y0134500D02*
Y0140000D01*
X0820500Y0181000D02*
X0821854Y0182354D01*
X0822146D01*
X0825000D01*
X0871146Y0129000D02*
Y0134500D01*
X0876854Y0129000D02*
Y0134500D01*
X0878000Y0135646D02*
Y0139000D01*
X0876854Y0134500D02*
X0878000Y0135646D01*
X0884724Y0159673D02*
X0888965D01*
X0891500Y0162209D01*
X0893854D01*
X0897500Y0165854D01*
X0904854Y0178500D02*
Y0182000D01*
X0906500Y0183646D01*
X0912000D01*
X0906500Y0189354D02*
X0912000D01*
X0906500Y0189354D02*
Y0189354D01*
X0941709Y0158134D02*
X0943843Y0156000D01*
X0809500Y0157354D02*
Y0162146D01*
X0935146Y0187646D02*
Y0193000D01*
X0930000Y0218500D02*
X0935146D01*
X0951354Y0193000D02*
X0956000D01*
X0950646Y0224500D02*
Y0230000D01*
Y0234854D01*
X0956000Y0190000D02*
Y0193000D01*
X0791240Y0183000D02*
X0796000D01*
X0798646Y0185646D01*
Y0193000D01*
X0804354Y0185646D02*
Y0193000D01*
Y0185646D02*
X0805031Y0184968D01*
X0808760D01*
X0780500Y0131354D02*
X0784146Y0135000D01*
X0780500Y0131000D02*
Y0131354D01*
X0789847Y0144968D02*
Y0145346D01*
X0792500Y0148000D01*
Y0156000D01*
X0790500Y0158000D02*
X0792500Y0156000D01*
X0786500Y0154854D02*
X0789354Y0152000D01*
X0786500Y0154854D02*
Y0157000D01*
X0815000Y0166354D02*
X0815146Y0166500D01*
X0815000Y0157354D02*
Y0161500D01*
Y0166354D01*
X0941146Y0183000D02*
Y0184000D01*
X0946854D02*
X0950000D01*
X0956000Y0190000D01*
X0941146Y0178500D02*
Y0183000D01*
X0946854Y0178500D02*
Y0184000D01*
X0935146Y0187646D02*
X0939791Y0183000D01*
X0918646Y0177500D02*
Y0183000D01*
X0914000Y0177500D02*
X0918646D01*
X0913500Y0177000D02*
X0914000Y0177500D01*
X0817146Y0132354D02*
Y0135000D01*
Y0132354D02*
X0821000Y0128500D01*
X0840469Y0135153D02*
X0843347D01*
X0845000Y0133500D01*
X0836532Y0127532D02*
Y0135153D01*
X0830500Y0121500D02*
X0836532Y0127532D01*
X0820000Y0121500D02*
X0830500D01*
X0811854Y0129646D02*
X0820000Y0121500D01*
X0811854Y0129646D02*
Y0135000D01*
X0827153Y0141847D02*
X0829500D01*
X0825000Y0144000D02*
X0827153Y0141847D01*
X0860146Y0130354D02*
Y0131000D01*
X0840000Y0147146D02*
X0844146D01*
X0845500Y0148500D01*
X0721500Y0215000D02*
Y0220193D01*
X0721524Y0220216D01*
X0705500Y0213000D02*
X0707500Y0215000D01*
Y0220067D01*
X0707350Y0220216D02*
X0707500Y0220067D01*
X0709713Y0214287D02*
Y0220216D01*
Y0214287D02*
X0710500Y0213500D01*
X0611000Y0232354D02*
X0615354D01*
X0615500Y0232500D01*
X0612500Y0264854D02*
X0617146Y0269500D01*
X0611000Y0232354D02*
Y0237146D01*
X0894000Y0186500D02*
X0895500Y0185000D01*
X0902146D01*
X0906500Y0189354D01*
X0951354Y0202000D02*
X0955000D01*
X0951354Y0209500D02*
X0955000D01*
X0951354Y0218500D02*
X0952354Y0217500D01*
X0955000D01*
X0939500Y0224646D02*
X0939646Y0224500D01*
X0943500D01*
X0931500Y0202000D02*
X0935146D01*
X0847902Y0252500D02*
Y0258902D01*
X0849500Y0260500D01*
X0840815Y0252500D02*
Y0268185D01*
X0833000Y0276000D02*
X0840815Y0268185D01*
X0826642Y0252500D02*
Y0264358D01*
X0825500Y0265500D02*
X0826642Y0264358D01*
X0819555Y0252500D02*
Y0261555D01*
X0820000Y0262000D01*
X0706110Y0253500D02*
Y0264390D01*
X0877390Y0207610D02*
Y0218500D01*
X0839634Y0220216D02*
Y0225634D01*
X0832547Y0220216D02*
Y0227453D01*
X0839095Y0234000D01*
X0807000Y0212500D02*
X0809000D01*
X0804201Y0215299D02*
X0807000Y0212500D01*
X0804201Y0215299D02*
Y0220216D01*
X0797114Y0214114D02*
Y0220216D01*
X0795500Y0212500D02*
X0797114Y0214114D01*
X0792000Y0212500D02*
X0795500D01*
X0790028Y0214472D02*
X0792000Y0212500D01*
X0790028Y0214472D02*
Y0220216D01*
X0775854Y0214646D02*
Y0220216D01*
X0782250Y0214250D02*
X0782941Y0214941D01*
Y0220216D01*
X0782250Y0214250D02*
X0784750D01*
X0786500Y0212500D01*
X0740421Y0213921D02*
Y0220216D01*
X0739500Y0213000D02*
X0740421Y0213921D01*
X0734500Y0213000D02*
X0739500D01*
X0733335Y0214165D02*
X0734500Y0213000D01*
X0733335Y0214165D02*
Y0220216D01*
X0726248Y0215252D02*
Y0220216D01*
X0712000Y0215500D02*
X0714000Y0213500D01*
X0712000Y0215500D02*
Y0220142D01*
X0712075Y0220216D01*
X0704988D02*
Y0225512D01*
X0703500Y0227000D02*
X0704988Y0225512D01*
X0697902Y0225402D02*
X0699500Y0227000D01*
X0697902Y0220216D02*
Y0225402D01*
X0676642Y0220216D02*
Y0226358D01*
X0676500Y0226500D02*
X0676642Y0226358D01*
X0699500Y0227000D02*
X0701500D01*
X0703500D01*
X0669555Y0220216D02*
Y0227445D01*
X0669500Y0227500D02*
X0669555Y0227445D01*
X0662468Y0220216D02*
Y0226969D01*
X0662500Y0227000D01*
X0657000D02*
X0662500D01*
X0655382Y0225382D02*
X0657000Y0227000D01*
X0655382Y0220216D02*
Y0225382D01*
X0634122Y0220216D02*
Y0225878D01*
X0632000Y0228000D02*
X0634122Y0225878D01*
X0801291Y0183000D02*
X0808760D01*
X0798646Y0185646D02*
X0801291Y0183000D01*
X0891500Y0155500D02*
Y0156500D01*
X0889000Y0153000D02*
X0891500Y0155500D01*
X0889000Y0151000D02*
Y0153000D01*
X0938500Y0178500D02*
X0941146D01*
X0937000Y0177000D02*
X0938500Y0178500D01*
X0882154Y0220216D02*
X0885283D01*
X0885500Y0220000D01*
X0882154Y0214154D02*
Y0220216D01*
X0882000Y0214000D02*
X0882154Y0214154D01*
X0879791Y0214209D02*
Y0220216D01*
Y0214209D02*
X0880000Y0214000D01*
X0883335Y0252500D02*
Y0259165D01*
X0880972Y0252500D02*
Y0259472D01*
X0876248Y0252500D02*
Y0262752D01*
X0878610Y0252500D02*
Y0263390D01*
X0881000Y0265779D01*
Y0267000D01*
X0870343Y0214158D02*
Y0220216D01*
Y0214158D02*
X0872843D01*
Y0220079D01*
X0872705Y0220216D02*
X0872843Y0220079D01*
X0859500Y0260500D02*
X0862075Y0257925D01*
Y0252500D02*
Y0257925D01*
X0849500Y0260500D02*
X0857500D01*
X0859500D01*
X0864500Y0208000D02*
X0866000D01*
X0867890Y0209890D01*
Y0218500D01*
X0866799Y0252500D02*
Y0257701D01*
X0866500Y0258000D02*
X0866799Y0257701D01*
X0864437Y0252500D02*
Y0257937D01*
X0864500Y0258000D01*
X0866000Y0195000D02*
X0868484Y0192516D01*
X0858000Y0195000D02*
X0866000D01*
X0860610Y0187724D02*
Y0192000D01*
X0857500Y0194500D02*
X0858000Y0195000D01*
X0857500Y0193500D02*
Y0194500D01*
X0856673Y0187724D02*
Y0192673D01*
X0857500Y0193500D01*
X0912000Y0181500D02*
Y0183646D01*
X0909500Y0179000D02*
X0912000Y0181500D01*
X0612500Y0264854D02*
Y0279000D01*
X0695539Y0216039D02*
Y0220216D01*
X0686500Y0207000D02*
X0695539Y0216039D01*
X0681000Y0207000D02*
X0686500D01*
X0872705Y0220216D02*
X0875067D01*
X0808760Y0184968D02*
X0813968D01*
X0814500Y0185500D01*
X0615500Y0303500D02*
X0694750D01*
X0604750Y0292750D02*
X0615500Y0303500D01*
X0903691Y0335059D02*
X0917335D01*
X0614146Y0226646D02*
X0619500Y0232000D01*
X0611000Y0226646D02*
X0614146D01*
X0619500Y0232000D02*
Y0247000D01*
X0633500Y0261000D02*
X0663500D01*
X0619500Y0247000D02*
X0633500Y0261000D01*
X0663500D02*
X0666012Y0258488D01*
X0612500Y0250000D02*
Y0259146D01*
X0602000Y0239500D02*
X0612500Y0250000D01*
X0599250Y0292750D02*
X0604750D01*
X0596750Y0290250D02*
X0599250Y0292750D01*
X0596750Y0262250D02*
Y0290250D01*
X0592000Y0257500D02*
X0596750Y0262250D01*
X0648295Y0213545D02*
Y0220216D01*
X0647000Y0212250D02*
X0648295Y0213545D01*
X0641209Y0213541D02*
X0642500Y0212250D01*
X0641209Y0213541D02*
Y0220216D01*
X0657000Y0214000D02*
X0657744Y0214744D01*
X0641209Y0220216D02*
X0641250Y0220258D01*
X0934000Y0230354D02*
X0939500D01*
X0928352Y0307500D02*
X0932000D01*
X0928352Y0311437D02*
X0932000D01*
X0917335D02*
X0920983D01*
X0913687D02*
X0917335D01*
X0912800Y0310550D02*
X0913687Y0311437D01*
X0906800Y0310550D02*
X0912800D01*
X0927283Y0310368D02*
X0928352Y0311437D01*
X0922051Y0310368D02*
X0927283D01*
X0920983Y0311437D02*
X0922051Y0310368D01*
X0900750Y0250250D02*
Y0304500D01*
X0906800Y0310550D01*
X0894800Y0244300D02*
X0900750Y0250250D01*
X0821017Y0228246D02*
X0837072Y0244300D01*
X0821017Y0224835D02*
Y0228246D01*
X0820736Y0224553D02*
X0821017Y0224835D01*
X0820736Y0220216D02*
Y0224553D01*
X0927283Y0308569D02*
X0928352Y0307500D01*
X0922051Y0308569D02*
X0927283D01*
X0907546Y0308750D02*
X0912437D01*
X0920983Y0307500D02*
X0922051Y0308569D01*
X0917335Y0307500D02*
X0920983D01*
X0912437Y0308750D02*
X0913687Y0307500D01*
X0917335D01*
X0902550Y0249504D02*
Y0303754D01*
X0907546Y0308750D01*
X0895546Y0242500D02*
X0902550Y0249504D01*
X0823098Y0220216D02*
Y0224553D01*
X0822817Y0224835D02*
Y0227500D01*
Y0224835D02*
X0823098Y0224553D01*
X0928352Y0299626D02*
X0932000D01*
X0927283Y0298557D02*
X0928352Y0299626D01*
X0922051Y0298557D02*
X0927283D01*
X0917335Y0299626D02*
X0920983D01*
X0913687D02*
X0917335D01*
X0920983D02*
X0922051Y0298557D01*
X0912611Y0298550D02*
X0913687Y0299626D01*
X0907504Y0298550D02*
X0912611D01*
X0904450Y0267800D02*
Y0295496D01*
X0908750Y0241250D02*
Y0263500D01*
X0904450Y0267800D02*
X0908750Y0263500D01*
X0904450Y0295496D02*
X0907504Y0298550D01*
X0904000Y0236500D02*
X0908750Y0241250D01*
X0828104Y0224835D02*
Y0228150D01*
X0827823Y0224553D02*
X0828104Y0224835D01*
X0827823Y0220216D02*
Y0224553D01*
X0927283Y0296758D02*
X0928352Y0295689D01*
X0922051Y0296758D02*
X0927283D01*
X0928352Y0295689D02*
X0932000D01*
X0920983D02*
X0922051Y0296758D01*
X0908250Y0296750D02*
X0912626D01*
X0917335Y0295689D02*
X0920983D01*
X0913687D02*
X0917335D01*
X0912626Y0296750D02*
X0913687Y0295689D01*
X0906250Y0268546D02*
X0910550Y0264246D01*
Y0240504D02*
Y0264246D01*
X0906250Y0268546D02*
Y0294750D01*
X0908250Y0296750D01*
X0904746Y0234700D02*
X0910550Y0240504D01*
X0850500Y0236750D02*
X0852550Y0234700D01*
X0829904Y0224835D02*
X0830185Y0224553D01*
X0829904Y0224835D02*
Y0227404D01*
X0830185Y0220216D02*
Y0224553D01*
X0907300Y0231300D02*
X0916750Y0240750D01*
X0908046Y0229500D02*
X0918550Y0240004D01*
X0928352Y0287815D02*
X0932000D01*
X0927283Y0286747D02*
X0928352Y0287815D01*
X0922051Y0286747D02*
X0927283D01*
X0917335Y0287815D02*
X0920983D01*
X0922051Y0286747D01*
X0916750Y0240750D02*
Y0265750D01*
X0908950Y0273550D02*
X0916750Y0265750D01*
X0908950Y0273550D02*
Y0283496D01*
X0835191Y0224835D02*
Y0226996D01*
X0834909Y0224553D02*
X0835191Y0224835D01*
X0834909Y0220216D02*
Y0224553D01*
X0922051Y0284946D02*
X0927283D01*
X0920983Y0283878D02*
X0922051Y0284946D01*
X0927283D02*
X0928352Y0283878D01*
X0913565Y0284000D02*
X0913687Y0283878D01*
X0912000Y0284000D02*
X0913565D01*
X0917335Y0283878D02*
X0920983D01*
X0928352D02*
X0932000D01*
X0913687D02*
X0917335D01*
X0918550Y0240004D02*
Y0266496D01*
X0910750Y0274296D02*
X0918550Y0266496D01*
X0910750Y0282750D02*
X0912000Y0284000D01*
X0910750Y0274296D02*
Y0282750D01*
X0836991Y0224835D02*
X0837272Y0224553D01*
X0836991Y0224835D02*
Y0226250D01*
X0837272Y0220216D02*
Y0224553D01*
X1032500Y0233000D02*
X1035500Y0230000D01*
X1031500Y0236500D02*
X1038000Y0230000D01*
X1023957Y0233000D02*
X1032500D01*
X1038000Y0195000D02*
Y0230000D01*
X0999465Y0236500D02*
X1031500D01*
X1035500Y0195000D02*
Y0230000D01*
X1018988Y0228031D02*
X1023957Y0233000D01*
X0940854Y0193000D02*
X0941000Y0193146D01*
X1029500Y0189000D02*
X1035500Y0195000D01*
X1030000Y0187000D02*
X1038000Y0195000D01*
X0975500Y0189000D02*
X1029500D01*
X0977000Y0187000D02*
X1030000D01*
X0893500Y0193500D02*
X0899000Y0188000D01*
X0945500Y0193146D02*
X0945646Y0193000D01*
X0931000Y0169000D02*
X0934000D01*
X0895000Y0171500D02*
X0961500D01*
X0894000Y0173000D02*
X0959500D01*
X0847000Y0209000D02*
X0849000Y0211000D01*
X0800000Y0131750D02*
X0801559Y0130191D01*
X0815000Y0150500D02*
X0819500Y0146000D01*
X0828500D01*
X0917335Y0335059D02*
X0932000D01*
X0808760Y0181032D02*
X0816014D01*
X0808760Y0179063D02*
X0815437D01*
X0817500Y0175000D02*
Y0177000D01*
X0821000Y0170974D02*
Y0176046D01*
X0874390Y0150610D02*
Y0153276D01*
Y0150610D02*
X0877500Y0147500D01*
X0881000D01*
X0884000Y0144500D01*
X0880295Y0151205D02*
Y0153276D01*
Y0151205D02*
X0884000Y0147500D01*
X0886000D01*
X0990996Y0228031D02*
X0999465Y0236500D01*
X0824850Y0158831D02*
Y0159850D01*
X0831150Y0150169D02*
X0831669D01*
X0836000Y0154500D01*
Y0158500D01*
X0839142Y0161642D01*
X0850276D01*
X0843705Y0157705D02*
X0850276D01*
X0828453Y0167547D02*
X0850276D01*
X0852736Y0187724D02*
Y0192736D01*
X0853500Y0193500D01*
X0872421Y0187724D02*
Y0190921D01*
X0875000Y0193500D01*
X0893500D01*
X0884724Y0165579D02*
X0886579D01*
X0894000Y0173000D01*
X0884724Y0163610D02*
X0887110D01*
X0895000Y0171500D01*
X0888854Y0134500D02*
Y0140000D01*
Y0130000D02*
Y0134500D01*
X0887854Y0129000D02*
X0888854Y0130000D01*
X0934000Y0169000D02*
X0936000Y0167000D01*
X0841173Y0159673D02*
X0850276D01*
X0840500Y0159000D02*
X0841173Y0159673D01*
X0809000Y0147000D02*
Y0151146D01*
X0809500Y0151646D01*
X0816014Y0181032D02*
X0821000Y0176046D01*
X0815437Y0179063D02*
X0817500Y0177000D01*
X0809500Y0167854D02*
Y0171000D01*
X0803500Y0156000D02*
Y0157567D01*
Y0156000D02*
X0807854Y0151646D01*
X0809500D01*
X0977465Y0224500D02*
X0980996Y0228031D01*
X0956500Y0224500D02*
X0977465D01*
X0957500Y0231000D02*
Y0233500D01*
X0939854Y0230000D02*
X0944500D01*
X0939500Y0230354D02*
X0939854Y0230000D01*
X0820854Y0166500D02*
X0823744Y0163610D01*
X0850276D01*
X0820854Y0162827D02*
Y0166500D01*
Y0162827D02*
X0824850Y0158831D01*
X0815000Y0150500D02*
Y0151646D01*
X0831150Y0148650D02*
Y0150169D01*
X0809500Y0171000D02*
X0810000Y0171500D01*
X0812500D01*
X0803500Y0163433D02*
X0805079D01*
X0809500Y0167854D01*
X0813500Y0174500D02*
X0817026Y0170974D01*
X0805000Y0174500D02*
X0813500D01*
X0803000Y0172500D02*
X0805000Y0174500D01*
X0924354Y0183000D02*
X0927000D01*
X0928000Y0184000D01*
X0924354Y0177500D02*
X0928500D01*
X0840000Y0154000D02*
X0843705Y0157705D01*
X0840000Y0152854D02*
Y0154000D01*
X0828500Y0146000D02*
X0831150Y0148650D01*
X0826921Y0165579D02*
X0850276D01*
X0817026Y0170974D02*
X0821000D01*
X0821526D01*
X0825000Y0171000D02*
X0828453Y0167547D01*
X0825000Y0171000D02*
Y0172500D01*
X0821526Y0170974D02*
X0826921Y0165579D01*
X0592000Y0165500D02*
Y0167500D01*
X0602000D02*
X0609500D01*
X0610500Y0168500D01*
Y0172146D01*
X0602000Y0237500D02*
Y0239500D01*
X0611000Y0242854D02*
X0631146Y0263000D01*
X0664500D01*
X0668374Y0259126D01*
Y0252500D02*
Y0259126D01*
X0666012Y0252500D02*
Y0258488D01*
X0592000Y0165500D02*
X0596000Y0161500D01*
X0610500D01*
X0616000Y0167000D01*
Y0172146D01*
X0884724Y0177390D02*
X0898035D01*
X0899146Y0178500D01*
X0961500Y0171500D02*
X0977000Y0187000D01*
X0959500Y0173000D02*
X0975500Y0189000D01*
X0897500Y0157500D02*
Y0160000D01*
X0884000Y0144500D02*
X0887000D01*
X0891000Y0142500D02*
Y0144000D01*
X0888854Y0140000D02*
Y0140354D01*
X0891000Y0142500D01*
X0887000Y0144500D02*
X0892000Y0149500D01*
Y0152000D01*
X0897500Y0157500D01*
X0610500Y0177854D02*
X0616000D01*
X0657744Y0214744D02*
Y0220216D01*
X0948750Y0281750D02*
X0949000Y0282000D01*
X0948500Y0287250D02*
X0951500D01*
X0953750Y0285000D01*
X0965250D01*
X0970000Y0289750D01*
Y0299750D02*
Y0313000D01*
X0964500Y0318500D02*
X0970000Y0313000D01*
X0960000Y0299750D02*
Y0313250D01*
X0954750Y0318500D02*
X0960000Y0313250D01*
X0973500Y0306500D02*
Y0318500D01*
Y0306500D02*
X0975000Y0305000D01*
Y0294750D02*
Y0305000D01*
Y0294750D02*
X0980000Y0289750D01*
X1042000Y0321250D02*
X1064000Y0343250D01*
X1037500Y0321250D02*
X1042000D01*
X1076674Y0339000D02*
X1080924Y0343250D01*
X0703807Y0238693D02*
Y0252500D01*
X0694750Y0303500D02*
X0715618Y0282632D01*
Y0252500D02*
Y0282632D01*
X0708532Y0239719D02*
Y0252500D01*
X0710250Y0238000D02*
X0743000D01*
X0746750Y0241750D01*
X0703807Y0238693D02*
X0706750Y0235750D01*
X0745750D01*
X0708532Y0239719D02*
X0710250Y0238000D01*
X0729791Y0244000D02*
X0731541Y0242250D01*
X0735750D01*
X0729791Y0244000D02*
Y0252500D01*
X0732154Y0245654D02*
Y0252500D01*
Y0245654D02*
X0732307Y0245500D01*
X0710894Y0241606D02*
Y0252500D01*
Y0241606D02*
X0713000Y0239500D01*
X0742182D01*
X0746932Y0244250D01*
X0745750Y0235750D02*
X0749250Y0239250D01*
X0746750Y0241750D02*
X0753250D01*
X0760000Y0245750D02*
X0763500Y0242250D01*
X0772500D01*
X0753413Y0247587D02*
X0755250Y0245750D01*
X0753413Y0247587D02*
Y0252500D01*
X0755250Y0245750D02*
X0760000D01*
X0746932Y0244250D02*
X0756500D01*
X0758500Y0242250D01*
X0696721Y0260471D02*
X0697750Y0261500D01*
X0859250Y0327000D02*
X0876250Y0344000D01*
X0859250Y0326750D02*
Y0327000D01*
X0855250Y0329500D02*
X0872250Y0346500D01*
X0855000Y0329500D02*
X0855250D01*
X0971750Y0327250D02*
X1013500D01*
X1027500Y0341250D01*
X0973750Y0330250D02*
X1011000D01*
X1018250Y0337500D01*
X0974750Y0334500D02*
X1010250D01*
X1015500Y0339750D01*
Y0346250D01*
X1020250Y0351000D01*
X1018250Y0337500D02*
Y0344250D01*
X1022250Y0348250D01*
X1030500D01*
X1032750Y0336000D02*
X1037500Y0331250D01*
X1032750Y0336000D02*
Y0346000D01*
X1030500Y0348250D02*
X1032750Y0346000D01*
X0657000Y0206250D02*
Y0214000D01*
X0864000Y0126500D02*
Y0127000D01*
X0778500Y0182750D02*
X0780250Y0184500D01*
Y0208750D01*
X0782000Y0210500D01*
X0776250Y0181818D02*
Y0183682D01*
X0719500Y0213000D02*
X0721500Y0215000D01*
X0716818Y0213500D02*
X0719161Y0215843D01*
Y0220216D01*
X0726248Y0215252D02*
X0727335Y0214165D01*
X0733335D01*
X0723750Y0213250D02*
X0723886Y0213386D01*
Y0220216D01*
X0747508Y0214242D02*
Y0220216D01*
Y0214242D02*
X0749500Y0212250D01*
X0752500D01*
X0754595Y0214345D02*
Y0220216D01*
X0761681Y0215931D02*
Y0220216D01*
X0787750Y0205000D02*
X0791250D01*
X0794250Y0208000D01*
X0836991Y0226250D02*
X0840241Y0229500D01*
X0835191Y0226996D02*
X0839495Y0231300D01*
X0837072Y0244300D02*
X0894800D01*
X0851246Y0238550D02*
X0853296Y0236500D01*
X0839495Y0231300D02*
X0907300D01*
X0840241Y0229500D02*
X0908046D01*
X0853296Y0236500D02*
X0904000D01*
X0852550Y0234700D02*
X0904746D01*
X0829904Y0227404D02*
X0839250Y0236750D01*
X0850500D01*
X0822817Y0227500D02*
X0837817Y0242500D01*
X0895546D01*
X0825461Y0227961D02*
X0837500Y0240000D01*
X0900500D01*
X0828104Y0228150D02*
X0838504Y0238550D01*
X0851246D01*
X0839095Y0234000D02*
X0842000D01*
X0868500Y0272000D02*
X0869161Y0271339D01*
X0856860Y0226390D02*
X0859110D01*
X0758750Y0213000D02*
X0761681Y0215931D01*
X0775854Y0214646D02*
X0776250Y0214250D01*
X0782250D01*
X0846610Y0226500D02*
Y0227390D01*
X0869161Y0252500D02*
Y0271339D01*
X0856250Y0227000D02*
X0856860Y0226390D01*
X0753547Y0213297D02*
X0754595Y0214345D01*
X0776250Y0183682D02*
X0777500Y0184932D01*
X0776500Y0212000D02*
X0777500Y0211000D01*
Y0184932D02*
Y0211000D01*
X0782500Y0183000D02*
X0783000Y0182500D01*
X0775750Y0181000D02*
X0776409Y0181659D01*
X0875250Y0263750D02*
X0876248Y0262752D01*
X0630000Y0208000D02*
X0647000D01*
X0665750Y0189250D01*
X0706500D01*
X0710500Y0193250D01*
Y0200000D01*
X0624000Y0202000D02*
X0630000Y0208000D01*
X0949500Y0332250D02*
X0953396D01*
X0947500Y0334250D02*
X0949500Y0332250D01*
X0905185Y0327185D02*
X0917335D01*
X0893396Y0323396D02*
X0899250Y0329250D01*
X0909750D01*
X0903000Y0325000D02*
X0905185Y0327185D01*
X0895500Y0317500D02*
X0903000Y0325000D01*
X0904000Y0320500D02*
X0905500D01*
X0950646Y0219209D02*
Y0224500D01*
Y0219209D02*
X0951354Y0218500D01*
X0614500Y0128354D02*
Y0129750D01*
X0611750Y0132500D02*
X0614500Y0129750D01*
X0768768Y0220216D02*
Y0226732D01*
X0767750Y0227750D02*
X0768768Y0226732D01*
X0609104Y0112146D02*
X0614500D01*
X0609000Y0112250D02*
X0609104Y0112146D01*
X0616000Y0177854D02*
X0620104D01*
X0624000Y0181750D01*
Y0202000D01*
X0949000Y0282000D02*
X0975500D01*
X0980000Y0286500D01*
Y0289750D01*
X0614500Y0117854D02*
Y0122646D01*
X0753844Y0213000D02*
X0758750D01*
X0752500Y0212250D02*
X0753547Y0213297D01*
X0753844Y0213000D01*
X0985500Y0354404D02*
X1091346D01*
X1078000Y0315000D02*
X1080924Y0317923D01*
Y0343250D01*
D38*
X1010214Y0278702D02*
X1010565Y0278750D01*
X1007250Y0278299D02*
X1010214Y0278702D01*
X1044065Y0246500D02*
Y0250500D01*
X0602000Y0140000D02*
X0649500D01*
X1043500Y0182000D02*
Y0234250D01*
X1006484Y0156500D02*
X1018000D01*
X1043500Y0182000D01*
X0982984Y0180000D02*
X1006000Y0156984D01*
X1006484Y0156500D01*
X0649500Y0140000D02*
X0660500Y0129000D01*
Y0120000D02*
Y0129000D01*
X1033750Y0244000D02*
X1043500Y0234250D01*
X1033750Y0244000D02*
Y0256250D01*
X1033435Y0256565D02*
X1033750Y0256250D01*
X1033435Y0256565D02*
X1033750Y0256880D01*
Y0266750D01*
X1023250D02*
X1033750D01*
X1017250Y0260750D02*
X1023250Y0266750D01*
X1033750Y0277380D02*
X1043500D01*
X1044065Y0250500D02*
Y0256565D01*
X1032380Y0278750D02*
X1033750Y0277380D01*
X1010565Y0278750D02*
X1032380D01*
X1007250Y0260750D02*
Y0278299D01*
X1031565Y0289000D02*
X1042250D01*
D39*
X0785658Y0184840D02*
X0791240D01*
X0639049Y0240000D02*
X0685500D01*
X0865918Y0116201D02*
X0888452D01*
X0866870Y0118500D02*
X0887500D01*
X0617701Y0221903D02*
X0638097Y0242299D01*
X0617701Y0193000D02*
Y0221903D01*
X0607000Y0182299D02*
X0617701Y0193000D01*
X0620000Y0220951D02*
X0639049Y0240000D01*
X0620000Y0192048D02*
Y0220951D01*
X0607952Y0180000D02*
X0620000Y0192048D01*
X0814475Y0207275D02*
X0818540D01*
X0819315Y0206500D01*
X0821146D01*
X0604500Y0180000D02*
X0607952D01*
X0602000Y0177500D02*
X0604500Y0180000D01*
X0812425Y0210175D02*
X0819320D01*
X0821146Y0212000D01*
X0812000Y0209750D02*
X0812425Y0210175D01*
X0638097Y0242299D02*
X0686452D01*
X0596799Y0182299D02*
X0607000D01*
X0592000Y0177500D02*
X0596799Y0182299D01*
X0828886Y0206701D02*
X0840980D01*
X0844217Y0209938D01*
X0840980Y0203980D02*
Y0206701D01*
X0826854Y0200500D02*
X0837500D01*
X0830500Y0195000D02*
X0832500Y0197000D01*
X0928750Y0158624D02*
Y0161750D01*
X0926126Y0156000D02*
X0928750Y0158624D01*
X0912750Y0165000D02*
X0925500D01*
X0928750Y0161750D01*
X0896049Y0148299D02*
X0912750Y0165000D01*
X0896049Y0123798D02*
Y0148299D01*
X0852736Y0150756D02*
Y0153276D01*
X0852571Y0150591D02*
X0852736Y0150756D01*
X0852571Y0129548D02*
Y0150591D01*
X0888452Y0116201D02*
X0896049Y0123798D01*
X0852571Y0129548D02*
X0865918Y0116201D01*
X0931049Y0158951D02*
Y0162702D01*
Y0158951D02*
X0934000Y0156000D01*
X0911798Y0167299D02*
X0926452D01*
X0931049Y0162702D01*
X0893750Y0149252D02*
X0911798Y0167299D01*
X0893750Y0124750D02*
Y0149252D01*
X0854705Y0150756D02*
X0854870Y0150591D01*
X0854705Y0150756D02*
Y0153276D01*
X0854870Y0130500D02*
Y0150591D01*
X0887500Y0118500D02*
X0893750Y0124750D01*
X0854870Y0130500D02*
X0866870Y0118500D01*
X0845154Y0209000D02*
X0847000D01*
X0844217Y0209938D02*
X0845154Y0209000D01*
X0838500Y0210000D02*
Y0212500D01*
X0826854Y0195000D02*
X0830500D01*
X0841996Y0215630D02*
X0842028Y0215598D01*
Y0211000D02*
Y0215598D01*
X0841996Y0215630D02*
Y0220216D01*
X0840028Y0209000D02*
X0842028Y0211000D01*
X0838500Y0210000D02*
X0839500Y0209000D01*
X0840028D01*
X0837500D02*
X0838500Y0210000D01*
X0831685Y0209000D02*
X0837500D01*
X0826854Y0212000D02*
X0828685D01*
X0831685Y0209000D01*
X0844358Y0215630D02*
Y0220216D01*
X0844327Y0215598D02*
X0844358Y0215630D01*
X0844327Y0210048D02*
Y0215598D01*
X0844217Y0209938D02*
X0844327Y0210048D01*
X0828685Y0206500D02*
X0828886Y0206701D01*
X0826854Y0206500D02*
X0828685D01*
X0837500Y0200500D02*
X0840980Y0203980D01*
X0796549Y0128951D02*
Y0161951D01*
X0787933Y0179063D02*
X0791240D01*
X0796500Y0128902D02*
X0796549Y0128951D01*
X0796500Y0125500D02*
Y0128902D01*
X0787768Y0178898D02*
X0787933Y0179063D01*
X0786250Y0178898D02*
X0787768D01*
X0785250Y0177898D02*
X0786250Y0178898D01*
X0785250Y0173250D02*
X0796549Y0161951D01*
X0785250Y0173250D02*
Y0177898D01*
X0794250Y0129903D02*
Y0160998D01*
X0793941Y0129595D02*
X0794250Y0129903D01*
X0793941Y0125500D02*
Y0129595D01*
X0782951Y0172298D02*
X0794250Y0160998D01*
X0782951Y0172298D02*
Y0178850D01*
X0785500Y0188250D02*
Y0194750D01*
Y0188250D02*
X0786813Y0186937D01*
X0791240D01*
X0783201Y0187298D02*
Y0195702D01*
X0819315Y0200500D02*
X0821146D01*
X0817715Y0198900D02*
X0819315Y0200500D01*
X0783874Y0196376D02*
Y0196376D01*
X0783201Y0195702D02*
X0783874Y0196376D01*
X0817715Y0196600D02*
X0819315Y0195000D01*
X0821146D01*
X0685500Y0240000D02*
X0694400Y0231100D01*
X0781000D01*
X0686452Y0242299D02*
X0695352Y0233400D01*
X0779199D01*
X0779799Y0234000D01*
X0780400D01*
X0781750Y0235350D01*
X0785500Y0194750D02*
X0787350Y0196600D01*
X0817715D01*
X0783874Y0196376D02*
X0786398Y0198900D01*
X0817715D01*
X0781750Y0235350D02*
Y0235500D01*
X0783201Y0187298D02*
X0785658Y0184840D01*
X0782951Y0178850D02*
X0785298Y0181197D01*
X0787768D01*
X0787933Y0181032D01*
X0791240D01*
D40*
X0757250Y0128752D02*
X0770250D01*
X0746565Y0127000D02*
X0755498D01*
X0734750Y0202750D02*
X0736498Y0201002D01*
X0734750Y0202750D02*
Y0208000D01*
X0726252Y0180000D02*
Y0187500D01*
X0693750Y0161500D02*
X0702000D01*
X0701750Y0180000D02*
X0726252D01*
X0693750Y0172000D02*
X0701750Y0180000D01*
X0693750Y0161500D02*
Y0172000D01*
X0758748Y0161002D02*
X0764500D01*
X0757250Y0162500D02*
X0758748Y0161002D01*
X0751000Y0162500D02*
X0757250D01*
X0764500Y0161002D02*
X0772000D01*
X0764250Y0172500D02*
X0764500Y0172250D01*
Y0167498D02*
Y0172250D01*
X0739500Y0166750D02*
X0739750Y0166500D01*
Y0159998D02*
Y0166500D01*
X0766065Y0197250D02*
X0767004Y0196311D01*
X0734996Y0127939D02*
Y0137746D01*
X0731000Y0133750D02*
X0734996Y0137746D01*
X0727500Y0133750D02*
X0731000D01*
X0755498Y0127000D02*
X0757250Y0128752D01*
X0734996Y0127939D02*
X0735935Y0127000D01*
X0725752Y0154750D02*
X0726000Y0154502D01*
Y0147498D02*
Y0154502D01*
Y0147498D02*
X0733002D01*
X0734996Y0145504D01*
Y0141250D02*
Y0145504D01*
X0732248Y0154750D02*
X0732250Y0154752D01*
Y0162002D01*
X0732496Y0162248D01*
X0630500Y0191500D02*
Y0200000D01*
X0719000Y0161500D02*
X0728752D01*
X0715000D02*
X0719000D01*
X0710500D02*
X0715000D01*
X0706500D02*
X0710500D01*
X0702000D02*
X0706500D01*
X0980000Y0299750D02*
X0999565D01*
X1010250Y0289065D01*
X0980000Y0299750D02*
Y0307750D01*
X0983500Y0311250D01*
Y0318500D01*
X0755435Y0197250D02*
Y0201935D01*
X0756248Y0202748D01*
Y0207000D01*
X0742498D02*
X0749752D01*
X0742000Y0207498D02*
X0742498Y0207000D01*
X0742000Y0192565D02*
Y0201002D01*
X0736498D02*
X0742000D01*
X0749752Y0207000D02*
Y0211998D01*
X0749500Y0212250D02*
X0749752Y0211998D01*
X0660500Y0161500D02*
X0693750D01*
X0630500Y0191500D02*
X0632250Y0189750D01*
X0638000Y0184000D02*
X0640750Y0181250D01*
X0635000Y0187000D02*
X0638000Y0184000D01*
X0640750Y0181250D02*
X0643625Y0178375D01*
X0632250Y0189750D02*
X0635000Y0187000D01*
X0643625Y0178375D02*
X0646500Y0175500D01*
X0660500Y0161500D01*
X0733496Y0153502D02*
X0739750D01*
X0732248Y0154750D02*
X0733496Y0153502D01*
X0772000Y0161002D02*
X0775500Y0157502D01*
Y0155750D02*
Y0157502D01*
X0967250Y0260750D02*
X0995565Y0289065D01*
X1010250D01*
D41*
X0863256Y0220216D02*
Y0226500D01*
X0864250D01*
X0865618Y0225132D01*
Y0220216D02*
Y0225132D01*
D42*
X0761854Y0149000D02*
X0764750D01*
X0766250Y0147500D01*
D43*
X0737752Y0168498D02*
X0739500Y0166750D01*
X0732250Y0168498D02*
X0737752D01*
X0732748Y0168996D02*
Y0180000D01*
X0740065D02*
X0742000Y0181935D01*
X0732748Y0180000D02*
X0740065D01*
X0732748D02*
Y0187500D01*
Y0192252D01*
X0725000Y0200000D02*
X0732748Y0192252D01*
X0710500Y0200000D02*
X0725000D01*
X0760000Y0110500D02*
X0768182D01*
X0770565Y0112883D01*
Y0119500D01*
X0707750Y0110463D02*
X0716037Y0118750D01*
X0749250D01*
X0758000D01*
D44*
X0753657Y0181911D02*
X0754996Y0183250D01*
X0753657Y0169193D02*
Y0181911D01*
D45*
X0670037Y0110463D02*
X0707750D01*
X0929000Y0118000D02*
X0979000D01*
X1006000Y0145000D01*
X0660500Y0120000D02*
X0670037Y0110463D01*
X1006000Y0145000D02*
Y0156984D01*
X1044065Y0256565D02*
Y0266185D01*
X1043500Y0266750D02*
X1044065Y0266185D01*
D46*
X1003590Y0214340D02*
Y0215409D01*
X0922500Y0213250D02*
X0940750D01*
X0916029D02*
X0922500D01*
X0922250Y0213000D02*
X0922500Y0213250D01*
X0922250Y0210250D02*
Y0213000D01*
X0915500Y0203500D02*
X0922250Y0210250D01*
X0925000Y0198538D02*
Y0203000D01*
X0923991Y0198538D02*
X0925000D01*
X0945750Y0213250D02*
X0974779D01*
X0940750D02*
X0945750D01*
X0945646Y0209500D02*
X0945750Y0209604D01*
Y0213250D01*
X0940750Y0209604D02*
X0940854Y0209500D01*
X0940750Y0209604D02*
Y0213250D01*
X0945750Y0215038D02*
X0974038D01*
X0940750D02*
X0945750D01*
X0945646Y0215142D02*
X0945750Y0215038D01*
X0945646Y0215142D02*
Y0218500D01*
X0922500Y0215038D02*
X0940750D01*
X0940854Y0215142D01*
Y0218500D01*
X0915288Y0215038D02*
X0922500D01*
Y0220000D01*
X0841478Y0171484D02*
X0850276D01*
X0830750Y0182212D02*
X0841478Y0171484D01*
X0842038Y0173453D02*
X0850276D01*
X0830750Y0190529D02*
X0844221Y0204000D01*
X0844962Y0202212D02*
X0904991D01*
X0832741Y0189991D02*
X0844962Y0202212D01*
X1001264Y0217736D02*
X1003590Y0215409D01*
X0979264Y0217736D02*
X1001264D01*
X0974779Y0213250D02*
X0979264Y0217736D01*
X0904991Y0202212D02*
X0916029Y0213250D01*
X0832741Y0182750D02*
X0842038Y0173453D01*
X0832741Y0182750D02*
Y0189991D01*
X0978524Y0219524D02*
X1002005D01*
X1004855Y0216674D02*
X1005924D01*
X1002005Y0219524D02*
X1004855Y0216674D01*
X0974038Y0215038D02*
X0978524Y0219524D01*
X0904250Y0204000D02*
X0915288Y0215038D01*
X0844221Y0204000D02*
X0904250D01*
X0830750Y0189065D02*
X0830844Y0188971D01*
X0830750Y0189065D02*
Y0190529D01*
X0830844Y0182844D02*
Y0188971D01*
X0830750Y0182750D02*
X0830844Y0182844D01*
X0830750Y0182212D02*
Y0182750D01*
X0995038Y0198538D02*
X1009538Y0213038D01*
X0995779Y0196750D02*
X1010279Y0211250D01*
X1009538Y0213038D02*
X1012500D01*
X1010279Y0211250D02*
X1013762D01*
X1016980Y0208032D01*
X1012500Y0213038D02*
X1012984Y0213522D01*
Y0218032D01*
X0923976Y0198524D02*
X0923991Y0198538D01*
X0908005Y0198524D02*
X0923976D01*
X0925750Y0196750D02*
X0930750D01*
X0925736Y0196736D02*
X0925750Y0196750D01*
X0907264Y0196736D02*
X0925736D01*
X0945250Y0196750D02*
X0995779D01*
X0940500D02*
X0945250D01*
Y0193396D02*
X0945500Y0193146D01*
X0945250Y0193396D02*
Y0196750D01*
X0930750D02*
X0940500D01*
Y0193354D02*
X0940854Y0193000D01*
X0940500Y0193354D02*
Y0196750D01*
X0930750Y0183250D02*
X0932500Y0181500D01*
X0930750Y0183250D02*
Y0196750D01*
X0925250Y0198538D02*
X0941000D01*
X0945750D01*
X0940854Y0202000D02*
X0941000Y0201854D01*
Y0198538D02*
Y0201854D01*
X0945750Y0198538D02*
X0995038D01*
X0945646Y0202000D02*
X0945750Y0201896D01*
Y0198538D02*
Y0201896D01*
X0905500Y0198500D02*
X0907264Y0196736D01*
X0906241Y0200288D02*
X0908005Y0198524D01*
X0848000Y0198500D02*
X0905500D01*
X0844892Y0179358D02*
X0850276D01*
X0840000Y0184250D02*
Y0190500D01*
X0848000Y0198500D01*
X0840000Y0184250D02*
X0844892Y0179358D01*
X0847259Y0200288D02*
X0906241D01*
X0844331Y0177390D02*
X0850276D01*
X0838212Y0183509D02*
Y0191241D01*
X0847259Y0200288D01*
X0838212Y0183509D02*
X0844331Y0177390D01*
D47*
X1016500Y0293435D02*
X1020935Y0289000D01*
X1016500Y0293435D02*
Y0296750D01*
D48*
X0888250Y0254500D02*
D03*
D49*
X0885750Y0259500D02*
D03*
D50*
X0887000Y0216000D02*
D03*
D51*
X0884750Y0211500D02*
D03*
D52*
X0873750Y0264250D02*
D03*
D53*
X0871500Y0210750D02*
D03*
D54*
X0865500Y0261500D02*
D03*
D55*
X0769875Y0129375D02*
D03*
D56*
X0770750Y0201000D02*
D03*
D57*
X0717375Y0170875D02*
D03*
D58*
X0711125Y0151375D02*
D03*
D59*
X0761500Y0207000D02*
D03*
D60*
X0767750Y0211625D02*
D03*
D61*
X0786953Y0125500D02*
D03*
X0806047D02*
D03*
D62*
X1188500Y0160250D02*
D03*
X1198500Y0200250D02*
D03*
Y0190250D02*
D03*
Y0180250D02*
D03*
Y0170250D02*
D03*
Y0160250D02*
D03*
X1188500Y0170250D02*
D03*
Y0180250D02*
D03*
Y0190250D02*
D03*
Y0200250D02*
D03*
X0926126Y0156000D02*
D03*
X0934000D02*
D03*
X0916284D02*
D03*
X0943843D02*
D03*
X0960000Y0289750D02*
D03*
X0970000D02*
D03*
X0980000D02*
D03*
X0960000Y0299750D02*
D03*
X0970000D02*
D03*
X0980000D02*
D03*
X1024972Y0208032D02*
D03*
X1020976Y0218032D02*
D03*
X1016980Y0208032D02*
D03*
X1012984Y0218032D02*
D03*
X0993004Y0208032D02*
D03*
X0985012D02*
D03*
X1028969Y0218032D02*
D03*
X0710500Y0200000D02*
D03*
X0630500Y0120000D02*
D03*
Y0200000D02*
D03*
X0670500D02*
D03*
X0660500Y0120000D02*
D03*
X0680500D02*
D03*
X1017250Y0260750D02*
D03*
X1007250D02*
D03*
X0997250D02*
D03*
X0977250D02*
D03*
X0967250D02*
D03*
X0957250D02*
D03*
X0947250D02*
D03*
D63*
X0821000Y0128500D02*
D03*
X0602000Y0140000D02*
D03*
D64*
X0592000Y0307500D02*
D03*
X1027500Y0341250D02*
D03*
D65*
X0982984Y0180000D02*
D03*
X1027000D02*
D03*
D66*
X1036744Y0135512D02*
D03*
X0973240D02*
D03*
D67*
X1028988Y0228031D02*
D03*
X1018988D02*
D03*
X0990996D02*
D03*
X0980996D02*
D03*
D68*
X0600248Y0121295D02*
D03*
X1198673D02*
D03*
Y0345705D02*
D03*
X0600248D02*
D03*
X1143000Y0163000D02*
D03*
Y0345705D02*
D03*
X0801035Y0345705D02*
D03*
X0997886D02*
D03*
D69*
X0880492Y0183492D02*
D03*
Y0179161D02*
D03*
Y0174831D02*
D03*
Y0170500D02*
D03*
Y0166169D02*
D03*
Y0161839D02*
D03*
Y0157508D02*
D03*
X0876161Y0183492D02*
D03*
Y0179161D02*
D03*
Y0174831D02*
D03*
Y0170500D02*
D03*
Y0166169D02*
D03*
Y0161839D02*
D03*
Y0157508D02*
D03*
X0871831Y0183492D02*
D03*
Y0179161D02*
D03*
Y0174831D02*
D03*
Y0170500D02*
D03*
Y0166169D02*
D03*
Y0161839D02*
D03*
Y0157508D02*
D03*
X0867500Y0183492D02*
D03*
Y0179161D02*
D03*
Y0174831D02*
D03*
Y0170500D02*
D03*
Y0166169D02*
D03*
Y0161839D02*
D03*
Y0157508D02*
D03*
X0863169Y0183492D02*
D03*
Y0179161D02*
D03*
Y0174831D02*
D03*
Y0170500D02*
D03*
Y0166169D02*
D03*
Y0161839D02*
D03*
Y0157508D02*
D03*
X0858839Y0183492D02*
D03*
Y0179161D02*
D03*
Y0174831D02*
D03*
Y0170500D02*
D03*
Y0166169D02*
D03*
Y0161839D02*
D03*
Y0157508D02*
D03*
X0854508Y0183492D02*
D03*
Y0179161D02*
D03*
Y0174831D02*
D03*
Y0170500D02*
D03*
Y0166169D02*
D03*
Y0161839D02*
D03*
Y0157508D02*
D03*
D70*
X1095750Y0327750D02*
D03*
X1118000Y0314000D02*
D03*
X1073250Y0336250D02*
D03*
X1070924Y0343250D02*
D03*
X0644750Y0212250D02*
D03*
X0862250Y0227000D02*
D03*
X0881500Y0124000D02*
D03*
X0912250Y0338500D02*
D03*
X0883000Y0329250D02*
D03*
X0881750Y0333750D02*
D03*
X0745000Y0298000D02*
D03*
X0761000D02*
D03*
X0673500Y0263500D02*
D03*
X0671750Y0270500D02*
D03*
X0659000Y0266250D02*
D03*
X0667500Y0273250D02*
D03*
X0641250Y0231750D02*
D03*
X0714500Y0327000D02*
D03*
X0652500Y0237000D02*
D03*
X0651750Y0231250D02*
D03*
X0644750Y0233750D02*
D03*
X0639500Y0227750D02*
D03*
X0654000Y0228500D02*
D03*
X0717250Y0317500D02*
D03*
X0778500Y0182750D02*
D03*
X0764250Y0172500D02*
D03*
X0766250Y0147500D02*
D03*
X0739500Y0166750D02*
D03*
X0745500Y0151250D02*
D03*
X0763500Y0136500D02*
D03*
X0716750Y0141750D02*
D03*
X0773500Y0176500D02*
D03*
X0752500Y0151500D02*
D03*
X0727250Y0133500D02*
D03*
X0747500Y0174500D02*
D03*
X0759250Y0171500D02*
D03*
X0760000Y0110500D02*
D03*
X0749250Y0118750D02*
D03*
X0866500Y0123750D02*
D03*
X0850000Y0124933D02*
D03*
X0929000Y0118000D02*
D03*
X0845250Y0138750D02*
D03*
X0801250Y0137000D02*
D03*
X0784000Y0284250D02*
D03*
X0740250Y0286000D02*
D03*
X0738000Y0290000D02*
D03*
X0772000Y0287500D02*
D03*
X0750750Y0334750D02*
D03*
X0905500Y0331750D02*
D03*
X0719750Y0286250D02*
D03*
X0729500Y0327750D02*
D03*
X0722250Y0326250D02*
D03*
X0717250Y0312750D02*
D03*
X0717625Y0308375D02*
D03*
X0742000Y0269250D02*
D03*
X0739500Y0275750D02*
D03*
X0722750Y0275500D02*
D03*
X0661000Y0213000D02*
D03*
X0636250Y0298250D02*
D03*
X0714750Y0227750D02*
D03*
X0772500Y0242250D02*
D03*
X0726000Y0263500D02*
D03*
X0722500Y0269750D02*
D03*
X0697250Y0272750D02*
D03*
X0686000Y0220500D02*
D03*
X0614250Y0209750D02*
D03*
X0731500Y0262000D02*
D03*
X0610500Y0221000D02*
D03*
X0698250Y0267500D02*
D03*
X0609000Y0251000D02*
D03*
X0718750Y0262750D02*
D03*
X0712750Y0261250D02*
D03*
X0814475Y0207275D02*
D03*
X0812000Y0209750D02*
D03*
X0816500Y0213500D02*
D03*
X0590750Y0330000D02*
D03*
X0596500D02*
D03*
X0910250Y0316250D02*
D03*
X0948000Y0326750D02*
D03*
X0902500Y0242000D02*
D03*
X0931000Y0209500D02*
D03*
X0950500Y0235000D02*
D03*
X0841000Y0227000D02*
D03*
X0713500Y0242500D02*
D03*
X0908250Y0169250D02*
D03*
X0820500Y0143000D02*
D03*
X0873000Y0148500D02*
D03*
X0894000Y0186500D02*
D03*
X0878000Y0139000D02*
D03*
X0820500Y0181000D02*
D03*
X0930000Y0218500D02*
D03*
X0956000Y0193000D02*
D03*
X0780500Y0131000D02*
D03*
X0790500Y0158000D02*
D03*
X0786500Y0157000D02*
D03*
X0815000Y0161500D02*
D03*
X0913500Y0177000D02*
D03*
X0845000Y0133500D02*
D03*
X0845500Y0148500D02*
D03*
X0782000Y0210500D02*
D03*
X0719000Y0161500D02*
D03*
X0715000D02*
D03*
X0710500D02*
D03*
X0706500D02*
D03*
X0702000D02*
D03*
X0705500Y0213000D02*
D03*
X0710500Y0213500D02*
D03*
X0615500Y0232500D02*
D03*
X0955000Y0202000D02*
D03*
Y0209500D02*
D03*
Y0217500D02*
D03*
X0943500Y0224500D02*
D03*
X0931500Y0202000D02*
D03*
X0857500Y0260500D02*
D03*
X0833000Y0276000D02*
D03*
X0825500Y0265500D02*
D03*
X0820000Y0262000D02*
D03*
X0805500Y0263500D02*
D03*
X0791000D02*
D03*
X0784000Y0263000D02*
D03*
X0777000D02*
D03*
X0770000D02*
D03*
X0763000D02*
D03*
X0755500D02*
D03*
X0749500D02*
D03*
X0720000Y0242500D02*
D03*
X0706000Y0264500D02*
D03*
X0699083Y0241500D02*
D03*
X0663890Y0245610D02*
D03*
X0809000Y0212500D02*
D03*
X0792000D02*
D03*
X0786500D02*
D03*
X0739500Y0213000D02*
D03*
X0701500Y0227000D02*
D03*
X0676500Y0226500D02*
D03*
X0669500Y0227500D02*
D03*
X0662500Y0227000D02*
D03*
X0632000Y0228000D02*
D03*
X0889000Y0151000D02*
D03*
X0937000Y0177000D02*
D03*
X0876500Y0207500D02*
D03*
X0890000Y0249500D02*
D03*
Y0253000D02*
D03*
Y0256500D02*
D03*
X0888500Y0213000D02*
D03*
X0881500D02*
D03*
X0881000Y0267000D02*
D03*
X0872500Y0269000D02*
D03*
X0864500Y0208000D02*
D03*
X0871500Y0207500D02*
D03*
X0865500Y0263500D02*
D03*
X0860610Y0192000D02*
D03*
X0857500Y0193500D02*
D03*
X0909500Y0179000D02*
D03*
X0801500Y0149500D02*
D03*
X0612500Y0279000D02*
D03*
X0681000Y0207000D02*
D03*
X0814500Y0185500D02*
D03*
X0881000Y0209250D02*
D03*
X0885000D02*
D03*
X0888250D02*
D03*
X1003590Y0214340D02*
D03*
X1005924Y0216674D02*
D03*
X0920500Y0194000D02*
D03*
X0917500Y0191500D02*
D03*
X0832500Y0197000D02*
D03*
X0899000Y0188000D02*
D03*
X0845000Y0191000D02*
D03*
X0848500Y0194000D02*
D03*
X0843500Y0187500D02*
D03*
X0931000Y0169000D02*
D03*
X0857500Y0211000D02*
D03*
X0838500Y0212500D02*
D03*
X0800000Y0131750D02*
D03*
X0823000Y0140000D02*
D03*
X0817500Y0175000D02*
D03*
X0886500Y0147500D02*
D03*
X0891000Y0144000D02*
D03*
X0957500Y0233500D02*
D03*
X0873000Y0139500D02*
D03*
X0845000Y0154500D02*
D03*
X0835500Y0172000D02*
D03*
Y0184000D02*
D03*
X0828500Y0188000D02*
D03*
X0870500Y0194000D02*
D03*
X0864500Y0192500D02*
D03*
X0853500Y0193500D02*
D03*
X0840500Y0159000D02*
D03*
X0809000Y0147000D02*
D03*
X0944500Y0230000D02*
D03*
X0810000Y0190500D02*
D03*
X0812500Y0171500D02*
D03*
X0928000Y0184000D02*
D03*
X0928500Y0177500D02*
D03*
X0845000Y0142500D02*
D03*
X0825000Y0172500D02*
D03*
X0783500Y0161000D02*
D03*
X1044065Y0250500D02*
D03*
X1042000Y0246500D02*
D03*
X1045750D02*
D03*
X1042250Y0289000D02*
D03*
X1016500Y0296750D02*
D03*
X0948750Y0281750D02*
D03*
X0948500Y0287250D02*
D03*
X0741500Y0242000D02*
D03*
X0732500Y0245500D02*
D03*
X0735750Y0242250D02*
D03*
X0781000Y0231100D02*
D03*
X0749250Y0239250D02*
D03*
X0753250Y0241750D02*
D03*
X0758500Y0242250D02*
D03*
X0697750Y0261500D02*
D03*
X0859250Y0326750D02*
D03*
X0855000Y0329500D02*
D03*
X0657000Y0206250D02*
D03*
X0864000Y0127000D02*
D03*
X0771750Y0131000D02*
D03*
X0767750D02*
D03*
X0772500Y0196750D02*
D03*
X0715500Y0213250D02*
D03*
X0719500Y0213000D02*
D03*
X0723750Y0213250D02*
D03*
X0735000Y0209000D02*
D03*
X0730750D02*
D03*
X0735000Y0205750D02*
D03*
Y0202000D02*
D03*
X0731500Y0205750D02*
D03*
X0749500Y0212250D02*
D03*
X0706250Y0173500D02*
D03*
Y0169000D02*
D03*
X0710500D02*
D03*
Y0173500D02*
D03*
X0714250Y0169000D02*
D03*
Y0173500D02*
D03*
X0718000Y0169000D02*
D03*
Y0173500D02*
D03*
X0721750Y0169000D02*
D03*
Y0173500D02*
D03*
X0725500Y0169000D02*
D03*
Y0173500D02*
D03*
X0700750Y0155000D02*
D03*
X0705750D02*
D03*
X0710500D02*
D03*
X0715000Y0148750D02*
D03*
X0719750D02*
D03*
X0705750D02*
D03*
X0700750D02*
D03*
X0715000Y0155000D02*
D03*
X0710500Y0148750D02*
D03*
X0794250Y0208000D02*
D03*
X0761750Y0206500D02*
D03*
X0632250Y0189750D02*
D03*
X0635000Y0187000D02*
D03*
X0638000Y0184000D02*
D03*
X0640750Y0181250D02*
D03*
X0646500Y0175500D02*
D03*
X0643625Y0178375D02*
D03*
X0885000Y0213000D02*
D03*
X0812500Y0263500D02*
D03*
X0842000Y0234000D02*
D03*
X0868500Y0272000D02*
D03*
X0781750Y0235500D02*
D03*
X0776500Y0212000D02*
D03*
X0846610Y0226500D02*
D03*
X0882000Y0259500D02*
D03*
X0889000D02*
D03*
X0885500D02*
D03*
X0872500Y0262000D02*
D03*
X0856250Y0227000D02*
D03*
X0763500Y0211500D02*
D03*
X0865500Y0259750D02*
D03*
X0768750Y0211500D02*
D03*
X0768250Y0205000D02*
D03*
X0772500D02*
D03*
X0719750Y0155000D02*
D03*
X0772500Y0200750D02*
D03*
X0783000Y0182500D02*
D03*
X0775750Y0181000D02*
D03*
X0886750Y0255000D02*
D03*
Y0251250D02*
D03*
X0872500Y0265500D02*
D03*
X0875500Y0267500D02*
D03*
X0875250Y0263750D02*
D03*
X0947500Y0334250D02*
D03*
X0903000Y0325000D02*
D03*
X0905500Y0320500D02*
D03*
X0611750Y0132500D02*
D03*
X0775500Y0155750D02*
D03*
X0767750Y0127750D02*
D03*
X0771750D02*
D03*
X0767750Y0227750D02*
D03*
X0609000Y0112250D02*
D03*
X1078000Y0315000D02*
D03*
X1080924Y0343250D02*
D03*
D71*
X0924667Y0279941D02*
D03*
Y0291752D02*
D03*
Y0303563D02*
D03*
X0924500Y0315500D02*
D03*
D72*
X0904500Y0167000D02*
D03*
M02*
