G04 Layer_Physical_Order=3*
G04 Layer_Color=36540*
%FSAX25Y25*%
%MOIN*%
G70*
G01*
G75*
%ADD38C,0.07874*%
%ADD40C,0.03937*%
%ADD43C,0.04724*%
%ADD45C,0.05906*%
%ADD62C,0.05543*%
%ADD70C,0.02500*%
%ADD84R,0.08500X0.07000*%
%ADD85R,0.12750X0.08000*%
%ADD86R,0.15500X0.16250*%
%ADD87R,0.11250X0.10500*%
%ADD88R,0.05750X0.11500*%
%ADD89R,0.23750X0.08500*%
%ADD90R,0.07750X0.11500*%
G36*
X1050750Y0279238D02*
X1022238D01*
X1006238Y0295238D01*
Y0311250D01*
X1006238Y0311250D01*
X1006136Y0312023D01*
X1005838Y0312744D01*
X1005363Y0313363D01*
X1005363Y0313363D01*
X0982363Y0336363D01*
X0981744Y0336838D01*
X0981023Y0337136D01*
X0980250Y0337238D01*
X0980250Y0337238D01*
X0936500D01*
X0936500Y0337238D01*
X0935727Y0337136D01*
X0935006Y0336838D01*
X0934387Y0336363D01*
X0934387Y0336363D01*
X0911512Y0313488D01*
X0740500D01*
X0739727Y0313386D01*
X0739006Y0313088D01*
X0738387Y0312613D01*
X0738387Y0312613D01*
X0724262Y0298488D01*
X0705750D01*
X0704977Y0298386D01*
X0704256Y0298088D01*
X0703637Y0297613D01*
X0703637Y0297613D01*
X0683387Y0277363D01*
X0682912Y0276744D01*
X0682614Y0276023D01*
X0682512Y0275250D01*
X0682512Y0275250D01*
Y0261500D01*
X0682512Y0261500D01*
X0682614Y0260727D01*
X0682912Y0260006D01*
X0683387Y0259387D01*
X0691012Y0251762D01*
Y0217738D01*
X0684637Y0211363D01*
X0684163Y0210744D01*
X0683864Y0210023D01*
X0683762Y0209250D01*
X0683762Y0209250D01*
Y0207209D01*
X0683262Y0207160D01*
X0683232Y0207313D01*
X0683119Y0207878D01*
X0682622Y0208622D01*
X0681878Y0209120D01*
X0681500Y0209195D01*
Y0207000D01*
Y0204805D01*
X0681878Y0204880D01*
X0682622Y0205378D01*
X0683119Y0206122D01*
X0683232Y0206687D01*
X0683262Y0206840D01*
X0683762Y0206791D01*
Y0191000D01*
X0683762Y0191000D01*
X0683864Y0190227D01*
X0684163Y0189506D01*
X0684637Y0188887D01*
X0702137Y0171387D01*
X0702137Y0171387D01*
X0702756Y0170913D01*
X0703351Y0170666D01*
Y0167250D01*
X0703541Y0166791D01*
X0704000Y0166601D01*
X0723761D01*
X0724006Y0166412D01*
X0724727Y0166114D01*
X0725500Y0166012D01*
X0736012D01*
X0736512Y0165512D01*
Y0155750D01*
X0736512Y0155750D01*
X0736614Y0154977D01*
X0736912Y0154256D01*
X0737387Y0153637D01*
X0741887Y0149137D01*
X0741887Y0149137D01*
X0742506Y0148662D01*
X0742668Y0148595D01*
X0742912Y0148006D01*
X0743387Y0147387D01*
X0746387Y0144387D01*
X0746387Y0144387D01*
X0747006Y0143912D01*
X0747727Y0143614D01*
X0748500Y0143512D01*
X0748500Y0143512D01*
X0765250D01*
X0765250Y0143512D01*
X0766023Y0143614D01*
X0766744Y0143912D01*
X0767363Y0144387D01*
X0768363Y0145387D01*
X0768837Y0146006D01*
X0769136Y0146727D01*
X0769238Y0147500D01*
X0769136Y0148273D01*
X0768837Y0148994D01*
X0768363Y0149613D01*
X0767744Y0150087D01*
X0767023Y0150386D01*
X0766250Y0150488D01*
X0765477Y0150386D01*
X0764756Y0150087D01*
X0764137Y0149613D01*
X0764012Y0149488D01*
X0753718D01*
X0753567Y0149988D01*
X0753834Y0150166D01*
X0754243Y0150778D01*
X0754386Y0151500D01*
X0754243Y0152222D01*
X0753834Y0152834D01*
X0753222Y0153243D01*
X0752500Y0153386D01*
X0751778Y0153243D01*
X0751166Y0152834D01*
X0750757Y0152222D01*
X0750614Y0151500D01*
X0750757Y0150778D01*
X0751166Y0150166D01*
X0751433Y0149988D01*
X0751282Y0149488D01*
X0749738D01*
X0748488Y0150738D01*
Y0151250D01*
X0748386Y0152023D01*
X0748088Y0152744D01*
X0747613Y0153363D01*
X0746994Y0153838D01*
X0746273Y0154136D01*
X0745500Y0154238D01*
X0745238D01*
X0742488Y0156988D01*
Y0163762D01*
X0754500D01*
X0754500Y0163762D01*
X0755273Y0163864D01*
X0755994Y0164163D01*
X0756613Y0164637D01*
X0761363Y0169387D01*
X0761837Y0170006D01*
X0762136Y0170727D01*
X0762141Y0170764D01*
X0762269Y0170794D01*
X0762657Y0170858D01*
X0763372Y0170380D01*
X0763750Y0170305D01*
Y0172500D01*
Y0174695D01*
X0763372Y0174619D01*
X0762628Y0174122D01*
X0762150Y0173407D01*
X0762118Y0173376D01*
X0761605Y0173297D01*
X0761363Y0173613D01*
X0760744Y0174088D01*
X0760023Y0174386D01*
X0759250Y0174488D01*
X0758477Y0174386D01*
X0757756Y0174088D01*
X0757137Y0173613D01*
X0753262Y0169738D01*
X0740738D01*
X0739363Y0171113D01*
X0738744Y0171588D01*
X0738023Y0171886D01*
X0737250Y0171988D01*
X0737250Y0171988D01*
X0728399D01*
Y0175750D01*
X0728209Y0176209D01*
X0727750Y0176399D01*
X0706921D01*
X0706250Y0176488D01*
X0705488D01*
X0689738Y0192238D01*
Y0208012D01*
X0696113Y0214387D01*
X0696113Y0214387D01*
X0696588Y0215006D01*
X0696886Y0215727D01*
X0696988Y0216500D01*
X0696988Y0216500D01*
Y0240405D01*
X0697488Y0240557D01*
X0697749Y0240166D01*
X0698361Y0239757D01*
X0699083Y0239614D01*
X0699804Y0239757D01*
X0700416Y0240166D01*
X0700825Y0240778D01*
X0700969Y0241500D01*
X0700825Y0242222D01*
X0700416Y0242834D01*
X0699804Y0243243D01*
X0699083Y0243386D01*
X0698361Y0243243D01*
X0697749Y0242834D01*
X0697488Y0242443D01*
X0696988Y0242595D01*
Y0253000D01*
X0696988Y0253000D01*
X0696886Y0253773D01*
X0696588Y0254494D01*
X0696113Y0255113D01*
X0696113Y0255113D01*
X0688488Y0262738D01*
Y0274012D01*
X0706988Y0292512D01*
X0725500D01*
X0725500Y0292512D01*
X0726273Y0292614D01*
X0726994Y0292913D01*
X0727613Y0293387D01*
X0741738Y0307512D01*
X0912750D01*
X0912750Y0307512D01*
X0913523Y0307614D01*
X0914244Y0307912D01*
X0914863Y0308387D01*
X0921870Y0315395D01*
X0922413Y0315230D01*
X0922522Y0314681D01*
X0922986Y0313986D01*
X0923681Y0313522D01*
X0924500Y0313359D01*
X0925319Y0313522D01*
X0926014Y0313986D01*
X0926478Y0314681D01*
X0926641Y0315500D01*
X0926478Y0316319D01*
X0926014Y0317014D01*
X0925319Y0317478D01*
X0924770Y0317587D01*
X0924605Y0318130D01*
X0937738Y0331262D01*
X0979012D01*
X1000262Y0310012D01*
Y0294000D01*
X1000262Y0294000D01*
X1000364Y0293227D01*
X1000663Y0292506D01*
X1001137Y0291887D01*
X1018887Y0274137D01*
X1018887Y0274137D01*
X1019506Y0273662D01*
X1020227Y0273364D01*
X1021000Y0273262D01*
X1021000Y0273262D01*
X1048762D01*
Y0178000D01*
Y0173238D01*
X1041762Y0166238D01*
X0919000D01*
X0919000Y0166238D01*
X0918227Y0166136D01*
X0917506Y0165838D01*
X0916887Y0165363D01*
X0916887Y0165363D01*
X0914171Y0162646D01*
X0913696Y0162027D01*
X0913398Y0161307D01*
X0913296Y0160533D01*
X0913296Y0160533D01*
Y0157597D01*
X0912999Y0156880D01*
X0912883Y0156000D01*
X0912999Y0155120D01*
X0913338Y0154300D01*
X0913879Y0153595D01*
X0914583Y0153055D01*
X0915403Y0152715D01*
X0916284Y0152599D01*
X0917164Y0152715D01*
X0917984Y0153055D01*
X0918688Y0153595D01*
X0919229Y0154300D01*
X0919568Y0155120D01*
X0919684Y0156000D01*
X0919568Y0156880D01*
X0919271Y0157597D01*
Y0159296D01*
X0920238Y0160262D01*
X1043000D01*
X1043000Y0160262D01*
X1043773Y0160364D01*
X1044494Y0160662D01*
X1045113Y0161137D01*
X1050288Y0166313D01*
X1050750Y0166121D01*
Y0152448D01*
X1050651Y0152300D01*
X1050527Y0152168D01*
X1050058Y0151422D01*
X1049993Y0151252D01*
X1049901Y0151096D01*
X1049609Y0150264D01*
X1049584Y0150084D01*
X1049529Y0149911D01*
X1049430Y0149035D01*
X1049438Y0148944D01*
X1049420Y0148854D01*
Y0107162D01*
X0596390D01*
X0594945Y0107305D01*
X0586258Y0115992D01*
X0586115Y0117438D01*
Y0349562D01*
X0586127Y0349685D01*
X0594511Y0359652D01*
X0596390Y0359837D01*
X1050750D01*
Y0279238D01*
D02*
G37*
%LPC*%
G36*
X0602000Y0181083D02*
X0601073Y0180961D01*
X0600208Y0180603D01*
X0599466Y0180034D01*
X0598897Y0179292D01*
X0598539Y0178427D01*
X0598417Y0177500D01*
X0598539Y0176573D01*
X0598897Y0175708D01*
X0599466Y0174966D01*
X0600208Y0174397D01*
X0601073Y0174039D01*
X0602000Y0173917D01*
X0602927Y0174039D01*
X0603792Y0174397D01*
X0604534Y0174966D01*
X0605103Y0175708D01*
X0605461Y0176573D01*
X0605583Y0177500D01*
X0605461Y0178427D01*
X0605103Y0179292D01*
X0604534Y0180034D01*
X0603792Y0180603D01*
X0602927Y0180961D01*
X0602000Y0181083D01*
D02*
G37*
G36*
X0592000D02*
X0591073Y0180961D01*
X0590208Y0180603D01*
X0589466Y0180034D01*
X0588897Y0179292D01*
X0588539Y0178427D01*
X0588417Y0177500D01*
X0588539Y0176573D01*
X0588897Y0175708D01*
X0589466Y0174966D01*
X0590208Y0174397D01*
X0591073Y0174039D01*
X0592000Y0173917D01*
X0592928Y0174039D01*
X0593792Y0174397D01*
X0594534Y0174966D01*
X0595103Y0175708D01*
X0595461Y0176573D01*
X0595583Y0177500D01*
X0595461Y0178427D01*
X0595103Y0179292D01*
X0594534Y0180034D01*
X0593792Y0180603D01*
X0592928Y0180961D01*
X0592000Y0181083D01*
D02*
G37*
G36*
X0632250Y0191636D02*
X0631528Y0191493D01*
X0630916Y0191084D01*
X0630507Y0190472D01*
X0630364Y0189750D01*
X0630507Y0189028D01*
X0630916Y0188416D01*
X0631528Y0188007D01*
X0632250Y0187864D01*
X0632838Y0187981D01*
X0632971Y0187899D01*
X0633148Y0187721D01*
X0633231Y0187588D01*
X0633114Y0187000D01*
X0633257Y0186278D01*
X0633666Y0185666D01*
X0634278Y0185257D01*
X0635000Y0185114D01*
X0635722Y0185257D01*
X0636249Y0185610D01*
X0636610Y0185249D01*
X0636257Y0184722D01*
X0636114Y0184000D01*
X0636257Y0183278D01*
X0636666Y0182666D01*
X0637278Y0182257D01*
X0638000Y0182114D01*
X0638588Y0182231D01*
X0638721Y0182149D01*
X0638899Y0181971D01*
X0638981Y0181838D01*
X0638864Y0181250D01*
X0639007Y0180528D01*
X0639416Y0179916D01*
X0640028Y0179507D01*
X0640750Y0179364D01*
X0641472Y0179507D01*
X0641623Y0179608D01*
X0641983Y0179248D01*
X0641882Y0179097D01*
X0641739Y0178375D01*
X0641882Y0177653D01*
X0642291Y0177041D01*
X0642903Y0176632D01*
X0643625Y0176489D01*
X0644347Y0176632D01*
X0644498Y0176733D01*
X0644858Y0176373D01*
X0644757Y0176222D01*
X0644614Y0175500D01*
X0644757Y0174778D01*
X0645166Y0174166D01*
X0645778Y0173757D01*
X0646500Y0173614D01*
X0647222Y0173757D01*
X0647834Y0174166D01*
X0648243Y0174778D01*
X0648386Y0175500D01*
X0648243Y0176222D01*
X0647834Y0176834D01*
X0647222Y0177243D01*
X0646500Y0177386D01*
X0645778Y0177243D01*
X0645627Y0177142D01*
X0645267Y0177502D01*
X0645368Y0177653D01*
X0645511Y0178375D01*
X0645368Y0179097D01*
X0644959Y0179709D01*
X0644347Y0180118D01*
X0643625Y0180261D01*
X0642903Y0180118D01*
X0642752Y0180017D01*
X0642392Y0180377D01*
X0642493Y0180528D01*
X0642636Y0181250D01*
X0642493Y0181972D01*
X0642084Y0182584D01*
X0641472Y0182993D01*
X0640750Y0183136D01*
X0640162Y0183019D01*
X0640029Y0183101D01*
X0639852Y0183279D01*
X0639769Y0183412D01*
X0639886Y0184000D01*
X0639743Y0184722D01*
X0639334Y0185334D01*
X0638722Y0185743D01*
X0638000Y0185886D01*
X0637278Y0185743D01*
X0636751Y0185390D01*
X0636390Y0185751D01*
X0636743Y0186278D01*
X0636886Y0187000D01*
X0636743Y0187722D01*
X0636334Y0188334D01*
X0635722Y0188743D01*
X0635000Y0188886D01*
X0634412Y0188769D01*
X0634279Y0188851D01*
X0634101Y0189029D01*
X0634019Y0189162D01*
X0634136Y0189750D01*
X0633993Y0190472D01*
X0633584Y0191084D01*
X0632972Y0191493D01*
X0632250Y0191636D01*
D02*
G37*
G36*
X0748000Y0176695D02*
Y0175000D01*
X0749695D01*
X0749619Y0175378D01*
X0749122Y0176122D01*
X0748378Y0176620D01*
X0748000Y0176695D01*
D02*
G37*
G36*
X0747000D02*
X0746622Y0176620D01*
X0745878Y0176122D01*
X0745381Y0175378D01*
X0745305Y0175000D01*
X0747000D01*
Y0176695D01*
D02*
G37*
G36*
X0937000Y0178886D02*
X0936278Y0178743D01*
X0935666Y0178334D01*
X0935257Y0177722D01*
X0935114Y0177000D01*
X0935257Y0176278D01*
X0935666Y0175666D01*
X0936278Y0175257D01*
X0937000Y0175114D01*
X0937722Y0175257D01*
X0938334Y0175666D01*
X0938743Y0176278D01*
X0938886Y0177000D01*
X0938743Y0177722D01*
X0938334Y0178334D01*
X0937722Y0178743D01*
X0937000Y0178886D01*
D02*
G37*
G36*
X0871831Y0176647D02*
X0871136Y0176508D01*
X0870547Y0176115D01*
X0870153Y0175526D01*
X0870015Y0174831D01*
X0870153Y0174136D01*
X0870547Y0173547D01*
X0871136Y0173153D01*
X0871831Y0173015D01*
X0872526Y0173153D01*
X0873115Y0173547D01*
X0873508Y0174136D01*
X0873647Y0174831D01*
X0873508Y0175526D01*
X0873115Y0176115D01*
X0872526Y0176508D01*
X0871831Y0176647D01*
D02*
G37*
G36*
X0867500D02*
X0866805Y0176508D01*
X0866216Y0176115D01*
X0865822Y0175526D01*
X0865684Y0174831D01*
X0865822Y0174136D01*
X0866216Y0173547D01*
X0866805Y0173153D01*
X0867500Y0173015D01*
X0868195Y0173153D01*
X0868784Y0173547D01*
X0869178Y0174136D01*
X0869316Y0174831D01*
X0869178Y0175526D01*
X0868784Y0176115D01*
X0868195Y0176508D01*
X0867500Y0176647D01*
D02*
G37*
G36*
X0863169D02*
X0862474Y0176508D01*
X0861885Y0176115D01*
X0861491Y0175526D01*
X0861353Y0174831D01*
X0861491Y0174136D01*
X0861885Y0173547D01*
X0862474Y0173153D01*
X0863169Y0173015D01*
X0863864Y0173153D01*
X0864453Y0173547D01*
X0864847Y0174136D01*
X0864985Y0174831D01*
X0864847Y0175526D01*
X0864453Y0176115D01*
X0863864Y0176508D01*
X0863169Y0176647D01*
D02*
G37*
G36*
X0817500Y0176886D02*
X0816778Y0176743D01*
X0816166Y0176334D01*
X0815757Y0175722D01*
X0815614Y0175000D01*
X0815757Y0174278D01*
X0816166Y0173666D01*
X0816778Y0173257D01*
X0817500Y0173114D01*
X0818222Y0173257D01*
X0818834Y0173666D01*
X0819243Y0174278D01*
X0819386Y0175000D01*
X0819243Y0175722D01*
X0818834Y0176334D01*
X0818222Y0176743D01*
X0817500Y0176886D01*
D02*
G37*
G36*
X0880492Y0176647D02*
X0879797Y0176508D01*
X0879208Y0176115D01*
X0878814Y0175526D01*
X0878676Y0174831D01*
X0878814Y0174136D01*
X0879208Y0173547D01*
X0879797Y0173153D01*
X0880492Y0173015D01*
X0881187Y0173153D01*
X0881776Y0173547D01*
X0882170Y0174136D01*
X0882308Y0174831D01*
X0882170Y0175526D01*
X0881776Y0176115D01*
X0881187Y0176508D01*
X0880492Y0176647D01*
D02*
G37*
G36*
X0876161D02*
X0875467Y0176508D01*
X0874877Y0176115D01*
X0874484Y0175526D01*
X0874345Y0174831D01*
X0874484Y0174136D01*
X0874877Y0173547D01*
X0875467Y0173153D01*
X0876161Y0173015D01*
X0876856Y0173153D01*
X0877446Y0173547D01*
X0877839Y0174136D01*
X0877977Y0174831D01*
X0877839Y0175526D01*
X0877446Y0176115D01*
X0876856Y0176508D01*
X0876161Y0176647D01*
D02*
G37*
G36*
Y0180977D02*
X0875467Y0180839D01*
X0874877Y0180446D01*
X0874484Y0179856D01*
X0874345Y0179161D01*
X0874484Y0178466D01*
X0874877Y0177877D01*
X0875467Y0177484D01*
X0876161Y0177345D01*
X0876856Y0177484D01*
X0877446Y0177877D01*
X0877839Y0178466D01*
X0877977Y0179161D01*
X0877839Y0179856D01*
X0877446Y0180446D01*
X0876856Y0180839D01*
X0876161Y0180977D01*
D02*
G37*
G36*
X0871831D02*
X0871136Y0180839D01*
X0870547Y0180446D01*
X0870153Y0179856D01*
X0870015Y0179161D01*
X0870153Y0178466D01*
X0870547Y0177877D01*
X0871136Y0177484D01*
X0871831Y0177345D01*
X0872526Y0177484D01*
X0873115Y0177877D01*
X0873508Y0178466D01*
X0873647Y0179161D01*
X0873508Y0179856D01*
X0873115Y0180446D01*
X0872526Y0180839D01*
X0871831Y0180977D01*
D02*
G37*
G36*
X0867500D02*
X0866805Y0180839D01*
X0866216Y0180446D01*
X0865822Y0179856D01*
X0865684Y0179161D01*
X0865822Y0178466D01*
X0866216Y0177877D01*
X0866805Y0177484D01*
X0867500Y0177345D01*
X0868195Y0177484D01*
X0868784Y0177877D01*
X0869178Y0178466D01*
X0869316Y0179161D01*
X0869178Y0179856D01*
X0868784Y0180446D01*
X0868195Y0180839D01*
X0867500Y0180977D01*
D02*
G37*
G36*
X0820500Y0182886D02*
X0819778Y0182743D01*
X0819166Y0182334D01*
X0818757Y0181722D01*
X0818614Y0181000D01*
X0818757Y0180278D01*
X0819166Y0179666D01*
X0819778Y0179257D01*
X0820500Y0179114D01*
X0821222Y0179257D01*
X0821834Y0179666D01*
X0822243Y0180278D01*
X0822386Y0181000D01*
X0822243Y0181722D01*
X0821834Y0182334D01*
X0821222Y0182743D01*
X0820500Y0182886D01*
D02*
G37*
G36*
X0913500Y0178886D02*
X0912778Y0178743D01*
X0912172Y0178338D01*
X0912144Y0178344D01*
X0911792Y0178500D01*
X0910000D01*
Y0176805D01*
X0910378Y0176881D01*
X0911122Y0177378D01*
X0911203Y0177499D01*
X0911674Y0177304D01*
X0911614Y0177000D01*
X0911757Y0176278D01*
X0912166Y0175666D01*
X0912778Y0175257D01*
X0913500Y0175114D01*
X0914222Y0175257D01*
X0914834Y0175666D01*
X0915243Y0176278D01*
X0915386Y0177000D01*
X0915243Y0177722D01*
X0914834Y0178334D01*
X0914222Y0178743D01*
X0913500Y0178886D01*
D02*
G37*
G36*
X0880492Y0180977D02*
X0879797Y0180839D01*
X0879208Y0180446D01*
X0878814Y0179856D01*
X0878676Y0179161D01*
X0878814Y0178466D01*
X0879208Y0177877D01*
X0879797Y0177484D01*
X0880492Y0177345D01*
X0881187Y0177484D01*
X0881776Y0177877D01*
X0882170Y0178466D01*
X0882308Y0179161D01*
X0882170Y0179856D01*
X0881776Y0180446D01*
X0881187Y0180839D01*
X0880492Y0180977D01*
D02*
G37*
G36*
X0863169D02*
X0862474Y0180839D01*
X0861885Y0180446D01*
X0861491Y0179856D01*
X0861353Y0179161D01*
X0861491Y0178466D01*
X0861885Y0177877D01*
X0862474Y0177484D01*
X0863169Y0177345D01*
X0863864Y0177484D01*
X0864453Y0177877D01*
X0864847Y0178466D01*
X0864985Y0179161D01*
X0864847Y0179856D01*
X0864453Y0180446D01*
X0863864Y0180839D01*
X0863169Y0180977D01*
D02*
G37*
G36*
X0982984Y0183087D02*
X0982185Y0182982D01*
X0981441Y0182674D01*
X0980801Y0182183D01*
X0980311Y0181544D01*
X0980002Y0180799D01*
X0979897Y0180000D01*
X0980002Y0179201D01*
X0980311Y0178456D01*
X0980801Y0177817D01*
X0981441Y0177327D01*
X0982185Y0177018D01*
X0982984Y0176913D01*
X0983783Y0177018D01*
X0984528Y0177327D01*
X0985167Y0177817D01*
X0985658Y0178456D01*
X0985966Y0179201D01*
X0986071Y0180000D01*
X0985966Y0180799D01*
X0985658Y0181544D01*
X0985167Y0182183D01*
X0984528Y0182674D01*
X0983783Y0182982D01*
X0982984Y0183087D01*
D02*
G37*
G36*
X0909000Y0178500D02*
X0907305D01*
X0907381Y0178122D01*
X0907878Y0177378D01*
X0908622Y0176881D01*
X0909000Y0176805D01*
Y0178500D01*
D02*
G37*
G36*
X0928500Y0179386D02*
X0927778Y0179243D01*
X0927166Y0178834D01*
X0926757Y0178222D01*
X0926614Y0177500D01*
X0926757Y0176778D01*
X0927166Y0176166D01*
X0927778Y0175757D01*
X0928500Y0175614D01*
X0929222Y0175757D01*
X0929834Y0176166D01*
X0930243Y0176778D01*
X0930386Y0177500D01*
X0930243Y0178222D01*
X0929834Y0178834D01*
X0929222Y0179243D01*
X0928500Y0179386D01*
D02*
G37*
G36*
X0858839Y0180977D02*
X0858144Y0180839D01*
X0857555Y0180446D01*
X0857161Y0179856D01*
X0857023Y0179161D01*
X0857161Y0178466D01*
X0857555Y0177877D01*
X0858144Y0177484D01*
X0858839Y0177345D01*
X0859534Y0177484D01*
X0860123Y0177877D01*
X0860516Y0178466D01*
X0860655Y0179161D01*
X0860516Y0179856D01*
X0860123Y0180446D01*
X0859534Y0180839D01*
X0858839Y0180977D01*
D02*
G37*
G36*
X0854508D02*
X0853813Y0180839D01*
X0853224Y0180446D01*
X0852830Y0179856D01*
X0852692Y0179161D01*
X0852830Y0178466D01*
X0853224Y0177877D01*
X0853813Y0177484D01*
X0854508Y0177345D01*
X0855203Y0177484D01*
X0855792Y0177877D01*
X0856186Y0178466D01*
X0856324Y0179161D01*
X0856186Y0179856D01*
X0855792Y0180446D01*
X0855203Y0180839D01*
X0854508Y0180977D01*
D02*
G37*
G36*
X1027000Y0183087D02*
X1026201Y0182982D01*
X1025457Y0182674D01*
X1024817Y0182183D01*
X1024327Y0181544D01*
X1024018Y0180799D01*
X1023913Y0180000D01*
X1024018Y0179201D01*
X1024327Y0178456D01*
X1024817Y0177817D01*
X1025457Y0177327D01*
X1026201Y0177018D01*
X1027000Y0176913D01*
X1027799Y0177018D01*
X1028543Y0177327D01*
X1029183Y0177817D01*
X1029673Y0178456D01*
X1029982Y0179201D01*
X1030087Y0180000D01*
X1029982Y0180799D01*
X1029673Y0181544D01*
X1029183Y0182183D01*
X1028543Y0182674D01*
X1027799Y0182982D01*
X1027000Y0183087D01*
D02*
G37*
G36*
X0858839Y0176647D02*
X0858144Y0176508D01*
X0857555Y0176115D01*
X0857161Y0175526D01*
X0857023Y0174831D01*
X0857161Y0174136D01*
X0857555Y0173547D01*
X0858144Y0173153D01*
X0858839Y0173015D01*
X0859534Y0173153D01*
X0860123Y0173547D01*
X0860516Y0174136D01*
X0860655Y0174831D01*
X0860516Y0175526D01*
X0860123Y0176115D01*
X0859534Y0176508D01*
X0858839Y0176647D01*
D02*
G37*
G36*
X0854508Y0172316D02*
X0853813Y0172178D01*
X0853224Y0171784D01*
X0852830Y0171195D01*
X0852692Y0170500D01*
X0852830Y0169805D01*
X0853224Y0169216D01*
X0853813Y0168822D01*
X0854508Y0168684D01*
X0855203Y0168822D01*
X0855792Y0169216D01*
X0856186Y0169805D01*
X0856324Y0170500D01*
X0856186Y0171195D01*
X0855792Y0171784D01*
X0855203Y0172178D01*
X0854508Y0172316D01*
D02*
G37*
G36*
X0931000Y0170886D02*
X0930278Y0170743D01*
X0929666Y0170334D01*
X0929257Y0169722D01*
X0929114Y0169000D01*
X0929257Y0168278D01*
X0929666Y0167666D01*
X0930278Y0167257D01*
X0931000Y0167114D01*
X0931722Y0167257D01*
X0932334Y0167666D01*
X0932743Y0168278D01*
X0932886Y0169000D01*
X0932743Y0169722D01*
X0932334Y0170334D01*
X0931722Y0170743D01*
X0931000Y0170886D01*
D02*
G37*
G36*
X0910445Y0168750D02*
X0908750D01*
Y0167055D01*
X0909128Y0167130D01*
X0909872Y0167628D01*
X0910369Y0168372D01*
X0910445Y0168750D01*
D02*
G37*
G36*
X0867500Y0172316D02*
X0866805Y0172178D01*
X0866216Y0171784D01*
X0865822Y0171195D01*
X0865684Y0170500D01*
X0865822Y0169805D01*
X0866216Y0169216D01*
X0866805Y0168822D01*
X0867500Y0168684D01*
X0868195Y0168822D01*
X0868784Y0169216D01*
X0869178Y0169805D01*
X0869316Y0170500D01*
X0869178Y0171195D01*
X0868784Y0171784D01*
X0868195Y0172178D01*
X0867500Y0172316D01*
D02*
G37*
G36*
X0863169D02*
X0862474Y0172178D01*
X0861885Y0171784D01*
X0861491Y0171195D01*
X0861353Y0170500D01*
X0861491Y0169805D01*
X0861885Y0169216D01*
X0862474Y0168822D01*
X0863169Y0168684D01*
X0863864Y0168822D01*
X0864453Y0169216D01*
X0864847Y0169805D01*
X0864985Y0170500D01*
X0864847Y0171195D01*
X0864453Y0171784D01*
X0863864Y0172178D01*
X0863169Y0172316D01*
D02*
G37*
G36*
X0858839D02*
X0858144Y0172178D01*
X0857555Y0171784D01*
X0857161Y0171195D01*
X0857023Y0170500D01*
X0857161Y0169805D01*
X0857555Y0169216D01*
X0858144Y0168822D01*
X0858839Y0168684D01*
X0859534Y0168822D01*
X0860123Y0169216D01*
X0860516Y0169805D01*
X0860655Y0170500D01*
X0860516Y0171195D01*
X0860123Y0171784D01*
X0859534Y0172178D01*
X0858839Y0172316D01*
D02*
G37*
G36*
X0880492Y0167985D02*
X0879797Y0167847D01*
X0879208Y0167453D01*
X0878814Y0166864D01*
X0878676Y0166169D01*
X0878814Y0165474D01*
X0879208Y0164885D01*
X0879797Y0164491D01*
X0880492Y0164353D01*
X0881187Y0164491D01*
X0881776Y0164885D01*
X0882170Y0165474D01*
X0882308Y0166169D01*
X0882170Y0166864D01*
X0881776Y0167453D01*
X0881187Y0167847D01*
X0880492Y0167985D01*
D02*
G37*
G36*
X0863169D02*
X0862474Y0167847D01*
X0861885Y0167453D01*
X0861491Y0166864D01*
X0861353Y0166169D01*
X0861491Y0165474D01*
X0861885Y0164885D01*
X0862474Y0164491D01*
X0863169Y0164353D01*
X0863864Y0164491D01*
X0864453Y0164885D01*
X0864847Y0165474D01*
X0864985Y0166169D01*
X0864847Y0166864D01*
X0864453Y0167453D01*
X0863864Y0167847D01*
X0863169Y0167985D01*
D02*
G37*
G36*
X0858839D02*
X0858144Y0167847D01*
X0857555Y0167453D01*
X0857161Y0166864D01*
X0857023Y0166169D01*
X0857161Y0165474D01*
X0857555Y0164885D01*
X0858144Y0164491D01*
X0858839Y0164353D01*
X0859534Y0164491D01*
X0860123Y0164885D01*
X0860516Y0165474D01*
X0860655Y0166169D01*
X0860516Y0166864D01*
X0860123Y0167453D01*
X0859534Y0167847D01*
X0858839Y0167985D01*
D02*
G37*
G36*
X0854508D02*
X0853813Y0167847D01*
X0853224Y0167453D01*
X0852830Y0166864D01*
X0852692Y0166169D01*
X0852830Y0165474D01*
X0853224Y0164885D01*
X0853813Y0164491D01*
X0854508Y0164353D01*
X0855203Y0164491D01*
X0855792Y0164885D01*
X0856186Y0165474D01*
X0856324Y0166169D01*
X0856186Y0166864D01*
X0855792Y0167453D01*
X0855203Y0167847D01*
X0854508Y0167985D01*
D02*
G37*
G36*
X0876161D02*
X0875467Y0167847D01*
X0874877Y0167453D01*
X0874484Y0166864D01*
X0874345Y0166169D01*
X0874484Y0165474D01*
X0874877Y0164885D01*
X0875467Y0164491D01*
X0876161Y0164353D01*
X0876856Y0164491D01*
X0877446Y0164885D01*
X0877839Y0165474D01*
X0877977Y0166169D01*
X0877839Y0166864D01*
X0877446Y0167453D01*
X0876856Y0167847D01*
X0876161Y0167985D01*
D02*
G37*
G36*
X0871831D02*
X0871136Y0167847D01*
X0870547Y0167453D01*
X0870153Y0166864D01*
X0870015Y0166169D01*
X0870153Y0165474D01*
X0870547Y0164885D01*
X0871136Y0164491D01*
X0871831Y0164353D01*
X0872526Y0164491D01*
X0873115Y0164885D01*
X0873508Y0165474D01*
X0873647Y0166169D01*
X0873508Y0166864D01*
X0873115Y0167453D01*
X0872526Y0167847D01*
X0871831Y0167985D01*
D02*
G37*
G36*
X0867500D02*
X0866805Y0167847D01*
X0866216Y0167453D01*
X0865822Y0166864D01*
X0865684Y0166169D01*
X0865822Y0165474D01*
X0866216Y0164885D01*
X0866805Y0164491D01*
X0867500Y0164353D01*
X0868195Y0164491D01*
X0868784Y0164885D01*
X0869178Y0165474D01*
X0869316Y0166169D01*
X0869178Y0166864D01*
X0868784Y0167453D01*
X0868195Y0167847D01*
X0867500Y0167985D01*
D02*
G37*
G36*
X0747000Y0174000D02*
X0745305D01*
X0745381Y0173622D01*
X0745878Y0172878D01*
X0746622Y0172380D01*
X0747000Y0172305D01*
Y0174000D01*
D02*
G37*
G36*
X0825000Y0174386D02*
X0824278Y0174243D01*
X0823666Y0173834D01*
X0823257Y0173222D01*
X0823114Y0172500D01*
X0823257Y0171778D01*
X0823666Y0171166D01*
X0824278Y0170757D01*
X0825000Y0170614D01*
X0825722Y0170757D01*
X0826334Y0171166D01*
X0826743Y0171778D01*
X0826886Y0172500D01*
X0826743Y0173222D01*
X0826334Y0173834D01*
X0825722Y0174243D01*
X0825000Y0174386D01*
D02*
G37*
G36*
X0766445Y0172000D02*
X0764750D01*
Y0170305D01*
X0765128Y0170380D01*
X0765872Y0170878D01*
X0766369Y0171622D01*
X0766445Y0172000D01*
D02*
G37*
G36*
X0854508Y0176647D02*
X0853813Y0176508D01*
X0853224Y0176115D01*
X0852830Y0175526D01*
X0852692Y0174831D01*
X0852830Y0174136D01*
X0853224Y0173547D01*
X0853813Y0173153D01*
X0854508Y0173015D01*
X0855203Y0173153D01*
X0855792Y0173547D01*
X0856186Y0174136D01*
X0856324Y0174831D01*
X0856186Y0175526D01*
X0855792Y0176115D01*
X0855203Y0176508D01*
X0854508Y0176647D01*
D02*
G37*
G36*
X0764750Y0174695D02*
Y0173000D01*
X0766445D01*
X0766369Y0173378D01*
X0765872Y0174122D01*
X0765128Y0174619D01*
X0764750Y0174695D01*
D02*
G37*
G36*
X0749695Y0174000D02*
X0748000D01*
Y0172305D01*
X0748378Y0172380D01*
X0749122Y0172878D01*
X0749619Y0173622D01*
X0749695Y0174000D01*
D02*
G37*
G36*
X0835500Y0173886D02*
X0834778Y0173743D01*
X0834166Y0173334D01*
X0833757Y0172722D01*
X0833614Y0172000D01*
X0833757Y0171278D01*
X0834166Y0170666D01*
X0834778Y0170257D01*
X0835500Y0170114D01*
X0836222Y0170257D01*
X0836834Y0170666D01*
X0837243Y0171278D01*
X0837386Y0172000D01*
X0837243Y0172722D01*
X0836834Y0173334D01*
X0836222Y0173743D01*
X0835500Y0173886D01*
D02*
G37*
G36*
X0880492Y0172316D02*
X0879797Y0172178D01*
X0879208Y0171784D01*
X0878814Y0171195D01*
X0878676Y0170500D01*
X0878814Y0169805D01*
X0879208Y0169216D01*
X0879797Y0168822D01*
X0880492Y0168684D01*
X0881187Y0168822D01*
X0881776Y0169216D01*
X0882170Y0169805D01*
X0882308Y0170500D01*
X0882170Y0171195D01*
X0881776Y0171784D01*
X0881187Y0172178D01*
X0880492Y0172316D01*
D02*
G37*
G36*
X0876161D02*
X0875467Y0172178D01*
X0874877Y0171784D01*
X0874484Y0171195D01*
X0874345Y0170500D01*
X0874484Y0169805D01*
X0874877Y0169216D01*
X0875467Y0168822D01*
X0876161Y0168684D01*
X0876856Y0168822D01*
X0877446Y0169216D01*
X0877839Y0169805D01*
X0877977Y0170500D01*
X0877839Y0171195D01*
X0877446Y0171784D01*
X0876856Y0172178D01*
X0876161Y0172316D01*
D02*
G37*
G36*
X0871831D02*
X0871136Y0172178D01*
X0870547Y0171784D01*
X0870153Y0171195D01*
X0870015Y0170500D01*
X0870153Y0169805D01*
X0870547Y0169216D01*
X0871136Y0168822D01*
X0871831Y0168684D01*
X0872526Y0168822D01*
X0873115Y0169216D01*
X0873508Y0169805D01*
X0873647Y0170500D01*
X0873508Y0171195D01*
X0873115Y0171784D01*
X0872526Y0172178D01*
X0871831Y0172316D01*
D02*
G37*
G36*
X0908750Y0171445D02*
Y0169750D01*
X0910445D01*
X0910369Y0170128D01*
X0909872Y0170872D01*
X0909128Y0171370D01*
X0908750Y0171445D01*
D02*
G37*
G36*
X0812500Y0173386D02*
X0811778Y0173243D01*
X0811166Y0172834D01*
X0810757Y0172222D01*
X0810614Y0171500D01*
X0810757Y0170778D01*
X0811166Y0170166D01*
X0811778Y0169757D01*
X0812500Y0169614D01*
X0813222Y0169757D01*
X0813834Y0170166D01*
X0814243Y0170778D01*
X0814386Y0171500D01*
X0814243Y0172222D01*
X0813834Y0172834D01*
X0813222Y0173243D01*
X0812500Y0173386D01*
D02*
G37*
G36*
X0907750Y0171445D02*
X0907372Y0171370D01*
X0906628Y0170872D01*
X0906131Y0170128D01*
X0905956Y0169250D01*
X0905993Y0169066D01*
X0905543Y0168765D01*
X0905299Y0168928D01*
X0904500Y0169087D01*
X0903701Y0168928D01*
X0903024Y0168476D01*
X0902572Y0167799D01*
X0902413Y0167000D01*
X0902572Y0166201D01*
X0903024Y0165524D01*
X0903701Y0165072D01*
X0904500Y0164913D01*
X0905299Y0165072D01*
X0905976Y0165524D01*
X0906428Y0166201D01*
X0906587Y0167000D01*
X0906575Y0167062D01*
X0907025Y0167363D01*
X0907372Y0167130D01*
X0907750Y0167055D01*
Y0169250D01*
Y0171445D01*
D02*
G37*
G36*
X0832500Y0198886D02*
X0831778Y0198743D01*
X0831166Y0198334D01*
X0830757Y0197722D01*
X0830614Y0197000D01*
X0830757Y0196278D01*
X0831166Y0195666D01*
X0831778Y0195257D01*
X0832500Y0195114D01*
X0833222Y0195257D01*
X0833834Y0195666D01*
X0834243Y0196278D01*
X0834386Y0197000D01*
X0834243Y0197722D01*
X0833834Y0198334D01*
X0833222Y0198743D01*
X0832500Y0198886D01*
D02*
G37*
G36*
X0857000Y0195695D02*
X0856622Y0195619D01*
X0855878Y0195122D01*
X0855560Y0194647D01*
X0854962Y0194642D01*
X0854834Y0194834D01*
X0854222Y0195243D01*
X0853500Y0195386D01*
X0852778Y0195243D01*
X0852166Y0194834D01*
X0851757Y0194222D01*
X0851614Y0193500D01*
X0851757Y0192778D01*
X0852166Y0192166D01*
X0852778Y0191757D01*
X0853500Y0191614D01*
X0854222Y0191757D01*
X0854834Y0192166D01*
X0854962Y0192358D01*
X0855560Y0192353D01*
X0855878Y0191878D01*
X0856622Y0191381D01*
X0857000Y0191305D01*
Y0193500D01*
Y0195695D01*
D02*
G37*
G36*
X0697980Y0205648D02*
X0696518Y0205456D01*
X0695156Y0204892D01*
X0693986Y0203994D01*
X0693089Y0202824D01*
X0692524Y0201462D01*
X0692332Y0200000D01*
X0692524Y0198538D01*
X0693089Y0197176D01*
X0693986Y0196006D01*
X0695156Y0195108D01*
X0696518Y0194544D01*
X0697980Y0194352D01*
X0699442Y0194544D01*
X0700805Y0195108D01*
X0701974Y0196006D01*
X0702872Y0197176D01*
X0703436Y0198538D01*
X0703629Y0200000D01*
X0703436Y0201462D01*
X0702872Y0202824D01*
X0701974Y0203994D01*
X0700805Y0204892D01*
X0699442Y0205456D01*
X0697980Y0205648D01*
D02*
G37*
G36*
X0710500Y0203401D02*
X0709620Y0203285D01*
X0708800Y0202945D01*
X0708095Y0202405D01*
X0707555Y0201700D01*
X0707215Y0200880D01*
X0707099Y0200000D01*
X0707215Y0199120D01*
X0707555Y0198300D01*
X0708095Y0197595D01*
X0708800Y0197055D01*
X0709620Y0196715D01*
X0710500Y0196599D01*
X0711380Y0196715D01*
X0712200Y0197055D01*
X0712905Y0197595D01*
X0713445Y0198300D01*
X0713785Y0199120D01*
X0713901Y0200000D01*
X0713785Y0200880D01*
X0713445Y0201700D01*
X0712905Y0202405D01*
X0712200Y0202945D01*
X0711380Y0203285D01*
X0710500Y0203401D01*
D02*
G37*
G36*
X0670500D02*
X0669620Y0203285D01*
X0668800Y0202945D01*
X0668095Y0202405D01*
X0667555Y0201700D01*
X0667215Y0200880D01*
X0667099Y0200000D01*
X0667215Y0199120D01*
X0667555Y0198300D01*
X0668095Y0197595D01*
X0668800Y0197055D01*
X0669620Y0196715D01*
X0670500Y0196599D01*
X0671380Y0196715D01*
X0672200Y0197055D01*
X0672905Y0197595D01*
X0673445Y0198300D01*
X0673785Y0199120D01*
X0673901Y0200000D01*
X0673785Y0200880D01*
X0673445Y0201700D01*
X0672905Y0202405D01*
X0672200Y0202945D01*
X0671380Y0203285D01*
X0670500Y0203401D01*
D02*
G37*
G36*
X0630500D02*
X0629620Y0203285D01*
X0628800Y0202945D01*
X0628095Y0202405D01*
X0627555Y0201700D01*
X0627215Y0200880D01*
X0627099Y0200000D01*
X0627215Y0199120D01*
X0627555Y0198300D01*
X0628095Y0197595D01*
X0628800Y0197055D01*
X0629620Y0196715D01*
X0630500Y0196599D01*
X0631380Y0196715D01*
X0632200Y0197055D01*
X0632905Y0197595D01*
X0633445Y0198300D01*
X0633785Y0199120D01*
X0633901Y0200000D01*
X0633785Y0200880D01*
X0633445Y0201700D01*
X0632905Y0202405D01*
X0632200Y0202945D01*
X0631380Y0203285D01*
X0630500Y0203401D01*
D02*
G37*
G36*
X0642980Y0205648D02*
X0641518Y0205456D01*
X0640156Y0204892D01*
X0638986Y0203994D01*
X0638089Y0202824D01*
X0637524Y0201462D01*
X0637332Y0200000D01*
X0637524Y0198538D01*
X0638089Y0197176D01*
X0638986Y0196006D01*
X0640156Y0195108D01*
X0641518Y0194544D01*
X0642980Y0194352D01*
X0644442Y0194544D01*
X0645805Y0195108D01*
X0646974Y0196006D01*
X0647872Y0197176D01*
X0648436Y0198538D01*
X0648629Y0200000D01*
X0648436Y0201462D01*
X0647872Y0202824D01*
X0646974Y0203994D01*
X0645805Y0204892D01*
X0644442Y0205456D01*
X0642980Y0205648D01*
D02*
G37*
G36*
X0955500Y0195195D02*
X0955122Y0195120D01*
X0954378Y0194622D01*
X0953881Y0193878D01*
X0953805Y0193500D01*
X0955500D01*
Y0195195D01*
D02*
G37*
G36*
X0920500Y0195886D02*
X0919778Y0195743D01*
X0919166Y0195334D01*
X0918757Y0194722D01*
X0918614Y0194000D01*
X0918710Y0193518D01*
X0918260Y0193217D01*
X0918222Y0193243D01*
X0917500Y0193386D01*
X0916778Y0193243D01*
X0916166Y0192834D01*
X0915757Y0192222D01*
X0915614Y0191500D01*
X0915757Y0190778D01*
X0916166Y0190166D01*
X0916778Y0189757D01*
X0917500Y0189614D01*
X0918222Y0189757D01*
X0918834Y0190166D01*
X0919243Y0190778D01*
X0919386Y0191500D01*
X0919290Y0191982D01*
X0919740Y0192283D01*
X0919778Y0192257D01*
X0920500Y0192114D01*
X0921222Y0192257D01*
X0921834Y0192666D01*
X0922243Y0193278D01*
X0922386Y0194000D01*
X0922243Y0194722D01*
X0921834Y0195334D01*
X0921222Y0195743D01*
X0920500Y0195886D01*
D02*
G37*
G36*
X0870500D02*
X0869778Y0195743D01*
X0869166Y0195334D01*
X0868757Y0194722D01*
X0868614Y0194000D01*
X0868757Y0193278D01*
X0869166Y0192666D01*
X0869778Y0192257D01*
X0870500Y0192114D01*
X0871222Y0192257D01*
X0871834Y0192666D01*
X0872243Y0193278D01*
X0872386Y0194000D01*
X0872243Y0194722D01*
X0871834Y0195334D01*
X0871222Y0195743D01*
X0870500Y0195886D01*
D02*
G37*
G36*
X0602000Y0201083D02*
X0601073Y0200961D01*
X0600208Y0200603D01*
X0599466Y0200034D01*
X0598897Y0199292D01*
X0598539Y0198427D01*
X0598417Y0197500D01*
X0598539Y0196573D01*
X0598897Y0195708D01*
X0599466Y0194966D01*
X0600208Y0194397D01*
X0601073Y0194039D01*
X0602000Y0193917D01*
X0602927Y0194039D01*
X0603792Y0194397D01*
X0604534Y0194966D01*
X0605103Y0195708D01*
X0605461Y0196573D01*
X0605583Y0197500D01*
X0605461Y0198427D01*
X0605103Y0199292D01*
X0604534Y0200034D01*
X0603792Y0200603D01*
X0602927Y0200961D01*
X0602000Y0201083D01*
D02*
G37*
G36*
X0592000D02*
X0591073Y0200961D01*
X0590208Y0200603D01*
X0589466Y0200034D01*
X0588897Y0199292D01*
X0588539Y0198427D01*
X0588417Y0197500D01*
X0588539Y0196573D01*
X0588897Y0195708D01*
X0589466Y0194966D01*
X0590208Y0194397D01*
X0591073Y0194039D01*
X0592000Y0193917D01*
X0592928Y0194039D01*
X0593792Y0194397D01*
X0594534Y0194966D01*
X0595103Y0195708D01*
X0595461Y0196573D01*
X0595583Y0197500D01*
X0595461Y0198427D01*
X0595103Y0199292D01*
X0594534Y0200034D01*
X0593792Y0200603D01*
X0592928Y0200961D01*
X0592000Y0201083D01*
D02*
G37*
G36*
X0956500Y0195195D02*
Y0193500D01*
X0958195D01*
X0958119Y0193878D01*
X0957622Y0194622D01*
X0956878Y0195120D01*
X0956500Y0195195D01*
D02*
G37*
G36*
X0993004Y0211432D02*
X0992124Y0211316D01*
X0991304Y0210977D01*
X0990599Y0210436D01*
X0990059Y0209732D01*
X0989719Y0208912D01*
X0989603Y0208032D01*
X0989719Y0207151D01*
X0990059Y0206331D01*
X0990599Y0205627D01*
X0991304Y0205086D01*
X0992124Y0204747D01*
X0993004Y0204631D01*
X0993884Y0204747D01*
X0994704Y0205086D01*
X0995409Y0205627D01*
X0995949Y0206331D01*
X0996289Y0207151D01*
X0996405Y0208032D01*
X0996289Y0208912D01*
X0995949Y0209732D01*
X0995409Y0210436D01*
X0994704Y0210977D01*
X0993884Y0211316D01*
X0993004Y0211432D01*
D02*
G37*
G36*
X0985012D02*
X0984132Y0211316D01*
X0983311Y0210977D01*
X0982607Y0210436D01*
X0982067Y0209732D01*
X0981727Y0208912D01*
X0981611Y0208032D01*
X0981727Y0207151D01*
X0982067Y0206331D01*
X0982607Y0205627D01*
X0983311Y0205086D01*
X0984132Y0204747D01*
X0985012Y0204631D01*
X0985892Y0204747D01*
X0986712Y0205086D01*
X0987416Y0205627D01*
X0987957Y0206331D01*
X0988297Y0207151D01*
X0988413Y0208032D01*
X0988297Y0208912D01*
X0987957Y0209732D01*
X0987416Y0210436D01*
X0986712Y0210977D01*
X0985892Y0211316D01*
X0985012Y0211432D01*
D02*
G37*
G36*
X0657000Y0208136D02*
X0656278Y0207993D01*
X0655666Y0207584D01*
X0655257Y0206972D01*
X0655114Y0206250D01*
X0655257Y0205528D01*
X0655666Y0204916D01*
X0656278Y0204507D01*
X0657000Y0204364D01*
X0657722Y0204507D01*
X0658334Y0204916D01*
X0658743Y0205528D01*
X0658886Y0206250D01*
X0658743Y0206972D01*
X0658334Y0207584D01*
X0657722Y0207993D01*
X0657000Y0208136D01*
D02*
G37*
G36*
X0680500Y0206500D02*
X0678805D01*
X0678881Y0206122D01*
X0679378Y0205378D01*
X0680122Y0204880D01*
X0680500Y0204805D01*
Y0206500D01*
D02*
G37*
G36*
X1024972Y0211432D02*
X1024092Y0211316D01*
X1023272Y0210977D01*
X1022568Y0210436D01*
X1022027Y0209732D01*
X1021688Y0208912D01*
X1021572Y0208032D01*
X1021688Y0207151D01*
X1022027Y0206331D01*
X1022568Y0205627D01*
X1023272Y0205086D01*
X1024092Y0204747D01*
X1024972Y0204631D01*
X1025853Y0204747D01*
X1026673Y0205086D01*
X1027377Y0205627D01*
X1027918Y0206331D01*
X1028257Y0207151D01*
X1028373Y0208032D01*
X1028257Y0208912D01*
X1027918Y0209732D01*
X1027377Y0210436D01*
X1026673Y0210977D01*
X1025853Y0211316D01*
X1024972Y0211432D01*
D02*
G37*
G36*
X1016980D02*
X1016100Y0211316D01*
X1015280Y0210977D01*
X1014576Y0210436D01*
X1014035Y0209732D01*
X1013696Y0208912D01*
X1013580Y0208032D01*
X1013696Y0207151D01*
X1014035Y0206331D01*
X1014576Y0205627D01*
X1015280Y0205086D01*
X1016100Y0204747D01*
X1016980Y0204631D01*
X1017861Y0204747D01*
X1018681Y0205086D01*
X1019385Y0205627D01*
X1019925Y0206331D01*
X1020265Y0207151D01*
X1020381Y0208032D01*
X1020265Y0208912D01*
X1019925Y0209732D01*
X1019385Y0210436D01*
X1018681Y0210977D01*
X1017861Y0211316D01*
X1016980Y0211432D01*
D02*
G37*
G36*
X0602000Y0211083D02*
X0601073Y0210961D01*
X0600208Y0210603D01*
X0599466Y0210034D01*
X0598897Y0209292D01*
X0598539Y0208427D01*
X0598417Y0207500D01*
X0598539Y0206573D01*
X0598897Y0205708D01*
X0599466Y0204966D01*
X0600208Y0204397D01*
X0601073Y0204039D01*
X0602000Y0203917D01*
X0602927Y0204039D01*
X0603792Y0204397D01*
X0604534Y0204966D01*
X0605103Y0205708D01*
X0605461Y0206573D01*
X0605583Y0207500D01*
X0605461Y0208427D01*
X0605103Y0209292D01*
X0604534Y0210034D01*
X0603792Y0210603D01*
X0602927Y0210961D01*
X0602000Y0211083D01*
D02*
G37*
G36*
X0931500Y0203886D02*
X0930778Y0203743D01*
X0930166Y0203334D01*
X0929757Y0202722D01*
X0929614Y0202000D01*
X0929757Y0201278D01*
X0930166Y0200666D01*
X0930778Y0200257D01*
X0931500Y0200114D01*
X0932222Y0200257D01*
X0932834Y0200666D01*
X0933243Y0201278D01*
X0933386Y0202000D01*
X0933243Y0202722D01*
X0932834Y0203334D01*
X0932222Y0203743D01*
X0931500Y0203886D01*
D02*
G37*
G36*
X0957195Y0201500D02*
X0955500D01*
Y0199805D01*
X0955878Y0199881D01*
X0956622Y0200378D01*
X0957119Y0201122D01*
X0957195Y0201500D01*
D02*
G37*
G36*
X0954500D02*
X0952805D01*
X0952881Y0201122D01*
X0953378Y0200378D01*
X0954122Y0199881D01*
X0954500Y0199805D01*
Y0201500D01*
D02*
G37*
G36*
X0592000Y0211083D02*
X0591073Y0210961D01*
X0590208Y0210603D01*
X0589466Y0210034D01*
X0588897Y0209292D01*
X0588539Y0208427D01*
X0588417Y0207500D01*
X0588539Y0206573D01*
X0588897Y0205708D01*
X0589466Y0204966D01*
X0590208Y0204397D01*
X0591073Y0204039D01*
X0592000Y0203917D01*
X0592928Y0204039D01*
X0593792Y0204397D01*
X0594534Y0204966D01*
X0595103Y0205708D01*
X0595461Y0206573D01*
X0595583Y0207500D01*
X0595461Y0208427D01*
X0595103Y0209292D01*
X0594534Y0210034D01*
X0593792Y0210603D01*
X0592928Y0210961D01*
X0592000Y0211083D01*
D02*
G37*
G36*
X0955500Y0204195D02*
Y0202500D01*
X0957195D01*
X0957119Y0202878D01*
X0956622Y0203622D01*
X0955878Y0204119D01*
X0955500Y0204195D01*
D02*
G37*
G36*
X0954500D02*
X0954122Y0204119D01*
X0953378Y0203622D01*
X0952881Y0202878D01*
X0952805Y0202500D01*
X0954500D01*
Y0204195D01*
D02*
G37*
G36*
X0848500Y0195886D02*
X0847778Y0195743D01*
X0847166Y0195334D01*
X0846757Y0194722D01*
X0846614Y0194000D01*
X0846757Y0193278D01*
X0847166Y0192666D01*
X0847778Y0192257D01*
X0848500Y0192114D01*
X0849222Y0192257D01*
X0849834Y0192666D01*
X0850243Y0193278D01*
X0850386Y0194000D01*
X0850243Y0194722D01*
X0849834Y0195334D01*
X0849222Y0195743D01*
X0848500Y0195886D01*
D02*
G37*
G36*
X0880492Y0185308D02*
X0879797Y0185170D01*
X0879208Y0184776D01*
X0878814Y0184187D01*
X0878676Y0183492D01*
X0878814Y0182797D01*
X0879208Y0182208D01*
X0879797Y0181814D01*
X0880492Y0181676D01*
X0881187Y0181814D01*
X0881776Y0182208D01*
X0882170Y0182797D01*
X0882308Y0183492D01*
X0882170Y0184187D01*
X0881776Y0184776D01*
X0881187Y0185170D01*
X0880492Y0185308D01*
D02*
G37*
G36*
X0876161D02*
X0875467Y0185170D01*
X0874877Y0184776D01*
X0874484Y0184187D01*
X0874345Y0183492D01*
X0874484Y0182797D01*
X0874877Y0182208D01*
X0875467Y0181814D01*
X0876161Y0181676D01*
X0876856Y0181814D01*
X0877446Y0182208D01*
X0877839Y0182797D01*
X0877977Y0183492D01*
X0877839Y0184187D01*
X0877446Y0184776D01*
X0876856Y0185170D01*
X0876161Y0185308D01*
D02*
G37*
G36*
X0871831D02*
X0871136Y0185170D01*
X0870547Y0184776D01*
X0870153Y0184187D01*
X0870015Y0183492D01*
X0870153Y0182797D01*
X0870547Y0182208D01*
X0871136Y0181814D01*
X0871831Y0181676D01*
X0872526Y0181814D01*
X0873115Y0182208D01*
X0873508Y0182797D01*
X0873647Y0183492D01*
X0873508Y0184187D01*
X0873115Y0184776D01*
X0872526Y0185170D01*
X0871831Y0185308D01*
D02*
G37*
G36*
X0814000Y0185000D02*
X0812305D01*
X0812381Y0184622D01*
X0812878Y0183878D01*
X0813622Y0183380D01*
X0814000Y0183305D01*
Y0185000D01*
D02*
G37*
G36*
X0928000Y0185886D02*
X0927278Y0185743D01*
X0926666Y0185334D01*
X0926257Y0184722D01*
X0926114Y0184000D01*
X0926257Y0183278D01*
X0926666Y0182666D01*
X0927278Y0182257D01*
X0928000Y0182114D01*
X0928722Y0182257D01*
X0929334Y0182666D01*
X0929743Y0183278D01*
X0929886Y0184000D01*
X0929743Y0184722D01*
X0929334Y0185334D01*
X0928722Y0185743D01*
X0928000Y0185886D01*
D02*
G37*
G36*
X0835500D02*
X0834778Y0185743D01*
X0834166Y0185334D01*
X0833757Y0184722D01*
X0833614Y0184000D01*
X0833757Y0183278D01*
X0834166Y0182666D01*
X0834778Y0182257D01*
X0835500Y0182114D01*
X0836222Y0182257D01*
X0836834Y0182666D01*
X0837243Y0183278D01*
X0837386Y0184000D01*
X0837243Y0184722D01*
X0836834Y0185334D01*
X0836222Y0185743D01*
X0835500Y0185886D01*
D02*
G37*
G36*
X0867500Y0185308D02*
X0866805Y0185170D01*
X0866216Y0184776D01*
X0865822Y0184187D01*
X0865684Y0183492D01*
X0865822Y0182797D01*
X0866216Y0182208D01*
X0866805Y0181814D01*
X0867500Y0181676D01*
X0868195Y0181814D01*
X0868784Y0182208D01*
X0869178Y0182797D01*
X0869316Y0183492D01*
X0869178Y0184187D01*
X0868784Y0184776D01*
X0868195Y0185170D01*
X0867500Y0185308D01*
D02*
G37*
G36*
X0783000Y0184386D02*
X0782278Y0184243D01*
X0781666Y0183834D01*
X0781257Y0183222D01*
X0781114Y0182500D01*
X0781257Y0181778D01*
X0781666Y0181166D01*
X0782278Y0180757D01*
X0783000Y0180614D01*
X0783722Y0180757D01*
X0784334Y0181166D01*
X0784743Y0181778D01*
X0784886Y0182500D01*
X0784743Y0183222D01*
X0784334Y0183834D01*
X0783722Y0184243D01*
X0783000Y0184386D01*
D02*
G37*
G36*
X0910000Y0181195D02*
Y0179500D01*
X0911695D01*
X0911619Y0179878D01*
X0911122Y0180622D01*
X0910378Y0181120D01*
X0910000Y0181195D01*
D02*
G37*
G36*
X0909000D02*
X0908622Y0181120D01*
X0907878Y0180622D01*
X0907381Y0179878D01*
X0907305Y0179500D01*
X0909000D01*
Y0181195D01*
D02*
G37*
G36*
X0863169Y0185308D02*
X0862474Y0185170D01*
X0861885Y0184776D01*
X0861491Y0184187D01*
X0861353Y0183492D01*
X0861491Y0182797D01*
X0861885Y0182208D01*
X0862474Y0181814D01*
X0863169Y0181676D01*
X0863864Y0181814D01*
X0864453Y0182208D01*
X0864847Y0182797D01*
X0864985Y0183492D01*
X0864847Y0184187D01*
X0864453Y0184776D01*
X0863864Y0185170D01*
X0863169Y0185308D01*
D02*
G37*
G36*
X0858839D02*
X0858144Y0185170D01*
X0857555Y0184776D01*
X0857161Y0184187D01*
X0857023Y0183492D01*
X0857161Y0182797D01*
X0857555Y0182208D01*
X0858144Y0181814D01*
X0858839Y0181676D01*
X0859534Y0181814D01*
X0860123Y0182208D01*
X0860516Y0182797D01*
X0860655Y0183492D01*
X0860516Y0184187D01*
X0860123Y0184776D01*
X0859534Y0185170D01*
X0858839Y0185308D01*
D02*
G37*
G36*
X0854508D02*
X0853813Y0185170D01*
X0853224Y0184776D01*
X0852830Y0184187D01*
X0852692Y0183492D01*
X0852830Y0182797D01*
X0853224Y0182208D01*
X0853813Y0181814D01*
X0854508Y0181676D01*
X0855203Y0181814D01*
X0855792Y0182208D01*
X0856186Y0182797D01*
X0856324Y0183492D01*
X0856186Y0184187D01*
X0855792Y0184776D01*
X0855203Y0185170D01*
X0854508Y0185308D01*
D02*
G37*
G36*
X0810000Y0192386D02*
X0809278Y0192243D01*
X0808666Y0191834D01*
X0808257Y0191222D01*
X0808114Y0190500D01*
X0808257Y0189778D01*
X0808666Y0189166D01*
X0809278Y0188757D01*
X0810000Y0188614D01*
X0810722Y0188757D01*
X0811334Y0189166D01*
X0811743Y0189778D01*
X0811886Y0190500D01*
X0811743Y0191222D01*
X0811334Y0191834D01*
X0810722Y0192243D01*
X0810000Y0192386D01*
D02*
G37*
G36*
X0899000Y0189886D02*
X0898278Y0189743D01*
X0897666Y0189334D01*
X0897257Y0188722D01*
X0897114Y0188000D01*
X0897257Y0187278D01*
X0897666Y0186666D01*
X0898278Y0186257D01*
X0899000Y0186114D01*
X0899722Y0186257D01*
X0900334Y0186666D01*
X0900743Y0187278D01*
X0900886Y0188000D01*
X0900743Y0188722D01*
X0900334Y0189334D01*
X0899722Y0189743D01*
X0899000Y0189886D01*
D02*
G37*
G36*
X0828500D02*
X0827778Y0189743D01*
X0827166Y0189334D01*
X0826757Y0188722D01*
X0826614Y0188000D01*
X0826757Y0187278D01*
X0827166Y0186666D01*
X0827778Y0186257D01*
X0828500Y0186114D01*
X0829222Y0186257D01*
X0829834Y0186666D01*
X0830243Y0187278D01*
X0830386Y0188000D01*
X0830243Y0188722D01*
X0829834Y0189334D01*
X0829222Y0189743D01*
X0828500Y0189886D01*
D02*
G37*
G36*
X0958195Y0192500D02*
X0956500D01*
Y0190805D01*
X0956878Y0190881D01*
X0957622Y0191378D01*
X0958119Y0192122D01*
X0958195Y0192500D01*
D02*
G37*
G36*
X0955500D02*
X0953805D01*
X0953881Y0192122D01*
X0954378Y0191378D01*
X0955122Y0190881D01*
X0955500Y0190805D01*
Y0192500D01*
D02*
G37*
G36*
X0858000Y0195695D02*
Y0193500D01*
Y0191305D01*
X0858339Y0191373D01*
X0858634Y0191375D01*
X0858868Y0191278D01*
X0859276Y0190666D01*
X0859888Y0190257D01*
X0860610Y0190114D01*
X0861332Y0190257D01*
X0861944Y0190666D01*
X0862353Y0191278D01*
X0862384Y0191436D01*
X0862915Y0191542D01*
X0863166Y0191166D01*
X0863778Y0190757D01*
X0864500Y0190614D01*
X0865222Y0190757D01*
X0865834Y0191166D01*
X0866243Y0191778D01*
X0866386Y0192500D01*
X0866243Y0193222D01*
X0865834Y0193834D01*
X0865222Y0194243D01*
X0864500Y0194386D01*
X0863778Y0194243D01*
X0863166Y0193834D01*
X0862757Y0193222D01*
X0862726Y0193064D01*
X0862195Y0192958D01*
X0861944Y0193334D01*
X0861332Y0193743D01*
X0860610Y0193886D01*
X0859888Y0193743D01*
X0859733Y0193807D01*
X0859619Y0194378D01*
X0859122Y0195122D01*
X0858378Y0195619D01*
X0858000Y0195695D01*
D02*
G37*
G36*
X0815000Y0187695D02*
Y0186000D01*
X0816695D01*
X0816619Y0186378D01*
X0816122Y0187122D01*
X0815378Y0187619D01*
X0815000Y0187695D01*
D02*
G37*
G36*
X0602000Y0191083D02*
X0601073Y0190961D01*
X0600208Y0190603D01*
X0599466Y0190034D01*
X0598897Y0189292D01*
X0598539Y0188427D01*
X0598417Y0187500D01*
X0598539Y0186573D01*
X0598897Y0185708D01*
X0599466Y0184966D01*
X0600208Y0184397D01*
X0601073Y0184039D01*
X0602000Y0183917D01*
X0602927Y0184039D01*
X0603792Y0184397D01*
X0604534Y0184966D01*
X0605103Y0185708D01*
X0605461Y0186573D01*
X0605583Y0187500D01*
X0605461Y0188427D01*
X0605103Y0189292D01*
X0604534Y0190034D01*
X0603792Y0190603D01*
X0602927Y0190961D01*
X0602000Y0191083D01*
D02*
G37*
G36*
X0592000D02*
X0591073Y0190961D01*
X0590208Y0190603D01*
X0589466Y0190034D01*
X0588897Y0189292D01*
X0588539Y0188427D01*
X0588417Y0187500D01*
X0588539Y0186573D01*
X0588897Y0185708D01*
X0589466Y0184966D01*
X0590208Y0184397D01*
X0591073Y0184039D01*
X0592000Y0183917D01*
X0592928Y0184039D01*
X0593792Y0184397D01*
X0594534Y0184966D01*
X0595103Y0185708D01*
X0595461Y0186573D01*
X0595583Y0187500D01*
X0595461Y0188427D01*
X0595103Y0189292D01*
X0594534Y0190034D01*
X0593792Y0190603D01*
X0592928Y0190961D01*
X0592000Y0191083D01*
D02*
G37*
G36*
X0816695Y0185000D02*
X0815000D01*
Y0183305D01*
X0815378Y0183380D01*
X0816122Y0183878D01*
X0816619Y0184622D01*
X0816695Y0185000D01*
D02*
G37*
G36*
X0814000Y0187695D02*
X0813622Y0187619D01*
X0812878Y0187122D01*
X0812381Y0186378D01*
X0812305Y0186000D01*
X0814000D01*
Y0187695D01*
D02*
G37*
G36*
X0845000Y0192886D02*
X0844278Y0192743D01*
X0843666Y0192334D01*
X0843257Y0191722D01*
X0843114Y0191000D01*
X0843257Y0190278D01*
X0843534Y0189864D01*
X0843531Y0189819D01*
X0843310Y0189348D01*
X0842778Y0189243D01*
X0842166Y0188834D01*
X0841757Y0188222D01*
X0841614Y0187500D01*
X0841757Y0186778D01*
X0842166Y0186166D01*
X0842778Y0185757D01*
X0843500Y0185614D01*
X0844222Y0185757D01*
X0844834Y0186166D01*
X0845243Y0186778D01*
X0845386Y0187500D01*
X0845243Y0188222D01*
X0844966Y0188636D01*
X0844969Y0188681D01*
X0845190Y0189152D01*
X0845722Y0189257D01*
X0846334Y0189666D01*
X0846743Y0190278D01*
X0846886Y0191000D01*
X0846743Y0191722D01*
X0846334Y0192334D01*
X0845722Y0192743D01*
X0845000Y0192886D01*
D02*
G37*
G36*
X0894000Y0188386D02*
X0893278Y0188243D01*
X0892666Y0187834D01*
X0892257Y0187222D01*
X0892114Y0186500D01*
X0892257Y0185778D01*
X0892666Y0185166D01*
X0893278Y0184757D01*
X0894000Y0184614D01*
X0894722Y0184757D01*
X0895334Y0185166D01*
X0895743Y0185778D01*
X0895886Y0186500D01*
X0895743Y0187222D01*
X0895334Y0187834D01*
X0894722Y0188243D01*
X0894000Y0188386D01*
D02*
G37*
G36*
X0592000Y0143583D02*
X0591073Y0143461D01*
X0590208Y0143103D01*
X0589466Y0142534D01*
X0588897Y0141792D01*
X0588539Y0140927D01*
X0588417Y0140000D01*
X0588539Y0139073D01*
X0588897Y0138208D01*
X0589466Y0137466D01*
X0590208Y0136897D01*
X0591073Y0136539D01*
X0592000Y0136417D01*
X0592928Y0136539D01*
X0593792Y0136897D01*
X0594534Y0137466D01*
X0595103Y0138208D01*
X0595461Y0139073D01*
X0595583Y0140000D01*
X0595461Y0140927D01*
X0595103Y0141792D01*
X0594534Y0142534D01*
X0593792Y0143103D01*
X0592928Y0143461D01*
X0592000Y0143583D01*
D02*
G37*
G36*
X0801250Y0138886D02*
X0800528Y0138743D01*
X0799916Y0138334D01*
X0799507Y0137722D01*
X0799364Y0137000D01*
X0799507Y0136278D01*
X0799916Y0135666D01*
X0800528Y0135257D01*
X0801250Y0135114D01*
X0801972Y0135257D01*
X0802584Y0135666D01*
X0802993Y0136278D01*
X0803136Y0137000D01*
X0802993Y0137722D01*
X0802584Y0138334D01*
X0801972Y0138743D01*
X0801250Y0138886D01*
D02*
G37*
G36*
X0763500Y0138386D02*
X0762778Y0138243D01*
X0762166Y0137834D01*
X0761757Y0137222D01*
X0761614Y0136500D01*
X0761757Y0135778D01*
X0762166Y0135166D01*
X0762778Y0134757D01*
X0763500Y0134614D01*
X0764222Y0134757D01*
X0764834Y0135166D01*
X0765243Y0135778D01*
X0765386Y0136500D01*
X0765243Y0137222D01*
X0764834Y0137834D01*
X0764222Y0138243D01*
X0763500Y0138386D01*
D02*
G37*
G36*
X0878000Y0140886D02*
X0877278Y0140743D01*
X0876666Y0140334D01*
X0876257Y0139722D01*
X0876114Y0139000D01*
X0876257Y0138278D01*
X0876666Y0137666D01*
X0877278Y0137257D01*
X0878000Y0137114D01*
X0878722Y0137257D01*
X0879334Y0137666D01*
X0879743Y0138278D01*
X0879886Y0139000D01*
X0879743Y0139722D01*
X0879334Y0140334D01*
X0878722Y0140743D01*
X0878000Y0140886D01*
D02*
G37*
G36*
X0845000Y0144386D02*
X0844278Y0144243D01*
X0843666Y0143834D01*
X0843257Y0143222D01*
X0843114Y0142500D01*
X0843257Y0141778D01*
X0843666Y0141166D01*
X0844151Y0140842D01*
X0844215Y0140413D01*
X0844188Y0140266D01*
X0843916Y0140084D01*
X0843507Y0139472D01*
X0843364Y0138750D01*
X0843507Y0138028D01*
X0843916Y0137416D01*
X0844528Y0137007D01*
X0845250Y0136864D01*
X0845972Y0137007D01*
X0846584Y0137416D01*
X0846993Y0138028D01*
X0847136Y0138750D01*
X0846993Y0139472D01*
X0846584Y0140084D01*
X0846099Y0140408D01*
X0846035Y0140837D01*
X0846062Y0140984D01*
X0846334Y0141166D01*
X0846743Y0141778D01*
X0846886Y0142500D01*
X0846743Y0143222D01*
X0846334Y0143834D01*
X0845722Y0144243D01*
X0845000Y0144386D01*
D02*
G37*
G36*
X0605553Y0143553D02*
X0598447D01*
Y0136447D01*
X0605553D01*
Y0143553D01*
D02*
G37*
G36*
X0727750Y0135695D02*
Y0134000D01*
X0729445D01*
X0729369Y0134378D01*
X0728872Y0135122D01*
X0728128Y0135619D01*
X0727750Y0135695D01*
D02*
G37*
G36*
X0845000Y0135386D02*
X0844278Y0135243D01*
X0843666Y0134834D01*
X0843257Y0134222D01*
X0843114Y0133500D01*
X0843257Y0132778D01*
X0843666Y0132166D01*
X0844278Y0131757D01*
X0845000Y0131614D01*
X0845722Y0131757D01*
X0846334Y0132166D01*
X0846743Y0132778D01*
X0846886Y0133500D01*
X0846743Y0134222D01*
X0846334Y0134834D01*
X0845722Y0135243D01*
X0845000Y0135386D01*
D02*
G37*
G36*
X0729445Y0133000D02*
X0727750D01*
Y0131305D01*
X0728128Y0131380D01*
X0728872Y0131878D01*
X0729369Y0132622D01*
X0729445Y0133000D01*
D02*
G37*
G36*
X0726750D02*
X0725055D01*
X0725131Y0132622D01*
X0725628Y0131878D01*
X0726372Y0131380D01*
X0726750Y0131305D01*
Y0133000D01*
D02*
G37*
G36*
Y0135695D02*
X0726372Y0135619D01*
X0725628Y0135122D01*
X0725131Y0134378D01*
X0725055Y0134000D01*
X0726750D01*
Y0135695D01*
D02*
G37*
G36*
X0612250Y0134695D02*
Y0133000D01*
X0613945D01*
X0613869Y0133378D01*
X0613372Y0134122D01*
X0612628Y0134619D01*
X0612250Y0134695D01*
D02*
G37*
G36*
X0611250D02*
X0610872Y0134619D01*
X0610128Y0134122D01*
X0609631Y0133378D01*
X0609555Y0133000D01*
X0611250D01*
Y0134695D01*
D02*
G37*
G36*
X0886500Y0149386D02*
X0885778Y0149243D01*
X0885166Y0148834D01*
X0884757Y0148222D01*
X0884614Y0147500D01*
X0884757Y0146778D01*
X0885166Y0146166D01*
X0885778Y0145757D01*
X0886500Y0145614D01*
X0887222Y0145757D01*
X0887834Y0146166D01*
X0888243Y0146778D01*
X0888386Y0147500D01*
X0888243Y0148222D01*
X0887834Y0148834D01*
X0887222Y0149243D01*
X0886500Y0149386D01*
D02*
G37*
G36*
X0809000Y0148886D02*
X0808278Y0148743D01*
X0807666Y0148334D01*
X0807257Y0147722D01*
X0807114Y0147000D01*
X0807257Y0146278D01*
X0807666Y0145666D01*
X0808278Y0145257D01*
X0809000Y0145114D01*
X0809722Y0145257D01*
X0810334Y0145666D01*
X0810743Y0146278D01*
X0810886Y0147000D01*
X0810743Y0147722D01*
X0810334Y0148334D01*
X0809722Y0148743D01*
X0809000Y0148886D01*
D02*
G37*
G36*
X0891000Y0145886D02*
X0890278Y0145743D01*
X0889666Y0145334D01*
X0889257Y0144722D01*
X0889114Y0144000D01*
X0889257Y0143278D01*
X0889666Y0142666D01*
X0890278Y0142257D01*
X0891000Y0142114D01*
X0891722Y0142257D01*
X0892334Y0142666D01*
X0892743Y0143278D01*
X0892886Y0144000D01*
X0892743Y0144722D01*
X0892334Y0145334D01*
X0891722Y0145743D01*
X0891000Y0145886D01*
D02*
G37*
G36*
X0700250Y0148250D02*
X0698555D01*
X0698631Y0147872D01*
X0699128Y0147128D01*
X0699872Y0146631D01*
X0700250Y0146555D01*
Y0148250D01*
D02*
G37*
G36*
X0875195Y0148000D02*
X0873500D01*
Y0146305D01*
X0873878Y0146380D01*
X0874622Y0146878D01*
X0875119Y0147622D01*
X0875195Y0148000D01*
D02*
G37*
G36*
X0872500D02*
X0870805D01*
X0870881Y0147622D01*
X0871378Y0146878D01*
X0872122Y0146380D01*
X0872500Y0146305D01*
Y0148000D01*
D02*
G37*
G36*
X1029992Y0154173D02*
X1028794Y0154055D01*
X1027642Y0153705D01*
X1026580Y0153138D01*
X1025650Y0152374D01*
X1024886Y0151444D01*
X1024318Y0150382D01*
X1023969Y0149230D01*
X1023851Y0148031D01*
X1023969Y0146833D01*
X1024318Y0145681D01*
X1024886Y0144620D01*
X1025650Y0143689D01*
X1026580Y0142925D01*
X1027642Y0142358D01*
X1028794Y0142008D01*
X1029992Y0141890D01*
X1031190Y0142008D01*
X1032342Y0142358D01*
X1033404Y0142925D01*
X1034335Y0143689D01*
X1035098Y0144620D01*
X1035666Y0145681D01*
X1036016Y0146833D01*
X1036133Y0148031D01*
X1036016Y0149230D01*
X1035666Y0150382D01*
X1035098Y0151444D01*
X1034335Y0152374D01*
X1033404Y0153138D01*
X1032342Y0153705D01*
X1031190Y0154055D01*
X1029992Y0154173D01*
D02*
G37*
G36*
X0904197Y0150979D02*
X0902735Y0150787D01*
X0901373Y0150222D01*
X0900203Y0149325D01*
X0899305Y0148155D01*
X0898741Y0146793D01*
X0898549Y0145331D01*
X0898741Y0143869D01*
X0899305Y0142507D01*
X0900203Y0141337D01*
X0901373Y0140439D01*
X0902735Y0139875D01*
X0904197Y0139682D01*
X0905659Y0139875D01*
X0907021Y0140439D01*
X0908191Y0141337D01*
X0909088Y0142507D01*
X0909653Y0143869D01*
X0909845Y0145331D01*
X0909653Y0146793D01*
X0909088Y0148155D01*
X0908191Y0149325D01*
X0907021Y0150222D01*
X0905659Y0150787D01*
X0904197Y0150979D01*
D02*
G37*
G36*
X0820500Y0144886D02*
X0819778Y0144743D01*
X0819166Y0144334D01*
X0818757Y0143722D01*
X0818614Y0143000D01*
X0818757Y0142278D01*
X0819166Y0141666D01*
X0819778Y0141257D01*
X0820500Y0141114D01*
X0820982Y0141210D01*
X0821283Y0140760D01*
X0821257Y0140722D01*
X0821114Y0140000D01*
X0821257Y0139278D01*
X0821666Y0138666D01*
X0822278Y0138257D01*
X0823000Y0138114D01*
X0823722Y0138257D01*
X0824334Y0138666D01*
X0824743Y0139278D01*
X0824886Y0140000D01*
X0824743Y0140722D01*
X0824334Y0141334D01*
X0823722Y0141743D01*
X0823000Y0141886D01*
X0822518Y0141790D01*
X0822217Y0142240D01*
X0822243Y0142278D01*
X0822386Y0143000D01*
X0822243Y0143722D01*
X0821834Y0144334D01*
X0821222Y0144743D01*
X0820500Y0144886D01*
D02*
G37*
G36*
X0873000Y0141386D02*
X0872278Y0141243D01*
X0871666Y0140834D01*
X0871257Y0140222D01*
X0871114Y0139500D01*
X0871257Y0138778D01*
X0871666Y0138166D01*
X0872278Y0137757D01*
X0873000Y0137614D01*
X0873722Y0137757D01*
X0874334Y0138166D01*
X0874743Y0138778D01*
X0874886Y0139500D01*
X0874743Y0140222D01*
X0874334Y0140834D01*
X0873722Y0141243D01*
X0873000Y0141386D01*
D02*
G37*
G36*
X0979992Y0154173D02*
X0978794Y0154055D01*
X0977642Y0153705D01*
X0976580Y0153138D01*
X0975650Y0152374D01*
X0974886Y0151444D01*
X0974318Y0150382D01*
X0973969Y0149230D01*
X0973851Y0148031D01*
X0973969Y0146833D01*
X0974318Y0145681D01*
X0974886Y0144620D01*
X0975650Y0143689D01*
X0976580Y0142925D01*
X0977642Y0142358D01*
X0978794Y0142008D01*
X0979992Y0141890D01*
X0981190Y0142008D01*
X0982342Y0142358D01*
X0983404Y0142925D01*
X0984335Y0143689D01*
X0985098Y0144620D01*
X0985666Y0145681D01*
X0986016Y0146833D01*
X0986133Y0148031D01*
X0986016Y0149230D01*
X0985666Y0150382D01*
X0985098Y0151444D01*
X0984335Y0152374D01*
X0983404Y0153138D01*
X0982342Y0153705D01*
X0981190Y0154055D01*
X0979992Y0154173D01*
D02*
G37*
G36*
X0716750Y0143636D02*
X0716028Y0143493D01*
X0715416Y0143084D01*
X0715007Y0142472D01*
X0714864Y0141750D01*
X0715007Y0141028D01*
X0715416Y0140416D01*
X0716028Y0140007D01*
X0716750Y0139864D01*
X0717472Y0140007D01*
X0718084Y0140416D01*
X0718493Y0141028D01*
X0718636Y0141750D01*
X0718493Y0142472D01*
X0718084Y0143084D01*
X0717472Y0143493D01*
X0716750Y0143636D01*
D02*
G37*
G36*
X0955929Y0150979D02*
X0954467Y0150787D01*
X0953105Y0150222D01*
X0951935Y0149325D01*
X0951038Y0148155D01*
X0950473Y0146793D01*
X0950281Y0145331D01*
X0950473Y0143869D01*
X0951038Y0142507D01*
X0951935Y0141337D01*
X0953105Y0140439D01*
X0954467Y0139875D01*
X0955929Y0139682D01*
X0957391Y0139875D01*
X0958753Y0140439D01*
X0959923Y0141337D01*
X0960821Y0142507D01*
X0961385Y0143869D01*
X0961577Y0145331D01*
X0961385Y0146793D01*
X0960821Y0148155D01*
X0959923Y0149325D01*
X0958753Y0150222D01*
X0957391Y0150787D01*
X0955929Y0150979D01*
D02*
G37*
G36*
X0749250Y0120636D02*
X0748528Y0120493D01*
X0747916Y0120084D01*
X0747507Y0119472D01*
X0747364Y0118750D01*
X0747507Y0118028D01*
X0747916Y0117416D01*
X0748528Y0117007D01*
X0749250Y0116864D01*
X0749972Y0117007D01*
X0750584Y0117416D01*
X0750993Y0118028D01*
X0751136Y0118750D01*
X0750993Y0119472D01*
X0750584Y0120084D01*
X0749972Y0120493D01*
X0749250Y0120636D01*
D02*
G37*
G36*
X0680500Y0123401D02*
X0679620Y0123285D01*
X0678800Y0122945D01*
X0678095Y0122405D01*
X0677555Y0121700D01*
X0677215Y0120880D01*
X0677099Y0120000D01*
X0677215Y0119120D01*
X0677555Y0118300D01*
X0678095Y0117595D01*
X0678800Y0117055D01*
X0679620Y0116715D01*
X0680500Y0116599D01*
X0681380Y0116715D01*
X0682200Y0117055D01*
X0682905Y0117595D01*
X0683445Y0118300D01*
X0683785Y0119120D01*
X0683901Y0120000D01*
X0683785Y0120880D01*
X0683445Y0121700D01*
X0682905Y0122405D01*
X0682200Y0122945D01*
X0681380Y0123285D01*
X0680500Y0123401D01*
D02*
G37*
G36*
X0660500D02*
X0659620Y0123285D01*
X0658800Y0122945D01*
X0658095Y0122405D01*
X0657555Y0121700D01*
X0657215Y0120880D01*
X0657099Y0120000D01*
X0657215Y0119120D01*
X0657555Y0118300D01*
X0658095Y0117595D01*
X0658800Y0117055D01*
X0659620Y0116715D01*
X0660500Y0116599D01*
X0661380Y0116715D01*
X0662200Y0117055D01*
X0662905Y0117595D01*
X0663445Y0118300D01*
X0663785Y0119120D01*
X0663901Y0120000D01*
X0663785Y0120880D01*
X0663445Y0121700D01*
X0662905Y0122405D01*
X0662200Y0122945D01*
X0661380Y0123285D01*
X0660500Y0123401D01*
D02*
G37*
G36*
X0881000Y0123500D02*
X0879305D01*
X0879381Y0123122D01*
X0879878Y0122378D01*
X0880622Y0121880D01*
X0881000Y0121805D01*
Y0123500D01*
D02*
G37*
G36*
X0806047Y0131066D02*
X0805160Y0130889D01*
X0804408Y0130387D01*
X0803906Y0129635D01*
X0803730Y0128748D01*
Y0122252D01*
X0803906Y0121365D01*
X0804408Y0120613D01*
X0805160Y0120111D01*
X0806047Y0119934D01*
X0806934Y0120111D01*
X0807686Y0120613D01*
X0808189Y0121365D01*
X0808365Y0122252D01*
Y0128748D01*
X0808189Y0129635D01*
X0807686Y0130387D01*
X0806934Y0130889D01*
X0806047Y0131066D01*
D02*
G37*
G36*
X0786953D02*
X0786066Y0130889D01*
X0785314Y0130387D01*
X0784811Y0129635D01*
X0784635Y0128748D01*
Y0122252D01*
X0784811Y0121365D01*
X0785314Y0120613D01*
X0786066Y0120111D01*
X0786953Y0119934D01*
X0787840Y0120111D01*
X0788592Y0120613D01*
X0789094Y0121365D01*
X0789270Y0122252D01*
Y0128748D01*
X0789094Y0129635D01*
X0788592Y0130387D01*
X0787840Y0130889D01*
X0786953Y0131066D01*
D02*
G37*
G36*
X0630500Y0123401D02*
X0629620Y0123285D01*
X0628800Y0122945D01*
X0628095Y0122405D01*
X0627555Y0121700D01*
X0627215Y0120880D01*
X0627099Y0120000D01*
X0627215Y0119120D01*
X0627555Y0118300D01*
X0628095Y0117595D01*
X0628800Y0117055D01*
X0629620Y0116715D01*
X0630500Y0116599D01*
X0631380Y0116715D01*
X0632200Y0117055D01*
X0632905Y0117595D01*
X0633445Y0118300D01*
X0633785Y0119120D01*
X0633901Y0120000D01*
X0633785Y0120880D01*
X0633445Y0121700D01*
X0632905Y0122405D01*
X0632200Y0122945D01*
X0631380Y0123285D01*
X0630500Y0123401D01*
D02*
G37*
G36*
X0642980Y0125648D02*
X0641518Y0125456D01*
X0640156Y0124892D01*
X0638986Y0123994D01*
X0638089Y0122824D01*
X0637524Y0121462D01*
X0637332Y0120000D01*
X0637524Y0118538D01*
X0638089Y0117176D01*
X0638986Y0116006D01*
X0640156Y0115108D01*
X0641518Y0114544D01*
X0642980Y0114352D01*
X0644442Y0114544D01*
X0645805Y0115108D01*
X0646974Y0116006D01*
X0647872Y0117176D01*
X0648436Y0118538D01*
X0648629Y0120000D01*
X0648436Y0121462D01*
X0647872Y0122824D01*
X0646974Y0123994D01*
X0645805Y0124892D01*
X0644442Y0125456D01*
X0642980Y0125648D01*
D02*
G37*
G36*
X0609000Y0114136D02*
X0608278Y0113993D01*
X0607666Y0113584D01*
X0607257Y0112972D01*
X0607114Y0112250D01*
X0607257Y0111528D01*
X0607666Y0110916D01*
X0608278Y0110507D01*
X0609000Y0110364D01*
X0609722Y0110507D01*
X0610334Y0110916D01*
X0610743Y0111528D01*
X0610886Y0112250D01*
X0610743Y0112972D01*
X0610334Y0113584D01*
X0609722Y0113993D01*
X0609000Y0114136D01*
D02*
G37*
G36*
X0760000Y0112386D02*
X0759278Y0112243D01*
X0758666Y0111834D01*
X0758257Y0111222D01*
X0758114Y0110500D01*
X0758257Y0109778D01*
X0758666Y0109166D01*
X0759278Y0108757D01*
X0760000Y0108614D01*
X0760722Y0108757D01*
X0761334Y0109166D01*
X0761743Y0109778D01*
X0761886Y0110500D01*
X0761743Y0111222D01*
X0761334Y0111834D01*
X0760722Y0112243D01*
X0760000Y0112386D01*
D02*
G37*
G36*
X0929000Y0119886D02*
X0928278Y0119743D01*
X0927666Y0119334D01*
X0927257Y0118722D01*
X0927114Y0118000D01*
X0927257Y0117278D01*
X0927666Y0116666D01*
X0928278Y0116257D01*
X0929000Y0116114D01*
X0929722Y0116257D01*
X0930334Y0116666D01*
X0930743Y0117278D01*
X0930886Y0118000D01*
X0930743Y0118722D01*
X0930334Y0119334D01*
X0929722Y0119743D01*
X0929000Y0119886D01*
D02*
G37*
G36*
X0600248Y0128228D02*
X0598896Y0128095D01*
X0597595Y0127700D01*
X0596396Y0127059D01*
X0595346Y0126197D01*
X0594484Y0125147D01*
X0593843Y0123948D01*
X0593449Y0122648D01*
X0593315Y0121295D01*
X0593449Y0119943D01*
X0593843Y0118642D01*
X0594484Y0117444D01*
X0595346Y0116393D01*
X0596396Y0115531D01*
X0597595Y0114890D01*
X0598896Y0114496D01*
X0600248Y0114363D01*
X0601601Y0114496D01*
X0602901Y0114890D01*
X0604100Y0115531D01*
X0605150Y0116393D01*
X0606012Y0117444D01*
X0606653Y0118642D01*
X0607047Y0119943D01*
X0607181Y0121295D01*
X0607047Y0122648D01*
X0606653Y0123948D01*
X0606012Y0125147D01*
X0605150Y0126197D01*
X0604100Y0127059D01*
X0602901Y0127700D01*
X0601601Y0128095D01*
X0600248Y0128228D01*
D02*
G37*
G36*
X0697980Y0125648D02*
X0696518Y0125456D01*
X0695156Y0124892D01*
X0693986Y0123994D01*
X0693089Y0122824D01*
X0692524Y0121462D01*
X0692332Y0120000D01*
X0692524Y0118538D01*
X0693089Y0117176D01*
X0693986Y0116006D01*
X0695156Y0115108D01*
X0696518Y0114544D01*
X0697980Y0114352D01*
X0699442Y0114544D01*
X0700805Y0115108D01*
X0701974Y0116006D01*
X0702872Y0117176D01*
X0703436Y0118538D01*
X0703629Y0120000D01*
X0703436Y0121462D01*
X0702872Y0122824D01*
X0701974Y0123994D01*
X0700805Y0124892D01*
X0699442Y0125456D01*
X0697980Y0125648D01*
D02*
G37*
G36*
X0973240Y0140882D02*
X0971850Y0140699D01*
X0970555Y0140163D01*
X0969443Y0139309D01*
X0968589Y0138197D01*
X0968053Y0136902D01*
X0967870Y0135512D01*
X0968053Y0134122D01*
X0968589Y0132827D01*
X0969443Y0131714D01*
X0970555Y0130861D01*
X0971850Y0130324D01*
X0973240Y0130141D01*
X0974630Y0130324D01*
X0975925Y0130861D01*
X0977038Y0131714D01*
X0977891Y0132827D01*
X0978428Y0134122D01*
X0978611Y0135512D01*
X0978428Y0136902D01*
X0977891Y0138197D01*
X0977038Y0139309D01*
X0975925Y0140163D01*
X0974630Y0140699D01*
X0973240Y0140882D01*
D02*
G37*
G36*
X0800000Y0133636D02*
X0799278Y0133493D01*
X0798666Y0133084D01*
X0798257Y0132472D01*
X0798114Y0131750D01*
X0798257Y0131028D01*
X0798666Y0130416D01*
X0799278Y0130007D01*
X0800000Y0129864D01*
X0800722Y0130007D01*
X0801334Y0130416D01*
X0801743Y0131028D01*
X0801886Y0131750D01*
X0801743Y0132472D01*
X0801334Y0133084D01*
X0800722Y0133493D01*
X0800000Y0133636D01*
D02*
G37*
G36*
X0824553Y0132053D02*
X0817447D01*
Y0124947D01*
X0824553D01*
Y0132053D01*
D02*
G37*
G36*
X0613945Y0132000D02*
X0612250D01*
Y0130305D01*
X0612628Y0130380D01*
X0613372Y0130878D01*
X0613869Y0131622D01*
X0613945Y0132000D01*
D02*
G37*
G36*
X0611250D02*
X0609555D01*
X0609631Y0131622D01*
X0610128Y0130878D01*
X0610872Y0130380D01*
X0611250Y0130305D01*
Y0132000D01*
D02*
G37*
G36*
X1036744Y0140882D02*
X1035354Y0140699D01*
X1034059Y0140163D01*
X1032947Y0139309D01*
X1032093Y0138197D01*
X1031557Y0136902D01*
X1031374Y0135512D01*
X1031557Y0134122D01*
X1032093Y0132827D01*
X1032947Y0131714D01*
X1034059Y0130861D01*
X1035354Y0130324D01*
X1036744Y0130141D01*
X1038134Y0130324D01*
X1039429Y0130861D01*
X1040541Y0131714D01*
X1041395Y0132827D01*
X1041932Y0134122D01*
X1042115Y0135512D01*
X1041932Y0136902D01*
X1041395Y0138197D01*
X1040541Y0139309D01*
X1039429Y0140163D01*
X1038134Y0140699D01*
X1036744Y0140882D01*
D02*
G37*
G36*
X0841000Y0132083D02*
X0840073Y0131961D01*
X0839208Y0131603D01*
X0838466Y0131034D01*
X0837897Y0130292D01*
X0837539Y0129427D01*
X0837417Y0128500D01*
X0837539Y0127573D01*
X0837897Y0126708D01*
X0838466Y0125966D01*
X0839208Y0125397D01*
X0840073Y0125039D01*
X0841000Y0124917D01*
X0841927Y0125039D01*
X0842792Y0125397D01*
X0843534Y0125966D01*
X0844103Y0126708D01*
X0844461Y0127573D01*
X0844583Y0128500D01*
X0844461Y0129427D01*
X0844103Y0130292D01*
X0843534Y0131034D01*
X0842792Y0131603D01*
X0841927Y0131961D01*
X0841000Y0132083D01*
D02*
G37*
G36*
X0850000Y0126819D02*
X0849278Y0126676D01*
X0848666Y0126267D01*
X0848257Y0125655D01*
X0848114Y0124933D01*
X0848257Y0124211D01*
X0848666Y0123599D01*
X0849278Y0123190D01*
X0850000Y0123047D01*
X0850722Y0123190D01*
X0851334Y0123599D01*
X0851743Y0124211D01*
X0851886Y0124933D01*
X0851743Y0125655D01*
X0851334Y0126267D01*
X0850722Y0126676D01*
X0850000Y0126819D01*
D02*
G37*
G36*
X0864000Y0128886D02*
X0863278Y0128743D01*
X0862666Y0128334D01*
X0862257Y0127722D01*
X0862114Y0127000D01*
X0862257Y0126278D01*
X0862666Y0125666D01*
X0863278Y0125257D01*
X0864000Y0125114D01*
X0864675Y0125248D01*
X0864800Y0125145D01*
X0865008Y0124847D01*
X0864757Y0124472D01*
X0864614Y0123750D01*
X0864757Y0123028D01*
X0865166Y0122416D01*
X0865778Y0122007D01*
X0866500Y0121864D01*
X0867222Y0122007D01*
X0867834Y0122416D01*
X0868243Y0123028D01*
X0868386Y0123750D01*
X0868243Y0124472D01*
X0867834Y0125084D01*
X0867222Y0125493D01*
X0866500Y0125636D01*
X0865825Y0125502D01*
X0865700Y0125605D01*
X0865492Y0125903D01*
X0865743Y0126278D01*
X0865886Y0127000D01*
X0865743Y0127722D01*
X0865334Y0128334D01*
X0864722Y0128743D01*
X0864000Y0128886D01*
D02*
G37*
G36*
X0883695Y0123500D02*
X0882000D01*
Y0121805D01*
X0882378Y0121880D01*
X0883122Y0122378D01*
X0883619Y0123122D01*
X0883695Y0123500D01*
D02*
G37*
G36*
X0831000Y0132083D02*
X0830073Y0131961D01*
X0829208Y0131603D01*
X0828466Y0131034D01*
X0827897Y0130292D01*
X0827539Y0129427D01*
X0827417Y0128500D01*
X0827539Y0127573D01*
X0827897Y0126708D01*
X0828466Y0125966D01*
X0829208Y0125397D01*
X0830073Y0125039D01*
X0831000Y0124917D01*
X0831927Y0125039D01*
X0832792Y0125397D01*
X0833534Y0125966D01*
X0834103Y0126708D01*
X0834461Y0127573D01*
X0834583Y0128500D01*
X0834461Y0129427D01*
X0834103Y0130292D01*
X0833534Y0131034D01*
X0832792Y0131603D01*
X0831927Y0131961D01*
X0831000Y0132083D01*
D02*
G37*
G36*
X0882000Y0126195D02*
Y0124500D01*
X0883695D01*
X0883619Y0124878D01*
X0883122Y0125622D01*
X0882378Y0126119D01*
X0882000Y0126195D01*
D02*
G37*
G36*
X0881000D02*
X0880622Y0126119D01*
X0879878Y0125622D01*
X0879381Y0124878D01*
X0879305Y0124500D01*
X0881000D01*
Y0126195D01*
D02*
G37*
G36*
X0721945Y0148250D02*
X0720250D01*
Y0146555D01*
X0720628Y0146631D01*
X0721372Y0147128D01*
X0721869Y0147872D01*
X0721945Y0148250D01*
D02*
G37*
G36*
X0840500Y0160886D02*
X0839778Y0160743D01*
X0839166Y0160334D01*
X0838757Y0159722D01*
X0838614Y0159000D01*
X0838757Y0158278D01*
X0839166Y0157666D01*
X0839778Y0157257D01*
X0840500Y0157114D01*
X0841222Y0157257D01*
X0841834Y0157666D01*
X0842243Y0158278D01*
X0842386Y0159000D01*
X0842243Y0159722D01*
X0841834Y0160334D01*
X0841222Y0160743D01*
X0840500Y0160886D01*
D02*
G37*
G36*
X0714500Y0157195D02*
X0714122Y0157120D01*
X0713378Y0156622D01*
X0713042Y0156120D01*
X0712458D01*
X0712122Y0156622D01*
X0711378Y0157120D01*
X0711000Y0157195D01*
Y0155000D01*
Y0152805D01*
X0711378Y0152881D01*
X0712122Y0153378D01*
X0712458Y0153880D01*
X0713042D01*
X0713378Y0153378D01*
X0714122Y0152881D01*
X0714500Y0152805D01*
Y0155000D01*
Y0157195D01*
D02*
G37*
G36*
X0719250D02*
X0718872Y0157120D01*
X0718128Y0156622D01*
X0717631Y0155878D01*
X0717630Y0155875D01*
X0717120D01*
X0717119Y0155878D01*
X0716622Y0156622D01*
X0715878Y0157120D01*
X0715500Y0157195D01*
Y0155000D01*
Y0152805D01*
X0715878Y0152881D01*
X0716622Y0153378D01*
X0717119Y0154122D01*
X0717120Y0154125D01*
X0717630D01*
X0717631Y0154122D01*
X0718128Y0153378D01*
X0718872Y0152881D01*
X0719250Y0152805D01*
Y0155000D01*
Y0157195D01*
D02*
G37*
G36*
X0783500Y0162886D02*
X0782778Y0162743D01*
X0782166Y0162334D01*
X0781757Y0161722D01*
X0781614Y0161000D01*
X0781757Y0160278D01*
X0782166Y0159666D01*
X0782778Y0159257D01*
X0783500Y0159114D01*
X0784222Y0159257D01*
X0784834Y0159666D01*
X0785243Y0160278D01*
X0785386Y0161000D01*
X0785243Y0161722D01*
X0784834Y0162334D01*
X0784222Y0162743D01*
X0783500Y0162886D01*
D02*
G37*
G36*
X0790500Y0159886D02*
X0789778Y0159743D01*
X0789166Y0159334D01*
X0788757Y0158722D01*
X0788734Y0158606D01*
X0788203Y0158500D01*
X0788122Y0158622D01*
X0787378Y0159119D01*
X0787000Y0159195D01*
Y0157000D01*
Y0154805D01*
X0787378Y0154880D01*
X0788122Y0155378D01*
X0788619Y0156122D01*
X0788690Y0156479D01*
X0788923Y0156570D01*
X0789229Y0156624D01*
X0789778Y0156257D01*
X0790500Y0156114D01*
X0791222Y0156257D01*
X0791834Y0156666D01*
X0792243Y0157278D01*
X0792386Y0158000D01*
X0792243Y0158722D01*
X0791834Y0159334D01*
X0791222Y0159743D01*
X0790500Y0159886D01*
D02*
G37*
G36*
X0786000Y0159195D02*
X0785622Y0159119D01*
X0784878Y0158622D01*
X0784381Y0157878D01*
X0784305Y0157500D01*
X0786000D01*
Y0159195D01*
D02*
G37*
G36*
X0710000Y0157195D02*
X0709622Y0157120D01*
X0708878Y0156622D01*
X0708381Y0155878D01*
X0708380Y0155875D01*
X0707870D01*
X0707869Y0155878D01*
X0707372Y0156622D01*
X0706628Y0157120D01*
X0706250Y0157195D01*
Y0155000D01*
Y0152805D01*
X0706628Y0152881D01*
X0707372Y0153378D01*
X0707869Y0154122D01*
X0707870Y0154125D01*
X0708380D01*
X0708381Y0154122D01*
X0708878Y0153378D01*
X0709622Y0152881D01*
X0710000Y0152805D01*
Y0155000D01*
Y0157195D01*
D02*
G37*
G36*
X0867500Y0159324D02*
X0866805Y0159186D01*
X0866216Y0158792D01*
X0865822Y0158203D01*
X0865684Y0157508D01*
X0865822Y0156813D01*
X0866216Y0156224D01*
X0866805Y0155830D01*
X0867500Y0155692D01*
X0868195Y0155830D01*
X0868784Y0156224D01*
X0869178Y0156813D01*
X0869316Y0157508D01*
X0869178Y0158203D01*
X0868784Y0158792D01*
X0868195Y0159186D01*
X0867500Y0159324D01*
D02*
G37*
G36*
X0863169D02*
X0862474Y0159186D01*
X0861885Y0158792D01*
X0861491Y0158203D01*
X0861353Y0157508D01*
X0861491Y0156813D01*
X0861885Y0156224D01*
X0862474Y0155830D01*
X0863169Y0155692D01*
X0863864Y0155830D01*
X0864453Y0156224D01*
X0864847Y0156813D01*
X0864985Y0157508D01*
X0864847Y0158203D01*
X0864453Y0158792D01*
X0863864Y0159186D01*
X0863169Y0159324D01*
D02*
G37*
G36*
X0858839D02*
X0858144Y0159186D01*
X0857555Y0158792D01*
X0857161Y0158203D01*
X0857023Y0157508D01*
X0857161Y0156813D01*
X0857555Y0156224D01*
X0858144Y0155830D01*
X0858839Y0155692D01*
X0859534Y0155830D01*
X0860123Y0156224D01*
X0860516Y0156813D01*
X0860655Y0157508D01*
X0860516Y0158203D01*
X0860123Y0158792D01*
X0859534Y0159186D01*
X0858839Y0159324D01*
D02*
G37*
G36*
X0880492D02*
X0879797Y0159186D01*
X0879208Y0158792D01*
X0878814Y0158203D01*
X0878676Y0157508D01*
X0878814Y0156813D01*
X0879208Y0156224D01*
X0879797Y0155830D01*
X0880492Y0155692D01*
X0881187Y0155830D01*
X0881776Y0156224D01*
X0882170Y0156813D01*
X0882308Y0157508D01*
X0882170Y0158203D01*
X0881776Y0158792D01*
X0881187Y0159186D01*
X0880492Y0159324D01*
D02*
G37*
G36*
X0876161D02*
X0875467Y0159186D01*
X0874877Y0158792D01*
X0874484Y0158203D01*
X0874345Y0157508D01*
X0874484Y0156813D01*
X0874877Y0156224D01*
X0875467Y0155830D01*
X0876161Y0155692D01*
X0876856Y0155830D01*
X0877446Y0156224D01*
X0877839Y0156813D01*
X0877977Y0157508D01*
X0877839Y0158203D01*
X0877446Y0158792D01*
X0876856Y0159186D01*
X0876161Y0159324D01*
D02*
G37*
G36*
X0871831D02*
X0871136Y0159186D01*
X0870547Y0158792D01*
X0870153Y0158203D01*
X0870015Y0157508D01*
X0870153Y0156813D01*
X0870547Y0156224D01*
X0871136Y0155830D01*
X0871831Y0155692D01*
X0872526Y0155830D01*
X0873115Y0156224D01*
X0873508Y0156813D01*
X0873647Y0157508D01*
X0873508Y0158203D01*
X0873115Y0158792D01*
X0872526Y0159186D01*
X0871831Y0159324D01*
D02*
G37*
G36*
X0710500Y0163386D02*
X0709778Y0163243D01*
X0709166Y0162834D01*
X0708757Y0162222D01*
X0708755Y0162210D01*
X0708245D01*
X0708243Y0162222D01*
X0707834Y0162834D01*
X0707222Y0163243D01*
X0706500Y0163386D01*
X0705778Y0163243D01*
X0705166Y0162834D01*
X0704757Y0162222D01*
X0704614Y0161500D01*
X0704757Y0160778D01*
X0705166Y0160166D01*
X0705778Y0159757D01*
X0706500Y0159614D01*
X0707222Y0159757D01*
X0707834Y0160166D01*
X0708243Y0160778D01*
X0708245Y0160790D01*
X0708755D01*
X0708757Y0160778D01*
X0709166Y0160166D01*
X0709778Y0159757D01*
X0710500Y0159614D01*
X0711222Y0159757D01*
X0711834Y0160166D01*
X0712243Y0160778D01*
X0712386Y0161500D01*
X0712243Y0162222D01*
X0711834Y0162834D01*
X0711222Y0163243D01*
X0710500Y0163386D01*
D02*
G37*
G36*
X0880492Y0163655D02*
X0879797Y0163516D01*
X0879208Y0163123D01*
X0878814Y0162533D01*
X0878676Y0161839D01*
X0878814Y0161144D01*
X0879208Y0160555D01*
X0879797Y0160161D01*
X0880492Y0160023D01*
X0881187Y0160161D01*
X0881776Y0160555D01*
X0882170Y0161144D01*
X0882308Y0161839D01*
X0882170Y0162533D01*
X0881776Y0163123D01*
X0881187Y0163516D01*
X0880492Y0163655D01*
D02*
G37*
G36*
X0876161D02*
X0875467Y0163516D01*
X0874877Y0163123D01*
X0874484Y0162533D01*
X0874345Y0161839D01*
X0874484Y0161144D01*
X0874877Y0160555D01*
X0875467Y0160161D01*
X0876161Y0160023D01*
X0876856Y0160161D01*
X0877446Y0160555D01*
X0877839Y0161144D01*
X0877977Y0161839D01*
X0877839Y0162533D01*
X0877446Y0163123D01*
X0876856Y0163516D01*
X0876161Y0163655D01*
D02*
G37*
G36*
X0602000Y0171083D02*
X0601073Y0170961D01*
X0600208Y0170603D01*
X0599466Y0170034D01*
X0598897Y0169292D01*
X0598539Y0168427D01*
X0598417Y0167500D01*
X0598539Y0166573D01*
X0598897Y0165708D01*
X0599466Y0164966D01*
X0600208Y0164397D01*
X0601073Y0164039D01*
X0602000Y0163917D01*
X0602927Y0164039D01*
X0603792Y0164397D01*
X0604534Y0164966D01*
X0605103Y0165708D01*
X0605461Y0166573D01*
X0605583Y0167500D01*
X0605461Y0168427D01*
X0605103Y0169292D01*
X0604534Y0170034D01*
X0603792Y0170603D01*
X0602927Y0170961D01*
X0602000Y0171083D01*
D02*
G37*
G36*
X0592000D02*
X0591073Y0170961D01*
X0590208Y0170603D01*
X0589466Y0170034D01*
X0588897Y0169292D01*
X0588539Y0168427D01*
X0588417Y0167500D01*
X0588539Y0166573D01*
X0588897Y0165708D01*
X0589466Y0164966D01*
X0590208Y0164397D01*
X0591073Y0164039D01*
X0592000Y0163917D01*
X0592928Y0164039D01*
X0593792Y0164397D01*
X0594534Y0164966D01*
X0595103Y0165708D01*
X0595461Y0166573D01*
X0595583Y0167500D01*
X0595461Y0168427D01*
X0595103Y0169292D01*
X0594534Y0170034D01*
X0593792Y0170603D01*
X0592928Y0170961D01*
X0592000Y0171083D01*
D02*
G37*
G36*
X0719000Y0163386D02*
X0718278Y0163243D01*
X0717666Y0162834D01*
X0717257Y0162222D01*
X0717255Y0162210D01*
X0716745D01*
X0716743Y0162222D01*
X0716334Y0162834D01*
X0715722Y0163243D01*
X0715000Y0163386D01*
X0714278Y0163243D01*
X0713666Y0162834D01*
X0713257Y0162222D01*
X0713114Y0161500D01*
X0713257Y0160778D01*
X0713666Y0160166D01*
X0714278Y0159757D01*
X0715000Y0159614D01*
X0715722Y0159757D01*
X0716334Y0160166D01*
X0716743Y0160778D01*
X0716745Y0160790D01*
X0717255D01*
X0717257Y0160778D01*
X0717666Y0160166D01*
X0718278Y0159757D01*
X0719000Y0159614D01*
X0719722Y0159757D01*
X0720334Y0160166D01*
X0720743Y0160778D01*
X0720886Y0161500D01*
X0720743Y0162222D01*
X0720334Y0162834D01*
X0719722Y0163243D01*
X0719000Y0163386D01*
D02*
G37*
G36*
X0871831Y0163655D02*
X0871136Y0163516D01*
X0870547Y0163123D01*
X0870153Y0162533D01*
X0870015Y0161839D01*
X0870153Y0161144D01*
X0870547Y0160555D01*
X0871136Y0160161D01*
X0871831Y0160023D01*
X0872526Y0160161D01*
X0873115Y0160555D01*
X0873508Y0161144D01*
X0873647Y0161839D01*
X0873508Y0162533D01*
X0873115Y0163123D01*
X0872526Y0163516D01*
X0871831Y0163655D01*
D02*
G37*
G36*
X0854508D02*
X0853813Y0163516D01*
X0853224Y0163123D01*
X0852830Y0162533D01*
X0852692Y0161839D01*
X0852830Y0161144D01*
X0853224Y0160555D01*
X0853813Y0160161D01*
X0854508Y0160023D01*
X0855203Y0160161D01*
X0855792Y0160555D01*
X0856186Y0161144D01*
X0856324Y0161839D01*
X0856186Y0162533D01*
X0855792Y0163123D01*
X0855203Y0163516D01*
X0854508Y0163655D01*
D02*
G37*
G36*
X0815000Y0163386D02*
X0814278Y0163243D01*
X0813666Y0162834D01*
X0813257Y0162222D01*
X0813114Y0161500D01*
X0813257Y0160778D01*
X0813666Y0160166D01*
X0814278Y0159757D01*
X0815000Y0159614D01*
X0815722Y0159757D01*
X0816334Y0160166D01*
X0816743Y0160778D01*
X0816886Y0161500D01*
X0816743Y0162222D01*
X0816334Y0162834D01*
X0815722Y0163243D01*
X0815000Y0163386D01*
D02*
G37*
G36*
X0702000D02*
X0701278Y0163243D01*
X0700666Y0162834D01*
X0700257Y0162222D01*
X0700114Y0161500D01*
X0700257Y0160778D01*
X0700666Y0160166D01*
X0701278Y0159757D01*
X0702000Y0159614D01*
X0702722Y0159757D01*
X0703334Y0160166D01*
X0703743Y0160778D01*
X0703886Y0161500D01*
X0703743Y0162222D01*
X0703334Y0162834D01*
X0702722Y0163243D01*
X0702000Y0163386D01*
D02*
G37*
G36*
X0867500Y0163655D02*
X0866805Y0163516D01*
X0866216Y0163123D01*
X0865822Y0162533D01*
X0865684Y0161839D01*
X0865822Y0161144D01*
X0866216Y0160555D01*
X0866805Y0160161D01*
X0867500Y0160023D01*
X0868195Y0160161D01*
X0868784Y0160555D01*
X0869178Y0161144D01*
X0869316Y0161839D01*
X0869178Y0162533D01*
X0868784Y0163123D01*
X0868195Y0163516D01*
X0867500Y0163655D01*
D02*
G37*
G36*
X0863169D02*
X0862474Y0163516D01*
X0861885Y0163123D01*
X0861491Y0162533D01*
X0861353Y0161839D01*
X0861491Y0161144D01*
X0861885Y0160555D01*
X0862474Y0160161D01*
X0863169Y0160023D01*
X0863864Y0160161D01*
X0864453Y0160555D01*
X0864847Y0161144D01*
X0864985Y0161839D01*
X0864847Y0162533D01*
X0864453Y0163123D01*
X0863864Y0163516D01*
X0863169Y0163655D01*
D02*
G37*
G36*
X0858839D02*
X0858144Y0163516D01*
X0857555Y0163123D01*
X0857161Y0162533D01*
X0857023Y0161839D01*
X0857161Y0161144D01*
X0857555Y0160555D01*
X0858144Y0160161D01*
X0858839Y0160023D01*
X0859534Y0160161D01*
X0860123Y0160555D01*
X0860516Y0161144D01*
X0860655Y0161839D01*
X0860516Y0162533D01*
X0860123Y0163123D01*
X0859534Y0163516D01*
X0858839Y0163655D01*
D02*
G37*
G36*
X0710000Y0150945D02*
X0709622Y0150870D01*
X0708878Y0150372D01*
X0708381Y0149628D01*
X0708380Y0149625D01*
X0707870D01*
X0707869Y0149628D01*
X0707372Y0150372D01*
X0706628Y0150870D01*
X0706250Y0150945D01*
Y0148750D01*
Y0146555D01*
X0706628Y0146631D01*
X0707372Y0147128D01*
X0707869Y0147872D01*
X0707870Y0147875D01*
X0708380D01*
X0708381Y0147872D01*
X0708878Y0147128D01*
X0709622Y0146631D01*
X0710000Y0146555D01*
Y0148750D01*
Y0150945D01*
D02*
G37*
G36*
X0720250D02*
Y0149250D01*
X0721945D01*
X0721869Y0149628D01*
X0721372Y0150372D01*
X0720628Y0150870D01*
X0720250Y0150945D01*
D02*
G37*
G36*
X0700250D02*
X0699872Y0150870D01*
X0699128Y0150372D01*
X0698631Y0149628D01*
X0698555Y0149250D01*
X0700250D01*
Y0150945D01*
D02*
G37*
G36*
X0801000Y0151695D02*
X0800622Y0151620D01*
X0799878Y0151122D01*
X0799381Y0150378D01*
X0799305Y0150000D01*
X0801000D01*
Y0151695D01*
D02*
G37*
G36*
X0714500Y0150945D02*
X0714122Y0150870D01*
X0713378Y0150372D01*
X0713042Y0149870D01*
X0712458D01*
X0712122Y0150372D01*
X0711378Y0150870D01*
X0711000Y0150945D01*
Y0148750D01*
Y0146555D01*
X0711378Y0146631D01*
X0712122Y0147128D01*
X0712458Y0147630D01*
X0713042D01*
X0713378Y0147128D01*
X0714122Y0146631D01*
X0714500Y0146555D01*
Y0148750D01*
Y0150945D01*
D02*
G37*
G36*
X0719250D02*
X0718872Y0150870D01*
X0718128Y0150372D01*
X0717631Y0149628D01*
X0717630Y0149625D01*
X0717120D01*
X0717119Y0149628D01*
X0716622Y0150372D01*
X0715878Y0150870D01*
X0715500Y0150945D01*
Y0148750D01*
Y0146555D01*
X0715878Y0146631D01*
X0716622Y0147128D01*
X0717119Y0147872D01*
X0717120Y0147875D01*
X0717630D01*
X0717631Y0147872D01*
X0718128Y0147128D01*
X0718872Y0146631D01*
X0719250Y0146555D01*
Y0148750D01*
Y0150945D01*
D02*
G37*
G36*
X0889000Y0152886D02*
X0888278Y0152743D01*
X0887666Y0152334D01*
X0887257Y0151722D01*
X0887114Y0151000D01*
X0887257Y0150278D01*
X0887666Y0149666D01*
X0888278Y0149257D01*
X0889000Y0149114D01*
X0889722Y0149257D01*
X0890334Y0149666D01*
X0890743Y0150278D01*
X0890886Y0151000D01*
X0890743Y0151722D01*
X0890334Y0152334D01*
X0889722Y0152743D01*
X0889000Y0152886D01*
D02*
G37*
G36*
X0803695Y0149000D02*
X0802000D01*
Y0147305D01*
X0802378Y0147380D01*
X0803122Y0147878D01*
X0803619Y0148622D01*
X0803695Y0149000D01*
D02*
G37*
G36*
X0801000D02*
X0799305D01*
X0799381Y0148622D01*
X0799878Y0147878D01*
X0800622Y0147380D01*
X0801000Y0147305D01*
Y0149000D01*
D02*
G37*
G36*
X0845500Y0150386D02*
X0844778Y0150243D01*
X0844166Y0149834D01*
X0843757Y0149222D01*
X0843614Y0148500D01*
X0843757Y0147778D01*
X0844166Y0147166D01*
X0844778Y0146757D01*
X0845500Y0146614D01*
X0846222Y0146757D01*
X0846834Y0147166D01*
X0847243Y0147778D01*
X0847386Y0148500D01*
X0847243Y0149222D01*
X0846834Y0149834D01*
X0846222Y0150243D01*
X0845500Y0150386D01*
D02*
G37*
G36*
X0873500Y0150695D02*
Y0149000D01*
X0875195D01*
X0875119Y0149378D01*
X0874622Y0150122D01*
X0873878Y0150619D01*
X0873500Y0150695D01*
D02*
G37*
G36*
X0872500D02*
X0872122Y0150619D01*
X0871378Y0150122D01*
X0870881Y0149378D01*
X0870805Y0149000D01*
X0872500D01*
Y0150695D01*
D02*
G37*
G36*
X0705250Y0150945D02*
X0704872Y0150870D01*
X0704128Y0150372D01*
X0703631Y0149628D01*
X0703505Y0148996D01*
X0702995D01*
X0702869Y0149628D01*
X0702372Y0150372D01*
X0701628Y0150870D01*
X0701250Y0150945D01*
Y0148750D01*
Y0146555D01*
X0701628Y0146631D01*
X0702372Y0147128D01*
X0702869Y0147872D01*
X0702995Y0148504D01*
X0703505D01*
X0703631Y0147872D01*
X0704128Y0147128D01*
X0704872Y0146631D01*
X0705250Y0146555D01*
Y0148750D01*
Y0150945D01*
D02*
G37*
G36*
Y0157195D02*
X0704872Y0157120D01*
X0704128Y0156622D01*
X0703631Y0155878D01*
X0703505Y0155246D01*
X0702995D01*
X0702869Y0155878D01*
X0702372Y0156622D01*
X0701628Y0157120D01*
X0701250Y0157195D01*
Y0155000D01*
Y0152805D01*
X0701628Y0152881D01*
X0702372Y0153378D01*
X0702869Y0154122D01*
X0702995Y0154754D01*
X0703505D01*
X0703631Y0154122D01*
X0704128Y0153378D01*
X0704872Y0152881D01*
X0705250Y0152805D01*
Y0155000D01*
Y0157195D01*
D02*
G37*
G36*
X0786000Y0156500D02*
X0784305D01*
X0784381Y0156122D01*
X0784878Y0155378D01*
X0785622Y0154880D01*
X0786000Y0154805D01*
Y0156500D01*
D02*
G37*
G36*
X0775500Y0157636D02*
X0774778Y0157493D01*
X0774166Y0157084D01*
X0773757Y0156472D01*
X0773614Y0155750D01*
X0773757Y0155028D01*
X0774166Y0154416D01*
X0774778Y0154007D01*
X0775500Y0153864D01*
X0776222Y0154007D01*
X0776834Y0154416D01*
X0777243Y0155028D01*
X0777386Y0155750D01*
X0777243Y0156472D01*
X0776834Y0157084D01*
X0776222Y0157493D01*
X0775500Y0157636D01*
D02*
G37*
G36*
X0854508Y0159324D02*
X0853813Y0159186D01*
X0853224Y0158792D01*
X0852830Y0158203D01*
X0852692Y0157508D01*
X0852830Y0156813D01*
X0853224Y0156224D01*
X0853813Y0155830D01*
X0854508Y0155692D01*
X0855203Y0155830D01*
X0855792Y0156224D01*
X0856186Y0156813D01*
X0856324Y0157508D01*
X0856186Y0158203D01*
X0855792Y0158792D01*
X0855203Y0159186D01*
X0854508Y0159324D01*
D02*
G37*
G36*
X0720250Y0157195D02*
Y0155500D01*
X0721945D01*
X0721869Y0155878D01*
X0721372Y0156622D01*
X0720628Y0157120D01*
X0720250Y0157195D01*
D02*
G37*
G36*
X0700250D02*
X0699872Y0157120D01*
X0699128Y0156622D01*
X0698631Y0155878D01*
X0698555Y0155500D01*
X0700250D01*
Y0157195D01*
D02*
G37*
G36*
X0721945Y0154500D02*
X0720250D01*
Y0152805D01*
X0720628Y0152881D01*
X0721372Y0153378D01*
X0721869Y0154122D01*
X0721945Y0154500D01*
D02*
G37*
G36*
X0934000Y0159401D02*
X0933120Y0159285D01*
X0932300Y0158945D01*
X0931595Y0158405D01*
X0931055Y0157700D01*
X0930715Y0156880D01*
X0930599Y0156000D01*
X0930715Y0155120D01*
X0931055Y0154300D01*
X0931595Y0153595D01*
X0932300Y0153055D01*
X0933120Y0152715D01*
X0934000Y0152599D01*
X0934880Y0152715D01*
X0935700Y0153055D01*
X0936405Y0153595D01*
X0936945Y0154300D01*
X0937285Y0155120D01*
X0937401Y0156000D01*
X0937285Y0156880D01*
X0936945Y0157700D01*
X0936405Y0158405D01*
X0935700Y0158945D01*
X0934880Y0159285D01*
X0934000Y0159401D01*
D02*
G37*
G36*
X0926126D02*
X0925246Y0159285D01*
X0924426Y0158945D01*
X0923721Y0158405D01*
X0923181Y0157700D01*
X0922841Y0156880D01*
X0922725Y0156000D01*
X0922841Y0155120D01*
X0923181Y0154300D01*
X0923721Y0153595D01*
X0924426Y0153055D01*
X0925246Y0152715D01*
X0926126Y0152599D01*
X0927006Y0152715D01*
X0927826Y0153055D01*
X0928531Y0153595D01*
X0929071Y0154300D01*
X0929411Y0155120D01*
X0929527Y0156000D01*
X0929411Y0156880D01*
X0929071Y0157700D01*
X0928531Y0158405D01*
X0927826Y0158945D01*
X0927006Y0159285D01*
X0926126Y0159401D01*
D02*
G37*
G36*
X0802000Y0151695D02*
Y0150000D01*
X0803695D01*
X0803619Y0150378D01*
X0803122Y0151122D01*
X0802378Y0151620D01*
X0802000Y0151695D01*
D02*
G37*
G36*
X0700250Y0154500D02*
X0698555D01*
X0698631Y0154122D01*
X0699128Y0153378D01*
X0699872Y0152881D01*
X0700250Y0152805D01*
Y0154500D01*
D02*
G37*
G36*
X0845000Y0156386D02*
X0844278Y0156243D01*
X0843666Y0155834D01*
X0843257Y0155222D01*
X0843114Y0154500D01*
X0843257Y0153778D01*
X0843666Y0153166D01*
X0844278Y0152757D01*
X0845000Y0152614D01*
X0845722Y0152757D01*
X0846334Y0153166D01*
X0846743Y0153778D01*
X0846886Y0154500D01*
X0846743Y0155222D01*
X0846334Y0155834D01*
X0845722Y0156243D01*
X0845000Y0156386D01*
D02*
G37*
G36*
X0943843Y0159401D02*
X0942962Y0159285D01*
X0942142Y0158945D01*
X0941438Y0158405D01*
X0940897Y0157700D01*
X0940558Y0156880D01*
X0940442Y0156000D01*
X0940558Y0155120D01*
X0940897Y0154300D01*
X0941438Y0153595D01*
X0942142Y0153055D01*
X0942962Y0152715D01*
X0943843Y0152599D01*
X0944723Y0152715D01*
X0945543Y0153055D01*
X0946247Y0153595D01*
X0946788Y0154300D01*
X0947127Y0155120D01*
X0947243Y0156000D01*
X0947127Y0156880D01*
X0946788Y0157700D01*
X0946247Y0158405D01*
X0945543Y0158945D01*
X0944723Y0159285D01*
X0943843Y0159401D01*
D02*
G37*
G36*
X0602000Y0291083D02*
X0601073Y0290961D01*
X0600208Y0290603D01*
X0599466Y0290034D01*
X0598897Y0289292D01*
X0598539Y0288427D01*
X0598417Y0287500D01*
X0598539Y0286573D01*
X0598897Y0285708D01*
X0599466Y0284966D01*
X0600208Y0284397D01*
X0601073Y0284039D01*
X0602000Y0283917D01*
X0602927Y0284039D01*
X0603792Y0284397D01*
X0604534Y0284966D01*
X0605103Y0285708D01*
X0605461Y0286573D01*
X0605583Y0287500D01*
X0605461Y0288427D01*
X0605103Y0289292D01*
X0604534Y0290034D01*
X0603792Y0290603D01*
X0602927Y0290961D01*
X0602000Y0291083D01*
D02*
G37*
G36*
X0592000D02*
X0591073Y0290961D01*
X0590208Y0290603D01*
X0589466Y0290034D01*
X0588897Y0289292D01*
X0588539Y0288427D01*
X0588417Y0287500D01*
X0588539Y0286573D01*
X0588897Y0285708D01*
X0589466Y0284966D01*
X0590208Y0284397D01*
X0591073Y0284039D01*
X0592000Y0283917D01*
X0592928Y0284039D01*
X0593792Y0284397D01*
X0594534Y0284966D01*
X0595103Y0285708D01*
X0595461Y0286573D01*
X0595583Y0287500D01*
X0595461Y0288427D01*
X0595103Y0289292D01*
X0594534Y0290034D01*
X0593792Y0290603D01*
X0592928Y0290961D01*
X0592000Y0291083D01*
D02*
G37*
G36*
X0784000Y0286136D02*
X0783278Y0285993D01*
X0782666Y0285584D01*
X0782257Y0284972D01*
X0782114Y0284250D01*
X0782257Y0283528D01*
X0782666Y0282916D01*
X0783278Y0282507D01*
X0784000Y0282364D01*
X0784722Y0282507D01*
X0785334Y0282916D01*
X0785743Y0283528D01*
X0785886Y0284250D01*
X0785743Y0284972D01*
X0785334Y0285584D01*
X0784722Y0285993D01*
X0784000Y0286136D01*
D02*
G37*
G36*
X0948500Y0289136D02*
X0947778Y0288993D01*
X0947166Y0288584D01*
X0946757Y0287972D01*
X0946614Y0287250D01*
X0946757Y0286528D01*
X0947166Y0285916D01*
X0947778Y0285507D01*
X0948500Y0285364D01*
X0949222Y0285507D01*
X0949834Y0285916D01*
X0950243Y0286528D01*
X0950386Y0287250D01*
X0950243Y0287972D01*
X0949834Y0288584D01*
X0949222Y0288993D01*
X0948500Y0289136D01*
D02*
G37*
G36*
X0719750Y0288136D02*
X0719028Y0287993D01*
X0718416Y0287584D01*
X0718007Y0286972D01*
X0717864Y0286250D01*
X0718007Y0285528D01*
X0718416Y0284916D01*
X0719028Y0284507D01*
X0719750Y0284364D01*
X0720472Y0284507D01*
X0721084Y0284916D01*
X0721493Y0285528D01*
X0721636Y0286250D01*
X0721493Y0286972D01*
X0721084Y0287584D01*
X0720472Y0287993D01*
X0719750Y0288136D01*
D02*
G37*
G36*
X0740250Y0287886D02*
X0739528Y0287743D01*
X0738916Y0287334D01*
X0738507Y0286722D01*
X0738364Y0286000D01*
X0738507Y0285278D01*
X0738916Y0284666D01*
X0739528Y0284257D01*
X0740250Y0284114D01*
X0740972Y0284257D01*
X0741584Y0284666D01*
X0741993Y0285278D01*
X0742136Y0286000D01*
X0741993Y0286722D01*
X0741584Y0287334D01*
X0740972Y0287743D01*
X0740250Y0287886D01*
D02*
G37*
G36*
X0948750Y0283636D02*
X0948028Y0283493D01*
X0947416Y0283084D01*
X0947007Y0282472D01*
X0946864Y0281750D01*
X0947007Y0281028D01*
X0947416Y0280416D01*
X0948028Y0280007D01*
X0948750Y0279864D01*
X0949472Y0280007D01*
X0950084Y0280416D01*
X0950493Y0281028D01*
X0950636Y0281750D01*
X0950493Y0282472D01*
X0950084Y0283084D01*
X0949472Y0283493D01*
X0948750Y0283636D01*
D02*
G37*
G36*
X0614695Y0278500D02*
X0613000D01*
Y0276805D01*
X0613378Y0276881D01*
X0614122Y0277378D01*
X0614619Y0278122D01*
X0614695Y0278500D01*
D02*
G37*
G36*
X0612000D02*
X0610305D01*
X0610381Y0278122D01*
X0610878Y0277378D01*
X0611622Y0276881D01*
X0612000Y0276805D01*
Y0278500D01*
D02*
G37*
G36*
X0833000Y0277886D02*
X0832278Y0277743D01*
X0831666Y0277334D01*
X0831257Y0276722D01*
X0831114Y0276000D01*
X0831257Y0275278D01*
X0831666Y0274666D01*
X0832278Y0274257D01*
X0833000Y0274114D01*
X0833722Y0274257D01*
X0834334Y0274666D01*
X0834743Y0275278D01*
X0834886Y0276000D01*
X0834743Y0276722D01*
X0834334Y0277334D01*
X0833722Y0277743D01*
X0833000Y0277886D01*
D02*
G37*
G36*
X0613000Y0281195D02*
Y0279500D01*
X0614695D01*
X0614619Y0279878D01*
X0614122Y0280622D01*
X0613378Y0281119D01*
X0613000Y0281195D01*
D02*
G37*
G36*
X0612000D02*
X0611622Y0281119D01*
X0610878Y0280622D01*
X0610381Y0279878D01*
X0610305Y0279500D01*
X0612000D01*
Y0281195D01*
D02*
G37*
G36*
X0924667Y0282082D02*
X0923848Y0281919D01*
X0923153Y0281455D01*
X0922689Y0280760D01*
X0922526Y0279941D01*
X0922689Y0279122D01*
X0923153Y0278427D01*
X0923848Y0277963D01*
X0924667Y0277800D01*
X0925487Y0277963D01*
X0926181Y0278427D01*
X0926645Y0279122D01*
X0926808Y0279941D01*
X0926645Y0280760D01*
X0926181Y0281455D01*
X0925487Y0281919D01*
X0924667Y0282082D01*
D02*
G37*
G36*
X1016500Y0298636D02*
X1015778Y0298493D01*
X1015166Y0298084D01*
X1014757Y0297472D01*
X1014614Y0296750D01*
X1014757Y0296028D01*
X1015166Y0295416D01*
X1015778Y0295007D01*
X1016500Y0294864D01*
X1017222Y0295007D01*
X1017834Y0295416D01*
X1018243Y0296028D01*
X1018386Y0296750D01*
X1018243Y0297472D01*
X1017834Y0298084D01*
X1017222Y0298493D01*
X1016500Y0298636D01*
D02*
G37*
G36*
X0602000Y0301083D02*
X0601073Y0300961D01*
X0600208Y0300603D01*
X0599466Y0300034D01*
X0598897Y0299292D01*
X0598539Y0298427D01*
X0598417Y0297500D01*
X0598539Y0296573D01*
X0598897Y0295708D01*
X0599466Y0294966D01*
X0600208Y0294397D01*
X0601073Y0294039D01*
X0602000Y0293917D01*
X0602927Y0294039D01*
X0603792Y0294397D01*
X0604534Y0294966D01*
X0605103Y0295708D01*
X0605461Y0296573D01*
X0605583Y0297500D01*
X0605461Y0298427D01*
X0605103Y0299292D01*
X0604534Y0300034D01*
X0603792Y0300603D01*
X0602927Y0300961D01*
X0602000Y0301083D01*
D02*
G37*
G36*
X0592000D02*
X0591073Y0300961D01*
X0590208Y0300603D01*
X0589466Y0300034D01*
X0588897Y0299292D01*
X0588539Y0298427D01*
X0588417Y0297500D01*
X0588539Y0296573D01*
X0588897Y0295708D01*
X0589466Y0294966D01*
X0590208Y0294397D01*
X0591073Y0294039D01*
X0592000Y0293917D01*
X0592928Y0294039D01*
X0593792Y0294397D01*
X0594534Y0294966D01*
X0595103Y0295708D01*
X0595461Y0296573D01*
X0595583Y0297500D01*
X0595461Y0298427D01*
X0595103Y0299292D01*
X0594534Y0300034D01*
X0593792Y0300603D01*
X0592928Y0300961D01*
X0592000Y0301083D01*
D02*
G37*
G36*
X0960000Y0303151D02*
X0959120Y0303035D01*
X0958300Y0302695D01*
X0957595Y0302155D01*
X0957055Y0301450D01*
X0956715Y0300630D01*
X0956599Y0299750D01*
X0956715Y0298870D01*
X0957055Y0298050D01*
X0957595Y0297345D01*
X0958300Y0296805D01*
X0959120Y0296465D01*
X0960000Y0296349D01*
X0960880Y0296465D01*
X0961700Y0296805D01*
X0962405Y0297345D01*
X0962945Y0298050D01*
X0963285Y0298870D01*
X0963401Y0299750D01*
X0963285Y0300630D01*
X0962945Y0301450D01*
X0962405Y0302155D01*
X0961700Y0302695D01*
X0960880Y0303035D01*
X0960000Y0303151D01*
D02*
G37*
G36*
X0761000Y0299886D02*
X0760278Y0299743D01*
X0759666Y0299334D01*
X0759257Y0298722D01*
X0759114Y0298000D01*
X0759257Y0297278D01*
X0759666Y0296666D01*
X0760278Y0296257D01*
X0761000Y0296114D01*
X0761722Y0296257D01*
X0762334Y0296666D01*
X0762743Y0297278D01*
X0762886Y0298000D01*
X0762743Y0298722D01*
X0762334Y0299334D01*
X0761722Y0299743D01*
X0761000Y0299886D01*
D02*
G37*
G36*
X0745000D02*
X0744278Y0299743D01*
X0743666Y0299334D01*
X0743257Y0298722D01*
X0743114Y0298000D01*
X0743257Y0297278D01*
X0743666Y0296666D01*
X0744278Y0296257D01*
X0745000Y0296114D01*
X0745722Y0296257D01*
X0746334Y0296666D01*
X0746743Y0297278D01*
X0746886Y0298000D01*
X0746743Y0298722D01*
X0746334Y0299334D01*
X0745722Y0299743D01*
X0745000Y0299886D01*
D02*
G37*
G36*
X0924667Y0293893D02*
X0923848Y0293730D01*
X0923153Y0293266D01*
X0922689Y0292571D01*
X0922526Y0291752D01*
X0922689Y0290933D01*
X0923153Y0290238D01*
X0923848Y0289774D01*
X0924667Y0289611D01*
X0925487Y0289774D01*
X0926181Y0290238D01*
X0926645Y0290933D01*
X0926808Y0291752D01*
X0926645Y0292571D01*
X0926181Y0293266D01*
X0925487Y0293730D01*
X0924667Y0293893D01*
D02*
G37*
G36*
X0970000Y0293151D02*
X0969120Y0293035D01*
X0968300Y0292695D01*
X0967595Y0292155D01*
X0967055Y0291450D01*
X0966715Y0290630D01*
X0966599Y0289750D01*
X0966715Y0288870D01*
X0967055Y0288050D01*
X0967595Y0287345D01*
X0968300Y0286805D01*
X0969120Y0286465D01*
X0970000Y0286349D01*
X0970880Y0286465D01*
X0971700Y0286805D01*
X0972405Y0287345D01*
X0972945Y0288050D01*
X0973285Y0288870D01*
X0973401Y0289750D01*
X0973285Y0290630D01*
X0972945Y0291450D01*
X0972405Y0292155D01*
X0971700Y0292695D01*
X0970880Y0293035D01*
X0970000Y0293151D01*
D02*
G37*
G36*
X0960000D02*
X0959120Y0293035D01*
X0958300Y0292695D01*
X0957595Y0292155D01*
X0957055Y0291450D01*
X0956715Y0290630D01*
X0956599Y0289750D01*
X0956715Y0288870D01*
X0957055Y0288050D01*
X0957595Y0287345D01*
X0958300Y0286805D01*
X0959120Y0286465D01*
X0960000Y0286349D01*
X0960880Y0286465D01*
X0961700Y0286805D01*
X0962405Y0287345D01*
X0962945Y0288050D01*
X0963285Y0288870D01*
X0963401Y0289750D01*
X0963285Y0290630D01*
X0962945Y0291450D01*
X0962405Y0292155D01*
X0961700Y0292695D01*
X0960880Y0293035D01*
X0960000Y0293151D01*
D02*
G37*
G36*
X0772000Y0289386D02*
X0771278Y0289243D01*
X0770666Y0288834D01*
X0770257Y0288222D01*
X0770114Y0287500D01*
X0770257Y0286778D01*
X0770666Y0286166D01*
X0771278Y0285757D01*
X0772000Y0285614D01*
X0772722Y0285757D01*
X0773334Y0286166D01*
X0773743Y0286778D01*
X0773886Y0287500D01*
X0773743Y0288222D01*
X0773334Y0288834D01*
X0772722Y0289243D01*
X0772000Y0289386D01*
D02*
G37*
G36*
X0738000Y0291886D02*
X0737278Y0291743D01*
X0736666Y0291334D01*
X0736257Y0290722D01*
X0736114Y0290000D01*
X0736257Y0289278D01*
X0736666Y0288666D01*
X0737278Y0288257D01*
X0738000Y0288114D01*
X0738722Y0288257D01*
X0739334Y0288666D01*
X0739743Y0289278D01*
X0739886Y0290000D01*
X0739743Y0290722D01*
X0739334Y0291334D01*
X0738722Y0291743D01*
X0738000Y0291886D01*
D02*
G37*
G36*
X1042250Y0290886D02*
X1041528Y0290743D01*
X1040916Y0290334D01*
X1040507Y0289722D01*
X1040364Y0289000D01*
X1040507Y0288278D01*
X1040916Y0287666D01*
X1041528Y0287257D01*
X1042250Y0287114D01*
X1042972Y0287257D01*
X1043584Y0287666D01*
X1043993Y0288278D01*
X1044136Y0289000D01*
X1043993Y0289722D01*
X1043584Y0290334D01*
X1042972Y0290743D01*
X1042250Y0290886D01*
D02*
G37*
G36*
X0980000Y0293151D02*
X0979120Y0293035D01*
X0978300Y0292695D01*
X0977595Y0292155D01*
X0977055Y0291450D01*
X0976715Y0290630D01*
X0976599Y0289750D01*
X0976715Y0288870D01*
X0977055Y0288050D01*
X0977595Y0287345D01*
X0978300Y0286805D01*
X0979120Y0286465D01*
X0980000Y0286349D01*
X0980880Y0286465D01*
X0981700Y0286805D01*
X0982405Y0287345D01*
X0982945Y0288050D01*
X0983285Y0288870D01*
X0983401Y0289750D01*
X0983285Y0290630D01*
X0982945Y0291450D01*
X0982405Y0292155D01*
X0981700Y0292695D01*
X0980880Y0293035D01*
X0980000Y0293151D01*
D02*
G37*
G36*
X0706000Y0266386D02*
X0705278Y0266243D01*
X0704666Y0265834D01*
X0704257Y0265222D01*
X0704114Y0264500D01*
X0704257Y0263778D01*
X0704666Y0263166D01*
X0705278Y0262757D01*
X0706000Y0262614D01*
X0706722Y0262757D01*
X0707334Y0263166D01*
X0707743Y0263778D01*
X0707886Y0264500D01*
X0707743Y0265222D01*
X0707334Y0265834D01*
X0706722Y0266243D01*
X0706000Y0266386D01*
D02*
G37*
G36*
X0698250Y0263695D02*
Y0262000D01*
X0699945D01*
X0699869Y0262378D01*
X0699372Y0263122D01*
X0698628Y0263619D01*
X0698250Y0263695D01*
D02*
G37*
G36*
X0697250D02*
X0696872Y0263619D01*
X0696128Y0263122D01*
X0695631Y0262378D01*
X0695555Y0262000D01*
X0697250D01*
Y0263695D01*
D02*
G37*
G36*
X0602000Y0271083D02*
X0601073Y0270961D01*
X0600208Y0270603D01*
X0599466Y0270034D01*
X0598897Y0269292D01*
X0598539Y0268427D01*
X0598417Y0267500D01*
X0598539Y0266573D01*
X0598897Y0265708D01*
X0599466Y0264966D01*
X0600208Y0264397D01*
X0601073Y0264039D01*
X0602000Y0263917D01*
X0602927Y0264039D01*
X0603792Y0264397D01*
X0604534Y0264966D01*
X0605103Y0265708D01*
X0605461Y0266573D01*
X0605583Y0267500D01*
X0605461Y0268427D01*
X0605103Y0269292D01*
X0604534Y0270034D01*
X0603792Y0270603D01*
X0602927Y0270961D01*
X0602000Y0271083D01*
D02*
G37*
G36*
X0592000D02*
X0591073Y0270961D01*
X0590208Y0270603D01*
X0589466Y0270034D01*
X0588897Y0269292D01*
X0588539Y0268427D01*
X0588417Y0267500D01*
X0588539Y0266573D01*
X0588897Y0265708D01*
X0589466Y0264966D01*
X0590208Y0264397D01*
X0591073Y0264039D01*
X0592000Y0263917D01*
X0592928Y0264039D01*
X0593792Y0264397D01*
X0594534Y0264966D01*
X0595103Y0265708D01*
X0595461Y0266573D01*
X0595583Y0267500D01*
X0595461Y0268427D01*
X0595103Y0269292D01*
X0594534Y0270034D01*
X0593792Y0270603D01*
X0592928Y0270961D01*
X0592000Y0271083D01*
D02*
G37*
G36*
X0825500Y0267386D02*
X0824778Y0267243D01*
X0824166Y0266834D01*
X0823757Y0266222D01*
X0823614Y0265500D01*
X0823757Y0264778D01*
X0824166Y0264166D01*
X0824778Y0263757D01*
X0825500Y0263614D01*
X0826222Y0263757D01*
X0826834Y0264166D01*
X0827243Y0264778D01*
X0827386Y0265500D01*
X0827243Y0266222D01*
X0826834Y0266834D01*
X0826222Y0267243D01*
X0825500Y0267386D01*
D02*
G37*
G36*
X0812500Y0265386D02*
X0811778Y0265243D01*
X0811166Y0264834D01*
X0810757Y0264222D01*
X0810614Y0263500D01*
X0810757Y0262778D01*
X0811166Y0262166D01*
X0811778Y0261757D01*
X0812500Y0261614D01*
X0813222Y0261757D01*
X0813834Y0262166D01*
X0814243Y0262778D01*
X0814386Y0263500D01*
X0814243Y0264222D01*
X0813834Y0264834D01*
X0813222Y0265243D01*
X0812500Y0265386D01*
D02*
G37*
G36*
X0673500D02*
X0672778Y0265243D01*
X0672166Y0264834D01*
X0671757Y0264222D01*
X0671614Y0263500D01*
X0671757Y0262778D01*
X0672166Y0262166D01*
X0672778Y0261757D01*
X0673500Y0261614D01*
X0674222Y0261757D01*
X0674834Y0262166D01*
X0675243Y0262778D01*
X0675386Y0263500D01*
X0675243Y0264222D01*
X0674834Y0264834D01*
X0674222Y0265243D01*
X0673500Y0265386D01*
D02*
G37*
G36*
X0784000Y0264886D02*
X0783278Y0264743D01*
X0782666Y0264334D01*
X0782257Y0263722D01*
X0782114Y0263000D01*
X0782257Y0262278D01*
X0782666Y0261666D01*
X0783278Y0261257D01*
X0784000Y0261114D01*
X0784722Y0261257D01*
X0785334Y0261666D01*
X0785743Y0262278D01*
X0785886Y0263000D01*
X0785743Y0263722D01*
X0785334Y0264334D01*
X0784722Y0264743D01*
X0784000Y0264886D01*
D02*
G37*
G36*
X0777000D02*
X0776278Y0264743D01*
X0775666Y0264334D01*
X0775257Y0263722D01*
X0775114Y0263000D01*
X0775257Y0262278D01*
X0775666Y0261666D01*
X0776278Y0261257D01*
X0777000Y0261114D01*
X0777722Y0261257D01*
X0778334Y0261666D01*
X0778743Y0262278D01*
X0778886Y0263000D01*
X0778743Y0263722D01*
X0778334Y0264334D01*
X0777722Y0264743D01*
X0777000Y0264886D01*
D02*
G37*
G36*
X0805500Y0265386D02*
X0804778Y0265243D01*
X0804166Y0264834D01*
X0803757Y0264222D01*
X0803614Y0263500D01*
X0803757Y0262778D01*
X0804166Y0262166D01*
X0804778Y0261757D01*
X0805500Y0261614D01*
X0806222Y0261757D01*
X0806834Y0262166D01*
X0807243Y0262778D01*
X0807386Y0263500D01*
X0807243Y0264222D01*
X0806834Y0264834D01*
X0806222Y0265243D01*
X0805500Y0265386D01*
D02*
G37*
G36*
X0791000D02*
X0790278Y0265243D01*
X0789666Y0264834D01*
X0789257Y0264222D01*
X0789114Y0263500D01*
X0789257Y0262778D01*
X0789666Y0262166D01*
X0790278Y0261757D01*
X0791000Y0261614D01*
X0791722Y0261757D01*
X0792334Y0262166D01*
X0792743Y0262778D01*
X0792886Y0263500D01*
X0792743Y0264222D01*
X0792334Y0264834D01*
X0791722Y0265243D01*
X0791000Y0265386D01*
D02*
G37*
G36*
X0726000D02*
X0725278Y0265243D01*
X0724666Y0264834D01*
X0724257Y0264222D01*
X0724114Y0263500D01*
X0724257Y0262778D01*
X0724666Y0262166D01*
X0725278Y0261757D01*
X0726000Y0261614D01*
X0726722Y0261757D01*
X0727334Y0262166D01*
X0727743Y0262778D01*
X0727886Y0263500D01*
X0727743Y0264222D01*
X0727334Y0264834D01*
X0726722Y0265243D01*
X0726000Y0265386D01*
D02*
G37*
G36*
X0722750Y0277386D02*
X0722028Y0277243D01*
X0721416Y0276834D01*
X0721007Y0276222D01*
X0720864Y0275500D01*
X0721007Y0274778D01*
X0721416Y0274166D01*
X0722028Y0273757D01*
X0722750Y0273614D01*
X0723472Y0273757D01*
X0724084Y0274166D01*
X0724493Y0274778D01*
X0724636Y0275500D01*
X0724493Y0276222D01*
X0724084Y0276834D01*
X0723472Y0277243D01*
X0722750Y0277386D01*
D02*
G37*
G36*
X0667500Y0275136D02*
X0666778Y0274993D01*
X0666166Y0274584D01*
X0665757Y0273972D01*
X0665614Y0273250D01*
X0665757Y0272528D01*
X0666166Y0271916D01*
X0666778Y0271507D01*
X0667500Y0271364D01*
X0668222Y0271507D01*
X0668834Y0271916D01*
X0669243Y0272528D01*
X0669386Y0273250D01*
X0669243Y0273972D01*
X0668834Y0274584D01*
X0668222Y0274993D01*
X0667500Y0275136D01*
D02*
G37*
G36*
X0697250Y0274636D02*
X0696528Y0274493D01*
X0695916Y0274084D01*
X0695507Y0273472D01*
X0695364Y0272750D01*
X0695507Y0272028D01*
X0695916Y0271416D01*
X0696528Y0271007D01*
X0697250Y0270864D01*
X0697972Y0271007D01*
X0698584Y0271416D01*
X0698993Y0272028D01*
X0699136Y0272750D01*
X0698993Y0273472D01*
X0698584Y0274084D01*
X0697972Y0274493D01*
X0697250Y0274636D01*
D02*
G37*
G36*
X0602000Y0281083D02*
X0601073Y0280961D01*
X0600208Y0280603D01*
X0599466Y0280034D01*
X0598897Y0279292D01*
X0598539Y0278427D01*
X0598417Y0277500D01*
X0598539Y0276573D01*
X0598897Y0275708D01*
X0599466Y0274966D01*
X0600208Y0274397D01*
X0601073Y0274039D01*
X0602000Y0273917D01*
X0602927Y0274039D01*
X0603792Y0274397D01*
X0604534Y0274966D01*
X0605103Y0275708D01*
X0605461Y0276573D01*
X0605583Y0277500D01*
X0605461Y0278427D01*
X0605103Y0279292D01*
X0604534Y0280034D01*
X0603792Y0280603D01*
X0602927Y0280961D01*
X0602000Y0281083D01*
D02*
G37*
G36*
X0592000D02*
X0591073Y0280961D01*
X0590208Y0280603D01*
X0589466Y0280034D01*
X0588897Y0279292D01*
X0588539Y0278427D01*
X0588417Y0277500D01*
X0588539Y0276573D01*
X0588897Y0275708D01*
X0589466Y0274966D01*
X0590208Y0274397D01*
X0591073Y0274039D01*
X0592000Y0273917D01*
X0592928Y0274039D01*
X0593792Y0274397D01*
X0594534Y0274966D01*
X0595103Y0275708D01*
X0595461Y0276573D01*
X0595583Y0277500D01*
X0595461Y0278427D01*
X0595103Y0279292D01*
X0594534Y0280034D01*
X0593792Y0280603D01*
X0592928Y0280961D01*
X0592000Y0281083D01*
D02*
G37*
G36*
X0739500Y0277636D02*
X0738778Y0277493D01*
X0738166Y0277084D01*
X0737757Y0276472D01*
X0737614Y0275750D01*
X0737757Y0275028D01*
X0738166Y0274416D01*
X0738778Y0274007D01*
X0739500Y0273864D01*
X0740222Y0274007D01*
X0740834Y0274416D01*
X0741243Y0275028D01*
X0741386Y0275750D01*
X0741243Y0276472D01*
X0740834Y0277084D01*
X0740222Y0277493D01*
X0739500Y0277636D01*
D02*
G37*
G36*
X0671750Y0272386D02*
X0671028Y0272243D01*
X0670416Y0271834D01*
X0670007Y0271222D01*
X0669864Y0270500D01*
X0670007Y0269778D01*
X0670416Y0269166D01*
X0671028Y0268757D01*
X0671750Y0268614D01*
X0672472Y0268757D01*
X0673084Y0269166D01*
X0673493Y0269778D01*
X0673636Y0270500D01*
X0673493Y0271222D01*
X0673084Y0271834D01*
X0672472Y0272243D01*
X0671750Y0272386D01*
D02*
G37*
G36*
X0881000Y0268886D02*
X0880278Y0268743D01*
X0879666Y0268334D01*
X0879257Y0267722D01*
X0879114Y0267000D01*
X0879257Y0266278D01*
X0879666Y0265666D01*
X0880278Y0265257D01*
X0881000Y0265114D01*
X0881722Y0265257D01*
X0882334Y0265666D01*
X0882743Y0266278D01*
X0882886Y0267000D01*
X0882743Y0267722D01*
X0882334Y0268334D01*
X0881722Y0268743D01*
X0881000Y0268886D01*
D02*
G37*
G36*
X0659000Y0268136D02*
X0658278Y0267993D01*
X0657666Y0267584D01*
X0657257Y0266972D01*
X0657114Y0266250D01*
X0657257Y0265528D01*
X0657666Y0264916D01*
X0658278Y0264507D01*
X0659000Y0264364D01*
X0659722Y0264507D01*
X0660334Y0264916D01*
X0660743Y0265528D01*
X0660886Y0266250D01*
X0660743Y0266972D01*
X0660334Y0267584D01*
X0659722Y0267993D01*
X0659000Y0268136D01*
D02*
G37*
G36*
X0882750Y0284576D02*
X0858000D01*
X0856816Y0284420D01*
X0855712Y0283963D01*
X0854764Y0283236D01*
X0828854Y0257326D01*
X0768750D01*
X0767566Y0257170D01*
X0766462Y0256713D01*
X0765514Y0255986D01*
X0762514Y0252986D01*
X0761787Y0252038D01*
X0761330Y0250934D01*
X0761174Y0249750D01*
Y0239395D01*
X0752604Y0230826D01*
X0737000D01*
X0735816Y0230670D01*
X0734712Y0230213D01*
X0733764Y0229486D01*
X0727514Y0223236D01*
X0726787Y0222288D01*
X0726330Y0221184D01*
X0726174Y0220000D01*
Y0211399D01*
X0726000D01*
X0725541Y0211209D01*
X0725351Y0210750D01*
Y0200250D01*
X0725541Y0199791D01*
X0726000Y0199601D01*
X0737250D01*
X0737709Y0199791D01*
X0737899Y0200250D01*
Y0210750D01*
X0737709Y0211209D01*
X0737250Y0211399D01*
X0735326D01*
Y0218105D01*
X0738896Y0221674D01*
X0754500D01*
X0755684Y0221830D01*
X0756788Y0222287D01*
X0757736Y0223014D01*
X0768986Y0234264D01*
X0769713Y0235212D01*
X0770170Y0236316D01*
X0770326Y0237500D01*
Y0241328D01*
X0770826Y0241425D01*
X0771166Y0240916D01*
X0771778Y0240507D01*
X0772500Y0240364D01*
X0773222Y0240507D01*
X0773834Y0240916D01*
X0774243Y0241528D01*
X0774386Y0242250D01*
X0774243Y0242972D01*
X0773834Y0243584D01*
X0773222Y0243993D01*
X0772500Y0244136D01*
X0771778Y0243993D01*
X0771166Y0243584D01*
X0770826Y0243075D01*
X0770326Y0243172D01*
Y0247854D01*
X0770646Y0248174D01*
X0830750D01*
X0831934Y0248330D01*
X0833038Y0248787D01*
X0833986Y0249514D01*
X0859896Y0275424D01*
X0880855D01*
X0884424Y0271854D01*
Y0264399D01*
X0877750D01*
X0877649Y0264358D01*
X0877149Y0264692D01*
Y0266639D01*
X0877243Y0266778D01*
X0877386Y0267500D01*
X0877243Y0268222D01*
X0877149Y0268361D01*
Y0271000D01*
X0876959Y0271459D01*
X0876500Y0271649D01*
X0870826D01*
X0870559Y0271834D01*
X0870407Y0271980D01*
X0870379Y0272037D01*
X0870243Y0272722D01*
X0869834Y0273334D01*
X0869222Y0273743D01*
X0868500Y0273886D01*
X0867778Y0273743D01*
X0867166Y0273334D01*
X0866757Y0272722D01*
X0866614Y0272000D01*
X0866757Y0271278D01*
X0867166Y0270666D01*
X0867778Y0270257D01*
X0868500Y0270114D01*
X0869222Y0270257D01*
X0869601Y0270510D01*
X0870101Y0270243D01*
Y0269919D01*
X0869998Y0269671D01*
X0869909Y0269000D01*
Y0265995D01*
X0869669Y0265884D01*
X0869409Y0265858D01*
X0868736Y0266736D01*
X0867788Y0267463D01*
X0866684Y0267920D01*
X0865500Y0268076D01*
X0864316Y0267920D01*
X0863212Y0267463D01*
X0862264Y0266736D01*
X0861537Y0265788D01*
X0861080Y0264684D01*
X0860924Y0263500D01*
Y0259750D01*
Y0249896D01*
X0859014Y0247986D01*
X0858287Y0247038D01*
X0857830Y0245934D01*
X0857674Y0244750D01*
Y0228875D01*
X0857174Y0228608D01*
X0856972Y0228743D01*
X0856250Y0228886D01*
X0855528Y0228743D01*
X0854916Y0228334D01*
X0854507Y0227722D01*
X0854364Y0227000D01*
X0854507Y0226278D01*
X0854916Y0225666D01*
X0855528Y0225257D01*
X0856250Y0225114D01*
X0856972Y0225257D01*
X0857174Y0225392D01*
X0857674Y0225125D01*
Y0224326D01*
X0847532D01*
X0847435Y0224826D01*
X0847944Y0225166D01*
X0848353Y0225778D01*
X0848497Y0226500D01*
X0848353Y0227222D01*
X0847944Y0227834D01*
X0847332Y0228243D01*
X0846610Y0228386D01*
X0845888Y0228243D01*
X0845277Y0227834D01*
X0844868Y0227222D01*
X0844724Y0226500D01*
X0844868Y0225778D01*
X0845277Y0225166D01*
X0845785Y0224826D01*
X0845688Y0224326D01*
X0838146D01*
X0837236Y0225236D01*
X0836288Y0225963D01*
X0835184Y0226420D01*
X0834000Y0226576D01*
X0772250D01*
X0771066Y0226420D01*
X0769962Y0225963D01*
X0769014Y0225236D01*
X0765514Y0221736D01*
X0764787Y0220788D01*
X0764330Y0219684D01*
X0764174Y0218500D01*
Y0216076D01*
X0763500D01*
X0762316Y0215920D01*
X0761212Y0215463D01*
X0760264Y0214736D01*
X0758514Y0212986D01*
X0757787Y0212038D01*
X0757330Y0210934D01*
X0757174Y0209750D01*
Y0206500D01*
X0757330Y0205316D01*
X0757787Y0204212D01*
X0758514Y0203264D01*
X0759462Y0202537D01*
X0760566Y0202080D01*
X0761750Y0201924D01*
X0762934Y0202080D01*
X0764038Y0202537D01*
X0764986Y0203264D01*
X0765601Y0204065D01*
X0766101Y0203896D01*
Y0195250D01*
X0766291Y0194791D01*
X0766750Y0194601D01*
X0769909D01*
Y0190073D01*
X0767418Y0187582D01*
X0767006Y0187045D01*
X0766748Y0186421D01*
X0766659Y0185750D01*
Y0180750D01*
X0766748Y0180079D01*
X0767006Y0179455D01*
X0767418Y0178918D01*
X0771668Y0174668D01*
X0772205Y0174256D01*
X0772829Y0173998D01*
X0773500Y0173909D01*
X0774170Y0173998D01*
X0774795Y0174256D01*
X0775332Y0174668D01*
X0775744Y0175205D01*
X0776002Y0175830D01*
X0776091Y0176500D01*
X0776002Y0177171D01*
X0775744Y0177795D01*
X0775332Y0178332D01*
X0774840Y0178824D01*
X0774866Y0178884D01*
X0775135Y0179236D01*
X0775750Y0179114D01*
X0776472Y0179257D01*
X0777084Y0179666D01*
X0777493Y0180278D01*
X0777553Y0180581D01*
X0777766Y0180984D01*
X0778096Y0180944D01*
X0778500Y0180864D01*
X0779222Y0181007D01*
X0779834Y0181416D01*
X0780243Y0182028D01*
X0780386Y0182750D01*
X0780243Y0183472D01*
X0779834Y0184084D01*
X0779222Y0184493D01*
X0778500Y0184636D01*
X0777778Y0184493D01*
X0777166Y0184084D01*
X0776757Y0183472D01*
X0776697Y0183169D01*
X0776484Y0182766D01*
X0776154Y0182806D01*
X0775750Y0182886D01*
X0775028Y0182743D01*
X0774416Y0182334D01*
X0774007Y0181722D01*
X0773864Y0181000D01*
X0773986Y0180385D01*
X0773634Y0180116D01*
X0773574Y0180090D01*
X0771841Y0181823D01*
Y0184677D01*
X0774332Y0187168D01*
X0774744Y0187705D01*
X0775002Y0188330D01*
X0775091Y0189000D01*
Y0195108D01*
X0775149Y0195250D01*
Y0201659D01*
X0790500D01*
X0791171Y0201748D01*
X0791795Y0202006D01*
X0792332Y0202418D01*
X0796082Y0206168D01*
X0796494Y0206705D01*
X0796752Y0207330D01*
X0796841Y0208000D01*
X0796752Y0208670D01*
X0796494Y0209295D01*
X0796082Y0209832D01*
X0795545Y0210244D01*
X0794920Y0210502D01*
X0794250Y0210591D01*
X0793579Y0210502D01*
X0792955Y0210244D01*
X0792418Y0209832D01*
X0789427Y0206841D01*
X0775112D01*
X0774959Y0207209D01*
X0774500Y0207399D01*
X0773419D01*
X0773171Y0207502D01*
X0772500Y0207591D01*
X0771830Y0207502D01*
X0771797Y0207489D01*
X0771545Y0207926D01*
X0771986Y0208264D01*
X0772713Y0209212D01*
X0773170Y0210316D01*
X0773326Y0211500D01*
Y0216604D01*
X0774146Y0217424D01*
X0832104D01*
X0833014Y0216514D01*
X0833962Y0215787D01*
X0835066Y0215330D01*
X0836250Y0215174D01*
X0859750D01*
X0860934Y0215330D01*
X0862038Y0215787D01*
X0862986Y0216514D01*
X0865486Y0219014D01*
X0866213Y0219962D01*
X0866670Y0221066D01*
X0866826Y0222250D01*
Y0227000D01*
Y0242854D01*
X0868736Y0244764D01*
X0869409Y0245642D01*
X0869909Y0245593D01*
Y0210013D01*
X0869387Y0209613D01*
X0866424Y0206649D01*
X0866035Y0206968D01*
X0866243Y0207278D01*
X0866386Y0208000D01*
X0866243Y0208722D01*
X0865834Y0209334D01*
X0865222Y0209743D01*
X0864500Y0209886D01*
X0863778Y0209743D01*
X0863166Y0209334D01*
X0862757Y0208722D01*
X0862614Y0208000D01*
X0862757Y0207278D01*
X0863166Y0206666D01*
X0863778Y0206257D01*
X0864500Y0206114D01*
X0865222Y0206257D01*
X0865532Y0206465D01*
X0865851Y0206077D01*
X0865262Y0205488D01*
X0816030D01*
X0815893Y0205768D01*
X0815840Y0205988D01*
X0816218Y0206553D01*
X0816361Y0207275D01*
X0816218Y0207997D01*
X0815809Y0208609D01*
X0815197Y0209018D01*
X0814475Y0209161D01*
X0814271Y0209121D01*
X0813846Y0209546D01*
X0813886Y0209750D01*
X0813743Y0210472D01*
X0813334Y0211084D01*
X0812722Y0211493D01*
X0812000Y0211636D01*
X0811278Y0211493D01*
X0811053Y0211342D01*
X0810692Y0211702D01*
X0810743Y0211778D01*
X0810886Y0212500D01*
X0810743Y0213222D01*
X0810334Y0213834D01*
X0809722Y0214243D01*
X0809000Y0214386D01*
X0808278Y0214243D01*
X0807666Y0213834D01*
X0807257Y0213222D01*
X0807114Y0212500D01*
X0807257Y0211778D01*
X0807666Y0211166D01*
X0808278Y0210757D01*
X0809000Y0210614D01*
X0809722Y0210757D01*
X0809947Y0210908D01*
X0810308Y0210548D01*
X0810257Y0210472D01*
X0810114Y0209750D01*
X0810257Y0209028D01*
X0810666Y0208416D01*
X0811278Y0208007D01*
X0812000Y0207864D01*
X0812204Y0207904D01*
X0812629Y0207479D01*
X0812589Y0207275D01*
X0812732Y0206553D01*
X0813110Y0205988D01*
X0813057Y0205768D01*
X0812920Y0205488D01*
X0808942D01*
X0808792Y0205603D01*
X0807928Y0205961D01*
X0807000Y0206083D01*
X0806073Y0205961D01*
X0805208Y0205603D01*
X0804466Y0205034D01*
X0794466Y0195034D01*
X0793897Y0194292D01*
X0793539Y0193427D01*
X0793417Y0192500D01*
Y0155776D01*
X0771040Y0133399D01*
X0765500D01*
X0765041Y0133209D01*
X0764851Y0132750D01*
Y0125750D01*
X0765041Y0125291D01*
X0765500Y0125101D01*
X0774000D01*
X0774459Y0125291D01*
X0774649Y0125750D01*
Y0126953D01*
X0774992Y0127216D01*
X0778266Y0130490D01*
X0778744Y0130345D01*
X0778757Y0130278D01*
X0779166Y0129666D01*
X0779778Y0129257D01*
X0780500Y0129114D01*
X0781222Y0129257D01*
X0781834Y0129666D01*
X0782243Y0130278D01*
X0782386Y0131000D01*
X0782243Y0131722D01*
X0781834Y0132334D01*
X0781222Y0132743D01*
X0781155Y0132756D01*
X0781010Y0133234D01*
X0799534Y0151758D01*
X0800103Y0152500D01*
X0800461Y0153365D01*
X0800583Y0154292D01*
Y0191016D01*
X0809080Y0199512D01*
X0866500D01*
X0866500Y0199512D01*
X0867273Y0199614D01*
X0867994Y0199913D01*
X0868613Y0200387D01*
X0873613Y0205387D01*
X0874088Y0206006D01*
X0874326Y0206581D01*
X0874732Y0206629D01*
X0874892Y0206577D01*
X0875166Y0206166D01*
X0875778Y0205757D01*
X0876500Y0205614D01*
X0877222Y0205757D01*
X0877834Y0206166D01*
X0878032Y0206463D01*
X0878541Y0206541D01*
X0879000Y0206351D01*
X0891750D01*
X0892209Y0206541D01*
X0892399Y0207000D01*
Y0215000D01*
X0892209Y0215459D01*
X0891750Y0215649D01*
X0889576D01*
Y0246851D01*
X0893250D01*
X0893709Y0247041D01*
X0893899Y0247500D01*
Y0263750D01*
X0893709Y0264209D01*
X0893576Y0264264D01*
Y0273750D01*
X0893420Y0274934D01*
X0892963Y0276038D01*
X0892236Y0276986D01*
X0885986Y0283236D01*
X0885038Y0283963D01*
X0883934Y0284420D01*
X0882750Y0284576D01*
D02*
G37*
G36*
X0722500Y0271636D02*
X0721778Y0271493D01*
X0721166Y0271084D01*
X0720757Y0270472D01*
X0720614Y0269750D01*
X0720757Y0269028D01*
X0721166Y0268416D01*
X0721778Y0268007D01*
X0722500Y0267864D01*
X0723222Y0268007D01*
X0723834Y0268416D01*
X0724243Y0269028D01*
X0724386Y0269750D01*
X0724243Y0270472D01*
X0723834Y0271084D01*
X0723222Y0271493D01*
X0722500Y0271636D01*
D02*
G37*
G36*
X0742000Y0271136D02*
X0741278Y0270993D01*
X0740666Y0270584D01*
X0740257Y0269972D01*
X0740114Y0269250D01*
X0740257Y0268528D01*
X0740666Y0267916D01*
X0741278Y0267507D01*
X0742000Y0267364D01*
X0742722Y0267507D01*
X0743334Y0267916D01*
X0743743Y0268528D01*
X0743886Y0269250D01*
X0743743Y0269972D01*
X0743334Y0270584D01*
X0742722Y0270993D01*
X0742000Y0271136D01*
D02*
G37*
G36*
X0698250Y0269386D02*
X0697528Y0269243D01*
X0696916Y0268834D01*
X0696507Y0268222D01*
X0696364Y0267500D01*
X0696507Y0266778D01*
X0696916Y0266166D01*
X0697528Y0265757D01*
X0698250Y0265614D01*
X0698972Y0265757D01*
X0699584Y0266166D01*
X0699993Y0266778D01*
X0700136Y0267500D01*
X0699993Y0268222D01*
X0699584Y0268834D01*
X0698972Y0269243D01*
X0698250Y0269386D01*
D02*
G37*
G36*
X0970000Y0303151D02*
X0969120Y0303035D01*
X0968300Y0302695D01*
X0967595Y0302155D01*
X0967055Y0301450D01*
X0966715Y0300630D01*
X0966599Y0299750D01*
X0966715Y0298870D01*
X0967055Y0298050D01*
X0967595Y0297345D01*
X0968300Y0296805D01*
X0969120Y0296465D01*
X0970000Y0296349D01*
X0970880Y0296465D01*
X0971700Y0296805D01*
X0972405Y0297345D01*
X0972945Y0298050D01*
X0973285Y0298870D01*
X0973401Y0299750D01*
X0973285Y0300630D01*
X0972945Y0301450D01*
X0972405Y0302155D01*
X0971700Y0302695D01*
X0970880Y0303035D01*
X0970000Y0303151D01*
D02*
G37*
G36*
X0883500Y0331445D02*
Y0329750D01*
X0885195D01*
X0885119Y0330128D01*
X0884622Y0330872D01*
X0883878Y0331369D01*
X0883500Y0331445D01*
D02*
G37*
G36*
X0882500D02*
X0882122Y0331369D01*
X0881378Y0330872D01*
X0880881Y0330128D01*
X0880805Y0329750D01*
X0882500D01*
Y0331445D01*
D02*
G37*
G36*
X0598695Y0329500D02*
X0597000D01*
Y0327805D01*
X0597378Y0327881D01*
X0598122Y0328378D01*
X0598619Y0329122D01*
X0598695Y0329500D01*
D02*
G37*
G36*
X0591250Y0332195D02*
Y0330500D01*
X0592945D01*
X0592869Y0330878D01*
X0592372Y0331622D01*
X0591628Y0332119D01*
X0591250Y0332195D01*
D02*
G37*
G36*
X0590250D02*
X0589872Y0332119D01*
X0589128Y0331622D01*
X0588631Y0330878D01*
X0588555Y0330500D01*
X0590250D01*
Y0332195D01*
D02*
G37*
G36*
X0905500Y0333636D02*
X0904778Y0333493D01*
X0904166Y0333084D01*
X0903757Y0332472D01*
X0903614Y0331750D01*
X0903757Y0331028D01*
X0904166Y0330416D01*
X0904778Y0330007D01*
X0905500Y0329864D01*
X0906222Y0330007D01*
X0906834Y0330416D01*
X0907243Y0331028D01*
X0907386Y0331750D01*
X0907243Y0332472D01*
X0906834Y0333084D01*
X0906222Y0333493D01*
X0905500Y0333636D01*
D02*
G37*
G36*
X0596000Y0329500D02*
X0594305D01*
X0594381Y0329122D01*
X0594878Y0328378D01*
X0595622Y0327881D01*
X0596000Y0327805D01*
Y0329500D01*
D02*
G37*
G36*
X1027500Y0334833D02*
X1026573Y0334711D01*
X1025708Y0334353D01*
X1024966Y0333784D01*
X1024397Y0333042D01*
X1024039Y0332177D01*
X1023917Y0331250D01*
X1024039Y0330323D01*
X1024397Y0329458D01*
X1024966Y0328716D01*
X1025708Y0328147D01*
X1026573Y0327789D01*
X1027500Y0327667D01*
X1028427Y0327789D01*
X1029292Y0328147D01*
X1030034Y0328716D01*
X1030603Y0329458D01*
X1030961Y0330323D01*
X1031083Y0331250D01*
X1030961Y0332177D01*
X1030603Y0333042D01*
X1030034Y0333784D01*
X1029292Y0334353D01*
X1028427Y0334711D01*
X1027500Y0334833D01*
D02*
G37*
G36*
X0855000Y0331386D02*
X0854278Y0331243D01*
X0853666Y0330834D01*
X0853257Y0330222D01*
X0853114Y0329500D01*
X0853257Y0328778D01*
X0853666Y0328166D01*
X0854278Y0327757D01*
X0855000Y0327614D01*
X0855722Y0327757D01*
X0856334Y0328166D01*
X0856743Y0328778D01*
X0856886Y0329500D01*
X0856743Y0330222D01*
X0856334Y0330834D01*
X0855722Y0331243D01*
X0855000Y0331386D01*
D02*
G37*
G36*
X0948500Y0328945D02*
Y0327250D01*
X0950195D01*
X0950119Y0327628D01*
X0949622Y0328372D01*
X0948878Y0328870D01*
X0948500Y0328945D01*
D02*
G37*
G36*
X0592945Y0329500D02*
X0591250D01*
Y0327805D01*
X0591628Y0327881D01*
X0592372Y0328378D01*
X0592869Y0329122D01*
X0592945Y0329500D01*
D02*
G37*
G36*
X0590250D02*
X0588555D01*
X0588631Y0329122D01*
X0589128Y0328378D01*
X0589872Y0327881D01*
X0590250Y0327805D01*
Y0329500D01*
D02*
G37*
G36*
X1037500Y0334833D02*
X1036573Y0334711D01*
X1035708Y0334353D01*
X1034966Y0333784D01*
X1034397Y0333042D01*
X1034039Y0332177D01*
X1033917Y0331250D01*
X1034039Y0330323D01*
X1034397Y0329458D01*
X1034966Y0328716D01*
X1035708Y0328147D01*
X1036573Y0327789D01*
X1037500Y0327667D01*
X1038427Y0327789D01*
X1039292Y0328147D01*
X1040034Y0328716D01*
X1040603Y0329458D01*
X1040961Y0330323D01*
X1041083Y0331250D01*
X1040961Y0332177D01*
X1040603Y0333042D01*
X1040034Y0333784D01*
X1039292Y0334353D01*
X1038427Y0334711D01*
X1037500Y0334833D01*
D02*
G37*
G36*
X0801035Y0352637D02*
X0799683Y0352504D01*
X0798382Y0352110D01*
X0797184Y0351469D01*
X0796133Y0350607D01*
X0795271Y0349556D01*
X0794631Y0348358D01*
X0794236Y0347057D01*
X0794103Y0345705D01*
X0794236Y0344352D01*
X0794631Y0343052D01*
X0795271Y0341853D01*
X0796133Y0340803D01*
X0797184Y0339941D01*
X0798382Y0339300D01*
X0799683Y0338905D01*
X0801035Y0338772D01*
X0802388Y0338905D01*
X0803688Y0339300D01*
X0804887Y0339941D01*
X0805937Y0340803D01*
X0806800Y0341853D01*
X0807440Y0343052D01*
X0807835Y0344352D01*
X0807968Y0345705D01*
X0807835Y0347057D01*
X0807440Y0348358D01*
X0806800Y0349556D01*
X0805937Y0350607D01*
X0804887Y0351469D01*
X0803688Y0352110D01*
X0802388Y0352504D01*
X0801035Y0352637D01*
D02*
G37*
G36*
X0600248Y0352637D02*
X0598896Y0352504D01*
X0597595Y0352110D01*
X0596396Y0351469D01*
X0595346Y0350607D01*
X0594484Y0349556D01*
X0593843Y0348358D01*
X0593449Y0347057D01*
X0593315Y0345705D01*
X0593449Y0344352D01*
X0593843Y0343052D01*
X0594484Y0341853D01*
X0595346Y0340803D01*
X0596396Y0339940D01*
X0597595Y0339300D01*
X0598896Y0338905D01*
X0600248Y0338772D01*
X0601601Y0338905D01*
X0602901Y0339300D01*
X0604100Y0339940D01*
X0605150Y0340803D01*
X0606012Y0341853D01*
X0606653Y0343052D01*
X0607047Y0344352D01*
X0607181Y0345705D01*
X0607047Y0347057D01*
X0606653Y0348358D01*
X0606012Y0349556D01*
X0605150Y0350607D01*
X0604100Y0351469D01*
X0602901Y0352110D01*
X0601601Y0352504D01*
X0600248Y0352637D01*
D02*
G37*
G36*
X1031053Y0344803D02*
X1023947D01*
Y0337697D01*
X1031053D01*
Y0344803D01*
D02*
G37*
G36*
X0912750Y0340695D02*
Y0339000D01*
X0914445D01*
X0914369Y0339378D01*
X0913872Y0340122D01*
X0913128Y0340619D01*
X0912750Y0340695D01*
D02*
G37*
G36*
X0911750D02*
X0911372Y0340619D01*
X0910628Y0340122D01*
X0910131Y0339378D01*
X0910055Y0339000D01*
X0911750D01*
Y0340695D01*
D02*
G37*
G36*
X0997886Y0352637D02*
X0996533Y0352504D01*
X0995233Y0352110D01*
X0994034Y0351469D01*
X0992984Y0350607D01*
X0992122Y0349556D01*
X0991481Y0348358D01*
X0991086Y0347057D01*
X0990953Y0345705D01*
X0991086Y0344352D01*
X0991481Y0343052D01*
X0992122Y0341853D01*
X0992984Y0340803D01*
X0994034Y0339941D01*
X0995233Y0339300D01*
X0996533Y0338905D01*
X0997886Y0338772D01*
X0999238Y0338905D01*
X1000539Y0339300D01*
X1001737Y0339941D01*
X1002788Y0340803D01*
X1003650Y0341853D01*
X1004291Y0343052D01*
X1004685Y0344352D01*
X1004818Y0345705D01*
X1004685Y0347057D01*
X1004291Y0348358D01*
X1003650Y0349556D01*
X1002788Y0350607D01*
X1001737Y0351469D01*
X1000539Y0352110D01*
X0999238Y0352504D01*
X0997886Y0352637D01*
D02*
G37*
G36*
X1037500Y0344833D02*
X1036573Y0344711D01*
X1035708Y0344353D01*
X1034966Y0343784D01*
X1034397Y0343042D01*
X1034039Y0342177D01*
X1033917Y0341250D01*
X1034039Y0340323D01*
X1034397Y0339458D01*
X1034966Y0338716D01*
X1035708Y0338147D01*
X1036573Y0337789D01*
X1037500Y0337667D01*
X1038427Y0337789D01*
X1039292Y0338147D01*
X1040034Y0338716D01*
X1040603Y0339458D01*
X1040961Y0340323D01*
X1041083Y0341250D01*
X1040961Y0342177D01*
X1040603Y0343042D01*
X1040034Y0343784D01*
X1039292Y0344353D01*
X1038427Y0344711D01*
X1037500Y0344833D01*
D02*
G37*
G36*
X0881750Y0335636D02*
X0881028Y0335493D01*
X0880416Y0335084D01*
X0880007Y0334472D01*
X0879864Y0333750D01*
X0880007Y0333028D01*
X0880416Y0332416D01*
X0881028Y0332007D01*
X0881750Y0331864D01*
X0882472Y0332007D01*
X0883084Y0332416D01*
X0883493Y0333028D01*
X0883636Y0333750D01*
X0883493Y0334472D01*
X0883084Y0335084D01*
X0882472Y0335493D01*
X0881750Y0335636D01*
D02*
G37*
G36*
X0597000Y0332195D02*
Y0330500D01*
X0598695D01*
X0598619Y0330878D01*
X0598122Y0331622D01*
X0597378Y0332119D01*
X0597000Y0332195D01*
D02*
G37*
G36*
X0596000D02*
X0595622Y0332119D01*
X0594878Y0331622D01*
X0594381Y0330878D01*
X0594305Y0330500D01*
X0596000D01*
Y0332195D01*
D02*
G37*
G36*
X0914445Y0338000D02*
X0912750D01*
Y0336305D01*
X0913128Y0336381D01*
X0913872Y0336878D01*
X0914369Y0337622D01*
X0914445Y0338000D01*
D02*
G37*
G36*
X0911750D02*
X0910055D01*
X0910131Y0337622D01*
X0910628Y0336878D01*
X0911372Y0336381D01*
X0911750Y0336305D01*
Y0338000D01*
D02*
G37*
G36*
X0750750Y0336636D02*
X0750028Y0336493D01*
X0749416Y0336084D01*
X0749007Y0335472D01*
X0748864Y0334750D01*
X0749007Y0334028D01*
X0749416Y0333416D01*
X0750028Y0333007D01*
X0750750Y0332864D01*
X0751472Y0333007D01*
X0752084Y0333416D01*
X0752493Y0334028D01*
X0752636Y0334750D01*
X0752493Y0335472D01*
X0752084Y0336084D01*
X0751472Y0336493D01*
X0750750Y0336636D01*
D02*
G37*
G36*
X1037500Y0314833D02*
X1036573Y0314711D01*
X1035708Y0314353D01*
X1034966Y0313784D01*
X1034397Y0313042D01*
X1034039Y0312177D01*
X1033917Y0311250D01*
X1034039Y0310323D01*
X1034397Y0309458D01*
X1034966Y0308716D01*
X1035708Y0308147D01*
X1036573Y0307789D01*
X1037500Y0307667D01*
X1038427Y0307789D01*
X1039292Y0308147D01*
X1040034Y0308716D01*
X1040603Y0309458D01*
X1040961Y0310323D01*
X1041083Y0311250D01*
X1040961Y0312177D01*
X1040603Y0313042D01*
X1040034Y0313784D01*
X1039292Y0314353D01*
X1038427Y0314711D01*
X1037500Y0314833D01*
D02*
G37*
G36*
X1027500D02*
X1026573Y0314711D01*
X1025708Y0314353D01*
X1024966Y0313784D01*
X1024397Y0313042D01*
X1024039Y0312177D01*
X1023917Y0311250D01*
X1024039Y0310323D01*
X1024397Y0309458D01*
X1024966Y0308716D01*
X1025708Y0308147D01*
X1026573Y0307789D01*
X1027500Y0307667D01*
X1028427Y0307789D01*
X1029292Y0308147D01*
X1030034Y0308716D01*
X1030603Y0309458D01*
X1030961Y0310323D01*
X1031083Y0311250D01*
X1030961Y0312177D01*
X1030603Y0313042D01*
X1030034Y0313784D01*
X1029292Y0314353D01*
X1028427Y0314711D01*
X1027500Y0314833D01*
D02*
G37*
G36*
X0717625Y0310261D02*
X0716903Y0310118D01*
X0716291Y0309709D01*
X0715882Y0309097D01*
X0715739Y0308375D01*
X0715882Y0307653D01*
X0716291Y0307041D01*
X0716903Y0306632D01*
X0717625Y0306489D01*
X0718347Y0306632D01*
X0718959Y0307041D01*
X0719368Y0307653D01*
X0719511Y0308375D01*
X0719368Y0309097D01*
X0718959Y0309709D01*
X0718347Y0310118D01*
X0717625Y0310261D01*
D02*
G37*
G36*
X0717250Y0319386D02*
X0716528Y0319243D01*
X0715916Y0318834D01*
X0715507Y0318222D01*
X0715364Y0317500D01*
X0715507Y0316778D01*
X0715916Y0316166D01*
X0716528Y0315757D01*
X0717250Y0315614D01*
X0717972Y0315757D01*
X0718584Y0316166D01*
X0718993Y0316778D01*
X0719136Y0317500D01*
X0718993Y0318222D01*
X0718584Y0318834D01*
X0717972Y0319243D01*
X0717250Y0319386D01*
D02*
G37*
G36*
X0910250Y0318136D02*
X0909528Y0317993D01*
X0908916Y0317584D01*
X0908507Y0316972D01*
X0908364Y0316250D01*
X0908507Y0315528D01*
X0908916Y0314916D01*
X0909528Y0314507D01*
X0910250Y0314364D01*
X0910972Y0314507D01*
X0911584Y0314916D01*
X0911993Y0315528D01*
X0912136Y0316250D01*
X0911993Y0316972D01*
X0911584Y0317584D01*
X0910972Y0317993D01*
X0910250Y0318136D01*
D02*
G37*
G36*
X0717250Y0314636D02*
X0716528Y0314493D01*
X0715916Y0314084D01*
X0715507Y0313472D01*
X0715364Y0312750D01*
X0715507Y0312028D01*
X0715916Y0311416D01*
X0716528Y0311007D01*
X0717250Y0310864D01*
X0717972Y0311007D01*
X0718584Y0311416D01*
X0718993Y0312028D01*
X0719136Y0312750D01*
X0718993Y0313472D01*
X0718584Y0314084D01*
X0717972Y0314493D01*
X0717250Y0314636D01*
D02*
G37*
G36*
X0595553Y0311053D02*
X0588447D01*
Y0303947D01*
X0595553D01*
Y0311053D01*
D02*
G37*
G36*
X1027500Y0304833D02*
X1026573Y0304711D01*
X1025708Y0304353D01*
X1024966Y0303784D01*
X1024397Y0303042D01*
X1024039Y0302177D01*
X1023917Y0301250D01*
X1024039Y0300323D01*
X1024397Y0299458D01*
X1024966Y0298716D01*
X1025708Y0298147D01*
X1026573Y0297789D01*
X1027500Y0297667D01*
X1028427Y0297789D01*
X1029292Y0298147D01*
X1030034Y0298716D01*
X1030603Y0299458D01*
X1030961Y0300323D01*
X1031083Y0301250D01*
X1030961Y0302177D01*
X1030603Y0303042D01*
X1030034Y0303784D01*
X1029292Y0304353D01*
X1028427Y0304711D01*
X1027500Y0304833D01*
D02*
G37*
G36*
X0636250Y0300136D02*
X0635528Y0299993D01*
X0634916Y0299584D01*
X0634507Y0298972D01*
X0634364Y0298250D01*
X0634507Y0297528D01*
X0634916Y0296916D01*
X0635528Y0296507D01*
X0636250Y0296364D01*
X0636972Y0296507D01*
X0637584Y0296916D01*
X0637993Y0297528D01*
X0638136Y0298250D01*
X0637993Y0298972D01*
X0637584Y0299584D01*
X0636972Y0299993D01*
X0636250Y0300136D01*
D02*
G37*
G36*
X0980000Y0303151D02*
X0979120Y0303035D01*
X0978300Y0302695D01*
X0977595Y0302155D01*
X0977055Y0301450D01*
X0976715Y0300630D01*
X0976599Y0299750D01*
X0976715Y0298870D01*
X0977055Y0298050D01*
X0977595Y0297345D01*
X0978300Y0296805D01*
X0979120Y0296465D01*
X0980000Y0296349D01*
X0980880Y0296465D01*
X0981700Y0296805D01*
X0982405Y0297345D01*
X0982945Y0298050D01*
X0983285Y0298870D01*
X0983401Y0299750D01*
X0983285Y0300630D01*
X0982945Y0301450D01*
X0982405Y0302155D01*
X0981700Y0302695D01*
X0980880Y0303035D01*
X0980000Y0303151D01*
D02*
G37*
G36*
X0602000Y0311083D02*
X0601073Y0310961D01*
X0600208Y0310603D01*
X0599466Y0310034D01*
X0598897Y0309292D01*
X0598539Y0308427D01*
X0598417Y0307500D01*
X0598539Y0306573D01*
X0598897Y0305708D01*
X0599466Y0304966D01*
X0600208Y0304397D01*
X0601073Y0304039D01*
X0602000Y0303917D01*
X0602927Y0304039D01*
X0603792Y0304397D01*
X0604534Y0304966D01*
X0605103Y0305708D01*
X0605461Y0306573D01*
X0605583Y0307500D01*
X0605461Y0308427D01*
X0605103Y0309292D01*
X0604534Y0310034D01*
X0603792Y0310603D01*
X0602927Y0310961D01*
X0602000Y0311083D01*
D02*
G37*
G36*
X0924667Y0305704D02*
X0923848Y0305541D01*
X0923153Y0305077D01*
X0922689Y0304382D01*
X0922526Y0303563D01*
X0922689Y0302744D01*
X0923153Y0302049D01*
X0923848Y0301585D01*
X0924667Y0301422D01*
X0925487Y0301585D01*
X0926181Y0302049D01*
X0926645Y0302744D01*
X0926808Y0303563D01*
X0926645Y0304382D01*
X0926181Y0305077D01*
X0925487Y0305541D01*
X0924667Y0305704D01*
D02*
G37*
G36*
X1037500Y0304833D02*
X1036573Y0304711D01*
X1035708Y0304353D01*
X1034966Y0303784D01*
X1034397Y0303042D01*
X1034039Y0302177D01*
X1033917Y0301250D01*
X1034039Y0300323D01*
X1034397Y0299458D01*
X1034966Y0298716D01*
X1035708Y0298147D01*
X1036573Y0297789D01*
X1037500Y0297667D01*
X1038427Y0297789D01*
X1039292Y0298147D01*
X1040034Y0298716D01*
X1040603Y0299458D01*
X1040961Y0300323D01*
X1041083Y0301250D01*
X1040961Y0302177D01*
X1040603Y0303042D01*
X1040034Y0303784D01*
X1039292Y0304353D01*
X1038427Y0304711D01*
X1037500Y0304833D01*
D02*
G37*
G36*
X0729500Y0329636D02*
X0728778Y0329493D01*
X0728166Y0329084D01*
X0727757Y0328472D01*
X0727614Y0327750D01*
X0727757Y0327028D01*
X0728166Y0326416D01*
X0728778Y0326007D01*
X0729500Y0325864D01*
X0730222Y0326007D01*
X0730834Y0326416D01*
X0731243Y0327028D01*
X0731386Y0327750D01*
X0731243Y0328472D01*
X0730834Y0329084D01*
X0730222Y0329493D01*
X0729500Y0329636D01*
D02*
G37*
G36*
X0714500Y0328886D02*
X0713778Y0328743D01*
X0713166Y0328334D01*
X0712757Y0327722D01*
X0712614Y0327000D01*
X0712757Y0326278D01*
X0713166Y0325666D01*
X0713778Y0325257D01*
X0714500Y0325114D01*
X0715222Y0325257D01*
X0715834Y0325666D01*
X0716243Y0326278D01*
X0716386Y0327000D01*
X0716243Y0327722D01*
X0715834Y0328334D01*
X0715222Y0328743D01*
X0714500Y0328886D01*
D02*
G37*
G36*
X0859250Y0328636D02*
X0858528Y0328493D01*
X0857916Y0328084D01*
X0857507Y0327472D01*
X0857364Y0326750D01*
X0857507Y0326028D01*
X0857916Y0325416D01*
X0858528Y0325007D01*
X0859250Y0324864D01*
X0859972Y0325007D01*
X0860584Y0325416D01*
X0860993Y0326028D01*
X0861136Y0326750D01*
X0860993Y0327472D01*
X0860584Y0328084D01*
X0859972Y0328493D01*
X0859250Y0328636D01*
D02*
G37*
G36*
X0947500Y0328945D02*
X0947122Y0328870D01*
X0946378Y0328372D01*
X0945881Y0327628D01*
X0945805Y0327250D01*
X0947500D01*
Y0328945D01*
D02*
G37*
G36*
X0885195Y0328750D02*
X0883500D01*
Y0327055D01*
X0883878Y0327131D01*
X0884622Y0327628D01*
X0885119Y0328372D01*
X0885195Y0328750D01*
D02*
G37*
G36*
X0882500D02*
X0880805D01*
X0880881Y0328372D01*
X0881378Y0327628D01*
X0882122Y0327131D01*
X0882500Y0327055D01*
Y0328750D01*
D02*
G37*
G36*
X0950195Y0326250D02*
X0948500D01*
Y0324555D01*
X0948878Y0324630D01*
X0949622Y0325128D01*
X0950119Y0325872D01*
X0950195Y0326250D01*
D02*
G37*
G36*
X0905500Y0322386D02*
X0904778Y0322243D01*
X0904166Y0321834D01*
X0903757Y0321222D01*
X0903614Y0320500D01*
X0903757Y0319778D01*
X0904166Y0319166D01*
X0904778Y0318757D01*
X0905500Y0318614D01*
X0906222Y0318757D01*
X0906834Y0319166D01*
X0907243Y0319778D01*
X0907386Y0320500D01*
X0907243Y0321222D01*
X0906834Y0321834D01*
X0906222Y0322243D01*
X0905500Y0322386D01*
D02*
G37*
G36*
X1037500Y0324833D02*
X1036573Y0324711D01*
X1035708Y0324353D01*
X1034966Y0323784D01*
X1034397Y0323042D01*
X1034039Y0322177D01*
X1033917Y0321250D01*
X1034039Y0320323D01*
X1034397Y0319458D01*
X1034966Y0318716D01*
X1035708Y0318147D01*
X1036573Y0317789D01*
X1037500Y0317667D01*
X1038427Y0317789D01*
X1039292Y0318147D01*
X1040034Y0318716D01*
X1040603Y0319458D01*
X1040961Y0320323D01*
X1041083Y0321250D01*
X1040961Y0322177D01*
X1040603Y0323042D01*
X1040034Y0323784D01*
X1039292Y0324353D01*
X1038427Y0324711D01*
X1037500Y0324833D01*
D02*
G37*
G36*
X1027500D02*
X1026573Y0324711D01*
X1025708Y0324353D01*
X1024966Y0323784D01*
X1024397Y0323042D01*
X1024039Y0322177D01*
X1023917Y0321250D01*
X1024039Y0320323D01*
X1024397Y0319458D01*
X1024966Y0318716D01*
X1025708Y0318147D01*
X1026573Y0317789D01*
X1027500Y0317667D01*
X1028427Y0317789D01*
X1029292Y0318147D01*
X1030034Y0318716D01*
X1030603Y0319458D01*
X1030961Y0320323D01*
X1031083Y0321250D01*
X1030961Y0322177D01*
X1030603Y0323042D01*
X1030034Y0323784D01*
X1029292Y0324353D01*
X1028427Y0324711D01*
X1027500Y0324833D01*
D02*
G37*
G36*
X0947500Y0326250D02*
X0945805D01*
X0945881Y0325872D01*
X0946378Y0325128D01*
X0947122Y0324630D01*
X0947500Y0324555D01*
Y0326250D01*
D02*
G37*
G36*
X0722250Y0328136D02*
X0721528Y0327993D01*
X0720916Y0327584D01*
X0720507Y0326972D01*
X0720364Y0326250D01*
X0720507Y0325528D01*
X0720916Y0324916D01*
X0721528Y0324507D01*
X0722250Y0324364D01*
X0722972Y0324507D01*
X0723584Y0324916D01*
X0723993Y0325528D01*
X0724136Y0326250D01*
X0723993Y0326972D01*
X0723584Y0327584D01*
X0722972Y0327993D01*
X0722250Y0328136D01*
D02*
G37*
G36*
X0903000Y0326886D02*
X0902278Y0326743D01*
X0901666Y0326334D01*
X0901257Y0325722D01*
X0901114Y0325000D01*
X0901257Y0324278D01*
X0901666Y0323666D01*
X0902278Y0323257D01*
X0903000Y0323114D01*
X0903722Y0323257D01*
X0904334Y0323666D01*
X0904743Y0324278D01*
X0904886Y0325000D01*
X0904743Y0325722D01*
X0904334Y0326334D01*
X0903722Y0326743D01*
X0903000Y0326886D01*
D02*
G37*
G36*
X0610500Y0222886D02*
X0609778Y0222743D01*
X0609166Y0222334D01*
X0608757Y0221722D01*
X0608614Y0221000D01*
X0608757Y0220278D01*
X0609166Y0219666D01*
X0609778Y0219257D01*
X0610500Y0219114D01*
X0611222Y0219257D01*
X0611834Y0219666D01*
X0612243Y0220278D01*
X0612386Y0221000D01*
X0612243Y0221722D01*
X0611834Y0222334D01*
X0611222Y0222743D01*
X0610500Y0222886D01*
D02*
G37*
G36*
X0688195Y0220000D02*
X0686500D01*
Y0218305D01*
X0686878Y0218380D01*
X0687622Y0218878D01*
X0688119Y0219622D01*
X0688195Y0220000D01*
D02*
G37*
G36*
X0685500D02*
X0683805D01*
X0683881Y0219622D01*
X0684378Y0218878D01*
X0685122Y0218380D01*
X0685500Y0218305D01*
Y0220000D01*
D02*
G37*
G36*
X0943500Y0226386D02*
X0942778Y0226243D01*
X0942166Y0225834D01*
X0941757Y0225222D01*
X0941614Y0224500D01*
X0941757Y0223778D01*
X0942166Y0223166D01*
X0942778Y0222757D01*
X0943500Y0222614D01*
X0944222Y0222757D01*
X0944834Y0223166D01*
X0945243Y0223778D01*
X0945386Y0224500D01*
X0945243Y0225222D01*
X0944834Y0225834D01*
X0944222Y0226243D01*
X0943500Y0226386D01*
D02*
G37*
G36*
X0686500Y0222695D02*
Y0221000D01*
X0688195D01*
X0688119Y0221378D01*
X0687622Y0222122D01*
X0686878Y0222620D01*
X0686500Y0222695D01*
D02*
G37*
G36*
X0685500D02*
X0685122Y0222620D01*
X0684378Y0222122D01*
X0683881Y0221378D01*
X0683805Y0221000D01*
X0685500D01*
Y0222695D01*
D02*
G37*
G36*
X0955500Y0219695D02*
Y0218000D01*
X0957195D01*
X0957119Y0218378D01*
X0956622Y0219122D01*
X0955878Y0219619D01*
X0955500Y0219695D01*
D02*
G37*
G36*
X0957195Y0217000D02*
X0955500D01*
Y0215305D01*
X0955878Y0215381D01*
X0956622Y0215878D01*
X0957119Y0216622D01*
X0957195Y0217000D01*
D02*
G37*
G36*
X0954500D02*
X0952805D01*
X0952881Y0216622D01*
X0953378Y0215878D01*
X0954122Y0215381D01*
X0954500Y0215305D01*
Y0217000D01*
D02*
G37*
G36*
X1028969Y0221432D02*
X1028088Y0221316D01*
X1027268Y0220977D01*
X1026564Y0220436D01*
X1026023Y0219732D01*
X1025684Y0218912D01*
X1025568Y0218032D01*
X1025684Y0217151D01*
X1026023Y0216331D01*
X1026564Y0215627D01*
X1027268Y0215086D01*
X1028088Y0214747D01*
X1028969Y0214631D01*
X1029849Y0214747D01*
X1030669Y0215086D01*
X1031373Y0215627D01*
X1031914Y0216331D01*
X1032253Y0217151D01*
X1032369Y0218032D01*
X1032253Y0218912D01*
X1031914Y0219732D01*
X1031373Y0220436D01*
X1030669Y0220977D01*
X1029849Y0221316D01*
X1028969Y0221432D01*
D02*
G37*
G36*
X0954500Y0219695D02*
X0954122Y0219619D01*
X0953378Y0219122D01*
X0952881Y0218378D01*
X0952805Y0218000D01*
X0954500D01*
Y0219695D01*
D02*
G37*
G36*
X0930000Y0220386D02*
X0929278Y0220243D01*
X0928666Y0219834D01*
X0928257Y0219222D01*
X0928114Y0218500D01*
X0928257Y0217778D01*
X0928666Y0217166D01*
X0929278Y0216757D01*
X0930000Y0216614D01*
X0930722Y0216757D01*
X0931334Y0217166D01*
X0931743Y0217778D01*
X0931886Y0218500D01*
X0931743Y0219222D01*
X0931334Y0219834D01*
X0930722Y0220243D01*
X0930000Y0220386D01*
D02*
G37*
G36*
X1005924Y0218560D02*
X1005202Y0218417D01*
X1004590Y0218008D01*
X1004181Y0217396D01*
X1004038Y0216674D01*
X1004061Y0216557D01*
X1003707Y0216203D01*
X1003590Y0216227D01*
X1002869Y0216083D01*
X1002257Y0215674D01*
X1001848Y0215062D01*
X1001704Y0214340D01*
X1001848Y0213619D01*
X1002257Y0213007D01*
X1002869Y0212598D01*
X1003590Y0212454D01*
X1004312Y0212598D01*
X1004924Y0213007D01*
X1005333Y0213619D01*
X1005477Y0214340D01*
X1005453Y0214457D01*
X1005807Y0214811D01*
X1005924Y0214788D01*
X1006646Y0214931D01*
X1007258Y0215340D01*
X1007667Y0215952D01*
X1007810Y0216674D01*
X1007667Y0217396D01*
X1007258Y0218008D01*
X1006646Y0218417D01*
X1005924Y0218560D01*
D02*
G37*
G36*
X0841000Y0228886D02*
X0840278Y0228743D01*
X0839666Y0228334D01*
X0839257Y0227722D01*
X0839114Y0227000D01*
X0839257Y0226278D01*
X0839666Y0225666D01*
X0840278Y0225257D01*
X0841000Y0225114D01*
X0841722Y0225257D01*
X0842334Y0225666D01*
X0842743Y0226278D01*
X0842886Y0227000D01*
X0842743Y0227722D01*
X0842334Y0228334D01*
X0841722Y0228743D01*
X0841000Y0228886D01*
D02*
G37*
G36*
X0701500D02*
X0700778Y0228743D01*
X0700166Y0228334D01*
X0699757Y0227722D01*
X0699614Y0227000D01*
X0699757Y0226278D01*
X0700166Y0225666D01*
X0700778Y0225257D01*
X0701500Y0225114D01*
X0702222Y0225257D01*
X0702834Y0225666D01*
X0703243Y0226278D01*
X0703386Y0227000D01*
X0703243Y0227722D01*
X0702834Y0228334D01*
X0702222Y0228743D01*
X0701500Y0228886D01*
D02*
G37*
G36*
X0662500D02*
X0661778Y0228743D01*
X0661166Y0228334D01*
X0660757Y0227722D01*
X0660614Y0227000D01*
X0660757Y0226278D01*
X0661166Y0225666D01*
X0661778Y0225257D01*
X0662500Y0225114D01*
X0663222Y0225257D01*
X0663834Y0225666D01*
X0664243Y0226278D01*
X0664386Y0227000D01*
X0664243Y0227722D01*
X0663834Y0228334D01*
X0663222Y0228743D01*
X0662500Y0228886D01*
D02*
G37*
G36*
X0714750Y0229636D02*
X0714028Y0229493D01*
X0713416Y0229084D01*
X0713007Y0228472D01*
X0712864Y0227750D01*
X0713007Y0227028D01*
X0713416Y0226416D01*
X0714028Y0226007D01*
X0714750Y0225864D01*
X0715472Y0226007D01*
X0716084Y0226416D01*
X0716493Y0227028D01*
X0716636Y0227750D01*
X0716493Y0228472D01*
X0716084Y0229084D01*
X0715472Y0229493D01*
X0714750Y0229636D01*
D02*
G37*
G36*
X0639500D02*
X0638778Y0229493D01*
X0638166Y0229084D01*
X0637757Y0228472D01*
X0637614Y0227750D01*
X0637757Y0227028D01*
X0638166Y0226416D01*
X0638778Y0226007D01*
X0639500Y0225864D01*
X0640222Y0226007D01*
X0640834Y0226416D01*
X0641243Y0227028D01*
X0641386Y0227750D01*
X0641243Y0228472D01*
X0640834Y0229084D01*
X0640222Y0229493D01*
X0639500Y0229636D01*
D02*
G37*
G36*
X0669500Y0229386D02*
X0668778Y0229243D01*
X0668166Y0228834D01*
X0667757Y0228222D01*
X0667614Y0227500D01*
X0667757Y0226778D01*
X0668166Y0226166D01*
X0668778Y0225757D01*
X0669500Y0225614D01*
X0670222Y0225757D01*
X0670834Y0226166D01*
X0671243Y0226778D01*
X0671386Y0227500D01*
X0671243Y0228222D01*
X0670834Y0228834D01*
X0670222Y0229243D01*
X0669500Y0229386D01*
D02*
G37*
G36*
X0676500Y0228386D02*
X0675778Y0228243D01*
X0675166Y0227834D01*
X0674757Y0227222D01*
X0674614Y0226500D01*
X0674757Y0225778D01*
X0675166Y0225166D01*
X0675778Y0224757D01*
X0676500Y0224614D01*
X0677222Y0224757D01*
X0677834Y0225166D01*
X0678243Y0225778D01*
X0678386Y0226500D01*
X0678243Y0227222D01*
X0677834Y0227834D01*
X0677222Y0228243D01*
X0676500Y0228386D01*
D02*
G37*
G36*
X0980996Y0231675D02*
X0980053Y0231550D01*
X0979175Y0231186D01*
X0978420Y0230608D01*
X0977841Y0229853D01*
X0977477Y0228974D01*
X0977353Y0228031D01*
X0977477Y0227089D01*
X0977841Y0226210D01*
X0978420Y0225455D01*
X0979175Y0224877D01*
X0980053Y0224513D01*
X0980996Y0224389D01*
X0981939Y0224513D01*
X0982818Y0224877D01*
X0983572Y0225455D01*
X0984151Y0226210D01*
X0984515Y0227089D01*
X0984639Y0228031D01*
X0984515Y0228974D01*
X0984151Y0229853D01*
X0983572Y0230608D01*
X0982818Y0231186D01*
X0981939Y0231550D01*
X0980996Y0231675D01*
D02*
G37*
G36*
X0602000Y0231083D02*
X0601073Y0230961D01*
X0600208Y0230603D01*
X0599466Y0230034D01*
X0598897Y0229292D01*
X0598539Y0228427D01*
X0598417Y0227500D01*
X0598539Y0226573D01*
X0598897Y0225708D01*
X0599466Y0224966D01*
X0600208Y0224397D01*
X0601073Y0224039D01*
X0602000Y0223917D01*
X0602927Y0224039D01*
X0603792Y0224397D01*
X0604534Y0224966D01*
X0605103Y0225708D01*
X0605461Y0226573D01*
X0605583Y0227500D01*
X0605461Y0228427D01*
X0605103Y0229292D01*
X0604534Y0230034D01*
X0603792Y0230603D01*
X0602927Y0230961D01*
X0602000Y0231083D01*
D02*
G37*
G36*
X0592000D02*
X0591073Y0230961D01*
X0590208Y0230603D01*
X0589466Y0230034D01*
X0588897Y0229292D01*
X0588539Y0228427D01*
X0588417Y0227500D01*
X0588539Y0226573D01*
X0588897Y0225708D01*
X0589466Y0224966D01*
X0590208Y0224397D01*
X0591073Y0224039D01*
X0592000Y0223917D01*
X0592928Y0224039D01*
X0593792Y0224397D01*
X0594534Y0224966D01*
X0595103Y0225708D01*
X0595461Y0226573D01*
X0595583Y0227500D01*
X0595461Y0228427D01*
X0595103Y0229292D01*
X0594534Y0230034D01*
X0593792Y0230603D01*
X0592928Y0230961D01*
X0592000Y0231083D01*
D02*
G37*
G36*
X1028988Y0231675D02*
X1028045Y0231550D01*
X1027167Y0231186D01*
X1026412Y0230608D01*
X1025833Y0229853D01*
X1025469Y0228974D01*
X1025345Y0228031D01*
X1025469Y0227089D01*
X1025833Y0226210D01*
X1026412Y0225455D01*
X1027167Y0224877D01*
X1028045Y0224513D01*
X1028988Y0224389D01*
X1029931Y0224513D01*
X1030810Y0224877D01*
X1031564Y0225455D01*
X1032143Y0226210D01*
X1032507Y0227089D01*
X1032631Y0228031D01*
X1032507Y0228974D01*
X1032143Y0229853D01*
X1031564Y0230608D01*
X1030810Y0231186D01*
X1029931Y0231550D01*
X1028988Y0231675D01*
D02*
G37*
G36*
X1018988D02*
X1018045Y0231550D01*
X1017167Y0231186D01*
X1016412Y0230608D01*
X1015833Y0229853D01*
X1015469Y0228974D01*
X1015345Y0228031D01*
X1015469Y0227089D01*
X1015833Y0226210D01*
X1016412Y0225455D01*
X1017167Y0224877D01*
X1018045Y0224513D01*
X1018988Y0224389D01*
X1019931Y0224513D01*
X1020810Y0224877D01*
X1021564Y0225455D01*
X1022143Y0226210D01*
X1022507Y0227089D01*
X1022631Y0228031D01*
X1022507Y0228974D01*
X1022143Y0229853D01*
X1021564Y0230608D01*
X1020810Y0231186D01*
X1019931Y0231550D01*
X1018988Y0231675D01*
D02*
G37*
G36*
X0990996D02*
X0990053Y0231550D01*
X0989175Y0231186D01*
X0988420Y0230608D01*
X0987841Y0229853D01*
X0987477Y0228974D01*
X0987353Y0228031D01*
X0987477Y0227089D01*
X0987841Y0226210D01*
X0988420Y0225455D01*
X0989175Y0224877D01*
X0990053Y0224513D01*
X0990996Y0224389D01*
X0991939Y0224513D01*
X0992818Y0224877D01*
X0993572Y0225455D01*
X0994151Y0226210D01*
X0994515Y0227089D01*
X0994639Y0228031D01*
X0994515Y0228974D01*
X0994151Y0229853D01*
X0993572Y0230608D01*
X0992818Y0231186D01*
X0991939Y0231550D01*
X0990996Y0231675D01*
D02*
G37*
G36*
X0776500Y0213886D02*
X0775778Y0213743D01*
X0775166Y0213334D01*
X0774757Y0212722D01*
X0774614Y0212000D01*
X0774757Y0211278D01*
X0775166Y0210666D01*
X0775778Y0210257D01*
X0776500Y0210114D01*
X0777222Y0210257D01*
X0777834Y0210666D01*
X0778243Y0211278D01*
X0778386Y0212000D01*
X0778243Y0212722D01*
X0777834Y0213334D01*
X0777222Y0213743D01*
X0776500Y0213886D01*
D02*
G37*
G36*
X0955500Y0211695D02*
Y0210000D01*
X0957195D01*
X0957119Y0210378D01*
X0956622Y0211122D01*
X0955878Y0211619D01*
X0955500Y0211695D01*
D02*
G37*
G36*
X0954500D02*
X0954122Y0211619D01*
X0953378Y0211122D01*
X0952881Y0210378D01*
X0952805Y0210000D01*
X0954500D01*
Y0211695D01*
D02*
G37*
G36*
X0786500Y0214386D02*
X0785778Y0214243D01*
X0785166Y0213834D01*
X0784757Y0213222D01*
X0784614Y0212500D01*
X0784757Y0211778D01*
X0785166Y0211166D01*
X0785778Y0210757D01*
X0786500Y0210614D01*
X0787222Y0210757D01*
X0787834Y0211166D01*
X0788243Y0211778D01*
X0788386Y0212500D01*
X0788243Y0213222D01*
X0787834Y0213834D01*
X0787222Y0214243D01*
X0786500Y0214386D01*
D02*
G37*
G36*
X0749500Y0214136D02*
X0748778Y0213993D01*
X0748166Y0213584D01*
X0747757Y0212972D01*
X0747614Y0212250D01*
X0747757Y0211528D01*
X0748166Y0210916D01*
X0748778Y0210507D01*
X0749500Y0210364D01*
X0750222Y0210507D01*
X0750834Y0210916D01*
X0751243Y0211528D01*
X0751386Y0212250D01*
X0751243Y0212972D01*
X0750834Y0213584D01*
X0750222Y0213993D01*
X0749500Y0214136D01*
D02*
G37*
G36*
X0644750D02*
X0644028Y0213993D01*
X0643416Y0213584D01*
X0643007Y0212972D01*
X0642864Y0212250D01*
X0643007Y0211528D01*
X0643416Y0210916D01*
X0644028Y0210507D01*
X0644750Y0210364D01*
X0645472Y0210507D01*
X0646084Y0210916D01*
X0646493Y0211528D01*
X0646636Y0212250D01*
X0646493Y0212972D01*
X0646084Y0213584D01*
X0645472Y0213993D01*
X0644750Y0214136D01*
D02*
G37*
G36*
X0857500Y0212886D02*
X0856778Y0212743D01*
X0856166Y0212334D01*
X0855757Y0211722D01*
X0855614Y0211000D01*
X0855757Y0210278D01*
X0856166Y0209666D01*
X0856778Y0209257D01*
X0857500Y0209114D01*
X0858222Y0209257D01*
X0858834Y0209666D01*
X0859243Y0210278D01*
X0859386Y0211000D01*
X0859243Y0211722D01*
X0858834Y0212334D01*
X0858222Y0212743D01*
X0857500Y0212886D01*
D02*
G37*
G36*
X0680500Y0209195D02*
X0680122Y0209120D01*
X0679378Y0208622D01*
X0678881Y0207878D01*
X0678805Y0207500D01*
X0680500D01*
Y0209195D01*
D02*
G37*
G36*
X0957195Y0209000D02*
X0955500D01*
Y0207305D01*
X0955878Y0207381D01*
X0956622Y0207878D01*
X0957119Y0208622D01*
X0957195Y0209000D01*
D02*
G37*
G36*
X0954500D02*
X0952805D01*
X0952881Y0208622D01*
X0953378Y0207878D01*
X0954122Y0207381D01*
X0954500Y0207305D01*
Y0209000D01*
D02*
G37*
G36*
X0782000Y0212386D02*
X0781278Y0212243D01*
X0780666Y0211834D01*
X0780257Y0211222D01*
X0780114Y0210500D01*
X0780257Y0209778D01*
X0780666Y0209166D01*
X0781278Y0208757D01*
X0782000Y0208614D01*
X0782722Y0208757D01*
X0783334Y0209166D01*
X0783743Y0209778D01*
X0783886Y0210500D01*
X0783743Y0211222D01*
X0783334Y0211834D01*
X0782722Y0212243D01*
X0782000Y0212386D01*
D02*
G37*
G36*
X0614250Y0211636D02*
X0613528Y0211493D01*
X0612916Y0211084D01*
X0612507Y0210472D01*
X0612364Y0209750D01*
X0612507Y0209028D01*
X0612916Y0208416D01*
X0613528Y0208007D01*
X0614250Y0207864D01*
X0614972Y0208007D01*
X0615584Y0208416D01*
X0615993Y0209028D01*
X0616136Y0209750D01*
X0615993Y0210472D01*
X0615584Y0211084D01*
X0614972Y0211493D01*
X0614250Y0211636D01*
D02*
G37*
G36*
X0931000Y0211386D02*
X0930278Y0211243D01*
X0929666Y0210834D01*
X0929257Y0210222D01*
X0929114Y0209500D01*
X0929257Y0208778D01*
X0929666Y0208166D01*
X0930278Y0207757D01*
X0931000Y0207614D01*
X0931722Y0207757D01*
X0932334Y0208166D01*
X0932743Y0208778D01*
X0932886Y0209500D01*
X0932743Y0210222D01*
X0932334Y0210834D01*
X0931722Y0211243D01*
X0931000Y0211386D01*
D02*
G37*
G36*
X0592000Y0221083D02*
X0591073Y0220961D01*
X0590208Y0220603D01*
X0589466Y0220034D01*
X0588897Y0219292D01*
X0588539Y0218427D01*
X0588417Y0217500D01*
X0588539Y0216573D01*
X0588897Y0215708D01*
X0589466Y0214966D01*
X0590208Y0214397D01*
X0591073Y0214039D01*
X0592000Y0213917D01*
X0592928Y0214039D01*
X0593792Y0214397D01*
X0594534Y0214966D01*
X0595103Y0215708D01*
X0595461Y0216573D01*
X0595583Y0217500D01*
X0595461Y0218427D01*
X0595103Y0219292D01*
X0594534Y0220034D01*
X0593792Y0220603D01*
X0592928Y0220961D01*
X0592000Y0221083D01*
D02*
G37*
G36*
X0816500Y0215386D02*
X0815778Y0215243D01*
X0815166Y0214834D01*
X0814757Y0214222D01*
X0814614Y0213500D01*
X0814757Y0212778D01*
X0815166Y0212166D01*
X0815778Y0211757D01*
X0816500Y0211614D01*
X0817222Y0211757D01*
X0817834Y0212166D01*
X0818243Y0212778D01*
X0818386Y0213500D01*
X0818243Y0214222D01*
X0817834Y0214834D01*
X0817222Y0215243D01*
X0816500Y0215386D01*
D02*
G37*
G36*
X0710500D02*
X0709778Y0215243D01*
X0709166Y0214834D01*
X0708757Y0214222D01*
X0708614Y0213500D01*
X0708757Y0212778D01*
X0709166Y0212166D01*
X0709778Y0211757D01*
X0710500Y0211614D01*
X0711222Y0211757D01*
X0711834Y0212166D01*
X0712243Y0212778D01*
X0712386Y0213500D01*
X0712243Y0214222D01*
X0711834Y0214834D01*
X0711222Y0215243D01*
X0710500Y0215386D01*
D02*
G37*
G36*
X1020976Y0221432D02*
X1020096Y0221316D01*
X1019276Y0220977D01*
X1018572Y0220436D01*
X1018031Y0219732D01*
X1017692Y0218912D01*
X1017576Y0218032D01*
X1017692Y0217151D01*
X1018031Y0216331D01*
X1018572Y0215627D01*
X1019276Y0215086D01*
X1020096Y0214747D01*
X1020976Y0214631D01*
X1021857Y0214747D01*
X1022677Y0215086D01*
X1023381Y0215627D01*
X1023921Y0216331D01*
X1024261Y0217151D01*
X1024377Y0218032D01*
X1024261Y0218912D01*
X1023921Y0219732D01*
X1023381Y0220436D01*
X1022677Y0220977D01*
X1021857Y0221316D01*
X1020976Y0221432D01*
D02*
G37*
G36*
X1012984D02*
X1012104Y0221316D01*
X1011284Y0220977D01*
X1010580Y0220436D01*
X1010039Y0219732D01*
X1009699Y0218912D01*
X1009583Y0218032D01*
X1009699Y0217151D01*
X1010039Y0216331D01*
X1010580Y0215627D01*
X1011284Y0215086D01*
X1012104Y0214747D01*
X1012984Y0214631D01*
X1013864Y0214747D01*
X1014685Y0215086D01*
X1015389Y0215627D01*
X1015929Y0216331D01*
X1016269Y0217151D01*
X1016385Y0218032D01*
X1016269Y0218912D01*
X1015929Y0219732D01*
X1015389Y0220436D01*
X1014685Y0220977D01*
X1013864Y0221316D01*
X1012984Y0221432D01*
D02*
G37*
G36*
X0602000Y0221083D02*
X0601073Y0220961D01*
X0600208Y0220603D01*
X0599466Y0220034D01*
X0598897Y0219292D01*
X0598539Y0218427D01*
X0598417Y0217500D01*
X0598539Y0216573D01*
X0598897Y0215708D01*
X0599466Y0214966D01*
X0600208Y0214397D01*
X0601073Y0214039D01*
X0602000Y0213917D01*
X0602927Y0214039D01*
X0603792Y0214397D01*
X0604534Y0214966D01*
X0605103Y0215708D01*
X0605461Y0216573D01*
X0605583Y0217500D01*
X0605461Y0218427D01*
X0605103Y0219292D01*
X0604534Y0220034D01*
X0603792Y0220603D01*
X0602927Y0220961D01*
X0602000Y0221083D01*
D02*
G37*
G36*
X0723750Y0215136D02*
X0723028Y0214993D01*
X0722416Y0214584D01*
X0722007Y0213972D01*
X0721864Y0213250D01*
X0722007Y0212528D01*
X0722416Y0211916D01*
X0723028Y0211507D01*
X0723750Y0211364D01*
X0724472Y0211507D01*
X0725084Y0211916D01*
X0725493Y0212528D01*
X0725636Y0213250D01*
X0725493Y0213972D01*
X0725084Y0214584D01*
X0724472Y0214993D01*
X0723750Y0215136D01*
D02*
G37*
G36*
X0661000Y0214886D02*
X0660278Y0214743D01*
X0659666Y0214334D01*
X0659257Y0213722D01*
X0659114Y0213000D01*
X0659257Y0212278D01*
X0659666Y0211666D01*
X0660278Y0211257D01*
X0661000Y0211114D01*
X0661722Y0211257D01*
X0662334Y0211666D01*
X0662743Y0212278D01*
X0662886Y0213000D01*
X0662743Y0213722D01*
X0662334Y0214334D01*
X0661722Y0214743D01*
X0661000Y0214886D01*
D02*
G37*
G36*
X0838500Y0214386D02*
X0837778Y0214243D01*
X0837166Y0213834D01*
X0836757Y0213222D01*
X0836614Y0212500D01*
X0836757Y0211778D01*
X0837166Y0211166D01*
X0837778Y0210757D01*
X0838500Y0210614D01*
X0839222Y0210757D01*
X0839834Y0211166D01*
X0840243Y0211778D01*
X0840386Y0212500D01*
X0840243Y0213222D01*
X0839834Y0213834D01*
X0839222Y0214243D01*
X0838500Y0214386D01*
D02*
G37*
G36*
X0792000D02*
X0791278Y0214243D01*
X0790666Y0213834D01*
X0790257Y0213222D01*
X0790114Y0212500D01*
X0790257Y0211778D01*
X0790666Y0211166D01*
X0791278Y0210757D01*
X0792000Y0210614D01*
X0792722Y0210757D01*
X0793334Y0211166D01*
X0793743Y0211778D01*
X0793886Y0212500D01*
X0793743Y0213222D01*
X0793334Y0213834D01*
X0792722Y0214243D01*
X0792000Y0214386D01*
D02*
G37*
G36*
X0739500Y0214886D02*
X0738778Y0214743D01*
X0738166Y0214334D01*
X0737757Y0213722D01*
X0737614Y0213000D01*
X0737757Y0212278D01*
X0738166Y0211666D01*
X0738778Y0211257D01*
X0739500Y0211114D01*
X0740222Y0211257D01*
X0740834Y0211666D01*
X0741243Y0212278D01*
X0741386Y0213000D01*
X0741243Y0213722D01*
X0740834Y0214334D01*
X0740222Y0214743D01*
X0739500Y0214886D01*
D02*
G37*
G36*
X0715500Y0215136D02*
X0714778Y0214993D01*
X0714166Y0214584D01*
X0713757Y0213972D01*
X0713614Y0213250D01*
X0713757Y0212528D01*
X0714166Y0211916D01*
X0714778Y0211507D01*
X0715500Y0211364D01*
X0716222Y0211507D01*
X0716834Y0211916D01*
X0717208Y0212476D01*
X0717414Y0212491D01*
X0717728Y0212424D01*
X0717757Y0212278D01*
X0718166Y0211666D01*
X0718778Y0211257D01*
X0719500Y0211114D01*
X0720222Y0211257D01*
X0720834Y0211666D01*
X0721243Y0212278D01*
X0721386Y0213000D01*
X0721243Y0213722D01*
X0720834Y0214334D01*
X0720222Y0214743D01*
X0719500Y0214886D01*
X0718778Y0214743D01*
X0718166Y0214334D01*
X0717792Y0213773D01*
X0717586Y0213759D01*
X0717272Y0213826D01*
X0717243Y0213972D01*
X0716834Y0214584D01*
X0716222Y0214993D01*
X0715500Y0215136D01*
D02*
G37*
G36*
X0705500Y0214886D02*
X0704778Y0214743D01*
X0704166Y0214334D01*
X0703757Y0213722D01*
X0703614Y0213000D01*
X0703757Y0212278D01*
X0704166Y0211666D01*
X0704778Y0211257D01*
X0705500Y0211114D01*
X0706222Y0211257D01*
X0706834Y0211666D01*
X0707243Y0212278D01*
X0707386Y0213000D01*
X0707243Y0213722D01*
X0706834Y0214334D01*
X0706222Y0214743D01*
X0705500Y0214886D01*
D02*
G37*
G36*
X0957250Y0264151D02*
X0956370Y0264035D01*
X0955550Y0263695D01*
X0954845Y0263155D01*
X0954305Y0262450D01*
X0953965Y0261630D01*
X0953849Y0260750D01*
X0953965Y0259870D01*
X0954305Y0259050D01*
X0954845Y0258345D01*
X0955550Y0257805D01*
X0956370Y0257465D01*
X0957250Y0257349D01*
X0958130Y0257465D01*
X0958950Y0257805D01*
X0959655Y0258345D01*
X0960195Y0259050D01*
X0960535Y0259870D01*
X0960651Y0260750D01*
X0960535Y0261630D01*
X0960195Y0262450D01*
X0959655Y0263155D01*
X0958950Y0263695D01*
X0958130Y0264035D01*
X0957250Y0264151D01*
D02*
G37*
G36*
X0947250D02*
X0946370Y0264035D01*
X0945550Y0263695D01*
X0944845Y0263155D01*
X0944305Y0262450D01*
X0943965Y0261630D01*
X0943849Y0260750D01*
X0943965Y0259870D01*
X0944305Y0259050D01*
X0944845Y0258345D01*
X0945550Y0257805D01*
X0946370Y0257465D01*
X0947250Y0257349D01*
X0948130Y0257465D01*
X0948950Y0257805D01*
X0949655Y0258345D01*
X0950195Y0259050D01*
X0950535Y0259870D01*
X0950651Y0260750D01*
X0950535Y0261630D01*
X0950195Y0262450D01*
X0949655Y0263155D01*
X0948950Y0263695D01*
X0948130Y0264035D01*
X0947250Y0264151D01*
D02*
G37*
G36*
X0602000Y0261083D02*
X0601073Y0260961D01*
X0600208Y0260603D01*
X0599466Y0260034D01*
X0598897Y0259292D01*
X0598539Y0258427D01*
X0598417Y0257500D01*
X0598539Y0256573D01*
X0598897Y0255708D01*
X0599466Y0254966D01*
X0600208Y0254397D01*
X0601073Y0254039D01*
X0602000Y0253917D01*
X0602927Y0254039D01*
X0603792Y0254397D01*
X0604534Y0254966D01*
X0605103Y0255708D01*
X0605461Y0256573D01*
X0605583Y0257500D01*
X0605461Y0258427D01*
X0605103Y0259292D01*
X0604534Y0260034D01*
X0603792Y0260603D01*
X0602927Y0260961D01*
X0602000Y0261083D01*
D02*
G37*
G36*
X0997250Y0264151D02*
X0996370Y0264035D01*
X0995550Y0263695D01*
X0994845Y0263155D01*
X0994305Y0262450D01*
X0993965Y0261630D01*
X0993849Y0260750D01*
X0993965Y0259870D01*
X0994305Y0259050D01*
X0994845Y0258345D01*
X0995550Y0257805D01*
X0996370Y0257465D01*
X0997250Y0257349D01*
X0998130Y0257465D01*
X0998950Y0257805D01*
X0999655Y0258345D01*
X1000195Y0259050D01*
X1000535Y0259870D01*
X1000651Y0260750D01*
X1000535Y0261630D01*
X1000195Y0262450D01*
X0999655Y0263155D01*
X0998950Y0263695D01*
X0998130Y0264035D01*
X0997250Y0264151D01*
D02*
G37*
G36*
X0977250D02*
X0976370Y0264035D01*
X0975550Y0263695D01*
X0974845Y0263155D01*
X0974305Y0262450D01*
X0973965Y0261630D01*
X0973849Y0260750D01*
X0973965Y0259870D01*
X0974305Y0259050D01*
X0974845Y0258345D01*
X0975550Y0257805D01*
X0976370Y0257465D01*
X0977250Y0257349D01*
X0978130Y0257465D01*
X0978950Y0257805D01*
X0979655Y0258345D01*
X0980195Y0259050D01*
X0980535Y0259870D01*
X0980651Y0260750D01*
X0980535Y0261630D01*
X0980195Y0262450D01*
X0979655Y0263155D01*
X0978950Y0263695D01*
X0978130Y0264035D01*
X0977250Y0264151D01*
D02*
G37*
G36*
X0967250D02*
X0966370Y0264035D01*
X0965550Y0263695D01*
X0964845Y0263155D01*
X0964305Y0262450D01*
X0963965Y0261630D01*
X0963849Y0260750D01*
X0963965Y0259870D01*
X0964305Y0259050D01*
X0964845Y0258345D01*
X0965550Y0257805D01*
X0966370Y0257465D01*
X0967250Y0257349D01*
X0968130Y0257465D01*
X0968950Y0257805D01*
X0969655Y0258345D01*
X0970195Y0259050D01*
X0970535Y0259870D01*
X0970651Y0260750D01*
X0970535Y0261630D01*
X0970195Y0262450D01*
X0969655Y0263155D01*
X0968950Y0263695D01*
X0968130Y0264035D01*
X0967250Y0264151D01*
D02*
G37*
G36*
X0592000Y0261083D02*
X0591073Y0260961D01*
X0590208Y0260603D01*
X0589466Y0260034D01*
X0588897Y0259292D01*
X0588539Y0258427D01*
X0588417Y0257500D01*
X0588539Y0256573D01*
X0588897Y0255708D01*
X0589466Y0254966D01*
X0590208Y0254397D01*
X0591073Y0254039D01*
X0592000Y0253917D01*
X0592928Y0254039D01*
X0593792Y0254397D01*
X0594534Y0254966D01*
X0595103Y0255708D01*
X0595461Y0256573D01*
X0595583Y0257500D01*
X0595461Y0258427D01*
X0595103Y0259292D01*
X0594534Y0260034D01*
X0593792Y0260603D01*
X0592928Y0260961D01*
X0592000Y0261083D01*
D02*
G37*
G36*
X0602000Y0251083D02*
X0601073Y0250961D01*
X0600208Y0250603D01*
X0599466Y0250034D01*
X0598897Y0249292D01*
X0598539Y0248427D01*
X0598417Y0247500D01*
X0598539Y0246573D01*
X0598897Y0245708D01*
X0599466Y0244966D01*
X0600208Y0244397D01*
X0601073Y0244039D01*
X0602000Y0243917D01*
X0602927Y0244039D01*
X0603792Y0244397D01*
X0604534Y0244966D01*
X0605103Y0245708D01*
X0605461Y0246573D01*
X0605583Y0247500D01*
X0605461Y0248427D01*
X0605103Y0249292D01*
X0604534Y0250034D01*
X0603792Y0250603D01*
X0602927Y0250961D01*
X0602000Y0251083D01*
D02*
G37*
G36*
X0592000D02*
X0591073Y0250961D01*
X0590208Y0250603D01*
X0589466Y0250034D01*
X0588897Y0249292D01*
X0588539Y0248427D01*
X0588417Y0247500D01*
X0588539Y0246573D01*
X0588897Y0245708D01*
X0589466Y0244966D01*
X0590208Y0244397D01*
X0591073Y0244039D01*
X0592000Y0243917D01*
X0592928Y0244039D01*
X0593792Y0244397D01*
X0594534Y0244966D01*
X0595103Y0245708D01*
X0595461Y0246573D01*
X0595583Y0247500D01*
X0595461Y0248427D01*
X0595103Y0249292D01*
X0594534Y0250034D01*
X0593792Y0250603D01*
X0592928Y0250961D01*
X0592000Y0251083D01*
D02*
G37*
G36*
X0663890Y0247497D02*
X0663168Y0247353D01*
X0662556Y0246944D01*
X0662147Y0246332D01*
X0662004Y0245610D01*
X0662147Y0244888D01*
X0662556Y0244276D01*
X0663168Y0243868D01*
X0663890Y0243724D01*
X0664612Y0243868D01*
X0665224Y0244276D01*
X0665632Y0244888D01*
X0665776Y0245610D01*
X0665632Y0246332D01*
X0665224Y0246944D01*
X0664612Y0247353D01*
X0663890Y0247497D01*
D02*
G37*
G36*
X0609000Y0252886D02*
X0608278Y0252743D01*
X0607666Y0252334D01*
X0607257Y0251722D01*
X0607114Y0251000D01*
X0607257Y0250278D01*
X0607666Y0249666D01*
X0608278Y0249257D01*
X0609000Y0249114D01*
X0609722Y0249257D01*
X0610334Y0249666D01*
X0610743Y0250278D01*
X0610886Y0251000D01*
X0610743Y0251722D01*
X0610334Y0252334D01*
X0609722Y0252743D01*
X0609000Y0252886D01*
D02*
G37*
G36*
X1044065Y0252386D02*
X1043343Y0252243D01*
X1042731Y0251834D01*
X1042322Y0251222D01*
X1042179Y0250500D01*
X1042322Y0249778D01*
X1042731Y0249166D01*
X1043343Y0248757D01*
X1044065Y0248614D01*
X1044787Y0248757D01*
X1045399Y0249166D01*
X1045808Y0249778D01*
X1045951Y0250500D01*
X1045808Y0251222D01*
X1045399Y0251834D01*
X1044787Y0252243D01*
X1044065Y0252386D01*
D02*
G37*
G36*
X1045750Y0248386D02*
X1045028Y0248243D01*
X1044416Y0247834D01*
X1044166Y0247460D01*
X1043584D01*
X1043334Y0247834D01*
X1042722Y0248243D01*
X1042000Y0248386D01*
X1041278Y0248243D01*
X1040666Y0247834D01*
X1040257Y0247222D01*
X1040114Y0246500D01*
X1040257Y0245778D01*
X1040666Y0245166D01*
X1041278Y0244757D01*
X1042000Y0244614D01*
X1042722Y0244757D01*
X1043334Y0245166D01*
X1043584Y0245540D01*
X1044166D01*
X1044416Y0245166D01*
X1045028Y0244757D01*
X1045750Y0244614D01*
X1046472Y0244757D01*
X1047084Y0245166D01*
X1047493Y0245778D01*
X1047636Y0246500D01*
X1047493Y0247222D01*
X1047084Y0247834D01*
X1046472Y0248243D01*
X1045750Y0248386D01*
D02*
G37*
G36*
X0749500Y0264886D02*
X0748778Y0264743D01*
X0748166Y0264334D01*
X0747757Y0263722D01*
X0747614Y0263000D01*
X0747757Y0262278D01*
X0748166Y0261666D01*
X0748778Y0261257D01*
X0749500Y0261114D01*
X0750222Y0261257D01*
X0750834Y0261666D01*
X0751243Y0262278D01*
X0751386Y0263000D01*
X0751243Y0263722D01*
X0750834Y0264334D01*
X0750222Y0264743D01*
X0749500Y0264886D01*
D02*
G37*
G36*
X0718750Y0264636D02*
X0718028Y0264493D01*
X0717416Y0264084D01*
X0717007Y0263472D01*
X0716864Y0262750D01*
X0717007Y0262028D01*
X0717416Y0261416D01*
X0718028Y0261007D01*
X0718750Y0260864D01*
X0719472Y0261007D01*
X0720084Y0261416D01*
X0720493Y0262028D01*
X0720636Y0262750D01*
X0720493Y0263472D01*
X0720084Y0264084D01*
X0719472Y0264493D01*
X0718750Y0264636D01*
D02*
G37*
G36*
X0820000Y0263886D02*
X0819278Y0263743D01*
X0818666Y0263334D01*
X0818257Y0262722D01*
X0818114Y0262000D01*
X0818257Y0261278D01*
X0818666Y0260666D01*
X0819278Y0260257D01*
X0820000Y0260114D01*
X0820722Y0260257D01*
X0821334Y0260666D01*
X0821743Y0261278D01*
X0821886Y0262000D01*
X0821743Y0262722D01*
X0821334Y0263334D01*
X0820722Y0263743D01*
X0820000Y0263886D01*
D02*
G37*
G36*
X0770000Y0264886D02*
X0769278Y0264743D01*
X0768666Y0264334D01*
X0768257Y0263722D01*
X0768114Y0263000D01*
X0768257Y0262278D01*
X0768666Y0261666D01*
X0769278Y0261257D01*
X0770000Y0261114D01*
X0770722Y0261257D01*
X0771334Y0261666D01*
X0771743Y0262278D01*
X0771886Y0263000D01*
X0771743Y0263722D01*
X0771334Y0264334D01*
X0770722Y0264743D01*
X0770000Y0264886D01*
D02*
G37*
G36*
X0763000D02*
X0762278Y0264743D01*
X0761666Y0264334D01*
X0761257Y0263722D01*
X0761114Y0263000D01*
X0761257Y0262278D01*
X0761666Y0261666D01*
X0762278Y0261257D01*
X0763000Y0261114D01*
X0763722Y0261257D01*
X0764334Y0261666D01*
X0764743Y0262278D01*
X0764886Y0263000D01*
X0764743Y0263722D01*
X0764334Y0264334D01*
X0763722Y0264743D01*
X0763000Y0264886D01*
D02*
G37*
G36*
X0755500D02*
X0754778Y0264743D01*
X0754166Y0264334D01*
X0753757Y0263722D01*
X0753614Y0263000D01*
X0753757Y0262278D01*
X0754166Y0261666D01*
X0754778Y0261257D01*
X0755500Y0261114D01*
X0756222Y0261257D01*
X0756834Y0261666D01*
X0757243Y0262278D01*
X0757386Y0263000D01*
X0757243Y0263722D01*
X0756834Y0264334D01*
X0756222Y0264743D01*
X0755500Y0264886D01*
D02*
G37*
G36*
X0731500Y0263886D02*
X0730778Y0263743D01*
X0730166Y0263334D01*
X0729757Y0262722D01*
X0729614Y0262000D01*
X0729757Y0261278D01*
X0730166Y0260666D01*
X0730778Y0260257D01*
X0731500Y0260114D01*
X0732222Y0260257D01*
X0732834Y0260666D01*
X0733243Y0261278D01*
X0733386Y0262000D01*
X0733243Y0262722D01*
X0732834Y0263334D01*
X0732222Y0263743D01*
X0731500Y0263886D01*
D02*
G37*
G36*
X0857500Y0262386D02*
X0856778Y0262243D01*
X0856166Y0261834D01*
X0855757Y0261222D01*
X0855614Y0260500D01*
X0855757Y0259778D01*
X0856166Y0259166D01*
X0856778Y0258757D01*
X0857500Y0258614D01*
X0858222Y0258757D01*
X0858834Y0259166D01*
X0859243Y0259778D01*
X0859386Y0260500D01*
X0859243Y0261222D01*
X0858834Y0261834D01*
X0858222Y0262243D01*
X0857500Y0262386D01*
D02*
G37*
G36*
X1017250Y0264151D02*
X1016370Y0264035D01*
X1015550Y0263695D01*
X1014845Y0263155D01*
X1014305Y0262450D01*
X1013965Y0261630D01*
X1013849Y0260750D01*
X1013965Y0259870D01*
X1014305Y0259050D01*
X1014845Y0258345D01*
X1015550Y0257805D01*
X1016370Y0257465D01*
X1017250Y0257349D01*
X1018130Y0257465D01*
X1018950Y0257805D01*
X1019655Y0258345D01*
X1020195Y0259050D01*
X1020535Y0259870D01*
X1020651Y0260750D01*
X1020535Y0261630D01*
X1020195Y0262450D01*
X1019655Y0263155D01*
X1018950Y0263695D01*
X1018130Y0264035D01*
X1017250Y0264151D01*
D02*
G37*
G36*
X1007250D02*
X1006370Y0264035D01*
X1005550Y0263695D01*
X1004845Y0263155D01*
X1004305Y0262450D01*
X1003965Y0261630D01*
X1003849Y0260750D01*
X1003965Y0259870D01*
X1004305Y0259050D01*
X1004845Y0258345D01*
X1005550Y0257805D01*
X1006370Y0257465D01*
X1007250Y0257349D01*
X1008130Y0257465D01*
X1008950Y0257805D01*
X1009655Y0258345D01*
X1010195Y0259050D01*
X1010535Y0259870D01*
X1010651Y0260750D01*
X1010535Y0261630D01*
X1010195Y0262450D01*
X1009655Y0263155D01*
X1008950Y0263695D01*
X1008130Y0264035D01*
X1007250Y0264151D01*
D02*
G37*
G36*
X0712750Y0263136D02*
X0712028Y0262993D01*
X0711416Y0262584D01*
X0711007Y0261972D01*
X0710864Y0261250D01*
X0711007Y0260528D01*
X0711416Y0259916D01*
X0712028Y0259507D01*
X0712750Y0259364D01*
X0713472Y0259507D01*
X0714084Y0259916D01*
X0714493Y0260528D01*
X0714636Y0261250D01*
X0714493Y0261972D01*
X0714084Y0262584D01*
X0713472Y0262993D01*
X0712750Y0263136D01*
D02*
G37*
G36*
X0699945Y0261000D02*
X0698250D01*
Y0259305D01*
X0698628Y0259381D01*
X0699372Y0259878D01*
X0699869Y0260622D01*
X0699945Y0261000D01*
D02*
G37*
G36*
X0697250D02*
X0695555D01*
X0695631Y0260622D01*
X0696128Y0259878D01*
X0696872Y0259381D01*
X0697250Y0259305D01*
Y0261000D01*
D02*
G37*
G36*
X0952695Y0234500D02*
X0951000D01*
Y0232805D01*
X0951378Y0232880D01*
X0952122Y0233378D01*
X0952619Y0234122D01*
X0952695Y0234500D01*
D02*
G37*
G36*
X0950000D02*
X0948305D01*
X0948381Y0234122D01*
X0948878Y0233378D01*
X0949622Y0232880D01*
X0950000Y0232805D01*
Y0234500D01*
D02*
G37*
G36*
X0842000Y0235886D02*
X0841278Y0235743D01*
X0840666Y0235334D01*
X0840257Y0234722D01*
X0840114Y0234000D01*
X0840257Y0233278D01*
X0840666Y0232666D01*
X0841278Y0232257D01*
X0842000Y0232114D01*
X0842722Y0232257D01*
X0843334Y0232666D01*
X0843743Y0233278D01*
X0843886Y0234000D01*
X0843743Y0234722D01*
X0843334Y0235334D01*
X0842722Y0235743D01*
X0842000Y0235886D01*
D02*
G37*
G36*
X0592000Y0241083D02*
X0591073Y0240961D01*
X0590208Y0240603D01*
X0589466Y0240034D01*
X0588897Y0239292D01*
X0588539Y0238427D01*
X0588417Y0237500D01*
X0588539Y0236573D01*
X0588897Y0235708D01*
X0589466Y0234966D01*
X0590208Y0234397D01*
X0591073Y0234039D01*
X0592000Y0233917D01*
X0592928Y0234039D01*
X0593792Y0234397D01*
X0594534Y0234966D01*
X0595103Y0235708D01*
X0595461Y0236573D01*
X0595583Y0237500D01*
X0595461Y0238427D01*
X0595103Y0239292D01*
X0594534Y0240034D01*
X0593792Y0240603D01*
X0592928Y0240961D01*
X0592000Y0241083D01*
D02*
G37*
G36*
X0781750Y0237386D02*
X0781028Y0237243D01*
X0780416Y0236834D01*
X0780007Y0236222D01*
X0779864Y0235500D01*
X0780007Y0234778D01*
X0780416Y0234166D01*
X0781028Y0233757D01*
X0781750Y0233614D01*
X0782472Y0233757D01*
X0783084Y0234166D01*
X0783493Y0234778D01*
X0783636Y0235500D01*
X0783493Y0236222D01*
X0783084Y0236834D01*
X0782472Y0237243D01*
X0781750Y0237386D01*
D02*
G37*
G36*
X0644750Y0235636D02*
X0644028Y0235493D01*
X0643416Y0235084D01*
X0643007Y0234472D01*
X0642864Y0233750D01*
X0642932Y0233407D01*
X0642886Y0233364D01*
X0642472Y0233159D01*
X0641972Y0233493D01*
X0641250Y0233636D01*
X0640528Y0233493D01*
X0639916Y0233084D01*
X0639507Y0232472D01*
X0639364Y0231750D01*
X0639507Y0231028D01*
X0639916Y0230416D01*
X0640528Y0230007D01*
X0641250Y0229864D01*
X0641972Y0230007D01*
X0642584Y0230416D01*
X0642993Y0231028D01*
X0643136Y0231750D01*
X0643068Y0232093D01*
X0643114Y0232136D01*
X0643528Y0232341D01*
X0644028Y0232007D01*
X0644750Y0231864D01*
X0645472Y0232007D01*
X0646084Y0232416D01*
X0646493Y0233028D01*
X0646636Y0233750D01*
X0646493Y0234472D01*
X0646084Y0235084D01*
X0645472Y0235493D01*
X0644750Y0235636D01*
D02*
G37*
G36*
X0957500Y0235386D02*
X0956778Y0235243D01*
X0956166Y0234834D01*
X0955757Y0234222D01*
X0955614Y0233500D01*
X0955757Y0232778D01*
X0956166Y0232166D01*
X0956778Y0231757D01*
X0957500Y0231614D01*
X0958222Y0231757D01*
X0958834Y0232166D01*
X0959243Y0232778D01*
X0959386Y0233500D01*
X0959243Y0234222D01*
X0958834Y0234834D01*
X0958222Y0235243D01*
X0957500Y0235386D01*
D02*
G37*
G36*
X0651750Y0233136D02*
X0651028Y0232993D01*
X0650416Y0232584D01*
X0650007Y0231972D01*
X0649864Y0231250D01*
X0650007Y0230528D01*
X0650416Y0229916D01*
X0651028Y0229507D01*
X0651750Y0229364D01*
X0651804Y0229374D01*
X0652202Y0228944D01*
X0652114Y0228500D01*
X0652257Y0227778D01*
X0652666Y0227166D01*
X0653278Y0226757D01*
X0654000Y0226614D01*
X0654722Y0226757D01*
X0655334Y0227166D01*
X0655743Y0227778D01*
X0655886Y0228500D01*
X0655743Y0229222D01*
X0655334Y0229834D01*
X0654722Y0230243D01*
X0654000Y0230386D01*
X0653946Y0230376D01*
X0653548Y0230806D01*
X0653636Y0231250D01*
X0653493Y0231972D01*
X0653084Y0232584D01*
X0652472Y0232993D01*
X0651750Y0233136D01*
D02*
G37*
G36*
X0632000Y0229886D02*
X0631278Y0229743D01*
X0630666Y0229334D01*
X0630257Y0228722D01*
X0630114Y0228000D01*
X0630257Y0227278D01*
X0630666Y0226666D01*
X0631278Y0226257D01*
X0632000Y0226114D01*
X0632722Y0226257D01*
X0633334Y0226666D01*
X0633743Y0227278D01*
X0633886Y0228000D01*
X0633743Y0228722D01*
X0633334Y0229334D01*
X0632722Y0229743D01*
X0632000Y0229886D01*
D02*
G37*
G36*
X0767750Y0229636D02*
X0767028Y0229493D01*
X0766416Y0229084D01*
X0766007Y0228472D01*
X0765864Y0227750D01*
X0766007Y0227028D01*
X0766416Y0226416D01*
X0767028Y0226007D01*
X0767750Y0225864D01*
X0768472Y0226007D01*
X0769084Y0226416D01*
X0769493Y0227028D01*
X0769636Y0227750D01*
X0769493Y0228472D01*
X0769084Y0229084D01*
X0768472Y0229493D01*
X0767750Y0229636D01*
D02*
G37*
G36*
X0615500Y0234386D02*
X0614778Y0234243D01*
X0614166Y0233834D01*
X0613757Y0233222D01*
X0613614Y0232500D01*
X0613757Y0231778D01*
X0614166Y0231166D01*
X0614778Y0230757D01*
X0615500Y0230614D01*
X0616222Y0230757D01*
X0616834Y0231166D01*
X0617243Y0231778D01*
X0617386Y0232500D01*
X0617243Y0233222D01*
X0616834Y0233834D01*
X0616222Y0234243D01*
X0615500Y0234386D01*
D02*
G37*
G36*
X0781000Y0232987D02*
X0780278Y0232843D01*
X0779666Y0232434D01*
X0779257Y0231822D01*
X0779114Y0231100D01*
X0779257Y0230379D01*
X0779666Y0229767D01*
X0780278Y0229358D01*
X0781000Y0229214D01*
X0781722Y0229358D01*
X0782334Y0229767D01*
X0782743Y0230379D01*
X0782886Y0231100D01*
X0782743Y0231822D01*
X0782334Y0232434D01*
X0781722Y0232843D01*
X0781000Y0232987D01*
D02*
G37*
G36*
X0944500Y0231886D02*
X0943778Y0231743D01*
X0943166Y0231334D01*
X0942757Y0230722D01*
X0942614Y0230000D01*
X0942757Y0229278D01*
X0943166Y0228666D01*
X0943778Y0228257D01*
X0944500Y0228114D01*
X0945222Y0228257D01*
X0945834Y0228666D01*
X0946243Y0229278D01*
X0946386Y0230000D01*
X0946243Y0230722D01*
X0945834Y0231334D01*
X0945222Y0231743D01*
X0944500Y0231886D01*
D02*
G37*
G36*
X0758500Y0244136D02*
X0757778Y0243993D01*
X0757166Y0243584D01*
X0756757Y0242972D01*
X0756614Y0242250D01*
X0756757Y0241528D01*
X0757166Y0240916D01*
X0757778Y0240507D01*
X0758500Y0240364D01*
X0759222Y0240507D01*
X0759834Y0240916D01*
X0760243Y0241528D01*
X0760386Y0242250D01*
X0760243Y0242972D01*
X0759834Y0243584D01*
X0759222Y0243993D01*
X0758500Y0244136D01*
D02*
G37*
G36*
X0735750D02*
X0735028Y0243993D01*
X0734416Y0243584D01*
X0734007Y0242972D01*
X0733864Y0242250D01*
X0734007Y0241528D01*
X0734416Y0240916D01*
X0735028Y0240507D01*
X0735750Y0240364D01*
X0736472Y0240507D01*
X0737084Y0240916D01*
X0737493Y0241528D01*
X0737636Y0242250D01*
X0737493Y0242972D01*
X0737084Y0243584D01*
X0736472Y0243993D01*
X0735750Y0244136D01*
D02*
G37*
G36*
X0902500Y0243886D02*
X0901778Y0243743D01*
X0901166Y0243334D01*
X0900757Y0242722D01*
X0900614Y0242000D01*
X0900757Y0241278D01*
X0901166Y0240666D01*
X0901778Y0240257D01*
X0902500Y0240114D01*
X0903222Y0240257D01*
X0903834Y0240666D01*
X0904243Y0241278D01*
X0904386Y0242000D01*
X0904243Y0242722D01*
X0903834Y0243334D01*
X0903222Y0243743D01*
X0902500Y0243886D01*
D02*
G37*
G36*
X0732500Y0247386D02*
X0731778Y0247243D01*
X0731166Y0246834D01*
X0730757Y0246222D01*
X0730614Y0245500D01*
X0730757Y0244778D01*
X0731166Y0244166D01*
X0731778Y0243757D01*
X0732500Y0243614D01*
X0733222Y0243757D01*
X0733834Y0244166D01*
X0734243Y0244778D01*
X0734386Y0245500D01*
X0734243Y0246222D01*
X0733834Y0246834D01*
X0733222Y0247243D01*
X0732500Y0247386D01*
D02*
G37*
G36*
X0720000Y0244386D02*
X0719278Y0244243D01*
X0718666Y0243834D01*
X0718257Y0243222D01*
X0718114Y0242500D01*
X0718257Y0241778D01*
X0718666Y0241166D01*
X0719278Y0240757D01*
X0720000Y0240614D01*
X0720722Y0240757D01*
X0721334Y0241166D01*
X0721743Y0241778D01*
X0721886Y0242500D01*
X0721743Y0243222D01*
X0721334Y0243834D01*
X0720722Y0244243D01*
X0720000Y0244386D01*
D02*
G37*
G36*
X0713500D02*
X0712778Y0244243D01*
X0712166Y0243834D01*
X0711757Y0243222D01*
X0711614Y0242500D01*
X0711757Y0241778D01*
X0712166Y0241166D01*
X0712778Y0240757D01*
X0713500Y0240614D01*
X0714222Y0240757D01*
X0714834Y0241166D01*
X0715243Y0241778D01*
X0715386Y0242500D01*
X0715243Y0243222D01*
X0714834Y0243834D01*
X0714222Y0244243D01*
X0713500Y0244386D01*
D02*
G37*
G36*
X0741500Y0243886D02*
X0740778Y0243743D01*
X0740166Y0243334D01*
X0739757Y0242722D01*
X0739614Y0242000D01*
X0739757Y0241278D01*
X0740166Y0240666D01*
X0740778Y0240257D01*
X0741500Y0240114D01*
X0742222Y0240257D01*
X0742834Y0240666D01*
X0743243Y0241278D01*
X0743386Y0242000D01*
X0743243Y0242722D01*
X0742834Y0243334D01*
X0742222Y0243743D01*
X0741500Y0243886D01*
D02*
G37*
G36*
X0950000Y0237195D02*
X0949622Y0237120D01*
X0948878Y0236622D01*
X0948381Y0235878D01*
X0948305Y0235500D01*
X0950000D01*
Y0237195D01*
D02*
G37*
G36*
X0652500Y0238886D02*
X0651778Y0238743D01*
X0651166Y0238334D01*
X0650757Y0237722D01*
X0650614Y0237000D01*
X0650757Y0236278D01*
X0651166Y0235666D01*
X0651778Y0235257D01*
X0652500Y0235114D01*
X0653222Y0235257D01*
X0653834Y0235666D01*
X0654243Y0236278D01*
X0654386Y0237000D01*
X0654243Y0237722D01*
X0653834Y0238334D01*
X0653222Y0238743D01*
X0652500Y0238886D01*
D02*
G37*
G36*
X0602000Y0241083D02*
X0601073Y0240961D01*
X0600208Y0240603D01*
X0599466Y0240034D01*
X0598897Y0239292D01*
X0598539Y0238427D01*
X0598417Y0237500D01*
X0598539Y0236573D01*
X0598897Y0235708D01*
X0599466Y0234966D01*
X0600208Y0234397D01*
X0601073Y0234039D01*
X0602000Y0233917D01*
X0602927Y0234039D01*
X0603792Y0234397D01*
X0604534Y0234966D01*
X0605103Y0235708D01*
X0605461Y0236573D01*
X0605583Y0237500D01*
X0605461Y0238427D01*
X0605103Y0239292D01*
X0604534Y0240034D01*
X0603792Y0240603D01*
X0602927Y0240961D01*
X0602000Y0241083D01*
D02*
G37*
G36*
X0951000Y0237195D02*
Y0235500D01*
X0952695D01*
X0952619Y0235878D01*
X0952122Y0236622D01*
X0951378Y0237120D01*
X0951000Y0237195D01*
D02*
G37*
G36*
X0753250Y0243636D02*
X0752528Y0243493D01*
X0751916Y0243084D01*
X0751507Y0242472D01*
X0751364Y0241750D01*
X0751507Y0241028D01*
X0751916Y0240416D01*
X0752528Y0240007D01*
X0753250Y0239864D01*
X0753972Y0240007D01*
X0754584Y0240416D01*
X0754993Y0241028D01*
X0755136Y0241750D01*
X0754993Y0242472D01*
X0754584Y0243084D01*
X0753972Y0243493D01*
X0753250Y0243636D01*
D02*
G37*
G36*
X0749250Y0241136D02*
X0748528Y0240993D01*
X0747916Y0240584D01*
X0747507Y0239972D01*
X0747364Y0239250D01*
X0747507Y0238528D01*
X0747916Y0237916D01*
X0748528Y0237507D01*
X0749250Y0237364D01*
X0749972Y0237507D01*
X0750584Y0237916D01*
X0750993Y0238528D01*
X0751136Y0239250D01*
X0750993Y0239972D01*
X0750584Y0240584D01*
X0749972Y0240993D01*
X0749250Y0241136D01*
D02*
G37*
%LPD*%
G36*
X0877101Y0258558D02*
Y0247500D01*
X0877291Y0247041D01*
X0877750Y0246851D01*
X0880424D01*
Y0215649D01*
X0879000D01*
X0878541Y0215459D01*
X0878351Y0215000D01*
Y0208960D01*
X0877851Y0208809D01*
X0877834Y0208834D01*
X0877222Y0209243D01*
X0876500Y0209386D01*
X0875778Y0209243D01*
X0875591Y0209117D01*
X0875091Y0209385D01*
Y0258851D01*
X0876500D01*
X0876600Y0258892D01*
X0877101Y0258558D01*
D02*
G37*
D38*
X0889000Y0259500D02*
Y0273750D01*
X0885000Y0213000D02*
Y0256500D01*
X0882000Y0259500D02*
X0883750Y0257750D01*
X0730750Y0209000D02*
Y0220000D01*
X0862250Y0227000D02*
Y0244750D01*
X0865500Y0248000D01*
X0768750Y0218500D02*
X0772250Y0222000D01*
X0834000D01*
X0836250Y0219750D01*
X0859750D01*
X0761750Y0206500D02*
Y0209750D01*
X0763500Y0211500D01*
X0859750Y0219750D02*
X0862250Y0222250D01*
Y0227000D01*
X0865500Y0248000D02*
Y0259750D01*
Y0263500D01*
X0768750Y0211500D02*
Y0218500D01*
X0763500Y0211500D02*
X0768750D01*
X0882750Y0280000D02*
X0889000Y0273750D01*
X0858000Y0280000D02*
X0882750D01*
X0830750Y0252750D02*
X0858000Y0280000D01*
X0768750Y0252750D02*
X0830750D01*
X0765750Y0249750D02*
X0768750Y0252750D01*
X0765750Y0237500D02*
Y0249750D01*
X0754500Y0226250D02*
X0765750Y0237500D01*
X0737000Y0226250D02*
X0754500D01*
X0730750Y0220000D02*
X0737000Y0226250D01*
D40*
X0872500Y0265500D02*
Y0269000D01*
Y0262000D02*
Y0265500D01*
X0871500Y0207500D02*
X0872500Y0208500D01*
Y0262000D01*
X0772500Y0189000D02*
Y0196750D01*
X0769250Y0185750D02*
X0772500Y0189000D01*
X0769250Y0180750D02*
Y0185750D01*
Y0180750D02*
X0773500Y0176500D01*
X0772500Y0205000D02*
X0773250Y0204250D01*
X0790500D01*
X0794250Y0208000D01*
D43*
X1051750Y0178000D02*
Y0276250D01*
Y0172000D02*
Y0178000D01*
X1198500Y0146750D02*
Y0160250D01*
X1193500Y0141750D02*
X1198500Y0146750D01*
X1169250Y0141750D02*
X1193500D01*
X1158750Y0152250D02*
X1169250Y0141750D01*
X1158750Y0152250D02*
Y0170250D01*
X1151000Y0178000D02*
X1158750Y0170250D01*
X1051750Y0178000D02*
X1151000D01*
X0807000Y0202500D02*
X0866500D01*
X0871500Y0207500D01*
X0704250Y0173500D02*
X0706250D01*
X0686750Y0191000D02*
X0704250Y0173500D01*
X0686750Y0191000D02*
Y0209250D01*
X0694000Y0216500D01*
Y0253000D01*
X0685500Y0261500D02*
X0694000Y0253000D01*
X0685500Y0261500D02*
Y0275250D01*
X0705750Y0295500D01*
X0725500D01*
X0740500Y0310500D01*
X0912750D01*
X0936500Y0334250D01*
X0947500D01*
X0980250D01*
X1003250Y0311250D01*
Y0294000D02*
Y0311250D01*
Y0294000D02*
X1021000Y0276250D01*
X1051750D01*
X0916284Y0156000D02*
Y0160533D01*
X0919000Y0163250D01*
X1043000D01*
X1051750Y0172000D01*
X0725500Y0169000D02*
X0737250D01*
X0739500Y0166750D01*
X0745500Y0149500D02*
Y0151250D01*
X0739500Y0155750D02*
Y0166750D01*
Y0155750D02*
X0744000Y0151250D01*
X0745500D01*
X0739500Y0166750D02*
X0754500D01*
X0759250Y0171500D01*
X0745500Y0149500D02*
X0748500Y0146500D01*
X0765250D01*
X0766250Y0147500D01*
D45*
X0770000Y0129750D02*
X0772458D01*
X0797000Y0154292D01*
Y0192500D02*
X0807000Y0202500D01*
X0797000Y0154292D02*
Y0192500D01*
D62*
X1198500Y0160250D02*
D03*
X0916284Y0156000D02*
D03*
D70*
X0862250Y0227000D02*
D03*
X0881500Y0124000D02*
D03*
X0912250Y0338500D02*
D03*
X0883000Y0329250D02*
D03*
X0764250Y0172500D02*
D03*
X0766250Y0147500D02*
D03*
X0739500Y0166750D02*
D03*
X0745500Y0151250D02*
D03*
X0773500Y0176500D02*
D03*
X0727250Y0133500D02*
D03*
X0747500Y0174500D02*
D03*
X0759250Y0171500D02*
D03*
X0686000Y0220500D02*
D03*
X0590750Y0330000D02*
D03*
X0596500D02*
D03*
X0948000Y0326750D02*
D03*
X0950500Y0235000D02*
D03*
X0908250Y0169250D02*
D03*
X0873000Y0148500D02*
D03*
X0956000Y0193000D02*
D03*
X0786500Y0157000D02*
D03*
X0955000Y0202000D02*
D03*
Y0209500D02*
D03*
Y0217500D02*
D03*
X0890000Y0249500D02*
D03*
Y0253000D02*
D03*
Y0256500D02*
D03*
X0888500Y0213000D02*
D03*
X0881500D02*
D03*
X0872500Y0269000D02*
D03*
X0871500Y0207500D02*
D03*
X0865500Y0263500D02*
D03*
X0857500Y0193500D02*
D03*
X0909500Y0179000D02*
D03*
X0801500Y0149500D02*
D03*
X0612500Y0279000D02*
D03*
X0681000Y0207000D02*
D03*
X0814500Y0185500D02*
D03*
X0881000Y0209250D02*
D03*
X0885000D02*
D03*
X0888250D02*
D03*
X0697750Y0261500D02*
D03*
X0771750Y0131000D02*
D03*
X0767750D02*
D03*
X0772500Y0196750D02*
D03*
X0735000Y0209000D02*
D03*
X0730750D02*
D03*
X0735000Y0205750D02*
D03*
Y0202000D02*
D03*
X0731500Y0205750D02*
D03*
X0706250Y0173500D02*
D03*
Y0169000D02*
D03*
X0710500D02*
D03*
Y0173500D02*
D03*
X0714250Y0169000D02*
D03*
Y0173500D02*
D03*
X0718000Y0169000D02*
D03*
Y0173500D02*
D03*
X0721750Y0169000D02*
D03*
Y0173500D02*
D03*
X0725500Y0169000D02*
D03*
Y0173500D02*
D03*
X0700750Y0155000D02*
D03*
X0705750D02*
D03*
X0710500D02*
D03*
X0715000Y0148750D02*
D03*
X0719750D02*
D03*
X0705750D02*
D03*
X0700750D02*
D03*
X0715000Y0155000D02*
D03*
X0710500Y0148750D02*
D03*
X0794250Y0208000D02*
D03*
X0761750Y0206500D02*
D03*
X0885000Y0213000D02*
D03*
X0882000Y0259500D02*
D03*
X0889000D02*
D03*
X0885500D02*
D03*
X0872500Y0262000D02*
D03*
X0763500Y0211500D02*
D03*
X0865500Y0259750D02*
D03*
X0768750Y0211500D02*
D03*
X0768250Y0205000D02*
D03*
X0772500D02*
D03*
X0719750Y0155000D02*
D03*
X0772500Y0200750D02*
D03*
X0886750Y0255000D02*
D03*
Y0251250D02*
D03*
X0872500Y0265500D02*
D03*
X0875500Y0267500D02*
D03*
X0875250Y0263750D02*
D03*
X0947500Y0334250D02*
D03*
X0611750Y0132500D02*
D03*
X0767750Y0127750D02*
D03*
X0771750D02*
D03*
D84*
X0769750Y0129250D02*
D03*
D85*
X0885375Y0211000D02*
D03*
D86*
X0885500Y0255625D02*
D03*
D87*
X0731625Y0205500D02*
D03*
D88*
X0873625Y0265250D02*
D03*
D89*
X0715875Y0171500D02*
D03*
D90*
X0770625Y0201000D02*
D03*
M02*
