M48
;Layer_Color=9474304
;FILE_FORMAT=2:5
INCH
;TYPE=PLATED
T1F00S00C0.00787
T2F00S00C0.01496
T3F00S00C0.01500
T4F00S00C0.03543
T5F00S00C0.03937
T6F00S00C0.04016
T7F00S00C0.04134
T8F00S00C0.04200
T9F00S00C0.05512
T10F00S00C0.06299
;TYPE=NON_PLATED
T11F00S00C0.04724
T12F00S00C0.06102
T13F00S00C0.06693
T14F00S00C0.10000
T15F00S00C0.12598
T16F00S00C0.12992
%
T01
X0986506Y0293553
Y0297884
Y0302215
Y0306545
Y0310876
X0990837
X0995167
X0999498
X1003829
X1008159
X1012490
Y0306545
X1008159
X1003829
X0999498
X0995167
X0990837
Y0302215
X0995167
X0999498
X1003829
X1008159
X1012490
Y0297884
X1008159
X1003829
X0999498
X0995167
X0990837
Y0293553
X0995167
X0999498
X1003829
X1008159
X1012490
Y0315207
Y0319537
X1008159
X1003829
X0999498
X0995167
X0990837
X0986506
Y0315207
X0990837
X0995167
X0999498
X1003829
X1008159
T02
X0621498Y0113545
X0639998Y0114045
X0778248Y0115795
X0786998Y0131295
X0810498Y0147795
X0847248Y0144045
X0850248Y0138795
X0849748Y0152545
X0887998Y0132545
X0902998
X0900998Y0135545
X0897201Y0140093
X0909498Y0143295
X0909248Y0148045
X0927248Y0149295
X0930998Y0139295
X0934748Y0132295
X0917748Y0134045
X0993748Y0128795
X1011248
X1148998Y0123295
X1176998Y0115795
X1187248Y0154795
X1197498Y0160045
X1172748Y0159545
X1172498Y0165545
X1176498Y0173795
X1158748Y0176545
X1157998Y0227295
X1174248Y0226795
X1177748Y0223795
X1173748Y0214545
X1183248Y0209795
X1193498Y0205795
X1201748Y0200295
X1207998
X1210748Y0213295
X1210498Y0216545
X1205998Y0222545
X1196748Y0223045
X1193248Y0219545
X1196248Y0237295
X1202498Y0237795
X1204998Y0185795
X1102998
X1109748Y0202295
X1139498Y0232795
X1173248Y0266795
X1173498Y0272795
X1174248Y0288295
X1167248Y0309045
X1162748Y0311545
X1192748Y0306545
X1198998
X1210248Y0287795
X1044998Y0285545
X1044248Y0279795
X1041748Y0273795
X1046748Y0261545
X1045498Y0256545
X1046998Y0252545
X1036998Y0248545
X1028748Y0243045
X1018248Y0246045
Y0251795
X1013998Y0249545
X1007998Y0243045
X1001248Y0250545
X0998498Y0253045
X1006998Y0259045
X1009198Y0274995
X1010748Y0278394
X1014748Y0276295
X1016248Y0273045
X0997998Y0273795
X0998498Y0269545
X0968498Y0271295
X0973498Y0262295
X0968748Y0255295
X0972248Y0246795
X0971498Y0231545
X0974248Y0229045
X0966059Y0231235
X0963584Y0233710
X0962998Y0223045
X0960998Y0207795
Y0196795
X0949248Y0202045
X0950498Y0211295
X0983248Y0202045
X0979248Y0193295
X0978998Y0184295
X0983248Y0183295
X1036748Y0234045
X1041748Y0234545
X1031248Y0264045
X1025248Y0291008
Y0294508
X1037498Y0299795
Y0304795
X1037248Y0310045
X1021248Y0311545
X1044248Y0293045
X0977498Y0298295
X0979248Y0285295
X0974748
X0956248Y0284295
X0957498Y0290045
X0958498Y0298545
X0961498Y0302045
X0961248Y0308045
X0948998Y0286795
X0946748Y0283045
X0956248Y0276545
X0888929Y0291699
X0882142
X0869748Y0291045
X0853295Y0297445
X0847045Y0297695
X0836998Y0303295
X0837998Y0309545
X0843248Y0278545
X0840248Y0274795
X0848498Y0275795
X0836498Y0264295
X0831998Y0263795
X0827248Y0255795
X0825248Y0246545
X0817748Y0234795
X0819998Y0231545
X0800248Y0228795
X0802248Y0214545
X0800248Y0190045
X0794998Y0186295
X0808998Y0193795
X0813498Y0180295
X0812748Y0172795
X0823248Y0179295
X0821248Y0187545
X0828998Y0184295
X0833498Y0159545
X0854248Y0169795
X0851998Y0198295
X0873748Y0241295
X0877498Y0250045
X0909748Y0220545
X0913748Y0212295
X0927498Y0210295
X0927748Y0204295
X0920748Y0190295
X0915748Y0181545
X0928248Y0168140
X0934498Y0167545
X0900748Y0163045
X0812248Y0263045
X0805748Y0263545
X0802998Y0267045
X0813748Y0290045
X0760498Y0308295
X0733748Y0309045
X0708795Y0303045
X0705295
X0689248Y0308045
X0676248Y0296545
X0642498Y0292795
Y0288545
X0642248Y0284795
Y0280795
Y0276795
X0639248Y0267045
Y0263045
X0637998Y0246045
X0643248Y0246295
X0630998Y0252795
X0654748Y0206045
X0654498Y0200045
X0647498Y0157795
X0711498Y0268295
X0714998Y0274545
X0714748Y0279045
X0719998Y0271795
X0620998Y0237795
X0621998Y0231295
X0670748Y0323295
X0656998Y0344295
X0693248Y0356545
X0700998Y0355795
X0705295
X0708795
X0713748Y0356295
X0711748Y0323295
X0717248Y0324295
X0729748Y0326295
X0732248Y0324045
X0737248Y0322795
X0742748Y0323045
X0760748Y0323545
X0765498Y0326045
X0769998Y0324045
X0727748Y0329045
X0825748Y0328545
X0829248Y0326545
X0840998Y0327295
X0843248Y0324045
X0846748Y0341795
X0832998
X0822998Y0341545
X0826248Y0355295
X0828998Y0357545
X0835498Y0357045
X0840248Y0355533
X0845248Y0355795
X0857748Y0348295
X0868248
X0890248Y0342045
X0896748Y0341795
X0894998Y0336795
X0906998Y0338795
X0908248Y0355795
X0921748Y0357545
X0920248Y0348295
X0890248Y0356795
X0966248Y0330545
X0969498Y0327545
Y0321295
X0961498Y0313545
X0997248Y0331545
X1003748Y0328795
X1020748Y0330545
X1022498Y0337545
X1017498Y0338545
X1040248Y0327545
X1036998Y0322545
Y0317045
X1104998Y0349545
X1115748
X1161998Y0340545
X1188498Y0330045
X1204498Y0328045
X1173248Y0313045
T03
X0646248Y0148795
X0650748
X0846998Y0138795
X0896498Y0117795
X0907248
X0915248
X0925998
X1166272Y0133272
X1159248Y0253295
X1159498Y0260295
X1027998Y0285795
X1018998Y0283295
X1020998Y0299545
X1021498Y0306795
X0977748Y0308045
X0973998Y0295719
X0975866Y0290913
X0984248Y0274795
X0993498Y0280545
X0954248Y0196295
X0853998Y0178045
X0851248Y0180295
X0839998Y0171795
X0841998Y0166045
X0823998Y0172795
X0812998Y0166295
X0784248Y0166545
X0785998Y0159545
X0781998
X0800248Y0193795
X0802248Y0211295
X0834998Y0271795
X0829748Y0308295
X0822793Y0309152
X0815707
X0808620
X0801533
X0794447
X0787360
X0870248Y0308045
X0780274Y0309152
X0773187
X0766100
X0738748Y0309295
X0692748Y0308045
Y0304795
X0689248
X0677998Y0309045
X0674748
X0667748Y0308045
X0664248
Y0304295
X0667748
X0676248Y0299545
X0628498Y0304358
X0628748Y0292547
X0632451Y0245795
X0634248Y0194295
X0631498Y0191795
X0650498Y0157795
X0653998
X0696498Y0188295
Y0192045
X0700748
Y0188295
X0752748Y0176795
Y0173045
Y0169295
Y0165545
Y0161795
Y0158045
X0756498
Y0161795
Y0165545
Y0169295
Y0173045
Y0176795
X0766248Y0159545
X0770248
X0774248
X0777998
X0776748Y0166545
X0780498
X0774248Y0354939
X0767248
X0760248
X0752998
X0745998
X0738998
X0731998
X0724748
X0717748
X0685998Y0353795
Y0356795
X0682248Y0355939
X0678498Y0355795
X0675248
X0663998Y0355295
Y0351295
Y0347045
X0682248Y0323795
X0702248Y0322939
X0628331Y0327980
Y0316169
X0781498Y0354939
X0788498
X0795748
X0802748
X0809748
X0816998Y0355189
X0852321Y0355222
X0873498Y0355189
X0880748
X0886498Y0356545
X0894998Y0354439
X0901748
X0886498Y0322939
X0879498
X0872248
X0851248
X0969998Y0337045
X0985498Y0335795
X0993748Y0329795
X0977998Y0313045
X1021248Y0317545
T04
X0669998Y0116545
Y0126545
Y0136545
Y0146545
X0851748Y0131545
Y0121545
X0861748
Y0131545
X0871748
Y0121545
X1141498Y0161295
Y0171295
Y0181295
Y0191295
Y0201295
X1151498
Y0191295
Y0181295
Y0171295
Y0161295
X1147890Y0241673
X1137890
Y0251673
X1147890
Y0261673
X1137890
Y0271673
X1147890
Y0281673
X1137890
Y0291673
X1147890
Y0301673
X1137890
Y0311673
X1147890
X1033724Y0218295
X1025732
X1017740
X1021736Y0208295
X1029728
X1031756Y0180264
X0987740
X0989768Y0208295
X0997760
X0669998Y0186545
Y0176545
Y0166545
X0603248Y0185295
X0593248
Y0195295
Y0205295
X0603248
Y0215295
X0593248
Y0225295
X0603248
Y0235295
X0593248
Y0245295
X0603248
Y0255295
X0593248
Y0265295
X0603248
Y0275295
X0593248
Y0285295
X0603248
Y0295295
X0593248
Y0305295
X0603248
Y0195295
Y0315295
X0593248
Y0325295
X0603248
X1137890Y0321673
X1147890
T05
X0810248Y0127045
X0820248
X0830248
X0945685Y0153856
X0951039Y0149919
Y0157793
Y0165667
Y0173541
T06
X0985752Y0228295
X0995752
X1023744
X1033744
T07
X1114604Y0191504
Y0230904
Y0260461
Y0270304
Y0280204
Y0299804
Y0309704
X1102104Y0250604
X1080904
X1058504
Y0261704
Y0280204
Y0290004
Y0299804
Y0211204
Y0171804
X1092304
T08
X1114311Y0171795
X1086502Y0318004
X1067604
X1105404
T09
X0940331Y0147045
X0961748
Y0174604
X0940331
T10
X0698748Y0119795
X0728748
X0748748
X0977996Y0135775
X1041500
X0778748Y0199795
X0738748
X0698748
T11
X0659998Y0332187
T12
X1105649Y0293449
X1067756Y0293252
T13
X0922990Y0332187
T14
X0711228Y0119795
X0766228
Y0199795
X0711228
T15
X0600248Y0121295
X1198673
X0600248Y0345705
X0997886Y0345705
X1198673Y0345705
T16
X0984748Y0148295
X1034748
M30
