M48
;Layer_Color=9474304
;FILE_FORMAT=2:5
INCH
;TYPE=PLATED
T1F00S00C0.00787
T2F00S00C0.01181
T3F00S00C0.01496
T5F00S00C0.02362
T6F00S00C0.03543
T7F00S00C0.03937
T8F00S00C0.04016
T9F00S00C0.04134
T10F00S00C0.04200
T11F00S00C0.04331
T12F00S00C0.05118
T13F00S00C0.06299
T14F00S00C0.09055
T15F00S00C0.12598
;TYPE=NON_PLATED
T16F00S00C0.02756
T17F00S00C0.04724
T18F00S00C0.06102
T19F00S00C0.06693
T20F00S00C0.10000
T21F00S00C0.12992
%
T01
X0984087Y0325059
Y0329390
Y0333720
Y0338051
Y0342382
Y0346713
Y0351043
X0988417
Y0346713
X0992748
X0997079
Y0351043
X1001409
X1005740
X1010071
Y0346713
X1005740
X1001409
Y0342382
X0997079
X0992748
X0988417
Y0338051
X0992748
X0997079
X1001409
X1005740
Y0342382
X1010071
Y0338051
Y0333720
X1005740
X1001409
X0997079
X0992748
X0988417
Y0329390
X0992748
X0997079
X1001409
Y0325059
X0997079
X0992748
X0988417
X1005740
Y0329390
X1010071
Y0325059
X0992748Y0351043
T02
X0786862Y0117260
X0794343
X0794736Y0130842
X0786961Y0130744
X0787256Y0145311
Y0148756
X0790799
Y0145311
X0794343
Y0148756
X1135412Y0198464
X0952709Y0192457
X0948969
X0952709Y0187959
X0947984Y0177102
X0944047
X0912551Y0205941
X0901921Y0246000
X0898772
X0895622
Y0249543
X0898772
X0901921
X0885287Y0250134
Y0246984
Y0243835
X0881744
Y0246984
Y0250134
X0876429Y0249346
X0873673
X0873772Y0246197
X0876528
Y0243047
X0873772
X0858319Y0238224
X0824165Y0221492
X0820622
X0817177
Y0217949
X0820622
X0824165
X0824362Y0180842
X0840307Y0180795
X0804185Y0180744
Y0184189
Y0187535
X0800642
Y0184189
Y0180744
X0791291Y0223362
X0874067Y0295901
Y0299051
Y0302201
X0877610
Y0299051
Y0295901
X0883024Y0295803
Y0298953
Y0302102
X0886567
Y0298953
Y0295803
X0890898Y0295901
Y0299051
Y0302201
X0894441
Y0299051
Y0295901
X0676035Y0194524
Y0191276
Y0188028
Y0184780
T03
X0628496Y0151906
X0673083Y0137634
X0676035Y0137535
X0678988Y0138028
X0689323Y0129661
X0691685Y0150429
X0768752Y0142161
X0790799Y0130785
X0790307Y0123362
X0790498Y0117295
X0793457Y0111650
X0841248Y0116545
X0841390Y0129071
X0856998Y0136795
X0872394Y0138028
X0879185Y0139504
X0880248Y0134795
X0879579Y0149937
X0895917Y0152890
X1148181Y0131039
X1140701Y0115488
X1167669Y0119720
X1170032Y0134287
X1177217Y0129858
X1194835Y0152594
X1198476Y0157122
X1197984Y0171394
X1198279Y0179563
X1198476Y0184878
X1187748Y0192063
X1182433Y0191571
X1162846Y0190193
X1151035Y0189799
X1136665Y0191669
X1134303Y0194622
X1126823Y0194524
X1118850Y0201709
X1123378Y0212240
X1125372Y0215788
X1129382Y0214701
X1122000Y0227299
X1121705Y0259878
X1162158Y0268933
X1164224Y0243539
X1167866Y0235567
X1171213Y0236157
X1180760Y0232909
X1192472Y0224740
X1190602Y0251217
X1184697Y0251413
X1187846Y0279760
X1191390Y0307122
X1154382Y0235173
X1146803Y0203972
X1170327Y0207319
X1172886Y0211256
X1171114Y0179563
X1179677Y0158992
X1044736Y0193736
X1042177Y0269032
X1041776Y0276561
X1043850Y0284819
X1042571Y0303579
X1048969Y0303512
X1051429Y0299051
X1039717Y0309583
X1026844Y0304080
X1025248Y0294819
X1014717Y0283598
X1010583Y0283106
X1001823Y0278579
X1002709Y0272575
X0997787Y0266669
X0994244Y0245803
X0988339Y0239996
X0966783Y0242260
X0956350Y0248264
Y0251764
X0955760Y0255817
Y0259317
X0942669Y0262732
X0940307Y0265390
X0970130Y0282122
X0979283Y0296492
X0989618Y0300528
X0988929Y0303972
X0975346Y0308795
X0965504Y0303579
X0946705Y0310961
X1003594Y0311354
X1006252Y0307220
X1020839Y0273854
X1025346Y0271295
X1020807Y0259376
X1017768Y0245901
X1008909Y0245803
X1082335Y0281925
X0949037Y0188028
X0947998Y0181295
X0944061
X0931941Y0186748
X0928791Y0188716
X0917079Y0186846
X0913831Y0188716
X0905760Y0176709
X0890012Y0174346
X0891291Y0169819
X0887551Y0164012
X0879382Y0162831
X0876724Y0170803
X0877217Y0174150
X0871114Y0175626
X0870228Y0181335
X0853498Y0184795
X0856498Y0160795
X0861998Y0160545
X0870524Y0160468
X0849748Y0160545
X0832998Y0168545
X0810583Y0168342
X0805563Y0166405
X0797394Y0167051
X0812498Y0173795
X0822787Y0191964
X0826724Y0193835
X0830748Y0191545
X0839498Y0212795
X0860386Y0215094
X0873575Y0216276
X0875642Y0231532
X0877512Y0237437
X0869343Y0248559
X0858417Y0249642
X0850051Y0239504
X0841980Y0245901
X0835583Y0248362
X0828102Y0243047
X0821939Y0249112
X0815898Y0249838
X0814126Y0246689
X0814913Y0238028
X0813732Y0233500
X0805366Y0249346
X0801035Y0249543
X0790504Y0249445
X0785386Y0249248
X0781252
X0794441Y0224150
X0797787Y0222378
X0800642Y0208008
X0795917Y0203579
X0811370Y0205055
X0787157Y0183303
X0877610Y0197181
X0883713Y0192063
X0885189Y0203972
X0894539Y0223756
X0899658Y0233697
X0918063Y0224642
X0916488Y0210764
X0924165Y0237732
X0887748Y0281433
X0882039Y0280744
X0870524Y0280449
X0858713Y0295213
X0851626Y0294524
X0837453Y0294228
X0830366Y0294720
X0823181Y0294425
X0816193Y0294819
X0802020
X0797295Y0300724
X0793949Y0303283
X0791390Y0296492
X0787809Y0294648
X0825150Y0263224
X0828693Y0263028
X0836173Y0263224
X0773083Y0249150
X0766390Y0246689
X0763043Y0248559
X0757728Y0248953
X0751921Y0248854
X0743358Y0248067
X0739520Y0248362
X0734659Y0248400
X0731252Y0247280
X0720819Y0247870
X0717669Y0248067
X0706153Y0249248
X0706252Y0244917
X0709008Y0240882
X0710090Y0235764
X0709894Y0263323
X0715406Y0264110
X0719539Y0264504
X0727709Y0263815
X0731941Y0263126
X0731116Y0294648
X0738203
X0745289
X0752376
X0759463
X0763142Y0297378
X0766549Y0294648
X0773636
X0780722
X0773772Y0310665
X0715996Y0307614
X0710779Y0307220
Y0296295
X0716882Y0294917
X0721409Y0297181
X0724067Y0295016
X0687650Y0295705
X0665307Y0297378
X0661567Y0300626
X0651232Y0301217
X0649165Y0298559
X0646213Y0296492
X0651823Y0282220
X0660250Y0282577
X0667337Y0282443
X0673378Y0282024
X0666094Y0267358
X0666685Y0262634
X0656843Y0263398
X0643358Y0262240
X0650740Y0249445
X0654087Y0248461
X0658909Y0248559
X0663339Y0247673
X0666488Y0245606
X0670527Y0246400
X0673969Y0244720
X0675445Y0247673
X0678201Y0245016
X0683516Y0245114
X0685090Y0248264
X0689815Y0249445
X0689716Y0244130
X0689028Y0263323
X0695228Y0265193
X0680169Y0262831
X0673181Y0308106
X0670228Y0311256
X0632335Y0238126
X0625642Y0197968
X0640012Y0192457
X0645917Y0202201
X0650642Y0204366
X0655071Y0207614
X0639323Y0161945
X0779087Y0162240
X0774756Y0211256
X0737748Y0220016
X0734402Y0221787
X0730366Y0222378
X0726331Y0221689
X0746311Y0237437
X0622689Y0266965
X0621606Y0271394
X0599559Y0388028
X0655169Y0375823
X0671213Y0346590
X0667177Y0332220
X0667374Y0316472
X0671213Y0315980
X0682531Y0312831
X0687354
X0693063Y0313520
X0702216Y0330941
X0703201Y0338323
X0714028Y0340980
X0714323Y0334976
X0718457Y0345311
X0697394Y0348461
X0691783Y0345508
X0693063Y0353874
X0705760Y0357713
X0706646Y0388421
X0691390Y0388224
X0741882Y0373657
X0742965Y0369720
X0744244Y0366571
X0725937Y0324051
X0778693Y0340193
X0782728Y0342850
X0783220Y0359189
X0782925Y0379957
X0810484Y0363224
X0825445Y0369425
X0824953Y0377594
X0881055Y0374543
X0923673Y0372378
X0924559Y0354268
X0925051Y0342653
X0924461Y0330646
X0925248Y0318933
X0913535Y0351512
X0960590Y0345051
Y0339551
X0960976Y0334780
X0960376Y0331087
X0975819Y0331161
X0971876Y0316587
X0962256Y0313028
X1000150Y0313421
X1021036Y0320321
X1024658Y0320409
X1029579Y0321197
X1035484Y0319917
X1027118Y0326905
X1023083Y0327398
X1028201Y0331925
X1026134Y0343342
X1024658Y0350134
X1026134Y0356433
X1021311Y0360567
X1018555Y0352693
X1011862Y0366177
X1009402Y0368933
X0999953Y0374543
X0996114Y0375134
X1000642Y0362142
X0984402Y0365980
X0976203Y0362801
X0969638Y0364012
X0968543Y0353098
X0967866Y0348657
X0974854Y0348953
X1040701Y0350232
X1041291Y0340094
X1041882Y0364012
X1043949Y0367555
X1041882Y0378776
X1058220Y0349937
X1160779Y0345409
X1158909Y0333992
X1161862Y0327594
X1175051Y0319622
X1187650Y0320508
X1186075Y0335862
X1176429Y0338618
X1169441Y0366472
X1162059Y0371492
X1194047Y0369032
X1193752Y0386453
X1185878Y0394032
T05
X0593845Y0114892
X0591193Y0121295
X0593845Y0127698
X0600248Y0130350
X0606651Y0127698
X0609303Y0121295
X0606651Y0114892
X0600248Y0112240
X1192270Y0114892
X1189618Y0121295
X1192270Y0127698
X1198673Y0130350
X1205076Y0127698
X1207728Y0121295
X1205076Y0114892
X1198673Y0112240
X0692571Y0296689
X0606651Y0339302
X0600248Y0336650
X0593845Y0339302
X0591193Y0345705
X0593845Y0352108
X0600248Y0354760
X0606651Y0352108
X0609303Y0345705
X1189618
X1192270Y0339302
X1198673Y0336650
X1205076Y0339302
X1207728Y0345705
X1205076Y0352108
X1198673Y0354760
X1192270Y0352108
T06
X0815748Y0121795
Y0131795
X0825748
Y0121795
X0835748
Y0131795
X1137886Y0271118
X1147886
Y0281118
X1137886
Y0291118
X1147886
Y0301118
X1137886
Y0311118
X1147886
X1033724Y0218295
X1025732
X1017740
X1021736Y0208295
X1029728
X1031756Y0180264
X0987740
X0989768Y0208295
X0997760
X0609264Y0212988
Y0222988
Y0232988
Y0242988
Y0252988
Y0262988
Y0272988
Y0282988
Y0292988
Y0302988
X0599264
Y0292988
Y0282988
Y0272988
Y0262988
Y0252988
Y0242988
Y0232988
Y0222988
Y0212988
Y0202988
X0609264
Y0192988
X0599264
Y0182988
X0609264
Y0312988
Y0322988
X0599264
Y0312988
X1137886Y0321118
X1147886
Y0331118
X1137886
Y0341118
X1147886
Y0351118
X1137886
Y0361118
X1147886
Y0371118
X1137886
T07
X0915781Y0154295
X0925624
X0933498
X0943340
X1143752Y0155154
X1153594
X1161469
X1171311
Y0165488
X1161469
X1153594
X1143752
X0943340Y0164630
X0933498
X0925624
X0915781
T08
X0985752Y0228295
X0995752
X1023744
X1033744
T09
X1114604Y0230874
Y0270274
Y0299832
Y0309674
X1102104Y0289974
X1080904
X1058504
Y0301074
Y0250574
Y0211174
X1092304
X1058504Y0319574
Y0329374
Y0339174
X1114604
Y0349074
Y0319574
T10
X1114311Y0211165
X1086502Y0357374
X1067604
X1105404
T11
X0623378Y0114996
Y0124996
X1130937Y0246984
X1140937
X1150937
T12
X0644498Y0119795
X0658278
T13
X0682748Y0119045
X0712748
X0732748
X0977996Y0135775
X1041500
X0762748Y0199045
X0722748
X0682748
T14
X0903774Y0143626
X0955742
X1131744Y0144484
X1183713
Y0166846
X1131744
X0955742Y0165988
X0903774
T15
X0600248Y0121295
X1198673
X0600248Y0345705
X1198673
T16
X0861764Y0121689
X0877709
T17
X0900998Y0272404
T18
X1067756Y0332622
X1105649Y0332819
T19
X0638006Y0272404
T20
X0695228Y0119045
X0750228
Y0199045
X0695228
T21
X0984748Y0148295
X1034748
M30
