G04*
G04 #@! TF.GenerationSoftware,Altium Limited,Altium Designer,21.2.2 (38)*
G04*
G04 Layer_Color=8388736*
%FSAX25Y25*%
%MOIN*%
G70*
G04*
G04 #@! TF.SameCoordinates,D0FF6B23-36CC-4740-AB7B-40CE6848005B*
G04*
G04*
G04 #@! TF.FilePolarity,Negative*
G04*
G01*
G75*
%ADD75R,0.04343X0.03162*%
%ADD76C,0.06706*%
%ADD77R,0.06706X0.06706*%
%ADD78R,0.04724X0.01575*%
%ADD79R,0.01575X0.04724*%
%ADD80R,0.08268X0.08268*%
%ADD81R,0.03162X0.04343*%
%ADD82R,0.03950X0.03950*%
%ADD83R,0.03162X0.06902*%
%ADD84R,0.05524X0.07887*%
%ADD85R,0.03162X0.04737*%
%ADD86R,0.03950X0.03950*%
G04:AMPARAMS|DCode=87|XSize=14.96mil|YSize=31.1mil|CornerRadius=4.17mil|HoleSize=0mil|Usage=FLASHONLY|Rotation=270.000|XOffset=0mil|YOffset=0mil|HoleType=Round|Shape=RoundedRectangle|*
%AMROUNDEDRECTD87*
21,1,0.01496,0.02276,0,0,270.0*
21,1,0.00661,0.03110,0,0,270.0*
1,1,0.00835,-0.01138,-0.00331*
1,1,0.00835,-0.01138,0.00331*
1,1,0.00835,0.01138,0.00331*
1,1,0.00835,0.01138,-0.00331*
%
%ADD87ROUNDEDRECTD87*%
G04:AMPARAMS|DCode=88|XSize=14.96mil|YSize=31.1mil|CornerRadius=4.17mil|HoleSize=0mil|Usage=FLASHONLY|Rotation=180.000|XOffset=0mil|YOffset=0mil|HoleType=Round|Shape=RoundedRectangle|*
%AMROUNDEDRECTD88*
21,1,0.01496,0.02276,0,0,180.0*
21,1,0.00661,0.03110,0,0,180.0*
1,1,0.00835,-0.00331,0.01138*
1,1,0.00835,0.00331,0.01138*
1,1,0.00835,0.00331,-0.01138*
1,1,0.00835,-0.00331,-0.01138*
%
%ADD88ROUNDEDRECTD88*%
%ADD89R,0.03110X0.01496*%
%ADD90R,0.01496X0.03110*%
%ADD91R,0.29134X0.29134*%
%ADD92C,0.12000*%
%ADD93R,0.03753X0.01981*%
%ADD94R,0.04068X0.07296*%
%ADD95R,0.04343X0.05918*%
%ADD96R,0.05918X0.04343*%
%ADD97R,0.07099X0.04343*%
%ADD98P,0.05586X4X180.0*%
%ADD99P,0.05586X4X90.0*%
%ADD100R,0.18517X0.18910*%
%ADD101R,0.02178X0.08674*%
%ADD102R,0.07296X0.03162*%
%ADD103R,0.12611X0.06706*%
%ADD104R,0.14973X0.06706*%
%ADD105R,0.02375X0.04147*%
G04:AMPARAMS|DCode=106|XSize=31.62mil|YSize=43.43mil|CornerRadius=0mil|HoleSize=0mil|Usage=FLASHONLY|Rotation=135.000|XOffset=0mil|YOffset=0mil|HoleType=Round|Shape=Rectangle|*
%AMROTATEDRECTD106*
4,1,4,0.02654,0.00418,-0.00418,-0.02654,-0.02654,-0.00418,0.00418,0.02654,0.02654,0.00418,0.0*
%
%ADD106ROTATEDRECTD106*%

G04:AMPARAMS|DCode=107|XSize=31.62mil|YSize=43.43mil|CornerRadius=0mil|HoleSize=0mil|Usage=FLASHONLY|Rotation=45.000|XOffset=0mil|YOffset=0mil|HoleType=Round|Shape=Rectangle|*
%AMROTATEDRECTD107*
4,1,4,0.00418,-0.02654,-0.02654,0.00418,-0.00418,0.02654,0.02654,-0.00418,0.00418,-0.02654,0.0*
%
%ADD107ROTATEDRECTD107*%

%ADD108R,0.01784X0.04737*%
%ADD109R,0.10642X0.07493*%
%ADD110R,0.04737X0.08083*%
%ADD111R,0.13398X0.08083*%
%ADD112R,0.01981X0.06115*%
G04:AMPARAMS|DCode=113|XSize=63.12mil|YSize=51.31mil|CornerRadius=0mil|HoleSize=0mil|Usage=FLASHONLY|Rotation=225.000|XOffset=0mil|YOffset=0mil|HoleType=Round|Shape=Rectangle|*
%AMROTATEDRECTD113*
4,1,4,0.00418,0.04046,0.04046,0.00418,-0.00418,-0.04046,-0.04046,-0.00418,0.00418,0.04046,0.0*
%
%ADD113ROTATEDRECTD113*%

%ADD114R,0.06706X0.14973*%
%ADD115R,0.04343X0.07099*%
%ADD116R,0.08280X0.06115*%
%ADD117R,0.05406X0.07887*%
%ADD118R,0.03753X0.05131*%
%ADD119R,0.06902X0.06115*%
%ADD120R,0.05524X0.04737*%
%ADD121R,0.07099X0.08083*%
%ADD122R,0.06312X0.03162*%
%ADD123R,0.02572X0.05131*%
%ADD124R,0.10446X0.06902*%
%ADD125R,0.05524X0.06312*%
%ADD126R,0.06902X0.08280*%
%ADD127R,0.01968X0.05906*%
%ADD128C,0.11824*%
%ADD129C,0.06343*%
%ADD130C,0.21850*%
%ADD131R,0.00800X0.00800*%
%ADD132R,0.06706X0.06706*%
%ADD133C,0.06312*%
%ADD134R,0.08674X0.08674*%
%ADD135C,0.06902*%
%ADD136C,0.00800*%
%ADD137C,0.05721*%
%ADD138C,0.10249*%
%ADD139C,0.06824*%
%ADD140R,0.08674X0.07099*%
%ADD141O,0.08674X0.07099*%
%ADD142R,0.08280X0.08280*%
%ADD143C,0.08280*%
%ADD144C,0.07493*%
%ADD145R,0.07493X0.07493*%
%ADD146O,0.04737X0.07099*%
D75*
X0985626Y0363098D02*
D03*
Y0369004D02*
D03*
X0978894Y0363150D02*
D03*
Y0369055D02*
D03*
X0972142Y0363146D02*
D03*
Y0369051D02*
D03*
X0965421Y0363122D02*
D03*
Y0369027D02*
D03*
X0687207Y0308506D02*
D03*
Y0302600D02*
D03*
X0680419Y0308506D02*
D03*
Y0302600D02*
D03*
X0802498Y0122843D02*
D03*
Y0128748D02*
D03*
X0846998Y0124045D02*
D03*
Y0129951D02*
D03*
X0860248Y0169998D02*
D03*
Y0164093D02*
D03*
X0874658Y0178776D02*
D03*
Y0184681D02*
D03*
X1136665Y0187240D02*
D03*
Y0181335D02*
D03*
X0868555Y0229760D02*
D03*
Y0223854D02*
D03*
X0862453Y0229760D02*
D03*
Y0223854D02*
D03*
X0986469Y0298362D02*
D03*
Y0304268D02*
D03*
X1048083Y0247378D02*
D03*
Y0241472D02*
D03*
X1033614Y0247181D02*
D03*
Y0241276D02*
D03*
X0992157Y0369031D02*
D03*
Y0363126D02*
D03*
X1037945Y0298362D02*
D03*
Y0304268D02*
D03*
X1135248Y0134498D02*
D03*
Y0128593D02*
D03*
X1159998Y0134498D02*
D03*
Y0128593D02*
D03*
X1175346Y0176709D02*
D03*
Y0182614D02*
D03*
X1187551Y0176709D02*
D03*
Y0182614D02*
D03*
X1181449Y0176709D02*
D03*
Y0182614D02*
D03*
X1193653Y0176709D02*
D03*
Y0182614D02*
D03*
X1048969Y0198559D02*
D03*
Y0204465D02*
D03*
X1047984Y0339307D02*
D03*
Y0345213D02*
D03*
X0643850Y0196394D02*
D03*
Y0190488D02*
D03*
X0643653Y0176118D02*
D03*
Y0182024D02*
D03*
X0893752Y0165291D02*
D03*
Y0159386D02*
D03*
X0907433Y0205842D02*
D03*
Y0199937D02*
D03*
X0918653Y0235567D02*
D03*
Y0229661D02*
D03*
X1193850Y0219720D02*
D03*
Y0213815D02*
D03*
X1186075Y0231827D02*
D03*
Y0237732D02*
D03*
X1147098Y0208401D02*
D03*
Y0214307D02*
D03*
X1130563Y0187240D02*
D03*
Y0181335D02*
D03*
D76*
X1147886Y0271118D02*
D03*
X1137886D02*
D03*
X1147886Y0281118D02*
D03*
X1137886D02*
D03*
Y0291118D02*
D03*
X1147886D02*
D03*
Y0301118D02*
D03*
X1137886D02*
D03*
Y0311118D02*
D03*
X1147886D02*
D03*
Y0321118D02*
D03*
X1137886D02*
D03*
Y0331118D02*
D03*
X1147886D02*
D03*
Y0341118D02*
D03*
X1137886D02*
D03*
Y0351118D02*
D03*
X1147886D02*
D03*
X1137886Y0361118D02*
D03*
X1147886D02*
D03*
Y0371118D02*
D03*
X0788831Y0161945D02*
D03*
X0806646Y0212535D02*
D03*
X0847591Y0245606D02*
D03*
X0860386Y0244130D02*
D03*
X0769146Y0215587D02*
D03*
X0935681Y0272772D02*
D03*
X0934106Y0257614D02*
D03*
X1032925Y0363028D02*
D03*
X0854677Y0130646D02*
D03*
X0846114Y0142850D02*
D03*
X0815748Y0131795D02*
D03*
X0825748Y0121795D02*
D03*
Y0131795D02*
D03*
X0835748Y0121795D02*
D03*
Y0131795D02*
D03*
X0609264Y0322988D02*
D03*
X0599264Y0312988D02*
D03*
X0609264D02*
D03*
X0599264Y0302988D02*
D03*
X0609264D02*
D03*
X0599264Y0292988D02*
D03*
X0609264D02*
D03*
X0599264Y0282988D02*
D03*
X0609264D02*
D03*
X0599264Y0272988D02*
D03*
X0609264D02*
D03*
X0599264Y0262988D02*
D03*
X0609264D02*
D03*
X0599264Y0252988D02*
D03*
X0609264D02*
D03*
X0599264Y0242988D02*
D03*
X0609264D02*
D03*
X0599264Y0232988D02*
D03*
X0609264D02*
D03*
X0599264Y0222988D02*
D03*
X0609264D02*
D03*
X0599264Y0212988D02*
D03*
X0609264D02*
D03*
X0599264Y0202988D02*
D03*
X0609264D02*
D03*
X0599264Y0192988D02*
D03*
X0609264D02*
D03*
X0599264Y0182988D02*
D03*
X0609264D02*
D03*
D77*
X1137886Y0371118D02*
D03*
X0599264Y0322988D02*
D03*
D78*
X0753398Y0318933D02*
D03*
Y0321492D02*
D03*
Y0324051D02*
D03*
Y0326610D02*
D03*
X0738043D02*
D03*
Y0324051D02*
D03*
Y0321492D02*
D03*
Y0318933D02*
D03*
D79*
X0749559Y0330449D02*
D03*
X0747000D02*
D03*
X0744441D02*
D03*
X0741882D02*
D03*
Y0315094D02*
D03*
X0744441D02*
D03*
X0747000D02*
D03*
X0749559D02*
D03*
D80*
X0745720Y0322772D02*
D03*
D81*
X0733713Y0310370D02*
D03*
X0727807D02*
D03*
X0741094Y0303185D02*
D03*
X0735189D02*
D03*
X1033811Y0378087D02*
D03*
X1039717D02*
D03*
X1033713Y0384976D02*
D03*
X1039618D02*
D03*
X0990209Y0381335D02*
D03*
X0996114D02*
D03*
X0990209Y0388126D02*
D03*
X0996114D02*
D03*
X0838795Y0166545D02*
D03*
X0844701D02*
D03*
X0835482Y0371069D02*
D03*
X0829577D02*
D03*
X0835530Y0377569D02*
D03*
X0829624D02*
D03*
X0841390Y0238224D02*
D03*
X0835484D02*
D03*
X0841403Y0232189D02*
D03*
X0835498D02*
D03*
X1155858Y0230252D02*
D03*
X1161764D02*
D03*
X0621114Y0238913D02*
D03*
X0627020D02*
D03*
X0626331Y0192555D02*
D03*
X0620425D02*
D03*
X0620425Y0186551D02*
D03*
X0626331D02*
D03*
X0986370Y0292063D02*
D03*
X0992276D02*
D03*
X0971705Y0302988D02*
D03*
X0977610D02*
D03*
X0972197Y0333205D02*
D03*
X0966291D02*
D03*
X0972197Y0242063D02*
D03*
X0978102D02*
D03*
X0960006Y0309399D02*
D03*
X0965911D02*
D03*
X1031252Y0355744D02*
D03*
X1037158D02*
D03*
X0844045Y0150045D02*
D03*
X0849951D02*
D03*
X0854045Y0141795D02*
D03*
X0859951D02*
D03*
X0599461Y0382417D02*
D03*
X0605366D02*
D03*
X1165504Y0313815D02*
D03*
X1171409D02*
D03*
X1165492Y0319837D02*
D03*
X1171398D02*
D03*
X1165307Y0338618D02*
D03*
X1171213D02*
D03*
X1165492Y0332337D02*
D03*
X1171398D02*
D03*
X1174547Y0224892D02*
D03*
X1168642D02*
D03*
X1168642Y0230892D02*
D03*
X1174547D02*
D03*
X1165405Y0326118D02*
D03*
X1171311D02*
D03*
X1174854Y0244720D02*
D03*
X1168949D02*
D03*
X1168850Y0250724D02*
D03*
X1174756D02*
D03*
X1165492Y0307693D02*
D03*
X1171398D02*
D03*
X1165492Y0301587D02*
D03*
X1171398D02*
D03*
X0880366Y0158795D02*
D03*
X0886272D02*
D03*
X0894244Y0176118D02*
D03*
X0900150D02*
D03*
D82*
X0764913Y0309681D02*
D03*
Y0303776D02*
D03*
X0758713Y0309583D02*
D03*
Y0303677D02*
D03*
X0693161Y0308598D02*
D03*
Y0302693D02*
D03*
X1020130Y0241571D02*
D03*
Y0247476D02*
D03*
X0993752Y0241669D02*
D03*
Y0247575D02*
D03*
X1041587Y0241374D02*
D03*
Y0247280D02*
D03*
X0972984Y0351315D02*
D03*
Y0357220D02*
D03*
X1007905Y0369524D02*
D03*
Y0363618D02*
D03*
X0992228Y0298559D02*
D03*
Y0304465D02*
D03*
X1035681Y0313717D02*
D03*
Y0319622D02*
D03*
X1001134Y0297378D02*
D03*
Y0303283D02*
D03*
X1025150Y0365390D02*
D03*
Y0359484D02*
D03*
X1019650Y0365390D02*
D03*
Y0359484D02*
D03*
X0878201Y0215685D02*
D03*
Y0221590D02*
D03*
X1165110Y0365390D02*
D03*
Y0359484D02*
D03*
X1165043Y0394338D02*
D03*
Y0388433D02*
D03*
X1171311Y0346787D02*
D03*
Y0352693D02*
D03*
X1178224Y0336035D02*
D03*
Y0330130D02*
D03*
X1171606Y0374858D02*
D03*
Y0380764D02*
D03*
X1165110Y0346787D02*
D03*
Y0352693D02*
D03*
X1178173Y0317783D02*
D03*
Y0323689D02*
D03*
X1165043Y0374933D02*
D03*
Y0380839D02*
D03*
X0802498Y0111146D02*
D03*
Y0117445D02*
D03*
X0846998Y0111396D02*
D03*
Y0117695D02*
D03*
X1135248Y0115896D02*
D03*
Y0122195D02*
D03*
X1159998Y0115896D02*
D03*
Y0122195D02*
D03*
X1029480Y0313618D02*
D03*
Y0319524D02*
D03*
X0917768Y0221000D02*
D03*
Y0215094D02*
D03*
D83*
X1008220Y0384927D02*
D03*
X1012158D02*
D03*
X1016094D02*
D03*
X1020032D02*
D03*
X0965602D02*
D03*
X0969539D02*
D03*
X0973476D02*
D03*
X0977413D02*
D03*
D84*
X1025150Y0394868D02*
D03*
X1003102D02*
D03*
X0982532D02*
D03*
X0960484D02*
D03*
D85*
X1010779Y0266276D02*
D03*
X1007039D02*
D03*
X1003299D02*
D03*
Y0255449D02*
D03*
X1007039D02*
D03*
X1010779D02*
D03*
X0915110Y0193441D02*
D03*
Y0182614D02*
D03*
X0918850D02*
D03*
X0911370D02*
D03*
X0918850Y0193441D02*
D03*
X0911370D02*
D03*
X0930366D02*
D03*
X0926626Y0182614D02*
D03*
X0930366D02*
D03*
X0934106D02*
D03*
Y0193441D02*
D03*
X0926626D02*
D03*
X1168260Y0194720D02*
D03*
X1164520D02*
D03*
X1160779D02*
D03*
Y0183894D02*
D03*
X1164520D02*
D03*
X1168260D02*
D03*
X1152610Y0194720D02*
D03*
X1148870D02*
D03*
X1145130D02*
D03*
Y0183894D02*
D03*
X1148870D02*
D03*
X1152610D02*
D03*
D86*
X1010091Y0241571D02*
D03*
X1004185D02*
D03*
X0844951Y0160545D02*
D03*
X0839045D02*
D03*
X0716587Y0302791D02*
D03*
X0710681D02*
D03*
X1184697Y0256433D02*
D03*
X1190602D02*
D03*
X1190799Y0301512D02*
D03*
X1184894D02*
D03*
X0894441Y0375429D02*
D03*
X0888535D02*
D03*
X1004185Y0247870D02*
D03*
X1010091D02*
D03*
X0965799Y0296590D02*
D03*
X0971705D02*
D03*
X0964626Y0339551D02*
D03*
X0970531D02*
D03*
X1031055Y0349248D02*
D03*
X1025150D02*
D03*
X0960376Y0327051D02*
D03*
X0966282D02*
D03*
X0971876Y0315504D02*
D03*
X0977781D02*
D03*
X0971876Y0309276D02*
D03*
X0977781D02*
D03*
X1031055Y0343146D02*
D03*
X1025150D02*
D03*
X1031646Y0331827D02*
D03*
X1025740D02*
D03*
X1023772Y0317260D02*
D03*
X1017866D02*
D03*
X0960376Y0321551D02*
D03*
X0966282D02*
D03*
X0964626Y0345051D02*
D03*
X0970531D02*
D03*
X0894244Y0182516D02*
D03*
X0900150D02*
D03*
X1173732Y0386677D02*
D03*
X1179638D02*
D03*
X1174370Y0366988D02*
D03*
X1180276D02*
D03*
X0960376Y0316051D02*
D03*
X0966282D02*
D03*
X0667965Y0320901D02*
D03*
X0673870D02*
D03*
X0667965Y0327890D02*
D03*
X0673870D02*
D03*
X0888535Y0179957D02*
D03*
X0882630D02*
D03*
X0908319Y0211748D02*
D03*
X0902413D02*
D03*
X1187945Y0196000D02*
D03*
X1193850D02*
D03*
X1181646D02*
D03*
X1175740D02*
D03*
X1123575Y0201807D02*
D03*
X1129480D02*
D03*
X1135583Y0201905D02*
D03*
X1141488D02*
D03*
D87*
X0980110Y0323287D02*
D03*
X1014047D02*
D03*
Y0352815D02*
D03*
X0980110D02*
D03*
D88*
X0982315Y0321083D02*
D03*
X1011843Y0355020D02*
D03*
X0982315D02*
D03*
X1011843Y0321083D02*
D03*
D89*
X1014047Y0325256D02*
D03*
Y0327224D02*
D03*
Y0329193D02*
D03*
Y0331161D02*
D03*
Y0333130D02*
D03*
Y0335098D02*
D03*
Y0337067D02*
D03*
Y0339035D02*
D03*
Y0341004D02*
D03*
Y0342972D02*
D03*
Y0344941D02*
D03*
Y0346909D02*
D03*
Y0348878D02*
D03*
Y0350846D02*
D03*
X0980110D02*
D03*
Y0348878D02*
D03*
Y0346909D02*
D03*
Y0344941D02*
D03*
Y0342972D02*
D03*
Y0341004D02*
D03*
Y0339035D02*
D03*
Y0337067D02*
D03*
Y0335098D02*
D03*
Y0333130D02*
D03*
Y0331161D02*
D03*
Y0329193D02*
D03*
Y0327224D02*
D03*
Y0325256D02*
D03*
D90*
X1009874Y0355020D02*
D03*
X1007905D02*
D03*
X1005937D02*
D03*
X1003969D02*
D03*
X1002000D02*
D03*
X1000031D02*
D03*
X0998063D02*
D03*
X0996094D02*
D03*
X0994126D02*
D03*
X0992157D02*
D03*
X0990189D02*
D03*
X0988220D02*
D03*
X0986252D02*
D03*
X0984283D02*
D03*
Y0321083D02*
D03*
X0986252D02*
D03*
X0988220D02*
D03*
X0990189D02*
D03*
X0992157D02*
D03*
X0994126D02*
D03*
X0996094D02*
D03*
X0998063D02*
D03*
X1000031D02*
D03*
X1002000D02*
D03*
X1003969D02*
D03*
X1005937D02*
D03*
X1007905D02*
D03*
X1009874D02*
D03*
D91*
X0997079Y0338051D02*
D03*
D92*
X0617571Y0389898D02*
D03*
X0938240Y0285370D02*
D03*
X1202498Y0390045D02*
D03*
D93*
X0901291Y0199248D02*
D03*
Y0201807D02*
D03*
Y0204366D02*
D03*
X0893496Y0199248D02*
D03*
Y0201807D02*
D03*
Y0204366D02*
D03*
X0911331Y0226610D02*
D03*
Y0229169D02*
D03*
Y0231728D02*
D03*
X0903535Y0226610D02*
D03*
Y0229169D02*
D03*
Y0231728D02*
D03*
X1187906Y0211354D02*
D03*
Y0213913D02*
D03*
Y0216472D02*
D03*
X1180110Y0211354D02*
D03*
Y0213913D02*
D03*
Y0216472D02*
D03*
X1140563Y0216768D02*
D03*
Y0219327D02*
D03*
Y0221886D02*
D03*
X1132768Y0216768D02*
D03*
Y0219327D02*
D03*
Y0221886D02*
D03*
D94*
X0897394Y0201807D02*
D03*
X0907433Y0229169D02*
D03*
X1184008Y0213913D02*
D03*
X1136665Y0219327D02*
D03*
D95*
X0810008Y0193795D02*
D03*
X0817488D02*
D03*
X1179776Y0359799D02*
D03*
X1172295D02*
D03*
X1179677Y0393264D02*
D03*
X1172197D02*
D03*
X0607531Y0374150D02*
D03*
X0600051D02*
D03*
X0900937Y0189406D02*
D03*
X0893457D02*
D03*
X0910386Y0218736D02*
D03*
X0902905D02*
D03*
X1188634Y0203480D02*
D03*
X1181153D02*
D03*
X1140799Y0208697D02*
D03*
X1133319D02*
D03*
D96*
X0805498Y0154055D02*
D03*
Y0161535D02*
D03*
X0797498Y0154055D02*
D03*
Y0161535D02*
D03*
X0827498Y0205785D02*
D03*
Y0198305D02*
D03*
X0845998Y0187535D02*
D03*
Y0180055D02*
D03*
X0819498Y0174055D02*
D03*
Y0181535D02*
D03*
X0816998Y0212785D02*
D03*
Y0205305D02*
D03*
X0779498Y0199305D02*
D03*
Y0206785D02*
D03*
Y0192785D02*
D03*
Y0185305D02*
D03*
X1178890Y0344819D02*
D03*
Y0352299D02*
D03*
X1180169Y0373087D02*
D03*
Y0380567D02*
D03*
D97*
X0780248Y0130648D02*
D03*
Y0118443D02*
D03*
X0883713Y0198264D02*
D03*
Y0186059D02*
D03*
X0894835Y0229465D02*
D03*
Y0217260D02*
D03*
X0959498Y0189754D02*
D03*
Y0178337D02*
D03*
X1172591Y0215291D02*
D03*
Y0203087D02*
D03*
X1125346Y0221000D02*
D03*
Y0208795D02*
D03*
D98*
X0996135Y0280329D02*
D03*
X0991959Y0284505D02*
D03*
D99*
X1019125Y0290369D02*
D03*
X1023300Y0294545D02*
D03*
X1031863Y0303206D02*
D03*
X1027688Y0299030D02*
D03*
D100*
X0641746Y0319648D02*
D03*
X0897258D02*
D03*
D101*
X0644896Y0256262D02*
D03*
X0647258D02*
D03*
X0649620D02*
D03*
X0651982D02*
D03*
X0654344D02*
D03*
X0656707D02*
D03*
X0659069D02*
D03*
X0661431D02*
D03*
X0663793D02*
D03*
X0666155D02*
D03*
X0668518D02*
D03*
X0670880D02*
D03*
X0673242D02*
D03*
X0675604D02*
D03*
X0677966D02*
D03*
X0680329D02*
D03*
X0682691D02*
D03*
X0685053D02*
D03*
X0687415D02*
D03*
X0689778D02*
D03*
X0646077Y0288545D02*
D03*
X0648439D02*
D03*
X0650801D02*
D03*
X0653163D02*
D03*
X0655526D02*
D03*
X0657888D02*
D03*
X0660250D02*
D03*
X0662612D02*
D03*
X0664974D02*
D03*
X0667337D02*
D03*
X0669699D02*
D03*
X0672061D02*
D03*
X0674423D02*
D03*
X0676785D02*
D03*
X0679148D02*
D03*
X0681510D02*
D03*
X0683872D02*
D03*
X0686234D02*
D03*
X0688596D02*
D03*
X0690959D02*
D03*
X0706313Y0256262D02*
D03*
X0708675D02*
D03*
X0711037D02*
D03*
X0713400D02*
D03*
X0715762D02*
D03*
X0718124D02*
D03*
X0720486D02*
D03*
X0722848D02*
D03*
X0725211D02*
D03*
X0727573D02*
D03*
X0729935D02*
D03*
X0732297D02*
D03*
X0734659D02*
D03*
X0737022D02*
D03*
X0739384D02*
D03*
X0741746D02*
D03*
X0744108D02*
D03*
X0746470D02*
D03*
X0748833D02*
D03*
X0751195D02*
D03*
X0753557D02*
D03*
X0755919D02*
D03*
X0758282D02*
D03*
X0760644D02*
D03*
X0763006D02*
D03*
X0765368D02*
D03*
X0767730D02*
D03*
X0770092D02*
D03*
X0772455D02*
D03*
X0774817D02*
D03*
X0777179D02*
D03*
X0779541D02*
D03*
X0781904D02*
D03*
X0784266D02*
D03*
X0786628D02*
D03*
X0788990D02*
D03*
X0791352D02*
D03*
X0793715D02*
D03*
X0796077D02*
D03*
X0798439D02*
D03*
X0800801D02*
D03*
X0803163D02*
D03*
X0805526D02*
D03*
X0807888D02*
D03*
X0810250D02*
D03*
X0812612D02*
D03*
X0814974D02*
D03*
X0817337D02*
D03*
X0819699D02*
D03*
X0822061D02*
D03*
X0824423D02*
D03*
X0826785D02*
D03*
X0829148D02*
D03*
X0836234D02*
D03*
X0838596D02*
D03*
X0840959D02*
D03*
X0843321D02*
D03*
X0850408D02*
D03*
X0857494D02*
D03*
X0859856D02*
D03*
X0862218D02*
D03*
X0864581D02*
D03*
X0866943D02*
D03*
X0869305D02*
D03*
X0871667D02*
D03*
X0874030D02*
D03*
X0876392D02*
D03*
X0878754D02*
D03*
X0881116D02*
D03*
X0883478D02*
D03*
X0885841D02*
D03*
X0888203D02*
D03*
X0890565D02*
D03*
X0892927D02*
D03*
X0707494Y0288545D02*
D03*
X0709856D02*
D03*
X0712219D02*
D03*
X0714581D02*
D03*
X0716943D02*
D03*
X0719305D02*
D03*
X0721667D02*
D03*
X0724029D02*
D03*
X0726392D02*
D03*
X0728754D02*
D03*
X0731116D02*
D03*
X0733478D02*
D03*
X0735841D02*
D03*
X0738203D02*
D03*
X0740565D02*
D03*
X0742927D02*
D03*
X0745289D02*
D03*
X0747651D02*
D03*
X0750014D02*
D03*
X0752376D02*
D03*
X0754738D02*
D03*
X0757100D02*
D03*
X0759463D02*
D03*
X0761825D02*
D03*
X0764187D02*
D03*
X0766549D02*
D03*
X0768911D02*
D03*
X0771274D02*
D03*
X0773636D02*
D03*
X0775998D02*
D03*
X0778360D02*
D03*
X0780722D02*
D03*
X0783085D02*
D03*
X0785447D02*
D03*
X0787809D02*
D03*
X0790171D02*
D03*
X0792533D02*
D03*
X0794896D02*
D03*
X0797258D02*
D03*
X0799620D02*
D03*
X0801982D02*
D03*
X0804344D02*
D03*
X0806707D02*
D03*
X0809069D02*
D03*
X0811431D02*
D03*
X0813793D02*
D03*
X0816156D02*
D03*
X0818518D02*
D03*
X0820880D02*
D03*
X0823242D02*
D03*
X0825604D02*
D03*
X0827966D02*
D03*
X0830329D02*
D03*
X0832691D02*
D03*
X0835053D02*
D03*
X0837415D02*
D03*
X0839777D02*
D03*
X0842140D02*
D03*
X0844502D02*
D03*
X0846864D02*
D03*
X0849226D02*
D03*
X0851589D02*
D03*
X0853951D02*
D03*
X0856313D02*
D03*
X0858675D02*
D03*
X0861037D02*
D03*
X0863400D02*
D03*
X0865762D02*
D03*
X0868124D02*
D03*
X0870486D02*
D03*
X0872848D02*
D03*
X0875211D02*
D03*
X0877573D02*
D03*
X0879935D02*
D03*
X0882297D02*
D03*
X0884659D02*
D03*
X0887022D02*
D03*
X0889384D02*
D03*
X0891746D02*
D03*
X0894108D02*
D03*
X0855132Y0256262D02*
D03*
X0852770D02*
D03*
X0848045D02*
D03*
X0845683D02*
D03*
X0833872D02*
D03*
X0831510D02*
D03*
D102*
X0932039Y0350429D02*
D03*
Y0346492D02*
D03*
Y0318933D02*
D03*
Y0330744D02*
D03*
Y0334681D02*
D03*
Y0338618D02*
D03*
Y0342555D02*
D03*
Y0354366D02*
D03*
Y0358303D02*
D03*
Y0362240D02*
D03*
Y0366177D02*
D03*
Y0370114D02*
D03*
Y0374051D02*
D03*
X0946705D02*
D03*
Y0370114D02*
D03*
Y0366177D02*
D03*
Y0362240D02*
D03*
Y0358303D02*
D03*
Y0354366D02*
D03*
Y0350429D02*
D03*
Y0346492D02*
D03*
Y0342555D02*
D03*
Y0338618D02*
D03*
Y0334681D02*
D03*
Y0330744D02*
D03*
Y0326807D02*
D03*
Y0322870D02*
D03*
Y0318933D02*
D03*
X0932039Y0326807D02*
D03*
Y0322870D02*
D03*
D103*
X0617669Y0148401D02*
D03*
X0599953Y0163401D02*
D03*
Y0153402D02*
D03*
Y0143402D02*
D03*
X0617669Y0168402D02*
D03*
Y0158402D02*
D03*
D104*
X0841248Y0195041D02*
D03*
Y0207049D02*
D03*
D105*
X0871114Y0166374D02*
D03*
X0875051D02*
D03*
X0873083Y0173067D02*
D03*
X0885484Y0173165D02*
D03*
X0881547D02*
D03*
X0883516Y0166472D02*
D03*
X0859717Y0156892D02*
D03*
X0855779D02*
D03*
X0857748Y0150199D02*
D03*
X0888966Y0150142D02*
D03*
X0885030D02*
D03*
X0886998Y0143449D02*
D03*
X0874854Y0150134D02*
D03*
X0870917D02*
D03*
X0872886Y0143441D02*
D03*
D106*
X1007749Y0287810D02*
D03*
X1003574Y0291986D02*
D03*
D107*
X1009381Y0308774D02*
D03*
X1013556Y0312950D02*
D03*
D108*
X0836177Y0187488D02*
D03*
X0834406D02*
D03*
X0832634D02*
D03*
X0830862D02*
D03*
X0827319D02*
D03*
Y0174102D02*
D03*
X0829090Y0187488D02*
D03*
Y0174102D02*
D03*
X0830862D02*
D03*
X0832634D02*
D03*
X0834406D02*
D03*
X0836177D02*
D03*
D109*
X0831748Y0180795D02*
D03*
D110*
X1169047Y0266965D02*
D03*
X1178102D02*
D03*
X1187158D02*
D03*
D111*
X1178102Y0291965D02*
D03*
D112*
X0867177Y0191276D02*
D03*
X0873083Y0208795D02*
D03*
X0871114D02*
D03*
X0865209D02*
D03*
X0873083Y0191276D02*
D03*
X0871114D02*
D03*
X0869146D02*
D03*
Y0208795D02*
D03*
X0867177D02*
D03*
X0865209Y0191276D02*
D03*
D113*
X1017720Y0298289D02*
D03*
X1019390Y0308868D02*
D03*
X1023845Y0304414D02*
D03*
X1013266Y0302744D02*
D03*
D114*
X0828002Y0160045D02*
D03*
X0815994D02*
D03*
D115*
X0611961Y0364602D02*
D03*
X0599756D02*
D03*
X0799707Y0195045D02*
D03*
X0788289D02*
D03*
X0960957Y0226295D02*
D03*
X0949539D02*
D03*
D116*
X0696606Y0340291D02*
D03*
X0672984D02*
D03*
D117*
X0704480Y0381236D02*
D03*
D118*
X0699756Y0382417D02*
D03*
X0695425D02*
D03*
X0691094D02*
D03*
X0686764D02*
D03*
X0682433D02*
D03*
X0678102D02*
D03*
X0673772D02*
D03*
X0669441D02*
D03*
D119*
X0659598Y0382024D02*
D03*
D120*
X0658811Y0358401D02*
D03*
Y0343835D02*
D03*
D121*
X0663319Y0197673D02*
D03*
X0653319D02*
D03*
X0663319Y0162831D02*
D03*
X0653319D02*
D03*
D122*
X0633516Y0153579D02*
D03*
X0642965Y0157319D02*
D03*
Y0149838D02*
D03*
D123*
X0789909Y0207927D02*
D03*
X0792469D02*
D03*
X0795027D02*
D03*
X0797587D02*
D03*
Y0218163D02*
D03*
X0795027D02*
D03*
X0792469D02*
D03*
X0789909D02*
D03*
D124*
X0960949Y0214545D02*
D03*
X0948547D02*
D03*
X0960949Y0201295D02*
D03*
X0948547D02*
D03*
D125*
X0857150Y0122770D02*
D03*
X0882346D02*
D03*
D126*
X0865713Y0112435D02*
D03*
X0873783D02*
D03*
D127*
X0864630Y0123655D02*
D03*
X0872307D02*
D03*
X0874866D02*
D03*
X0869748D02*
D03*
X0867189D02*
D03*
D128*
X1183713Y0144484D02*
D03*
Y0166846D02*
D03*
X1131744Y0144484D02*
D03*
Y0166846D02*
D03*
X0955742Y0143626D02*
D03*
Y0165988D02*
D03*
X0903774Y0143626D02*
D03*
Y0165988D02*
D03*
D129*
X1143752Y0165488D02*
D03*
X1171311D02*
D03*
X1153594D02*
D03*
X1161469D02*
D03*
Y0155154D02*
D03*
X1153594D02*
D03*
X1171311D02*
D03*
X1143752D02*
D03*
X1029728Y0208295D02*
D03*
X1021736D02*
D03*
X0997760D02*
D03*
X0989768D02*
D03*
X1033724Y0218295D02*
D03*
X1025732D02*
D03*
X1017740D02*
D03*
X0915781Y0164630D02*
D03*
X0943340D02*
D03*
X0925624D02*
D03*
X0933498D02*
D03*
X0943340Y0154295D02*
D03*
X0915781D02*
D03*
X0925624D02*
D03*
X0933498D02*
D03*
D130*
X1198673Y0345705D02*
D03*
X0600248Y0121295D02*
D03*
X1198673D02*
D03*
X0600248Y0345705D02*
D03*
D131*
X0877709Y0121689D02*
D03*
X0861764D02*
D03*
D132*
X0815748Y0121795D02*
D03*
D133*
X1067604Y0357374D02*
D03*
X1114311Y0211165D02*
D03*
X1105404Y0357374D02*
D03*
X1086502D02*
D03*
D134*
X1114604Y0299832D02*
D03*
X1058504Y0329374D02*
D03*
Y0289974D02*
D03*
Y0250574D02*
D03*
Y0319574D02*
D03*
Y0301074D02*
D03*
Y0211174D02*
D03*
X1080904Y0289974D02*
D03*
X1102104D02*
D03*
X1114604Y0270274D02*
D03*
Y0230874D02*
D03*
X1092304Y0211174D02*
D03*
X1114604Y0309674D02*
D03*
Y0319574D02*
D03*
Y0339174D02*
D03*
Y0349074D02*
D03*
X1058504Y0339174D02*
D03*
D135*
X1067756Y0332622D02*
D03*
X1105649Y0332819D02*
D03*
D136*
X0638006Y0272404D02*
D03*
X0900998D02*
D03*
X1034748Y0148295D02*
D03*
X0984748D02*
D03*
X0750228Y0119045D02*
D03*
Y0199045D02*
D03*
X0695228Y0119045D02*
D03*
Y0199045D02*
D03*
D137*
X0987740Y0180264D02*
D03*
X1031756D02*
D03*
D138*
X1041500Y0135775D02*
D03*
X0977996D02*
D03*
X0732748Y0119045D02*
D03*
X0712748D02*
D03*
X0722748Y0199045D02*
D03*
X0682748D02*
D03*
Y0119045D02*
D03*
X0762748Y0199045D02*
D03*
D139*
X1033744Y0228295D02*
D03*
X1023744D02*
D03*
X0995752D02*
D03*
X0985752D02*
D03*
D140*
X0623378Y0124996D02*
D03*
D141*
Y0114996D02*
D03*
D142*
X0658278Y0119795D02*
D03*
D143*
X0644498D02*
D03*
D144*
X1150937Y0246984D02*
D03*
X1140937D02*
D03*
D145*
X1130937D02*
D03*
D146*
X0858429Y0113224D02*
D03*
X0881067D02*
D03*
M02*
