G04*
G04 #@! TF.GenerationSoftware,Altium Limited,Altium Designer,21.2.2 (38)*
G04*
G04 Layer_Color=32896*
%FSAX25Y25*%
%MOIN*%
G70*
G04*
G04 #@! TF.SameCoordinates,D0FF6B23-36CC-4740-AB7B-40CE6848005B*
G04*
G04*
G04 #@! TF.FilePolarity,Positive*
G04*
G01*
G75*
%ADD18C,0.00100*%
%ADD19C,0.01000*%
%ADD216C,0.01500*%
D18*
X1120013Y0680042D02*
X1126013Y0686042D01*
X1114013Y0680042D02*
X1126013Y0692042D01*
X1108013Y0680042D02*
X1120013Y0692042D01*
X1102013Y0680042D02*
X1114013Y0692042D01*
X1096013Y0680042D02*
X1108013Y0692042D01*
X1090013Y0680042D02*
X1102013Y0692042D01*
X1084013Y0680042D02*
X1096013Y0692042D01*
X1078013Y0680042D02*
X1090013Y0692042D01*
X1072013Y0680042D02*
X1084013Y0692042D01*
X1066013Y0680042D02*
X1078013Y0692042D01*
X1060013Y0680042D02*
X1072013Y0692042D01*
X1054013Y0680042D02*
X1066013Y0692042D01*
X1048013Y0680042D02*
X1060013Y0692042D01*
X1042013Y0680042D02*
X1054013Y0692042D01*
X1036013Y0680042D02*
X1048013Y0692042D01*
X1030013Y0680042D02*
X1042013Y0692042D01*
X1024013Y0680042D02*
X1036013Y0692042D01*
X1018013Y0680042D02*
X1030013Y0692042D01*
X1014045Y0682074D02*
X1024013Y0692042D01*
X1014045Y0688074D02*
X1018013Y0692042D01*
X1120013D02*
X1126013Y0698042D01*
X1114013Y0692042D02*
X1126013Y0704042D01*
X1108013Y0692042D02*
X1120013Y0704042D01*
X1102013Y0692042D02*
X1114013Y0704042D01*
X1096013Y0692042D02*
X1108013Y0704042D01*
X1090013Y0692042D02*
X1102013Y0704042D01*
X1084013Y0692042D02*
X1096013Y0704042D01*
X1078013Y0692042D02*
X1090013Y0704042D01*
X1072013Y0692042D02*
X1084013Y0704042D01*
X1066013Y0692042D02*
X1078013Y0704042D01*
X1060013Y0692042D02*
X1072013Y0704042D01*
X1054013Y0692042D02*
X1066013Y0704042D01*
X1048013Y0692042D02*
X1060013Y0704042D01*
X1042013Y0692042D02*
X1054013Y0704042D01*
X1036013Y0692042D02*
X1048013Y0704042D01*
X1030013Y0692042D02*
X1042013Y0704042D01*
X1024013Y0692042D02*
X1036013Y0704042D01*
X1018013Y0692042D02*
X1030013Y0704042D01*
X1014045Y0694074D02*
X1024013Y0704042D01*
X1014045Y0700074D02*
X1018013Y0704042D01*
X1120013D02*
X1126013Y0710042D01*
X1114013Y0704042D02*
X1126013Y0716042D01*
X1108013Y0704042D02*
X1120013Y0716042D01*
X1102013Y0704042D02*
X1114013Y0716042D01*
X1096013Y0704042D02*
X1108013Y0716042D01*
X1090013Y0704042D02*
X1102013Y0716042D01*
X1084013Y0704042D02*
X1096013Y0716042D01*
X1078013Y0704042D02*
X1090013Y0716042D01*
X1072013Y0704042D02*
X1084013Y0716042D01*
X1066013Y0704042D02*
X1078013Y0716042D01*
X1060013Y0704042D02*
X1072013Y0716042D01*
X1054013Y0704042D02*
X1066013Y0716042D01*
X1048013Y0704042D02*
X1060013Y0716042D01*
X1042013Y0704042D02*
X1054013Y0716042D01*
X1036013Y0704042D02*
X1048013Y0716042D01*
X1030013Y0704042D02*
X1042013Y0716042D01*
X1024013Y0704042D02*
X1036013Y0716042D01*
X1018013Y0704042D02*
X1030013Y0716042D01*
X1014045Y0706074D02*
X1024013Y0716042D01*
X1014045Y0712074D02*
X1018013Y0716042D01*
X1120013D02*
X1126013Y0722042D01*
X1114013Y0716042D02*
X1126013Y0728042D01*
X1108013Y0716042D02*
X1120013Y0728042D01*
X1102013Y0716042D02*
X1114013Y0728042D01*
X1096013Y0716042D02*
X1108013Y0728042D01*
X1090013Y0716042D02*
X1102013Y0728042D01*
X1084013Y0716042D02*
X1096013Y0728042D01*
X1078013Y0716042D02*
X1090013Y0728042D01*
X1072013Y0716042D02*
X1084013Y0728042D01*
X1066013Y0716042D02*
X1078013Y0728042D01*
X1060013Y0716042D02*
X1072013Y0728042D01*
X1054013Y0716042D02*
X1066013Y0728042D01*
X1048013Y0716042D02*
X1060013Y0728042D01*
X1042013Y0716042D02*
X1054013Y0728042D01*
X1036013Y0716042D02*
X1048013Y0728042D01*
X1030013Y0716042D02*
X1042013Y0728042D01*
X1024013Y0716042D02*
X1036013Y0728042D01*
X1018013Y0716042D02*
X1030013Y0728042D01*
X1014045Y0718074D02*
X1024013Y0728042D01*
X1014045Y0724074D02*
X1018013Y0728042D01*
X1120013D02*
X1126013Y0734042D01*
X1114013Y0728042D02*
X1126013Y0740042D01*
X1108013Y0728042D02*
X1120013Y0740042D01*
X1102013Y0728042D02*
X1114013Y0740042D01*
X1096013Y0728042D02*
X1108013Y0740042D01*
X1090013Y0728042D02*
X1102013Y0740042D01*
X1084013Y0728042D02*
X1096013Y0740042D01*
X1078013Y0728042D02*
X1090013Y0740042D01*
X1072013Y0728042D02*
X1084013Y0740042D01*
X1066013Y0728042D02*
X1078013Y0740042D01*
X1060013Y0728042D02*
X1072013Y0740042D01*
X1054013Y0728042D02*
X1066013Y0740042D01*
X1048013Y0728042D02*
X1060013Y0740042D01*
X1042013Y0728042D02*
X1054013Y0740042D01*
X1036013Y0728042D02*
X1048013Y0740042D01*
X1030013Y0728042D02*
X1042013Y0740042D01*
X1024013Y0728042D02*
X1036013Y0740042D01*
X1018013Y0728042D02*
X1030013Y0740042D01*
X1014045Y0730074D02*
X1024013Y0740042D01*
X1014045Y0736074D02*
X1018013Y0740042D01*
X1120013D02*
X1126013Y0746042D01*
X1114013Y0740042D02*
X1126013Y0752042D01*
X1108013Y0740042D02*
X1120013Y0752042D01*
X1102013Y0740042D02*
X1114013Y0752042D01*
X1096013Y0740042D02*
X1108013Y0752042D01*
X1090013Y0740042D02*
X1102013Y0752042D01*
X1084013Y0740042D02*
X1096013Y0752042D01*
X1078013Y0740042D02*
X1090013Y0752042D01*
X1072013Y0740042D02*
X1084013Y0752042D01*
X1066013Y0740042D02*
X1078013Y0752042D01*
X1060013Y0740042D02*
X1072013Y0752042D01*
X1054013Y0740042D02*
X1066013Y0752042D01*
X1048013Y0740042D02*
X1060013Y0752042D01*
X1042013Y0740042D02*
X1054013Y0752042D01*
X1036013Y0740042D02*
X1048013Y0752042D01*
X1030013Y0740042D02*
X1042013Y0752042D01*
X1024013Y0740042D02*
X1036013Y0752042D01*
X1018013Y0740042D02*
X1030013Y0752042D01*
X1014045Y0742074D02*
X1024013Y0752042D01*
X1014045Y0748074D02*
X1018013Y0752042D01*
X1120013D02*
X1126013Y0758042D01*
X1114013Y0752042D02*
X1126013Y0764042D01*
X1108013Y0752042D02*
X1120013Y0764042D01*
X1102013Y0752042D02*
X1114013Y0764042D01*
X1096013Y0752042D02*
X1108013Y0764042D01*
X1090013Y0752042D02*
X1102013Y0764042D01*
X1084013Y0752042D02*
X1096013Y0764042D01*
X1078013Y0752042D02*
X1090013Y0764042D01*
X1072013Y0752042D02*
X1084013Y0764042D01*
X1066013Y0752042D02*
X1078013Y0764042D01*
X1060013Y0752042D02*
X1072013Y0764042D01*
X1054013Y0752042D02*
X1066013Y0764042D01*
X1048013Y0752042D02*
X1060013Y0764042D01*
X1042013Y0752042D02*
X1054013Y0764042D01*
X1036013Y0752042D02*
X1048013Y0764042D01*
X1030013Y0752042D02*
X1042013Y0764042D01*
X1024013Y0752042D02*
X1036013Y0764042D01*
X1018013Y0752042D02*
X1030013Y0764042D01*
X1014045Y0754074D02*
X1024013Y0764042D01*
X1014045Y0760074D02*
X1018013Y0764042D01*
X1120013D02*
X1126013Y0770042D01*
X1114013Y0764042D02*
X1126013Y0776042D01*
X1108013Y0764042D02*
X1120013Y0776042D01*
X1102013Y0764042D02*
X1114013Y0776042D01*
X1096013Y0764042D02*
X1108013Y0776042D01*
X1090013Y0764042D02*
X1102013Y0776042D01*
X1084013Y0764042D02*
X1096013Y0776042D01*
X1078013Y0764042D02*
X1090013Y0776042D01*
X1072013Y0764042D02*
X1084013Y0776042D01*
X1066013Y0764042D02*
X1078013Y0776042D01*
X1060013Y0764042D02*
X1072013Y0776042D01*
X1054013Y0764042D02*
X1066013Y0776042D01*
X1048013Y0764042D02*
X1060013Y0776042D01*
X1042013Y0764042D02*
X1054013Y0776042D01*
X1036013Y0764042D02*
X1048013Y0776042D01*
X1030013Y0764042D02*
X1042013Y0776042D01*
X1024013Y0764042D02*
X1036013Y0776042D01*
X1018013Y0764042D02*
X1030013Y0776042D01*
X1014045Y0766074D02*
X1024013Y0776042D01*
X1014045Y0772074D02*
X1018013Y0776042D01*
X1120013D02*
X1126013Y0782042D01*
X1114013Y0776042D02*
X1126013Y0788042D01*
X1108013Y0776042D02*
X1120013Y0788042D01*
X1102013Y0776042D02*
X1114013Y0788042D01*
X1096013Y0776042D02*
X1108013Y0788042D01*
X1090013Y0776042D02*
X1102013Y0788042D01*
X1084013Y0776042D02*
X1096013Y0788042D01*
X1078013Y0776042D02*
X1090013Y0788042D01*
X1072013Y0776042D02*
X1084013Y0788042D01*
X1066013Y0776042D02*
X1078013Y0788042D01*
X1060013Y0776042D02*
X1072013Y0788042D01*
X1054013Y0776042D02*
X1066013Y0788042D01*
X1048013Y0776042D02*
X1060013Y0788042D01*
X1042013Y0776042D02*
X1054013Y0788042D01*
X1036013Y0776042D02*
X1048013Y0788042D01*
X1030013Y0776042D02*
X1042013Y0788042D01*
X1024013Y0776042D02*
X1036013Y0788042D01*
X1018013Y0776042D02*
X1030013Y0788042D01*
X1014045Y0778074D02*
X1024013Y0788042D01*
X1014045Y0784074D02*
X1018013Y0788042D01*
X1120013D02*
X1126013Y0794042D01*
X1114013Y0788042D02*
X1126013Y0800042D01*
X1108013Y0788042D02*
X1120013Y0800042D01*
X1102013Y0788042D02*
X1114013Y0800042D01*
X1096013Y0788042D02*
X1108013Y0800042D01*
X1090013Y0788042D02*
X1102013Y0800042D01*
X1084013Y0788042D02*
X1096013Y0800042D01*
X1078013Y0788042D02*
X1090013Y0800042D01*
X1072013Y0788042D02*
X1084013Y0800042D01*
X1066013Y0788042D02*
X1078013Y0800042D01*
X1060013Y0788042D02*
X1072013Y0800042D01*
X1054013Y0788042D02*
X1066013Y0800042D01*
X1048013Y0788042D02*
X1060013Y0800042D01*
X1042013Y0788042D02*
X1054013Y0800042D01*
X1036013Y0788042D02*
X1048013Y0800042D01*
X1030013Y0788042D02*
X1042013Y0800042D01*
X1024013Y0788042D02*
X1036013Y0800042D01*
X1018013Y0788042D02*
X1030013Y0800042D01*
X1014045Y0790074D02*
X1024013Y0800042D01*
X1014045Y0796074D02*
X1018013Y0800042D01*
X1120013D02*
X1126013Y0806042D01*
X1114013Y0800042D02*
X1126013Y0812042D01*
X1108013Y0800042D02*
X1120013Y0812042D01*
X1102013Y0800042D02*
X1114013Y0812042D01*
X1096013Y0800042D02*
X1108013Y0812042D01*
X1090013Y0800042D02*
X1102013Y0812042D01*
X1084013Y0800042D02*
X1096013Y0812042D01*
X1078013Y0800042D02*
X1090013Y0812042D01*
X1072013Y0800042D02*
X1084013Y0812042D01*
X1066013Y0800042D02*
X1078013Y0812042D01*
X1060013Y0800042D02*
X1072013Y0812042D01*
X1054013Y0800042D02*
X1066013Y0812042D01*
X1048013Y0800042D02*
X1060013Y0812042D01*
X1042013Y0800042D02*
X1054013Y0812042D01*
X1036013Y0800042D02*
X1048013Y0812042D01*
X1030013Y0800042D02*
X1042013Y0812042D01*
X1024013Y0800042D02*
X1036013Y0812042D01*
X1018013Y0800042D02*
X1030013Y0812042D01*
X1014045Y0802074D02*
X1024013Y0812042D01*
X1014045Y0808074D02*
X1018013Y0812042D01*
X1121934Y0465485D02*
X1124737Y0468288D01*
X1114659Y0464209D02*
X1126013Y0475564D01*
X1108659Y0464209D02*
X1126013Y0481564D01*
X1102658Y0464209D02*
X1126013Y0487564D01*
X1096659Y0464209D02*
X1126013Y0493564D01*
X1090658Y0464209D02*
X1126013Y0499564D01*
X1084659Y0464209D02*
X1126013Y0505564D01*
X1078658Y0464209D02*
X1126013Y0511564D01*
X1072659Y0464209D02*
X1126013Y0517564D01*
X1066658Y0464209D02*
X1126013Y0523564D01*
X1060768Y0464318D02*
X1126013Y0529564D01*
X1060768Y0470318D02*
X1126013Y0535564D01*
X1060768Y0476318D02*
X1126013Y0541564D01*
X1060768Y0482318D02*
X1126013Y0547564D01*
X1060768Y0488318D02*
X1126013Y0553564D01*
X1060768Y0494318D02*
X1126013Y0559564D01*
X1060768Y0500318D02*
X1126013Y0565564D01*
X1060768Y0506318D02*
X1126013Y0571564D01*
X1060768Y0512318D02*
X1126013Y0577564D01*
X1060768Y0518318D02*
X1126013Y0583564D01*
X1005959Y0463510D02*
X1008288Y0465838D01*
X1060713Y0524264D02*
X1126013Y0589564D01*
X0999959Y0463510D02*
X1008288Y0471839D01*
X1057067Y0526618D02*
X1126013Y0595564D01*
X0993959Y0463510D02*
X1008288Y0477839D01*
X1051067Y0526618D02*
X1126013Y0601564D01*
X0987959Y0463510D02*
X1008288Y0483839D01*
X1045067Y0526618D02*
X1126013Y0607564D01*
X0981959Y0463510D02*
X1008288Y0489839D01*
X1039067Y0526618D02*
X1126013Y0613564D01*
X0975959Y0463510D02*
X1008288Y0495838D01*
X1033067Y0526618D02*
X1126013Y0619564D01*
X0969959Y0463510D02*
X1008288Y0501838D01*
X1027067Y0526618D02*
X1126013Y0625564D01*
X0963959Y0463510D02*
X1008288Y0507838D01*
X1021067Y0526618D02*
X1126013Y0631564D01*
X0957959Y0463510D02*
X1008288Y0513838D01*
X1015067Y0526618D02*
X1126013Y0637564D01*
X0951959Y0463510D02*
X1008288Y0519838D01*
X0945959Y0463510D02*
X1126013Y0643564D01*
X0939959Y0463510D02*
X1126013Y0649564D01*
X0933959Y0463510D02*
X1126013Y0655564D01*
X0927959Y0463510D02*
X1126013Y0661564D01*
X0921959Y0463510D02*
X1126013Y0667564D01*
X0915959Y0463510D02*
X1124913Y0672464D01*
X0909959Y0463510D02*
X1122007Y0675557D01*
X0903959Y0463510D02*
X1117338Y0676888D01*
X0897959Y0463510D02*
X1111546Y0677096D01*
X0891959Y0463510D02*
X1105546Y0677096D01*
X0885959Y0463510D02*
X1099546Y0677096D01*
X0879959Y0463510D02*
X1093546Y0677096D01*
X0873959Y0463510D02*
X1087546Y0677096D01*
X0867959Y0463510D02*
X1081546Y0677096D01*
X0861959Y0463510D02*
X1075546Y0677096D01*
X0855959Y0463510D02*
X1069546Y0677096D01*
X0849959Y0463510D02*
X1063546Y0677096D01*
X0843959Y0463510D02*
X1057546Y0677096D01*
X0837959Y0463510D02*
X1051546Y0677096D01*
X0831959Y0463510D02*
X1045546Y0677096D01*
X0825959Y0463510D02*
X1039546Y0677096D01*
X0819959Y0463510D02*
X1033546Y0677096D01*
X0813959Y0463510D02*
X1027546Y0677096D01*
X0807959Y0463510D02*
X1021546Y0677096D01*
X0801959Y0463510D02*
X1015546Y0677096D01*
X0795959Y0463510D02*
X1009546Y0677096D01*
X0789959Y0463510D02*
X1003546Y0677096D01*
X0783959Y0463510D02*
X0997546Y0677096D01*
X0777959Y0463510D02*
X0991546Y0677096D01*
X0771959Y0463510D02*
X0985546Y0677096D01*
X0765959Y0463510D02*
X0979546Y0677096D01*
X0759959Y0463510D02*
X0973546Y0677096D01*
X0753959Y0463510D02*
X0967546Y0677096D01*
X0747959Y0463510D02*
X0961546Y0677096D01*
X0741959Y0463510D02*
X0955546Y0677096D01*
X0735959Y0463510D02*
X0949546Y0677096D01*
X0729959Y0463510D02*
X0943546Y0677096D01*
X0723959Y0463510D02*
X0937546Y0677096D01*
X0717959Y0463510D02*
X0931546Y0677096D01*
X0711959Y0463510D02*
X0925546Y0677096D01*
X0705959Y0463510D02*
X0919546Y0677096D01*
X0699959Y0463510D02*
X0913546Y0677096D01*
X0693959Y0463510D02*
X0907546Y0677096D01*
X0687959Y0463510D02*
X0901546Y0677096D01*
X0682478Y0464029D02*
X0895546Y0677096D01*
X0677334Y0464885D02*
X0889546Y0677096D01*
X0673961Y0467512D02*
X0883546Y0677096D01*
X0672226Y0471776D02*
X0877546Y0677096D01*
X0672133Y0477683D02*
X0871546Y0677096D01*
X0672133Y0483683D02*
X0865546Y0677096D01*
X0672133Y0489683D02*
X0859546Y0677096D01*
X0672133Y0495683D02*
X0853546Y0677096D01*
X0672133Y0501683D02*
X0847546Y0677096D01*
X0672133Y0507683D02*
X0841546Y0677096D01*
X0672133Y0513683D02*
X0835546Y0677096D01*
X0672133Y0519683D02*
X0829546Y0677096D01*
X0672133Y0525683D02*
X0823546Y0677096D01*
X0672133Y0531683D02*
X0817546Y0677096D01*
X0672133Y0537683D02*
X0811546Y0677096D01*
X0672133Y0543683D02*
X0805546Y0677096D01*
X0672133Y0549683D02*
X0799546Y0677096D01*
X0672133Y0555683D02*
X0793546Y0677096D01*
X0672133Y0561683D02*
X0787546Y0677096D01*
X0672133Y0567683D02*
X0781546Y0677096D01*
X0672133Y0573683D02*
X0775546Y0677096D01*
X0672133Y0579683D02*
X0769546Y0677096D01*
X0672133Y0585683D02*
X0763546Y0677096D01*
X0672133Y0591683D02*
X0757546Y0677096D01*
X0672133Y0597683D02*
X0751546Y0677096D01*
X0672133Y0603683D02*
X0745546Y0677096D01*
X0672133Y0609683D02*
X0739546Y0677096D01*
X0672133Y0615683D02*
X0733546Y0677096D01*
X0672133Y0621683D02*
X0727546Y0677096D01*
X0672133Y0627683D02*
X0721546Y0677096D01*
X0672133Y0633683D02*
X0715546Y0677096D01*
X0672133Y0639683D02*
X0709546Y0677096D01*
X0672133Y0645683D02*
X0703546Y0677096D01*
X0672133Y0651683D02*
X0697546Y0677096D01*
X0672133Y0657683D02*
X0691546Y0677096D01*
X0672133Y0663683D02*
X0685546Y0677096D01*
X0672277Y0669828D02*
X0679177Y0676727D01*
D19*
X0679133Y0821040D02*
Y0815042D01*
X0683131D01*
X0686130Y0819041D02*
X0688130D01*
X0689129Y0818041D01*
Y0815042D01*
X0686130D01*
X0685131Y0816042D01*
X0686130Y0817041D01*
X0689129D01*
X0691129Y0819041D02*
Y0816042D01*
X0692129Y0815042D01*
X0695127D01*
Y0814042D01*
X0694128Y0813043D01*
X0693128D01*
X0695127Y0815042D02*
Y0819041D01*
X0700126Y0815042D02*
X0698127D01*
X0697127Y0816042D01*
Y0818041D01*
X0698127Y0819041D01*
X0700126D01*
X0701126Y0818041D01*
Y0817041D01*
X0697127D01*
X0703125Y0819041D02*
Y0815042D01*
Y0817041D01*
X0704125Y0818041D01*
X0705124Y0819041D01*
X0706124D01*
X0682132Y0707042D02*
Y0713040D01*
X0679133Y0710041D01*
X0683131D01*
X0679133Y0736040D02*
X0680132Y0737040D01*
X0682132D01*
X0683131Y0736040D01*
Y0735041D01*
X0682132Y0734041D01*
X0681132D01*
X0682132D01*
X0683131Y0733041D01*
Y0732042D01*
X0682132Y0731042D01*
X0680132D01*
X0679133Y0732042D01*
X0683131Y0755042D02*
X0679133D01*
X0683131Y0759041D01*
Y0760041D01*
X0682132Y0761040D01*
X0680132D01*
X0679133Y0760041D01*
Y0779042D02*
X0681132D01*
X0680132D01*
Y0785040D01*
X0679133Y0784040D01*
X0720124Y0815042D02*
Y0821040D01*
X0724123Y0815042D01*
Y0821040D01*
X0727122Y0819041D02*
X0729121D01*
X0730121Y0818041D01*
Y0815042D01*
X0727122D01*
X0726122Y0816042D01*
X0727122Y0817041D01*
X0730121D01*
X0732120Y0815042D02*
Y0819041D01*
X0733120D01*
X0734119Y0818041D01*
Y0815042D01*
Y0818041D01*
X0735119Y0819041D01*
X0736119Y0818041D01*
Y0815042D01*
X0741117D02*
X0739118D01*
X0738118Y0816042D01*
Y0818041D01*
X0739118Y0819041D01*
X0741117D01*
X0742117Y0818041D01*
Y0817041D01*
X0738118D01*
X0720124Y0689040D02*
Y0683042D01*
X0723123D01*
X0724123Y0684042D01*
Y0685042D01*
X0723123Y0686041D01*
X0720124D01*
X0723123D01*
X0724123Y0687041D01*
Y0688040D01*
X0723123Y0689040D01*
X0720124D01*
X0727122Y0683042D02*
X0729121D01*
X0730121Y0684042D01*
Y0686041D01*
X0729121Y0687041D01*
X0727122D01*
X0726122Y0686041D01*
Y0684042D01*
X0727122Y0683042D01*
X0733120Y0688040D02*
Y0687041D01*
X0732120D01*
X0734119D01*
X0733120D01*
Y0684042D01*
X0734119Y0683042D01*
X0738118Y0688040D02*
Y0687041D01*
X0737118D01*
X0739118D01*
X0738118D01*
Y0684042D01*
X0739118Y0683042D01*
X0743117D02*
X0745116D01*
X0746115Y0684042D01*
Y0686041D01*
X0745116Y0687041D01*
X0743117D01*
X0742117Y0686041D01*
Y0684042D01*
X0743117Y0683042D01*
X0748115D02*
Y0687041D01*
X0749115D01*
X0750114Y0686041D01*
Y0683042D01*
Y0686041D01*
X0751114Y0687041D01*
X0752114Y0686041D01*
Y0683042D01*
X0763110Y0689040D02*
X0761111D01*
X0760111Y0688040D01*
Y0684042D01*
X0761111Y0683042D01*
X0763110D01*
X0764110Y0684042D01*
Y0688040D01*
X0763110Y0689040D01*
X0766109Y0687041D02*
X0768108Y0683042D01*
X0770108Y0687041D01*
X0775106Y0683042D02*
X0773107D01*
X0772107Y0684042D01*
Y0686041D01*
X0773107Y0687041D01*
X0775106D01*
X0776106Y0686041D01*
Y0685042D01*
X0772107D01*
X0778105Y0687041D02*
Y0683042D01*
Y0685042D01*
X0779105Y0686041D01*
X0780104Y0687041D01*
X0781104D01*
X0784103Y0683042D02*
X0786103D01*
X0785103D01*
Y0689040D01*
X0784103D01*
X0790101Y0687041D02*
X0792101D01*
X0793100Y0686041D01*
Y0683042D01*
X0790101D01*
X0789102Y0684042D01*
X0790101Y0685042D01*
X0793100D01*
X0795100Y0687041D02*
Y0684042D01*
X0796099Y0683042D01*
X0799098D01*
Y0682043D01*
X0798099Y0681043D01*
X0797099D01*
X0799098Y0683042D02*
Y0687041D01*
X0720124Y0701040D02*
Y0695042D01*
X0723123D01*
X0724123Y0696042D01*
Y0697042D01*
X0723123Y0698041D01*
X0720124D01*
X0723123D01*
X0724123Y0699041D01*
Y0700040D01*
X0723123Y0701040D01*
X0720124D01*
X0727122Y0695042D02*
X0729121D01*
X0730121Y0696042D01*
Y0698041D01*
X0729121Y0699041D01*
X0727122D01*
X0726122Y0698041D01*
Y0696042D01*
X0727122Y0695042D01*
X0733120Y0700040D02*
Y0699041D01*
X0732120D01*
X0734119D01*
X0733120D01*
Y0696042D01*
X0734119Y0695042D01*
X0738118Y0700040D02*
Y0699041D01*
X0737118D01*
X0739118D01*
X0738118D01*
Y0696042D01*
X0739118Y0695042D01*
X0743117D02*
X0745116D01*
X0746115Y0696042D01*
Y0698041D01*
X0745116Y0699041D01*
X0743117D01*
X0742117Y0698041D01*
Y0696042D01*
X0743117Y0695042D01*
X0748115D02*
Y0699041D01*
X0749115D01*
X0750114Y0698041D01*
Y0695042D01*
Y0698041D01*
X0751114Y0699041D01*
X0752114Y0698041D01*
Y0695042D01*
X0764110Y0700040D02*
X0763110Y0701040D01*
X0761111D01*
X0760111Y0700040D01*
Y0699041D01*
X0761111Y0698041D01*
X0763110D01*
X0764110Y0697042D01*
Y0696042D01*
X0763110Y0695042D01*
X0761111D01*
X0760111Y0696042D01*
X0767109Y0695042D02*
X0769108D01*
X0770108Y0696042D01*
Y0698041D01*
X0769108Y0699041D01*
X0767109D01*
X0766109Y0698041D01*
Y0696042D01*
X0767109Y0695042D01*
X0772107D02*
X0774107D01*
X0773107D01*
Y0701040D01*
X0772107D01*
X0781104D02*
Y0695042D01*
X0778105D01*
X0777106Y0696042D01*
Y0698041D01*
X0778105Y0699041D01*
X0781104D01*
X0786103Y0695042D02*
X0784103D01*
X0783104Y0696042D01*
Y0698041D01*
X0784103Y0699041D01*
X0786103D01*
X0787102Y0698041D01*
Y0697042D01*
X0783104D01*
X0789102Y0699041D02*
Y0695042D01*
Y0697042D01*
X0790101Y0698041D01*
X0791101Y0699041D01*
X0792101D01*
X0720124Y0713040D02*
Y0707042D01*
X0723123D01*
X0724123Y0708042D01*
Y0709042D01*
X0723123Y0710041D01*
X0720124D01*
X0723123D01*
X0724123Y0711041D01*
Y0712041D01*
X0723123Y0713040D01*
X0720124D01*
X0727122Y0707042D02*
X0729121D01*
X0730121Y0708042D01*
Y0710041D01*
X0729121Y0711041D01*
X0727122D01*
X0726122Y0710041D01*
Y0708042D01*
X0727122Y0707042D01*
X0733120Y0712041D02*
Y0711041D01*
X0732120D01*
X0734119D01*
X0733120D01*
Y0708042D01*
X0734119Y0707042D01*
X0738118Y0712041D02*
Y0711041D01*
X0737118D01*
X0739118D01*
X0738118D01*
Y0708042D01*
X0739118Y0707042D01*
X0743117D02*
X0745116D01*
X0746115Y0708042D01*
Y0710041D01*
X0745116Y0711041D01*
X0743117D01*
X0742117Y0710041D01*
Y0708042D01*
X0743117Y0707042D01*
X0748115D02*
Y0711041D01*
X0749115D01*
X0750114Y0710041D01*
Y0707042D01*
Y0710041D01*
X0751114Y0711041D01*
X0752114Y0710041D01*
Y0707042D01*
X0760111Y0713040D02*
Y0707042D01*
X0764110D01*
X0767109Y0711041D02*
X0769108D01*
X0770108Y0710041D01*
Y0707042D01*
X0767109D01*
X0766109Y0708042D01*
X0767109Y0709042D01*
X0770108D01*
X0772107Y0711041D02*
Y0708042D01*
X0773107Y0707042D01*
X0776106D01*
Y0706042D01*
X0775106Y0705043D01*
X0774107D01*
X0776106Y0707042D02*
Y0711041D01*
X0781104Y0707042D02*
X0779105D01*
X0778105Y0708042D01*
Y0710041D01*
X0779105Y0711041D01*
X0781104D01*
X0782104Y0710041D01*
Y0709042D01*
X0778105D01*
X0784103Y0711041D02*
Y0707042D01*
Y0709042D01*
X0785103Y0710041D01*
X0786103Y0711041D01*
X0787102D01*
X0720124Y0725040D02*
Y0719042D01*
X0723123D01*
X0724123Y0720042D01*
Y0724041D01*
X0723123Y0725040D01*
X0720124D01*
X0726122Y0719042D02*
X0728121D01*
X0727122D01*
Y0723041D01*
X0726122D01*
X0734119Y0719042D02*
X0732120D01*
X0731120Y0720042D01*
Y0722041D01*
X0732120Y0723041D01*
X0734119D01*
X0735119Y0722041D01*
Y0721041D01*
X0731120D01*
X0737118Y0719042D02*
X0739118D01*
X0738118D01*
Y0725040D01*
X0737118D01*
X0745116Y0719042D02*
X0743117D01*
X0742117Y0720042D01*
Y0722041D01*
X0743117Y0723041D01*
X0745116D01*
X0746115Y0722041D01*
Y0721041D01*
X0742117D01*
X0752114Y0723041D02*
X0749115D01*
X0748115Y0722041D01*
Y0720042D01*
X0749115Y0719042D01*
X0752114D01*
X0755113Y0724041D02*
Y0723041D01*
X0754113D01*
X0756112D01*
X0755113D01*
Y0720042D01*
X0756112Y0719042D01*
X0759111Y0723041D02*
Y0719042D01*
Y0721041D01*
X0760111Y0722041D01*
X0761111Y0723041D01*
X0762110D01*
X0765109Y0719042D02*
X0767109D01*
X0766109D01*
Y0723041D01*
X0765109D01*
X0774107D02*
X0771107D01*
X0770108Y0722041D01*
Y0720042D01*
X0771107Y0719042D01*
X0774107D01*
X0776106Y0724041D02*
X0777106Y0725040D01*
X0779105D01*
X0780104Y0724041D01*
Y0723041D01*
X0779105Y0722041D01*
X0778105D01*
X0779105D01*
X0780104Y0721041D01*
Y0720042D01*
X0779105Y0719042D01*
X0777106D01*
X0776106Y0720042D01*
X0720124Y0731042D02*
Y0737040D01*
X0722123Y0735041D01*
X0724123Y0737040D01*
Y0731042D01*
X0726122D02*
X0728121D01*
X0727122D01*
Y0735041D01*
X0726122D01*
X0735119Y0737040D02*
Y0731042D01*
X0732120D01*
X0731120Y0732042D01*
Y0734041D01*
X0732120Y0735041D01*
X0735119D01*
X0737118Y0734041D02*
X0741117D01*
X0743117Y0737040D02*
Y0731042D01*
X0747115D01*
X0750114Y0735041D02*
X0752114D01*
X0753113Y0734041D01*
Y0731042D01*
X0750114D01*
X0749115Y0732042D01*
X0750114Y0733041D01*
X0753113D01*
X0755113Y0735041D02*
Y0732042D01*
X0756112Y0731042D01*
X0759111D01*
Y0730043D01*
X0758112Y0729043D01*
X0757112D01*
X0759111Y0731042D02*
Y0735041D01*
X0764110Y0731042D02*
X0762110D01*
X0761111Y0732042D01*
Y0734041D01*
X0762110Y0735041D01*
X0764110D01*
X0765109Y0734041D01*
Y0733041D01*
X0761111D01*
X0767109Y0735041D02*
Y0731042D01*
Y0733041D01*
X0768108Y0734041D01*
X0769108Y0735041D01*
X0770108D01*
X0783104Y0731042D02*
X0779105D01*
X0783104Y0735041D01*
Y0736040D01*
X0782104Y0737040D01*
X0780104D01*
X0779105Y0736040D01*
X0720124Y0749040D02*
Y0743042D01*
X0723123D01*
X0724123Y0744042D01*
Y0748040D01*
X0723123Y0749040D01*
X0720124D01*
X0726122Y0743042D02*
X0728121D01*
X0727122D01*
Y0747041D01*
X0726122D01*
X0734119Y0743042D02*
X0732120D01*
X0731120Y0744042D01*
Y0746041D01*
X0732120Y0747041D01*
X0734119D01*
X0735119Y0746041D01*
Y0745042D01*
X0731120D01*
X0737118Y0743042D02*
X0739118D01*
X0738118D01*
Y0749040D01*
X0737118D01*
X0745116Y0743042D02*
X0743117D01*
X0742117Y0744042D01*
Y0746041D01*
X0743117Y0747041D01*
X0745116D01*
X0746115Y0746041D01*
Y0745042D01*
X0742117D01*
X0752114Y0747041D02*
X0749115D01*
X0748115Y0746041D01*
Y0744042D01*
X0749115Y0743042D01*
X0752114D01*
X0755113Y0748040D02*
Y0747041D01*
X0754113D01*
X0756112D01*
X0755113D01*
Y0744042D01*
X0756112Y0743042D01*
X0759111Y0747041D02*
Y0743042D01*
Y0745042D01*
X0760111Y0746041D01*
X0761111Y0747041D01*
X0762110D01*
X0765109Y0743042D02*
X0767109D01*
X0766109D01*
Y0747041D01*
X0765109D01*
X0774107D02*
X0771107D01*
X0770108Y0746041D01*
Y0744042D01*
X0771107Y0743042D01*
X0774107D01*
X0780104D02*
X0776106D01*
X0780104Y0747041D01*
Y0748040D01*
X0779105Y0749040D01*
X0777106D01*
X0776106Y0748040D01*
X0720124Y0755042D02*
Y0761040D01*
X0722123Y0759041D01*
X0724123Y0761040D01*
Y0755042D01*
X0726122D02*
X0728121D01*
X0727122D01*
Y0759041D01*
X0726122D01*
X0735119Y0761040D02*
Y0755042D01*
X0732120D01*
X0731120Y0756042D01*
Y0758041D01*
X0732120Y0759041D01*
X0735119D01*
X0737118Y0758041D02*
X0741117D01*
X0743117Y0761040D02*
Y0755042D01*
X0747115D01*
X0750114Y0759041D02*
X0752114D01*
X0753113Y0758041D01*
Y0755042D01*
X0750114D01*
X0749115Y0756042D01*
X0750114Y0757042D01*
X0753113D01*
X0755113Y0759041D02*
Y0756042D01*
X0756112Y0755042D01*
X0759111D01*
Y0754042D01*
X0758112Y0753043D01*
X0757112D01*
X0759111Y0755042D02*
Y0759041D01*
X0764110Y0755042D02*
X0762110D01*
X0761111Y0756042D01*
Y0758041D01*
X0762110Y0759041D01*
X0764110D01*
X0765109Y0758041D01*
Y0757042D01*
X0761111D01*
X0767109Y0759041D02*
Y0755042D01*
Y0757042D01*
X0768108Y0758041D01*
X0769108Y0759041D01*
X0770108D01*
X0779105Y0755042D02*
X0781104D01*
X0780104D01*
Y0761040D01*
X0779105Y0760041D01*
X0720124Y0773040D02*
Y0767042D01*
X0723123D01*
X0724123Y0768042D01*
Y0772041D01*
X0723123Y0773040D01*
X0720124D01*
X0726122Y0767042D02*
X0728121D01*
X0727122D01*
Y0771041D01*
X0726122D01*
X0734119Y0767042D02*
X0732120D01*
X0731120Y0768042D01*
Y0770041D01*
X0732120Y0771041D01*
X0734119D01*
X0735119Y0770041D01*
Y0769041D01*
X0731120D01*
X0737118Y0767042D02*
X0739118D01*
X0738118D01*
Y0773040D01*
X0737118D01*
X0745116Y0767042D02*
X0743117D01*
X0742117Y0768042D01*
Y0770041D01*
X0743117Y0771041D01*
X0745116D01*
X0746115Y0770041D01*
Y0769041D01*
X0742117D01*
X0752114Y0771041D02*
X0749115D01*
X0748115Y0770041D01*
Y0768042D01*
X0749115Y0767042D01*
X0752114D01*
X0755113Y0772041D02*
Y0771041D01*
X0754113D01*
X0756112D01*
X0755113D01*
Y0768042D01*
X0756112Y0767042D01*
X0759111Y0771041D02*
Y0767042D01*
Y0769041D01*
X0760111Y0770041D01*
X0761111Y0771041D01*
X0762110D01*
X0765109Y0767042D02*
X0767109D01*
X0766109D01*
Y0771041D01*
X0765109D01*
X0774107D02*
X0771107D01*
X0770108Y0770041D01*
Y0768042D01*
X0771107Y0767042D01*
X0774107D01*
X0782104D02*
X0784103D01*
X0783104D01*
Y0773040D01*
X0782104Y0772041D01*
X0720124Y0785040D02*
X0724123D01*
X0722123D01*
Y0779042D01*
X0727122D02*
X0729121D01*
X0730121Y0780042D01*
Y0782041D01*
X0729121Y0783041D01*
X0727122D01*
X0726122Y0782041D01*
Y0780042D01*
X0727122Y0779042D01*
X0732120Y0777043D02*
Y0783041D01*
X0735119D01*
X0736119Y0782041D01*
Y0780042D01*
X0735119Y0779042D01*
X0732120D01*
X0744116Y0785040D02*
Y0779042D01*
X0748115D01*
X0751114Y0783041D02*
X0753113D01*
X0754113Y0782041D01*
Y0779042D01*
X0751114D01*
X0750114Y0780042D01*
X0751114Y0781041D01*
X0754113D01*
X0756112Y0783041D02*
Y0780042D01*
X0757112Y0779042D01*
X0760111D01*
Y0778043D01*
X0759111Y0777043D01*
X0758112D01*
X0760111Y0779042D02*
Y0783041D01*
X0765109Y0779042D02*
X0763110D01*
X0762110Y0780042D01*
Y0782041D01*
X0763110Y0783041D01*
X0765109D01*
X0766109Y0782041D01*
Y0781041D01*
X0762110D01*
X0768108Y0783041D02*
Y0779042D01*
Y0781041D01*
X0769108Y0782041D01*
X0770108Y0783041D01*
X0771107D01*
X0720124Y0797040D02*
X0724123D01*
X0722123D01*
Y0791042D01*
X0727122D02*
X0729121D01*
X0730121Y0792042D01*
Y0794041D01*
X0729121Y0795041D01*
X0727122D01*
X0726122Y0794041D01*
Y0792042D01*
X0727122Y0791042D01*
X0732120Y0789043D02*
Y0795041D01*
X0735119D01*
X0736119Y0794041D01*
Y0792042D01*
X0735119Y0791042D01*
X0732120D01*
X0748115Y0796040D02*
X0747115Y0797040D01*
X0745116D01*
X0744116Y0796040D01*
Y0795041D01*
X0745116Y0794041D01*
X0747115D01*
X0748115Y0793042D01*
Y0792042D01*
X0747115Y0791042D01*
X0745116D01*
X0744116Y0792042D01*
X0751114Y0791042D02*
X0753113D01*
X0754113Y0792042D01*
Y0794041D01*
X0753113Y0795041D01*
X0751114D01*
X0750114Y0794041D01*
Y0792042D01*
X0751114Y0791042D01*
X0756112D02*
X0758112D01*
X0757112D01*
Y0797040D01*
X0756112D01*
X0765109D02*
Y0791042D01*
X0762110D01*
X0761111Y0792042D01*
Y0794041D01*
X0762110Y0795041D01*
X0765109D01*
X0770108Y0791042D02*
X0768108D01*
X0767109Y0792042D01*
Y0794041D01*
X0768108Y0795041D01*
X0770108D01*
X0771107Y0794041D01*
Y0793042D01*
X0767109D01*
X0773107Y0795041D02*
Y0791042D01*
Y0793042D01*
X0774107Y0794041D01*
X0775106Y0795041D01*
X0776106D01*
X0720124Y0809040D02*
X0724123D01*
X0722123D01*
Y0803042D01*
X0727122D02*
X0729121D01*
X0730121Y0804042D01*
Y0806041D01*
X0729121Y0807041D01*
X0727122D01*
X0726122Y0806041D01*
Y0804042D01*
X0727122Y0803042D01*
X0732120Y0801043D02*
Y0807041D01*
X0735119D01*
X0736119Y0806041D01*
Y0804042D01*
X0735119Y0803042D01*
X0732120D01*
X0747115Y0809040D02*
X0745116D01*
X0744116Y0808041D01*
Y0804042D01*
X0745116Y0803042D01*
X0747115D01*
X0748115Y0804042D01*
Y0808041D01*
X0747115Y0809040D01*
X0750114Y0807041D02*
X0752114Y0803042D01*
X0754113Y0807041D01*
X0759111Y0803042D02*
X0757112D01*
X0756112Y0804042D01*
Y0806041D01*
X0757112Y0807041D01*
X0759111D01*
X0760111Y0806041D01*
Y0805042D01*
X0756112D01*
X0762110Y0807041D02*
Y0803042D01*
Y0805042D01*
X0763110Y0806041D01*
X0764110Y0807041D01*
X0765109D01*
X0768108Y0803042D02*
X0770108D01*
X0769108D01*
Y0809040D01*
X0768108D01*
X0774107Y0807041D02*
X0776106D01*
X0777106Y0806041D01*
Y0803042D01*
X0774107D01*
X0773107Y0804042D01*
X0774107Y0805042D01*
X0777106D01*
X0779105Y0807041D02*
Y0804042D01*
X0780104Y0803042D01*
X0783104D01*
Y0802042D01*
X0782104Y0801043D01*
X0781104D01*
X0783104Y0803042D02*
Y0807041D01*
X0813098Y0815042D02*
Y0821040D01*
X0815098Y0819041D01*
X0817097Y0821040D01*
Y0815042D01*
X0820096Y0819041D02*
X0822095D01*
X0823095Y0818041D01*
Y0815042D01*
X0820096D01*
X0819096Y0816042D01*
X0820096Y0817041D01*
X0823095D01*
X0826094Y0820041D02*
Y0819041D01*
X0825095D01*
X0827094D01*
X0826094D01*
Y0816042D01*
X0827094Y0815042D01*
X0833092D02*
X0831093D01*
X0830093Y0816042D01*
Y0818041D01*
X0831093Y0819041D01*
X0833092D01*
X0834092Y0818041D01*
Y0817041D01*
X0830093D01*
X0836091Y0819041D02*
Y0815042D01*
Y0817041D01*
X0837091Y0818041D01*
X0838090Y0819041D01*
X0839090D01*
X0842089Y0815042D02*
X0844088D01*
X0843089D01*
Y0819041D01*
X0842089D01*
X0848087D02*
X0850086D01*
X0851086Y0818041D01*
Y0815042D01*
X0848087D01*
X0847087Y0816042D01*
X0848087Y0817041D01*
X0851086D01*
X0853085Y0815042D02*
X0855085D01*
X0854085D01*
Y0821040D01*
X0853085D01*
X0817097Y0700040D02*
X0816097Y0701040D01*
X0814098D01*
X0813098Y0700040D01*
Y0699041D01*
X0814098Y0698041D01*
X0816097D01*
X0817097Y0697042D01*
Y0696042D01*
X0816097Y0695042D01*
X0814098D01*
X0813098Y0696042D01*
X0820096Y0695042D02*
X0822095D01*
X0823095Y0696042D01*
Y0698041D01*
X0822095Y0699041D01*
X0820096D01*
X0819096Y0698041D01*
Y0696042D01*
X0820096Y0695042D01*
X0825095D02*
X0827094D01*
X0826094D01*
Y0701040D01*
X0825095D01*
X0834092D02*
Y0695042D01*
X0831093D01*
X0830093Y0696042D01*
Y0698041D01*
X0831093Y0699041D01*
X0834092D01*
X0839090Y0695042D02*
X0837091D01*
X0836091Y0696042D01*
Y0698041D01*
X0837091Y0699041D01*
X0839090D01*
X0840090Y0698041D01*
Y0697042D01*
X0836091D01*
X0842089Y0699041D02*
Y0695042D01*
Y0697042D01*
X0843089Y0698041D01*
X0844088Y0699041D01*
X0845088D01*
X0854085Y0695042D02*
Y0701040D01*
X0857084D01*
X0858084Y0700040D01*
Y0698041D01*
X0857084Y0697042D01*
X0854085D01*
X0856085D02*
X0858084Y0695042D01*
X0863082D02*
X0861083D01*
X0860083Y0696042D01*
Y0698041D01*
X0861083Y0699041D01*
X0863082D01*
X0864082Y0698041D01*
Y0697042D01*
X0860083D01*
X0866081Y0695042D02*
X0869080D01*
X0870080Y0696042D01*
X0869080Y0697042D01*
X0867081D01*
X0866081Y0698041D01*
X0867081Y0699041D01*
X0870080D01*
X0872079Y0695042D02*
X0874079D01*
X0873079D01*
Y0699041D01*
X0872079D01*
X0877078Y0695042D02*
X0880077D01*
X0881076Y0696042D01*
X0880077Y0697042D01*
X0878077D01*
X0877078Y0698041D01*
X0878077Y0699041D01*
X0881076D01*
X0884075Y0700040D02*
Y0699041D01*
X0883076D01*
X0885075D01*
X0884075D01*
Y0696042D01*
X0885075Y0695042D01*
X0817097Y0725040D02*
X0813098D01*
Y0722041D01*
X0815098D01*
X0813098D01*
Y0719042D01*
X0819096D02*
Y0725040D01*
X0822095D01*
X0823095Y0724041D01*
Y0722041D01*
X0822095Y0721041D01*
X0819096D01*
X0821096D02*
X0823095Y0719042D01*
X0825095Y0722041D02*
X0829093D01*
X0834092Y0719042D02*
Y0725040D01*
X0831093Y0722041D01*
X0835091D01*
X0817097Y0749040D02*
X0813098D01*
Y0746041D01*
X0815098D01*
X0813098D01*
Y0743042D01*
X0819096D02*
Y0749040D01*
X0822095D01*
X0823095Y0748040D01*
Y0746041D01*
X0822095Y0745042D01*
X0819096D01*
X0821096D02*
X0823095Y0743042D01*
X0825095Y0746041D02*
X0829093D01*
X0834092Y0743042D02*
Y0749040D01*
X0831093Y0746041D01*
X0835091D01*
X0817097Y0773040D02*
X0813098D01*
Y0770041D01*
X0815098D01*
X0813098D01*
Y0767042D01*
X0819096D02*
Y0773040D01*
X0822095D01*
X0823095Y0772041D01*
Y0770041D01*
X0822095Y0769041D01*
X0819096D01*
X0821096D02*
X0823095Y0767042D01*
X0825095Y0770041D02*
X0829093D01*
X0834092Y0767042D02*
Y0773040D01*
X0831093Y0770041D01*
X0835091D01*
X0817097Y0796040D02*
X0816097Y0797040D01*
X0814098D01*
X0813098Y0796040D01*
Y0795041D01*
X0814098Y0794041D01*
X0816097D01*
X0817097Y0793042D01*
Y0792042D01*
X0816097Y0791042D01*
X0814098D01*
X0813098Y0792042D01*
X0820096Y0791042D02*
X0822095D01*
X0823095Y0792042D01*
Y0794041D01*
X0822095Y0795041D01*
X0820096D01*
X0819096Y0794041D01*
Y0792042D01*
X0820096Y0791042D01*
X0825095D02*
X0827094D01*
X0826094D01*
Y0797040D01*
X0825095D01*
X0834092D02*
Y0791042D01*
X0831093D01*
X0830093Y0792042D01*
Y0794041D01*
X0831093Y0795041D01*
X0834092D01*
X0839090Y0791042D02*
X0837091D01*
X0836091Y0792042D01*
Y0794041D01*
X0837091Y0795041D01*
X0839090D01*
X0840090Y0794041D01*
Y0793042D01*
X0836091D01*
X0842089Y0795041D02*
Y0791042D01*
Y0793042D01*
X0843089Y0794041D01*
X0844088Y0795041D01*
X0845088D01*
X0854085Y0791042D02*
Y0797040D01*
X0857084D01*
X0858084Y0796040D01*
Y0794041D01*
X0857084Y0793042D01*
X0854085D01*
X0856085D02*
X0858084Y0791042D01*
X0863082D02*
X0861083D01*
X0860083Y0792042D01*
Y0794041D01*
X0861083Y0795041D01*
X0863082D01*
X0864082Y0794041D01*
Y0793042D01*
X0860083D01*
X0866081Y0791042D02*
X0869080D01*
X0870080Y0792042D01*
X0869080Y0793042D01*
X0867081D01*
X0866081Y0794041D01*
X0867081Y0795041D01*
X0870080D01*
X0872079Y0791042D02*
X0874079D01*
X0873079D01*
Y0795041D01*
X0872079D01*
X0877078Y0791042D02*
X0880077D01*
X0881076Y0792042D01*
X0880077Y0793042D01*
X0878077D01*
X0877078Y0794041D01*
X0878077Y0795041D01*
X0881076D01*
X0884075Y0796040D02*
Y0795041D01*
X0883076D01*
X0885075D01*
X0884075D01*
Y0792042D01*
X0885075Y0791042D01*
X0899075Y0821040D02*
X0903074D01*
X0901074D01*
Y0815042D01*
X0905073Y0821040D02*
Y0815042D01*
Y0818041D01*
X0906073Y0819041D01*
X0908072D01*
X0909072Y0818041D01*
Y0815042D01*
X0911071D02*
X0913071D01*
X0912071D01*
Y0819041D01*
X0911071D01*
X0920068D02*
X0917069D01*
X0916070Y0818041D01*
Y0816042D01*
X0917069Y0815042D01*
X0920068D01*
X0922068D02*
Y0821040D01*
Y0817041D02*
X0925067Y0819041D01*
X0922068Y0817041D02*
X0925067Y0815042D01*
X0928066D02*
Y0819041D01*
X0931065D01*
X0932064Y0818041D01*
Y0815042D01*
X0937063D02*
X0935063D01*
X0934064Y0816042D01*
Y0818041D01*
X0935063Y0819041D01*
X0937063D01*
X0938062Y0818041D01*
Y0817041D01*
X0934064D01*
X0940062Y0815042D02*
X0943061D01*
X0944061Y0816042D01*
X0943061Y0817041D01*
X0941061D01*
X0940062Y0818041D01*
X0941061Y0819041D01*
X0944061D01*
X0946060Y0815042D02*
X0949059D01*
X0950059Y0816042D01*
X0949059Y0817041D01*
X0947060D01*
X0946060Y0818041D01*
X0947060Y0819041D01*
X0950059D01*
X0899075Y0700040D02*
X0900075Y0701040D01*
X0902074D01*
X0903074Y0700040D01*
Y0696042D01*
X0902074Y0695042D01*
X0900075D01*
X0899075Y0696042D01*
Y0700040D01*
X0906073Y0694042D02*
X0907073Y0695042D01*
Y0696042D01*
X0906073D01*
Y0695042D01*
X0907073D01*
X0906073Y0694042D01*
X0905073Y0693043D01*
X0911071Y0700040D02*
X0912071Y0701040D01*
X0914070D01*
X0915070Y0700040D01*
Y0696042D01*
X0914070Y0695042D01*
X0912071D01*
X0911071Y0696042D01*
Y0700040D01*
X0917069Y0695042D02*
X0919069D01*
X0918069D01*
Y0701040D01*
X0917069Y0700040D01*
X0922068D02*
X0923067Y0701040D01*
X0925067D01*
X0926066Y0700040D01*
Y0696042D01*
X0925067Y0695042D01*
X0923067D01*
X0922068Y0696042D01*
Y0700040D01*
X0928066Y0695042D02*
Y0699041D01*
X0929065D01*
X0930065Y0698041D01*
Y0695042D01*
Y0698041D01*
X0931065Y0699041D01*
X0932064Y0698041D01*
Y0695042D01*
X0934064D02*
Y0699041D01*
X0935063D01*
X0936063Y0698041D01*
Y0695042D01*
Y0698041D01*
X0937063Y0699041D01*
X0938062Y0698041D01*
Y0695042D01*
X0899075Y0712041D02*
X0900075Y0713040D01*
X0902074D01*
X0903074Y0712041D01*
Y0708042D01*
X0902074Y0707042D01*
X0900075D01*
X0899075Y0708042D01*
Y0712041D01*
X0906073Y0706042D02*
X0907073Y0707042D01*
Y0708042D01*
X0906073D01*
Y0707042D01*
X0907073D01*
X0906073Y0706042D01*
X0905073Y0705043D01*
X0911071Y0712041D02*
X0912071Y0713040D01*
X0914070D01*
X0915070Y0712041D01*
Y0708042D01*
X0914070Y0707042D01*
X0912071D01*
X0911071Y0708042D01*
Y0712041D01*
X0917069D02*
X0918069Y0713040D01*
X0920068D01*
X0921068Y0712041D01*
Y0711041D01*
X0920068Y0710041D01*
X0919069D01*
X0920068D01*
X0921068Y0709042D01*
Y0708042D01*
X0920068Y0707042D01*
X0918069D01*
X0917069Y0708042D01*
X0927066Y0713040D02*
X0923067D01*
Y0710041D01*
X0925067Y0711041D01*
X0926066D01*
X0927066Y0710041D01*
Y0708042D01*
X0926066Y0707042D01*
X0924067D01*
X0923067Y0708042D01*
X0929065Y0707042D02*
Y0711041D01*
X0930065D01*
X0931065Y0710041D01*
Y0707042D01*
Y0710041D01*
X0932064Y0711041D01*
X0933064Y0710041D01*
Y0707042D01*
X0935063D02*
Y0711041D01*
X0936063D01*
X0937063Y0710041D01*
Y0707042D01*
Y0710041D01*
X0938062Y0711041D01*
X0939062Y0710041D01*
Y0707042D01*
X0899075Y0724041D02*
X0900075Y0725040D01*
X0902074D01*
X0903074Y0724041D01*
Y0720042D01*
X0902074Y0719042D01*
X0900075D01*
X0899075Y0720042D01*
Y0724041D01*
X0906073Y0718043D02*
X0907073Y0719042D01*
Y0720042D01*
X0906073D01*
Y0719042D01*
X0907073D01*
X0906073Y0718043D01*
X0905073Y0717043D01*
X0911071Y0719042D02*
X0913071D01*
X0912071D01*
Y0725040D01*
X0911071Y0724041D01*
X0916070Y0719042D02*
X0918069D01*
X0917069D01*
Y0725040D01*
X0916070Y0724041D01*
X0921068D02*
X0922068Y0725040D01*
X0924067D01*
X0925067Y0724041D01*
Y0720042D01*
X0924067Y0719042D01*
X0922068D01*
X0921068Y0720042D01*
Y0724041D01*
X0927066Y0719042D02*
Y0723041D01*
X0928066D01*
X0929065Y0722041D01*
Y0719042D01*
Y0722041D01*
X0930065Y0723041D01*
X0931065Y0722041D01*
Y0719042D01*
X0933064D02*
Y0723041D01*
X0934064D01*
X0935063Y0722041D01*
Y0719042D01*
Y0722041D01*
X0936063Y0723041D01*
X0937063Y0722041D01*
Y0719042D01*
X0899075Y0736040D02*
X0900075Y0737040D01*
X0902074D01*
X0903074Y0736040D01*
Y0732042D01*
X0902074Y0731042D01*
X0900075D01*
X0899075Y0732042D01*
Y0736040D01*
X0906073Y0730043D02*
X0907073Y0731042D01*
Y0732042D01*
X0906073D01*
Y0731042D01*
X0907073D01*
X0906073Y0730043D01*
X0905073Y0729043D01*
X0911071Y0736040D02*
X0912071Y0737040D01*
X0914070D01*
X0915070Y0736040D01*
Y0732042D01*
X0914070Y0731042D01*
X0912071D01*
X0911071Y0732042D01*
Y0736040D01*
X0917069D02*
X0918069Y0737040D01*
X0920068D01*
X0921068Y0736040D01*
Y0735041D01*
X0920068Y0734041D01*
X0919069D01*
X0920068D01*
X0921068Y0733041D01*
Y0732042D01*
X0920068Y0731042D01*
X0918069D01*
X0917069Y0732042D01*
X0927066Y0737040D02*
X0923067D01*
Y0734041D01*
X0925067Y0735041D01*
X0926066D01*
X0927066Y0734041D01*
Y0732042D01*
X0926066Y0731042D01*
X0924067D01*
X0923067Y0732042D01*
X0929065Y0731042D02*
Y0735041D01*
X0930065D01*
X0931065Y0734041D01*
Y0731042D01*
Y0734041D01*
X0932064Y0735041D01*
X0933064Y0734041D01*
Y0731042D01*
X0935063D02*
Y0735041D01*
X0936063D01*
X0937063Y0734041D01*
Y0731042D01*
Y0734041D01*
X0938062Y0735041D01*
X0939062Y0734041D01*
Y0731042D01*
X0899075Y0743042D02*
X0901074D01*
X0900075D01*
Y0749040D01*
X0899075Y0748040D01*
X0905073Y0742042D02*
X0906073Y0743042D01*
Y0744042D01*
X0905073D01*
Y0743042D01*
X0906073D01*
X0905073Y0742042D01*
X0904074Y0741043D01*
X0910071Y0743042D02*
X0912071D01*
X0911071D01*
Y0749040D01*
X0910071Y0748040D01*
X0915070D02*
X0916070Y0749040D01*
X0918069D01*
X0919069Y0748040D01*
Y0747041D01*
X0918069Y0746041D01*
X0917069D01*
X0918069D01*
X0919069Y0745042D01*
Y0744042D01*
X0918069Y0743042D01*
X0916070D01*
X0915070Y0744042D01*
X0921068Y0748040D02*
X0922068Y0749040D01*
X0924067D01*
X0925067Y0748040D01*
Y0744042D01*
X0924067Y0743042D01*
X0922068D01*
X0921068Y0744042D01*
Y0748040D01*
X0927066Y0743042D02*
Y0747041D01*
X0928066D01*
X0929065Y0746041D01*
Y0743042D01*
Y0746041D01*
X0930065Y0747041D01*
X0931065Y0746041D01*
Y0743042D01*
X0933064D02*
Y0747041D01*
X0934064D01*
X0935063Y0746041D01*
Y0743042D01*
Y0746041D01*
X0936063Y0747041D01*
X0937063Y0746041D01*
Y0743042D01*
X0899075Y0760041D02*
X0900075Y0761040D01*
X0902074D01*
X0903074Y0760041D01*
Y0756042D01*
X0902074Y0755042D01*
X0900075D01*
X0899075Y0756042D01*
Y0760041D01*
X0906073Y0754042D02*
X0907073Y0755042D01*
Y0756042D01*
X0906073D01*
Y0755042D01*
X0907073D01*
X0906073Y0754042D01*
X0905073Y0753043D01*
X0911071Y0760041D02*
X0912071Y0761040D01*
X0914070D01*
X0915070Y0760041D01*
Y0756042D01*
X0914070Y0755042D01*
X0912071D01*
X0911071Y0756042D01*
Y0760041D01*
X0917069D02*
X0918069Y0761040D01*
X0920068D01*
X0921068Y0760041D01*
Y0759041D01*
X0920068Y0758041D01*
X0919069D01*
X0920068D01*
X0921068Y0757042D01*
Y0756042D01*
X0920068Y0755042D01*
X0918069D01*
X0917069Y0756042D01*
X0927066Y0761040D02*
X0923067D01*
Y0758041D01*
X0925067Y0759041D01*
X0926066D01*
X0927066Y0758041D01*
Y0756042D01*
X0926066Y0755042D01*
X0924067D01*
X0923067Y0756042D01*
X0929065Y0755042D02*
Y0759041D01*
X0930065D01*
X0931065Y0758041D01*
Y0755042D01*
Y0758041D01*
X0932064Y0759041D01*
X0933064Y0758041D01*
Y0755042D01*
X0935063D02*
Y0759041D01*
X0936063D01*
X0937063Y0758041D01*
Y0755042D01*
Y0758041D01*
X0938062Y0759041D01*
X0939062Y0758041D01*
Y0755042D01*
X0899075Y0772041D02*
X0900075Y0773040D01*
X0902074D01*
X0903074Y0772041D01*
Y0768042D01*
X0902074Y0767042D01*
X0900075D01*
X0899075Y0768042D01*
Y0772041D01*
X0906073Y0766043D02*
X0907073Y0767042D01*
Y0768042D01*
X0906073D01*
Y0767042D01*
X0907073D01*
X0906073Y0766043D01*
X0905073Y0765043D01*
X0911071Y0767042D02*
X0913071D01*
X0912071D01*
Y0773040D01*
X0911071Y0772041D01*
X0916070Y0767042D02*
X0918069D01*
X0917069D01*
Y0773040D01*
X0916070Y0772041D01*
X0921068D02*
X0922068Y0773040D01*
X0924067D01*
X0925067Y0772041D01*
Y0768042D01*
X0924067Y0767042D01*
X0922068D01*
X0921068Y0768042D01*
Y0772041D01*
X0927066Y0767042D02*
Y0771041D01*
X0928066D01*
X0929065Y0770041D01*
Y0767042D01*
Y0770041D01*
X0930065Y0771041D01*
X0931065Y0770041D01*
Y0767042D01*
X0933064D02*
Y0771041D01*
X0934064D01*
X0935063Y0770041D01*
Y0767042D01*
Y0770041D01*
X0936063Y0771041D01*
X0937063Y0770041D01*
Y0767042D01*
X0899075Y0784040D02*
X0900075Y0785040D01*
X0902074D01*
X0903074Y0784040D01*
Y0780042D01*
X0902074Y0779042D01*
X0900075D01*
X0899075Y0780042D01*
Y0784040D01*
X0906073Y0778043D02*
X0907073Y0779042D01*
Y0780042D01*
X0906073D01*
Y0779042D01*
X0907073D01*
X0906073Y0778043D01*
X0905073Y0777043D01*
X0911071Y0784040D02*
X0912071Y0785040D01*
X0914070D01*
X0915070Y0784040D01*
Y0780042D01*
X0914070Y0779042D01*
X0912071D01*
X0911071Y0780042D01*
Y0784040D01*
X0917069D02*
X0918069Y0785040D01*
X0920068D01*
X0921068Y0784040D01*
Y0783041D01*
X0920068Y0782041D01*
X0919069D01*
X0920068D01*
X0921068Y0781041D01*
Y0780042D01*
X0920068Y0779042D01*
X0918069D01*
X0917069Y0780042D01*
X0927066Y0785040D02*
X0923067D01*
Y0782041D01*
X0925067Y0783041D01*
X0926066D01*
X0927066Y0782041D01*
Y0780042D01*
X0926066Y0779042D01*
X0924067D01*
X0923067Y0780042D01*
X0929065Y0779042D02*
Y0783041D01*
X0930065D01*
X0931065Y0782041D01*
Y0779042D01*
Y0782041D01*
X0932064Y0783041D01*
X0933064Y0782041D01*
Y0779042D01*
X0935063D02*
Y0783041D01*
X0936063D01*
X0937063Y0782041D01*
Y0779042D01*
Y0782041D01*
X0938062Y0783041D01*
X0939062Y0782041D01*
Y0779042D01*
X0899075Y0796040D02*
X0900075Y0797040D01*
X0902074D01*
X0903074Y0796040D01*
Y0792042D01*
X0902074Y0791042D01*
X0900075D01*
X0899075Y0792042D01*
Y0796040D01*
X0906073Y0790042D02*
X0907073Y0791042D01*
Y0792042D01*
X0906073D01*
Y0791042D01*
X0907073D01*
X0906073Y0790042D01*
X0905073Y0789043D01*
X0911071Y0796040D02*
X0912071Y0797040D01*
X0914070D01*
X0915070Y0796040D01*
Y0792042D01*
X0914070Y0791042D01*
X0912071D01*
X0911071Y0792042D01*
Y0796040D01*
X0917069Y0791042D02*
X0919069D01*
X0918069D01*
Y0797040D01*
X0917069Y0796040D01*
X0922068D02*
X0923067Y0797040D01*
X0925067D01*
X0926066Y0796040D01*
Y0792042D01*
X0925067Y0791042D01*
X0923067D01*
X0922068Y0792042D01*
Y0796040D01*
X0928066Y0791042D02*
Y0795041D01*
X0929065D01*
X0930065Y0794041D01*
Y0791042D01*
Y0794041D01*
X0931065Y0795041D01*
X0932064Y0794041D01*
Y0791042D01*
X0934064D02*
Y0795041D01*
X0935063D01*
X0936063Y0794041D01*
Y0791042D01*
Y0794041D01*
X0937063Y0795041D01*
X0938062Y0794041D01*
Y0791042D01*
X0968057Y0820041D02*
X0967058Y0821040D01*
X0965058D01*
X0964059Y0820041D01*
Y0816042D01*
X0965058Y0815042D01*
X0967058D01*
X0968057Y0816042D01*
X0971056Y0815042D02*
X0973056D01*
X0974055Y0816042D01*
Y0818041D01*
X0973056Y0819041D01*
X0971056D01*
X0970057Y0818041D01*
Y0816042D01*
X0971056Y0815042D01*
X0976055D02*
Y0819041D01*
X0979054D01*
X0980053Y0818041D01*
Y0815042D01*
X0982053D02*
X0985052D01*
X0986051Y0816042D01*
X0985052Y0817041D01*
X0983053D01*
X0982053Y0818041D01*
X0983053Y0819041D01*
X0986051D01*
X0989050Y0820041D02*
Y0819041D01*
X0988051D01*
X0990050D01*
X0989050D01*
Y0816042D01*
X0990050Y0815042D01*
X0994049Y0819041D02*
X0996048D01*
X0997048Y0818041D01*
Y0815042D01*
X0994049D01*
X0993049Y0816042D01*
X0994049Y0817041D01*
X0997048D01*
X0999047Y0815042D02*
Y0819041D01*
X1002046D01*
X1003046Y0818041D01*
Y0815042D01*
X1006045Y0820041D02*
Y0819041D01*
X1005045D01*
X1007045D01*
X1006045D01*
Y0816042D01*
X1007045Y0815042D01*
X0964059Y0700040D02*
X0965058Y0701040D01*
X0967058D01*
X0968057Y0700040D01*
Y0699041D01*
X0967058Y0698041D01*
X0966058D01*
X0967058D01*
X0968057Y0697042D01*
Y0696042D01*
X0967058Y0695042D01*
X0965058D01*
X0964059Y0696042D01*
X0970057Y0695042D02*
Y0696042D01*
X0971056D01*
Y0695042D01*
X0970057D01*
X0979054Y0701040D02*
X0975055D01*
Y0698041D01*
X0977054Y0699041D01*
X0978054D01*
X0979054Y0698041D01*
Y0696042D01*
X0978054Y0695042D01*
X0976055D01*
X0975055Y0696042D01*
X0967058Y0719042D02*
Y0725040D01*
X0964059Y0722041D01*
X0968057D01*
X0970057Y0719042D02*
Y0720042D01*
X0971056D01*
Y0719042D01*
X0970057D01*
X0975055Y0724041D02*
X0976055Y0725040D01*
X0978054D01*
X0979054Y0724041D01*
Y0723041D01*
X0978054Y0722041D01*
X0979054Y0721041D01*
Y0720042D01*
X0978054Y0719042D01*
X0976055D01*
X0975055Y0720042D01*
Y0721041D01*
X0976055Y0722041D01*
X0975055Y0723041D01*
Y0724041D01*
X0976055Y0722041D02*
X0978054D01*
X0967058Y0743042D02*
Y0749040D01*
X0964059Y0746041D01*
X0968057D01*
X0970057Y0743042D02*
Y0744042D01*
X0971056D01*
Y0743042D01*
X0970057D01*
X0975055Y0748040D02*
X0976055Y0749040D01*
X0978054D01*
X0979054Y0748040D01*
Y0747041D01*
X0978054Y0746041D01*
X0979054Y0745042D01*
Y0744042D01*
X0978054Y0743042D01*
X0976055D01*
X0975055Y0744042D01*
Y0745042D01*
X0976055Y0746041D01*
X0975055Y0747041D01*
Y0748040D01*
X0976055Y0746041D02*
X0978054D01*
X0967058Y0767042D02*
Y0773040D01*
X0964059Y0770041D01*
X0968057D01*
X0970057Y0767042D02*
Y0768042D01*
X0971056D01*
Y0767042D01*
X0970057D01*
X0975055Y0772041D02*
X0976055Y0773040D01*
X0978054D01*
X0979054Y0772041D01*
Y0771041D01*
X0978054Y0770041D01*
X0979054Y0769041D01*
Y0768042D01*
X0978054Y0767042D01*
X0976055D01*
X0975055Y0768042D01*
Y0769041D01*
X0976055Y0770041D01*
X0975055Y0771041D01*
Y0772041D01*
X0976055Y0770041D02*
X0978054D01*
X0964059Y0796040D02*
X0965058Y0797040D01*
X0967058D01*
X0968057Y0796040D01*
Y0795041D01*
X0967058Y0794041D01*
X0966058D01*
X0967058D01*
X0968057Y0793042D01*
Y0792042D01*
X0967058Y0791042D01*
X0965058D01*
X0964059Y0792042D01*
X0970057Y0791042D02*
Y0792042D01*
X0971056D01*
Y0791042D01*
X0970057D01*
X0979054Y0797040D02*
X0975055D01*
Y0794041D01*
X0977054Y0795041D01*
X0978054D01*
X0979054Y0794041D01*
Y0792042D01*
X0978054Y0791042D01*
X0976055D01*
X0975055Y0792042D01*
X1021045Y0821040D02*
Y0815042D01*
X1024044D01*
X1025043Y0816042D01*
Y0817041D01*
X1024044Y0818041D01*
X1021045D01*
X1024044D01*
X1025043Y0819041D01*
Y0820041D01*
X1024044Y0821040D01*
X1021045D01*
X1028042Y0815042D02*
X1030042D01*
X1031042Y0816042D01*
Y0818041D01*
X1030042Y0819041D01*
X1028042D01*
X1027043Y0818041D01*
Y0816042D01*
X1028042Y0815042D01*
X1034041Y0819041D02*
X1036040D01*
X1037039Y0818041D01*
Y0815042D01*
X1034041D01*
X1033041Y0816042D01*
X1034041Y0817041D01*
X1037039D01*
X1039039Y0819041D02*
Y0815042D01*
Y0817041D01*
X1040039Y0818041D01*
X1041038Y0819041D01*
X1042038D01*
X1049036Y0821040D02*
Y0815042D01*
X1046037D01*
X1045037Y0816042D01*
Y0818041D01*
X1046037Y0819041D01*
X1049036D01*
X1057033Y0821040D02*
Y0815042D01*
X1061032D01*
X1064031Y0819041D02*
X1066030D01*
X1067030Y0818041D01*
Y0815042D01*
X1064031D01*
X1063031Y0816042D01*
X1064031Y0817041D01*
X1067030D01*
X1069029Y0819041D02*
Y0816042D01*
X1070029Y0815042D01*
X1073028D01*
Y0814042D01*
X1072028Y0813043D01*
X1071029D01*
X1073028Y0815042D02*
Y0819041D01*
X1078026Y0815042D02*
X1076027D01*
X1075027Y0816042D01*
Y0818041D01*
X1076027Y0819041D01*
X1078026D01*
X1079026Y0818041D01*
Y0817041D01*
X1075027D01*
X1081025Y0819041D02*
Y0815042D01*
Y0817041D01*
X1082025Y0818041D01*
X1083025Y0819041D01*
X1084024D01*
X1097020Y0820041D02*
X1096020Y0821040D01*
X1094021D01*
X1093021Y0820041D01*
Y0819041D01*
X1094021Y0818041D01*
X1096020D01*
X1097020Y0817041D01*
Y0816042D01*
X1096020Y0815042D01*
X1094021D01*
X1093021Y0816042D01*
X1100019Y0820041D02*
Y0819041D01*
X1099020D01*
X1101019D01*
X1100019D01*
Y0816042D01*
X1101019Y0815042D01*
X1105017Y0819041D02*
X1107017D01*
X1108017Y0818041D01*
Y0815042D01*
X1105017D01*
X1104018Y0816042D01*
X1105017Y0817041D01*
X1108017D01*
X1114015Y0819041D02*
X1111016D01*
X1110016Y0818041D01*
Y0816042D01*
X1111016Y0815042D01*
X1114015D01*
X1116014D02*
Y0821040D01*
Y0817041D02*
X1119013Y0819041D01*
X1116014Y0817041D02*
X1119013Y0815042D01*
D216*
X0672133Y0812042D02*
X1126013D01*
X0672133Y0824042D02*
X1126013D01*
X0672133Y0680042D02*
Y0824042D01*
Y0680042D02*
X0713124D01*
X0672133Y0692042D02*
X0713124D01*
X0672133Y0704042D02*
X0713124D01*
X0672133Y0716042D02*
X0713124D01*
X0672133Y0728042D02*
X0713124D01*
X0672133Y0740042D02*
X0713124D01*
X0672133Y0752042D02*
X0713124D01*
X0672133Y0764042D02*
X0713124D01*
X0672133Y0776042D02*
X0713124D01*
X0672133Y0788042D02*
X0713124D01*
X0672133Y0800042D02*
X0713124D01*
Y0680042D02*
Y0824042D01*
Y0680042D02*
X0806098D01*
X0713124Y0692042D02*
X0806098D01*
X0713124Y0704042D02*
X0806098D01*
X0713124Y0716042D02*
X0806098D01*
X0713124Y0728042D02*
X0806098D01*
X0713124Y0740042D02*
X0806098D01*
X0713124Y0752042D02*
X0806098D01*
X0713124Y0764042D02*
X0806098D01*
X0713124Y0776042D02*
X0806098D01*
X0713124Y0788042D02*
X0806098D01*
X0713124Y0800042D02*
X0806098D01*
Y0680042D02*
Y0824042D01*
Y0680042D02*
X0892075D01*
X0806098Y0692042D02*
X0892075D01*
X0806098Y0704042D02*
X0892075D01*
X0806098Y0716042D02*
X0892075D01*
X0806098Y0728042D02*
X0892075D01*
X0806098Y0740042D02*
X0892075D01*
X0806098Y0752042D02*
X0892075D01*
X0806098Y0764042D02*
X0892075D01*
X0806098Y0776042D02*
X0892075D01*
X0806098Y0788042D02*
X0892075D01*
X0806098Y0800042D02*
X0892075D01*
Y0680042D02*
Y0824042D01*
Y0680042D02*
X0957059D01*
X0892075Y0692042D02*
X0957059D01*
X0892075Y0704042D02*
X0957059D01*
X0892075Y0716042D02*
X0957059D01*
X0892075Y0728042D02*
X0957059D01*
X0892075Y0740042D02*
X0957059D01*
X0892075Y0752042D02*
X0957059D01*
X0892075Y0764042D02*
X0957059D01*
X0892075Y0776042D02*
X0957059D01*
X0892075Y0788042D02*
X0957059D01*
X0892075Y0800042D02*
X0957059D01*
Y0680042D02*
Y0824042D01*
Y0680042D02*
X1014045D01*
X0957059Y0692042D02*
X1014045D01*
X0957059Y0704042D02*
X1014045D01*
X0957059Y0716042D02*
X1014045D01*
X0957059Y0728042D02*
X1014045D01*
X0957059Y0740042D02*
X1014045D01*
X0957059Y0752042D02*
X1014045D01*
X0957059Y0764042D02*
X1014045D01*
X0957059Y0776042D02*
X1014045D01*
X0957059Y0788042D02*
X1014045D01*
X0957059Y0800042D02*
X1014045D01*
Y0680042D02*
Y0824042D01*
Y0680042D02*
X1126013D01*
X1014045Y0692042D02*
X1126013D01*
X1014045Y0704042D02*
X1126013D01*
X1014045Y0716042D02*
X1126013D01*
X1014045Y0728042D02*
X1126013D01*
X1014045Y0740042D02*
X1126013D01*
X1014045Y0752042D02*
X1126013D01*
X1014045Y0764042D02*
X1126013D01*
X1014045Y0776042D02*
X1126013D01*
X1014045Y0788042D02*
X1126013D01*
X1014045Y0800042D02*
X1126013D01*
Y0680042D02*
Y0824042D01*
X0672780Y0469539D02*
X0673567Y0468068D01*
X0674625Y0466778D01*
X0675915Y0465720D01*
X0677386Y0464934D01*
X0678983Y0464449D01*
X0687972Y0463564D01*
X1008288D01*
Y0523857D01*
X1008359Y0524489D01*
X1008569Y0525088D01*
X1008907Y0525626D01*
X1009356Y0526075D01*
X1009894Y0526413D01*
X1010493Y0526623D01*
X1011125Y0526694D01*
X1057931D01*
X1058562Y0526623D01*
X1059162Y0526413D01*
X1059700Y0526075D01*
X1060149Y0525626D01*
X1060487Y0525088D01*
X1060697Y0524489D01*
X1060768Y0523857D01*
Y0464286D02*
Y0523857D01*
Y0464286D02*
X1117503D01*
X1119163Y0464449D01*
X1120759Y0464934D01*
X1122231Y0465720D01*
X1123520Y0466778D01*
X1124579Y0468068D01*
X1125365Y0469539D01*
X1125850Y0471136D01*
X1126013Y0472796D01*
Y0668285D01*
X1125850Y0669945D02*
X1126013Y0668285D01*
X1125365Y0671542D02*
X1125850Y0669945D01*
X1124579Y0673013D02*
X1125365Y0671542D01*
X1123520Y0674303D02*
X1124579Y0673013D01*
X1122231Y0675361D02*
X1123520Y0674303D01*
X1120759Y0676148D02*
X1122231Y0675361D01*
X1119163Y0676632D02*
X1120759Y0676148D01*
X1114997Y0677042D02*
X1119163Y0676632D01*
X0683148Y0677042D02*
X1114997D01*
X0678983Y0676632D02*
X0683148Y0677042D01*
X0677386Y0676148D02*
X0678983Y0676632D01*
X0675915Y0675361D02*
X0677386Y0676148D01*
X0674625Y0674303D02*
X0675915Y0675361D01*
X0673567Y0673013D02*
X0674625Y0674303D01*
X0672780Y0671542D02*
X0673567Y0673013D01*
X0672296Y0669945D02*
X0672780Y0671542D01*
X0672133Y0668285D02*
X0672296Y0669945D01*
X0672133Y0472796D02*
Y0668285D01*
Y0472796D02*
X0672296Y0471136D01*
X0672780Y0469539D01*
M02*
