G04*
G04 #@! TF.GenerationSoftware,Altium Limited,Altium Designer,21.2.2 (38)*
G04*
G04 Layer_Physical_Order=4*
G04 Layer_Color=16711680*
%FSAX25Y25*%
%MOIN*%
G70*
G04*
G04 #@! TF.SameCoordinates,D0FF6B23-36CC-4740-AB7B-40CE6848005B*
G04*
G04*
G04 #@! TF.FilePolarity,Positive*
G04*
G01*
G75*
%ADD10C,0.00984*%
%ADD11C,0.00787*%
%ADD13C,0.01181*%
%ADD16C,0.01968*%
%ADD25C,0.05906*%
%ADD26R,0.05906X0.05906*%
%ADD29R,0.07874X0.07874*%
%ADD149C,0.01102*%
%ADD150C,0.01575*%
%ADD151C,0.00800*%
%ADD152C,0.00605*%
%ADD153C,0.00799*%
%ADD155C,0.01299*%
%ADD156C,0.00600*%
%ADD157C,0.00988*%
%ADD158C,0.04724*%
%ADD161C,0.03937*%
%ADD181C,0.11024*%
%ADD182C,0.05543*%
%ADD183C,0.21654*%
%ADD184R,0.05906X0.05906*%
%ADD185C,0.05512*%
%ADD186C,0.06102*%
%ADD187C,0.04921*%
%ADD188C,0.09449*%
%ADD189C,0.06024*%
%ADD190R,0.07874X0.06299*%
%ADD191O,0.07874X0.06299*%
%ADD192R,0.07480X0.07480*%
%ADD193C,0.07480*%
%ADD194C,0.06693*%
%ADD195R,0.06693X0.06693*%
%ADD196O,0.03937X0.06299*%
%ADD197C,0.01772*%
%ADD198C,0.02500*%
%ADD199C,0.01968*%
%ADD200C,0.02362*%
%ADD201C,0.03937*%
%ADD212C,0.00787*%
G36*
X0720160Y0317873D02*
X0720230Y0317673D01*
X0720106Y0317274D01*
X0719880Y0316913D01*
X0719560Y0316583D01*
X0719020Y0316253D01*
X0718740Y0316153D01*
X0717870Y0316133D01*
X0717500Y0316243D01*
X0717110Y0316473D01*
X0716880Y0316683D01*
X0716590Y0316973D01*
X0716421Y0317227D01*
X0716270Y0317693D01*
X0716559Y0317991D01*
X0719953D01*
X0720160Y0317873D01*
D02*
G37*
G36*
X0726951Y0317674D02*
X0727021Y0317474D01*
X0726898Y0317075D01*
X0726671Y0316714D01*
X0726351Y0316384D01*
X0725811Y0316054D01*
X0725531Y0315954D01*
X0724661Y0315934D01*
X0724291Y0316044D01*
X0723901Y0316274D01*
X0723671Y0316484D01*
X0723381Y0316774D01*
X0723213Y0317028D01*
X0723061Y0317494D01*
X0723350Y0317791D01*
X0726744D01*
X0726951Y0317674D01*
D02*
G37*
G36*
X0735161Y0311881D02*
X0735552Y0311651D01*
X0735781Y0311441D01*
X0736071Y0311152D01*
X0736240Y0310897D01*
X0736391Y0310432D01*
X0736102Y0310134D01*
X0732709D01*
X0732502Y0310251D01*
X0732432Y0310452D01*
X0732555Y0310850D01*
X0732782Y0311211D01*
X0733102Y0311542D01*
X0733641Y0311872D01*
X0733921Y0311971D01*
X0734792Y0311992D01*
X0735161Y0311881D01*
D02*
G37*
G36*
X0729158Y0311682D02*
X0729548Y0311452D01*
X0729778Y0311242D01*
X0730068Y0310952D01*
X0730236Y0310698D01*
X0730388Y0310232D01*
X0730098Y0309934D01*
X0726705D01*
X0726498Y0310052D01*
X0726428Y0310252D01*
X0726551Y0310651D01*
X0726778Y0311012D01*
X0727098Y0311342D01*
X0727638Y0311672D01*
X0727918Y0311772D01*
X0728788Y0311792D01*
X0729158Y0311682D01*
D02*
G37*
G36*
X0730298Y0309212D02*
X0730368Y0309012D01*
X0730244Y0308613D01*
X0730018Y0308252D01*
X0729698Y0307922D01*
X0729158Y0307592D01*
X0728878Y0307492D01*
X0728008Y0307472D01*
X0727638Y0307582D01*
X0727248Y0307812D01*
X0727018Y0308022D01*
X0726728Y0308312D01*
X0726559Y0308566D01*
X0726408Y0309032D01*
X0726697Y0309330D01*
X0730091D01*
X0730298Y0309212D01*
D02*
G37*
G36*
X0736302Y0309211D02*
X0736372Y0309012D01*
X0736248Y0308613D01*
X0736022Y0308252D01*
X0735702Y0307922D01*
X0735161Y0307592D01*
X0734881Y0307491D01*
X0734012Y0307471D01*
X0733641Y0307581D01*
X0733251Y0307811D01*
X0733021Y0308021D01*
X0732731Y0308312D01*
X0732563Y0308565D01*
X0732411Y0309032D01*
X0732701Y0309329D01*
X0736094D01*
X0736302Y0309211D01*
D02*
G37*
G36*
X0726205Y0332354D02*
X0726595Y0332124D01*
X0726825Y0331914D01*
X0727115Y0331624D01*
X0727283Y0331370D01*
X0727435Y0330904D01*
X0727146Y0330606D01*
X0723752D01*
X0723545Y0330724D01*
X0723475Y0330924D01*
X0723598Y0331323D01*
X0723825Y0331684D01*
X0724145Y0332014D01*
X0724685Y0332344D01*
X0724965Y0332444D01*
X0725835Y0332464D01*
X0726205Y0332354D01*
D02*
G37*
G36*
X0719118Y0332351D02*
X0719508Y0332121D01*
X0719738Y0331911D01*
X0720028Y0331622D01*
X0720197Y0331367D01*
X0720348Y0330902D01*
X0720059Y0330604D01*
X0716665D01*
X0716458Y0330721D01*
X0716388Y0330922D01*
X0716512Y0331320D01*
X0716738Y0331681D01*
X0717058Y0332012D01*
X0717598Y0332342D01*
X0717878Y0332441D01*
X0718748Y0332462D01*
X0719118Y0332351D01*
D02*
G37*
G36*
X0720258Y0329882D02*
X0720328Y0329681D01*
X0720205Y0329283D01*
X0719978Y0328922D01*
X0719658Y0328591D01*
X0719118Y0328261D01*
X0718838Y0328162D01*
X0717968Y0328141D01*
X0717598Y0328252D01*
X0717208Y0328482D01*
X0716978Y0328692D01*
X0716688Y0328981D01*
X0716520Y0329236D01*
X0716368Y0329701D01*
X0716657Y0329999D01*
X0720051D01*
X0720258Y0329882D01*
D02*
G37*
G36*
X0727345Y0329684D02*
X0727415Y0329484D01*
X0727291Y0329085D01*
X0727065Y0328724D01*
X0726745Y0328394D01*
X0726205Y0328064D01*
X0725925Y0327964D01*
X0725055Y0327944D01*
X0724685Y0328054D01*
X0724295Y0328284D01*
X0724065Y0328494D01*
X0723775Y0328784D01*
X0723606Y0329038D01*
X0723455Y0329504D01*
X0723744Y0329802D01*
X0727138D01*
X0727345Y0329684D01*
D02*
G37*
G36*
X0725811Y0320344D02*
X0726201Y0320114D01*
X0726431Y0319904D01*
X0726721Y0319614D01*
X0726890Y0319360D01*
X0727041Y0318894D01*
X0726752Y0318596D01*
X0723358D01*
X0723151Y0318714D01*
X0723081Y0318914D01*
X0723205Y0319312D01*
X0723431Y0319674D01*
X0723751Y0320004D01*
X0724291Y0320334D01*
X0724571Y0320434D01*
X0725441Y0320454D01*
X0725811Y0320344D01*
D02*
G37*
G36*
X0719020Y0320343D02*
X0719410Y0320113D01*
X0719640Y0319903D01*
X0719930Y0319613D01*
X0720098Y0319359D01*
X0720250Y0318893D01*
X0719961Y0318595D01*
X0716567D01*
X0716360Y0318713D01*
X0716290Y0318913D01*
X0716413Y0319312D01*
X0716640Y0319673D01*
X0716960Y0320003D01*
X0717500Y0320333D01*
X0717780Y0320433D01*
X0718650Y0320453D01*
X0719020Y0320343D01*
D02*
G37*
D10*
X0879748Y0135295D02*
X0880248Y0134795D01*
X0871248Y0135295D02*
X0879748D01*
X0665307Y0297378D02*
Y0300232D01*
X0673181Y0308106D01*
X0661567Y0302594D02*
X0670228Y0311256D01*
X0661567Y0300626D02*
Y0302594D01*
X0861998Y0160545D02*
X0862075Y0160468D01*
X0870524D01*
X0793457Y0111650D02*
X0847591D01*
X0847596Y0111644D01*
X0871248Y0135295D01*
D11*
X1147886Y0341374D02*
X1148279Y0341768D01*
X1147886Y0341118D02*
Y0341374D01*
X1138024Y0281118D02*
X1138437Y0281532D01*
X1137886Y0281118D02*
X1138024D01*
X0758024Y0314209D02*
Y0318933D01*
X0755760Y0311945D02*
X0758024Y0314209D01*
X0752906Y0311945D02*
X0755760D01*
X0747886Y0316965D02*
X0752906Y0311945D01*
X0731744Y0316965D02*
X0747886D01*
X0729283Y0319425D02*
X0731744Y0316965D01*
X0701035Y0308205D02*
X0704185Y0311354D01*
X0718555D01*
X0739470Y0307762D02*
X0747344D01*
X0747394Y0307713D01*
X0739421Y0307811D02*
X0739470Y0307762D01*
X1007054Y0367246D02*
X1012855Y0361445D01*
X0941404Y0367246D02*
X1007054D01*
X0940830Y0365860D02*
X1006480D01*
X1015898Y0356442D01*
X0931822Y0365960D02*
X0940730D01*
X0940830Y0365860D01*
X0921213Y0355350D02*
X0931822Y0365960D01*
X0941182Y0367467D02*
X0941404Y0367246D01*
X0920228Y0357516D02*
X0930180Y0367467D01*
X0941182D01*
X1015898Y0351218D02*
X1016572Y0350543D01*
X1015898Y0351218D02*
Y0356442D01*
X1012855Y0361445D02*
X1014614D01*
X0907630Y0353874D02*
X0911272Y0357516D01*
X0907630Y0282417D02*
Y0353874D01*
Y0282417D02*
X0937582Y0252466D01*
Y0249819D02*
Y0252466D01*
X0909598Y0283216D02*
X0932838Y0259976D01*
X0932838D01*
X0909598Y0283216D02*
Y0353185D01*
X0932838Y0259976D02*
X0938344Y0254470D01*
X0909598Y0353185D02*
X0911764Y0355350D01*
X0921213D01*
X1016572Y0348787D02*
X1016761Y0348598D01*
X1016572Y0348787D02*
Y0350543D01*
X0911272Y0357516D02*
X0920228D01*
X1014614Y0361445D02*
X1016291Y0363122D01*
Y0363323D01*
D13*
X0934068Y0332478D02*
X0964328Y0362737D01*
X1001522D02*
X1003791Y0360469D01*
X0964328Y0362737D02*
X1001522D01*
X0934068Y0262782D02*
X0963252Y0233598D01*
X0990449D01*
X0934068Y0262782D02*
Y0332478D01*
X0963945Y0235961D02*
X1016079D01*
X0935976Y0263929D02*
Y0331869D01*
Y0263929D02*
X0963945Y0235961D01*
X0935976Y0331869D02*
X0964674Y0360567D01*
X0999264D01*
X1016079Y0235961D02*
X1023744Y0228295D01*
X0990449Y0233598D02*
X0995752Y0228295D01*
X1009941Y0316032D02*
Y0318962D01*
Y0316032D02*
X1018850Y0307122D01*
X1034992D01*
X0957152Y0309399D02*
X0964381Y0316629D01*
X0983056D01*
X0839498Y0208045D02*
Y0212795D01*
Y0208045D02*
X0864748Y0182795D01*
X0864764Y0182811D01*
X0724362Y0263815D02*
X0727709D01*
X0713043Y0252496D02*
X0724362Y0263815D01*
X0713043Y0234780D02*
Y0252496D01*
X0690996Y0212732D02*
X0713043Y0234780D01*
X0668457Y0212732D02*
X0690996D01*
X0657630Y0201905D02*
X0668457Y0212732D01*
X0646373Y0201905D02*
X0657630D01*
X0691685Y0139701D02*
Y0150429D01*
X0688732Y0130252D02*
Y0136748D01*
Y0130252D02*
X0689323Y0129661D01*
X0688732Y0136748D02*
X0691685Y0139701D01*
X0864764Y0182811D02*
X0865453Y0182122D01*
X0869441D01*
X0870228Y0181335D01*
D16*
X0881067Y0112435D02*
Y0120919D01*
X0595321Y0337825D02*
Y0340778D01*
X0600248Y0345705D01*
X0881067Y0120919D02*
X0903774Y0143626D01*
X1187846Y0267161D02*
Y0279760D01*
X1164224Y0243539D02*
X1187846Y0267161D01*
X0895917Y0152890D02*
Y0174642D01*
X0905760Y0176709D02*
X0924658D01*
X0931941Y0183992D01*
Y0186748D01*
X0895917Y0174642D02*
X0906744Y0185468D01*
X0915701D01*
X0917079Y0186846D01*
X0906744Y0185468D02*
Y0205449D01*
X0912059Y0210764D01*
X0916488D01*
X1164224Y0197280D02*
Y0243146D01*
Y0243539D01*
X1170032Y0134287D02*
X1176232Y0140488D01*
X1171114Y0179563D02*
Y0190390D01*
X1164224Y0197280D02*
X1171114Y0190390D01*
Y0174740D02*
Y0179563D01*
Y0174740D02*
X1176232Y0169622D01*
Y0140488D02*
Y0169622D01*
X0665406Y0186650D02*
X0669835Y0191079D01*
Y0202299D01*
X0674953Y0207417D01*
X0700445D01*
X0728988Y0178874D01*
Y0169327D02*
Y0178874D01*
Y0169327D02*
X0761370Y0136945D01*
X0773378D01*
X0782630Y0146197D01*
Y0164701D01*
X0798673Y0180744D01*
X0800642D01*
X0636961Y0186650D02*
X0665406D01*
X0625642Y0197968D02*
X0636961Y0186650D01*
X0590996Y0130547D02*
Y0333500D01*
X0600248Y0120902D02*
Y0121295D01*
X0785779Y0109189D02*
X0786153Y0108815D01*
X0854809D01*
X0858429Y0112435D01*
X0611961Y0109189D02*
X0785779D01*
X0903774Y0143626D02*
Y0165988D01*
Y0143626D02*
X0955742D01*
Y0165988D01*
Y0143626D02*
X0970146D01*
X0977996Y0135775D01*
X1041500D01*
X1044736Y0139012D01*
Y0193736D01*
X0590996Y0130547D02*
X0600248Y0121295D01*
Y0120902D02*
X0611961Y0109189D01*
X0590996Y0333500D02*
X0595321Y0337825D01*
D25*
X0815748Y0131795D02*
D03*
X0825748Y0121795D02*
D03*
Y0131795D02*
D03*
X0835748Y0121795D02*
D03*
Y0131795D02*
D03*
X0609264Y0322988D02*
D03*
X0599264Y0312988D02*
D03*
X0609264D02*
D03*
X0599264Y0302988D02*
D03*
X0609264D02*
D03*
X0599264Y0292988D02*
D03*
X0609264D02*
D03*
X0599264Y0282988D02*
D03*
X0609264D02*
D03*
X0599264Y0272988D02*
D03*
X0609264D02*
D03*
X0599264Y0262988D02*
D03*
X0609264D02*
D03*
X0599264Y0252988D02*
D03*
X0609264D02*
D03*
X0599264Y0242988D02*
D03*
X0609264D02*
D03*
X0599264Y0232988D02*
D03*
X0609264D02*
D03*
X0599264Y0222988D02*
D03*
X0609264D02*
D03*
X0599264Y0212988D02*
D03*
X0609264D02*
D03*
X0599264Y0202988D02*
D03*
X0609264D02*
D03*
X0599264Y0192988D02*
D03*
X0609264D02*
D03*
X0599264Y0182988D02*
D03*
X0609264D02*
D03*
D26*
X0599264Y0322988D02*
D03*
D29*
X1114604Y0299832D02*
D03*
X1058504Y0329374D02*
D03*
Y0289974D02*
D03*
Y0250574D02*
D03*
Y0319574D02*
D03*
Y0301074D02*
D03*
Y0211174D02*
D03*
X1080904Y0289974D02*
D03*
X1102104D02*
D03*
X1114604Y0270274D02*
D03*
Y0230874D02*
D03*
X1092304Y0211174D02*
D03*
X1114604Y0309674D02*
D03*
Y0319574D02*
D03*
Y0339174D02*
D03*
Y0349074D02*
D03*
X1058504Y0339174D02*
D03*
D149*
X0733122Y0318441D02*
X0749264D01*
X0753791Y0313913D01*
X0725445Y0326594D02*
X0726429Y0325610D01*
Y0325429D02*
Y0325610D01*
X0725445Y0326594D02*
Y0328874D01*
X0718260Y0316376D02*
Y0317063D01*
Y0315587D02*
Y0316376D01*
X0717772Y0328485D02*
X0718358Y0329071D01*
X0713634Y0324347D02*
X0717772Y0328485D01*
X0715307Y0315587D02*
X0718260D01*
X0713634Y0317260D02*
X0715307Y0315587D01*
X0713634Y0317260D02*
Y0324347D01*
X0724982Y0314757D02*
X0725051Y0314825D01*
X0724854Y0312831D02*
X0724982Y0312959D01*
X0725051Y0314825D02*
Y0316864D01*
X0724982Y0312959D02*
Y0314757D01*
X0718260Y0315587D02*
X0723575Y0310272D01*
X0728398Y0307715D02*
Y0308402D01*
Y0307319D02*
Y0307715D01*
Y0307319D02*
X0730661Y0305055D01*
X0736063Y0306740D02*
X0736374D01*
X0736976Y0306138D01*
X0737157D01*
X0734402Y0308401D02*
X0736063Y0306740D01*
X0730169Y0324445D02*
Y0333795D01*
Y0324445D02*
X0733122Y0321492D01*
X0725620Y0334780D02*
X0729185D01*
X0719539D02*
X0725620D01*
X0725445Y0334605D02*
X0725620Y0334780D01*
X0725445Y0331534D02*
Y0334605D01*
X0718358Y0332219D02*
Y0333598D01*
Y0331532D02*
Y0332219D01*
X0729185Y0334780D02*
X0730169Y0333795D01*
X0718358Y0333598D02*
X0719539Y0334780D01*
X0725075Y0322772D02*
X0728791D01*
X0719539D02*
X0725075D01*
X0725051Y0319524D02*
Y0322748D01*
X0725075Y0322772D01*
X0728791D02*
X0733122Y0318441D01*
X0718260Y0320210D02*
Y0321492D01*
Y0319523D02*
Y0320210D01*
Y0321492D02*
X0719539Y0322772D01*
X0734360Y0314898D02*
X0747689D01*
X0730169D02*
X0734360D01*
X0734402Y0314856D01*
Y0311062D02*
Y0314856D01*
X0728398Y0311549D02*
Y0313126D01*
Y0310862D02*
Y0311549D01*
X0747689Y0314898D02*
X0753004Y0309583D01*
X0728398Y0313126D02*
X0730169Y0314898D01*
D150*
X0924067Y0366472D02*
Y0372378D01*
X0918358Y0360764D02*
X0924067Y0366472D01*
X0923673Y0372378D02*
X0924067D01*
X0868555Y0360764D02*
X0918358D01*
X0808417Y0300626D02*
X0868555Y0360764D01*
X0808417Y0210173D02*
Y0300626D01*
X0779087Y0162240D02*
Y0180842D01*
X0808417Y0210173D01*
D151*
X0798476Y0390587D02*
X1166472D01*
X1176331Y0343244D02*
Y0380728D01*
X1166472Y0390587D02*
X1176331Y0380728D01*
X1174543Y0338415D02*
X1179972Y0343845D01*
Y0382220D01*
X1183122Y0341132D02*
Y0384780D01*
X1173863Y0331873D02*
X1183122Y0341132D01*
X1173863Y0319860D02*
Y0331873D01*
X0734402Y0308401D02*
Y0311062D01*
X0725051Y0316864D02*
Y0319524D01*
X0725445Y0328874D02*
Y0331534D01*
X0795130Y0392457D02*
X1169736D01*
X0782925Y0380252D02*
X0795130Y0392457D01*
X1169736D02*
X1179972Y0382220D01*
X0777610Y0369720D02*
X0798476Y0390587D01*
X0780071Y0366571D02*
X0801626Y0388126D01*
X1161665D02*
X1172591Y0377201D01*
X0801626Y0388126D02*
X1161665D01*
X0805268Y0385961D02*
X1158024D01*
X1166882Y0377102D01*
X0783614Y0364307D02*
X0805268Y0385961D01*
X0783319Y0361748D02*
X0805760Y0384189D01*
X1153398D02*
X1158417Y0379169D01*
X0805760Y0384189D02*
X1153398D01*
X0788929Y0359386D02*
X0811703Y0382159D01*
X1114285D02*
X1132236Y0364209D01*
X0811703Y0382159D02*
X1114285D01*
X0838043Y0377594D02*
X0900378D01*
X0900792Y0378009D02*
X0939763D01*
X0900378Y0377594D02*
X0900792Y0378009D01*
X0833909Y0373461D02*
X0838043Y0377594D01*
X1111272D02*
X1128988Y0359878D01*
X0940177Y0377594D02*
X1111272D01*
X0939763Y0378009D02*
X0940177Y0377594D01*
X0707677Y0354102D02*
X0747855D01*
X0754874Y0347083D01*
X0707925Y0351512D02*
X0747000D01*
X0751724Y0346787D01*
X0709598Y0349346D02*
X0709861D01*
X0710171Y0349656D01*
X0744624D01*
X0748673Y0345606D01*
X0725651Y0377102D02*
X0746123Y0397575D01*
X1170327D01*
X0711665Y0347870D02*
X0727512D01*
X0729972Y0345409D02*
X0745819D01*
X0727512Y0347870D02*
X0729972Y0345409D01*
X0778679Y0364307D02*
X0783614D01*
X0775543Y0361172D02*
X0778679Y0364307D01*
X0707914Y0356827D02*
X0794343D01*
X0706650Y0355563D02*
X0707914Y0356827D01*
X0703605D02*
X0704869Y0355563D01*
X0696016Y0356827D02*
X0703605D01*
X0704869Y0355563D02*
X0706650D01*
X0693063Y0353874D02*
X0696016Y0356827D01*
X0794343D02*
X0810976Y0373461D01*
X0707433Y0359386D02*
X0788929D01*
X0705760Y0357713D02*
X0707433Y0359386D01*
X0770917Y0336920D02*
Y0345501D01*
X0773665Y0348248D02*
X0811650D01*
X0770917Y0345501D02*
X0773665Y0348248D01*
X0811650D02*
X0827610Y0364209D01*
X0769343Y0335345D02*
X0770917Y0336920D01*
X0769343Y0335173D02*
Y0335345D01*
X0778693Y0323953D02*
Y0343638D01*
Y0320508D02*
Y0323953D01*
X0782728Y0321590D02*
Y0345803D01*
X0778693Y0320508D02*
X0793949Y0305252D01*
Y0224642D02*
Y0305252D01*
X0797787Y0222378D02*
Y0222838D01*
X0782728Y0321590D02*
X0797000Y0307319D01*
Y0223625D02*
Y0307319D01*
Y0223625D02*
X0797787Y0222838D01*
X0772855Y0306708D02*
X0775922Y0309775D01*
X0747651Y0297699D02*
X0756660Y0306708D01*
X0772855D01*
X0771114Y0308008D02*
X0773772Y0310665D01*
X0751003Y0302890D02*
X0756121Y0308008D01*
X0771114D01*
X0703267Y0302890D02*
X0751003D01*
X0702216Y0301839D02*
X0703267Y0302890D01*
X0714323Y0334976D02*
X0718260Y0338913D01*
X0748564D01*
X0775922Y0311556D01*
X0778693Y0343638D02*
X0778791Y0343736D01*
X0782728Y0345803D02*
X0783024Y0346098D01*
X0775922Y0309775D02*
Y0311556D01*
X1003791Y0368638D02*
X1008024Y0372870D01*
X0935990Y0374628D02*
X0941980Y0368638D01*
X1008024Y0372870D02*
X1032532D01*
X1034500Y0370901D02*
X1104579D01*
X1032532Y0372870D02*
X1034500Y0370901D01*
X1104579D02*
X1121705Y0353776D01*
Y0320409D02*
Y0353776D01*
Y0320409D02*
X1130996Y0311118D01*
X1137886D01*
X0941980Y0368638D02*
X1003791D01*
X0827610Y0364209D02*
X0893850D01*
X0904270Y0374628D01*
X0935990D01*
X1166882Y0346098D02*
Y0377102D01*
X1137886Y0301118D02*
Y0301256D01*
X1142571Y0305941D01*
X1151626D01*
X1155268Y0309583D01*
Y0334484D01*
X1166882Y0346098D01*
X1005711Y0360301D02*
Y0361314D01*
X1014126Y0348568D02*
Y0351886D01*
X1005711Y0360301D02*
X1014126Y0351886D01*
X0938653Y0364326D02*
X1002699D01*
X1005711Y0361314D01*
X0913535Y0351512D02*
X0925839D01*
X0938653Y0364326D01*
X1016139Y0346714D02*
X1016621Y0346231D01*
X1016884D01*
X1015980Y0346714D02*
X1016139D01*
X1014126Y0348568D02*
X1015980Y0346714D01*
X0699461Y0345016D02*
X0718161D01*
X0680281Y0325837D02*
X0699461Y0345016D01*
X0713437Y0341571D02*
X0714028Y0340980D01*
X0701232Y0341571D02*
X0713437D01*
X0690504Y0325626D02*
X0703201Y0338323D01*
X0744244Y0366571D02*
X0780071D01*
X0742965Y0369720D02*
X0777610D01*
X0782925Y0379957D02*
Y0380252D01*
X0810976Y0373461D02*
X0833909D01*
X0891094Y0366472D02*
X0901331Y0376709D01*
X0814421Y0366472D02*
X0891094D01*
X0811173Y0363224D02*
X0814421Y0366472D01*
X0810484Y0363224D02*
X0811173D01*
X1002709Y0371295D02*
X1007138Y0375724D01*
X0944638Y0371295D02*
X1002709D01*
X0939224Y0376709D02*
X0944638Y0371295D01*
X1007138Y0375724D02*
X1034598D01*
X1036567Y0373756D02*
X1108220D01*
X1034598Y0375724D02*
X1036567Y0373756D01*
X1132236Y0333992D02*
Y0364209D01*
Y0326217D02*
X1142984D01*
X1128988Y0329465D02*
X1132236Y0326217D01*
X1128988Y0329465D02*
Y0359878D01*
X1158417Y0348067D02*
Y0379169D01*
X1172591Y0343146D02*
Y0377201D01*
X1170327Y0397575D02*
X1183122Y0384780D01*
X1159500Y0330055D02*
X1172591Y0343146D01*
X1161862Y0328776D02*
X1176331Y0343244D01*
X1161862Y0327594D02*
X1162748Y0326709D01*
Y0300331D02*
Y0326709D01*
X1153535Y0291118D02*
X1162748Y0300331D01*
X1148181Y0131039D02*
Y0168638D01*
X1139028Y0133008D02*
Y0170606D01*
X1127512Y0182122D02*
X1139028Y0170606D01*
X0619441Y0269228D02*
X0621606Y0271394D01*
X0619441Y0252594D02*
Y0269228D01*
X0614913Y0248067D02*
X0619441Y0252594D01*
X0605071Y0248067D02*
X0614913D01*
X0599992Y0242988D02*
X0605071Y0248067D01*
X0599264Y0242988D02*
X0599992D01*
X0609264Y0232988D02*
X0622689Y0246413D01*
Y0266965D01*
X0626232Y0258500D02*
Y0318933D01*
X0622177Y0322988D02*
X0626232Y0318933D01*
X0629874Y0260469D02*
Y0323165D01*
X0708909Y0262338D02*
X0709894Y0263323D01*
X0708909Y0247575D02*
Y0262338D01*
X0609264Y0322988D02*
X0622177D01*
X0793949Y0224642D02*
X0794441Y0224150D01*
X0599264Y0322988D02*
X0607020Y0330744D01*
X0622295D01*
X0629874Y0323165D01*
X0697098Y0348756D02*
X0697394Y0348461D01*
X0680169Y0348756D02*
X0697098D01*
X0680661Y0345508D02*
X0691783D01*
X0718161Y0345016D02*
X0718457Y0345311D01*
X0901331Y0376709D02*
X0939224D01*
X1125051Y0323362D02*
X1132138Y0316276D01*
X1108220Y0373756D02*
X1125051Y0356925D01*
Y0323362D02*
Y0356925D01*
X1132236Y0333992D02*
X1135110Y0331118D01*
X1132138Y0316276D02*
X1143260D01*
X1147886Y0320901D01*
Y0321118D01*
X0846248Y0116545D02*
X0867748Y0138045D01*
X0841248Y0116545D02*
X0846248D01*
X0867748Y0138045D02*
X0867766Y0138028D01*
X0663339Y0264602D02*
X0666094Y0267358D01*
X0663339Y0247673D02*
Y0264602D01*
X1127512Y0182122D02*
Y0193638D01*
X1147886Y0301118D02*
X1152610D01*
X1147886Y0291118D02*
X1153535D01*
X1141488Y0194720D02*
X1166390Y0169819D01*
X1141488Y0194720D02*
Y0199051D01*
X1134992Y0205547D02*
X1141488Y0199051D01*
X1140405Y0221197D02*
X1154382Y0235173D01*
X0825150Y0252594D02*
X0832630Y0245114D01*
X0825150Y0252594D02*
Y0263224D01*
X1137886Y0291118D02*
Y0291512D01*
X1142571Y0296197D01*
X1152807D01*
X1161862Y0327594D02*
Y0328776D01*
X1152807Y0296197D02*
X1159500Y0302890D01*
Y0330055D01*
X1152610Y0301118D02*
X1157532Y0306039D01*
Y0332614D01*
X1158909Y0333992D01*
X1147886Y0311118D02*
X1149716D01*
X1152807Y0314209D01*
Y0342457D01*
X1158417Y0348067D01*
X1135110Y0331118D02*
X1137886D01*
X1142984Y0326217D02*
X1147886Y0331118D01*
X0730366Y0222378D02*
Y0238126D01*
X0720819Y0247673D02*
X0730366Y0238126D01*
X0720819Y0247673D02*
Y0247870D01*
X0737059Y0220705D02*
Y0246000D01*
Y0220705D02*
X0737748Y0220016D01*
X1121705Y0227594D02*
X1122000Y0227299D01*
X1121705Y0227594D02*
Y0259878D01*
X1139028Y0133008D02*
X1140701Y0131335D01*
Y0115488D02*
Y0131335D01*
X1179677Y0158992D02*
X1183319D01*
X1197787Y0179563D02*
X1198279D01*
X1183319Y0158992D02*
X1191783Y0150528D01*
X1198476Y0157122D02*
Y0164996D01*
X1194884Y0168588D02*
Y0176659D01*
X1197787Y0179563D01*
X1194884Y0168588D02*
X1198476Y0164996D01*
X1192522Y0154907D02*
Y0178923D01*
Y0154907D02*
X1194835Y0152594D01*
X1192522Y0178923D02*
X1198476Y0184878D01*
X1191783Y0140193D02*
Y0150528D01*
X1166390Y0132220D02*
Y0169819D01*
X1168752Y0129858D02*
X1177217D01*
X1166390Y0132220D02*
X1168752Y0129858D01*
X1140701Y0115488D02*
X1149067Y0123854D01*
X1175445D01*
X1191783Y0140193D01*
X0835583Y0248362D02*
X0835583D01*
X0846705Y0259484D01*
X0923969D01*
X0970228Y0213224D01*
X0918063Y0256630D02*
X0972492Y0202201D01*
X0828102Y0243047D02*
X0842669D01*
X0852610Y0252988D01*
X0914717D01*
X0970032Y0197673D01*
X1128988D02*
X1131167Y0195494D01*
Y0185652D02*
Y0195494D01*
Y0185652D02*
X1148181Y0168638D01*
X0871114Y0175626D02*
X0874658Y0179169D01*
Y0184681D01*
X0825839Y0233500D02*
X0874658Y0184681D01*
X0813732Y0233500D02*
X0825839D01*
X0660583Y0235764D02*
X0710090D01*
X0646213Y0250134D02*
X0660583Y0235764D01*
X0646213Y0250134D02*
Y0296492D01*
X0675445Y0283139D02*
X0675628Y0282956D01*
X0814913Y0238028D02*
X0826528D01*
X0706252Y0244917D02*
X0708909Y0247575D01*
X0746311Y0237437D02*
Y0254563D01*
X0721409Y0279465D02*
X0746311Y0254563D01*
X0721409Y0279465D02*
Y0297181D01*
X0826528Y0238028D02*
X0879959Y0184596D01*
X0879382Y0162831D02*
X0879959Y0163407D01*
Y0184596D01*
X0874953Y0174150D02*
X0877217D01*
X0874165Y0173362D02*
X0874953Y0174150D01*
X0874165Y0162831D02*
Y0173362D01*
Y0162831D02*
X0878004Y0158992D01*
X0880169D01*
X0884500Y0163323D01*
Y0186256D01*
X0830071Y0240685D02*
X0884500Y0186256D01*
X0734659Y0248400D02*
X0737059Y0246000D01*
X0766390Y0246689D02*
Y0289602D01*
X0763142Y0292850D02*
X0766390Y0289602D01*
X0763142Y0292850D02*
Y0297378D01*
X0820130Y0240685D02*
X0830071D01*
X0814126Y0246689D02*
X0820130Y0240685D01*
X0832630Y0245114D02*
X0837650D01*
X0849165Y0256630D01*
X0918063D01*
X0695228Y0249642D02*
Y0265193D01*
X0689716Y0244130D02*
X0695228Y0249642D01*
X0626232Y0258500D02*
X0650642Y0234090D01*
Y0204366D02*
Y0234090D01*
X0629874Y0260469D02*
X0655071Y0235272D01*
Y0207614D02*
Y0235272D01*
X0666488Y0245016D02*
Y0245606D01*
Y0245016D02*
X0670819Y0240685D01*
X0690701D01*
X0702216Y0252201D01*
X0677919Y0245297D02*
X0678201Y0245016D01*
X0675628Y0247856D02*
Y0282956D01*
X0675445Y0247673D02*
X0675628Y0247856D01*
X0867766Y0138028D02*
X0872394D01*
X1108614Y0221197D02*
X1140405D01*
X1037354Y0213224D02*
X1058024Y0233894D01*
X1095917D01*
X0970228Y0213224D02*
X1037354D01*
X1095917Y0233894D02*
X1108614Y0221197D01*
X0972492Y0202201D02*
X1035287D01*
X1110484Y0205547D02*
X1134992D01*
X1105464Y0210567D02*
X1110484Y0205547D01*
X1105464Y0210567D02*
Y0214996D01*
X1038732Y0205646D02*
Y0209583D01*
X1055858Y0226709D01*
X1093752D01*
X1105464Y0214996D01*
X1035287Y0202201D02*
X1038732Y0205646D01*
X1039717Y0197673D02*
X1043949Y0201905D01*
Y0209583D01*
X1055071Y0220705D01*
X1094441D01*
X1102020Y0213126D01*
X0970032Y0197673D02*
X1039717D01*
X1102020Y0208401D02*
Y0213126D01*
Y0208401D02*
X1112748Y0197673D01*
X1128988D01*
X0702216Y0252201D02*
Y0301839D01*
X0682419Y0246211D02*
X0683516Y0245114D01*
X0685104Y0325443D02*
X0701232Y0341571D01*
X0685090Y0248264D02*
Y0297378D01*
X0690504Y0302791D01*
Y0325626D01*
X0682419Y0246211D02*
Y0298644D01*
X0685104Y0301329D01*
Y0325443D01*
X0677919Y0245297D02*
Y0298671D01*
X0680281Y0301033D01*
Y0325837D01*
X0676035Y0344622D02*
X0680169Y0348756D01*
X0678102Y0342949D02*
X0680661Y0345508D01*
X0675445Y0283139D02*
Y0300528D01*
X0678102Y0303185D01*
Y0342949D01*
X0670527Y0246400D02*
Y0300137D01*
X0676035Y0305646D01*
Y0344622D01*
X0717669Y0246295D02*
Y0248067D01*
Y0246295D02*
X0726331Y0237634D01*
Y0221689D02*
Y0237634D01*
X0731252Y0247280D02*
X0734402Y0244130D01*
Y0221787D02*
Y0244130D01*
D152*
X0946311Y0265783D02*
X0946534Y0266007D01*
X0945681Y0267613D02*
X0960485Y0282417D01*
X0944705Y0267390D02*
X0944928Y0267613D01*
X0960985Y0281210D02*
X0994843D01*
X0946534Y0266759D02*
X0960985Y0281210D01*
X0946534Y0266007D02*
Y0266759D01*
X0944928Y0267613D02*
X0945681D01*
X0960485Y0282417D02*
X0994343D01*
X1001232Y0289307D01*
X1001732Y0288100D02*
X1008622D01*
X0994843Y0281210D02*
X1001732Y0288100D01*
X1001232Y0289307D02*
X1008122D01*
X1009506Y0290691D01*
X1008622Y0288100D02*
X1010713Y0290191D01*
X1008681Y0292017D02*
X1009506Y0291192D01*
X1010462Y0291943D02*
X1010713Y0291692D01*
Y0290191D02*
Y0291692D01*
X1008681Y0292017D02*
Y0292130D01*
X1009506Y0290691D02*
Y0291192D01*
X1010462Y0291943D02*
Y0293561D01*
X1010287Y0293736D02*
X1010462Y0293561D01*
X0990307Y0269524D02*
X0990530Y0269300D01*
Y0268548D02*
Y0269300D01*
Y0268548D02*
X0991125Y0267953D01*
X0988701Y0267917D02*
X0988924Y0267694D01*
X0993546Y0267953D02*
X0994749Y0269156D01*
X0991125Y0267953D02*
X0993546D01*
X0994046Y0266746D02*
X0995249Y0267949D01*
X0990625Y0266746D02*
X0994046D01*
X0989677Y0267694D02*
X0990625Y0266746D01*
X0988924Y0267694D02*
X0989677D01*
X0994749Y0269156D02*
X1008062D01*
X1024531Y0285625D01*
X1033160D02*
X1033692Y0286157D01*
X1025031Y0284418D02*
X1033160D01*
X1024531Y0285625D02*
X1033160D01*
X1008562Y0267949D02*
X1025031Y0284418D01*
X0995249Y0267949D02*
X1008562D01*
X1033692Y0283886D02*
X1034008D01*
X1033160Y0284418D02*
X1033692Y0283886D01*
Y0286157D02*
X1034008D01*
X0975610Y0274476D02*
X0975834Y0274700D01*
X0976586D01*
X0977652Y0275765D01*
X0984674D01*
X0985575Y0274865D01*
X0977217Y0272870D02*
X0977440Y0273093D01*
Y0273846D01*
X0984174Y0274558D02*
X0985075Y0273657D01*
X0977440Y0273846D02*
X0978152Y0274558D01*
X0984174D01*
X0985575Y0274865D02*
X1003928D01*
X1033258Y0292712D02*
X1033790Y0293244D01*
X1034106D01*
X1033790Y0290972D02*
X1034106D01*
X1021775Y0292712D02*
X1033258D01*
X1022275Y0291505D02*
X1033258D01*
X1033790Y0290972D01*
X0985075Y0273657D02*
X1004428D01*
X1022275Y0291505D01*
X1003928Y0274865D02*
X1021775Y0292712D01*
D153*
X1013836Y0364739D02*
X1015275Y0366177D01*
X1013836Y0363323D02*
Y0364739D01*
X1015275Y0366177D02*
X1043752D01*
X1074854Y0335075D01*
Y0276118D02*
Y0335075D01*
Y0276118D02*
X1088142Y0262831D01*
X1123772D01*
X1126232Y0230941D02*
Y0260370D01*
X1123772Y0262831D02*
X1126232Y0260370D01*
X1147886Y0281118D02*
X1154500Y0287732D01*
X1164224Y0243146D02*
X1171213Y0236157D01*
X0739520Y0248362D02*
X0740307Y0247575D01*
X1154500Y0287732D02*
X1195130D01*
X1197984Y0171394D02*
X1201626Y0175035D01*
Y0281236D01*
X1195130Y0287732D02*
X1201626Y0281236D01*
X1197984Y0171394D02*
X1200937Y0168441D01*
Y0143933D02*
Y0168441D01*
X1167669Y0119720D02*
X1176724D01*
X1200937Y0143933D01*
X0740307Y0167654D02*
Y0247575D01*
Y0167654D02*
X0765799Y0142161D01*
X0768752D01*
D155*
X0851331Y0238224D02*
X0858319D01*
X0850051Y0239504D02*
X0851331Y0238224D01*
D156*
X0728398Y0307715D02*
G03*
X0729859Y0308502I0000000J0001750D01*
G01*
X0727812Y0307816D02*
G03*
X0728398Y0307715I0000586J0001649D01*
G01*
X0726703Y0309030D02*
G03*
X0727812Y0307816I0001695J0000435D01*
G01*
X0728398Y0311549D02*
G03*
X0726703Y0310234I0000000J-0001750D01*
G01*
X0728984Y0311448D02*
G03*
X0728398Y0311549I-0000586J-0001649D01*
G01*
X0729859Y0308502D02*
G03*
X0730093Y0309030I-0001461J0000963D01*
G01*
Y0310234D02*
G03*
X0728984Y0311448I-0001695J-0000435D01*
G01*
X0736097Y0310434D02*
G03*
X0732706Y0310434I-0001695J-0000435D01*
G01*
Y0309029D02*
G03*
X0736097Y0309029I0001695J0000435D01*
G01*
X0716565Y0317691D02*
G03*
X0718260Y0316376I0001695J0000435D01*
G01*
D02*
G03*
X0719721Y0317163I0000000J0001750D01*
G01*
X0718260Y0320210D02*
G03*
X0716565Y0318895I0000000J-0001750D01*
G01*
X0718846Y0320109D02*
G03*
X0718260Y0320210I-0000586J-0001649D01*
G01*
X0719721Y0317163D02*
G03*
X0719955Y0317691I-0001461J0000963D01*
G01*
Y0318895D02*
G03*
X0718846Y0320109I-0001695J-0000435D01*
G01*
X0726746Y0318896D02*
G03*
X0723356Y0318896I-0001695J-0000435D01*
G01*
Y0317491D02*
G03*
X0726746Y0317491I0001695J0000435D01*
G01*
X0717772Y0328485D02*
G03*
X0718358Y0328384I0000586J0001649D01*
G01*
X0716663Y0329699D02*
G03*
X0717772Y0328485I0001695J0000435D01*
G01*
X0718358Y0332219D02*
G03*
X0716663Y0330904I0000000J-0001750D01*
G01*
X0718944Y0332118D02*
G03*
X0718358Y0332219I-0000586J-0001649D01*
G01*
X0719819Y0329171D02*
G03*
X0720053Y0329699I-0001461J0000963D01*
G01*
X0718358Y0328384D02*
G03*
X0719819Y0329171I0000000J0001750D01*
G01*
X0720053Y0330904D02*
G03*
X0718944Y0332118I-0001695J-0000435D01*
G01*
X0727140Y0330906D02*
G03*
X0723750Y0330906I-0001695J-0000435D01*
G01*
Y0329502D02*
G03*
X0727140Y0329502I0001695J0000435D01*
G01*
D157*
X0995671Y0260222D02*
X1003250D01*
X0995622Y0260272D02*
X0995671Y0260222D01*
X1003250D02*
X1003299Y0260173D01*
X1011385Y0260370D02*
X1018752D01*
X1011090Y0260075D02*
X1011385Y0260370D01*
X1010878Y0260075D02*
X1011090D01*
D158*
X0812498Y0173795D02*
X0812748Y0174045D01*
X0842748D01*
X0853498Y0184795D01*
X0658278Y0119795D02*
Y0147026D01*
X0643358Y0161945D02*
X0658278Y0147026D01*
X0639323Y0161945D02*
X0643358D01*
D161*
X1198673Y0339898D02*
Y0345705D01*
X0678988Y0138028D02*
X0682748Y0141787D01*
Y0199045D01*
X0673083Y0137634D02*
X0678594D01*
X0678988Y0138028D01*
X0623378Y0124996D02*
X0630563Y0132181D01*
Y0149839D01*
X0628496Y0151906D02*
X0630563Y0149839D01*
X1207335Y0129957D02*
Y0331236D01*
X1198673Y0121295D02*
X1207335Y0129957D01*
X1198673Y0339898D02*
X1207335Y0331236D01*
D181*
X1183713Y0144484D02*
D03*
Y0166846D02*
D03*
X1131744Y0144484D02*
D03*
Y0166846D02*
D03*
X0955742Y0143626D02*
D03*
Y0165988D02*
D03*
X0903774Y0143626D02*
D03*
Y0165988D02*
D03*
D182*
X1143752Y0165488D02*
D03*
X1171311D02*
D03*
X1153594D02*
D03*
X1161469D02*
D03*
Y0155154D02*
D03*
X1153594D02*
D03*
X1171311D02*
D03*
X1143752D02*
D03*
X1029728Y0208295D02*
D03*
X1021736D02*
D03*
X0997760D02*
D03*
X0989768D02*
D03*
X1033724Y0218295D02*
D03*
X1025732D02*
D03*
X1017740D02*
D03*
X0915781Y0164630D02*
D03*
X0943340D02*
D03*
X0925624D02*
D03*
X0933498D02*
D03*
X0943340Y0154295D02*
D03*
X0915781D02*
D03*
X0925624D02*
D03*
X0933498D02*
D03*
D183*
X1198673Y0345705D02*
D03*
X0600248Y0121295D02*
D03*
X1198673D02*
D03*
X0600248Y0345705D02*
D03*
D184*
X0815748Y0121795D02*
D03*
D185*
X1067604Y0357374D02*
D03*
X1114311Y0211165D02*
D03*
X1105404Y0357374D02*
D03*
X1086502D02*
D03*
D186*
X1067756Y0332622D02*
D03*
X1105649Y0332819D02*
D03*
D187*
X0987740Y0180264D02*
D03*
X1031756D02*
D03*
D188*
X1041500Y0135775D02*
D03*
X0977996D02*
D03*
X0732748Y0119045D02*
D03*
X0712748D02*
D03*
X0722748Y0199045D02*
D03*
X0682748D02*
D03*
Y0119045D02*
D03*
X0762748Y0199045D02*
D03*
D189*
X1033744Y0228295D02*
D03*
X1023744D02*
D03*
X0995752D02*
D03*
X0985752D02*
D03*
D190*
X0623378Y0124996D02*
D03*
D191*
Y0114996D02*
D03*
D192*
X0658278Y0119795D02*
D03*
D193*
X0644498D02*
D03*
D194*
X1150937Y0246984D02*
D03*
X1140937D02*
D03*
D195*
X1130937D02*
D03*
D196*
X0858429Y0113224D02*
D03*
X0881067D02*
D03*
D197*
X0959579Y0362177D02*
D03*
X1137886Y0371118D02*
D03*
X1147886D02*
D03*
X1137886Y0361118D02*
D03*
X1147886D02*
D03*
X1137886Y0351118D02*
D03*
X1147886D02*
D03*
X1137886Y0341118D02*
D03*
X1147886D02*
D03*
X1137886Y0331118D02*
D03*
X1147886D02*
D03*
X1137886Y0321118D02*
D03*
X1147886D02*
D03*
X1137886Y0311118D02*
D03*
X1147886D02*
D03*
X1137886Y0301118D02*
D03*
X1147886D02*
D03*
Y0291118D02*
D03*
X1137886D02*
D03*
Y0281118D02*
D03*
X1147886D02*
D03*
Y0271118D02*
D03*
X1137886D02*
D03*
X0758024Y0318933D02*
D03*
X0753791Y0313913D02*
D03*
X0729283Y0319425D02*
D03*
X0718555Y0311354D02*
D03*
X0701035Y0308205D02*
D03*
X0726429Y0325429D02*
D03*
X0724854Y0312831D02*
D03*
X0737157Y0306138D02*
D03*
X0768949Y0310567D02*
D03*
X0999123Y0380374D02*
D03*
X1045720Y0379760D02*
D03*
X1018260Y0394868D02*
D03*
X1010983D02*
D03*
X0996752D02*
D03*
X0989260D02*
D03*
X0975191D02*
D03*
X0966782D02*
D03*
X0954283Y0394819D02*
D03*
X1030563Y0395016D02*
D03*
X0962551Y0380055D02*
D03*
X0969638Y0379858D02*
D03*
X1004776Y0380350D02*
D03*
X1012059Y0379858D02*
D03*
X0707677Y0354102D02*
D03*
X0707925Y0351512D02*
D03*
X0754874Y0347083D02*
D03*
X0751724Y0346787D02*
D03*
X0709598Y0349346D02*
D03*
X0748673Y0345606D02*
D03*
X0711665Y0347870D02*
D03*
X0745819Y0345409D02*
D03*
X0775543Y0361172D02*
D03*
X0769343Y0335173D02*
D03*
X0778693Y0323953D02*
D03*
X0782630Y0321590D02*
D03*
X0761813Y0303726D02*
D03*
X0730661Y0305055D02*
D03*
X0723575Y0310272D02*
D03*
X0733122Y0321492D02*
D03*
X0753004Y0309583D02*
D03*
X0745720Y0322772D02*
D03*
X0747000Y0334090D02*
D03*
X0739421Y0307811D02*
D03*
X0747394Y0307713D02*
D03*
X0944705Y0267390D02*
D03*
X0946311Y0265783D02*
D03*
X1008681Y0292130D02*
D03*
X1010287Y0293736D02*
D03*
X0988701Y0267917D02*
D03*
X0990307Y0269524D02*
D03*
X1034008Y0283886D02*
D03*
Y0286157D02*
D03*
X0975610Y0274476D02*
D03*
X0977217Y0272870D02*
D03*
X1034106Y0290972D02*
D03*
Y0293244D02*
D03*
X1014323Y0320901D02*
D03*
X0938344Y0254470D02*
D03*
X0937582Y0249819D02*
D03*
X1126232Y0230941D02*
D03*
X1033713Y0250232D02*
D03*
X1041587Y0251610D02*
D03*
X1048083Y0250921D02*
D03*
X0990504Y0247575D02*
D03*
X1023476Y0247280D02*
D03*
X1010091Y0244917D02*
D03*
X1004185Y0244327D02*
D03*
X1003791Y0360469D02*
D03*
X0999264Y0360567D02*
D03*
X0974829Y0331122D02*
D03*
X0977217Y0331138D02*
D03*
X0957799Y0315461D02*
D03*
X0955858Y0313520D02*
D03*
X1009941Y0318962D02*
D03*
X0972689Y0326905D02*
D03*
X1021311Y0320901D02*
D03*
X1018949D02*
D03*
X1032162Y0313599D02*
D03*
Y0310578D02*
D03*
X1029283Y0310567D02*
D03*
X1035583Y0300823D02*
D03*
X1015898Y0292752D02*
D03*
X1011272Y0297476D02*
D03*
X1029382Y0305047D02*
D03*
X1026724Y0309197D02*
D03*
X1023772Y0312240D02*
D03*
X1035583Y0310567D02*
D03*
X0969682Y0351315D02*
D03*
X0964626Y0342301D02*
D03*
Y0351315D02*
D03*
X0960376Y0339551D02*
D03*
Y0330196D02*
D03*
Y0324301D02*
D03*
X0971876Y0312390D02*
D03*
X0968730Y0309535D02*
D03*
X0965799Y0304973D02*
D03*
Y0300338D02*
D03*
X0998772Y0281720D02*
D03*
X0993457Y0277693D02*
D03*
X1000626Y0294146D02*
D03*
X0989733Y0301626D02*
D03*
X0992276Y0295409D02*
D03*
X1013732Y0369425D02*
D03*
X1011075Y0369524D02*
D03*
X1022591Y0368835D02*
D03*
X1025346D02*
D03*
X1019736D02*
D03*
X1040405Y0355744D02*
D03*
X1048083Y0350724D02*
D03*
X1047984Y0348165D02*
D03*
X1037354Y0349248D02*
D03*
X1034795D02*
D03*
X1037846Y0343146D02*
D03*
X1035091D02*
D03*
X1037945Y0331925D02*
D03*
X1035091D02*
D03*
X1012551Y0317260D02*
D03*
X1009402Y0286059D02*
D03*
X0971705Y0299838D02*
D03*
X0986370Y0295606D02*
D03*
X0987748Y0288913D02*
D03*
X0989717Y0286748D02*
D03*
X0995622Y0260272D02*
D03*
X1003299Y0260173D02*
D03*
X1010878Y0260075D02*
D03*
X1018752Y0260370D02*
D03*
X1019998Y0353707D02*
D03*
X1021902Y0356039D02*
D03*
X1018063Y0351709D02*
D03*
X1016761Y0348598D02*
D03*
X1016884Y0346231D02*
D03*
X1016291Y0363323D02*
D03*
X1013836Y0363323D02*
D03*
X0977709Y0355252D02*
D03*
X0975740Y0357122D02*
D03*
X0973575Y0344622D02*
D03*
X0973870Y0339701D02*
D03*
X0968457Y0336354D02*
D03*
X0969441Y0329858D02*
D03*
Y0327201D02*
D03*
X1007827Y0360862D02*
D03*
X1022492Y0348362D02*
D03*
X1022000Y0343146D02*
D03*
X1022991Y0331176D02*
D03*
X1034992Y0307122D02*
D03*
X1016587Y0320901D02*
D03*
X0957152Y0309399D02*
D03*
X0998083Y0311059D02*
D03*
Y0313815D02*
D03*
X0992228Y0311128D02*
D03*
X0992177Y0313717D02*
D03*
D198*
X1167839Y0385295D02*
D03*
X1181760Y0317488D02*
D03*
X1174543Y0338415D02*
D03*
X1173863Y0319860D02*
D03*
X0725651Y0377102D02*
D03*
X0783319Y0361748D02*
D03*
X0778791Y0343736D02*
D03*
X0783024Y0346098D02*
D03*
X0747651Y0297699D02*
D03*
X0739520Y0248362D02*
D03*
X0625642Y0197968D02*
D03*
X0632335Y0238126D02*
D03*
X0621606Y0271394D02*
D03*
X0622689Y0266965D02*
D03*
X0709894Y0263323D02*
D03*
X0782925Y0379957D02*
D03*
X0714323Y0334976D02*
D03*
X0697394Y0348461D02*
D03*
X0693063Y0353874D02*
D03*
X0705760Y0357713D02*
D03*
X0691783Y0345508D02*
D03*
X0742965Y0369720D02*
D03*
X0714028Y0340980D02*
D03*
X0703201Y0338323D02*
D03*
X0687354Y0312831D02*
D03*
X0744244Y0366571D02*
D03*
X0718457Y0345311D02*
D03*
X0810484Y0363224D02*
D03*
X0923673Y0372378D02*
D03*
X0881055Y0374543D02*
D03*
X0924559Y0354268D02*
D03*
X0861998Y0160545D02*
D03*
X0841248Y0116545D02*
D03*
X0880248Y0134795D02*
D03*
X0856498Y0160795D02*
D03*
X0856998Y0136795D02*
D03*
X0849748Y0160545D02*
D03*
X0839498Y0212795D02*
D03*
X0832998Y0168545D02*
D03*
X0830748Y0191545D02*
D03*
X0812498Y0173795D02*
D03*
X0853498Y0184795D02*
D03*
X0947998Y0181295D02*
D03*
X0665307Y0297378D02*
D03*
X0673181Y0308106D02*
D03*
X0670228Y0311256D02*
D03*
X0661567Y0300626D02*
D03*
X0870524Y0160468D02*
D03*
X0872394Y0138028D02*
D03*
X0879579Y0149937D02*
D03*
X0895917Y0152890D02*
D03*
X0905760Y0176709D02*
D03*
X0870228Y0181335D02*
D03*
X0883713Y0192063D02*
D03*
X0890012Y0174346D02*
D03*
X0931941Y0186748D02*
D03*
X0928791Y0188716D02*
D03*
X0917079Y0186846D02*
D03*
X0913831Y0188716D02*
D03*
X0916488Y0210764D02*
D03*
X0918063Y0224642D02*
D03*
X1136665Y0191669D02*
D03*
X1118850Y0201709D02*
D03*
X1172886Y0211256D02*
D03*
X0966783Y0242260D02*
D03*
X0715996Y0307614D02*
D03*
X0693063Y0313520D02*
D03*
X0682531Y0312831D02*
D03*
X0706153Y0249248D02*
D03*
X0925051Y0342653D02*
D03*
X0924461Y0330646D02*
D03*
X0925248Y0318933D02*
D03*
X0946705Y0310961D02*
D03*
X0666094Y0267358D02*
D03*
X0663339Y0247673D02*
D03*
X1190602Y0251217D02*
D03*
X1184697Y0251413D02*
D03*
X1162158Y0268933D02*
D03*
X1160779Y0345409D02*
D03*
X1169441Y0366472D02*
D03*
X1162059Y0371492D02*
D03*
X1181835Y0335870D02*
D03*
X1180760Y0232909D02*
D03*
X1164224Y0243539D02*
D03*
X1187846Y0279760D02*
D03*
X1171213Y0236157D02*
D03*
X0825445Y0369425D02*
D03*
X0824953Y0377594D02*
D03*
X0797787Y0222378D02*
D03*
X0794441Y0224150D02*
D03*
X0828102Y0243047D02*
D03*
X1122000Y0227299D02*
D03*
X1126823Y0194524D02*
D03*
X0825150Y0263224D02*
D03*
X1151035Y0189799D02*
D03*
X1162846Y0190193D02*
D03*
X1154382Y0235173D02*
D03*
X0850051Y0239504D02*
D03*
X0835583Y0248362D02*
D03*
X1158909Y0333992D02*
D03*
X1161862Y0327594D02*
D03*
X0730366Y0222378D02*
D03*
X0720819Y0247870D02*
D03*
X0717669Y0248067D02*
D03*
X0726331Y0221689D02*
D03*
X0734402Y0221787D02*
D03*
X0737748Y0220016D02*
D03*
X0650642Y0204366D02*
D03*
X0655071Y0207614D02*
D03*
X0695228Y0265193D02*
D03*
X1192472Y0224740D02*
D03*
X1121705Y0259878D02*
D03*
X1185878Y0394032D02*
D03*
X1182433Y0191571D02*
D03*
X1187748Y0192063D02*
D03*
X1140701Y0115488D02*
D03*
X1170032Y0134287D02*
D03*
X1179677Y0158992D02*
D03*
X1171114Y0179563D02*
D03*
X1198279D02*
D03*
X1198476Y0184878D02*
D03*
X1197984Y0171394D02*
D03*
X1198476Y0157122D02*
D03*
X1194835Y0152594D02*
D03*
X1177217Y0129858D02*
D03*
X1148181Y0131039D02*
D03*
X1167669Y0119720D02*
D03*
X0949037Y0188028D02*
D03*
X0944061Y0181295D02*
D03*
X0790799Y0130785D02*
D03*
X0768752Y0142161D02*
D03*
X0779087Y0162240D02*
D03*
X0678988Y0138028D02*
D03*
X0673083Y0137634D02*
D03*
X0676035Y0137535D02*
D03*
X0891291Y0169819D02*
D03*
X0894539Y0223756D02*
D03*
X1170327Y0207319D02*
D03*
X1123378Y0212240D02*
D03*
X1125372Y0215788D02*
D03*
X0899658Y0233697D02*
D03*
X1134303Y0194622D02*
D03*
X0790498Y0117295D02*
D03*
X0727709Y0263815D02*
D03*
X0645917Y0202201D02*
D03*
X0640012Y0192457D02*
D03*
X0691685Y0150429D02*
D03*
X0689323Y0129661D02*
D03*
X0639323Y0161945D02*
D03*
X0628496Y0151906D02*
D03*
X0871114Y0175626D02*
D03*
X0646213Y0296492D02*
D03*
X0813732Y0233500D02*
D03*
X0710090Y0235764D02*
D03*
X0649165Y0298559D02*
D03*
X0651232Y0301217D02*
D03*
X0667177Y0332220D02*
D03*
X0667374Y0316472D02*
D03*
X0671213Y0315980D02*
D03*
X0651823Y0282220D02*
D03*
X0660250Y0282577D02*
D03*
X0667337Y0282443D02*
D03*
X0673378Y0282024D02*
D03*
X0710779Y0296295D02*
D03*
X0879382Y0162831D02*
D03*
X0814913Y0238028D02*
D03*
X0706252Y0244917D02*
D03*
X0746311Y0237437D02*
D03*
X0724067Y0295016D02*
D03*
X0716882Y0294917D02*
D03*
X0721409Y0297181D02*
D03*
X0731116Y0294648D02*
D03*
X0738203D02*
D03*
X0745289D02*
D03*
X0752376D02*
D03*
X0759463D02*
D03*
X0766549D02*
D03*
X0876724Y0170803D02*
D03*
X0877217Y0174150D02*
D03*
X0814126Y0246689D02*
D03*
X0731252Y0247280D02*
D03*
X0734659Y0248400D02*
D03*
X0766390Y0246689D02*
D03*
X0763142Y0297378D02*
D03*
X0773636Y0294648D02*
D03*
X0780722D02*
D03*
X0787809D02*
D03*
X0791390Y0296492D02*
D03*
X0802020Y0294819D02*
D03*
X0816193D02*
D03*
X0823181Y0294425D02*
D03*
X0830366Y0294720D02*
D03*
X0837453Y0294228D02*
D03*
X0851626Y0294524D02*
D03*
X0858713Y0295213D02*
D03*
X0870524Y0280449D02*
D03*
X0882039Y0280744D02*
D03*
X0887748Y0281433D02*
D03*
X0877512Y0237437D02*
D03*
X0869343Y0248559D02*
D03*
X0858417Y0249642D02*
D03*
X0841980Y0245901D02*
D03*
X0836173Y0263224D02*
D03*
X0828693Y0263028D02*
D03*
X0821939Y0249112D02*
D03*
X0815898Y0249838D02*
D03*
X0805366Y0249346D02*
D03*
X0801035Y0249543D02*
D03*
X0790504Y0249445D02*
D03*
X0785386Y0249248D02*
D03*
X0781252D02*
D03*
X0773083Y0249150D02*
D03*
X0763043Y0248559D02*
D03*
X0757728Y0248953D02*
D03*
X0751921Y0248854D02*
D03*
X0743358Y0248067D02*
D03*
X0731941Y0263126D02*
D03*
X0719539Y0264504D02*
D03*
X0715406Y0264110D02*
D03*
X0709008Y0240882D02*
D03*
X0689028Y0263323D02*
D03*
X0687650Y0295705D02*
D03*
X0689815Y0249445D02*
D03*
X0685090Y0248264D02*
D03*
X0689716Y0244130D02*
D03*
X0683516Y0245114D02*
D03*
X0678201Y0245016D02*
D03*
X0666488Y0245606D02*
D03*
X0773772Y0310665D02*
D03*
X0913535Y0351512D02*
D03*
X0680169Y0262831D02*
D03*
X0675445Y0247673D02*
D03*
X0670527Y0246400D02*
D03*
X0673969Y0244720D02*
D03*
X0666685Y0262634D02*
D03*
X0658909Y0248559D02*
D03*
X0650740Y0249445D02*
D03*
X0643358Y0262240D02*
D03*
X0879185Y0139504D02*
D03*
X0885189Y0203972D02*
D03*
X0860386Y0215094D02*
D03*
X0875642Y0231532D02*
D03*
X0877610Y0197181D02*
D03*
X0924165Y0237732D02*
D03*
X0811370Y0205055D02*
D03*
X0822787Y0191964D02*
D03*
X0826724Y0193835D02*
D03*
X0795917Y0203579D02*
D03*
X0800642Y0208008D02*
D03*
X0787157Y0183303D02*
D03*
X0774756Y0211256D02*
D03*
X0691390Y0388224D02*
D03*
X0706646Y0388421D02*
D03*
X0655169Y0375823D02*
D03*
X0671213Y0346590D02*
D03*
X0702216Y0330941D02*
D03*
X0805563Y0166405D02*
D03*
X0797394Y0167051D02*
D03*
X1191390Y0307122D02*
D03*
X1167866Y0235567D02*
D03*
X1146803Y0203972D02*
D03*
X0793457Y0111650D02*
D03*
X0810583Y0168342D02*
D03*
X1044736Y0193736D02*
D03*
X0599559Y0388028D02*
D03*
X0790307Y0123362D02*
D03*
X0841390Y0129071D02*
D03*
X0887551Y0164012D02*
D03*
X0873575Y0216276D02*
D03*
X1129382Y0214701D02*
D03*
X0710779Y0307220D02*
D03*
D199*
X0983056Y0316629D02*
D03*
X0981055Y0312437D02*
D03*
X0977709D02*
D03*
X0988417Y0351043D02*
D03*
X0984087Y0346713D02*
D03*
X1010071Y0325059D02*
D03*
X1005740D02*
D03*
X1001409D02*
D03*
X0997079D02*
D03*
X0992748D02*
D03*
X0988417D02*
D03*
X0984087D02*
D03*
X1010071Y0329390D02*
D03*
X1005740D02*
D03*
X1001409D02*
D03*
X0997079D02*
D03*
X0992748D02*
D03*
X0988417D02*
D03*
X0984087D02*
D03*
X1010071Y0333720D02*
D03*
X1005740D02*
D03*
X1001409D02*
D03*
X0997079D02*
D03*
X0992748D02*
D03*
X0988417D02*
D03*
X0984087D02*
D03*
X1010071Y0338051D02*
D03*
X1005740D02*
D03*
X1001409D02*
D03*
X0997079D02*
D03*
X0992748D02*
D03*
X0988417D02*
D03*
X0984087D02*
D03*
X1010071Y0342382D02*
D03*
X1005740D02*
D03*
X1001409D02*
D03*
X0997079D02*
D03*
X0992748D02*
D03*
X0988417D02*
D03*
X0984087D02*
D03*
X1010071Y0346713D02*
D03*
X1005740D02*
D03*
X1001409D02*
D03*
X0997079D02*
D03*
X0992748D02*
D03*
X0988417D02*
D03*
X1010071Y0351043D02*
D03*
X1005740D02*
D03*
X1001409D02*
D03*
X0997079D02*
D03*
X0992748D02*
D03*
X0984087D02*
D03*
D200*
X0791291Y0223362D02*
D03*
X0858319Y0238224D02*
D03*
X0912551Y0205941D02*
D03*
X0952709Y0192457D02*
D03*
X0948969D02*
D03*
X0952709Y0187959D02*
D03*
X0947984Y0177102D02*
D03*
X0944047D02*
D03*
X0794343Y0117260D02*
D03*
X0786862D02*
D03*
X0786961Y0130744D02*
D03*
X0794736Y0130842D02*
D03*
X0800642Y0187535D02*
D03*
X0804185D02*
D03*
Y0184189D02*
D03*
X0800642D02*
D03*
X0804185Y0180744D02*
D03*
X0800642D02*
D03*
X0787256Y0148756D02*
D03*
Y0145311D02*
D03*
X0790799D02*
D03*
Y0148756D02*
D03*
X0794343Y0145311D02*
D03*
Y0148756D02*
D03*
X0817177Y0221492D02*
D03*
Y0217949D02*
D03*
X0820622Y0221492D02*
D03*
X0824165D02*
D03*
X0676035Y0194524D02*
D03*
Y0191276D02*
D03*
Y0188028D02*
D03*
Y0184780D02*
D03*
X0874067Y0302201D02*
D03*
X0877610D02*
D03*
Y0299051D02*
D03*
X0874067D02*
D03*
Y0295901D02*
D03*
X0877610D02*
D03*
X0886567Y0295803D02*
D03*
X0883024D02*
D03*
Y0298953D02*
D03*
X0886567D02*
D03*
Y0302102D02*
D03*
X0883024D02*
D03*
X0890898Y0302201D02*
D03*
X0894441D02*
D03*
Y0299051D02*
D03*
X0890898D02*
D03*
X0894441Y0295901D02*
D03*
X0895622Y0246000D02*
D03*
Y0249543D02*
D03*
X0898772D02*
D03*
Y0246000D02*
D03*
X0901921D02*
D03*
Y0249543D02*
D03*
X0890898Y0295901D02*
D03*
X0824165Y0217949D02*
D03*
X0820622D02*
D03*
X1135412Y0198464D02*
D03*
X0885287Y0246984D02*
D03*
X0881744D02*
D03*
Y0250134D02*
D03*
X0885287D02*
D03*
X0881744Y0243835D02*
D03*
X0885287D02*
D03*
X0876429Y0249346D02*
D03*
X0873673D02*
D03*
X0873772Y0246197D02*
D03*
X0876528D02*
D03*
X0873772Y0243047D02*
D03*
X0876528D02*
D03*
X0840307Y0180795D02*
D03*
X0824362Y0180842D02*
D03*
D201*
X0692571Y0296689D02*
D03*
D212*
X0728398Y0308402D02*
D03*
Y0310862D02*
D03*
X0734402Y0308401D02*
D03*
Y0311062D02*
D03*
X0718260Y0317063D02*
D03*
Y0319523D02*
D03*
X0725051Y0316864D02*
D03*
Y0319524D02*
D03*
X0718358Y0329071D02*
D03*
Y0331532D02*
D03*
X0725445Y0328874D02*
D03*
Y0331534D02*
D03*
M02*
